999
dxfrw 0.6.3
  0
SECTION
  2
HEADER
  9
$ACADVER
  1
AC1021
  9
$DWGCODEPAGE
  3
ANSI_1252
  9
$INSBASE
 10
0
 20
0
 30
0
  9
$EXTMIN
 10
26.48442570757121
 20
69.70027504640356
 30
0
  9
$EXTMAX
 10
81.48442570766916
 20
98.49944509977445
 30
0
  9
$LIMMIN
 10
0
 20
0
  9
$LIMMAX
 10
105
 20
148.5
  9
$ORTHOMODE
 70
    0
  9
$REGENMODE
 70
    1
  9
$FILLMODE
 70
    1
  9
$QTEXTMODE
 70
    0
  9
$MIRRTEXT
 70
    0
  9
$LTSCALE
 40
0.5
  9
$ATTMODE
 70
    1
  9
$TEXTSIZE
 40
0.2
  9
$TRACEWID
 40
0.05
  9
$TEXTSTYLE
  7
STANDARD
  9
$CLAYER
  8
0
  9
$CELTYPE
  6
BYLAYER
  9
$CECOLOR
 62
  256
  9
$CELTSCALE
 40
1
  9
$DISPSILH
 70
    0
  9
$DIMSCALE
 40
1
  9
$DIMASZ
 40
1.799999999999999
  9
$DIMEXO
 40
0.0625
  9
$DIMDLI
 40
0.38
  9
$DIMRND
 40
0
  9
$DIMDLE
 40
0
  9
$DIMEXE
 40
0.18
  9
$DIMTP
 40
0
  9
$DIMTM
 40
0
  9
$DIMTXT
 40
0.2000000029802322
  9
$DIMCEN
 40
0.09
  9
$DIMTSZ
 40
0
  9
$DIMTOL
 70
    0
  9
$DIMLIM
 70
    0
  9
$DIMTIH
 70
    1
  9
$DIMTOH
 70
    1
  9
$DIMSE1
 70
    0
  9
$DIMSE2
 70
    0
  9
$DIMTAD
 70
    0
  9
$DIMZIN
 70
    0
  9
$DIMBLK
  1

  9
$DIMASO
 70
    1
  9
$DIMSHO
 70
    1
  9
$DIMPOST
  1

  9
$DIMAPOST
  1

  9
$DIMALT
 70
    0
  9
$DIMALTD
 70
    2
  9
$DIMALTF
 40
25.4
  9
$DIMLFAC
 40
1
  9
$DIMTOFL
 70
    0
  9
$DIMTVP
 40
0
  9
$DIMTIX
 70
    0
  9
$DIMSOXD
 70
    0
  9
$DIMSAH
 70
    0
  9
$DIMBLK1
  1

  9
$DIMBLK2
  1

  9
$DIMSTYLE
  2
STANDARD
  9
$DIMCLRD
 70
    0
  9
$DIMCLRE
 70
    0
  9
$DIMCLRT
 70
    0
  9
$DIMTFAC
 40
1
  9
$DIMGAP
 40
0.09
  9
$DIMJUST
 70
    0
  9
$DIMSD1
 70
    0
  9
$DIMSD2
 70
    0
  9
$DIMTOLJ
 70
    0
  9
$DIMTZIN
 70
    8
  9
$DIMALTZ
 70
    0
  9
$DIMALTTZ
 70
    0
  9
$DIMUPT
 70
    0
  9
$DIMDEC
 70
    4
  9
$DIMTDEC
 70
    2
  9
$DIMALTU
 70
    2
  9
$DIMALTTD
 70
    3
  9
$DIMTXSTY
  7
STANDARD
  9
$DIMAUNIT
 70
    0
  9
$DIMADEC
 70
    0
  9
$DIMALTRND
 40
0
  9
$DIMAZIN
 70
    0
  9
$DIMDSEP
 70
   44
  9
$DIMATFIT
 70
    3
  9
$DIMFRAC
 70
    0
  9
$DIMLDRBLK
  1
STANDARD
  9
$DIMLUNIT
 70
    2
  9
$DIMLWD
 70
   -2
  9
$DIMLWE
 70
   -2
  9
$DIMTMOVE
 70
    0
  9
$DIMFXL
 40
1
  9
$DIMFXLON
 70
    0
  9
$DIMJOGANG
 40
0.7854
  9
$DIMTFILL
 70
    0
  9
$DIMTFILLCLR
 70
    0
  9
$DIMARCSYM
 70
    0
  9
$DIMLTYPE
  6

  9
$DIMLTEX1
  6

  9
$DIMLTEX2
  6

  9
$LUNITS
 70
    2
  9
$LUPREC
 70
    2
  9
$SKETCHINC
 40
0.1
  9
$FILLETRAD
 40
0
  9
$AUNITS
 70
    0
  9
$AUPREC
 70
    0
  9
$MENU
  1
.
  9
$ELEVATION
 40
0
  9
$PELEVATION
 40
0
  9
$THICKNESS
 40
0
  9
$LIMCHECK
 70
    0
  9
$CHAMFERA
 40
0
  9
$CHAMFERB
 40
0
  9
$CHAMFERC
 40
0
  9
$CHAMFERD
 40
0
  9
$SKPOLY
 70
    0
  9
$USRTIMER
 70
    1
  9
$ANGBASE
 50
0
  9
$ANGDIR
 70
    0
  9
$PDMODE
 70
    0
  9
$PDSIZE
 40
0
  9
$PLINEWID
 40
0
  9
$SPLFRAME
 70
    0
  9
$SPLINETYPE
 70
    6
  9
$SPLINESEGS
 70
    8
  9
$HANDSEED
  5
20000
  9
$SURFTAB1
 70
    6
  9
$SURFTAB2
 70
    6
  9
$SURFTYPE
 70
    6
  9
$SURFU
 70
    6
  9
$SURFV
 70
    6
  9
$UCSBASE
  2

  9
$UCSNAME
  2

  9
$UCSORG
 10
0
 20
0
 30
0
  9
$UCSXDIR
 10
1
 20
0
 30
0
  9
$UCSYDIR
 10
0
 20
1
 30
0
  9
$UCSORTHOREF
  2

  9
$UCSORTHOVIEW
 70
    0
  9
$UCSORGTOP
 10
0
 20
0
 30
0
  9
$UCSORGBOTTOM
 10
0
 20
0
 30
0
  9
$UCSORGLEFT
 10
0
 20
0
 30
0
  9
$UCSORGRIGHT
 10
0
 20
0
 30
0
  9
$UCSORGFRONT
 10
0
 20
0
 30
0
  9
$UCSORGBACK
 10
0
 20
0
 30
0
  9
$PUCSBASE
  2

  9
$PUCSNAME
  2

  9
$PUCSORG
 10
0
 20
0
 30
0
  9
$PUCSXDIR
 10
1
 20
0
 30
0
  9
$PUCSYDIR
 10
0
 20
1
 30
0
  9
$PUCSORTHOREF
  2

  9
$PUCSORTHOVIEW
 70
    0
  9
$PUCSORGTOP
 10
0
 20
0
 30
0
  9
$PUCSORGBOTTOM
 10
0
 20
0
 30
0
  9
$PUCSORGLEFT
 10
0
 20
0
 30
0
  9
$PUCSORGRIGHT
 10
0
 20
0
 30
0
  9
$PUCSORGFRONT
 10
0
 20
0
 30
0
  9
$PUCSORGBACK
 10
0
 20
0
 30
0
  9
$USERI1
 70
    0
  9
$USERI2
 70
    0
  9
$USERI3
 70
    0
  9
$USERI4
 70
    0
  9
$USERI5
 70
    0
  9
$USERR1
 40
0
  9
$USERR2
 40
0
  9
$USERR3
 40
0
  9
$USERR4
 40
0
  9
$USERR5
 40
0
  9
$WORLDVIEW
 70
    1
  9
$SHADEDGE
 70
    3
  9
$SHADEDIF
 70
   70
  9
$TILEMODE
 70
    1
  9
$MAXACTVP
 70
   64
  9
$PINSBASE
 10
0
 20
0
 30
0
  9
$PLIMCHECK
 70
    0
  9
$PEXTMIN
 10
0
 20
0
 30
0
  9
$PEXTMAX
 10
105
 20
148.5
 30
0
  9
$GRIDMODE
 70
    0
  9
$SNAPSTYLE
 70
    0
  9
$PLIMMIN
 10
0
 20
0
  9
$PLIMMAX
 10
105
 20
148.5
  9
$UNITMODE
 70
    0
  9
$VISRETAIN
 70
    1
  9
$PLINEGEN
 70
    0
  9
$PSLTSCALE
 70
    1
  9
$TREEDEPTH
 70
 3020
  9
$CMLSTYLE
  2
Standard
  9
$CMLJUST
 70
    0
  9
$CMLSCALE
 40
20
  9
$PROXYGRAPHICS
 70
    1
  9
$MEASUREMENT
 70
    1
  9
$CELWEIGHT
370
   -1
  9
$ENDCAPS
280
    0
  9
$JOINSTYLE
280
    0
  9
$LWDISPLAY
290
    0
  9
$INSUNITS
 70
    4
  9
$HYPERLINKBASE
  1

  9
$STYLESHEET
  1

  9
$XEDIT
290
    1
  9
$CEPSNTYPE
380
    0
  9
$PSTYLEMODE
290
    1
  9
$EXTNAMES
290
    1
  9
$PSVPSCALE
 40
1
  9
$OLESTARTUP
290
    0
  9
$SORTENTS
280
  127
  9
$INDEXCTL
280
    0
  9
$HIDETEXT
280
    1
  9
$XCLIPFRAME
290
    0
  9
$HALOGAP
280
    0
  9
$OBSCOLOR
 70
  257
  9
$OBSLTYPE
280
    0
  9
$INTERSECTIONDISPLAY
280
    0
  9
$INTERSECTIONCOLOR
 70
  257
  9
$DIMASSOC
280
    1
  9
$PROJECTNAME
  1

  9
$CAMERADISPLAY
290
    0
  9
$LENSLENGTH
 40
50
  9
$CAMERAHEIGHT
 40
0
  9
$STEPSPERSEC
 40
2
  9
$STEPSIZE
 40
50
  9
$3DDWFPREC
 40
2
  9
$PSOLWIDTH
 40
5
  9
$PSOLHEIGHT
 40
80
  9
$LOFTANG1
 40
1.570796326794897
  9
$LOFTANG2
 40
1.570796326794897
  9
$LOFTMAG1
 40
0
  9
$LOFTMAG2
 40
0
  9
$LOFTPARAM
 70
    7
  9
$LOFTNORMALS
280
    1
  9
$LATITUDE
 40
1
  9
$LONGITUDE
 40
1
  9
$NORTHDIRECTION
 40
0
  9
$TIMEZONE
 70
-8000
  9
$LIGHTGLYPHDISPLAY
280
    1
  9
$TILEMODELIGHTSYNCH
280
    1
  9
$SOLIDHIST
280
    1
  9
$SHOWHIST
280
    1
  9
$DWFFRAME
280
    2
  9
$DGNFRAME
280
    0
  9
$REALWORLDSCALE
290
    1
  9
$INTERFERECOLOR
 62
    1
  9
$CSHADOW
280
    0
  9
$SHADOWPLANELOCATION
 40
0
  0
ENDSEC
  0
SECTION
  2
CLASSES
  0
ENDSEC
  0
SECTION
  2
TABLES
  0
TABLE
  2
VPORT
  5
8
330
0
100
AcDbSymbolTable
 70
    1
  0
VPORT
  5
31
330
2
100
AcDbSymbolTableRecord
100
AcDbViewportTableRecord
  2
*ACTIVE
 70
    0
 10
0
 20
0
 11
1
 21
1
 12
36.35451518917313
 22
43.66129975837437
 13
0
 23
0
 14
10
 24
10
 15
10
 25
10
 16
0
 26
0
 36
1
 17
0
 27
0
 37
0
 40
22.40964731714844
 41
2.314410480349345
 42
50
 43
0
 44
0
 50
0
 51
0
 71
    0
 72
  100
 73
    1
 74
    3
 75
    0
 76
    0
 77
    0
 78
    0
281
    0
 65
    1
110
0
120
0
130
0
111
1
121
0
131
0
112
0
122
1
132
0
 79
    0
146
0
348
10020
 60
    7
 61
    5
292
1
282
    1
141
0
142
0
 63
  250
421
3358443
  0
ENDTAB
  0
TABLE
  2
LTYPE
  5
5
330
0
100
AcDbSymbolTable
 70
    4
  0
LTYPE
  5
14
330
5
100
AcDbSymbolTableRecord
100
AcDbLinetypeTableRecord
  2
ByBlock
 70
    0
  3

 72
   65
 73
    0
 40
0
  0
LTYPE
  5
15
330
5
100
AcDbSymbolTableRecord
100
AcDbLinetypeTableRecord
  2
ByLayer
 70
    0
  3

 72
   65
 73
    0
 40
0
  0
LTYPE
  5
16
330
5
100
AcDbSymbolTableRecord
100
AcDbLinetypeTableRecord
  2
Continuous
 70
    0
  3
Solid line
 72
   65
 73
    0
 40
0
  0
LTYPE
  5
32
330
5
100
AcDbSymbolTableRecord
100
AcDbLinetypeTableRecord
  2
DOT
 70
    0
  3
Dot . . . . . . . . . . . . . . . . . . . . . .
 72
   65
 73
    2
 40
6.35
 49
0
 74
    0
 49
-6.35
 74
    0
  0
LTYPE
  5
33
330
5
100
AcDbSymbolTableRecord
100
AcDbLinetypeTableRecord
  2
DOTTINY
 70
    0
  3
Dot (.15x) .....................................
 72
   65
 73
    2
 40
0.9525
 49
0
 74
    0
 49
-0.9525
 74
    0
  0
LTYPE
  5
34
330
5
100
AcDbSymbolTableRecord
100
AcDbLinetypeTableRecord
  2
DOT2
 70
    0
  3
Dot (.5x) .....................................
 72
   65
 73
    2
 40
3.175
 49
0
 74
    0
 49
-3.175
 74
    0
  0
LTYPE
  5
35
330
5
100
AcDbSymbolTableRecord
100
AcDbLinetypeTableRecord
  2
DOTX2
 70
    0
  3
Dot (2x) .  .  .  .  .  .  .  .  .  .  .  .  .
 72
   65
 73
    2
 40
12.7
 49
0
 74
    0
 49
-12.7
 74
    0
  0
LTYPE
  5
36
330
5
100
AcDbSymbolTableRecord
100
AcDbLinetypeTableRecord
  2
DASHED
 70
    0
  3
Dashed _ _ _ _ _ _ _ _ _ _ _ _ _ _ _ _ _
 72
   65
 73
    2
 40
19.05
 49
12.7
 74
    0
 49
-6.35
 74
    0
  0
LTYPE
  5
37
330
5
100
AcDbSymbolTableRecord
100
AcDbLinetypeTableRecord
  2
DASHEDTINY
 70
    0
  3
Dashed (.15x) _ _ _ _ _ _ _ _ _ _ _ _ _ _ _ _ _
 72
   65
 73
    2
 40
2.8575
 49
1.905
 74
    0
 49
-0.9525
 74
    0
  0
LTYPE
  5
38
330
5
100
AcDbSymbolTableRecord
100
AcDbLinetypeTableRecord
  2
DASHED2
 70
    0
  3
Dashed (.5x) _ _ _ _ _ _ _ _ _ _ _ _ _ _ _ _ _
 72
   65
 73
    2
 40
9.524999999999999
 49
6.35
 74
    0
 49
-3.175
 74
    0
  0
LTYPE
  5
39
330
5
100
AcDbSymbolTableRecord
100
AcDbLinetypeTableRecord
  2
DASHEDX2
 70
    0
  3
Dashed (2x) ____  ____  ____  ____  ____  ___
 72
   65
 73
    2
 40
38.09999999999999
 49
25.4
 74
    0
 49
-12.7
 74
    0
  0
LTYPE
  5
3A
330
5
100
AcDbSymbolTableRecord
100
AcDbLinetypeTableRecord
  2
DASHDOT
 70
    0
  3
Dash dot __ . __ . __ . __ . __ . __ . __ . __
 72
   65
 73
    4
 40
25.4
 49
12.7
 74
    0
 49
-6.35
 74
    0
 49
0
 74
    0
 49
-6.35
 74
    0
  0
LTYPE
  5
3B
330
5
100
AcDbSymbolTableRecord
100
AcDbLinetypeTableRecord
  2
DASHDOTTINY
 70
    0
  3
Dash dot (.15x) _._._._._._._._._._._._._._._.
 72
   65
 73
    4
 40
3.81
 49
1.905
 74
    0
 49
-0.9525
 74
    0
 49
0
 74
    0
 49
-0.9525
 74
    0
  0
LTYPE
  5
3C
330
5
100
AcDbSymbolTableRecord
100
AcDbLinetypeTableRecord
  2
DASHDOT2
 70
    0
  3
Dash dot (.5x) _._._._._._._._._._._._._._._.
 72
   65
 73
    4
 40
12.7
 49
6.35
 74
    0
 49
-3.175
 74
    0
 49
0
 74
    0
 49
-3.175
 74
    0
  0
LTYPE
  5
3D
330
5
100
AcDbSymbolTableRecord
100
AcDbLinetypeTableRecord
  2
DASHDOTX2
 70
    0
  3
Dash dot (2x) ____  .  ____  .  ____  .  ___
 72
   65
 73
    4
 40
50.8
 49
25.4
 74
    0
 49
-12.7
 74
    0
 49
0
 74
    0
 49
-12.7
 74
    0
  0
LTYPE
  5
3E
330
5
100
AcDbSymbolTableRecord
100
AcDbLinetypeTableRecord
  2
DIVIDE
 70
    0
  3
Divide ____ . . ____ . . ____ . . ____ . . ____
 72
   65
 73
    6
 40
31.75
 49
12.7
 74
    0
 49
-6.35
 74
    0
 49
0
 74
    0
 49
-6.35
 74
    0
 49
0
 74
    0
 49
-6.35
 74
    0
  0
LTYPE
  5
3F
330
5
100
AcDbSymbolTableRecord
100
AcDbLinetypeTableRecord
  2
DIVIDETINY
 70
    0
  3
Divide (.15x) __..__..__..__..__..__..__..__.._
 72
   65
 73
    6
 40
4.7625
 49
1.905
 74
    0
 49
-0.9525
 74
    0
 49
0
 74
    0
 49
-0.9525
 74
    0
 49
0
 74
    0
 49
-0.9525
 74
    0
  0
LTYPE
  5
40
330
5
100
AcDbSymbolTableRecord
100
AcDbLinetypeTableRecord
  2
DIVIDE2
 70
    0
  3
Divide (.5x) __..__..__..__..__..__..__..__.._
 72
   65
 73
    6
 40
15.875
 49
6.35
 74
    0
 49
-3.175
 74
    0
 49
0
 74
    0
 49
-3.175
 74
    0
 49
0
 74
    0
 49
-3.175
 74
    0
  0
LTYPE
  5
41
330
5
100
AcDbSymbolTableRecord
100
AcDbLinetypeTableRecord
  2
DIVIDEX2
 70
    0
  3
Divide (2x) ________  .  .  ________  .  .  _
 72
   65
 73
    6
 40
63.5
 49
25.4
 74
    0
 49
-12.7
 74
    0
 49
0
 74
    0
 49
-12.7
 74
    0
 49
0
 74
    0
 49
-12.7
 74
    0
  0
LTYPE
  5
42
330
5
100
AcDbSymbolTableRecord
100
AcDbLinetypeTableRecord
  2
BORDER
 70
    0
  3
Border __ __ . __ __ . __ __ . __ __ . __ __ .
 72
   65
 73
    6
 40
44.45
 49
12.7
 74
    0
 49
-6.35
 74
    0
 49
12.7
 74
    0
 49
-6.35
 74
    0
 49
0
 74
    0
 49
-6.35
 74
    0
  0
LTYPE
  5
43
330
5
100
AcDbSymbolTableRecord
100
AcDbLinetypeTableRecord
  2
BORDERTINY
 70
    0
  3
Border (.15x) __.__.__.__.__.__.__.__.__.__.__.
 72
   65
 73
    6
 40
6.6675
 49
1.905
 74
    0
 49
-0.9525
 74
    0
 49
1.905
 74
    0
 49
-0.9525
 74
    0
 49
0
 74
    0
 49
-0.9525
 74
    0
  0
LTYPE
  5
44
330
5
100
AcDbSymbolTableRecord
100
AcDbLinetypeTableRecord
  2
BORDER2
 70
    0
  3
Border (.5x) __.__.__.__.__.__.__.__.__.__.__.
 72
   65
 73
    6
 40
22.225
 49
6.35
 74
    0
 49
-3.175
 74
    0
 49
6.35
 74
    0
 49
-3.175
 74
    0
 49
0
 74
    0
 49
-3.175
 74
    0
  0
LTYPE
  5
45
330
5
100
AcDbSymbolTableRecord
100
AcDbLinetypeTableRecord
  2
BORDERX2
 70
    0
  3
Border (2x) ____  ____  .  ____  ____  .  ___
 72
   65
 73
    6
 40
88.89999999999999
 49
25.4
 74
    0
 49
-12.7
 74
    0
 49
25.4
 74
    0
 49
-12.7
 74
    0
 49
0
 74
    0
 49
-12.7
 74
    0
  0
LTYPE
  5
46
330
5
100
AcDbSymbolTableRecord
100
AcDbLinetypeTableRecord
  2
CENTER
 70
    0
  3
Center ____ _ ____ _ ____ _ ____ _ ____ _ ____
 72
   65
 73
    4
 40
50.8
 49
31.75
 74
    0
 49
-6.35
 74
    0
 49
6.35
 74
    0
 49
-6.35
 74
    0
  0
LTYPE
  5
47
330
5
100
AcDbSymbolTableRecord
100
AcDbLinetypeTableRecord
  2
CENTERTINY
 70
    0
  3
Center (.15x) ___ _ ___ _ ___ _ ___ _ ___ _ ___
 72
   65
 73
    4
 40
7.619999999999999
 49
4.7625
 74
    0
 49
-0.9525
 74
    0
 49
0.9525
 74
    0
 49
-0.9525
 74
    0
  0
LTYPE
  5
48
330
5
100
AcDbSymbolTableRecord
100
AcDbLinetypeTableRecord
  2
CENTER2
 70
    0
  3
Center (.5x) ___ _ ___ _ ___ _ ___ _ ___ _ ___
 72
   65
 73
    4
 40
28.575
 49
19.05
 74
    0
 49
-3.175
 74
    0
 49
3.175
 74
    0
 49
-3.175
 74
    0
  0
LTYPE
  5
49
330
5
100
AcDbSymbolTableRecord
100
AcDbLinetypeTableRecord
  2
CENTERX2
 70
    0
  3
Center (2x) ________  __  ________  __  _____
 72
   65
 73
    4
 40
101.6
 49
63.5
 74
    0
 49
-12.7
 74
    0
 49
12.7
 74
    0
 49
-12.7
 74
    0
  0
ENDTAB
  0
TABLE
  2
LAYER
  5
2
330
0
100
AcDbSymbolTable
 70
    1
  0
LAYER
  5
10
330
2
100
AcDbSymbolTableRecord
100
AcDbLayerTableRecord
  2
0
 70
    0
 62
    7
  6
CONTINUOUS
370
   -3
390
F
  0
ENDTAB
  0
TABLE
  2
STYLE
  5
3
330
0
100
AcDbSymbolTable
 70
    3
  0
STYLE
  5
4A
330
2
100
AcDbSymbolTableRecord
100
AcDbTextStyleTableRecord
  2
Standard
 70
    0
 40
0
 41
1
 50
0
 71
    0
 42
1
  3
txt
  4

  0
ENDTAB
  0
TABLE
  2
VIEW
  5
6
330
0
100
AcDbSymbolTable
 70
    0
  0
ENDTAB
  0
TABLE
  2
UCS
  5
7
330
0
100
AcDbSymbolTable
 70
    0
  0
ENDTAB
  0
TABLE
  2
APPID
  5
9
330
0
100
AcDbSymbolTable
 70
    1
  0
APPID
  5
12
330
9
100
AcDbSymbolTableRecord
100
AcDbRegAppTableRecord
  2
ACAD
 70
    0
  0
APPID
  5
4B
330
9
100
AcDbSymbolTableRecord
100
AcDbRegAppTableRecord
  2
LibreCad
 70
    0
  0
ENDTAB
  0
TABLE
  2
DIMSTYLE
  5
A
330
0
100
AcDbSymbolTable
 70
    1
100
AcDbDimStyleTable
 71
    1
  0
DIMSTYLE
105
4C
330
A
100
AcDbSymbolTableRecord
100
AcDbDimStyleTableRecord
  2
Standard
 70
    0
 40
1
 41
1.799999999999999
 42
0.0625
 43
0.38
 44
0.18
 45
0
 46
0
 47
0
 48
0
 49
1
140
0.2000000029802322
141
0.09
142
0
143
25.4
144
1
145
0
146
1
147
0.09
148
0
 71
    0
 72
    0
 73
    1
 74
    1
 75
    0
 76
    0
 77
    0
 78
    0
 79
    0
170
    0
171
    2
172
    0
173
    0
174
    0
175
    0
176
    0
177
    0
178
    0
179
    0
271
    4
272
    4
273
    2
274
    2
275
    0
276
    0
277
    2
278
    0
279
    0
280
    0
281
    0
282
    0
283
    1
284
    0
285
    0
286
    0
288
    0
289
    3
340
standard
341

371
   -2
372
   -2
  0
ENDTAB
  0
TABLE
  2
BLOCK_RECORD
  5
1
330
0
100
AcDbSymbolTable
 70
    2
  0
BLOCK_RECORD
  5
1F
330
1
100
AcDbSymbolTableRecord
100
AcDbBlockTableRecord
  2
*Model_Space
 70
    0
280
    1
281
    0
  0
BLOCK_RECORD
  5
1E
330
1
100
AcDbSymbolTableRecord
100
AcDbBlockTableRecord
  2
*Paper_Space
 70
    0
280
    1
281
    0
  0
BLOCK_RECORD
  5
4D
330
1
100
AcDbSymbolTableRecord
100
AcDbBlockTableRecord
  2
*D2
 70
    0
280
    1
281
    0
  0
BLOCK_RECORD
  5
50
330
1
100
AcDbSymbolTableRecord
100
AcDbBlockTableRecord
  2
*D1
 70
    0
280
    1
281
    0
  0
BLOCK_RECORD
  5
53
330
1
100
AcDbSymbolTableRecord
100
AcDbBlockTableRecord
  2
GENAXEH
 70
    0
280
    1
281
    0
  0
ENDTAB
  0
ENDSEC
  0
SECTION
  2
BLOCKS
  0
BLOCK
  5
20
330
1F
100
AcDbEntity
  8
0
100
AcDbBlockBegin
  2
*Model_Space
 70
    0
 10
0
 20
0
 30
0
  3
*Model_Space
  1

  0
ENDBLK
  5
21
330
1F
100
AcDbEntity
  8
0
100
AcDbBlockEnd
  0
BLOCK
  5
1C
330
1B
100
AcDbEntity
  8
0
100
AcDbBlockBegin
  2
*Paper_Space
 70
    0
 10
0
 20
0
 30
0
  3
*Paper_Space
  1

  0
ENDBLK
  5
1D
330
1F
100
AcDbEntity
  8
0
100
AcDbBlockEnd
  0
BLOCK
  5
4E
330
4D
100
AcDbEntity
  8
0
100
AcDbBlockBegin
  2
*D2
 70
    1
 10
0
 20
0
  3
*D2
  1

  0
LINE
  5
56
100
AcDbEntity
  8
0
  6
ByBlock
 62
    0
370
   -2
100
AcDbLine
 10
29.4844257075722
 20
80
 11
53.41664792267498
 21
80
  0
SOLID
  5
57
100
AcDbEntity
  8
0
  6
ByBlock
 62
    0
370
   -2
100
AcDbTrace
 10
29.4844257075722
 20
80
 30
0
 11
31.2844257075722
 21
80.29972495359644
 31
0
 12
31.2844257075722
 22
79.70027504640356
 32
0
 13
31.2844257075722
 23
79.70027504640356
 33
0
  0
SOLID
  5
58
100
AcDbEntity
  8
0
  6
ByBlock
 62
    0
370
   -2
100
AcDbTrace
 10
78.4844257075722
 20
80
 30
0
 11
76.6844257075722
 21
79.70027504640356
 31
0
 12
76.6844257075722
 22
80.29972495359644
 32
0
 13
76.6844257075722
 23
80.29972495359644
 33
0
  0
LINE
  5
59
100
AcDbEntity
  8
0
  6
ByBlock
 62
    0
370
   -2
100
AcDbLine
 10
54.55220349246942
 20
80
 11
78.4844257075722
 21
80
  0
MTEXT
  5
5A
100
AcDbEntity
  8
0
  6
CONTINUOUS
 62
    0
370
   -2
100
AcDbMText
 10
53.9844257075722
 20
80
 30
0
 40
0.2000000029802322
 41
0.9555555697944429
 71
    5
 72
    1
  1
49.0000
  7
standard
210
0
220
0
230
1
 50
0
 73
    2
 44
1
  0
LINE
  5
5B
100
AcDbEntity
  8
0
  6
ByBlock
 62
    0
370
   -2
100
AcDbLine
 10
29.4844257075722
 20
79.95704002780715
 11
29.4844257075722
 21
80.18000000000001
  0
LINE
  5
5C
100
AcDbEntity
  8
0
  6
ByBlock
 62
    0
370
   -2
100
AcDbLine
 10
78.4844257075722
 20
79.95704002780715
 11
78.4844257075722
 21
80.18000000000001
  0
ENDBLK
  5
4F
330
4D
100
AcDbEntity
  8
0
100
AcDbBlockEnd
  0
BLOCK
  5
51
330
50
100
AcDbEntity
  8
0
100
AcDbBlockBegin
  2
*D1
 70
    1
 10
0
 20
0
  3
*D1
  1

  0
LINE
  5
5D
100
AcDbEntity
  8
0
  6
ByBlock
 62
    0
370
   -2
100
AcDbLine
 10
28.33442570757219
 20
70
 11
53.44998125649977
 21
70
  0
SOLID
  5
5E
100
AcDbEntity
  8
0
  6
ByBlock
 62
    0
370
   -2
100
AcDbTrace
 10
28.33442570757219
 20
70
 30
0
 11
30.13442570757219
 21
70.29972495359644
 31
0
 12
30.13442570757219
 22
69.70027504640356
 32
0
 13
30.13442570757219
 23
69.70027504640356
 33
0
  0
SOLID
  5
5F
100
AcDbEntity
  8
0
  6
ByBlock
 62
    0
370
   -2
100
AcDbTrace
 10
79.63442570756173
 20
70
 30
0
 11
77.83442570756173
 21
69.70027504640356
 31
0
 12
77.83442570756173
 22
70.29972495359644
 32
0
 13
77.83442570756173
 23
70.29972495359644
 33
0
  0
LINE
  5
60
100
AcDbEntity
  8
0
  6
ByBlock
 62
    0
370
   -2
100
AcDbLine
 10
54.51887015863416
 20
70
 11
79.63442570756173
 21
70
  0
MTEXT
  5
61
100
AcDbEntity
  8
0
  6
CONTINUOUS
 62
    0
370
   -2
100
AcDbMText
 10
53.98442570756696
 20
70
 30
0
 40
0.2000000029802322
 41
0.8888889021343902
 71
    5
 72
    1
  1
51.3000
  7
standard
210
0
220
0
230
1
 50
0
 73
    2
 44
1
  0
LINE
  5
62
100
AcDbEntity
  8
0
  6
ByBlock
 62
    0
370
   -2
100
AcDbLine
 10
28.3344257075722
 20
79.83204002780715
 11
28.33442570757219
 21
69.81999999999999
  0
LINE
  5
63
100
AcDbEntity
  8
0
  6
ByBlock
 62
    0
370
   -2
100
AcDbLine
 10
79.63442570756173
 20
79.83204002780715
 11
79.63442570756173
 21
69.81999999999999
  0
ENDBLK
  5
52
330
50
100
AcDbEntity
  8
0
100
AcDbBlockEnd
  0
BLOCK
  5
54
330
53
100
AcDbEntity
  8
0
100
AcDbBlockBegin
  2
GENAXEH
 70
    0
 10
0
 20
0
  3
GENAXEH
  1

  0
LINE
  5
64
100
AcDbEntity
  8
0
  6
ByLayer
 62
  256
370
   -1
100
AcDbLine
 10
-1
 20
0
 11
1
 21
0
  0
ENDBLK
  5
55
330
53
100
AcDbEntity
  8
0
100
AcDbBlockEnd
  0
ENDSEC
  0
SECTION
  2
ENTITIES
  0
LINE
  5
65
100
AcDbEntity
  8
0
  6
ByLayer
 62
  256
370
   -1
100
AcDbLine
 10
39.83442570757214
 20
76.49454002780713
 11
41.04567748820262
 21
76.49454002780713
  0
LINE
  5
66
100
AcDbEntity
  8
0
  6
ByLayer
 62
  256
370
   -1
100
AcDbLine
 10
37.92317392694182
 20
76.49454002780712
 11
39.13442570757225
 21
76.49454002780713
  0
LINE
  5
67
100
AcDbEntity
  8
0
  6
ByLayer
 62
  256
370
   -1
100
AcDbLine
 10
68.13442570766826
 20
96.47983685310486
 11
66.92317392703778
 21
96.47983685310486
  0
LINE
  5
68
100
AcDbEntity
  8
0
  6
ByLayer
 62
  256
370
   -1
100
AcDbLine
 10
70.04567748829858
 20
96.47983685310491
 11
68.83442570766815
 21
96.47983685310486
  0
LWPOLYLINE
  5
69
100
AcDbEntity
  8
0
  6
ByLayer
 62
  256
370
   -1
100
AcDbPolyline
 90
   99
 70
    1
 43
0
 10
74.68442570766815
 20
97.77983685310484
 42
0.1989123673797362
 10
74.75513638578681
 20
97.8091261749862
 10
75.29300435143088
 20
98.34699414063027
 42
-0.414213562373051
 10
75.57584706390551
 20
98.34699414063031
 10
76.1137150295496
 20
97.8091261749862
 42
0.4142135623732423
 10
76.25513638578693
 20
97.8091261749862
 10
76.79300435143089
 20
98.34699414063017
 42
-0.4142135623731246
 10
77.07584706390551
 20
98.34699414063024
 10
77.61371502954954
 20
97.80912617498623
 42
0.4142135623729772
 10
77.75513638578688
 20
97.8091261749862
 10
78.38687666681236
 20
98.44086645601173
 42
-0.2029878888522858
 10
78.53143175986264
 20
98.49942054750139
 42
-0.4096315346734994
 10
81.48442570766821
 20
95.49978883159736
 10
81.48442570766824
 20
91.64368461621321
 42
-0.1989123673796049
 10
81.42584706390548
 20
91.50226325997582
 10
80.89371502954953
 20
90.97013122561997
 42
0.4142135623731835
 10
80.89371502954955
 20
90.82870986938269
 10
81.42584706390549
 20
90.29657783502667
 42
-0.4142135623730659
 10
81.42584706390552
 20
90.01373512255201
 10
80.91153248885483
 20
89.49942054750136
 10
79.80125038801312
 20
89.49942054750134
 42
0.5773502691940362
 10
79.71464784763535
 20
89.34942054750017
 10
80.10724603069562
 20
88.66942054750155
 42
-0.4142135623782214
 10
80.0340409499394
 20
88.39621546674192
 10
79.51442570766747
 20
88.09621546674407
 42
-0.4142135623679661
 10
79.24122062691266
 20
88.16942054749904
 10
78.48442570766819
 20
89.48022779849981
 10
78.48442570766819
 20
91.27983685310485
 10
79.6344257076682
 20
91.27983685310485
 10
79.6344257076682
 20
93.07983685310487
 10
78.48442570766819
 20
93.07983685310487
 10
78.48442570766819
 20
95.97983685310486
 42
0.4142135623731117
 10
77.98442570766819
 20
96.47983685310486
 10
70.92317392703779
 20
96.47983685310491
 10
66.04567748829865
 20
96.47983685310486
 10
29.98442570766821
 20
96.47983685310486
 42
0.4142135623731137
 10
29.48442570766822
 20
95.97983685310484
 10
29.4844257076682
 20
93.07983685310487
 10
28.33442570767866
 20
93.07983685310487
 10
28.33442570767866
 20
91.27983685306141
 10
29.4844257076682
 20
91.27983685306141
 10
29.48442570766822
 20
89.70473995240125
 42
0.478297483046755
 10
29.84806207131426
 20
89.41156694337424
 42
-0.3090228668885175
 10
32.98442570766819
 20
88.13814924844279
 10
32.9844257076682
 20
87.47983685310487
 10
32.13081115359216
 20
87.47983685310487
 10
31.88442570766818
 20
87.33758614957625
 42
-0.338971963090041
 10
31.40207276651674
 20
87.40066467391702
 42
0.08115154202533932
 10
31.06129224346544
 20
87.64483685310478
 42
0.7540739028645751
 10
29.90755917208339
 20
87.64483685310471
 42
0.1640287476508151
 10
29.31996221637314
 20
87.05778562003272
 42
0.754073902863614
 10
29.31889020498156
 20
85.90405304669031
 42
0.1645058677410058
 10
29.90755917208384
 20
85.31483685310471
 42
0.7540739028627331
 10
31.06129224346512
 20
85.31483685310474
 42
0.08115154202561603
 10
31.40207276651673
 20
85.55900903229268
 42
-0.3389719630901016
 10
31.88442570766819
 20
85.62208755663347
 10
32.13081115359225
 20
85.47983685310484
 10
32.9844257076682
 20
85.47983685310484
 10
32.98442570766818
 20
84.82152445776688
 42
-0.2513806713956997
 10
30.48442570777448
 20
83.47983685310484
 10
29.71539514944124
 20
83.47983685310484
 10
28.77180275722991
 20
85.11418681805068
 42
0.414213562372749
 10
28.63520021685144
 20
85.15078935842914
 10
27.76917481289637
 20
84.65078935833048
 42
0.4142135623730859
 10
27.73257227251792
 20
84.51418681795207
 10
28.15936719176099
 20
83.77495633341061
 42
-0.577350269189604
 10
27.98616211100409
 20
83.47495633341067
 10
27.1044257076147
 20
83.47495633341067
 10
26.54300435134047
 20
84.03637768964359
 42
-0.1989123673891901
 10
26.48442570757258
 20
84.1777990458861
 10
26.48442570757256
 20
85.63069226469989
 42
-0.1989123673801106
 10
26.54300435133551
 20
85.77211362093752
 10
27.07513638569182
 20
86.30424565529187
 42
0.4142135623725136
 10
27.0751363856921
 20
86.4456670115291
 10
26.54300435133489
 20
86.97779904588911
 42
-0.198912367379005
 10
26.48442570757259
 20
87.11922040212606
 10
26.48442570757255
 20
88.63069226470058
 42
-0.1989123673796276
 10
26.54300435133534
 20
88.77211362093801
 10
27.07513638568987
 20
89.30424565529222
 42
0.4142135623729332
 10
27.07513638568993
 20
89.44566701152949
 10
26.54300435133379
 20
89.97779904588639
 42
-0.4142135623728005
 10
26.54300435133391
 20
90.26064175836095
 10
27.07513638569124
 20
90.79277379271826
 42
0.4142135623730141
 10
27.07513638569123
 20
90.93419514895558
 10
26.54300435133528
 20
91.46632718331151
 42
-0.1989123673796199
 10
26.48442570757258
 20
91.60774853954884
 10
26.48442570757258
 20
95.47502825542323
 42
-0.4121868850677318
 10
29.4636524820465
 20
98.47495633341063
 42
-0.2007125985980193
 10
29.60645871999153
 20
98.41638248444914
 10
30.21371502945412
 20
97.80912617498993
 42
0.4142135623725139
 10
30.35513638569144
 20
97.80912617499033
 10
30.89300435133487
 20
98.34699414063678
 42
-0.4142135623747727
 10
31.17584706381036
 20
98.34699414063665
 10
31.71371502945373
 20
97.80912617498987
 42
0.4142135623734923
 10
31.85513638569104
 20
97.80912617498944
 10
32.39300435133572
 20
98.3469941406307
 42
-0.4142135623720576
 10
32.67584706380989
 20
98.34699414063027
 10
33.21371502945392
 20
97.8091261749862
 42
0.1989123673804123
 10
33.28442570757257
 20
97.7798368531049
  0
LWPOLYLINE
  5
6A
100
AcDbEntity
  8
0
  6
ByLayer
 62
  256
370
   -1
100
AcDbPolyline
 90
   99
 70
    1
 43
0
 10
76.08442570757221
 20
87.35228932427849
 10
75.83804026164815
 20
87.49454002780716
 10
74.98442570757219
 20
87.49454002780716
 10
74.98442570757221
 20
88.15285242314511
 42
-0.251380671395699
 10
77.48442570746593
 20
89.49454002780718
 10
78.25345626579916
 20
89.49454002780718
 10
79.1970486580105
 20
87.86019006286131
 42
0.4142135623727956
 10
79.33365119838895
 20
87.82358752248285
 10
80.19967660234403
 20
88.32358752258151
 42
0.4142135623730742
 10
80.23627914272247
 20
88.46019006295994
 10
79.80948422347942
 20
89.19942054750135
 42
-0.5773502691896066
 10
79.98268930423632
 20
89.49942054750136
 10
80.86442570762568
 20
89.49942054750136
 10
81.42584706389994
 20
88.93799919126843
 42
-0.1989123673892007
 10
81.48442570766781
 20
88.79657783502591
 10
81.48442570766784
 20
87.34368461621214
 42
-0.1989123673801181
 10
81.42584706390488
 20
87.20226325997446
 10
80.89371502954859
 20
86.67013122562014
 42
0.4142135623725064
 10
80.8937150295483
 20
86.52870986938294
 10
81.42584706390552
 20
85.99657783502285
 42
-0.1989123673790059
 10
81.4844257076678
 20
85.85515647878591
 10
81.48442570766785
 20
84.34368461621141
 42
-0.1989123673796234
 10
81.42584706390507
 20
84.20226325997395
 10
80.89371502955053
 20
83.67013122561978
 42
0.4142135623729478
 10
80.89371502955049
 20
83.52870986938247
 10
81.42584706390659
 20
82.99657783502558
 42
-0.4142135623728008
 10
81.4258470639065
 20
82.71373512255109
 10
80.89371502954916
 20
82.18160308819375
 42
0.4142135623730066
 10
80.89371502954916
 20
82.04018173195642
 10
81.42584706390512
 20
81.50804969760047
 42
-0.1989123673796296
 10
81.4844257076678
 20
81.36662834136314
 10
81.48442570757216
 20
77.49934862548876
 42
-0.4121868850677314
 10
78.50519893319388
 20
74.49942054750136
 42
-0.2007125985980263
 10
78.36239269524887
 20
74.55799439646285
 10
77.75513638578629
 20
75.16525070592209
 42
0.4142135623725064
 10
77.613715029549
 20
75.16525070592166
 10
77.07584706390551
 20
74.62738274027527
 42
-0.4142135623747285
 10
76.7930043514301
 20
74.62738274027538
 10
76.25513638578668
 20
75.16525070592212
 42
0.4142135623734482
 10
76.11371502954934
 20
75.16525070592257
 10
75.57584706390469
 20
74.62738274028129
 42
-0.4142135623720649
 10
75.29300435143055
 20
74.62738274028176
 10
74.75513638578649
 20
75.16525070592579
 42
0.1989123673803911
 10
74.68442570766781
 20
75.19454002780719
 10
33.28442570757224
 20
75.19454002780715
 42
0.1989123673797386
 10
33.2137150294536
 20
75.16525070592579
 10
32.67584706380952
 20
74.62738274028173
 42
-0.4142135623730508
 10
32.39300435133487
 20
74.62738274028167
 10
31.8551363856908
 20
75.16525070592579
 42
0.41421356237322
 10
31.71371502945348
 20
75.16525070592579
 10
31.17584706380951
 20
74.6273827402818
 42
-0.4142135623731244
 10
30.89300435133487
 20
74.6273827402818
 10
30.35513638569085
 20
75.16525070592574
 42
0.4142135623729553
 10
30.21371502945354
 20
75.16525070592579
 10
29.58197474842803
 20
74.53351042490027
 42
-0.2029878888522939
 10
29.43741965537777
 20
74.47495633341063
 42
-0.4096315346734976
 10
26.48442570757219
 20
77.4745880493146
 10
26.4844257075722
 20
81.33069226469883
 42
-0.1989123673796188
 10
26.54300435133489
 20
81.47211362093617
 10
27.07513638569085
 20
82.00424565529205
 42
0.4142135623731686
 10
27.07513638569083
 20
82.1456670115293
 10
26.54300435133488
 20
82.67779904588537
 42
-0.4142135623730655
 10
26.54300435133488
 20
82.96064175835997
 10
27.05731892638557
 20
83.47495633341067
 10
28.16760102722729
 20
83.47495633341065
 42
0.5773502691940303
 10
28.25420356760506
 20
83.62495633341183
 10
27.86160538454476
 20
84.30495633341044
 42
-0.4142135623782318
 10
27.93481046530099
 20
84.5781614141701
 10
28.4544257075729
 20
84.87816141416792
 42
-0.4142135623680046
 10
28.72763078832777
 20
84.80495633341295
 10
29.4844257075722
 20
83.49414908241218
 10
29.4844257075722
 20
81.69454002780714
 10
28.3344257075722
 20
81.69454002780714
 10
28.3344257075722
 20
79.89454002780715
 10
29.4844257075722
 20
79.89454002780715
 10
29.48442570757221
 20
76.9945400278071
 42
0.4142135623731075
 10
29.9844257075722
 20
76.49454002780713
 10
37.0456774882026
 20
76.49454002780712
 10
41.92317392694175
 20
76.49454002780713
 10
77.98442570757219
 20
76.49454002780719
 42
0.41421356237312
 10
78.4844257075722
 20
76.9945400278071
 10
78.4844257075722
 20
79.89454002780715
 10
79.63442570756173
 20
79.89454002780715
 10
79.63442570756173
 20
81.69454002785059
 10
78.4844257075722
 20
81.69454002785059
 10
78.4844257075722
 20
83.26963692851081
 42
0.4782974830467495
 10
78.12078934392616
 20
83.56280993753774
 42
-0.309022866888519
 10
74.98442570757221
 20
84.83622763246922
 10
74.98442570757219
 20
85.4945400278071
 10
75.83804026164823
 20
85.4945400278071
 10
76.08442570757221
 20
85.63679073133576
 42
-0.3389719630900382
 10
76.56677864872364
 20
85.57371220699495
 42
0.08115154202533932
 10
76.90755917177495
 20
85.32954002780714
 42
0.7540739028645708
 10
78.06129224315698
 20
85.3295400278073
 42
0.1640287476508151
 10
78.64888919886725
 20
85.91659126087927
 42
0.754073902863613
 10
78.64996121025884
 20
87.07032383422172
 42
0.1645058677410039
 10
78.06129224315656
 20
87.65954002780721
 42
0.7540739028627297
 10
76.90755917177529
 20
87.65954002780727
 42
0.08115154202561614
 10
76.56677864872368
 20
87.4153678486193
 42
-0.3389719630901034
  0
DIMENSION
  5
6B
100
AcDbEntity
  8
0
  6
ByLayer
 62
  256
370
   -1
100
AcDbDimension
  2
*D1
 10
79.63442570756173
 20
70
 30
0
 11
53.98442570756696
 21
70
 31
0
 70
   32
 71
    5
  3
Standard
 53
0
210
0
220
0
230
1
100
AcDbAlignedDimension
 13
28.3344257075722
 23
79.89454002780715
 33
0
 14
79.63442570756173
 24
79.89454002780715
 34
0
100
AcDbRotatedDimension
  0
DIMENSION
  5
6C
100
AcDbEntity
  8
0
  6
ByLayer
 62
  256
370
   -1
100
AcDbDimension
  2
*D2
 10
78.4844257075722
 20
80
 30
0
 11
53.9844257075722
 21
80
 31
0
 70
   32
 71
    5
  3
Standard
 53
0
210
0
220
0
230
1
100
AcDbAlignedDimension
 13
29.4844257075722
 23
79.89454002780715
 33
0
 14
78.4844257075722
 24
79.89454002780715
 34
0
100
AcDbRotatedDimension
  0
ENDSEC
  0
SECTION
  2
OBJECTS
  0
DICTIONARY
  5
C
330
0
100
AcDbDictionary
281
    1
  3
ACAD_GROUP
350
D
  0
DICTIONARY
  5
D
330
C
100
AcDbDictionary
281
    1
  0
ENDSEC
  0
EOF
