G04 #@! TF.GenerationSoftware,KiCad,Pcbnew,5.1.5*
G04 #@! TF.CreationDate,2020-09-01T20:45:35+02:00*
G04 #@! TF.ProjectId,icE1usb,69634531-7573-4622-9e6b-696361645f70,1.0*
G04 #@! TF.SameCoordinates,Original*
G04 #@! TF.FileFunction,Profile,NP*
%FSLAX46Y46*%
G04 Gerber Fmt 4.6, Leading zero omitted, Abs format (unit mm)*
G04 Created by KiCad (PCBNEW 5.1.5) date 2020-09-01 20:45:35*
%MOMM*%
%LPD*%
G04 APERTURE LIST*
%ADD10C,0.050000*%
G04 APERTURE END LIST*
D10*
X42560660Y23560660D02*
G75*
G02X43000000Y22500000I-1060660J-1060660D01*
G01*
X42439340Y23689340D02*
G75*
G02X42000000Y24750000I1060660J1060660D01*
G01*
X42560660Y23560660D02*
X42439340Y23689340D01*
X42000000Y25000000D02*
G75*
G03X40500000Y26500000I-1500000J0D01*
G01*
X36310660Y25939340D02*
G75*
G02X35250000Y25500000I-1060660J1060660D01*
G01*
X42000000Y24750000D02*
X42000000Y25000000D01*
X36310660Y25939340D02*
X36439340Y26060660D01*
X36439340Y26060660D02*
G75*
G02X37500000Y26500000I1060660J-1060660D01*
G01*
X37500000Y26500000D02*
X40500000Y26500000D01*
X-42560660Y-23560660D02*
G75*
G02X-43000000Y-22500000I1060660J1060660D01*
G01*
X-42439340Y-23689340D02*
G75*
G02X-42000000Y-24750000I-1060660J-1060660D01*
G01*
X-42560660Y-23560660D02*
X-42439340Y-23689340D01*
X-42000000Y-25000000D02*
G75*
G03X-40500000Y-26500000I1500000J0D01*
G01*
X-36310660Y-25939340D02*
X-36439340Y-26060660D01*
X-42000000Y-24750000D02*
X-42000000Y-25000000D01*
X-36439340Y-26060660D02*
G75*
G02X-37500000Y-26500000I-1060660J1060660D01*
G01*
X-37500000Y-26500000D02*
X-40500000Y-26500000D01*
X-36310660Y-25939340D02*
G75*
G02X-35250000Y-25500000I1060660J-1060660D01*
G01*
X-42560660Y23560660D02*
G75*
G03X-43000000Y22500000I1060660J-1060660D01*
G01*
X-42439340Y23689340D02*
G75*
G03X-42000000Y24750000I-1060660J1060660D01*
G01*
X-42560660Y23560660D02*
X-42439340Y23689340D01*
X-42000000Y25000000D02*
G75*
G02X-40500000Y26500000I1500000J0D01*
G01*
X-36310660Y25939340D02*
X-36439340Y26060660D01*
X-42000000Y24750000D02*
X-42000000Y25000000D01*
X-36439340Y26060660D02*
G75*
G03X-37500000Y26500000I-1060660J-1060660D01*
G01*
X-37500000Y26500000D02*
X-40500000Y26500000D01*
X-36310660Y25939340D02*
G75*
G03X-35250000Y25500000I1060660J1060660D01*
G01*
X42000000Y-24750000D02*
X42000000Y-25000000D01*
X42560660Y-23560660D02*
X42439340Y-23689340D01*
X36310660Y-25939340D02*
X36439340Y-26060660D01*
X36439340Y-26060660D02*
G75*
G03X37500000Y-26500000I1060660J1060660D01*
G01*
X42000000Y-25000000D02*
G75*
G02X40500000Y-26500000I-1500000J0D01*
G01*
X42439340Y-23689340D02*
G75*
G03X42000000Y-24750000I1060660J-1060660D01*
G01*
X42560660Y-23560660D02*
G75*
G03X43000000Y-22500000I-1060660J1060660D01*
G01*
X36310660Y-25939340D02*
G75*
G03X35250000Y-25500000I-1060660J-1060660D01*
G01*
X37500000Y-26500000D02*
X40500000Y-26500000D01*
X-43000000Y-22500000D02*
X-43000000Y22500000D01*
X35250000Y-25500000D02*
X-35250000Y-25500000D01*
X43000000Y22500000D02*
X43000000Y-22500000D01*
X-35250000Y25500000D02*
X35250000Y25500000D01*
M02*
