G04 #@! TF.GenerationSoftware,KiCad,Pcbnew,5.1.5*
G04 #@! TF.CreationDate,2020-09-01T20:45:35+02:00*
G04 #@! TF.ProjectId,icE1usb,69634531-7573-4622-9e6b-696361645f70,1.0*
G04 #@! TF.SameCoordinates,Original*
G04 #@! TF.FileFunction,Legend,Bot*
G04 #@! TF.FilePolarity,Positive*
%FSLAX46Y46*%
G04 Gerber Fmt 4.6, Leading zero omitted, Abs format (unit mm)*
G04 Created by KiCad (PCBNEW 5.1.5) date 2020-09-01 20:45:35*
%MOMM*%
%LPD*%
G04 APERTURE LIST*
%ADD10C,0.130000*%
%ADD11C,0.150000*%
%ADD12C,1.100000*%
%ADD13C,1.600000*%
%ADD14C,2.400000*%
%ADD15C,3.350000*%
%ADD16R,1.600000X1.600000*%
%ADD17C,0.100000*%
%ADD18C,1.700000*%
%ADD19R,1.700000X1.700000*%
%ADD20O,1.800000X1.800000*%
%ADD21R,1.800000X1.800000*%
%ADD22C,2.350000*%
%ADD23C,2.600000*%
%ADD24C,0.800000*%
%ADD25O,3.100000X2.100000*%
%ADD26C,2.100000*%
%ADD27O,2.200000X1.100000*%
%ADD28C,0.750000*%
%ADD29O,1.700000X1.100000*%
G04 APERTURE END LIST*
D10*
X-15650000Y17100000D02*
X-15650000Y19400000D01*
X-16850000Y19400000D02*
X-16850000Y17100000D01*
X-16850000Y17100000D02*
X-15650000Y17100000D01*
X-16850000Y19400000D02*
X-15650000Y19400000D01*
%LPC*%
D11*
G36*
X-16500000Y18300000D02*
G01*
X-16500000Y18200000D01*
X-16000000Y18200000D01*
X-16000000Y18300000D01*
X-16500000Y18300000D01*
G37*
X-16500000Y18300000D02*
X-16500000Y18200000D01*
X-16000000Y18200000D01*
X-16000000Y18300000D01*
X-16500000Y18300000D01*
D12*
X-40250000Y10500000D03*
X-34250000Y10500000D03*
D13*
X36500000Y-10411000D03*
X34720000Y-9395000D03*
X36500000Y-8379000D03*
X34720000Y-7363000D03*
X34720000Y-11427000D03*
X36500000Y-4315000D03*
X34720000Y-5331000D03*
X36500000Y-6347000D03*
X29900000Y-1015000D03*
X29900000Y-14735000D03*
X29900000Y-12445000D03*
X29900000Y-3305000D03*
X29900000Y1015000D03*
X29900000Y3305000D03*
X29900000Y12445000D03*
X29900000Y14735000D03*
D14*
X35610000Y16005000D03*
X35610000Y-15995000D03*
D15*
X39040000Y-14225000D03*
X39040000Y14225000D03*
D13*
X34720000Y4323000D03*
X34720000Y6355000D03*
X34720000Y8387000D03*
X34720000Y10419000D03*
X36500000Y5339000D03*
X36500000Y7371000D03*
X36500000Y9403000D03*
D16*
X36500000Y11435000D03*
D17*
G36*
X-15975496Y18198796D02*
G01*
X-15951227Y18195196D01*
X-15927429Y18189235D01*
X-15904329Y18180970D01*
X-15882151Y18170480D01*
X-15861107Y18157867D01*
X-15841402Y18143253D01*
X-15823223Y18126777D01*
X-15806747Y18108598D01*
X-15792133Y18088893D01*
X-15779520Y18067849D01*
X-15769030Y18045671D01*
X-15760765Y18022571D01*
X-15754804Y17998773D01*
X-15751204Y17974504D01*
X-15750000Y17950000D01*
X-15750000Y17400000D01*
X-15751204Y17375496D01*
X-15754804Y17351227D01*
X-15760765Y17327429D01*
X-15769030Y17304329D01*
X-15779520Y17282151D01*
X-15792133Y17261107D01*
X-15806747Y17241402D01*
X-15823223Y17223223D01*
X-15841402Y17206747D01*
X-15861107Y17192133D01*
X-15882151Y17179520D01*
X-15904329Y17169030D01*
X-15927429Y17160765D01*
X-15951227Y17154804D01*
X-15975496Y17151204D01*
X-16000000Y17150000D01*
X-16500000Y17150000D01*
X-16524504Y17151204D01*
X-16548773Y17154804D01*
X-16572571Y17160765D01*
X-16595671Y17169030D01*
X-16617849Y17179520D01*
X-16638893Y17192133D01*
X-16658598Y17206747D01*
X-16676777Y17223223D01*
X-16693253Y17241402D01*
X-16707867Y17261107D01*
X-16720480Y17282151D01*
X-16730970Y17304329D01*
X-16739235Y17327429D01*
X-16745196Y17351227D01*
X-16748796Y17375496D01*
X-16750000Y17400000D01*
X-16750000Y17950000D01*
X-16748796Y17974504D01*
X-16745196Y17998773D01*
X-16739235Y18022571D01*
X-16730970Y18045671D01*
X-16720480Y18067849D01*
X-16707867Y18088893D01*
X-16693253Y18108598D01*
X-16676777Y18126777D01*
X-16658598Y18143253D01*
X-16638893Y18157867D01*
X-16617849Y18170480D01*
X-16595671Y18180970D01*
X-16572571Y18189235D01*
X-16548773Y18195196D01*
X-16524504Y18198796D01*
X-16500000Y18200000D01*
X-16000000Y18200000D01*
X-15975496Y18198796D01*
G37*
G36*
X-15975496Y19348796D02*
G01*
X-15951227Y19345196D01*
X-15927429Y19339235D01*
X-15904329Y19330970D01*
X-15882151Y19320480D01*
X-15861107Y19307867D01*
X-15841402Y19293253D01*
X-15823223Y19276777D01*
X-15806747Y19258598D01*
X-15792133Y19238893D01*
X-15779520Y19217849D01*
X-15769030Y19195671D01*
X-15760765Y19172571D01*
X-15754804Y19148773D01*
X-15751204Y19124504D01*
X-15750000Y19100000D01*
X-15750000Y18550000D01*
X-15751204Y18525496D01*
X-15754804Y18501227D01*
X-15760765Y18477429D01*
X-15769030Y18454329D01*
X-15779520Y18432151D01*
X-15792133Y18411107D01*
X-15806747Y18391402D01*
X-15823223Y18373223D01*
X-15841402Y18356747D01*
X-15861107Y18342133D01*
X-15882151Y18329520D01*
X-15904329Y18319030D01*
X-15927429Y18310765D01*
X-15951227Y18304804D01*
X-15975496Y18301204D01*
X-16000000Y18300000D01*
X-16500000Y18300000D01*
X-16524504Y18301204D01*
X-16548773Y18304804D01*
X-16572571Y18310765D01*
X-16595671Y18319030D01*
X-16617849Y18329520D01*
X-16638893Y18342133D01*
X-16658598Y18356747D01*
X-16676777Y18373223D01*
X-16693253Y18391402D01*
X-16707867Y18411107D01*
X-16720480Y18432151D01*
X-16730970Y18454329D01*
X-16739235Y18477429D01*
X-16745196Y18501227D01*
X-16748796Y18525496D01*
X-16750000Y18550000D01*
X-16750000Y19100000D01*
X-16748796Y19124504D01*
X-16745196Y19148773D01*
X-16739235Y19172571D01*
X-16730970Y19195671D01*
X-16720480Y19217849D01*
X-16707867Y19238893D01*
X-16693253Y19258598D01*
X-16676777Y19276777D01*
X-16658598Y19293253D01*
X-16638893Y19307867D01*
X-16617849Y19320480D01*
X-16595671Y19330970D01*
X-16572571Y19339235D01*
X-16548773Y19345196D01*
X-16524504Y19348796D01*
X-16500000Y19350000D01*
X-16000000Y19350000D01*
X-15975496Y19348796D01*
G37*
D18*
X-3500000Y21700000D03*
D19*
X-6750000Y19250000D03*
D20*
X5460000Y-11190000D03*
X8000000Y-11190000D03*
X5460000Y-13730000D03*
X8000000Y-13730000D03*
X5460000Y-16270000D03*
X8000000Y-16270000D03*
X5460000Y-18810000D03*
D21*
X8000000Y-18810000D03*
D20*
X-25020000Y-11190000D03*
X-22480000Y-11190000D03*
X-25020000Y-13730000D03*
X-22480000Y-13730000D03*
X-25020000Y-16270000D03*
X-22480000Y-16270000D03*
X-25020000Y-18810000D03*
D21*
X-22480000Y-18810000D03*
D22*
X-36000000Y20000000D03*
D23*
X-33460000Y22540000D03*
X-38540000Y22540000D03*
X-38540000Y17460000D03*
X-33460000Y17460000D03*
D20*
X13690000Y-21770000D03*
X13690000Y-19230000D03*
X16230000Y-21770000D03*
X16230000Y-19230000D03*
X18770000Y-21770000D03*
X18770000Y-19230000D03*
X21310000Y-21770000D03*
D21*
X21310000Y-19230000D03*
D20*
X21310000Y21770000D03*
X21310000Y19230000D03*
X18770000Y21770000D03*
X18770000Y19230000D03*
X16230000Y21770000D03*
X16230000Y19230000D03*
X13690000Y21770000D03*
D21*
X13690000Y19230000D03*
D20*
X-4700000Y-18810000D03*
X-4700000Y-21350000D03*
X-7240000Y-18810000D03*
X-7240000Y-21350000D03*
X-9780000Y-18810000D03*
X-9780000Y-21350000D03*
X-12320000Y-18810000D03*
D21*
X-12320000Y-21350000D03*
D24*
X41000000Y-21370000D03*
X41000000Y-19650000D03*
D25*
X-22750000Y-3575000D03*
X-22750000Y3575000D03*
D26*
X-35610000Y-23140000D03*
X-35610000Y-6880000D03*
D15*
X-39040000Y-8660000D03*
X-39040000Y-21360000D03*
D13*
X-34720000Y-11430000D03*
X-34720000Y-13470000D03*
X-34720000Y-15510000D03*
X-34720000Y-17550000D03*
X-36500000Y-12450000D03*
X-36500000Y-14490000D03*
X-36500000Y-16530000D03*
D16*
X-36500000Y-18570000D03*
D27*
X-37220000Y-4320000D03*
X-37220000Y4320000D03*
D28*
X-37750000Y2890000D03*
D29*
X-41400000Y4320000D03*
D28*
X-37750000Y-2890000D03*
D29*
X-41400000Y-4320000D03*
M02*
