M48
; DRILL file {KiCad 5.1.5} date Tue 01 Sep 2020 08:48:24 PM CEST
; FORMAT={-:-/ absolute / metric / decimal}
; #@! TF.CreationDate,2020-09-01T20:48:24+02:00
; #@! TF.GenerationSoftware,Kicad,Pcbnew,5.1.5
; #@! TF.FileFunction,Plated,1,4,PTH
FMAT,2
METRIC
T1C0.300
T2C0.600
T3C0.890
T4C1.000
T5C1.090
T6C1.500
T7C1.570
T8C1.700
%
G90
G05
T1
X-41.5Y9.25
X-38.85Y11.75
X-35.25Y3.25
X-35.25Y2.45
X-35.25Y-2.45
X-35.25Y-3.25
X-34.625Y3.25
X-34.625Y2.45
X-34.625Y-2.45
X-34.625Y-3.25
X-31.75Y1.9
X-31.75Y-0.5
X-31.75Y-2.0
X-31.75Y-3.5
X-30.0Y18.5
X-30.0Y4.25
X-29.25Y16.75
X-29.0Y4.0
X-28.25Y4.5
X-28.25Y3.5
X-28.25Y-0.5
X-28.25Y-2.0
X-28.25Y-3.5
X-27.75Y21.65
X-27.75Y19.45
X-27.25Y7.25
X-27.25Y-7.25
X-26.25Y7.25
X-26.25Y-7.25
X-25.25Y21.65
X-25.25Y19.45
X-24.75Y7.25
X-24.75Y-7.25
X-23.0Y7.25
X-23.0Y-7.25
X-22.75Y6.3
X-22.75Y0.5
X-22.75Y-0.5
X-22.75Y-6.3
X-21.0Y0.5
X-21.0Y-0.5
X-20.75Y7.25
X-20.75Y-7.25
X-19.25Y8.0
X-19.25Y7.25
X-19.25Y2.75
X-19.25Y0.0
X-19.25Y-6.5
X-19.25Y-7.25
X-18.5Y21.65
X-18.5Y9.75
X-18.5Y-0.75
X-18.25Y12.85
X-18.25Y5.0
X-18.0Y-2.25
X-17.75Y2.0
X-17.75Y-19.25
X-17.75Y-22.0
X-17.5Y5.75
X-17.25Y-2.75
X-16.5Y-6.0
X-16.25Y1.5
X-16.1Y7.75
X-16.0Y4.0
X-16.0Y4.0
X-16.0Y2.75
X-16.0Y-15.75
X-16.0Y-17.25
X-16.0Y-19.25
X-15.75Y12.85
X-15.75Y-4.0
X-15.5Y2.0
X-15.3Y7.75
X-15.25Y22.0
X-15.25Y20.5
X-15.25Y19.0
X-15.25Y17.5
X-14.75Y-5.25
X-14.25Y-6.0
X-14.17Y-20.08
X-14.0Y4.5
X-13.5Y21.25
X-13.5Y19.75
X-13.5Y18.25
X-13.5Y16.75
X-13.5Y5.5
X-12.5Y1.5
X-12.5Y0.0
X-12.5Y-1.5
X-12.32Y-14.905
X-11.5Y5.5
X-11.0Y1.5
X-11.0Y0.0
X-11.0Y-1.5
X-10.5Y16.75
X-10.5Y10.75
X-10.5Y9.25
X-9.5Y5.0
X-9.5Y1.5
X-9.5Y0.0
X-9.5Y-1.5
X-9.5Y-5.25
X-9.25Y6.0
X-9.25Y-6.75
X-9.25Y-11.095
X-9.25Y-12.365
X-8.625Y5.25
X-8.5Y-8.25
X-7.75Y4.25
X-7.75Y-4.25
X-7.75Y-4.25
X-7.75Y-4.25
X-7.75Y-4.25
X-7.5Y3.5
X-7.5Y-8.25
X-7.25Y16.0
X-6.75Y3.25
X-6.25Y-1.5
X-6.25Y-5.5
X-6.25Y-12.5
X-6.0Y3.0
X-5.75Y16.0
X-5.75Y-4.75
X-5.0Y3.0
X-5.0Y-9.5
X-4.25Y-1.0
X-4.25Y-2.5
X-3.5Y3.0
X-3.5Y-9.5
X-2.75Y-0.25
X-2.75Y-1.75
X-2.75Y-4.75
X-2.75Y-6.25
X-2.5Y10.5
X-2.45Y-14.25
X-2.0Y-9.5
X-1.65Y-14.25
X-0.85Y-14.25
X-0.05Y-14.25
X0.5Y3.5
X0.5Y2.0
X0.5Y-3.5
X0.5Y-5.0
X0.75Y-12.5
X2.0Y5.0
X2.0Y2.0
X2.0Y-2.0
X2.0Y-5.0
X2.5Y-16.75
X3.5Y-17.25
X6.2Y-22.0
X8.75Y2.75
X8.75Y1.25
X8.75Y-4.25
X8.75Y-5.75
X9.0Y10.0
X9.0Y8.5
X9.0Y7.0
X9.5Y-21.25
X9.5Y-22.75
X14.325Y5.5
X14.325Y1.5
X14.325Y-1.5
X14.325Y-5.5
X18.375Y1.625
X18.375Y-1.625
X19.125Y1.625
X19.125Y-1.625
X21.75Y1.75
X21.75Y1.0
X21.75Y0.25
X21.75Y-0.5
X24.25Y22.5
X24.25Y20.875
X24.25Y-18.5
X24.25Y-20.125
X24.25Y-22.5
X25.25Y2.275
X26.0Y7.0
X26.0Y-7.0
X26.0Y-8.5
X26.0Y-10.0
X27.75Y1.625
X31.25Y0.5
X31.25Y-0.5
T3
X29.9Y14.735
X29.9Y12.445
X29.9Y3.305
X29.9Y1.015
X29.9Y-1.015
X29.9Y-3.305
X29.9Y-12.445
X29.9Y-14.735
X34.72Y10.419
X34.72Y8.387
X34.72Y6.355
X34.72Y4.323
X34.72Y-5.331
X34.72Y-7.363
X34.72Y-9.395
X34.72Y-11.427
X36.5Y11.435
X36.5Y9.403
X36.5Y7.371
X36.5Y5.339
X36.5Y-4.315
X36.5Y-6.347
X36.5Y-8.379
X36.5Y-10.411
X-36.5Y-12.45
X-36.5Y-14.49
X-36.5Y-16.53
X-36.5Y-18.57
X-34.72Y-11.43
X-34.72Y-13.47
X-34.72Y-15.51
X-34.72Y-17.55
T4
X-12.32Y-18.81
X-12.32Y-21.35
X-9.78Y-18.81
X-9.78Y-21.35
X-7.24Y-18.81
X-7.24Y-21.35
X-4.7Y-18.81
X-4.7Y-21.35
X13.69Y21.77
X13.69Y19.23
X16.23Y21.77
X16.23Y19.23
X18.77Y21.77
X18.77Y19.23
X21.31Y21.77
X21.31Y19.23
X-25.02Y-11.19
X-25.02Y-13.73
X-25.02Y-16.27
X-25.02Y-18.81
X-22.48Y-11.19
X-22.48Y-13.73
X-22.48Y-16.27
X-22.48Y-18.81
X5.46Y-11.19
X5.46Y-13.73
X5.46Y-16.27
X5.46Y-18.81
X8.0Y-11.19
X8.0Y-13.73
X8.0Y-16.27
X8.0Y-18.81
X13.69Y-19.23
X13.69Y-21.77
X16.23Y-19.23
X16.23Y-21.77
X18.77Y-19.23
X18.77Y-21.77
X21.31Y-19.23
X21.31Y-21.77
T5
X-6.75Y19.25
X-3.5Y21.7
T6
X-36.0Y20.0
T7
X35.61Y16.005
X35.61Y-15.995
X-35.61Y-6.88
X-35.61Y-23.14
T8
X-38.54Y22.54
X-38.54Y17.46
X-33.46Y22.54
X-33.46Y17.46
T2
G00X-41.1Y4.32
M15
G01X-41.7Y4.32
M16
G05
G00X-41.1Y-4.32
M15
G01X-41.7Y-4.32
M16
G05
G00X-36.67Y4.32
M15
G01X-37.77Y4.32
M16
G05
G00X-36.67Y-4.32
M15
G01X-37.77Y-4.32
M16
G05
T0
M30
