G75*
%MOIN*%
%OFA0B0*%
%FSLAX25Y25*%
%IPPOS*%
%LPD*%
%AMOC8*
5,1,8,0,0,1.08239X$1,22.5*
%
%ADD10C,0.00000*%
%ADD11C,0.00591*%
%ADD12C,0.01181*%
%ADD13C,0.01250*%
%ADD14C,0.00945*%
%ADD15C,0.01417*%
%ADD16C,0.01984*%
%ADD17C,0.00827*%
%ADD18C,0.00650*%
%ADD19C,0.01992*%
%ADD20C,0.01772*%
%ADD21C,0.01380*%
D10*
X0001800Y0001800D02*
X0001800Y0238020D01*
X0277391Y0238020D01*
X0277391Y0001800D01*
X0001800Y0001800D01*
X0052270Y0206170D02*
X0052272Y0206330D01*
X0052278Y0206489D01*
X0052288Y0206648D01*
X0052302Y0206807D01*
X0052320Y0206966D01*
X0052341Y0207124D01*
X0052367Y0207281D01*
X0052397Y0207438D01*
X0052430Y0207594D01*
X0052468Y0207749D01*
X0052509Y0207903D01*
X0052554Y0208056D01*
X0052603Y0208208D01*
X0052656Y0208359D01*
X0052712Y0208508D01*
X0052773Y0208656D01*
X0052836Y0208802D01*
X0052904Y0208947D01*
X0052975Y0209090D01*
X0053049Y0209231D01*
X0053127Y0209370D01*
X0053209Y0209507D01*
X0053294Y0209642D01*
X0053382Y0209775D01*
X0053474Y0209906D01*
X0053568Y0210034D01*
X0053666Y0210160D01*
X0053767Y0210284D01*
X0053871Y0210405D01*
X0053978Y0210523D01*
X0054088Y0210639D01*
X0054201Y0210752D01*
X0054317Y0210862D01*
X0054435Y0210969D01*
X0054556Y0211073D01*
X0054680Y0211174D01*
X0054806Y0211272D01*
X0054934Y0211366D01*
X0055065Y0211458D01*
X0055198Y0211546D01*
X0055333Y0211631D01*
X0055470Y0211713D01*
X0055609Y0211791D01*
X0055750Y0211865D01*
X0055893Y0211936D01*
X0056038Y0212004D01*
X0056184Y0212067D01*
X0056332Y0212128D01*
X0056481Y0212184D01*
X0056632Y0212237D01*
X0056784Y0212286D01*
X0056937Y0212331D01*
X0057091Y0212372D01*
X0057246Y0212410D01*
X0057402Y0212443D01*
X0057559Y0212473D01*
X0057716Y0212499D01*
X0057874Y0212520D01*
X0058033Y0212538D01*
X0058192Y0212552D01*
X0058351Y0212562D01*
X0058510Y0212568D01*
X0058670Y0212570D01*
X0058830Y0212568D01*
X0058989Y0212562D01*
X0059148Y0212552D01*
X0059307Y0212538D01*
X0059466Y0212520D01*
X0059624Y0212499D01*
X0059781Y0212473D01*
X0059938Y0212443D01*
X0060094Y0212410D01*
X0060249Y0212372D01*
X0060403Y0212331D01*
X0060556Y0212286D01*
X0060708Y0212237D01*
X0060859Y0212184D01*
X0061008Y0212128D01*
X0061156Y0212067D01*
X0061302Y0212004D01*
X0061447Y0211936D01*
X0061590Y0211865D01*
X0061731Y0211791D01*
X0061870Y0211713D01*
X0062007Y0211631D01*
X0062142Y0211546D01*
X0062275Y0211458D01*
X0062406Y0211366D01*
X0062534Y0211272D01*
X0062660Y0211174D01*
X0062784Y0211073D01*
X0062905Y0210969D01*
X0063023Y0210862D01*
X0063139Y0210752D01*
X0063252Y0210639D01*
X0063362Y0210523D01*
X0063469Y0210405D01*
X0063573Y0210284D01*
X0063674Y0210160D01*
X0063772Y0210034D01*
X0063866Y0209906D01*
X0063958Y0209775D01*
X0064046Y0209642D01*
X0064131Y0209507D01*
X0064213Y0209370D01*
X0064291Y0209231D01*
X0064365Y0209090D01*
X0064436Y0208947D01*
X0064504Y0208802D01*
X0064567Y0208656D01*
X0064628Y0208508D01*
X0064684Y0208359D01*
X0064737Y0208208D01*
X0064786Y0208056D01*
X0064831Y0207903D01*
X0064872Y0207749D01*
X0064910Y0207594D01*
X0064943Y0207438D01*
X0064973Y0207281D01*
X0064999Y0207124D01*
X0065020Y0206966D01*
X0065038Y0206807D01*
X0065052Y0206648D01*
X0065062Y0206489D01*
X0065068Y0206330D01*
X0065070Y0206170D01*
X0065068Y0206010D01*
X0065062Y0205851D01*
X0065052Y0205692D01*
X0065038Y0205533D01*
X0065020Y0205374D01*
X0064999Y0205216D01*
X0064973Y0205059D01*
X0064943Y0204902D01*
X0064910Y0204746D01*
X0064872Y0204591D01*
X0064831Y0204437D01*
X0064786Y0204284D01*
X0064737Y0204132D01*
X0064684Y0203981D01*
X0064628Y0203832D01*
X0064567Y0203684D01*
X0064504Y0203538D01*
X0064436Y0203393D01*
X0064365Y0203250D01*
X0064291Y0203109D01*
X0064213Y0202970D01*
X0064131Y0202833D01*
X0064046Y0202698D01*
X0063958Y0202565D01*
X0063866Y0202434D01*
X0063772Y0202306D01*
X0063674Y0202180D01*
X0063573Y0202056D01*
X0063469Y0201935D01*
X0063362Y0201817D01*
X0063252Y0201701D01*
X0063139Y0201588D01*
X0063023Y0201478D01*
X0062905Y0201371D01*
X0062784Y0201267D01*
X0062660Y0201166D01*
X0062534Y0201068D01*
X0062406Y0200974D01*
X0062275Y0200882D01*
X0062142Y0200794D01*
X0062007Y0200709D01*
X0061870Y0200627D01*
X0061731Y0200549D01*
X0061590Y0200475D01*
X0061447Y0200404D01*
X0061302Y0200336D01*
X0061156Y0200273D01*
X0061008Y0200212D01*
X0060859Y0200156D01*
X0060708Y0200103D01*
X0060556Y0200054D01*
X0060403Y0200009D01*
X0060249Y0199968D01*
X0060094Y0199930D01*
X0059938Y0199897D01*
X0059781Y0199867D01*
X0059624Y0199841D01*
X0059466Y0199820D01*
X0059307Y0199802D01*
X0059148Y0199788D01*
X0058989Y0199778D01*
X0058830Y0199772D01*
X0058670Y0199770D01*
X0058510Y0199772D01*
X0058351Y0199778D01*
X0058192Y0199788D01*
X0058033Y0199802D01*
X0057874Y0199820D01*
X0057716Y0199841D01*
X0057559Y0199867D01*
X0057402Y0199897D01*
X0057246Y0199930D01*
X0057091Y0199968D01*
X0056937Y0200009D01*
X0056784Y0200054D01*
X0056632Y0200103D01*
X0056481Y0200156D01*
X0056332Y0200212D01*
X0056184Y0200273D01*
X0056038Y0200336D01*
X0055893Y0200404D01*
X0055750Y0200475D01*
X0055609Y0200549D01*
X0055470Y0200627D01*
X0055333Y0200709D01*
X0055198Y0200794D01*
X0055065Y0200882D01*
X0054934Y0200974D01*
X0054806Y0201068D01*
X0054680Y0201166D01*
X0054556Y0201267D01*
X0054435Y0201371D01*
X0054317Y0201478D01*
X0054201Y0201588D01*
X0054088Y0201701D01*
X0053978Y0201817D01*
X0053871Y0201935D01*
X0053767Y0202056D01*
X0053666Y0202180D01*
X0053568Y0202306D01*
X0053474Y0202434D01*
X0053382Y0202565D01*
X0053294Y0202698D01*
X0053209Y0202833D01*
X0053127Y0202970D01*
X0053049Y0203109D01*
X0052975Y0203250D01*
X0052904Y0203393D01*
X0052836Y0203538D01*
X0052773Y0203684D01*
X0052712Y0203832D01*
X0052656Y0203981D01*
X0052603Y0204132D01*
X0052554Y0204284D01*
X0052509Y0204437D01*
X0052468Y0204591D01*
X0052430Y0204746D01*
X0052397Y0204902D01*
X0052367Y0205059D01*
X0052341Y0205216D01*
X0052320Y0205374D01*
X0052302Y0205533D01*
X0052288Y0205692D01*
X0052278Y0205851D01*
X0052272Y0206010D01*
X0052270Y0206170D01*
X0152270Y0206170D02*
X0152272Y0206330D01*
X0152278Y0206489D01*
X0152288Y0206648D01*
X0152302Y0206807D01*
X0152320Y0206966D01*
X0152341Y0207124D01*
X0152367Y0207281D01*
X0152397Y0207438D01*
X0152430Y0207594D01*
X0152468Y0207749D01*
X0152509Y0207903D01*
X0152554Y0208056D01*
X0152603Y0208208D01*
X0152656Y0208359D01*
X0152712Y0208508D01*
X0152773Y0208656D01*
X0152836Y0208802D01*
X0152904Y0208947D01*
X0152975Y0209090D01*
X0153049Y0209231D01*
X0153127Y0209370D01*
X0153209Y0209507D01*
X0153294Y0209642D01*
X0153382Y0209775D01*
X0153474Y0209906D01*
X0153568Y0210034D01*
X0153666Y0210160D01*
X0153767Y0210284D01*
X0153871Y0210405D01*
X0153978Y0210523D01*
X0154088Y0210639D01*
X0154201Y0210752D01*
X0154317Y0210862D01*
X0154435Y0210969D01*
X0154556Y0211073D01*
X0154680Y0211174D01*
X0154806Y0211272D01*
X0154934Y0211366D01*
X0155065Y0211458D01*
X0155198Y0211546D01*
X0155333Y0211631D01*
X0155470Y0211713D01*
X0155609Y0211791D01*
X0155750Y0211865D01*
X0155893Y0211936D01*
X0156038Y0212004D01*
X0156184Y0212067D01*
X0156332Y0212128D01*
X0156481Y0212184D01*
X0156632Y0212237D01*
X0156784Y0212286D01*
X0156937Y0212331D01*
X0157091Y0212372D01*
X0157246Y0212410D01*
X0157402Y0212443D01*
X0157559Y0212473D01*
X0157716Y0212499D01*
X0157874Y0212520D01*
X0158033Y0212538D01*
X0158192Y0212552D01*
X0158351Y0212562D01*
X0158510Y0212568D01*
X0158670Y0212570D01*
X0158830Y0212568D01*
X0158989Y0212562D01*
X0159148Y0212552D01*
X0159307Y0212538D01*
X0159466Y0212520D01*
X0159624Y0212499D01*
X0159781Y0212473D01*
X0159938Y0212443D01*
X0160094Y0212410D01*
X0160249Y0212372D01*
X0160403Y0212331D01*
X0160556Y0212286D01*
X0160708Y0212237D01*
X0160859Y0212184D01*
X0161008Y0212128D01*
X0161156Y0212067D01*
X0161302Y0212004D01*
X0161447Y0211936D01*
X0161590Y0211865D01*
X0161731Y0211791D01*
X0161870Y0211713D01*
X0162007Y0211631D01*
X0162142Y0211546D01*
X0162275Y0211458D01*
X0162406Y0211366D01*
X0162534Y0211272D01*
X0162660Y0211174D01*
X0162784Y0211073D01*
X0162905Y0210969D01*
X0163023Y0210862D01*
X0163139Y0210752D01*
X0163252Y0210639D01*
X0163362Y0210523D01*
X0163469Y0210405D01*
X0163573Y0210284D01*
X0163674Y0210160D01*
X0163772Y0210034D01*
X0163866Y0209906D01*
X0163958Y0209775D01*
X0164046Y0209642D01*
X0164131Y0209507D01*
X0164213Y0209370D01*
X0164291Y0209231D01*
X0164365Y0209090D01*
X0164436Y0208947D01*
X0164504Y0208802D01*
X0164567Y0208656D01*
X0164628Y0208508D01*
X0164684Y0208359D01*
X0164737Y0208208D01*
X0164786Y0208056D01*
X0164831Y0207903D01*
X0164872Y0207749D01*
X0164910Y0207594D01*
X0164943Y0207438D01*
X0164973Y0207281D01*
X0164999Y0207124D01*
X0165020Y0206966D01*
X0165038Y0206807D01*
X0165052Y0206648D01*
X0165062Y0206489D01*
X0165068Y0206330D01*
X0165070Y0206170D01*
X0165068Y0206010D01*
X0165062Y0205851D01*
X0165052Y0205692D01*
X0165038Y0205533D01*
X0165020Y0205374D01*
X0164999Y0205216D01*
X0164973Y0205059D01*
X0164943Y0204902D01*
X0164910Y0204746D01*
X0164872Y0204591D01*
X0164831Y0204437D01*
X0164786Y0204284D01*
X0164737Y0204132D01*
X0164684Y0203981D01*
X0164628Y0203832D01*
X0164567Y0203684D01*
X0164504Y0203538D01*
X0164436Y0203393D01*
X0164365Y0203250D01*
X0164291Y0203109D01*
X0164213Y0202970D01*
X0164131Y0202833D01*
X0164046Y0202698D01*
X0163958Y0202565D01*
X0163866Y0202434D01*
X0163772Y0202306D01*
X0163674Y0202180D01*
X0163573Y0202056D01*
X0163469Y0201935D01*
X0163362Y0201817D01*
X0163252Y0201701D01*
X0163139Y0201588D01*
X0163023Y0201478D01*
X0162905Y0201371D01*
X0162784Y0201267D01*
X0162660Y0201166D01*
X0162534Y0201068D01*
X0162406Y0200974D01*
X0162275Y0200882D01*
X0162142Y0200794D01*
X0162007Y0200709D01*
X0161870Y0200627D01*
X0161731Y0200549D01*
X0161590Y0200475D01*
X0161447Y0200404D01*
X0161302Y0200336D01*
X0161156Y0200273D01*
X0161008Y0200212D01*
X0160859Y0200156D01*
X0160708Y0200103D01*
X0160556Y0200054D01*
X0160403Y0200009D01*
X0160249Y0199968D01*
X0160094Y0199930D01*
X0159938Y0199897D01*
X0159781Y0199867D01*
X0159624Y0199841D01*
X0159466Y0199820D01*
X0159307Y0199802D01*
X0159148Y0199788D01*
X0158989Y0199778D01*
X0158830Y0199772D01*
X0158670Y0199770D01*
X0158510Y0199772D01*
X0158351Y0199778D01*
X0158192Y0199788D01*
X0158033Y0199802D01*
X0157874Y0199820D01*
X0157716Y0199841D01*
X0157559Y0199867D01*
X0157402Y0199897D01*
X0157246Y0199930D01*
X0157091Y0199968D01*
X0156937Y0200009D01*
X0156784Y0200054D01*
X0156632Y0200103D01*
X0156481Y0200156D01*
X0156332Y0200212D01*
X0156184Y0200273D01*
X0156038Y0200336D01*
X0155893Y0200404D01*
X0155750Y0200475D01*
X0155609Y0200549D01*
X0155470Y0200627D01*
X0155333Y0200709D01*
X0155198Y0200794D01*
X0155065Y0200882D01*
X0154934Y0200974D01*
X0154806Y0201068D01*
X0154680Y0201166D01*
X0154556Y0201267D01*
X0154435Y0201371D01*
X0154317Y0201478D01*
X0154201Y0201588D01*
X0154088Y0201701D01*
X0153978Y0201817D01*
X0153871Y0201935D01*
X0153767Y0202056D01*
X0153666Y0202180D01*
X0153568Y0202306D01*
X0153474Y0202434D01*
X0153382Y0202565D01*
X0153294Y0202698D01*
X0153209Y0202833D01*
X0153127Y0202970D01*
X0153049Y0203109D01*
X0152975Y0203250D01*
X0152904Y0203393D01*
X0152836Y0203538D01*
X0152773Y0203684D01*
X0152712Y0203832D01*
X0152656Y0203981D01*
X0152603Y0204132D01*
X0152554Y0204284D01*
X0152509Y0204437D01*
X0152468Y0204591D01*
X0152430Y0204746D01*
X0152397Y0204902D01*
X0152367Y0205059D01*
X0152341Y0205216D01*
X0152320Y0205374D01*
X0152302Y0205533D01*
X0152288Y0205692D01*
X0152278Y0205851D01*
X0152272Y0206010D01*
X0152270Y0206170D01*
D11*
X0153759Y0134163D02*
X0153759Y0128847D01*
X0152381Y0128847D01*
X0152381Y0134163D01*
X0153759Y0134163D01*
X0153759Y0129437D02*
X0152381Y0129437D01*
X0152381Y0130027D02*
X0153759Y0130027D01*
X0153759Y0130617D02*
X0152381Y0130617D01*
X0152381Y0131207D02*
X0153759Y0131207D01*
X0153759Y0131797D02*
X0152381Y0131797D01*
X0152381Y0132387D02*
X0153759Y0132387D01*
X0153759Y0132977D02*
X0152381Y0132977D01*
X0152381Y0133567D02*
X0153759Y0133567D01*
X0153759Y0134157D02*
X0152381Y0134157D01*
X0150609Y0134163D02*
X0150609Y0128847D01*
X0149231Y0128847D01*
X0149231Y0134163D01*
X0150609Y0134163D01*
X0150609Y0129437D02*
X0149231Y0129437D01*
X0149231Y0130027D02*
X0150609Y0130027D01*
X0150609Y0130617D02*
X0149231Y0130617D01*
X0149231Y0131207D02*
X0150609Y0131207D01*
X0150609Y0131797D02*
X0149231Y0131797D01*
X0149231Y0132387D02*
X0150609Y0132387D01*
X0150609Y0132977D02*
X0149231Y0132977D01*
X0149231Y0133567D02*
X0150609Y0133567D01*
X0150609Y0134157D02*
X0149231Y0134157D01*
X0147459Y0134163D02*
X0147459Y0128847D01*
X0146081Y0128847D01*
X0146081Y0134163D01*
X0147459Y0134163D01*
X0147459Y0129437D02*
X0146081Y0129437D01*
X0146081Y0130027D02*
X0147459Y0130027D01*
X0147459Y0130617D02*
X0146081Y0130617D01*
X0146081Y0131207D02*
X0147459Y0131207D01*
X0147459Y0131797D02*
X0146081Y0131797D01*
X0146081Y0132387D02*
X0147459Y0132387D01*
X0147459Y0132977D02*
X0146081Y0132977D01*
X0146081Y0133567D02*
X0147459Y0133567D01*
X0147459Y0134157D02*
X0146081Y0134157D01*
X0144310Y0134163D02*
X0144310Y0128847D01*
X0142932Y0128847D01*
X0142932Y0134163D01*
X0144310Y0134163D01*
X0144310Y0129437D02*
X0142932Y0129437D01*
X0142932Y0130027D02*
X0144310Y0130027D01*
X0144310Y0130617D02*
X0142932Y0130617D01*
X0142932Y0131207D02*
X0144310Y0131207D01*
X0144310Y0131797D02*
X0142932Y0131797D01*
X0142932Y0132387D02*
X0144310Y0132387D01*
X0144310Y0132977D02*
X0142932Y0132977D01*
X0142932Y0133567D02*
X0144310Y0133567D01*
X0144310Y0134157D02*
X0142932Y0134157D01*
X0141160Y0134163D02*
X0141160Y0128847D01*
X0139782Y0128847D01*
X0139782Y0134163D01*
X0141160Y0134163D01*
X0141160Y0129437D02*
X0139782Y0129437D01*
X0139782Y0130027D02*
X0141160Y0130027D01*
X0141160Y0130617D02*
X0139782Y0130617D01*
X0139782Y0131207D02*
X0141160Y0131207D01*
X0141160Y0131797D02*
X0139782Y0131797D01*
X0139782Y0132387D02*
X0141160Y0132387D01*
X0141160Y0132977D02*
X0139782Y0132977D01*
X0139782Y0133567D02*
X0141160Y0133567D01*
X0141160Y0134157D02*
X0139782Y0134157D01*
X0138011Y0134163D02*
X0138011Y0128847D01*
X0136633Y0128847D01*
X0136633Y0134163D01*
X0138011Y0134163D01*
X0138011Y0129437D02*
X0136633Y0129437D01*
X0136633Y0130027D02*
X0138011Y0130027D01*
X0138011Y0130617D02*
X0136633Y0130617D01*
X0136633Y0131207D02*
X0138011Y0131207D01*
X0138011Y0131797D02*
X0136633Y0131797D01*
X0136633Y0132387D02*
X0138011Y0132387D01*
X0138011Y0132977D02*
X0136633Y0132977D01*
X0136633Y0133567D02*
X0138011Y0133567D01*
X0138011Y0134157D02*
X0136633Y0134157D01*
X0134861Y0134163D02*
X0134861Y0128847D01*
X0133483Y0128847D01*
X0133483Y0134163D01*
X0134861Y0134163D01*
X0134861Y0129437D02*
X0133483Y0129437D01*
X0133483Y0130027D02*
X0134861Y0130027D01*
X0134861Y0130617D02*
X0133483Y0130617D01*
X0133483Y0131207D02*
X0134861Y0131207D01*
X0134861Y0131797D02*
X0133483Y0131797D01*
X0133483Y0132387D02*
X0134861Y0132387D01*
X0134861Y0132977D02*
X0133483Y0132977D01*
X0133483Y0133567D02*
X0134861Y0133567D01*
X0134861Y0134157D02*
X0133483Y0134157D01*
X0129743Y0125107D02*
X0129743Y0123729D01*
X0124427Y0123729D01*
X0124427Y0125107D01*
X0129743Y0125107D01*
X0129743Y0124319D02*
X0124427Y0124319D01*
X0124427Y0124909D02*
X0129743Y0124909D01*
X0129743Y0121958D02*
X0129743Y0120580D01*
X0124427Y0120580D01*
X0124427Y0121958D01*
X0129743Y0121958D01*
X0129743Y0121170D02*
X0124427Y0121170D01*
X0124427Y0121760D02*
X0129743Y0121760D01*
X0129743Y0118808D02*
X0129743Y0117430D01*
X0124427Y0117430D01*
X0124427Y0118808D01*
X0129743Y0118808D01*
X0129743Y0118020D02*
X0124427Y0118020D01*
X0124427Y0118610D02*
X0129743Y0118610D01*
X0129743Y0115658D02*
X0129743Y0114280D01*
X0124427Y0114280D01*
X0124427Y0115658D01*
X0129743Y0115658D01*
X0129743Y0114870D02*
X0124427Y0114870D01*
X0124427Y0115460D02*
X0129743Y0115460D01*
X0129743Y0112509D02*
X0129743Y0111131D01*
X0124427Y0111131D01*
X0124427Y0112509D01*
X0129743Y0112509D01*
X0129743Y0111721D02*
X0124427Y0111721D01*
X0124427Y0112311D02*
X0129743Y0112311D01*
X0129743Y0109359D02*
X0129743Y0107981D01*
X0124427Y0107981D01*
X0124427Y0109359D01*
X0129743Y0109359D01*
X0129743Y0108571D02*
X0124427Y0108571D01*
X0124427Y0109161D02*
X0129743Y0109161D01*
X0129743Y0106209D02*
X0129743Y0104831D01*
X0124427Y0104831D01*
X0124427Y0106209D01*
X0129743Y0106209D01*
X0129743Y0105421D02*
X0124427Y0105421D01*
X0124427Y0106011D02*
X0129743Y0106011D01*
X0129743Y0103060D02*
X0129743Y0101682D01*
X0124427Y0101682D01*
X0124427Y0103060D01*
X0129743Y0103060D01*
X0129743Y0102272D02*
X0124427Y0102272D01*
X0124427Y0102862D02*
X0129743Y0102862D01*
X0129743Y0099910D02*
X0129743Y0098532D01*
X0124427Y0098532D01*
X0124427Y0099910D01*
X0129743Y0099910D01*
X0129743Y0099122D02*
X0124427Y0099122D01*
X0124427Y0099712D02*
X0129743Y0099712D01*
X0129743Y0096761D02*
X0129743Y0095383D01*
X0124427Y0095383D01*
X0124427Y0096761D01*
X0129743Y0096761D01*
X0129743Y0095973D02*
X0124427Y0095973D01*
X0124427Y0096563D02*
X0129743Y0096563D01*
X0129743Y0093611D02*
X0129743Y0092233D01*
X0124427Y0092233D01*
X0124427Y0093611D01*
X0129743Y0093611D01*
X0129743Y0092823D02*
X0124427Y0092823D01*
X0124427Y0093413D02*
X0129743Y0093413D01*
X0134861Y0088493D02*
X0134861Y0083177D01*
X0133483Y0083177D01*
X0133483Y0088493D01*
X0134861Y0088493D01*
X0134861Y0083767D02*
X0133483Y0083767D01*
X0133483Y0084357D02*
X0134861Y0084357D01*
X0134861Y0084947D02*
X0133483Y0084947D01*
X0133483Y0085537D02*
X0134861Y0085537D01*
X0134861Y0086127D02*
X0133483Y0086127D01*
X0133483Y0086717D02*
X0134861Y0086717D01*
X0134861Y0087307D02*
X0133483Y0087307D01*
X0133483Y0087897D02*
X0134861Y0087897D01*
X0134861Y0088487D02*
X0133483Y0088487D01*
X0138011Y0088493D02*
X0138011Y0083177D01*
X0136633Y0083177D01*
X0136633Y0088493D01*
X0138011Y0088493D01*
X0138011Y0083767D02*
X0136633Y0083767D01*
X0136633Y0084357D02*
X0138011Y0084357D01*
X0138011Y0084947D02*
X0136633Y0084947D01*
X0136633Y0085537D02*
X0138011Y0085537D01*
X0138011Y0086127D02*
X0136633Y0086127D01*
X0136633Y0086717D02*
X0138011Y0086717D01*
X0138011Y0087307D02*
X0136633Y0087307D01*
X0136633Y0087897D02*
X0138011Y0087897D01*
X0138011Y0088487D02*
X0136633Y0088487D01*
X0141160Y0088493D02*
X0141160Y0083177D01*
X0139782Y0083177D01*
X0139782Y0088493D01*
X0141160Y0088493D01*
X0141160Y0083767D02*
X0139782Y0083767D01*
X0139782Y0084357D02*
X0141160Y0084357D01*
X0141160Y0084947D02*
X0139782Y0084947D01*
X0139782Y0085537D02*
X0141160Y0085537D01*
X0141160Y0086127D02*
X0139782Y0086127D01*
X0139782Y0086717D02*
X0141160Y0086717D01*
X0141160Y0087307D02*
X0139782Y0087307D01*
X0139782Y0087897D02*
X0141160Y0087897D01*
X0141160Y0088487D02*
X0139782Y0088487D01*
X0144310Y0088493D02*
X0144310Y0083177D01*
X0142932Y0083177D01*
X0142932Y0088493D01*
X0144310Y0088493D01*
X0144310Y0083767D02*
X0142932Y0083767D01*
X0142932Y0084357D02*
X0144310Y0084357D01*
X0144310Y0084947D02*
X0142932Y0084947D01*
X0142932Y0085537D02*
X0144310Y0085537D01*
X0144310Y0086127D02*
X0142932Y0086127D01*
X0142932Y0086717D02*
X0144310Y0086717D01*
X0144310Y0087307D02*
X0142932Y0087307D01*
X0142932Y0087897D02*
X0144310Y0087897D01*
X0144310Y0088487D02*
X0142932Y0088487D01*
X0147459Y0088493D02*
X0147459Y0083177D01*
X0146081Y0083177D01*
X0146081Y0088493D01*
X0147459Y0088493D01*
X0147459Y0083767D02*
X0146081Y0083767D01*
X0146081Y0084357D02*
X0147459Y0084357D01*
X0147459Y0084947D02*
X0146081Y0084947D01*
X0146081Y0085537D02*
X0147459Y0085537D01*
X0147459Y0086127D02*
X0146081Y0086127D01*
X0146081Y0086717D02*
X0147459Y0086717D01*
X0147459Y0087307D02*
X0146081Y0087307D01*
X0146081Y0087897D02*
X0147459Y0087897D01*
X0147459Y0088487D02*
X0146081Y0088487D01*
X0150609Y0088493D02*
X0150609Y0083177D01*
X0149231Y0083177D01*
X0149231Y0088493D01*
X0150609Y0088493D01*
X0150609Y0083767D02*
X0149231Y0083767D01*
X0149231Y0084357D02*
X0150609Y0084357D01*
X0150609Y0084947D02*
X0149231Y0084947D01*
X0149231Y0085537D02*
X0150609Y0085537D01*
X0150609Y0086127D02*
X0149231Y0086127D01*
X0149231Y0086717D02*
X0150609Y0086717D01*
X0150609Y0087307D02*
X0149231Y0087307D01*
X0149231Y0087897D02*
X0150609Y0087897D01*
X0150609Y0088487D02*
X0149231Y0088487D01*
X0153759Y0088493D02*
X0153759Y0083177D01*
X0152381Y0083177D01*
X0152381Y0088493D01*
X0153759Y0088493D01*
X0153759Y0083767D02*
X0152381Y0083767D01*
X0152381Y0084357D02*
X0153759Y0084357D01*
X0153759Y0084947D02*
X0152381Y0084947D01*
X0152381Y0085537D02*
X0153759Y0085537D01*
X0153759Y0086127D02*
X0152381Y0086127D01*
X0152381Y0086717D02*
X0153759Y0086717D01*
X0153759Y0087307D02*
X0152381Y0087307D01*
X0152381Y0087897D02*
X0153759Y0087897D01*
X0153759Y0088487D02*
X0152381Y0088487D01*
X0156908Y0088493D02*
X0156908Y0083177D01*
X0155530Y0083177D01*
X0155530Y0088493D01*
X0156908Y0088493D01*
X0156908Y0083767D02*
X0155530Y0083767D01*
X0155530Y0084357D02*
X0156908Y0084357D01*
X0156908Y0084947D02*
X0155530Y0084947D01*
X0155530Y0085537D02*
X0156908Y0085537D01*
X0156908Y0086127D02*
X0155530Y0086127D01*
X0155530Y0086717D02*
X0156908Y0086717D01*
X0156908Y0087307D02*
X0155530Y0087307D01*
X0155530Y0087897D02*
X0156908Y0087897D01*
X0156908Y0088487D02*
X0155530Y0088487D01*
X0160058Y0088493D02*
X0160058Y0083177D01*
X0158680Y0083177D01*
X0158680Y0088493D01*
X0160058Y0088493D01*
X0160058Y0083767D02*
X0158680Y0083767D01*
X0158680Y0084357D02*
X0160058Y0084357D01*
X0160058Y0084947D02*
X0158680Y0084947D01*
X0158680Y0085537D02*
X0160058Y0085537D01*
X0160058Y0086127D02*
X0158680Y0086127D01*
X0158680Y0086717D02*
X0160058Y0086717D01*
X0160058Y0087307D02*
X0158680Y0087307D01*
X0158680Y0087897D02*
X0160058Y0087897D01*
X0160058Y0088487D02*
X0158680Y0088487D01*
X0163208Y0088493D02*
X0163208Y0083177D01*
X0161830Y0083177D01*
X0161830Y0088493D01*
X0163208Y0088493D01*
X0163208Y0083767D02*
X0161830Y0083767D01*
X0161830Y0084357D02*
X0163208Y0084357D01*
X0163208Y0084947D02*
X0161830Y0084947D01*
X0161830Y0085537D02*
X0163208Y0085537D01*
X0163208Y0086127D02*
X0161830Y0086127D01*
X0161830Y0086717D02*
X0163208Y0086717D01*
X0163208Y0087307D02*
X0161830Y0087307D01*
X0161830Y0087897D02*
X0163208Y0087897D01*
X0163208Y0088487D02*
X0161830Y0088487D01*
X0166357Y0088493D02*
X0166357Y0083177D01*
X0164979Y0083177D01*
X0164979Y0088493D01*
X0166357Y0088493D01*
X0166357Y0083767D02*
X0164979Y0083767D01*
X0164979Y0084357D02*
X0166357Y0084357D01*
X0166357Y0084947D02*
X0164979Y0084947D01*
X0164979Y0085537D02*
X0166357Y0085537D01*
X0166357Y0086127D02*
X0164979Y0086127D01*
X0164979Y0086717D02*
X0166357Y0086717D01*
X0166357Y0087307D02*
X0164979Y0087307D01*
X0164979Y0087897D02*
X0166357Y0087897D01*
X0166357Y0088487D02*
X0164979Y0088487D01*
X0175413Y0092233D02*
X0175413Y0093611D01*
X0175413Y0092233D02*
X0170097Y0092233D01*
X0170097Y0093611D01*
X0175413Y0093611D01*
X0175413Y0092823D02*
X0170097Y0092823D01*
X0170097Y0093413D02*
X0175413Y0093413D01*
X0175413Y0095383D02*
X0175413Y0096761D01*
X0175413Y0095383D02*
X0170097Y0095383D01*
X0170097Y0096761D01*
X0175413Y0096761D01*
X0175413Y0095973D02*
X0170097Y0095973D01*
X0170097Y0096563D02*
X0175413Y0096563D01*
X0175413Y0098532D02*
X0175413Y0099910D01*
X0175413Y0098532D02*
X0170097Y0098532D01*
X0170097Y0099910D01*
X0175413Y0099910D01*
X0175413Y0099122D02*
X0170097Y0099122D01*
X0170097Y0099712D02*
X0175413Y0099712D01*
X0175413Y0101682D02*
X0175413Y0103060D01*
X0175413Y0101682D02*
X0170097Y0101682D01*
X0170097Y0103060D01*
X0175413Y0103060D01*
X0175413Y0102272D02*
X0170097Y0102272D01*
X0170097Y0102862D02*
X0175413Y0102862D01*
X0175413Y0104831D02*
X0175413Y0106209D01*
X0175413Y0104831D02*
X0170097Y0104831D01*
X0170097Y0106209D01*
X0175413Y0106209D01*
X0175413Y0105421D02*
X0170097Y0105421D01*
X0170097Y0106011D02*
X0175413Y0106011D01*
X0175413Y0107981D02*
X0175413Y0109359D01*
X0175413Y0107981D02*
X0170097Y0107981D01*
X0170097Y0109359D01*
X0175413Y0109359D01*
X0175413Y0108571D02*
X0170097Y0108571D01*
X0170097Y0109161D02*
X0175413Y0109161D01*
X0175413Y0111131D02*
X0175413Y0112509D01*
X0175413Y0111131D02*
X0170097Y0111131D01*
X0170097Y0112509D01*
X0175413Y0112509D01*
X0175413Y0111721D02*
X0170097Y0111721D01*
X0170097Y0112311D02*
X0175413Y0112311D01*
X0175413Y0114280D02*
X0175413Y0115658D01*
X0175413Y0114280D02*
X0170097Y0114280D01*
X0170097Y0115658D01*
X0175413Y0115658D01*
X0175413Y0114870D02*
X0170097Y0114870D01*
X0170097Y0115460D02*
X0175413Y0115460D01*
X0175413Y0117430D02*
X0175413Y0118808D01*
X0175413Y0117430D02*
X0170097Y0117430D01*
X0170097Y0118808D01*
X0175413Y0118808D01*
X0175413Y0118020D02*
X0170097Y0118020D01*
X0170097Y0118610D02*
X0175413Y0118610D01*
X0175413Y0120580D02*
X0175413Y0121958D01*
X0175413Y0120580D02*
X0170097Y0120580D01*
X0170097Y0121958D01*
X0175413Y0121958D01*
X0175413Y0121170D02*
X0170097Y0121170D01*
X0170097Y0121760D02*
X0175413Y0121760D01*
X0175413Y0123729D02*
X0175413Y0125107D01*
X0175413Y0123729D02*
X0170097Y0123729D01*
X0170097Y0125107D01*
X0175413Y0125107D01*
X0175413Y0124319D02*
X0170097Y0124319D01*
X0170097Y0124909D02*
X0175413Y0124909D01*
X0166357Y0128847D02*
X0166357Y0134163D01*
X0166357Y0128847D02*
X0164979Y0128847D01*
X0164979Y0134163D01*
X0166357Y0134163D01*
X0166357Y0129437D02*
X0164979Y0129437D01*
X0164979Y0130027D02*
X0166357Y0130027D01*
X0166357Y0130617D02*
X0164979Y0130617D01*
X0164979Y0131207D02*
X0166357Y0131207D01*
X0166357Y0131797D02*
X0164979Y0131797D01*
X0164979Y0132387D02*
X0166357Y0132387D01*
X0166357Y0132977D02*
X0164979Y0132977D01*
X0164979Y0133567D02*
X0166357Y0133567D01*
X0166357Y0134157D02*
X0164979Y0134157D01*
X0163208Y0134163D02*
X0163208Y0128847D01*
X0161830Y0128847D01*
X0161830Y0134163D01*
X0163208Y0134163D01*
X0163208Y0129437D02*
X0161830Y0129437D01*
X0161830Y0130027D02*
X0163208Y0130027D01*
X0163208Y0130617D02*
X0161830Y0130617D01*
X0161830Y0131207D02*
X0163208Y0131207D01*
X0163208Y0131797D02*
X0161830Y0131797D01*
X0161830Y0132387D02*
X0163208Y0132387D01*
X0163208Y0132977D02*
X0161830Y0132977D01*
X0161830Y0133567D02*
X0163208Y0133567D01*
X0163208Y0134157D02*
X0161830Y0134157D01*
X0160058Y0134163D02*
X0160058Y0128847D01*
X0158680Y0128847D01*
X0158680Y0134163D01*
X0160058Y0134163D01*
X0160058Y0129437D02*
X0158680Y0129437D01*
X0158680Y0130027D02*
X0160058Y0130027D01*
X0160058Y0130617D02*
X0158680Y0130617D01*
X0158680Y0131207D02*
X0160058Y0131207D01*
X0160058Y0131797D02*
X0158680Y0131797D01*
X0158680Y0132387D02*
X0160058Y0132387D01*
X0160058Y0132977D02*
X0158680Y0132977D01*
X0158680Y0133567D02*
X0160058Y0133567D01*
X0160058Y0134157D02*
X0158680Y0134157D01*
X0156908Y0134163D02*
X0156908Y0128847D01*
X0155530Y0128847D01*
X0155530Y0134163D01*
X0156908Y0134163D01*
X0156908Y0129437D02*
X0155530Y0129437D01*
X0155530Y0130027D02*
X0156908Y0130027D01*
X0156908Y0130617D02*
X0155530Y0130617D01*
X0155530Y0131207D02*
X0156908Y0131207D01*
X0156908Y0131797D02*
X0155530Y0131797D01*
X0155530Y0132387D02*
X0156908Y0132387D01*
X0156908Y0132977D02*
X0155530Y0132977D01*
X0155530Y0133567D02*
X0156908Y0133567D01*
X0156908Y0134157D02*
X0155530Y0134157D01*
D12*
X0168749Y0133542D02*
X0171899Y0133542D01*
X0168749Y0133542D02*
X0168749Y0136298D01*
X0171899Y0136298D01*
X0171899Y0133542D01*
X0171899Y0134722D02*
X0168749Y0134722D01*
X0168749Y0135902D02*
X0171899Y0135902D01*
X0175442Y0133542D02*
X0178592Y0133542D01*
X0175442Y0133542D02*
X0175442Y0136298D01*
X0178592Y0136298D01*
X0178592Y0133542D01*
X0178592Y0134722D02*
X0175442Y0134722D01*
X0175442Y0135902D02*
X0178592Y0135902D01*
X0178592Y0162548D02*
X0175442Y0162548D01*
X0178592Y0162548D02*
X0178592Y0159792D01*
X0175442Y0159792D01*
X0175442Y0162548D01*
X0175442Y0160972D02*
X0178592Y0160972D01*
X0178592Y0162152D02*
X0175442Y0162152D01*
X0171899Y0162548D02*
X0168749Y0162548D01*
X0171899Y0162548D02*
X0171899Y0159792D01*
X0168749Y0159792D01*
X0168749Y0162548D01*
X0168749Y0160972D02*
X0171899Y0160972D01*
X0171899Y0162152D02*
X0168749Y0162152D01*
X0117342Y0146298D02*
X0114192Y0146298D01*
X0117342Y0146298D02*
X0117342Y0143542D01*
X0114192Y0143542D01*
X0114192Y0146298D01*
X0114192Y0144722D02*
X0117342Y0144722D01*
X0117342Y0145902D02*
X0114192Y0145902D01*
X0110649Y0146298D02*
X0107499Y0146298D01*
X0110649Y0146298D02*
X0110649Y0143542D01*
X0107499Y0143542D01*
X0107499Y0146298D01*
X0107499Y0144722D02*
X0110649Y0144722D01*
X0110649Y0145902D02*
X0107499Y0145902D01*
X0107696Y0134595D02*
X0110452Y0134595D01*
X0107696Y0134595D02*
X0107696Y0137745D01*
X0110452Y0137745D01*
X0110452Y0134595D01*
X0110452Y0135775D02*
X0107696Y0135775D01*
X0107696Y0136955D02*
X0110452Y0136955D01*
X0114389Y0134595D02*
X0117145Y0134595D01*
X0114389Y0134595D02*
X0114389Y0137745D01*
X0117145Y0137745D01*
X0117145Y0134595D01*
X0117145Y0135775D02*
X0114389Y0135775D01*
X0114389Y0136955D02*
X0117145Y0136955D01*
X0100895Y0107095D02*
X0098139Y0107095D01*
X0098139Y0110245D01*
X0100895Y0110245D01*
X0100895Y0107095D01*
X0100895Y0108275D02*
X0098139Y0108275D01*
X0098139Y0109455D02*
X0100895Y0109455D01*
X0094202Y0107095D02*
X0091446Y0107095D01*
X0091446Y0110245D01*
X0094202Y0110245D01*
X0094202Y0107095D01*
X0094202Y0108275D02*
X0091446Y0108275D01*
X0091446Y0109455D02*
X0094202Y0109455D01*
X0088592Y0110048D02*
X0085442Y0110048D01*
X0088592Y0110048D02*
X0088592Y0107292D01*
X0085442Y0107292D01*
X0085442Y0110048D01*
X0085442Y0108472D02*
X0088592Y0108472D01*
X0088592Y0109652D02*
X0085442Y0109652D01*
X0081899Y0110048D02*
X0078749Y0110048D01*
X0081899Y0110048D02*
X0081899Y0107292D01*
X0078749Y0107292D01*
X0078749Y0110048D01*
X0078749Y0108472D02*
X0081899Y0108472D01*
X0081899Y0109652D02*
X0078749Y0109652D01*
X0069645Y0107095D02*
X0066889Y0107095D01*
X0066889Y0110245D01*
X0069645Y0110245D01*
X0069645Y0107095D01*
X0069645Y0108275D02*
X0066889Y0108275D01*
X0066889Y0109455D02*
X0069645Y0109455D01*
X0062952Y0107095D02*
X0060196Y0107095D01*
X0060196Y0110245D01*
X0062952Y0110245D01*
X0062952Y0107095D01*
X0062952Y0108275D02*
X0060196Y0108275D01*
X0060196Y0109455D02*
X0062952Y0109455D01*
X0100196Y0067745D02*
X0102952Y0067745D01*
X0102952Y0064595D01*
X0100196Y0064595D01*
X0100196Y0067745D01*
X0100196Y0065775D02*
X0102952Y0065775D01*
X0102952Y0066955D02*
X0100196Y0066955D01*
X0106889Y0067745D02*
X0109645Y0067745D01*
X0109645Y0064595D01*
X0106889Y0064595D01*
X0106889Y0067745D01*
X0106889Y0065775D02*
X0109645Y0065775D01*
X0109645Y0066955D02*
X0106889Y0066955D01*
X0114792Y0071249D02*
X0114792Y0074399D01*
X0117548Y0074399D01*
X0117548Y0071249D01*
X0114792Y0071249D01*
X0114792Y0072429D02*
X0117548Y0072429D01*
X0117548Y0073609D02*
X0114792Y0073609D01*
X0114792Y0077942D02*
X0114792Y0081092D01*
X0117548Y0081092D01*
X0117548Y0077942D01*
X0114792Y0077942D01*
X0114792Y0079122D02*
X0117548Y0079122D01*
X0117548Y0080302D02*
X0114792Y0080302D01*
X0127745Y0080895D02*
X0127745Y0078139D01*
X0124595Y0078139D01*
X0124595Y0080895D01*
X0127745Y0080895D01*
X0127745Y0079319D02*
X0124595Y0079319D01*
X0124595Y0080499D02*
X0127745Y0080499D01*
X0127745Y0074202D02*
X0127745Y0071446D01*
X0124595Y0071446D01*
X0124595Y0074202D01*
X0127745Y0074202D01*
X0127745Y0072626D02*
X0124595Y0072626D01*
X0124595Y0073806D02*
X0127745Y0073806D01*
X0154792Y0073149D02*
X0154792Y0069999D01*
X0154792Y0073149D02*
X0157548Y0073149D01*
X0157548Y0069999D01*
X0154792Y0069999D01*
X0154792Y0071179D02*
X0157548Y0071179D01*
X0157548Y0072359D02*
X0154792Y0072359D01*
X0154792Y0076692D02*
X0154792Y0079842D01*
X0157548Y0079842D01*
X0157548Y0076692D01*
X0154792Y0076692D01*
X0154792Y0077872D02*
X0157548Y0077872D01*
X0157548Y0079052D02*
X0154792Y0079052D01*
X0184802Y0085167D02*
X0187558Y0085167D01*
X0187558Y0080835D01*
X0184802Y0080835D01*
X0184802Y0085167D01*
X0184802Y0082015D02*
X0187558Y0082015D01*
X0187558Y0083195D02*
X0184802Y0083195D01*
X0184802Y0084375D02*
X0187558Y0084375D01*
X0192282Y0085167D02*
X0195038Y0085167D01*
X0195038Y0080835D01*
X0192282Y0080835D01*
X0192282Y0085167D01*
X0192282Y0082015D02*
X0195038Y0082015D01*
X0195038Y0083195D02*
X0192282Y0083195D01*
X0192282Y0084375D02*
X0195038Y0084375D01*
X0198946Y0085245D02*
X0201702Y0085245D01*
X0201702Y0082095D01*
X0198946Y0082095D01*
X0198946Y0085245D01*
X0198946Y0083275D02*
X0201702Y0083275D01*
X0201702Y0084455D02*
X0198946Y0084455D01*
X0205639Y0085245D02*
X0208395Y0085245D01*
X0208395Y0082095D01*
X0205639Y0082095D01*
X0205639Y0085245D01*
X0205639Y0083275D02*
X0208395Y0083275D01*
X0208395Y0084455D02*
X0205639Y0084455D01*
X0205639Y0075245D02*
X0208395Y0075245D01*
X0208395Y0072095D01*
X0205639Y0072095D01*
X0205639Y0075245D01*
X0205639Y0073275D02*
X0208395Y0073275D01*
X0208395Y0074455D02*
X0205639Y0074455D01*
X0201702Y0075245D02*
X0198946Y0075245D01*
X0201702Y0075245D02*
X0201702Y0072095D01*
X0198946Y0072095D01*
X0198946Y0075245D01*
X0198946Y0073275D02*
X0201702Y0073275D01*
X0201702Y0074455D02*
X0198946Y0074455D01*
X0191298Y0076505D02*
X0188542Y0076505D01*
X0191298Y0076505D02*
X0191298Y0072173D01*
X0188542Y0072173D01*
X0188542Y0076505D01*
X0188542Y0073353D02*
X0191298Y0073353D01*
X0191298Y0074533D02*
X0188542Y0074533D01*
X0188542Y0075713D02*
X0191298Y0075713D01*
X0191889Y0093995D02*
X0194645Y0093995D01*
X0194645Y0090845D01*
X0191889Y0090845D01*
X0191889Y0093995D01*
X0191889Y0092025D02*
X0194645Y0092025D01*
X0194645Y0093205D02*
X0191889Y0093205D01*
X0187952Y0093995D02*
X0185196Y0093995D01*
X0187952Y0093995D02*
X0187952Y0090845D01*
X0185196Y0090845D01*
X0185196Y0093995D01*
X0185196Y0092025D02*
X0187952Y0092025D01*
X0187952Y0093205D02*
X0185196Y0093205D01*
X0186042Y0102499D02*
X0186042Y0105649D01*
X0188798Y0105649D01*
X0188798Y0102499D01*
X0186042Y0102499D01*
X0186042Y0103679D02*
X0188798Y0103679D01*
X0188798Y0104859D02*
X0186042Y0104859D01*
X0186042Y0109192D02*
X0186042Y0112342D01*
X0188798Y0112342D01*
X0188798Y0109192D01*
X0186042Y0109192D01*
X0186042Y0110372D02*
X0188798Y0110372D01*
X0188798Y0111552D02*
X0186042Y0111552D01*
X0207499Y0211042D02*
X0210649Y0211042D01*
X0207499Y0211042D02*
X0207499Y0213798D01*
X0210649Y0213798D01*
X0210649Y0211042D01*
X0210649Y0212222D02*
X0207499Y0212222D01*
X0207499Y0213402D02*
X0210649Y0213402D01*
X0214192Y0211042D02*
X0217342Y0211042D01*
X0214192Y0211042D02*
X0214192Y0213798D01*
X0217342Y0213798D01*
X0217342Y0211042D01*
X0217342Y0212222D02*
X0214192Y0212222D01*
X0214192Y0213402D02*
X0217342Y0213402D01*
D13*
X0093813Y0154187D02*
X0093813Y0150437D01*
X0092563Y0150437D01*
X0092563Y0154187D01*
X0093813Y0154187D01*
X0093813Y0151686D02*
X0092563Y0151686D01*
X0092563Y0152935D02*
X0093813Y0152935D01*
X0093813Y0154184D02*
X0092563Y0154184D01*
X0088813Y0154187D02*
X0088813Y0150437D01*
X0087563Y0150437D01*
X0087563Y0154187D01*
X0088813Y0154187D01*
X0088813Y0151686D02*
X0087563Y0151686D01*
X0087563Y0152935D02*
X0088813Y0152935D01*
X0088813Y0154184D02*
X0087563Y0154184D01*
X0083813Y0154187D02*
X0083813Y0150437D01*
X0082563Y0150437D01*
X0082563Y0154187D01*
X0083813Y0154187D01*
X0083813Y0151686D02*
X0082563Y0151686D01*
X0082563Y0152935D02*
X0083813Y0152935D01*
X0083813Y0154184D02*
X0082563Y0154184D01*
X0078813Y0154187D02*
X0078813Y0150437D01*
X0077563Y0150437D01*
X0077563Y0154187D01*
X0078813Y0154187D01*
X0078813Y0151686D02*
X0077563Y0151686D01*
X0077563Y0152935D02*
X0078813Y0152935D01*
X0078813Y0154184D02*
X0077563Y0154184D01*
X0073813Y0154187D02*
X0073813Y0150437D01*
X0072563Y0150437D01*
X0072563Y0154187D01*
X0073813Y0154187D01*
X0073813Y0151686D02*
X0072563Y0151686D01*
X0072563Y0152935D02*
X0073813Y0152935D01*
X0073813Y0154184D02*
X0072563Y0154184D01*
X0068813Y0154187D02*
X0068813Y0150437D01*
X0067563Y0150437D01*
X0067563Y0154187D01*
X0068813Y0154187D01*
X0068813Y0151686D02*
X0067563Y0151686D01*
X0067563Y0152935D02*
X0068813Y0152935D01*
X0068813Y0154184D02*
X0067563Y0154184D01*
X0063813Y0154187D02*
X0063813Y0150437D01*
X0062563Y0150437D01*
X0062563Y0154187D01*
X0063813Y0154187D01*
X0063813Y0151686D02*
X0062563Y0151686D01*
X0062563Y0152935D02*
X0063813Y0152935D01*
X0063813Y0154184D02*
X0062563Y0154184D01*
X0058813Y0154187D02*
X0058813Y0150437D01*
X0057563Y0150437D01*
X0057563Y0154187D01*
X0058813Y0154187D01*
X0058813Y0151686D02*
X0057563Y0151686D01*
X0057563Y0152935D02*
X0058813Y0152935D01*
X0058813Y0154184D02*
X0057563Y0154184D01*
X0058813Y0121392D02*
X0058813Y0117642D01*
X0057563Y0117642D01*
X0057563Y0121392D01*
X0058813Y0121392D01*
X0058813Y0118891D02*
X0057563Y0118891D01*
X0057563Y0120140D02*
X0058813Y0120140D01*
X0058813Y0121389D02*
X0057563Y0121389D01*
X0063813Y0121392D02*
X0063813Y0117642D01*
X0062563Y0117642D01*
X0062563Y0121392D01*
X0063813Y0121392D01*
X0063813Y0118891D02*
X0062563Y0118891D01*
X0062563Y0120140D02*
X0063813Y0120140D01*
X0063813Y0121389D02*
X0062563Y0121389D01*
X0068813Y0121392D02*
X0068813Y0117642D01*
X0067563Y0117642D01*
X0067563Y0121392D01*
X0068813Y0121392D01*
X0068813Y0118891D02*
X0067563Y0118891D01*
X0067563Y0120140D02*
X0068813Y0120140D01*
X0068813Y0121389D02*
X0067563Y0121389D01*
X0073813Y0121392D02*
X0073813Y0117642D01*
X0072563Y0117642D01*
X0072563Y0121392D01*
X0073813Y0121392D01*
X0073813Y0118891D02*
X0072563Y0118891D01*
X0072563Y0120140D02*
X0073813Y0120140D01*
X0073813Y0121389D02*
X0072563Y0121389D01*
X0078813Y0121392D02*
X0078813Y0117642D01*
X0077563Y0117642D01*
X0077563Y0121392D01*
X0078813Y0121392D01*
X0078813Y0118891D02*
X0077563Y0118891D01*
X0077563Y0120140D02*
X0078813Y0120140D01*
X0078813Y0121389D02*
X0077563Y0121389D01*
X0083813Y0121392D02*
X0083813Y0117642D01*
X0082563Y0117642D01*
X0082563Y0121392D01*
X0083813Y0121392D01*
X0083813Y0118891D02*
X0082563Y0118891D01*
X0082563Y0120140D02*
X0083813Y0120140D01*
X0083813Y0121389D02*
X0082563Y0121389D01*
X0088813Y0121392D02*
X0088813Y0117642D01*
X0087563Y0117642D01*
X0087563Y0121392D01*
X0088813Y0121392D01*
X0088813Y0118891D02*
X0087563Y0118891D01*
X0087563Y0120140D02*
X0088813Y0120140D01*
X0088813Y0121389D02*
X0087563Y0121389D01*
X0093813Y0121392D02*
X0093813Y0117642D01*
X0092563Y0117642D01*
X0092563Y0121392D01*
X0093813Y0121392D01*
X0093813Y0118891D02*
X0092563Y0118891D01*
X0092563Y0120140D02*
X0093813Y0120140D01*
X0093813Y0121389D02*
X0092563Y0121389D01*
D14*
X0092567Y0103040D02*
X0092567Y0097686D01*
X0092567Y0103040D02*
X0094773Y0103040D01*
X0094773Y0097686D01*
X0092567Y0097686D01*
X0092567Y0098630D02*
X0094773Y0098630D01*
X0094773Y0099574D02*
X0092567Y0099574D01*
X0092567Y0100518D02*
X0094773Y0100518D01*
X0094773Y0101462D02*
X0092567Y0101462D01*
X0092567Y0102406D02*
X0094773Y0102406D01*
X0083817Y0103040D02*
X0083817Y0097686D01*
X0083817Y0103040D02*
X0086023Y0103040D01*
X0086023Y0097686D01*
X0083817Y0097686D01*
X0083817Y0098630D02*
X0086023Y0098630D01*
X0086023Y0099574D02*
X0083817Y0099574D01*
X0083817Y0100518D02*
X0086023Y0100518D01*
X0086023Y0101462D02*
X0083817Y0101462D01*
X0083817Y0102406D02*
X0086023Y0102406D01*
X0067567Y0100540D02*
X0067567Y0095186D01*
X0067567Y0100540D02*
X0069773Y0100540D01*
X0069773Y0095186D01*
X0067567Y0095186D01*
X0067567Y0096130D02*
X0069773Y0096130D01*
X0069773Y0097074D02*
X0067567Y0097074D01*
X0067567Y0098018D02*
X0069773Y0098018D01*
X0069773Y0098962D02*
X0067567Y0098962D01*
X0067567Y0099906D02*
X0069773Y0099906D01*
X0057567Y0100540D02*
X0057567Y0095186D01*
X0057567Y0100540D02*
X0059773Y0100540D01*
X0059773Y0095186D01*
X0057567Y0095186D01*
X0057567Y0096130D02*
X0059773Y0096130D01*
X0059773Y0097074D02*
X0057567Y0097074D01*
X0057567Y0098018D02*
X0059773Y0098018D01*
X0059773Y0098962D02*
X0057567Y0098962D01*
X0057567Y0099906D02*
X0059773Y0099906D01*
X0057567Y0087154D02*
X0057567Y0081800D01*
X0057567Y0087154D02*
X0059773Y0087154D01*
X0059773Y0081800D01*
X0057567Y0081800D01*
X0057567Y0082744D02*
X0059773Y0082744D01*
X0059773Y0083688D02*
X0057567Y0083688D01*
X0057567Y0084632D02*
X0059773Y0084632D01*
X0059773Y0085576D02*
X0057567Y0085576D01*
X0057567Y0086520D02*
X0059773Y0086520D01*
X0067567Y0087154D02*
X0067567Y0081800D01*
X0067567Y0087154D02*
X0069773Y0087154D01*
X0069773Y0081800D01*
X0067567Y0081800D01*
X0067567Y0082744D02*
X0069773Y0082744D01*
X0069773Y0083688D02*
X0067567Y0083688D01*
X0067567Y0084632D02*
X0069773Y0084632D01*
X0069773Y0085576D02*
X0067567Y0085576D01*
X0067567Y0086520D02*
X0069773Y0086520D01*
X0067567Y0075540D02*
X0067567Y0070186D01*
X0067567Y0075540D02*
X0069773Y0075540D01*
X0069773Y0070186D01*
X0067567Y0070186D01*
X0067567Y0071130D02*
X0069773Y0071130D01*
X0069773Y0072074D02*
X0067567Y0072074D01*
X0067567Y0073018D02*
X0069773Y0073018D01*
X0069773Y0073962D02*
X0067567Y0073962D01*
X0067567Y0074906D02*
X0069773Y0074906D01*
X0057567Y0075540D02*
X0057567Y0070186D01*
X0057567Y0075540D02*
X0059773Y0075540D01*
X0059773Y0070186D01*
X0057567Y0070186D01*
X0057567Y0071130D02*
X0059773Y0071130D01*
X0059773Y0072074D02*
X0057567Y0072074D01*
X0057567Y0073018D02*
X0059773Y0073018D01*
X0059773Y0073962D02*
X0057567Y0073962D01*
X0057567Y0074906D02*
X0059773Y0074906D01*
X0057567Y0062154D02*
X0057567Y0056800D01*
X0057567Y0062154D02*
X0059773Y0062154D01*
X0059773Y0056800D01*
X0057567Y0056800D01*
X0057567Y0057744D02*
X0059773Y0057744D01*
X0059773Y0058688D02*
X0057567Y0058688D01*
X0057567Y0059632D02*
X0059773Y0059632D01*
X0059773Y0060576D02*
X0057567Y0060576D01*
X0057567Y0061520D02*
X0059773Y0061520D01*
X0067567Y0062154D02*
X0067567Y0056800D01*
X0067567Y0062154D02*
X0069773Y0062154D01*
X0069773Y0056800D01*
X0067567Y0056800D01*
X0067567Y0057744D02*
X0069773Y0057744D01*
X0069773Y0058688D02*
X0067567Y0058688D01*
X0067567Y0059632D02*
X0069773Y0059632D01*
X0069773Y0060576D02*
X0067567Y0060576D01*
X0067567Y0061520D02*
X0069773Y0061520D01*
X0077567Y0062154D02*
X0077567Y0056800D01*
X0077567Y0062154D02*
X0079773Y0062154D01*
X0079773Y0056800D01*
X0077567Y0056800D01*
X0077567Y0057744D02*
X0079773Y0057744D01*
X0079773Y0058688D02*
X0077567Y0058688D01*
X0077567Y0059632D02*
X0079773Y0059632D01*
X0079773Y0060576D02*
X0077567Y0060576D01*
X0077567Y0061520D02*
X0079773Y0061520D01*
X0087567Y0062154D02*
X0087567Y0056800D01*
X0087567Y0062154D02*
X0089773Y0062154D01*
X0089773Y0056800D01*
X0087567Y0056800D01*
X0087567Y0057744D02*
X0089773Y0057744D01*
X0089773Y0058688D02*
X0087567Y0058688D01*
X0087567Y0059632D02*
X0089773Y0059632D01*
X0089773Y0060576D02*
X0087567Y0060576D01*
X0087567Y0061520D02*
X0089773Y0061520D01*
X0087567Y0070186D02*
X0087567Y0075540D01*
X0089773Y0075540D01*
X0089773Y0070186D01*
X0087567Y0070186D01*
X0087567Y0071130D02*
X0089773Y0071130D01*
X0089773Y0072074D02*
X0087567Y0072074D01*
X0087567Y0073018D02*
X0089773Y0073018D01*
X0089773Y0073962D02*
X0087567Y0073962D01*
X0087567Y0074906D02*
X0089773Y0074906D01*
X0077567Y0075540D02*
X0077567Y0070186D01*
X0077567Y0075540D02*
X0079773Y0075540D01*
X0079773Y0070186D01*
X0077567Y0070186D01*
X0077567Y0071130D02*
X0079773Y0071130D01*
X0079773Y0072074D02*
X0077567Y0072074D01*
X0077567Y0073018D02*
X0079773Y0073018D01*
X0079773Y0073962D02*
X0077567Y0073962D01*
X0077567Y0074906D02*
X0079773Y0074906D01*
X0083817Y0084300D02*
X0083817Y0089654D01*
X0086023Y0089654D01*
X0086023Y0084300D01*
X0083817Y0084300D01*
X0083817Y0085244D02*
X0086023Y0085244D01*
X0086023Y0086188D02*
X0083817Y0086188D01*
X0083817Y0087132D02*
X0086023Y0087132D01*
X0086023Y0088076D02*
X0083817Y0088076D01*
X0083817Y0089020D02*
X0086023Y0089020D01*
X0092567Y0089654D02*
X0092567Y0084300D01*
X0092567Y0089654D02*
X0094773Y0089654D01*
X0094773Y0084300D01*
X0092567Y0084300D01*
X0092567Y0085244D02*
X0094773Y0085244D01*
X0094773Y0086188D02*
X0092567Y0086188D01*
X0092567Y0087132D02*
X0094773Y0087132D01*
X0094773Y0088076D02*
X0092567Y0088076D01*
X0092567Y0089020D02*
X0094773Y0089020D01*
X0136741Y0146858D02*
X0139339Y0146858D01*
X0136741Y0146858D02*
X0136741Y0149064D01*
X0139339Y0149064D01*
X0139339Y0146858D01*
X0139339Y0147802D02*
X0136741Y0147802D01*
X0136741Y0148746D02*
X0139339Y0148746D01*
X0139339Y0158276D02*
X0136741Y0158276D01*
X0136741Y0160482D01*
X0139339Y0160482D01*
X0139339Y0158276D01*
X0139339Y0159220D02*
X0136741Y0159220D01*
X0136741Y0160164D02*
X0139339Y0160164D01*
X0158001Y0158276D02*
X0160599Y0158276D01*
X0158001Y0158276D02*
X0158001Y0160482D01*
X0160599Y0160482D01*
X0160599Y0158276D01*
X0160599Y0159220D02*
X0158001Y0159220D01*
X0158001Y0160164D02*
X0160599Y0160164D01*
X0160599Y0146858D02*
X0158001Y0146858D01*
X0158001Y0149064D01*
X0160599Y0149064D01*
X0160599Y0146858D01*
X0160599Y0147802D02*
X0158001Y0147802D01*
X0158001Y0148746D02*
X0160599Y0148746D01*
D15*
X0129005Y0149320D02*
X0129005Y0146012D01*
X0123335Y0146012D01*
X0123335Y0149320D01*
X0129005Y0149320D01*
X0129005Y0147428D02*
X0123335Y0147428D01*
X0123335Y0148844D02*
X0129005Y0148844D01*
X0129005Y0136328D02*
X0129005Y0133020D01*
X0123335Y0133020D01*
X0123335Y0136328D01*
X0129005Y0136328D01*
X0129005Y0134436D02*
X0123335Y0134436D01*
X0123335Y0135852D02*
X0129005Y0135852D01*
X0216190Y0085324D02*
X0216190Y0082016D01*
X0212882Y0082016D01*
X0212882Y0085324D01*
X0216190Y0085324D01*
X0216190Y0083432D02*
X0212882Y0083432D01*
X0212882Y0084848D02*
X0216190Y0084848D01*
X0224458Y0085324D02*
X0224458Y0082016D01*
X0221150Y0082016D01*
X0221150Y0085324D01*
X0224458Y0085324D01*
X0224458Y0083432D02*
X0221150Y0083432D01*
X0221150Y0084848D02*
X0224458Y0084848D01*
X0224458Y0075324D02*
X0224458Y0072016D01*
X0221150Y0072016D01*
X0221150Y0075324D01*
X0224458Y0075324D01*
X0224458Y0073432D02*
X0221150Y0073432D01*
X0221150Y0074848D02*
X0224458Y0074848D01*
X0216190Y0075324D02*
X0216190Y0072016D01*
X0212882Y0072016D01*
X0212882Y0075324D01*
X0216190Y0075324D01*
X0216190Y0073432D02*
X0212882Y0073432D01*
X0212882Y0074848D02*
X0216190Y0074848D01*
D16*
X0213151Y0129971D02*
X0207261Y0129971D01*
X0213151Y0129971D02*
X0213151Y0124869D01*
X0207261Y0124869D01*
X0207261Y0129971D01*
X0207261Y0126852D02*
X0213151Y0126852D01*
X0213151Y0128835D02*
X0207261Y0128835D01*
X0196615Y0129971D02*
X0190725Y0129971D01*
X0196615Y0129971D02*
X0196615Y0124869D01*
X0190725Y0124869D01*
X0190725Y0129971D01*
X0190725Y0126852D02*
X0196615Y0126852D01*
X0196615Y0128835D02*
X0190725Y0128835D01*
X0190725Y0149971D02*
X0196615Y0149971D01*
X0196615Y0144869D01*
X0190725Y0144869D01*
X0190725Y0149971D01*
X0190725Y0146852D02*
X0196615Y0146852D01*
X0196615Y0148835D02*
X0190725Y0148835D01*
X0190725Y0163721D02*
X0196615Y0163721D01*
X0196615Y0158619D01*
X0190725Y0158619D01*
X0190725Y0163721D01*
X0190725Y0160602D02*
X0196615Y0160602D01*
X0196615Y0162585D02*
X0190725Y0162585D01*
X0190725Y0183721D02*
X0196615Y0183721D01*
X0196615Y0178619D01*
X0190725Y0178619D01*
X0190725Y0183721D01*
X0190725Y0180602D02*
X0196615Y0180602D01*
X0196615Y0182585D02*
X0190725Y0182585D01*
X0207261Y0183721D02*
X0213151Y0183721D01*
X0213151Y0178619D01*
X0207261Y0178619D01*
X0207261Y0183721D01*
X0207261Y0180602D02*
X0213151Y0180602D01*
X0213151Y0182585D02*
X0207261Y0182585D01*
X0207261Y0163721D02*
X0213151Y0163721D01*
X0213151Y0158619D01*
X0207261Y0158619D01*
X0207261Y0163721D01*
X0207261Y0160602D02*
X0213151Y0160602D01*
X0213151Y0162585D02*
X0207261Y0162585D01*
X0207261Y0149971D02*
X0213151Y0149971D01*
X0213151Y0144869D01*
X0207261Y0144869D01*
X0207261Y0149971D01*
X0207261Y0146852D02*
X0213151Y0146852D01*
X0213151Y0148835D02*
X0207261Y0148835D01*
D17*
X0154753Y0146799D02*
X0152823Y0146799D01*
X0152823Y0149123D01*
X0154753Y0149123D01*
X0154753Y0146799D01*
X0154753Y0147625D02*
X0152823Y0147625D01*
X0152823Y0148451D02*
X0154753Y0148451D01*
X0149635Y0146799D02*
X0147705Y0146799D01*
X0147705Y0149123D01*
X0149635Y0149123D01*
X0149635Y0146799D01*
X0149635Y0147625D02*
X0147705Y0147625D01*
X0147705Y0148451D02*
X0149635Y0148451D01*
X0144517Y0146799D02*
X0142587Y0146799D01*
X0142587Y0149123D01*
X0144517Y0149123D01*
X0144517Y0146799D01*
X0144517Y0147625D02*
X0142587Y0147625D01*
X0142587Y0148451D02*
X0144517Y0148451D01*
X0144517Y0158217D02*
X0142587Y0158217D01*
X0142587Y0160541D01*
X0144517Y0160541D01*
X0144517Y0158217D01*
X0144517Y0159043D02*
X0142587Y0159043D01*
X0142587Y0159869D02*
X0144517Y0159869D01*
X0147705Y0158217D02*
X0149635Y0158217D01*
X0147705Y0158217D02*
X0147705Y0160541D01*
X0149635Y0160541D01*
X0149635Y0158217D01*
X0149635Y0159043D02*
X0147705Y0159043D01*
X0147705Y0159869D02*
X0149635Y0159869D01*
X0152823Y0158217D02*
X0154753Y0158217D01*
X0152823Y0158217D02*
X0152823Y0160541D01*
X0154753Y0160541D01*
X0154753Y0158217D01*
X0154753Y0159043D02*
X0152823Y0159043D01*
X0152823Y0159869D02*
X0154753Y0159869D01*
D18*
X0191643Y0194427D02*
X0199457Y0194427D01*
X0199457Y0192913D01*
X0191643Y0192913D01*
X0191643Y0194427D01*
X0191643Y0193562D02*
X0199457Y0193562D01*
X0199457Y0194211D02*
X0191643Y0194211D01*
X0191643Y0199427D02*
X0199457Y0199427D01*
X0199457Y0197913D01*
X0191643Y0197913D01*
X0191643Y0199427D01*
X0191643Y0198562D02*
X0199457Y0198562D01*
X0199457Y0199211D02*
X0191643Y0199211D01*
X0191643Y0204427D02*
X0199457Y0204427D01*
X0199457Y0202913D01*
X0191643Y0202913D01*
X0191643Y0204427D01*
X0191643Y0203562D02*
X0199457Y0203562D01*
X0199457Y0204211D02*
X0191643Y0204211D01*
X0191643Y0209427D02*
X0199457Y0209427D01*
X0199457Y0207913D01*
X0191643Y0207913D01*
X0191643Y0209427D01*
X0191643Y0208562D02*
X0199457Y0208562D01*
X0199457Y0209211D02*
X0191643Y0209211D01*
X0191643Y0214427D02*
X0199457Y0214427D01*
X0199457Y0212913D01*
X0191643Y0212913D01*
X0191643Y0214427D01*
X0191643Y0213562D02*
X0199457Y0213562D01*
X0199457Y0214211D02*
X0191643Y0214211D01*
D19*
X0176443Y0209760D02*
X0176443Y0197580D01*
X0169775Y0197580D01*
X0169775Y0209760D01*
X0176443Y0209760D01*
X0176443Y0199571D02*
X0169775Y0199571D01*
X0169775Y0201562D02*
X0176443Y0201562D01*
X0176443Y0203553D02*
X0169775Y0203553D01*
X0169775Y0205544D02*
X0176443Y0205544D01*
X0176443Y0207535D02*
X0169775Y0207535D01*
X0169775Y0209526D02*
X0176443Y0209526D01*
D20*
X0204448Y0200619D02*
X0208582Y0200619D01*
X0204448Y0200619D02*
X0204448Y0206721D01*
X0208582Y0206721D01*
X0208582Y0200619D01*
X0208582Y0202390D02*
X0204448Y0202390D01*
X0204448Y0204161D02*
X0208582Y0204161D01*
X0208582Y0205932D02*
X0204448Y0205932D01*
X0204448Y0190619D02*
X0208582Y0190619D01*
X0204448Y0190619D02*
X0204448Y0196721D01*
X0208582Y0196721D01*
X0208582Y0190619D01*
X0208582Y0192390D02*
X0204448Y0192390D01*
X0204448Y0194161D02*
X0208582Y0194161D01*
X0208582Y0195932D02*
X0204448Y0195932D01*
X0216259Y0190619D02*
X0220393Y0190619D01*
X0216259Y0190619D02*
X0216259Y0196721D01*
X0220393Y0196721D01*
X0220393Y0190619D01*
X0220393Y0192390D02*
X0216259Y0192390D01*
X0216259Y0194161D02*
X0220393Y0194161D01*
X0220393Y0195932D02*
X0216259Y0195932D01*
X0216259Y0200619D02*
X0220393Y0200619D01*
X0216259Y0200619D02*
X0216259Y0206721D01*
X0220393Y0206721D01*
X0220393Y0200619D01*
X0220393Y0202390D02*
X0216259Y0202390D01*
X0216259Y0204161D02*
X0220393Y0204161D01*
X0220393Y0205932D02*
X0216259Y0205932D01*
D21*
X0217460Y0128280D02*
X0217460Y0125060D01*
X0217460Y0128280D02*
X0222380Y0128280D01*
X0222380Y0125060D01*
X0217460Y0125060D01*
X0217460Y0126439D02*
X0222380Y0126439D01*
X0222380Y0127818D02*
X0217460Y0127818D01*
X0217460Y0122280D02*
X0217460Y0119060D01*
X0217460Y0122280D02*
X0222380Y0122280D01*
X0222380Y0119060D01*
X0217460Y0119060D01*
X0217460Y0120439D02*
X0222380Y0120439D01*
X0222380Y0121818D02*
X0217460Y0121818D01*
X0168710Y0060780D02*
X0168710Y0057560D01*
X0168710Y0060780D02*
X0173630Y0060780D01*
X0173630Y0057560D01*
X0168710Y0057560D01*
X0168710Y0058939D02*
X0173630Y0058939D01*
X0173630Y0060318D02*
X0168710Y0060318D01*
X0168710Y0054780D02*
X0168710Y0051560D01*
X0168710Y0054780D02*
X0173630Y0054780D01*
X0173630Y0051560D01*
X0168710Y0051560D01*
X0168710Y0052939D02*
X0173630Y0052939D01*
X0173630Y0054318D02*
X0168710Y0054318D01*
M02*
