G75*
%MOIN*%
%OFA0B0*%
%FSLAX25Y25*%
%IPPOS*%
%LPD*%
%AMOC8*
5,1,8,0,0,1.08239X$1,22.5*
%
%ADD10C,0.00000*%
%ADD11C,0.00800*%
%ADD12OC8,0.06000*%
%ADD13C,0.05600*%
%ADD14C,0.05500*%
%ADD15OC8,0.08500*%
%ADD16C,0.01600*%
%ADD17C,0.03562*%
%ADD18C,0.01200*%
%ADD19C,0.23622*%
%ADD20C,0.02400*%
D10*
X0001800Y0001800D02*
X0001800Y0238020D01*
X0277391Y0238020D01*
X0277391Y0001800D01*
X0001800Y0001800D01*
X0052270Y0206170D02*
X0052272Y0206330D01*
X0052278Y0206489D01*
X0052288Y0206648D01*
X0052302Y0206807D01*
X0052320Y0206966D01*
X0052341Y0207124D01*
X0052367Y0207281D01*
X0052397Y0207438D01*
X0052430Y0207594D01*
X0052468Y0207749D01*
X0052509Y0207903D01*
X0052554Y0208056D01*
X0052603Y0208208D01*
X0052656Y0208359D01*
X0052712Y0208508D01*
X0052773Y0208656D01*
X0052836Y0208802D01*
X0052904Y0208947D01*
X0052975Y0209090D01*
X0053049Y0209231D01*
X0053127Y0209370D01*
X0053209Y0209507D01*
X0053294Y0209642D01*
X0053382Y0209775D01*
X0053474Y0209906D01*
X0053568Y0210034D01*
X0053666Y0210160D01*
X0053767Y0210284D01*
X0053871Y0210405D01*
X0053978Y0210523D01*
X0054088Y0210639D01*
X0054201Y0210752D01*
X0054317Y0210862D01*
X0054435Y0210969D01*
X0054556Y0211073D01*
X0054680Y0211174D01*
X0054806Y0211272D01*
X0054934Y0211366D01*
X0055065Y0211458D01*
X0055198Y0211546D01*
X0055333Y0211631D01*
X0055470Y0211713D01*
X0055609Y0211791D01*
X0055750Y0211865D01*
X0055893Y0211936D01*
X0056038Y0212004D01*
X0056184Y0212067D01*
X0056332Y0212128D01*
X0056481Y0212184D01*
X0056632Y0212237D01*
X0056784Y0212286D01*
X0056937Y0212331D01*
X0057091Y0212372D01*
X0057246Y0212410D01*
X0057402Y0212443D01*
X0057559Y0212473D01*
X0057716Y0212499D01*
X0057874Y0212520D01*
X0058033Y0212538D01*
X0058192Y0212552D01*
X0058351Y0212562D01*
X0058510Y0212568D01*
X0058670Y0212570D01*
X0058830Y0212568D01*
X0058989Y0212562D01*
X0059148Y0212552D01*
X0059307Y0212538D01*
X0059466Y0212520D01*
X0059624Y0212499D01*
X0059781Y0212473D01*
X0059938Y0212443D01*
X0060094Y0212410D01*
X0060249Y0212372D01*
X0060403Y0212331D01*
X0060556Y0212286D01*
X0060708Y0212237D01*
X0060859Y0212184D01*
X0061008Y0212128D01*
X0061156Y0212067D01*
X0061302Y0212004D01*
X0061447Y0211936D01*
X0061590Y0211865D01*
X0061731Y0211791D01*
X0061870Y0211713D01*
X0062007Y0211631D01*
X0062142Y0211546D01*
X0062275Y0211458D01*
X0062406Y0211366D01*
X0062534Y0211272D01*
X0062660Y0211174D01*
X0062784Y0211073D01*
X0062905Y0210969D01*
X0063023Y0210862D01*
X0063139Y0210752D01*
X0063252Y0210639D01*
X0063362Y0210523D01*
X0063469Y0210405D01*
X0063573Y0210284D01*
X0063674Y0210160D01*
X0063772Y0210034D01*
X0063866Y0209906D01*
X0063958Y0209775D01*
X0064046Y0209642D01*
X0064131Y0209507D01*
X0064213Y0209370D01*
X0064291Y0209231D01*
X0064365Y0209090D01*
X0064436Y0208947D01*
X0064504Y0208802D01*
X0064567Y0208656D01*
X0064628Y0208508D01*
X0064684Y0208359D01*
X0064737Y0208208D01*
X0064786Y0208056D01*
X0064831Y0207903D01*
X0064872Y0207749D01*
X0064910Y0207594D01*
X0064943Y0207438D01*
X0064973Y0207281D01*
X0064999Y0207124D01*
X0065020Y0206966D01*
X0065038Y0206807D01*
X0065052Y0206648D01*
X0065062Y0206489D01*
X0065068Y0206330D01*
X0065070Y0206170D01*
X0065068Y0206010D01*
X0065062Y0205851D01*
X0065052Y0205692D01*
X0065038Y0205533D01*
X0065020Y0205374D01*
X0064999Y0205216D01*
X0064973Y0205059D01*
X0064943Y0204902D01*
X0064910Y0204746D01*
X0064872Y0204591D01*
X0064831Y0204437D01*
X0064786Y0204284D01*
X0064737Y0204132D01*
X0064684Y0203981D01*
X0064628Y0203832D01*
X0064567Y0203684D01*
X0064504Y0203538D01*
X0064436Y0203393D01*
X0064365Y0203250D01*
X0064291Y0203109D01*
X0064213Y0202970D01*
X0064131Y0202833D01*
X0064046Y0202698D01*
X0063958Y0202565D01*
X0063866Y0202434D01*
X0063772Y0202306D01*
X0063674Y0202180D01*
X0063573Y0202056D01*
X0063469Y0201935D01*
X0063362Y0201817D01*
X0063252Y0201701D01*
X0063139Y0201588D01*
X0063023Y0201478D01*
X0062905Y0201371D01*
X0062784Y0201267D01*
X0062660Y0201166D01*
X0062534Y0201068D01*
X0062406Y0200974D01*
X0062275Y0200882D01*
X0062142Y0200794D01*
X0062007Y0200709D01*
X0061870Y0200627D01*
X0061731Y0200549D01*
X0061590Y0200475D01*
X0061447Y0200404D01*
X0061302Y0200336D01*
X0061156Y0200273D01*
X0061008Y0200212D01*
X0060859Y0200156D01*
X0060708Y0200103D01*
X0060556Y0200054D01*
X0060403Y0200009D01*
X0060249Y0199968D01*
X0060094Y0199930D01*
X0059938Y0199897D01*
X0059781Y0199867D01*
X0059624Y0199841D01*
X0059466Y0199820D01*
X0059307Y0199802D01*
X0059148Y0199788D01*
X0058989Y0199778D01*
X0058830Y0199772D01*
X0058670Y0199770D01*
X0058510Y0199772D01*
X0058351Y0199778D01*
X0058192Y0199788D01*
X0058033Y0199802D01*
X0057874Y0199820D01*
X0057716Y0199841D01*
X0057559Y0199867D01*
X0057402Y0199897D01*
X0057246Y0199930D01*
X0057091Y0199968D01*
X0056937Y0200009D01*
X0056784Y0200054D01*
X0056632Y0200103D01*
X0056481Y0200156D01*
X0056332Y0200212D01*
X0056184Y0200273D01*
X0056038Y0200336D01*
X0055893Y0200404D01*
X0055750Y0200475D01*
X0055609Y0200549D01*
X0055470Y0200627D01*
X0055333Y0200709D01*
X0055198Y0200794D01*
X0055065Y0200882D01*
X0054934Y0200974D01*
X0054806Y0201068D01*
X0054680Y0201166D01*
X0054556Y0201267D01*
X0054435Y0201371D01*
X0054317Y0201478D01*
X0054201Y0201588D01*
X0054088Y0201701D01*
X0053978Y0201817D01*
X0053871Y0201935D01*
X0053767Y0202056D01*
X0053666Y0202180D01*
X0053568Y0202306D01*
X0053474Y0202434D01*
X0053382Y0202565D01*
X0053294Y0202698D01*
X0053209Y0202833D01*
X0053127Y0202970D01*
X0053049Y0203109D01*
X0052975Y0203250D01*
X0052904Y0203393D01*
X0052836Y0203538D01*
X0052773Y0203684D01*
X0052712Y0203832D01*
X0052656Y0203981D01*
X0052603Y0204132D01*
X0052554Y0204284D01*
X0052509Y0204437D01*
X0052468Y0204591D01*
X0052430Y0204746D01*
X0052397Y0204902D01*
X0052367Y0205059D01*
X0052341Y0205216D01*
X0052320Y0205374D01*
X0052302Y0205533D01*
X0052288Y0205692D01*
X0052278Y0205851D01*
X0052272Y0206010D01*
X0052270Y0206170D01*
X0152270Y0206170D02*
X0152272Y0206330D01*
X0152278Y0206489D01*
X0152288Y0206648D01*
X0152302Y0206807D01*
X0152320Y0206966D01*
X0152341Y0207124D01*
X0152367Y0207281D01*
X0152397Y0207438D01*
X0152430Y0207594D01*
X0152468Y0207749D01*
X0152509Y0207903D01*
X0152554Y0208056D01*
X0152603Y0208208D01*
X0152656Y0208359D01*
X0152712Y0208508D01*
X0152773Y0208656D01*
X0152836Y0208802D01*
X0152904Y0208947D01*
X0152975Y0209090D01*
X0153049Y0209231D01*
X0153127Y0209370D01*
X0153209Y0209507D01*
X0153294Y0209642D01*
X0153382Y0209775D01*
X0153474Y0209906D01*
X0153568Y0210034D01*
X0153666Y0210160D01*
X0153767Y0210284D01*
X0153871Y0210405D01*
X0153978Y0210523D01*
X0154088Y0210639D01*
X0154201Y0210752D01*
X0154317Y0210862D01*
X0154435Y0210969D01*
X0154556Y0211073D01*
X0154680Y0211174D01*
X0154806Y0211272D01*
X0154934Y0211366D01*
X0155065Y0211458D01*
X0155198Y0211546D01*
X0155333Y0211631D01*
X0155470Y0211713D01*
X0155609Y0211791D01*
X0155750Y0211865D01*
X0155893Y0211936D01*
X0156038Y0212004D01*
X0156184Y0212067D01*
X0156332Y0212128D01*
X0156481Y0212184D01*
X0156632Y0212237D01*
X0156784Y0212286D01*
X0156937Y0212331D01*
X0157091Y0212372D01*
X0157246Y0212410D01*
X0157402Y0212443D01*
X0157559Y0212473D01*
X0157716Y0212499D01*
X0157874Y0212520D01*
X0158033Y0212538D01*
X0158192Y0212552D01*
X0158351Y0212562D01*
X0158510Y0212568D01*
X0158670Y0212570D01*
X0158830Y0212568D01*
X0158989Y0212562D01*
X0159148Y0212552D01*
X0159307Y0212538D01*
X0159466Y0212520D01*
X0159624Y0212499D01*
X0159781Y0212473D01*
X0159938Y0212443D01*
X0160094Y0212410D01*
X0160249Y0212372D01*
X0160403Y0212331D01*
X0160556Y0212286D01*
X0160708Y0212237D01*
X0160859Y0212184D01*
X0161008Y0212128D01*
X0161156Y0212067D01*
X0161302Y0212004D01*
X0161447Y0211936D01*
X0161590Y0211865D01*
X0161731Y0211791D01*
X0161870Y0211713D01*
X0162007Y0211631D01*
X0162142Y0211546D01*
X0162275Y0211458D01*
X0162406Y0211366D01*
X0162534Y0211272D01*
X0162660Y0211174D01*
X0162784Y0211073D01*
X0162905Y0210969D01*
X0163023Y0210862D01*
X0163139Y0210752D01*
X0163252Y0210639D01*
X0163362Y0210523D01*
X0163469Y0210405D01*
X0163573Y0210284D01*
X0163674Y0210160D01*
X0163772Y0210034D01*
X0163866Y0209906D01*
X0163958Y0209775D01*
X0164046Y0209642D01*
X0164131Y0209507D01*
X0164213Y0209370D01*
X0164291Y0209231D01*
X0164365Y0209090D01*
X0164436Y0208947D01*
X0164504Y0208802D01*
X0164567Y0208656D01*
X0164628Y0208508D01*
X0164684Y0208359D01*
X0164737Y0208208D01*
X0164786Y0208056D01*
X0164831Y0207903D01*
X0164872Y0207749D01*
X0164910Y0207594D01*
X0164943Y0207438D01*
X0164973Y0207281D01*
X0164999Y0207124D01*
X0165020Y0206966D01*
X0165038Y0206807D01*
X0165052Y0206648D01*
X0165062Y0206489D01*
X0165068Y0206330D01*
X0165070Y0206170D01*
X0165068Y0206010D01*
X0165062Y0205851D01*
X0165052Y0205692D01*
X0165038Y0205533D01*
X0165020Y0205374D01*
X0164999Y0205216D01*
X0164973Y0205059D01*
X0164943Y0204902D01*
X0164910Y0204746D01*
X0164872Y0204591D01*
X0164831Y0204437D01*
X0164786Y0204284D01*
X0164737Y0204132D01*
X0164684Y0203981D01*
X0164628Y0203832D01*
X0164567Y0203684D01*
X0164504Y0203538D01*
X0164436Y0203393D01*
X0164365Y0203250D01*
X0164291Y0203109D01*
X0164213Y0202970D01*
X0164131Y0202833D01*
X0164046Y0202698D01*
X0163958Y0202565D01*
X0163866Y0202434D01*
X0163772Y0202306D01*
X0163674Y0202180D01*
X0163573Y0202056D01*
X0163469Y0201935D01*
X0163362Y0201817D01*
X0163252Y0201701D01*
X0163139Y0201588D01*
X0163023Y0201478D01*
X0162905Y0201371D01*
X0162784Y0201267D01*
X0162660Y0201166D01*
X0162534Y0201068D01*
X0162406Y0200974D01*
X0162275Y0200882D01*
X0162142Y0200794D01*
X0162007Y0200709D01*
X0161870Y0200627D01*
X0161731Y0200549D01*
X0161590Y0200475D01*
X0161447Y0200404D01*
X0161302Y0200336D01*
X0161156Y0200273D01*
X0161008Y0200212D01*
X0160859Y0200156D01*
X0160708Y0200103D01*
X0160556Y0200054D01*
X0160403Y0200009D01*
X0160249Y0199968D01*
X0160094Y0199930D01*
X0159938Y0199897D01*
X0159781Y0199867D01*
X0159624Y0199841D01*
X0159466Y0199820D01*
X0159307Y0199802D01*
X0159148Y0199788D01*
X0158989Y0199778D01*
X0158830Y0199772D01*
X0158670Y0199770D01*
X0158510Y0199772D01*
X0158351Y0199778D01*
X0158192Y0199788D01*
X0158033Y0199802D01*
X0157874Y0199820D01*
X0157716Y0199841D01*
X0157559Y0199867D01*
X0157402Y0199897D01*
X0157246Y0199930D01*
X0157091Y0199968D01*
X0156937Y0200009D01*
X0156784Y0200054D01*
X0156632Y0200103D01*
X0156481Y0200156D01*
X0156332Y0200212D01*
X0156184Y0200273D01*
X0156038Y0200336D01*
X0155893Y0200404D01*
X0155750Y0200475D01*
X0155609Y0200549D01*
X0155470Y0200627D01*
X0155333Y0200709D01*
X0155198Y0200794D01*
X0155065Y0200882D01*
X0154934Y0200974D01*
X0154806Y0201068D01*
X0154680Y0201166D01*
X0154556Y0201267D01*
X0154435Y0201371D01*
X0154317Y0201478D01*
X0154201Y0201588D01*
X0154088Y0201701D01*
X0153978Y0201817D01*
X0153871Y0201935D01*
X0153767Y0202056D01*
X0153666Y0202180D01*
X0153568Y0202306D01*
X0153474Y0202434D01*
X0153382Y0202565D01*
X0153294Y0202698D01*
X0153209Y0202833D01*
X0153127Y0202970D01*
X0153049Y0203109D01*
X0152975Y0203250D01*
X0152904Y0203393D01*
X0152836Y0203538D01*
X0152773Y0203684D01*
X0152712Y0203832D01*
X0152656Y0203981D01*
X0152603Y0204132D01*
X0152554Y0204284D01*
X0152509Y0204437D01*
X0152468Y0204591D01*
X0152430Y0204746D01*
X0152397Y0204902D01*
X0152367Y0205059D01*
X0152341Y0205216D01*
X0152320Y0205374D01*
X0152302Y0205533D01*
X0152288Y0205692D01*
X0152278Y0205851D01*
X0152272Y0206010D01*
X0152270Y0206170D01*
D11*
X0176160Y0221570D02*
X0179362Y0221570D01*
X0176160Y0224773D01*
X0176160Y0225573D01*
X0176960Y0226374D01*
X0178562Y0226374D01*
X0179362Y0225573D01*
X0181316Y0224773D02*
X0182918Y0221570D01*
X0184519Y0224773D01*
X0186473Y0230320D02*
X0186473Y0232722D01*
X0187273Y0233523D01*
X0188074Y0232722D01*
X0188074Y0230320D01*
X0189675Y0230320D02*
X0189675Y0233523D01*
X0188875Y0233523D01*
X0188074Y0232722D01*
X0191629Y0232722D02*
X0191629Y0231121D01*
X0192430Y0230320D01*
X0194031Y0230320D01*
X0194832Y0231121D01*
X0194832Y0232722D01*
X0194031Y0233523D01*
X0192430Y0233523D01*
X0191629Y0232722D01*
X0196785Y0233523D02*
X0199187Y0233523D01*
X0199988Y0232722D01*
X0199988Y0231121D01*
X0199187Y0230320D01*
X0196785Y0230320D01*
X0196785Y0226374D02*
X0196785Y0223171D01*
X0198387Y0221570D01*
X0199988Y0223171D01*
X0199988Y0226374D01*
X0201942Y0225573D02*
X0202742Y0226374D01*
X0204344Y0226374D01*
X0205144Y0225573D01*
X0205144Y0222371D01*
X0204344Y0221570D01*
X0202742Y0221570D01*
X0201942Y0222371D01*
X0207098Y0221570D02*
X0210301Y0226374D01*
X0207098Y0226374D02*
X0210301Y0221570D01*
X0217411Y0221570D02*
X0220614Y0221570D01*
X0219012Y0221570D02*
X0219012Y0226374D01*
X0220614Y0224773D01*
X0222567Y0226374D02*
X0225770Y0226374D01*
X0225770Y0221570D01*
X0222567Y0221570D01*
X0224169Y0223972D02*
X0225770Y0223972D01*
X0225770Y0230320D02*
X0223368Y0230320D01*
X0222567Y0231121D01*
X0223368Y0231921D01*
X0224969Y0231921D01*
X0225770Y0232722D01*
X0224969Y0233523D01*
X0222567Y0233523D01*
X0220614Y0233523D02*
X0220614Y0231121D01*
X0219813Y0230320D01*
X0217411Y0230320D01*
X0217411Y0229519D02*
X0218212Y0228719D01*
X0219012Y0228719D01*
X0217411Y0229519D02*
X0217411Y0233523D01*
X0215457Y0232722D02*
X0214657Y0233523D01*
X0212255Y0233523D01*
X0213055Y0231921D02*
X0214657Y0231921D01*
X0215457Y0232722D01*
X0215457Y0230320D02*
X0213055Y0230320D01*
X0212255Y0231121D01*
X0213055Y0231921D01*
X0210301Y0230320D02*
X0210301Y0233523D01*
X0209500Y0233523D01*
X0208700Y0232722D01*
X0207899Y0233523D01*
X0207098Y0232722D01*
X0207098Y0230320D01*
X0208700Y0230320D02*
X0208700Y0232722D01*
X0205144Y0232722D02*
X0205144Y0231121D01*
X0204344Y0230320D01*
X0202742Y0230320D01*
X0201942Y0231121D01*
X0201942Y0232722D01*
X0202742Y0233523D01*
X0204344Y0233523D01*
X0205144Y0232722D01*
X0194832Y0226374D02*
X0194832Y0221570D01*
X0194832Y0223171D02*
X0192430Y0223171D01*
X0191629Y0223972D01*
X0191629Y0225573D01*
X0192430Y0226374D01*
X0194832Y0226374D01*
X0193230Y0223171D02*
X0191629Y0221570D01*
D12*
X0191170Y0061170D03*
X0191170Y0051170D03*
X0181170Y0051170D03*
X0181170Y0061170D03*
X0161170Y0061170D03*
X0151170Y0061170D03*
X0151170Y0051170D03*
X0161170Y0051170D03*
X0141170Y0051170D03*
X0131170Y0051170D03*
X0121170Y0051170D03*
X0121170Y0061170D03*
X0131170Y0061170D03*
X0141170Y0061170D03*
X0201170Y0061170D03*
X0211170Y0061170D03*
X0211170Y0051170D03*
X0201170Y0051170D03*
X0221170Y0051170D03*
X0221170Y0061170D03*
D13*
X0218370Y0101170D02*
X0223970Y0101170D01*
X0223970Y0111170D02*
X0218370Y0111170D01*
X0218370Y0139920D02*
X0223970Y0139920D01*
X0223970Y0149920D02*
X0218370Y0149920D01*
X0218370Y0159920D02*
X0223970Y0159920D01*
X0177720Y0081170D02*
X0172120Y0081170D01*
X0172120Y0071170D02*
X0177720Y0071170D01*
D14*
X0148670Y0171170D03*
X0138670Y0171170D03*
X0128670Y0171170D03*
X0118670Y0171170D03*
X0123670Y0181170D03*
X0133670Y0181170D03*
X0143670Y0181170D03*
X0153670Y0181170D03*
X0098670Y0181170D03*
X0088670Y0181170D03*
X0078670Y0181170D03*
X0068670Y0181170D03*
X0063670Y0171170D03*
X0073670Y0171170D03*
X0083670Y0171170D03*
X0093670Y0171170D03*
D15*
X0109920Y0126170D03*
X0109920Y0113670D03*
X0109920Y0101170D03*
X0109920Y0088670D03*
D16*
X0104920Y0083670D01*
X0101170Y0083670D01*
X0103552Y0081270D02*
X0103085Y0080804D01*
X0101843Y0080289D01*
X0100498Y0080289D01*
X0099255Y0080804D01*
X0098304Y0081755D01*
X0097789Y0082998D01*
X0097789Y0084343D01*
X0098304Y0085585D01*
X0099255Y0086536D01*
X0100498Y0087051D01*
X0101843Y0087051D01*
X0103085Y0086536D01*
X0103552Y0086070D01*
X0103926Y0086070D01*
X0104086Y0086231D01*
X0104070Y0086247D01*
X0104070Y0091093D01*
X0107497Y0094520D01*
X0112343Y0094520D01*
X0115770Y0091093D01*
X0115770Y0086247D01*
X0112343Y0082820D01*
X0107497Y0082820D01*
X0107481Y0082836D01*
X0106955Y0082311D01*
X0106280Y0081635D01*
X0105397Y0081270D01*
X0103552Y0081270D01*
X0106370Y0081726D02*
X0132364Y0081726D01*
X0133963Y0083324D02*
X0112847Y0083324D01*
X0114446Y0084923D02*
X0135561Y0084923D01*
X0136470Y0085831D02*
X0128970Y0078331D01*
X0128970Y0069402D01*
X0128085Y0070286D01*
X0126843Y0070801D01*
X0125498Y0070801D01*
X0124255Y0070286D01*
X0123304Y0069335D01*
X0122789Y0068093D01*
X0122789Y0067150D01*
X0121409Y0065770D01*
X0119265Y0065770D01*
X0116570Y0063075D01*
X0116570Y0059265D01*
X0119265Y0056570D01*
X0123075Y0056570D01*
X0125770Y0059265D01*
X0125770Y0063075D01*
X0125353Y0063492D01*
X0125900Y0064039D01*
X0126843Y0064039D01*
X0128022Y0064528D01*
X0126570Y0063075D01*
X0126570Y0059265D01*
X0129265Y0056570D01*
X0133075Y0056570D01*
X0133970Y0057465D01*
X0133970Y0055259D01*
X0135259Y0053970D01*
X0137465Y0053970D01*
X0136570Y0053075D01*
X0136570Y0049265D01*
X0139265Y0046570D01*
X0143075Y0046570D01*
X0144117Y0047612D01*
X0146470Y0045259D01*
X0147759Y0043970D01*
X0153331Y0043970D01*
X0157081Y0047720D01*
X0157598Y0048237D01*
X0159265Y0046570D01*
X0163075Y0046570D01*
X0165770Y0049265D01*
X0165770Y0052659D01*
X0168331Y0055220D01*
X0169620Y0056509D01*
X0169620Y0064838D01*
X0170286Y0065505D01*
X0170801Y0066748D01*
X0170801Y0066954D01*
X0171245Y0066770D01*
X0178595Y0066770D01*
X0180212Y0067440D01*
X0181450Y0068678D01*
X0182120Y0070295D01*
X0182120Y0072045D01*
X0181450Y0073662D01*
X0180212Y0074900D01*
X0178595Y0075570D01*
X0171245Y0075570D01*
X0169628Y0074900D01*
X0168390Y0073662D01*
X0168269Y0073370D01*
X0166509Y0073370D01*
X0165220Y0072081D01*
X0165220Y0070002D01*
X0164554Y0069335D01*
X0164039Y0068093D01*
X0164039Y0066748D01*
X0164554Y0065505D01*
X0165220Y0064838D01*
X0165220Y0063625D01*
X0163370Y0065475D01*
X0163370Y0070831D01*
X0154551Y0079650D01*
X0154551Y0080593D01*
X0154036Y0081835D01*
X0153085Y0082786D01*
X0151843Y0083301D01*
X0150498Y0083301D01*
X0149255Y0082786D01*
X0148304Y0081835D01*
X0148029Y0081172D01*
X0147081Y0082120D01*
X0143752Y0082120D01*
X0143085Y0082786D01*
X0141843Y0083301D01*
X0140498Y0083301D01*
X0139925Y0083064D01*
X0140870Y0084009D01*
X0140870Y0089039D01*
X0141843Y0089039D01*
X0143085Y0089554D01*
X0144036Y0090505D01*
X0144551Y0091748D01*
X0144551Y0093093D01*
X0144036Y0094335D01*
X0143085Y0095286D01*
X0141843Y0095801D01*
X0140498Y0095801D01*
X0139255Y0095286D01*
X0138588Y0094620D01*
X0137759Y0094620D01*
X0136470Y0093331D01*
X0136470Y0085831D01*
X0136470Y0086521D02*
X0115770Y0086521D01*
X0115770Y0088120D02*
X0136470Y0088120D01*
X0136470Y0089718D02*
X0115770Y0089718D01*
X0115547Y0091317D02*
X0136470Y0091317D01*
X0136470Y0092915D02*
X0113948Y0092915D01*
X0112350Y0094514D02*
X0137652Y0094514D01*
X0143858Y0094514D02*
X0149715Y0094514D01*
X0150289Y0093940D02*
X0150289Y0092998D01*
X0150804Y0091755D01*
X0151755Y0090804D01*
X0152998Y0090289D01*
X0154343Y0090289D01*
X0155585Y0090804D01*
X0156536Y0091755D01*
X0156811Y0092418D01*
X0158007Y0091222D01*
X0158304Y0090505D01*
X0158970Y0089838D01*
X0158970Y0080259D01*
X0160259Y0078970D01*
X0168269Y0078970D01*
X0168390Y0078678D01*
X0169628Y0077440D01*
X0171245Y0076770D01*
X0178595Y0076770D01*
X0180212Y0077440D01*
X0181450Y0078678D01*
X0182120Y0080295D01*
X0182120Y0082045D01*
X0181450Y0083662D01*
X0180212Y0084900D01*
X0178595Y0085570D01*
X0171245Y0085570D01*
X0169628Y0084900D01*
X0168390Y0083662D01*
X0168269Y0083370D01*
X0163370Y0083370D01*
X0163370Y0089838D01*
X0164036Y0090505D01*
X0164551Y0091748D01*
X0164551Y0093093D01*
X0164188Y0093970D01*
X0195220Y0093970D01*
X0195220Y0073370D01*
X0190259Y0073370D01*
X0188970Y0072081D01*
X0188970Y0065475D01*
X0186570Y0063075D01*
X0186570Y0059265D01*
X0189265Y0056570D01*
X0193075Y0056570D01*
X0195770Y0059265D01*
X0195770Y0063075D01*
X0193370Y0065475D01*
X0193370Y0068970D01*
X0198331Y0068970D01*
X0199620Y0070259D01*
X0199620Y0096470D01*
X0200220Y0096470D01*
X0200220Y0070259D01*
X0201509Y0068970D01*
X0208970Y0068970D01*
X0208970Y0065475D01*
X0206570Y0063075D01*
X0206570Y0059265D01*
X0209265Y0056570D01*
X0212673Y0056570D01*
X0212033Y0055770D01*
X0209265Y0055770D01*
X0206570Y0053075D01*
X0206570Y0049265D01*
X0209265Y0046570D01*
X0213075Y0046570D01*
X0214117Y0047612D01*
X0217720Y0044009D01*
X0219009Y0042720D01*
X0225831Y0042720D01*
X0229581Y0046470D01*
X0230870Y0047759D01*
X0230870Y0070831D01*
X0229620Y0072081D01*
X0228331Y0073370D01*
X0223370Y0073370D01*
X0223370Y0079581D01*
X0222081Y0080870D01*
X0212120Y0080870D01*
X0212120Y0108331D01*
X0210831Y0109620D01*
X0179336Y0109620D01*
X0177120Y0111097D01*
X0177120Y0112759D01*
X0179581Y0115220D01*
X0180870Y0116509D01*
X0180870Y0118588D01*
X0181536Y0119255D01*
X0182051Y0120498D01*
X0182051Y0121843D01*
X0181536Y0123085D01*
X0180585Y0124036D01*
X0179343Y0124551D01*
X0177998Y0124551D01*
X0176755Y0124036D01*
X0175804Y0123085D01*
X0175289Y0121843D01*
X0175289Y0120498D01*
X0175804Y0119255D01*
X0176470Y0118588D01*
X0176470Y0118331D01*
X0172720Y0114581D01*
X0172720Y0110586D01*
X0172584Y0110382D01*
X0172720Y0109702D01*
X0172720Y0109009D01*
X0172893Y0108835D01*
X0172942Y0108595D01*
X0173518Y0108210D01*
X0174009Y0107720D01*
X0174254Y0107720D01*
X0175154Y0107120D01*
X0168752Y0107120D01*
X0168085Y0107786D01*
X0166843Y0108301D01*
X0165498Y0108301D01*
X0164620Y0107938D01*
X0164620Y0109838D01*
X0165286Y0110505D01*
X0165801Y0111748D01*
X0165801Y0113093D01*
X0165286Y0114335D01*
X0164335Y0115286D01*
X0163093Y0115801D01*
X0161965Y0115801D01*
X0161536Y0116835D01*
X0160585Y0117786D01*
X0159922Y0118061D01*
X0163331Y0121470D01*
X0168331Y0121470D01*
X0185900Y0139039D01*
X0186843Y0139039D01*
X0188085Y0139554D01*
X0189036Y0140505D01*
X0189551Y0141748D01*
X0189551Y0143093D01*
X0189036Y0144335D01*
X0188085Y0145286D01*
X0186843Y0145801D01*
X0185498Y0145801D01*
X0184255Y0145286D01*
X0183304Y0144335D01*
X0182789Y0143093D01*
X0182789Y0142150D01*
X0166509Y0125870D01*
X0161509Y0125870D01*
X0161070Y0125431D01*
X0161070Y0136426D01*
X0182433Y0157789D01*
X0183093Y0157789D01*
X0184335Y0158304D01*
X0185286Y0159255D01*
X0185801Y0160498D01*
X0185801Y0161843D01*
X0185286Y0163085D01*
X0184820Y0163552D01*
X0184820Y0195570D01*
X0185498Y0195289D01*
X0186843Y0195289D01*
X0188085Y0195804D01*
X0189036Y0196755D01*
X0189551Y0197998D01*
X0189551Y0199343D01*
X0189036Y0200585D01*
X0188085Y0201536D01*
X0186843Y0202051D01*
X0185498Y0202051D01*
X0184255Y0201536D01*
X0183788Y0201070D01*
X0181943Y0201070D01*
X0181061Y0200705D01*
X0180385Y0200030D01*
X0180020Y0199147D01*
X0180020Y0163552D01*
X0179554Y0163085D01*
X0179039Y0161843D01*
X0179039Y0161183D01*
X0165870Y0148014D01*
X0165870Y0154581D01*
X0164581Y0155870D01*
X0154620Y0155870D01*
X0154620Y0162338D01*
X0155286Y0163005D01*
X0155801Y0164248D01*
X0155801Y0165593D01*
X0155286Y0166835D01*
X0154335Y0167786D01*
X0153093Y0168301D01*
X0151953Y0168301D01*
X0152358Y0168706D01*
X0152384Y0168770D01*
X0161647Y0168770D01*
X0162530Y0169135D01*
X0163205Y0169811D01*
X0163570Y0170693D01*
X0163570Y0191647D01*
X0163205Y0192530D01*
X0158205Y0197530D01*
X0157764Y0197970D01*
X0160301Y0197970D01*
X0163315Y0199218D01*
X0165622Y0201525D01*
X0166870Y0204539D01*
X0166870Y0207801D01*
X0165622Y0210815D01*
X0163315Y0213122D01*
X0160301Y0214370D01*
X0157039Y0214370D01*
X0154025Y0213122D01*
X0151718Y0210815D01*
X0150470Y0207801D01*
X0150470Y0204539D01*
X0151718Y0201525D01*
X0154025Y0199218D01*
X0155591Y0198570D01*
X0078193Y0198570D01*
X0077311Y0198205D01*
X0076635Y0197530D01*
X0076270Y0196647D01*
X0076270Y0184884D01*
X0076206Y0184858D01*
X0074982Y0183634D01*
X0074320Y0182035D01*
X0074320Y0180305D01*
X0074982Y0178706D01*
X0076206Y0177482D01*
X0077805Y0176820D01*
X0079535Y0176820D01*
X0081134Y0177482D01*
X0081270Y0177618D01*
X0081270Y0174884D01*
X0081206Y0174858D01*
X0079982Y0173634D01*
X0079320Y0172035D01*
X0079320Y0170305D01*
X0079982Y0168706D01*
X0081206Y0167482D01*
X0081270Y0167456D01*
X0081270Y0161052D01*
X0080804Y0160585D01*
X0080289Y0159343D01*
X0080289Y0157998D01*
X0080804Y0156755D01*
X0081755Y0155804D01*
X0082998Y0155289D01*
X0084343Y0155289D01*
X0085585Y0155804D01*
X0086536Y0156755D01*
X0087051Y0157998D01*
X0087051Y0159343D01*
X0086536Y0160585D01*
X0086070Y0161052D01*
X0086070Y0161488D01*
X0086755Y0160804D01*
X0087998Y0160289D01*
X0089343Y0160289D01*
X0090585Y0160804D01*
X0091536Y0161755D01*
X0092051Y0162998D01*
X0092051Y0164343D01*
X0092033Y0164387D01*
X0093655Y0166820D01*
X0094535Y0166820D01*
X0096134Y0167482D01*
X0097358Y0168706D01*
X0097384Y0168770D01*
X0109147Y0168770D01*
X0110030Y0169135D01*
X0110705Y0169811D01*
X0111070Y0170693D01*
X0111070Y0186270D01*
X0131270Y0186270D01*
X0131270Y0184884D01*
X0131206Y0184858D01*
X0129982Y0183634D01*
X0129320Y0182035D01*
X0129320Y0180305D01*
X0129982Y0178706D01*
X0131206Y0177482D01*
X0132805Y0176820D01*
X0134535Y0176820D01*
X0136134Y0177482D01*
X0136270Y0177618D01*
X0136270Y0174884D01*
X0136206Y0174858D01*
X0134982Y0173634D01*
X0134320Y0172035D01*
X0134320Y0170305D01*
X0134982Y0168706D01*
X0136206Y0167482D01*
X0137656Y0166882D01*
X0136777Y0166070D01*
X0104802Y0166070D01*
X0104335Y0166536D01*
X0103093Y0167051D01*
X0101748Y0167051D01*
X0100505Y0166536D01*
X0099554Y0165585D01*
X0099039Y0164343D01*
X0099039Y0162998D01*
X0099554Y0161755D01*
X0100505Y0160804D01*
X0101748Y0160289D01*
X0103093Y0160289D01*
X0104335Y0160804D01*
X0104802Y0161270D01*
X0137897Y0161270D01*
X0138780Y0161635D01*
X0139455Y0162311D01*
X0139618Y0162705D01*
X0140566Y0163580D01*
X0140804Y0163005D01*
X0141470Y0162338D01*
X0141470Y0126252D01*
X0140804Y0125585D01*
X0140289Y0124343D01*
X0140289Y0122998D01*
X0140804Y0121755D01*
X0141755Y0120804D01*
X0142998Y0120289D01*
X0144343Y0120289D01*
X0145585Y0120804D01*
X0146536Y0121755D01*
X0147051Y0122998D01*
X0147051Y0124343D01*
X0146536Y0125585D01*
X0145870Y0126252D01*
X0145870Y0162338D01*
X0146536Y0163005D01*
X0147051Y0164248D01*
X0147051Y0165593D01*
X0146536Y0166835D01*
X0145585Y0167786D01*
X0145266Y0167919D01*
X0145528Y0168160D01*
X0146206Y0167482D01*
X0147805Y0166820D01*
X0149535Y0166820D01*
X0149550Y0166826D01*
X0149039Y0165593D01*
X0149039Y0164248D01*
X0149554Y0163005D01*
X0150220Y0162338D01*
X0150220Y0152759D01*
X0151509Y0151470D01*
X0161470Y0151470D01*
X0161470Y0147081D01*
X0150220Y0135831D01*
X0150220Y0126252D01*
X0149554Y0125585D01*
X0149039Y0124343D01*
X0149039Y0122998D01*
X0149554Y0121755D01*
X0150505Y0120804D01*
X0151748Y0120289D01*
X0151895Y0120289D01*
X0150176Y0118570D01*
X0143354Y0118570D01*
X0129080Y0131654D01*
X0128780Y0131955D01*
X0128730Y0131975D01*
X0128690Y0132012D01*
X0128290Y0132157D01*
X0127897Y0132320D01*
X0127843Y0132320D01*
X0127793Y0132339D01*
X0127368Y0132320D01*
X0123552Y0132320D01*
X0123085Y0132786D01*
X0121843Y0133301D01*
X0120498Y0133301D01*
X0119255Y0132786D01*
X0118304Y0131835D01*
X0117789Y0130593D01*
X0117789Y0129933D01*
X0115770Y0127914D01*
X0115770Y0128593D01*
X0112343Y0132020D01*
X0107497Y0132020D01*
X0104070Y0128593D01*
X0104070Y0128570D01*
X0101943Y0128570D01*
X0101061Y0128205D01*
X0100385Y0127530D01*
X0100020Y0126647D01*
X0100020Y0118570D01*
X0049443Y0118570D01*
X0048561Y0118205D01*
X0047885Y0117530D01*
X0047520Y0116647D01*
X0047520Y0073193D01*
X0047885Y0072311D01*
X0048561Y0071635D01*
X0049443Y0071270D01*
X0064147Y0071270D01*
X0065030Y0071635D01*
X0065705Y0072311D01*
X0066070Y0073193D01*
X0066070Y0075038D01*
X0066536Y0075505D01*
X0067051Y0076748D01*
X0067051Y0077520D01*
X0067185Y0077520D01*
X0067423Y0077473D01*
X0067658Y0077520D01*
X0071288Y0077520D01*
X0071755Y0077054D01*
X0072998Y0076539D01*
X0074343Y0076539D01*
X0075585Y0077054D01*
X0075652Y0077121D01*
X0075804Y0076755D01*
X0076755Y0075804D01*
X0077998Y0075289D01*
X0079343Y0075289D01*
X0080585Y0075804D01*
X0081536Y0076755D01*
X0082051Y0077998D01*
X0082051Y0078657D01*
X0085914Y0082520D01*
X0094147Y0082520D01*
X0095030Y0082885D01*
X0095705Y0083561D01*
X0107481Y0095336D01*
X0107497Y0095320D01*
X0112343Y0095320D01*
X0115770Y0098747D01*
X0115770Y0103593D01*
X0114286Y0105077D01*
X0115030Y0105385D01*
X0118780Y0109135D01*
X0119455Y0109811D01*
X0119820Y0110693D01*
X0119820Y0125176D01*
X0121183Y0126539D01*
X0121843Y0126539D01*
X0123085Y0127054D01*
X0123552Y0127520D01*
X0126487Y0127520D01*
X0140220Y0114931D01*
X0140220Y0104009D01*
X0141509Y0102720D01*
X0150289Y0093940D01*
X0150323Y0092915D02*
X0144551Y0092915D01*
X0144373Y0091317D02*
X0151242Y0091317D01*
X0156098Y0091317D02*
X0157912Y0091317D01*
X0158970Y0089718D02*
X0143250Y0089718D01*
X0140870Y0088120D02*
X0158970Y0088120D01*
X0158970Y0086521D02*
X0140870Y0086521D01*
X0140870Y0084923D02*
X0158970Y0084923D01*
X0158970Y0083324D02*
X0140185Y0083324D01*
X0147476Y0081726D02*
X0148258Y0081726D01*
X0154082Y0081726D02*
X0158970Y0081726D01*
X0159102Y0080127D02*
X0154551Y0080127D01*
X0155673Y0078529D02*
X0168539Y0078529D01*
X0170859Y0076930D02*
X0157271Y0076930D01*
X0158870Y0075332D02*
X0170669Y0075332D01*
X0168460Y0073733D02*
X0160468Y0073733D01*
X0162067Y0072134D02*
X0165273Y0072134D01*
X0165220Y0070536D02*
X0163370Y0070536D01*
X0163370Y0068937D02*
X0164389Y0068937D01*
X0164039Y0067339D02*
X0163370Y0067339D01*
X0163370Y0065740D02*
X0164456Y0065740D01*
X0164704Y0064142D02*
X0165220Y0064142D01*
X0169620Y0064142D02*
X0177354Y0064142D01*
X0176370Y0063158D02*
X0176370Y0061370D01*
X0180970Y0061370D01*
X0180970Y0060970D01*
X0181370Y0060970D01*
X0181370Y0056370D01*
X0183158Y0056370D01*
X0185970Y0059182D01*
X0185970Y0060970D01*
X0181370Y0060970D01*
X0181370Y0061370D01*
X0185970Y0061370D01*
X0185970Y0063158D01*
X0183158Y0065970D01*
X0181370Y0065970D01*
X0181370Y0061370D01*
X0180970Y0061370D01*
X0180970Y0065970D01*
X0179182Y0065970D01*
X0176370Y0063158D01*
X0176370Y0062543D02*
X0169620Y0062543D01*
X0169620Y0060945D02*
X0176370Y0060945D01*
X0176370Y0060970D02*
X0176370Y0059182D01*
X0179182Y0056370D01*
X0180970Y0056370D01*
X0180970Y0060970D01*
X0176370Y0060970D01*
X0176370Y0059346D02*
X0169620Y0059346D01*
X0169620Y0057748D02*
X0177804Y0057748D01*
X0179265Y0055770D02*
X0176570Y0053075D01*
X0176570Y0049620D01*
X0173752Y0049620D01*
X0173085Y0050286D01*
X0171843Y0050801D01*
X0170498Y0050801D01*
X0169255Y0050286D01*
X0168304Y0049335D01*
X0167789Y0048093D01*
X0167789Y0046748D01*
X0168304Y0045505D01*
X0169255Y0044554D01*
X0170498Y0044039D01*
X0171843Y0044039D01*
X0173085Y0044554D01*
X0173752Y0045220D01*
X0182081Y0045220D01*
X0183370Y0046509D01*
X0183370Y0046865D01*
X0185770Y0049265D01*
X0185770Y0053075D01*
X0183075Y0055770D01*
X0179265Y0055770D01*
X0178045Y0054551D02*
X0167662Y0054551D01*
X0166064Y0052952D02*
X0176570Y0052952D01*
X0176570Y0051354D02*
X0165770Y0051354D01*
X0165770Y0049755D02*
X0168724Y0049755D01*
X0167816Y0048157D02*
X0164662Y0048157D01*
X0167867Y0046558D02*
X0155920Y0046558D01*
X0157518Y0048157D02*
X0157678Y0048157D01*
X0154321Y0044960D02*
X0168849Y0044960D01*
X0173491Y0044960D02*
X0216769Y0044960D01*
X0215171Y0046558D02*
X0183370Y0046558D01*
X0184662Y0048157D02*
X0187678Y0048157D01*
X0186570Y0049265D02*
X0189265Y0046570D01*
X0193075Y0046570D01*
X0195770Y0049265D01*
X0195770Y0053075D01*
X0193075Y0055770D01*
X0189265Y0055770D01*
X0186570Y0053075D01*
X0186570Y0049265D01*
X0186570Y0049755D02*
X0185770Y0049755D01*
X0185770Y0051354D02*
X0186570Y0051354D01*
X0186570Y0052952D02*
X0185770Y0052952D01*
X0184295Y0054551D02*
X0188045Y0054551D01*
X0188087Y0057748D02*
X0184536Y0057748D01*
X0185970Y0059346D02*
X0186570Y0059346D01*
X0186570Y0060945D02*
X0185970Y0060945D01*
X0185970Y0062543D02*
X0186570Y0062543D01*
X0187637Y0064142D02*
X0184986Y0064142D01*
X0183388Y0065740D02*
X0188970Y0065740D01*
X0188970Y0067339D02*
X0179969Y0067339D01*
X0180970Y0065740D02*
X0181370Y0065740D01*
X0181370Y0064142D02*
X0180970Y0064142D01*
X0180970Y0062543D02*
X0181370Y0062543D01*
X0181370Y0060945D02*
X0180970Y0060945D01*
X0180970Y0059346D02*
X0181370Y0059346D01*
X0181370Y0057748D02*
X0180970Y0057748D01*
X0178952Y0065740D02*
X0170384Y0065740D01*
X0181380Y0073733D02*
X0195220Y0073733D01*
X0195220Y0075332D02*
X0179171Y0075332D01*
X0178981Y0076930D02*
X0195220Y0076930D01*
X0195220Y0078529D02*
X0181301Y0078529D01*
X0182051Y0080127D02*
X0195220Y0080127D01*
X0195220Y0081726D02*
X0182120Y0081726D01*
X0181590Y0083324D02*
X0195220Y0083324D01*
X0195220Y0084923D02*
X0180158Y0084923D01*
X0169682Y0084923D02*
X0163370Y0084923D01*
X0163370Y0086521D02*
X0195220Y0086521D01*
X0195220Y0088120D02*
X0163370Y0088120D01*
X0163370Y0089718D02*
X0195220Y0089718D01*
X0195220Y0091317D02*
X0164373Y0091317D01*
X0164551Y0092915D02*
X0195220Y0092915D01*
X0199620Y0092915D02*
X0200220Y0092915D01*
X0200220Y0091317D02*
X0199620Y0091317D01*
X0199620Y0089718D02*
X0200220Y0089718D01*
X0200220Y0088120D02*
X0199620Y0088120D01*
X0199620Y0086521D02*
X0200220Y0086521D01*
X0200220Y0084923D02*
X0199620Y0084923D01*
X0199620Y0083324D02*
X0200220Y0083324D01*
X0200220Y0081726D02*
X0199620Y0081726D01*
X0199620Y0080127D02*
X0200220Y0080127D01*
X0200220Y0078529D02*
X0199620Y0078529D01*
X0199620Y0076930D02*
X0200220Y0076930D01*
X0200220Y0075332D02*
X0199620Y0075332D01*
X0199620Y0073733D02*
X0200220Y0073733D01*
X0200220Y0072134D02*
X0199620Y0072134D01*
X0199620Y0070536D02*
X0200220Y0070536D01*
X0199265Y0065770D02*
X0196570Y0063075D01*
X0196570Y0059265D01*
X0199265Y0056570D01*
X0203075Y0056570D01*
X0205770Y0059265D01*
X0205770Y0063075D01*
X0203075Y0065770D01*
X0199265Y0065770D01*
X0199235Y0065740D02*
X0193370Y0065740D01*
X0193370Y0067339D02*
X0208970Y0067339D01*
X0208970Y0068937D02*
X0193370Y0068937D01*
X0188970Y0068937D02*
X0181558Y0068937D01*
X0182120Y0070536D02*
X0188970Y0070536D01*
X0189023Y0072134D02*
X0182083Y0072134D01*
X0194704Y0064142D02*
X0197637Y0064142D01*
X0196570Y0062543D02*
X0195770Y0062543D01*
X0195770Y0060945D02*
X0196570Y0060945D01*
X0196570Y0059346D02*
X0195770Y0059346D01*
X0194253Y0057748D02*
X0198087Y0057748D01*
X0199265Y0055770D02*
X0196570Y0053075D01*
X0196570Y0049265D01*
X0199265Y0046570D01*
X0203075Y0046570D01*
X0205770Y0049265D01*
X0205770Y0053075D01*
X0203075Y0055770D01*
X0199265Y0055770D01*
X0198045Y0054551D02*
X0194295Y0054551D01*
X0195770Y0052952D02*
X0196570Y0052952D01*
X0196570Y0051354D02*
X0195770Y0051354D01*
X0195770Y0049755D02*
X0196570Y0049755D01*
X0197678Y0048157D02*
X0194662Y0048157D01*
X0204662Y0048157D02*
X0207678Y0048157D01*
X0206570Y0049755D02*
X0205770Y0049755D01*
X0205770Y0051354D02*
X0206570Y0051354D01*
X0206570Y0052952D02*
X0205770Y0052952D01*
X0204295Y0054551D02*
X0208045Y0054551D01*
X0208087Y0057748D02*
X0204253Y0057748D01*
X0205770Y0059346D02*
X0206570Y0059346D01*
X0206570Y0060945D02*
X0205770Y0060945D01*
X0205770Y0062543D02*
X0206570Y0062543D01*
X0207637Y0064142D02*
X0204704Y0064142D01*
X0203105Y0065740D02*
X0208970Y0065740D01*
X0212336Y0056149D02*
X0169261Y0056149D01*
X0173616Y0049755D02*
X0176570Y0049755D01*
X0146769Y0044960D02*
X0003600Y0044960D01*
X0003600Y0046558D02*
X0118994Y0046558D01*
X0119182Y0046370D02*
X0120970Y0046370D01*
X0120970Y0050970D01*
X0121370Y0050970D01*
X0121370Y0046370D01*
X0123158Y0046370D01*
X0125970Y0049182D01*
X0125970Y0050970D01*
X0121370Y0050970D01*
X0121370Y0051370D01*
X0125970Y0051370D01*
X0125970Y0053158D01*
X0123158Y0055970D01*
X0121370Y0055970D01*
X0121370Y0051370D01*
X0120970Y0051370D01*
X0120970Y0050970D01*
X0116370Y0050970D01*
X0116370Y0049182D01*
X0119182Y0046370D01*
X0120970Y0046558D02*
X0121370Y0046558D01*
X0121370Y0048157D02*
X0120970Y0048157D01*
X0120970Y0049755D02*
X0121370Y0049755D01*
X0121370Y0051354D02*
X0126570Y0051354D01*
X0126570Y0052952D02*
X0125970Y0052952D01*
X0126570Y0053075D02*
X0126570Y0049265D01*
X0129265Y0046570D01*
X0133075Y0046570D01*
X0135770Y0049265D01*
X0135770Y0053075D01*
X0133075Y0055770D01*
X0129265Y0055770D01*
X0126570Y0053075D01*
X0128045Y0054551D02*
X0124577Y0054551D01*
X0121370Y0054551D02*
X0120970Y0054551D01*
X0120970Y0055970D02*
X0119182Y0055970D01*
X0116370Y0053158D01*
X0116370Y0051370D01*
X0120970Y0051370D01*
X0120970Y0055970D01*
X0120970Y0052952D02*
X0121370Y0052952D01*
X0120970Y0051354D02*
X0003600Y0051354D01*
X0003600Y0052952D02*
X0116370Y0052952D01*
X0117763Y0054551D02*
X0003600Y0054551D01*
X0003600Y0056149D02*
X0133970Y0056149D01*
X0134295Y0054551D02*
X0134678Y0054551D01*
X0135770Y0052952D02*
X0136570Y0052952D01*
X0136570Y0051354D02*
X0135770Y0051354D01*
X0135770Y0049755D02*
X0136570Y0049755D01*
X0137678Y0048157D02*
X0134662Y0048157D01*
X0127678Y0048157D02*
X0124945Y0048157D01*
X0125970Y0049755D02*
X0126570Y0049755D01*
X0123347Y0046558D02*
X0145171Y0046558D01*
X0128087Y0057748D02*
X0124253Y0057748D01*
X0125770Y0059346D02*
X0126570Y0059346D01*
X0126570Y0060945D02*
X0125770Y0060945D01*
X0125770Y0062543D02*
X0126570Y0062543D01*
X0127091Y0064142D02*
X0127637Y0064142D01*
X0122789Y0067339D02*
X0003600Y0067339D01*
X0003600Y0068937D02*
X0123139Y0068937D01*
X0124857Y0070536D02*
X0003600Y0070536D01*
X0003600Y0072134D02*
X0048062Y0072134D01*
X0047520Y0073733D02*
X0003600Y0073733D01*
X0003600Y0075332D02*
X0047520Y0075332D01*
X0047520Y0076930D02*
X0003600Y0076930D01*
X0003600Y0078529D02*
X0047520Y0078529D01*
X0047520Y0080127D02*
X0003600Y0080127D01*
X0003600Y0081726D02*
X0047520Y0081726D01*
X0047520Y0083324D02*
X0003600Y0083324D01*
X0003600Y0084923D02*
X0047520Y0084923D01*
X0047520Y0086521D02*
X0003600Y0086521D01*
X0003600Y0088120D02*
X0047520Y0088120D01*
X0047520Y0089718D02*
X0003600Y0089718D01*
X0003600Y0091317D02*
X0047520Y0091317D01*
X0047520Y0092915D02*
X0003600Y0092915D01*
X0003600Y0094514D02*
X0047520Y0094514D01*
X0047520Y0096112D02*
X0003600Y0096112D01*
X0003600Y0097711D02*
X0047520Y0097711D01*
X0047520Y0099309D02*
X0003600Y0099309D01*
X0003600Y0100908D02*
X0047520Y0100908D01*
X0047520Y0102506D02*
X0003600Y0102506D01*
X0003600Y0104105D02*
X0047520Y0104105D01*
X0047520Y0105703D02*
X0003600Y0105703D01*
X0003600Y0107302D02*
X0047520Y0107302D01*
X0047520Y0108900D02*
X0003600Y0108900D01*
X0003600Y0110499D02*
X0047520Y0110499D01*
X0047520Y0112097D02*
X0003600Y0112097D01*
X0003600Y0113696D02*
X0047520Y0113696D01*
X0047520Y0115294D02*
X0003600Y0115294D01*
X0003600Y0116893D02*
X0047622Y0116893D01*
X0049253Y0118491D02*
X0003600Y0118491D01*
X0003600Y0120090D02*
X0100020Y0120090D01*
X0100020Y0121688D02*
X0003600Y0121688D01*
X0003600Y0123287D02*
X0100020Y0123287D01*
X0100020Y0124885D02*
X0003600Y0124885D01*
X0003600Y0126484D02*
X0100020Y0126484D01*
X0100938Y0128082D02*
X0003600Y0128082D01*
X0003600Y0129681D02*
X0105158Y0129681D01*
X0106756Y0131279D02*
X0003600Y0131279D01*
X0003600Y0132878D02*
X0119476Y0132878D01*
X0118073Y0131279D02*
X0113084Y0131279D01*
X0114682Y0129681D02*
X0117537Y0129681D01*
X0115938Y0128082D02*
X0115770Y0128082D01*
X0117420Y0126170D02*
X0121170Y0129920D01*
X0127420Y0129920D01*
X0142420Y0116170D01*
X0151170Y0116170D01*
X0158670Y0123670D01*
X0158670Y0137420D01*
X0182420Y0161170D01*
X0182420Y0198670D01*
X0186170Y0198670D01*
X0189273Y0200015D02*
X0275591Y0200015D01*
X0275591Y0198417D02*
X0189551Y0198417D01*
X0189063Y0196818D02*
X0275591Y0196818D01*
X0275591Y0195220D02*
X0184820Y0195220D01*
X0184820Y0193621D02*
X0275591Y0193621D01*
X0275591Y0192023D02*
X0184820Y0192023D01*
X0184820Y0190424D02*
X0223338Y0190424D01*
X0223005Y0190286D02*
X0222054Y0189335D01*
X0221539Y0188093D01*
X0221539Y0186748D01*
X0222054Y0185505D01*
X0222120Y0185438D01*
X0222120Y0182720D01*
X0203113Y0182720D01*
X0202084Y0182294D01*
X0201296Y0181506D01*
X0200870Y0180477D01*
X0200870Y0131863D01*
X0201296Y0130834D01*
X0202084Y0130046D01*
X0203113Y0129620D01*
X0217120Y0129620D01*
X0217120Y0115415D01*
X0215878Y0114900D01*
X0214640Y0113662D01*
X0213970Y0112045D01*
X0213970Y0110295D01*
X0214640Y0108678D01*
X0215878Y0107440D01*
X0217495Y0106770D01*
X0224845Y0106770D01*
X0226462Y0107440D01*
X0227700Y0108678D01*
X0228370Y0110295D01*
X0228370Y0112045D01*
X0227700Y0113662D01*
X0226462Y0114900D01*
X0224845Y0115570D01*
X0222720Y0115570D01*
X0222720Y0130438D01*
X0222786Y0130505D01*
X0223301Y0131748D01*
X0223301Y0133093D01*
X0222786Y0134335D01*
X0221835Y0135286D01*
X0221271Y0135520D01*
X0224845Y0135520D01*
X0226462Y0136190D01*
X0227700Y0137428D01*
X0228370Y0139045D01*
X0228370Y0140795D01*
X0227700Y0142412D01*
X0226462Y0143650D01*
X0224845Y0144320D01*
X0217495Y0144320D01*
X0215878Y0143650D01*
X0214640Y0142412D01*
X0214602Y0142320D01*
X0212302Y0142320D01*
X0211835Y0142786D01*
X0210593Y0143301D01*
X0209248Y0143301D01*
X0208005Y0142786D01*
X0207054Y0141835D01*
X0206539Y0140593D01*
X0206539Y0139248D01*
X0207054Y0138005D01*
X0208005Y0137054D01*
X0209248Y0136539D01*
X0210593Y0136539D01*
X0211835Y0137054D01*
X0212302Y0137520D01*
X0214602Y0137520D01*
X0214640Y0137428D01*
X0215878Y0136190D01*
X0217495Y0135520D01*
X0218569Y0135520D01*
X0218005Y0135286D01*
X0217938Y0135220D01*
X0206470Y0135220D01*
X0206470Y0177120D01*
X0225477Y0177120D01*
X0226506Y0177546D01*
X0227294Y0178334D01*
X0227720Y0179363D01*
X0227720Y0185438D01*
X0227786Y0185505D01*
X0228301Y0186748D01*
X0228301Y0188093D01*
X0227786Y0189335D01*
X0226835Y0190286D01*
X0225593Y0190801D01*
X0224248Y0190801D01*
X0223005Y0190286D01*
X0221843Y0188826D02*
X0184820Y0188826D01*
X0184820Y0187227D02*
X0221539Y0187227D01*
X0222002Y0185629D02*
X0184820Y0185629D01*
X0184820Y0184030D02*
X0222120Y0184030D01*
X0227720Y0184030D02*
X0275591Y0184030D01*
X0275591Y0182432D02*
X0227720Y0182432D01*
X0227720Y0180833D02*
X0275591Y0180833D01*
X0275591Y0179235D02*
X0227667Y0179235D01*
X0226596Y0177636D02*
X0275591Y0177636D01*
X0275591Y0176038D02*
X0206470Y0176038D01*
X0206470Y0174439D02*
X0220227Y0174439D01*
X0220498Y0174551D02*
X0219255Y0174036D01*
X0218304Y0173085D01*
X0217789Y0171843D01*
X0217789Y0170498D01*
X0218304Y0169255D01*
X0218770Y0168788D01*
X0218770Y0164320D01*
X0217495Y0164320D01*
X0215878Y0163650D01*
X0214640Y0162412D01*
X0213970Y0160795D01*
X0213970Y0159045D01*
X0214640Y0157428D01*
X0215878Y0156190D01*
X0217495Y0155520D01*
X0224845Y0155520D01*
X0226462Y0156190D01*
X0227700Y0157428D01*
X0228370Y0159045D01*
X0228370Y0160795D01*
X0227700Y0162412D01*
X0226462Y0163650D01*
X0224845Y0164320D01*
X0223570Y0164320D01*
X0223570Y0168788D01*
X0224036Y0169255D01*
X0224551Y0170498D01*
X0224551Y0171843D01*
X0224036Y0173085D01*
X0223085Y0174036D01*
X0221843Y0174551D01*
X0220498Y0174551D01*
X0222113Y0174439D02*
X0275591Y0174439D01*
X0275591Y0172841D02*
X0224138Y0172841D01*
X0224551Y0171242D02*
X0275591Y0171242D01*
X0275591Y0169644D02*
X0224197Y0169644D01*
X0223570Y0168045D02*
X0275591Y0168045D01*
X0275591Y0166447D02*
X0223570Y0166447D01*
X0223570Y0164848D02*
X0275591Y0164848D01*
X0275591Y0163250D02*
X0226863Y0163250D01*
X0228016Y0161651D02*
X0275591Y0161651D01*
X0275591Y0160053D02*
X0228370Y0160053D01*
X0228125Y0158454D02*
X0275591Y0158454D01*
X0275591Y0156856D02*
X0227128Y0156856D01*
X0225736Y0154183D02*
X0225047Y0154407D01*
X0224332Y0154520D01*
X0221270Y0154520D01*
X0221270Y0150020D01*
X0221070Y0150020D01*
X0221070Y0149820D01*
X0221270Y0149820D01*
X0221270Y0145320D01*
X0224332Y0145320D01*
X0225047Y0145433D01*
X0225736Y0145657D01*
X0226381Y0145986D01*
X0226967Y0146411D01*
X0227479Y0146923D01*
X0227904Y0147509D01*
X0228233Y0148154D01*
X0228457Y0148843D01*
X0228570Y0149558D01*
X0228570Y0149820D01*
X0221270Y0149820D01*
X0221270Y0150020D01*
X0228570Y0150020D01*
X0228570Y0150282D01*
X0228457Y0150997D01*
X0228233Y0151686D01*
X0227904Y0152331D01*
X0227479Y0152917D01*
X0226967Y0153429D01*
X0226381Y0153854D01*
X0225736Y0154183D01*
X0226650Y0153659D02*
X0275591Y0153659D01*
X0275591Y0155257D02*
X0206470Y0155257D01*
X0206470Y0153659D02*
X0215690Y0153659D01*
X0215959Y0153854D02*
X0215373Y0153429D01*
X0214861Y0152917D01*
X0214436Y0152331D01*
X0214107Y0151686D01*
X0213883Y0150997D01*
X0213770Y0150282D01*
X0213770Y0150020D01*
X0221070Y0150020D01*
X0221070Y0154520D01*
X0218008Y0154520D01*
X0217293Y0154407D01*
X0216604Y0154183D01*
X0215959Y0153854D01*
X0214298Y0152060D02*
X0206470Y0152060D01*
X0206470Y0150462D02*
X0213798Y0150462D01*
X0213770Y0149820D02*
X0213770Y0149558D01*
X0213883Y0148843D01*
X0214107Y0148154D01*
X0214436Y0147509D01*
X0214861Y0146923D01*
X0215373Y0146411D01*
X0215959Y0145986D01*
X0216604Y0145657D01*
X0217293Y0145433D01*
X0218008Y0145320D01*
X0221070Y0145320D01*
X0221070Y0149820D01*
X0213770Y0149820D01*
X0213880Y0148863D02*
X0206470Y0148863D01*
X0206470Y0147265D02*
X0214614Y0147265D01*
X0216587Y0145666D02*
X0206470Y0145666D01*
X0206470Y0144068D02*
X0216885Y0144068D01*
X0214696Y0142469D02*
X0212153Y0142469D01*
X0209920Y0139920D02*
X0221170Y0139920D01*
X0225455Y0144068D02*
X0275591Y0144068D01*
X0275591Y0145666D02*
X0225753Y0145666D01*
X0227727Y0147265D02*
X0275591Y0147265D01*
X0275591Y0148863D02*
X0228460Y0148863D01*
X0228542Y0150462D02*
X0275591Y0150462D01*
X0275591Y0152060D02*
X0228042Y0152060D01*
X0221270Y0152060D02*
X0221070Y0152060D01*
X0221070Y0150462D02*
X0221270Y0150462D01*
X0221270Y0148863D02*
X0221070Y0148863D01*
X0221070Y0147265D02*
X0221270Y0147265D01*
X0221270Y0145666D02*
X0221070Y0145666D01*
X0227644Y0142469D02*
X0275591Y0142469D01*
X0275591Y0140870D02*
X0228339Y0140870D01*
X0228370Y0139272D02*
X0275591Y0139272D01*
X0275591Y0137673D02*
X0227802Y0137673D01*
X0226185Y0136075D02*
X0275591Y0136075D01*
X0275591Y0134476D02*
X0222645Y0134476D01*
X0223301Y0132878D02*
X0275591Y0132878D01*
X0275591Y0131279D02*
X0223107Y0131279D01*
X0222720Y0129681D02*
X0275591Y0129681D01*
X0275591Y0128082D02*
X0222720Y0128082D01*
X0222720Y0126484D02*
X0275591Y0126484D01*
X0275591Y0124885D02*
X0222720Y0124885D01*
X0222720Y0123287D02*
X0275591Y0123287D01*
X0275591Y0121688D02*
X0222720Y0121688D01*
X0222720Y0120090D02*
X0275591Y0120090D01*
X0275591Y0118491D02*
X0222720Y0118491D01*
X0222720Y0116893D02*
X0275591Y0116893D01*
X0275591Y0115294D02*
X0225511Y0115294D01*
X0227667Y0113696D02*
X0275591Y0113696D01*
X0275591Y0112097D02*
X0228349Y0112097D01*
X0228370Y0110499D02*
X0275591Y0110499D01*
X0275591Y0108900D02*
X0227792Y0108900D01*
X0226129Y0107302D02*
X0275591Y0107302D01*
X0275591Y0105703D02*
X0224754Y0105703D01*
X0225047Y0105657D02*
X0224332Y0105770D01*
X0221270Y0105770D01*
X0221270Y0101270D01*
X0221070Y0101270D01*
X0221070Y0101070D01*
X0221270Y0101070D01*
X0221270Y0096570D01*
X0224332Y0096570D01*
X0225047Y0096683D01*
X0225736Y0096907D01*
X0226381Y0097236D01*
X0226967Y0097661D01*
X0227479Y0098173D01*
X0227904Y0098759D01*
X0228233Y0099404D01*
X0228457Y0100093D01*
X0228570Y0100808D01*
X0228570Y0101070D01*
X0221270Y0101070D01*
X0221270Y0101270D01*
X0228570Y0101270D01*
X0228570Y0101532D01*
X0228457Y0102247D01*
X0228233Y0102936D01*
X0227904Y0103581D01*
X0227479Y0104167D01*
X0226967Y0104679D01*
X0226381Y0105104D01*
X0225736Y0105433D01*
X0225047Y0105657D01*
X0227524Y0104105D02*
X0275591Y0104105D01*
X0275591Y0102506D02*
X0228373Y0102506D01*
X0228570Y0100908D02*
X0275591Y0100908D01*
X0275591Y0099309D02*
X0228185Y0099309D01*
X0227016Y0097711D02*
X0275591Y0097711D01*
X0275591Y0096112D02*
X0212120Y0096112D01*
X0212120Y0094514D02*
X0275591Y0094514D01*
X0275591Y0092915D02*
X0212120Y0092915D01*
X0212120Y0091317D02*
X0275591Y0091317D01*
X0275591Y0089718D02*
X0212120Y0089718D01*
X0212120Y0088120D02*
X0275591Y0088120D01*
X0275591Y0086521D02*
X0212120Y0086521D01*
X0212120Y0084923D02*
X0275591Y0084923D01*
X0275591Y0083324D02*
X0212120Y0083324D01*
X0212120Y0081726D02*
X0275591Y0081726D01*
X0275591Y0080127D02*
X0222824Y0080127D01*
X0223370Y0078529D02*
X0275591Y0078529D01*
X0275591Y0076930D02*
X0223370Y0076930D01*
X0223370Y0075332D02*
X0275591Y0075332D01*
X0275591Y0073733D02*
X0223370Y0073733D01*
X0229567Y0072134D02*
X0275591Y0072134D01*
X0275591Y0070536D02*
X0230870Y0070536D01*
X0230870Y0068937D02*
X0275591Y0068937D01*
X0275591Y0067339D02*
X0230870Y0067339D01*
X0230870Y0065740D02*
X0275591Y0065740D01*
X0275591Y0064142D02*
X0230870Y0064142D01*
X0230870Y0062543D02*
X0275591Y0062543D01*
X0275591Y0060945D02*
X0230870Y0060945D01*
X0230870Y0059346D02*
X0275591Y0059346D01*
X0275591Y0057748D02*
X0230870Y0057748D01*
X0230870Y0056149D02*
X0275591Y0056149D01*
X0275591Y0054551D02*
X0230870Y0054551D01*
X0230870Y0052952D02*
X0275591Y0052952D01*
X0275591Y0051354D02*
X0230870Y0051354D01*
X0230870Y0049755D02*
X0275591Y0049755D01*
X0275591Y0048157D02*
X0230870Y0048157D01*
X0229670Y0046558D02*
X0275591Y0046558D01*
X0275591Y0044960D02*
X0228071Y0044960D01*
X0226473Y0043361D02*
X0275591Y0043361D01*
X0275591Y0041763D02*
X0003600Y0041763D01*
X0003600Y0043361D02*
X0218368Y0043361D01*
X0275591Y0040164D02*
X0003600Y0040164D01*
X0003600Y0038566D02*
X0275591Y0038566D01*
X0275591Y0036967D02*
X0003600Y0036967D01*
X0003600Y0035369D02*
X0275591Y0035369D01*
X0275591Y0033770D02*
X0003600Y0033770D01*
X0003600Y0032172D02*
X0275591Y0032172D01*
X0275591Y0030573D02*
X0003600Y0030573D01*
X0003600Y0028975D02*
X0275591Y0028975D01*
X0275591Y0027376D02*
X0003600Y0027376D01*
X0003600Y0025778D02*
X0275591Y0025778D01*
X0275591Y0024179D02*
X0003600Y0024179D01*
X0003600Y0022581D02*
X0275591Y0022581D01*
X0275591Y0020982D02*
X0003600Y0020982D01*
X0003600Y0019384D02*
X0275591Y0019384D01*
X0275591Y0017785D02*
X0003600Y0017785D01*
X0003600Y0016187D02*
X0275591Y0016187D01*
X0275591Y0014588D02*
X0003600Y0014588D01*
X0003600Y0012990D02*
X0275591Y0012990D01*
X0275591Y0011391D02*
X0003600Y0011391D01*
X0003600Y0009793D02*
X0275591Y0009793D01*
X0275591Y0008194D02*
X0003600Y0008194D01*
X0003600Y0006596D02*
X0275591Y0006596D01*
X0275591Y0004997D02*
X0003600Y0004997D01*
X0003600Y0003600D02*
X0003600Y0236220D01*
X0275591Y0236220D01*
X0275591Y0003600D01*
X0003600Y0003600D01*
X0003600Y0048157D02*
X0117395Y0048157D01*
X0116370Y0049755D02*
X0003600Y0049755D01*
X0003600Y0057748D02*
X0118087Y0057748D01*
X0116570Y0059346D02*
X0003600Y0059346D01*
X0003600Y0060945D02*
X0116570Y0060945D01*
X0116570Y0062543D02*
X0003600Y0062543D01*
X0003600Y0064142D02*
X0117637Y0064142D01*
X0119235Y0065740D02*
X0003600Y0065740D01*
X0049920Y0073670D02*
X0063670Y0073670D01*
X0063670Y0077420D01*
X0066363Y0075332D02*
X0077895Y0075332D01*
X0079445Y0075332D02*
X0128970Y0075332D01*
X0128970Y0076930D02*
X0081609Y0076930D01*
X0082051Y0078529D02*
X0129167Y0078529D01*
X0130766Y0080127D02*
X0083521Y0080127D01*
X0085120Y0081726D02*
X0098333Y0081726D01*
X0097789Y0083324D02*
X0095468Y0083324D01*
X0095705Y0083561D02*
X0095705Y0083561D01*
X0097067Y0084923D02*
X0098029Y0084923D01*
X0098665Y0086521D02*
X0099240Y0086521D01*
X0100264Y0088120D02*
X0104070Y0088120D01*
X0104070Y0089718D02*
X0101862Y0089718D01*
X0103461Y0091317D02*
X0104293Y0091317D01*
X0105059Y0092915D02*
X0105892Y0092915D01*
X0106658Y0094514D02*
X0107491Y0094514D01*
X0113135Y0096112D02*
X0148117Y0096112D01*
X0146518Y0097711D02*
X0114734Y0097711D01*
X0115770Y0099309D02*
X0144920Y0099309D01*
X0143321Y0100908D02*
X0115770Y0100908D01*
X0115770Y0102506D02*
X0141723Y0102506D01*
X0141509Y0102720D02*
X0141509Y0102720D01*
X0140220Y0104105D02*
X0115259Y0104105D01*
X0115347Y0105703D02*
X0140220Y0105703D01*
X0140220Y0107302D02*
X0116946Y0107302D01*
X0118544Y0108900D02*
X0140220Y0108900D01*
X0140220Y0110499D02*
X0119740Y0110499D01*
X0119820Y0112097D02*
X0140220Y0112097D01*
X0140220Y0113696D02*
X0119820Y0113696D01*
X0119820Y0115294D02*
X0139824Y0115294D01*
X0138080Y0116893D02*
X0119820Y0116893D01*
X0119820Y0118491D02*
X0136336Y0118491D01*
X0134592Y0120090D02*
X0119820Y0120090D01*
X0119820Y0121688D02*
X0132848Y0121688D01*
X0131105Y0123287D02*
X0119820Y0123287D01*
X0119820Y0124885D02*
X0129361Y0124885D01*
X0127617Y0126484D02*
X0121128Y0126484D01*
X0117420Y0126170D02*
X0117420Y0111170D01*
X0113670Y0107420D01*
X0103670Y0107420D01*
X0097420Y0101170D01*
X0086170Y0089920D01*
X0083670Y0089920D01*
X0073670Y0079920D01*
X0067420Y0079920D01*
X0063670Y0082420D01*
X0067051Y0076930D02*
X0072053Y0076930D01*
X0075287Y0076930D02*
X0075731Y0076930D01*
X0078670Y0078670D02*
X0084920Y0084920D01*
X0093670Y0084920D01*
X0109920Y0101170D01*
X0109920Y0113670D02*
X0053670Y0113670D01*
X0053670Y0078670D01*
X0049920Y0073670D02*
X0049920Y0116170D01*
X0102420Y0116170D01*
X0102420Y0126170D01*
X0109920Y0126170D01*
X0122864Y0132878D02*
X0141470Y0132878D01*
X0141470Y0134476D02*
X0003600Y0134476D01*
X0003600Y0136075D02*
X0141470Y0136075D01*
X0141470Y0137673D02*
X0003600Y0137673D01*
X0003600Y0139272D02*
X0141470Y0139272D01*
X0141470Y0140870D02*
X0003600Y0140870D01*
X0003600Y0142469D02*
X0141470Y0142469D01*
X0141470Y0144068D02*
X0003600Y0144068D01*
X0003600Y0145666D02*
X0141470Y0145666D01*
X0141470Y0147265D02*
X0003600Y0147265D01*
X0003600Y0148863D02*
X0141470Y0148863D01*
X0141470Y0150462D02*
X0003600Y0150462D01*
X0003600Y0152060D02*
X0141470Y0152060D01*
X0141470Y0153659D02*
X0003600Y0153659D01*
X0003600Y0155257D02*
X0141470Y0155257D01*
X0141470Y0156856D02*
X0086578Y0156856D01*
X0087051Y0158454D02*
X0141470Y0158454D01*
X0141470Y0160053D02*
X0086757Y0160053D01*
X0088670Y0163670D02*
X0093670Y0171170D01*
X0108670Y0171170D01*
X0108670Y0188670D01*
X0133670Y0188670D01*
X0133670Y0181170D01*
X0129763Y0179235D02*
X0127577Y0179235D01*
X0127358Y0178706D02*
X0128020Y0180305D01*
X0128020Y0182035D01*
X0127358Y0183634D01*
X0126134Y0184858D01*
X0124535Y0185520D01*
X0122805Y0185520D01*
X0121206Y0184858D01*
X0119982Y0183634D01*
X0119320Y0182035D01*
X0119320Y0180305D01*
X0119982Y0178706D01*
X0121206Y0177482D01*
X0122805Y0176820D01*
X0124535Y0176820D01*
X0126134Y0177482D01*
X0127358Y0178706D01*
X0126288Y0177636D02*
X0131052Y0177636D01*
X0129535Y0175520D02*
X0127805Y0175520D01*
X0126206Y0174858D01*
X0124982Y0173634D01*
X0124320Y0172035D01*
X0124320Y0170305D01*
X0124982Y0168706D01*
X0126206Y0167482D01*
X0127805Y0166820D01*
X0129535Y0166820D01*
X0131134Y0167482D01*
X0132358Y0168706D01*
X0133020Y0170305D01*
X0133020Y0172035D01*
X0132358Y0173634D01*
X0131134Y0174858D01*
X0129535Y0175520D01*
X0131553Y0174439D02*
X0135787Y0174439D01*
X0136270Y0176038D02*
X0111070Y0176038D01*
X0111070Y0177636D02*
X0121052Y0177636D01*
X0119763Y0179235D02*
X0111070Y0179235D01*
X0111070Y0180833D02*
X0119320Y0180833D01*
X0119484Y0182432D02*
X0111070Y0182432D01*
X0111070Y0184030D02*
X0120378Y0184030D01*
X0126962Y0184030D02*
X0130378Y0184030D01*
X0131270Y0185629D02*
X0111070Y0185629D01*
X0111070Y0174439D02*
X0115787Y0174439D01*
X0116206Y0174858D02*
X0114982Y0173634D01*
X0114320Y0172035D01*
X0114320Y0170305D01*
X0114982Y0168706D01*
X0116206Y0167482D01*
X0117805Y0166820D01*
X0119535Y0166820D01*
X0121134Y0167482D01*
X0122358Y0168706D01*
X0123020Y0170305D01*
X0123020Y0172035D01*
X0122358Y0173634D01*
X0121134Y0174858D01*
X0119535Y0175520D01*
X0117805Y0175520D01*
X0116206Y0174858D01*
X0114654Y0172841D02*
X0111070Y0172841D01*
X0111070Y0171242D02*
X0114320Y0171242D01*
X0114594Y0169644D02*
X0110538Y0169644D01*
X0115643Y0168045D02*
X0096697Y0168045D01*
X0093406Y0166447D02*
X0100415Y0166447D01*
X0099248Y0164848D02*
X0092340Y0164848D01*
X0092051Y0163250D02*
X0099039Y0163250D01*
X0099657Y0161651D02*
X0091433Y0161651D01*
X0083670Y0158670D02*
X0083670Y0171170D01*
X0083670Y0193670D01*
X0153670Y0193670D01*
X0153670Y0181170D01*
X0163570Y0180833D02*
X0180020Y0180833D01*
X0180020Y0179235D02*
X0163570Y0179235D01*
X0163570Y0177636D02*
X0180020Y0177636D01*
X0180020Y0176038D02*
X0163570Y0176038D01*
X0163570Y0174439D02*
X0180020Y0174439D01*
X0180020Y0172841D02*
X0163570Y0172841D01*
X0163570Y0171242D02*
X0180020Y0171242D01*
X0180020Y0169644D02*
X0163038Y0169644D01*
X0161170Y0171170D02*
X0161170Y0191170D01*
X0156170Y0196170D01*
X0078670Y0196170D01*
X0078670Y0181170D01*
X0076052Y0177636D02*
X0071288Y0177636D01*
X0071134Y0177482D02*
X0072358Y0178706D01*
X0073020Y0180305D01*
X0073020Y0182035D01*
X0072358Y0183634D01*
X0071134Y0184858D01*
X0069535Y0185520D01*
X0067805Y0185520D01*
X0066206Y0184858D01*
X0064982Y0183634D01*
X0064320Y0182035D01*
X0064320Y0180305D01*
X0064982Y0178706D01*
X0066206Y0177482D01*
X0067805Y0176820D01*
X0069535Y0176820D01*
X0071134Y0177482D01*
X0072577Y0179235D02*
X0074763Y0179235D01*
X0074320Y0180833D02*
X0073020Y0180833D01*
X0072856Y0182432D02*
X0074484Y0182432D01*
X0075378Y0184030D02*
X0071962Y0184030D01*
X0076270Y0185629D02*
X0003600Y0185629D01*
X0003600Y0187227D02*
X0076270Y0187227D01*
X0076270Y0188826D02*
X0003600Y0188826D01*
X0003600Y0190424D02*
X0076270Y0190424D01*
X0076270Y0192023D02*
X0003600Y0192023D01*
X0003600Y0193621D02*
X0076270Y0193621D01*
X0076270Y0195220D02*
X0003600Y0195220D01*
X0003600Y0196818D02*
X0076341Y0196818D01*
X0077823Y0198417D02*
X0061380Y0198417D01*
X0060301Y0197970D02*
X0063315Y0199218D01*
X0065622Y0201525D01*
X0066870Y0204539D01*
X0066870Y0207801D01*
X0065622Y0210815D01*
X0063315Y0213122D01*
X0060301Y0214370D01*
X0057039Y0214370D01*
X0054025Y0213122D01*
X0051718Y0210815D01*
X0050470Y0207801D01*
X0050470Y0204539D01*
X0051718Y0201525D01*
X0054025Y0199218D01*
X0057039Y0197970D01*
X0060301Y0197970D01*
X0064112Y0200015D02*
X0153228Y0200015D01*
X0151682Y0201614D02*
X0065658Y0201614D01*
X0066321Y0203212D02*
X0151020Y0203212D01*
X0150470Y0204811D02*
X0066870Y0204811D01*
X0066870Y0206409D02*
X0150470Y0206409D01*
X0150556Y0208008D02*
X0066784Y0208008D01*
X0066122Y0209606D02*
X0151218Y0209606D01*
X0152108Y0211205D02*
X0065232Y0211205D01*
X0063633Y0212803D02*
X0153707Y0212803D01*
X0163633Y0212803D02*
X0275591Y0212803D01*
X0275591Y0211205D02*
X0165232Y0211205D01*
X0166122Y0209606D02*
X0275591Y0209606D01*
X0275591Y0208008D02*
X0166784Y0208008D01*
X0166870Y0206409D02*
X0275591Y0206409D01*
X0275591Y0204811D02*
X0166870Y0204811D01*
X0166321Y0203212D02*
X0275591Y0203212D01*
X0275591Y0201614D02*
X0187898Y0201614D01*
X0184442Y0201614D02*
X0165658Y0201614D01*
X0164112Y0200015D02*
X0180380Y0200015D01*
X0180020Y0198417D02*
X0161380Y0198417D01*
X0158916Y0196818D02*
X0180020Y0196818D01*
X0180020Y0195220D02*
X0160514Y0195220D01*
X0162113Y0193621D02*
X0180020Y0193621D01*
X0180020Y0192023D02*
X0163415Y0192023D01*
X0163570Y0190424D02*
X0180020Y0190424D01*
X0180020Y0188826D02*
X0163570Y0188826D01*
X0163570Y0187227D02*
X0180020Y0187227D01*
X0180020Y0185629D02*
X0163570Y0185629D01*
X0163570Y0184030D02*
X0180020Y0184030D01*
X0180020Y0182432D02*
X0163570Y0182432D01*
X0161170Y0171170D02*
X0148670Y0171170D01*
X0145545Y0171170D01*
X0145643Y0168045D02*
X0145403Y0168045D01*
X0146697Y0166447D02*
X0149393Y0166447D01*
X0149039Y0164848D02*
X0147051Y0164848D01*
X0146638Y0163250D02*
X0149452Y0163250D01*
X0150220Y0161651D02*
X0145870Y0161651D01*
X0145870Y0160053D02*
X0150220Y0160053D01*
X0150220Y0158454D02*
X0145870Y0158454D01*
X0145870Y0156856D02*
X0150220Y0156856D01*
X0150220Y0155257D02*
X0145870Y0155257D01*
X0145870Y0153659D02*
X0150220Y0153659D01*
X0150919Y0152060D02*
X0145870Y0152060D01*
X0145870Y0150462D02*
X0161470Y0150462D01*
X0161470Y0148863D02*
X0145870Y0148863D01*
X0145870Y0147265D02*
X0161470Y0147265D01*
X0160055Y0145666D02*
X0145870Y0145666D01*
X0145870Y0144068D02*
X0158456Y0144068D01*
X0156858Y0142469D02*
X0145870Y0142469D01*
X0145870Y0140870D02*
X0155259Y0140870D01*
X0153661Y0139272D02*
X0145870Y0139272D01*
X0145870Y0137673D02*
X0152062Y0137673D01*
X0150464Y0136075D02*
X0145870Y0136075D01*
X0145870Y0134476D02*
X0150220Y0134476D01*
X0150220Y0132878D02*
X0145870Y0132878D01*
X0145870Y0131279D02*
X0150220Y0131279D01*
X0150220Y0129681D02*
X0145870Y0129681D01*
X0145870Y0128082D02*
X0150220Y0128082D01*
X0150220Y0126484D02*
X0145870Y0126484D01*
X0146826Y0124885D02*
X0149264Y0124885D01*
X0149039Y0123287D02*
X0147051Y0123287D01*
X0146470Y0121688D02*
X0149620Y0121688D01*
X0151696Y0120090D02*
X0141696Y0120090D01*
X0140870Y0121688D02*
X0139952Y0121688D01*
X0140289Y0123287D02*
X0138208Y0123287D01*
X0136464Y0124885D02*
X0140514Y0124885D01*
X0141470Y0126484D02*
X0134720Y0126484D01*
X0132977Y0128082D02*
X0141470Y0128082D01*
X0141470Y0129681D02*
X0131233Y0129681D01*
X0129489Y0131279D02*
X0141470Y0131279D01*
X0161070Y0131279D02*
X0171918Y0131279D01*
X0170320Y0129681D02*
X0161070Y0129681D01*
X0161070Y0128082D02*
X0168721Y0128082D01*
X0167123Y0126484D02*
X0161070Y0126484D01*
X0161951Y0120090D02*
X0175458Y0120090D01*
X0175289Y0121688D02*
X0168550Y0121688D01*
X0170148Y0123287D02*
X0176005Y0123287D01*
X0173345Y0126484D02*
X0217120Y0126484D01*
X0217120Y0128082D02*
X0174944Y0128082D01*
X0176542Y0129681D02*
X0202966Y0129681D01*
X0201112Y0131279D02*
X0178141Y0131279D01*
X0179739Y0132878D02*
X0200870Y0132878D01*
X0200870Y0134476D02*
X0181338Y0134476D01*
X0182936Y0136075D02*
X0200870Y0136075D01*
X0200870Y0137673D02*
X0184535Y0137673D01*
X0187405Y0139272D02*
X0200870Y0139272D01*
X0200870Y0140870D02*
X0189188Y0140870D01*
X0189551Y0142469D02*
X0200870Y0142469D01*
X0200870Y0144068D02*
X0189147Y0144068D01*
X0187169Y0145666D02*
X0200870Y0145666D01*
X0200870Y0147265D02*
X0171909Y0147265D01*
X0173507Y0148863D02*
X0200870Y0148863D01*
X0200870Y0150462D02*
X0175106Y0150462D01*
X0176704Y0152060D02*
X0200870Y0152060D01*
X0200870Y0153659D02*
X0178303Y0153659D01*
X0179901Y0155257D02*
X0200870Y0155257D01*
X0200870Y0156856D02*
X0181500Y0156856D01*
X0184486Y0158454D02*
X0200870Y0158454D01*
X0200870Y0160053D02*
X0185617Y0160053D01*
X0185801Y0161651D02*
X0200870Y0161651D01*
X0200870Y0163250D02*
X0185122Y0163250D01*
X0184820Y0164848D02*
X0200870Y0164848D01*
X0200870Y0166447D02*
X0184820Y0166447D01*
X0184820Y0168045D02*
X0200870Y0168045D01*
X0200870Y0169644D02*
X0184820Y0169644D01*
X0184820Y0171242D02*
X0200870Y0171242D01*
X0200870Y0172841D02*
X0184820Y0172841D01*
X0184820Y0174439D02*
X0200870Y0174439D01*
X0200870Y0176038D02*
X0184820Y0176038D01*
X0184820Y0177636D02*
X0200870Y0177636D01*
X0200870Y0179235D02*
X0184820Y0179235D01*
X0184820Y0180833D02*
X0201018Y0180833D01*
X0202417Y0182432D02*
X0184820Y0182432D01*
X0180020Y0168045D02*
X0153711Y0168045D01*
X0155447Y0166447D02*
X0180020Y0166447D01*
X0180020Y0164848D02*
X0155801Y0164848D01*
X0155388Y0163250D02*
X0179718Y0163250D01*
X0179039Y0161651D02*
X0154620Y0161651D01*
X0154620Y0160053D02*
X0177909Y0160053D01*
X0176310Y0158454D02*
X0154620Y0158454D01*
X0154620Y0156856D02*
X0174712Y0156856D01*
X0173113Y0155257D02*
X0165194Y0155257D01*
X0165870Y0153659D02*
X0171514Y0153659D01*
X0169916Y0152060D02*
X0165870Y0152060D01*
X0165870Y0150462D02*
X0168317Y0150462D01*
X0166719Y0148863D02*
X0165870Y0148863D01*
X0170310Y0145666D02*
X0185171Y0145666D01*
X0183193Y0144068D02*
X0168712Y0144068D01*
X0167113Y0142469D02*
X0182789Y0142469D01*
X0181509Y0140870D02*
X0165515Y0140870D01*
X0163916Y0139272D02*
X0179911Y0139272D01*
X0178312Y0137673D02*
X0162318Y0137673D01*
X0161070Y0136075D02*
X0176714Y0136075D01*
X0175115Y0134476D02*
X0161070Y0134476D01*
X0161070Y0132878D02*
X0173517Y0132878D01*
X0171747Y0124885D02*
X0217120Y0124885D01*
X0217120Y0123287D02*
X0181335Y0123287D01*
X0182051Y0121688D02*
X0217120Y0121688D01*
X0217120Y0120090D02*
X0181882Y0120090D01*
X0180870Y0118491D02*
X0217120Y0118491D01*
X0217120Y0116893D02*
X0180870Y0116893D01*
X0179656Y0115294D02*
X0216829Y0115294D01*
X0214673Y0113696D02*
X0178057Y0113696D01*
X0177120Y0112097D02*
X0213992Y0112097D01*
X0213970Y0110499D02*
X0178018Y0110499D01*
X0174881Y0107302D02*
X0168570Y0107302D01*
X0164620Y0108900D02*
X0172829Y0108900D01*
X0172662Y0110499D02*
X0165280Y0110499D01*
X0165801Y0112097D02*
X0172720Y0112097D01*
X0172720Y0113696D02*
X0165551Y0113696D01*
X0164316Y0115294D02*
X0173433Y0115294D01*
X0175032Y0116893D02*
X0161479Y0116893D01*
X0160353Y0118491D02*
X0176470Y0118491D01*
X0199620Y0096112D02*
X0200220Y0096112D01*
X0200220Y0094514D02*
X0199620Y0094514D01*
X0212120Y0097711D02*
X0215324Y0097711D01*
X0215373Y0097661D02*
X0215959Y0097236D01*
X0216604Y0096907D01*
X0217293Y0096683D01*
X0218008Y0096570D01*
X0221070Y0096570D01*
X0221070Y0101070D01*
X0213770Y0101070D01*
X0213770Y0100808D01*
X0213883Y0100093D01*
X0214107Y0099404D01*
X0214436Y0098759D01*
X0214861Y0098173D01*
X0215373Y0097661D01*
X0214156Y0099309D02*
X0212120Y0099309D01*
X0212120Y0100908D02*
X0213770Y0100908D01*
X0213770Y0101270D02*
X0221070Y0101270D01*
X0221070Y0105770D01*
X0218008Y0105770D01*
X0217293Y0105657D01*
X0216604Y0105433D01*
X0215959Y0105104D01*
X0215373Y0104679D01*
X0214861Y0104167D01*
X0214436Y0103581D01*
X0214107Y0102936D01*
X0213883Y0102247D01*
X0213770Y0101532D01*
X0213770Y0101270D01*
X0213967Y0102506D02*
X0212120Y0102506D01*
X0212120Y0104105D02*
X0214816Y0104105D01*
X0212120Y0105703D02*
X0217586Y0105703D01*
X0216211Y0107302D02*
X0212120Y0107302D01*
X0211551Y0108900D02*
X0214548Y0108900D01*
X0221070Y0105703D02*
X0221270Y0105703D01*
X0221270Y0104105D02*
X0221070Y0104105D01*
X0221070Y0102506D02*
X0221270Y0102506D01*
X0221270Y0100908D02*
X0221070Y0100908D01*
X0221070Y0099309D02*
X0221270Y0099309D01*
X0221270Y0097711D02*
X0221070Y0097711D01*
X0216155Y0136075D02*
X0206470Y0136075D01*
X0206470Y0137673D02*
X0207385Y0137673D01*
X0206539Y0139272D02*
X0206470Y0139272D01*
X0206470Y0140870D02*
X0206654Y0140870D01*
X0206470Y0142469D02*
X0207687Y0142469D01*
X0221070Y0153659D02*
X0221270Y0153659D01*
X0215212Y0156856D02*
X0206470Y0156856D01*
X0206470Y0158454D02*
X0214215Y0158454D01*
X0213970Y0160053D02*
X0206470Y0160053D01*
X0206470Y0161651D02*
X0214325Y0161651D01*
X0215477Y0163250D02*
X0206470Y0163250D01*
X0206470Y0164848D02*
X0218770Y0164848D01*
X0218770Y0166447D02*
X0206470Y0166447D01*
X0206470Y0168045D02*
X0218770Y0168045D01*
X0218143Y0169644D02*
X0206470Y0169644D01*
X0206470Y0171242D02*
X0217789Y0171242D01*
X0218202Y0172841D02*
X0206470Y0172841D01*
X0221170Y0171170D02*
X0221170Y0159920D01*
X0227838Y0185629D02*
X0275591Y0185629D01*
X0275591Y0187227D02*
X0228301Y0187227D01*
X0227997Y0188826D02*
X0275591Y0188826D01*
X0275591Y0190424D02*
X0226502Y0190424D01*
X0226598Y0219570D02*
X0221739Y0219570D01*
X0221591Y0219718D01*
X0221442Y0219570D01*
X0216583Y0219570D01*
X0215411Y0220742D01*
X0215411Y0222398D01*
X0216583Y0223570D01*
X0217012Y0223570D01*
X0217012Y0227090D01*
X0216212Y0227890D01*
X0215782Y0228320D01*
X0213064Y0228320D01*
X0212227Y0228320D01*
X0211678Y0228869D01*
X0211129Y0228320D01*
X0210988Y0228320D01*
X0212100Y0227579D01*
X0212425Y0225954D01*
X0211103Y0223972D01*
X0212425Y0221990D01*
X0212100Y0220366D01*
X0210721Y0219446D01*
X0209096Y0219771D01*
X0208700Y0220367D01*
X0208303Y0219771D01*
X0206678Y0219446D01*
X0205700Y0220098D01*
X0205172Y0219570D01*
X0202751Y0219570D01*
X0201914Y0219570D01*
X0200565Y0220920D01*
X0200387Y0220742D01*
X0199215Y0219570D01*
X0197558Y0219570D01*
X0196609Y0220519D01*
X0195660Y0219570D01*
X0194003Y0219570D01*
X0193230Y0220343D01*
X0192457Y0219570D01*
X0190801Y0219570D01*
X0189629Y0220742D01*
X0189629Y0222398D01*
X0190002Y0222771D01*
X0189658Y0223115D01*
X0189629Y0223144D01*
X0189629Y0223144D01*
X0189629Y0223964D01*
X0189629Y0224745D01*
X0189629Y0224801D01*
X0189629Y0225565D01*
X0189629Y0226402D01*
X0190801Y0227573D01*
X0190801Y0227573D01*
X0191574Y0228347D01*
X0191052Y0228869D01*
X0190504Y0228320D01*
X0185644Y0228320D01*
X0184473Y0229492D01*
X0184473Y0233551D01*
X0185644Y0234722D01*
X0186445Y0235523D01*
X0186445Y0235523D01*
X0187265Y0235523D01*
X0190504Y0235523D01*
X0191052Y0234974D01*
X0191601Y0235523D01*
X0193203Y0235523D01*
X0193203Y0235523D01*
X0194040Y0235523D01*
X0194859Y0235523D01*
X0194859Y0235523D01*
X0194888Y0235494D01*
X0195408Y0234974D01*
X0195957Y0235523D01*
X0198359Y0235523D01*
X0198359Y0235523D01*
X0199196Y0235523D01*
X0200016Y0235523D01*
X0200016Y0235523D01*
X0200044Y0235494D01*
X0200965Y0234574D01*
X0201914Y0235523D01*
X0203515Y0235523D01*
X0203515Y0235523D01*
X0204352Y0235523D01*
X0205172Y0235523D01*
X0205172Y0235523D01*
X0205201Y0235494D01*
X0206121Y0234574D01*
X0206270Y0234722D01*
X0207070Y0235523D01*
X0207070Y0235523D01*
X0207890Y0235523D01*
X0211129Y0235523D01*
X0211278Y0235374D01*
X0211426Y0235523D01*
X0213828Y0235523D01*
X0213828Y0235523D01*
X0214648Y0235523D01*
X0215485Y0235523D01*
X0216034Y0234974D01*
X0216583Y0235523D01*
X0218239Y0235523D01*
X0219012Y0234750D01*
X0219785Y0235523D01*
X0221442Y0235523D01*
X0221591Y0235374D01*
X0221739Y0235523D01*
X0224141Y0235523D01*
X0224141Y0235523D01*
X0224961Y0235523D01*
X0225798Y0235523D01*
X0226969Y0234351D01*
X0226969Y0234351D01*
X0227770Y0233551D01*
X0227770Y0232714D01*
X0227770Y0231894D01*
X0227770Y0231894D01*
X0227397Y0231521D01*
X0227770Y0231148D01*
X0227770Y0229492D01*
X0226626Y0228347D01*
X0227770Y0227203D01*
X0227770Y0220742D01*
X0226598Y0219570D01*
X0227770Y0220796D02*
X0275591Y0220796D01*
X0275591Y0219198D02*
X0003600Y0219198D01*
X0003600Y0220796D02*
X0174160Y0220796D01*
X0174160Y0220742D02*
X0175331Y0219570D01*
X0180191Y0219570D01*
X0181155Y0220534D01*
X0181282Y0220152D01*
X0181427Y0220079D01*
X0181499Y0219935D01*
X0182150Y0219718D01*
X0182764Y0219411D01*
X0182918Y0219462D01*
X0183071Y0219411D01*
X0183685Y0219718D01*
X0184336Y0219935D01*
X0184408Y0220079D01*
X0184553Y0220152D01*
X0184770Y0220803D01*
X0186678Y0224619D01*
X0186154Y0226191D01*
X0184672Y0226932D01*
X0183101Y0226408D01*
X0182918Y0226042D01*
X0182735Y0226408D01*
X0181163Y0226932D01*
X0180942Y0226822D01*
X0179390Y0228374D01*
X0176952Y0228374D01*
X0176132Y0228374D01*
X0176103Y0228346D01*
X0175331Y0227573D01*
X0174188Y0226431D01*
X0174160Y0226402D01*
X0174160Y0226402D01*
X0174160Y0225582D01*
X0174160Y0224745D01*
X0174160Y0223944D01*
X0174933Y0223171D01*
X0174160Y0222398D01*
X0174160Y0220742D01*
X0174160Y0222395D02*
X0003600Y0222395D01*
X0003600Y0223993D02*
X0174160Y0223993D01*
X0174160Y0224745D02*
X0174160Y0224745D01*
X0174160Y0225592D02*
X0003600Y0225592D01*
X0003600Y0227190D02*
X0174948Y0227190D01*
X0175331Y0227573D02*
X0175331Y0227573D01*
X0176132Y0228374D02*
X0176132Y0228374D01*
X0180574Y0227190D02*
X0190417Y0227190D01*
X0190972Y0228789D02*
X0191133Y0228789D01*
X0189629Y0225592D02*
X0186354Y0225592D01*
X0186365Y0223993D02*
X0189629Y0223993D01*
X0189629Y0222395D02*
X0185566Y0222395D01*
X0184768Y0220796D02*
X0189629Y0220796D01*
X0185176Y0228789D02*
X0003600Y0228789D01*
X0003600Y0230387D02*
X0184473Y0230387D01*
X0184473Y0231986D02*
X0003600Y0231986D01*
X0003600Y0233584D02*
X0184506Y0233584D01*
X0186105Y0235183D02*
X0003600Y0235183D01*
X0003600Y0217599D02*
X0275591Y0217599D01*
X0275591Y0216001D02*
X0003600Y0216001D01*
X0003600Y0214402D02*
X0275591Y0214402D01*
X0275591Y0222395D02*
X0227770Y0222395D01*
X0227770Y0223993D02*
X0275591Y0223993D01*
X0275591Y0225592D02*
X0227770Y0225592D01*
X0227770Y0227190D02*
X0275591Y0227190D01*
X0275591Y0228789D02*
X0227067Y0228789D01*
X0227770Y0230387D02*
X0275591Y0230387D01*
X0275591Y0231986D02*
X0227770Y0231986D01*
X0227736Y0233584D02*
X0275591Y0233584D01*
X0275591Y0235183D02*
X0226138Y0235183D01*
X0219445Y0235183D02*
X0218580Y0235183D01*
X0216242Y0235183D02*
X0215825Y0235183D01*
X0211758Y0228789D02*
X0211598Y0228789D01*
X0212177Y0227190D02*
X0216912Y0227190D01*
X0217012Y0225592D02*
X0212183Y0225592D01*
X0211117Y0223993D02*
X0217012Y0223993D01*
X0215411Y0222395D02*
X0212155Y0222395D01*
X0212186Y0220796D02*
X0215411Y0220796D01*
X0200688Y0220796D02*
X0200441Y0220796D01*
X0200356Y0235183D02*
X0201574Y0235183D01*
X0205512Y0235183D02*
X0206730Y0235183D01*
X0195617Y0235183D02*
X0195200Y0235183D01*
X0191261Y0235183D02*
X0190844Y0235183D01*
X0138670Y0191170D02*
X0138670Y0171170D01*
X0134654Y0172841D02*
X0132686Y0172841D01*
X0133020Y0171242D02*
X0134320Y0171242D01*
X0134594Y0169644D02*
X0132746Y0169644D01*
X0131697Y0168045D02*
X0135643Y0168045D01*
X0137185Y0166447D02*
X0104425Y0166447D01*
X0102420Y0163670D02*
X0137420Y0163670D01*
X0138795Y0161651D02*
X0141470Y0161651D01*
X0140702Y0163250D02*
X0140208Y0163250D01*
X0125643Y0168045D02*
X0121697Y0168045D01*
X0122746Y0169644D02*
X0124594Y0169644D01*
X0124320Y0171242D02*
X0123020Y0171242D01*
X0122686Y0172841D02*
X0124654Y0172841D01*
X0125787Y0174439D02*
X0121553Y0174439D01*
X0128020Y0180833D02*
X0129320Y0180833D01*
X0129484Y0182432D02*
X0127856Y0182432D01*
X0138670Y0191170D02*
X0098670Y0191170D01*
X0098670Y0181170D01*
X0081270Y0176038D02*
X0003600Y0176038D01*
X0003600Y0177636D02*
X0066052Y0177636D01*
X0064763Y0179235D02*
X0003600Y0179235D01*
X0003600Y0180833D02*
X0064320Y0180833D01*
X0064484Y0182432D02*
X0003600Y0182432D01*
X0003600Y0184030D02*
X0065378Y0184030D01*
X0064535Y0175520D02*
X0062805Y0175520D01*
X0061206Y0174858D01*
X0059982Y0173634D01*
X0059320Y0172035D01*
X0059320Y0170305D01*
X0059982Y0168706D01*
X0061206Y0167482D01*
X0062805Y0166820D01*
X0064535Y0166820D01*
X0066134Y0167482D01*
X0067358Y0168706D01*
X0068020Y0170305D01*
X0068020Y0172035D01*
X0067358Y0173634D01*
X0066134Y0174858D01*
X0064535Y0175520D01*
X0066553Y0174439D02*
X0070787Y0174439D01*
X0071206Y0174858D02*
X0069982Y0173634D01*
X0069320Y0172035D01*
X0069320Y0170305D01*
X0069982Y0168706D01*
X0071206Y0167482D01*
X0072805Y0166820D01*
X0074535Y0166820D01*
X0076134Y0167482D01*
X0077358Y0168706D01*
X0078020Y0170305D01*
X0078020Y0172035D01*
X0077358Y0173634D01*
X0076134Y0174858D01*
X0074535Y0175520D01*
X0072805Y0175520D01*
X0071206Y0174858D01*
X0069654Y0172841D02*
X0067686Y0172841D01*
X0068020Y0171242D02*
X0069320Y0171242D01*
X0069594Y0169644D02*
X0067746Y0169644D01*
X0066697Y0168045D02*
X0070643Y0168045D01*
X0076697Y0168045D02*
X0080643Y0168045D01*
X0081270Y0166447D02*
X0003600Y0166447D01*
X0003600Y0168045D02*
X0060643Y0168045D01*
X0059594Y0169644D02*
X0003600Y0169644D01*
X0003600Y0171242D02*
X0059320Y0171242D01*
X0059654Y0172841D02*
X0003600Y0172841D01*
X0003600Y0174439D02*
X0060787Y0174439D01*
X0076553Y0174439D02*
X0080787Y0174439D01*
X0079654Y0172841D02*
X0077686Y0172841D01*
X0078020Y0171242D02*
X0079320Y0171242D01*
X0079594Y0169644D02*
X0077746Y0169644D01*
X0081270Y0164848D02*
X0003600Y0164848D01*
X0003600Y0163250D02*
X0081270Y0163250D01*
X0081270Y0161651D02*
X0003600Y0161651D01*
X0003600Y0160053D02*
X0080583Y0160053D01*
X0080289Y0158454D02*
X0003600Y0158454D01*
X0003600Y0156856D02*
X0080762Y0156856D01*
X0055960Y0198417D02*
X0003600Y0198417D01*
X0003600Y0200015D02*
X0053228Y0200015D01*
X0051682Y0201614D02*
X0003600Y0201614D01*
X0003600Y0203212D02*
X0051020Y0203212D01*
X0050470Y0204811D02*
X0003600Y0204811D01*
X0003600Y0206409D02*
X0050470Y0206409D01*
X0050556Y0208008D02*
X0003600Y0208008D01*
X0003600Y0209606D02*
X0051218Y0209606D01*
X0052108Y0211205D02*
X0003600Y0211205D01*
X0003600Y0212803D02*
X0053707Y0212803D01*
X0103101Y0086521D02*
X0104070Y0086521D01*
X0127483Y0070536D02*
X0128970Y0070536D01*
X0128970Y0072134D02*
X0065529Y0072134D01*
X0066070Y0073733D02*
X0128970Y0073733D01*
D17*
X0126170Y0067420D03*
X0136170Y0076170D03*
X0141170Y0073670D03*
X0147420Y0073670D03*
X0151170Y0079920D03*
X0141170Y0079920D03*
X0141170Y0092420D03*
X0138045Y0102420D03*
X0153670Y0093670D03*
X0161170Y0092420D03*
X0166170Y0104920D03*
X0162420Y0112420D03*
X0158670Y0114920D03*
X0154920Y0108670D03*
X0148670Y0119920D03*
X0152420Y0123670D03*
X0143670Y0123670D03*
X0121170Y0129920D03*
X0121170Y0110545D03*
X0097420Y0101170D03*
X0101170Y0083670D03*
X0078670Y0078670D03*
X0073670Y0079920D03*
X0063670Y0077420D03*
X0063670Y0082420D03*
X0053670Y0078670D03*
X0051170Y0051170D03*
X0096170Y0132420D03*
X0089920Y0141170D03*
X0091170Y0158670D03*
X0088670Y0163670D03*
X0083670Y0158670D03*
X0074920Y0158670D03*
X0063670Y0158670D03*
X0046170Y0141170D03*
X0102420Y0163670D03*
X0143670Y0164920D03*
X0152420Y0164920D03*
X0156170Y0143670D03*
X0179920Y0128670D03*
X0178670Y0121170D03*
X0178670Y0111170D03*
X0204920Y0114920D03*
X0219920Y0132420D03*
X0209920Y0139920D03*
X0186170Y0142420D03*
X0182420Y0161170D03*
X0172420Y0187420D03*
X0186170Y0198670D03*
X0151170Y0221170D03*
X0091170Y0221170D03*
X0221170Y0171170D03*
X0224920Y0187420D03*
X0228670Y0206170D03*
X0164295Y0076170D03*
X0167420Y0067420D03*
X0171170Y0047420D03*
D18*
X0181170Y0047420D01*
X0181170Y0051170D01*
X0191170Y0061170D02*
X0191170Y0071170D01*
X0197420Y0071170D01*
X0197420Y0096170D01*
X0159920Y0096170D01*
X0154920Y0101170D01*
X0154920Y0108670D01*
X0151170Y0112420D02*
X0162420Y0123670D01*
X0167420Y0123670D01*
X0186170Y0142420D01*
X0163670Y0146170D02*
X0163670Y0153670D01*
X0152420Y0153670D01*
X0152420Y0164920D01*
X0145545Y0171170D02*
X0137420Y0163670D01*
X0143670Y0164920D02*
X0143670Y0123670D01*
X0148670Y0119920D02*
X0148670Y0136170D01*
X0156170Y0143670D01*
X0163670Y0146170D02*
X0152420Y0134920D01*
X0152420Y0123670D01*
X0158670Y0114920D02*
X0158670Y0101170D01*
X0161170Y0098670D01*
X0202420Y0098670D01*
X0202420Y0071170D01*
X0211170Y0071170D01*
X0211170Y0061170D01*
X0216170Y0057420D02*
X0216170Y0073670D01*
X0204920Y0073670D01*
X0204920Y0101170D01*
X0162420Y0101170D01*
X0162420Y0112420D01*
X0166170Y0104920D02*
X0207420Y0104920D01*
X0207420Y0076170D01*
X0218670Y0076170D01*
X0218670Y0068670D01*
X0226170Y0068670D01*
X0226170Y0054920D01*
X0221170Y0054920D01*
X0221170Y0051170D01*
X0216170Y0048670D02*
X0219920Y0044920D01*
X0224920Y0044920D01*
X0228670Y0048670D01*
X0228670Y0069920D01*
X0227420Y0071170D01*
X0221170Y0071170D01*
X0221170Y0078670D01*
X0209920Y0078670D01*
X0209920Y0107420D01*
X0178670Y0107420D01*
X0174920Y0109920D01*
X0174920Y0113670D01*
X0178670Y0117420D01*
X0178670Y0121170D01*
X0151170Y0112420D02*
X0151170Y0101170D01*
X0159920Y0092420D01*
X0161170Y0092420D01*
X0161170Y0081170D01*
X0174920Y0081170D01*
X0174920Y0071170D02*
X0167420Y0071170D01*
X0167420Y0067420D01*
X0167420Y0057420D01*
X0161170Y0051170D01*
X0156170Y0049920D02*
X0156170Y0069920D01*
X0146170Y0079920D01*
X0141170Y0079920D01*
X0138670Y0084920D02*
X0138670Y0092420D01*
X0141170Y0092420D01*
X0138670Y0084920D02*
X0131170Y0077420D01*
X0131170Y0061170D01*
X0136170Y0056170D02*
X0136170Y0076170D01*
X0141170Y0073670D02*
X0141170Y0061170D01*
X0146170Y0056170D02*
X0136170Y0056170D01*
X0141170Y0051170D02*
X0143670Y0051170D01*
X0148670Y0046170D01*
X0152420Y0046170D01*
X0156170Y0049920D01*
X0151170Y0051170D02*
X0146170Y0056170D01*
X0151170Y0061170D02*
X0151170Y0069920D01*
X0147420Y0073670D01*
X0151170Y0079920D02*
X0161170Y0069920D01*
X0161170Y0061170D01*
X0126170Y0067420D02*
X0121170Y0062420D01*
X0121170Y0061170D01*
X0153670Y0093670D02*
X0142420Y0104920D01*
X0142420Y0116170D01*
X0216170Y0057420D02*
X0211170Y0051170D01*
X0216170Y0053670D02*
X0216170Y0048670D01*
X0216170Y0053670D02*
X0221170Y0058670D01*
X0221170Y0061170D01*
D19*
X0257706Y0021485D03*
X0257706Y0218335D03*
X0021485Y0218335D03*
X0021485Y0021485D03*
D20*
X0203670Y0132420D02*
X0203670Y0179920D01*
X0224920Y0179920D01*
X0224920Y0187420D01*
X0219920Y0132420D02*
X0203670Y0132420D01*
X0219920Y0132420D02*
X0219920Y0111170D01*
X0221170Y0111170D01*
M02*
