G75*
%MOIN*%
%OFA0B0*%
%FSLAX25Y25*%
%IPPOS*%
%LPD*%
%AMOC8*
5,1,8,0,0,1.08239X$1,22.5*
%
%ADD10C,0.00000*%
%ADD11C,0.00711*%
%ADD12C,0.01301*%
%ADD13OC8,0.06400*%
%ADD14C,0.01450*%
%ADD15C,0.01065*%
%ADD16C,0.01537*%
%ADD17C,0.02096*%
%ADD18C,0.06000*%
%ADD19C,0.00947*%
%ADD20C,0.05900*%
%ADD21C,0.13200*%
%ADD22C,0.00770*%
%ADD23C,0.02084*%
%ADD24C,0.01892*%
%ADD25OC8,0.08900*%
%ADD26C,0.01500*%
%ADD27R,0.07200X0.00600*%
%ADD28C,0.24022*%
D10*
X0001800Y0001800D02*
X0001800Y0238020D01*
X0277391Y0238020D01*
X0277391Y0001800D01*
X0001800Y0001800D01*
X0052270Y0206170D02*
X0052272Y0206330D01*
X0052278Y0206489D01*
X0052288Y0206648D01*
X0052302Y0206807D01*
X0052320Y0206966D01*
X0052341Y0207124D01*
X0052367Y0207281D01*
X0052397Y0207438D01*
X0052430Y0207594D01*
X0052468Y0207749D01*
X0052509Y0207903D01*
X0052554Y0208056D01*
X0052603Y0208208D01*
X0052656Y0208359D01*
X0052712Y0208508D01*
X0052773Y0208656D01*
X0052836Y0208802D01*
X0052904Y0208947D01*
X0052975Y0209090D01*
X0053049Y0209231D01*
X0053127Y0209370D01*
X0053209Y0209507D01*
X0053294Y0209642D01*
X0053382Y0209775D01*
X0053474Y0209906D01*
X0053568Y0210034D01*
X0053666Y0210160D01*
X0053767Y0210284D01*
X0053871Y0210405D01*
X0053978Y0210523D01*
X0054088Y0210639D01*
X0054201Y0210752D01*
X0054317Y0210862D01*
X0054435Y0210969D01*
X0054556Y0211073D01*
X0054680Y0211174D01*
X0054806Y0211272D01*
X0054934Y0211366D01*
X0055065Y0211458D01*
X0055198Y0211546D01*
X0055333Y0211631D01*
X0055470Y0211713D01*
X0055609Y0211791D01*
X0055750Y0211865D01*
X0055893Y0211936D01*
X0056038Y0212004D01*
X0056184Y0212067D01*
X0056332Y0212128D01*
X0056481Y0212184D01*
X0056632Y0212237D01*
X0056784Y0212286D01*
X0056937Y0212331D01*
X0057091Y0212372D01*
X0057246Y0212410D01*
X0057402Y0212443D01*
X0057559Y0212473D01*
X0057716Y0212499D01*
X0057874Y0212520D01*
X0058033Y0212538D01*
X0058192Y0212552D01*
X0058351Y0212562D01*
X0058510Y0212568D01*
X0058670Y0212570D01*
X0058830Y0212568D01*
X0058989Y0212562D01*
X0059148Y0212552D01*
X0059307Y0212538D01*
X0059466Y0212520D01*
X0059624Y0212499D01*
X0059781Y0212473D01*
X0059938Y0212443D01*
X0060094Y0212410D01*
X0060249Y0212372D01*
X0060403Y0212331D01*
X0060556Y0212286D01*
X0060708Y0212237D01*
X0060859Y0212184D01*
X0061008Y0212128D01*
X0061156Y0212067D01*
X0061302Y0212004D01*
X0061447Y0211936D01*
X0061590Y0211865D01*
X0061731Y0211791D01*
X0061870Y0211713D01*
X0062007Y0211631D01*
X0062142Y0211546D01*
X0062275Y0211458D01*
X0062406Y0211366D01*
X0062534Y0211272D01*
X0062660Y0211174D01*
X0062784Y0211073D01*
X0062905Y0210969D01*
X0063023Y0210862D01*
X0063139Y0210752D01*
X0063252Y0210639D01*
X0063362Y0210523D01*
X0063469Y0210405D01*
X0063573Y0210284D01*
X0063674Y0210160D01*
X0063772Y0210034D01*
X0063866Y0209906D01*
X0063958Y0209775D01*
X0064046Y0209642D01*
X0064131Y0209507D01*
X0064213Y0209370D01*
X0064291Y0209231D01*
X0064365Y0209090D01*
X0064436Y0208947D01*
X0064504Y0208802D01*
X0064567Y0208656D01*
X0064628Y0208508D01*
X0064684Y0208359D01*
X0064737Y0208208D01*
X0064786Y0208056D01*
X0064831Y0207903D01*
X0064872Y0207749D01*
X0064910Y0207594D01*
X0064943Y0207438D01*
X0064973Y0207281D01*
X0064999Y0207124D01*
X0065020Y0206966D01*
X0065038Y0206807D01*
X0065052Y0206648D01*
X0065062Y0206489D01*
X0065068Y0206330D01*
X0065070Y0206170D01*
X0065068Y0206010D01*
X0065062Y0205851D01*
X0065052Y0205692D01*
X0065038Y0205533D01*
X0065020Y0205374D01*
X0064999Y0205216D01*
X0064973Y0205059D01*
X0064943Y0204902D01*
X0064910Y0204746D01*
X0064872Y0204591D01*
X0064831Y0204437D01*
X0064786Y0204284D01*
X0064737Y0204132D01*
X0064684Y0203981D01*
X0064628Y0203832D01*
X0064567Y0203684D01*
X0064504Y0203538D01*
X0064436Y0203393D01*
X0064365Y0203250D01*
X0064291Y0203109D01*
X0064213Y0202970D01*
X0064131Y0202833D01*
X0064046Y0202698D01*
X0063958Y0202565D01*
X0063866Y0202434D01*
X0063772Y0202306D01*
X0063674Y0202180D01*
X0063573Y0202056D01*
X0063469Y0201935D01*
X0063362Y0201817D01*
X0063252Y0201701D01*
X0063139Y0201588D01*
X0063023Y0201478D01*
X0062905Y0201371D01*
X0062784Y0201267D01*
X0062660Y0201166D01*
X0062534Y0201068D01*
X0062406Y0200974D01*
X0062275Y0200882D01*
X0062142Y0200794D01*
X0062007Y0200709D01*
X0061870Y0200627D01*
X0061731Y0200549D01*
X0061590Y0200475D01*
X0061447Y0200404D01*
X0061302Y0200336D01*
X0061156Y0200273D01*
X0061008Y0200212D01*
X0060859Y0200156D01*
X0060708Y0200103D01*
X0060556Y0200054D01*
X0060403Y0200009D01*
X0060249Y0199968D01*
X0060094Y0199930D01*
X0059938Y0199897D01*
X0059781Y0199867D01*
X0059624Y0199841D01*
X0059466Y0199820D01*
X0059307Y0199802D01*
X0059148Y0199788D01*
X0058989Y0199778D01*
X0058830Y0199772D01*
X0058670Y0199770D01*
X0058510Y0199772D01*
X0058351Y0199778D01*
X0058192Y0199788D01*
X0058033Y0199802D01*
X0057874Y0199820D01*
X0057716Y0199841D01*
X0057559Y0199867D01*
X0057402Y0199897D01*
X0057246Y0199930D01*
X0057091Y0199968D01*
X0056937Y0200009D01*
X0056784Y0200054D01*
X0056632Y0200103D01*
X0056481Y0200156D01*
X0056332Y0200212D01*
X0056184Y0200273D01*
X0056038Y0200336D01*
X0055893Y0200404D01*
X0055750Y0200475D01*
X0055609Y0200549D01*
X0055470Y0200627D01*
X0055333Y0200709D01*
X0055198Y0200794D01*
X0055065Y0200882D01*
X0054934Y0200974D01*
X0054806Y0201068D01*
X0054680Y0201166D01*
X0054556Y0201267D01*
X0054435Y0201371D01*
X0054317Y0201478D01*
X0054201Y0201588D01*
X0054088Y0201701D01*
X0053978Y0201817D01*
X0053871Y0201935D01*
X0053767Y0202056D01*
X0053666Y0202180D01*
X0053568Y0202306D01*
X0053474Y0202434D01*
X0053382Y0202565D01*
X0053294Y0202698D01*
X0053209Y0202833D01*
X0053127Y0202970D01*
X0053049Y0203109D01*
X0052975Y0203250D01*
X0052904Y0203393D01*
X0052836Y0203538D01*
X0052773Y0203684D01*
X0052712Y0203832D01*
X0052656Y0203981D01*
X0052603Y0204132D01*
X0052554Y0204284D01*
X0052509Y0204437D01*
X0052468Y0204591D01*
X0052430Y0204746D01*
X0052397Y0204902D01*
X0052367Y0205059D01*
X0052341Y0205216D01*
X0052320Y0205374D01*
X0052302Y0205533D01*
X0052288Y0205692D01*
X0052278Y0205851D01*
X0052272Y0206010D01*
X0052270Y0206170D01*
X0152270Y0206170D02*
X0152272Y0206330D01*
X0152278Y0206489D01*
X0152288Y0206648D01*
X0152302Y0206807D01*
X0152320Y0206966D01*
X0152341Y0207124D01*
X0152367Y0207281D01*
X0152397Y0207438D01*
X0152430Y0207594D01*
X0152468Y0207749D01*
X0152509Y0207903D01*
X0152554Y0208056D01*
X0152603Y0208208D01*
X0152656Y0208359D01*
X0152712Y0208508D01*
X0152773Y0208656D01*
X0152836Y0208802D01*
X0152904Y0208947D01*
X0152975Y0209090D01*
X0153049Y0209231D01*
X0153127Y0209370D01*
X0153209Y0209507D01*
X0153294Y0209642D01*
X0153382Y0209775D01*
X0153474Y0209906D01*
X0153568Y0210034D01*
X0153666Y0210160D01*
X0153767Y0210284D01*
X0153871Y0210405D01*
X0153978Y0210523D01*
X0154088Y0210639D01*
X0154201Y0210752D01*
X0154317Y0210862D01*
X0154435Y0210969D01*
X0154556Y0211073D01*
X0154680Y0211174D01*
X0154806Y0211272D01*
X0154934Y0211366D01*
X0155065Y0211458D01*
X0155198Y0211546D01*
X0155333Y0211631D01*
X0155470Y0211713D01*
X0155609Y0211791D01*
X0155750Y0211865D01*
X0155893Y0211936D01*
X0156038Y0212004D01*
X0156184Y0212067D01*
X0156332Y0212128D01*
X0156481Y0212184D01*
X0156632Y0212237D01*
X0156784Y0212286D01*
X0156937Y0212331D01*
X0157091Y0212372D01*
X0157246Y0212410D01*
X0157402Y0212443D01*
X0157559Y0212473D01*
X0157716Y0212499D01*
X0157874Y0212520D01*
X0158033Y0212538D01*
X0158192Y0212552D01*
X0158351Y0212562D01*
X0158510Y0212568D01*
X0158670Y0212570D01*
X0158830Y0212568D01*
X0158989Y0212562D01*
X0159148Y0212552D01*
X0159307Y0212538D01*
X0159466Y0212520D01*
X0159624Y0212499D01*
X0159781Y0212473D01*
X0159938Y0212443D01*
X0160094Y0212410D01*
X0160249Y0212372D01*
X0160403Y0212331D01*
X0160556Y0212286D01*
X0160708Y0212237D01*
X0160859Y0212184D01*
X0161008Y0212128D01*
X0161156Y0212067D01*
X0161302Y0212004D01*
X0161447Y0211936D01*
X0161590Y0211865D01*
X0161731Y0211791D01*
X0161870Y0211713D01*
X0162007Y0211631D01*
X0162142Y0211546D01*
X0162275Y0211458D01*
X0162406Y0211366D01*
X0162534Y0211272D01*
X0162660Y0211174D01*
X0162784Y0211073D01*
X0162905Y0210969D01*
X0163023Y0210862D01*
X0163139Y0210752D01*
X0163252Y0210639D01*
X0163362Y0210523D01*
X0163469Y0210405D01*
X0163573Y0210284D01*
X0163674Y0210160D01*
X0163772Y0210034D01*
X0163866Y0209906D01*
X0163958Y0209775D01*
X0164046Y0209642D01*
X0164131Y0209507D01*
X0164213Y0209370D01*
X0164291Y0209231D01*
X0164365Y0209090D01*
X0164436Y0208947D01*
X0164504Y0208802D01*
X0164567Y0208656D01*
X0164628Y0208508D01*
X0164684Y0208359D01*
X0164737Y0208208D01*
X0164786Y0208056D01*
X0164831Y0207903D01*
X0164872Y0207749D01*
X0164910Y0207594D01*
X0164943Y0207438D01*
X0164973Y0207281D01*
X0164999Y0207124D01*
X0165020Y0206966D01*
X0165038Y0206807D01*
X0165052Y0206648D01*
X0165062Y0206489D01*
X0165068Y0206330D01*
X0165070Y0206170D01*
X0165068Y0206010D01*
X0165062Y0205851D01*
X0165052Y0205692D01*
X0165038Y0205533D01*
X0165020Y0205374D01*
X0164999Y0205216D01*
X0164973Y0205059D01*
X0164943Y0204902D01*
X0164910Y0204746D01*
X0164872Y0204591D01*
X0164831Y0204437D01*
X0164786Y0204284D01*
X0164737Y0204132D01*
X0164684Y0203981D01*
X0164628Y0203832D01*
X0164567Y0203684D01*
X0164504Y0203538D01*
X0164436Y0203393D01*
X0164365Y0203250D01*
X0164291Y0203109D01*
X0164213Y0202970D01*
X0164131Y0202833D01*
X0164046Y0202698D01*
X0163958Y0202565D01*
X0163866Y0202434D01*
X0163772Y0202306D01*
X0163674Y0202180D01*
X0163573Y0202056D01*
X0163469Y0201935D01*
X0163362Y0201817D01*
X0163252Y0201701D01*
X0163139Y0201588D01*
X0163023Y0201478D01*
X0162905Y0201371D01*
X0162784Y0201267D01*
X0162660Y0201166D01*
X0162534Y0201068D01*
X0162406Y0200974D01*
X0162275Y0200882D01*
X0162142Y0200794D01*
X0162007Y0200709D01*
X0161870Y0200627D01*
X0161731Y0200549D01*
X0161590Y0200475D01*
X0161447Y0200404D01*
X0161302Y0200336D01*
X0161156Y0200273D01*
X0161008Y0200212D01*
X0160859Y0200156D01*
X0160708Y0200103D01*
X0160556Y0200054D01*
X0160403Y0200009D01*
X0160249Y0199968D01*
X0160094Y0199930D01*
X0159938Y0199897D01*
X0159781Y0199867D01*
X0159624Y0199841D01*
X0159466Y0199820D01*
X0159307Y0199802D01*
X0159148Y0199788D01*
X0158989Y0199778D01*
X0158830Y0199772D01*
X0158670Y0199770D01*
X0158510Y0199772D01*
X0158351Y0199778D01*
X0158192Y0199788D01*
X0158033Y0199802D01*
X0157874Y0199820D01*
X0157716Y0199841D01*
X0157559Y0199867D01*
X0157402Y0199897D01*
X0157246Y0199930D01*
X0157091Y0199968D01*
X0156937Y0200009D01*
X0156784Y0200054D01*
X0156632Y0200103D01*
X0156481Y0200156D01*
X0156332Y0200212D01*
X0156184Y0200273D01*
X0156038Y0200336D01*
X0155893Y0200404D01*
X0155750Y0200475D01*
X0155609Y0200549D01*
X0155470Y0200627D01*
X0155333Y0200709D01*
X0155198Y0200794D01*
X0155065Y0200882D01*
X0154934Y0200974D01*
X0154806Y0201068D01*
X0154680Y0201166D01*
X0154556Y0201267D01*
X0154435Y0201371D01*
X0154317Y0201478D01*
X0154201Y0201588D01*
X0154088Y0201701D01*
X0153978Y0201817D01*
X0153871Y0201935D01*
X0153767Y0202056D01*
X0153666Y0202180D01*
X0153568Y0202306D01*
X0153474Y0202434D01*
X0153382Y0202565D01*
X0153294Y0202698D01*
X0153209Y0202833D01*
X0153127Y0202970D01*
X0153049Y0203109D01*
X0152975Y0203250D01*
X0152904Y0203393D01*
X0152836Y0203538D01*
X0152773Y0203684D01*
X0152712Y0203832D01*
X0152656Y0203981D01*
X0152603Y0204132D01*
X0152554Y0204284D01*
X0152509Y0204437D01*
X0152468Y0204591D01*
X0152430Y0204746D01*
X0152397Y0204902D01*
X0152367Y0205059D01*
X0152341Y0205216D01*
X0152320Y0205374D01*
X0152302Y0205533D01*
X0152288Y0205692D01*
X0152278Y0205851D01*
X0152272Y0206010D01*
X0152270Y0206170D01*
D11*
X0153899Y0134303D02*
X0153899Y0128707D01*
X0152241Y0128707D01*
X0152241Y0134303D01*
X0153899Y0134303D01*
X0153899Y0129417D02*
X0152241Y0129417D01*
X0152241Y0130127D02*
X0153899Y0130127D01*
X0153899Y0130837D02*
X0152241Y0130837D01*
X0152241Y0131547D02*
X0153899Y0131547D01*
X0153899Y0132257D02*
X0152241Y0132257D01*
X0152241Y0132967D02*
X0153899Y0132967D01*
X0153899Y0133677D02*
X0152241Y0133677D01*
X0150749Y0134303D02*
X0150749Y0128707D01*
X0149091Y0128707D01*
X0149091Y0134303D01*
X0150749Y0134303D01*
X0150749Y0129417D02*
X0149091Y0129417D01*
X0149091Y0130127D02*
X0150749Y0130127D01*
X0150749Y0130837D02*
X0149091Y0130837D01*
X0149091Y0131547D02*
X0150749Y0131547D01*
X0150749Y0132257D02*
X0149091Y0132257D01*
X0149091Y0132967D02*
X0150749Y0132967D01*
X0150749Y0133677D02*
X0149091Y0133677D01*
X0147599Y0134303D02*
X0147599Y0128707D01*
X0145941Y0128707D01*
X0145941Y0134303D01*
X0147599Y0134303D01*
X0147599Y0129417D02*
X0145941Y0129417D01*
X0145941Y0130127D02*
X0147599Y0130127D01*
X0147599Y0130837D02*
X0145941Y0130837D01*
X0145941Y0131547D02*
X0147599Y0131547D01*
X0147599Y0132257D02*
X0145941Y0132257D01*
X0145941Y0132967D02*
X0147599Y0132967D01*
X0147599Y0133677D02*
X0145941Y0133677D01*
X0144450Y0134303D02*
X0144450Y0128707D01*
X0142792Y0128707D01*
X0142792Y0134303D01*
X0144450Y0134303D01*
X0144450Y0129417D02*
X0142792Y0129417D01*
X0142792Y0130127D02*
X0144450Y0130127D01*
X0144450Y0130837D02*
X0142792Y0130837D01*
X0142792Y0131547D02*
X0144450Y0131547D01*
X0144450Y0132257D02*
X0142792Y0132257D01*
X0142792Y0132967D02*
X0144450Y0132967D01*
X0144450Y0133677D02*
X0142792Y0133677D01*
X0141300Y0134303D02*
X0141300Y0128707D01*
X0139642Y0128707D01*
X0139642Y0134303D01*
X0141300Y0134303D01*
X0141300Y0129417D02*
X0139642Y0129417D01*
X0139642Y0130127D02*
X0141300Y0130127D01*
X0141300Y0130837D02*
X0139642Y0130837D01*
X0139642Y0131547D02*
X0141300Y0131547D01*
X0141300Y0132257D02*
X0139642Y0132257D01*
X0139642Y0132967D02*
X0141300Y0132967D01*
X0141300Y0133677D02*
X0139642Y0133677D01*
X0138151Y0134303D02*
X0138151Y0128707D01*
X0136493Y0128707D01*
X0136493Y0134303D01*
X0138151Y0134303D01*
X0138151Y0129417D02*
X0136493Y0129417D01*
X0136493Y0130127D02*
X0138151Y0130127D01*
X0138151Y0130837D02*
X0136493Y0130837D01*
X0136493Y0131547D02*
X0138151Y0131547D01*
X0138151Y0132257D02*
X0136493Y0132257D01*
X0136493Y0132967D02*
X0138151Y0132967D01*
X0138151Y0133677D02*
X0136493Y0133677D01*
X0135001Y0134303D02*
X0135001Y0128707D01*
X0133343Y0128707D01*
X0133343Y0134303D01*
X0135001Y0134303D01*
X0135001Y0129417D02*
X0133343Y0129417D01*
X0133343Y0130127D02*
X0135001Y0130127D01*
X0135001Y0130837D02*
X0133343Y0130837D01*
X0133343Y0131547D02*
X0135001Y0131547D01*
X0135001Y0132257D02*
X0133343Y0132257D01*
X0133343Y0132967D02*
X0135001Y0132967D01*
X0135001Y0133677D02*
X0133343Y0133677D01*
X0129883Y0125247D02*
X0129883Y0123589D01*
X0124287Y0123589D01*
X0124287Y0125247D01*
X0129883Y0125247D01*
X0129883Y0124299D02*
X0124287Y0124299D01*
X0124287Y0125009D02*
X0129883Y0125009D01*
X0129883Y0122098D02*
X0129883Y0120440D01*
X0124287Y0120440D01*
X0124287Y0122098D01*
X0129883Y0122098D01*
X0129883Y0121150D02*
X0124287Y0121150D01*
X0124287Y0121860D02*
X0129883Y0121860D01*
X0129883Y0118948D02*
X0129883Y0117290D01*
X0124287Y0117290D01*
X0124287Y0118948D01*
X0129883Y0118948D01*
X0129883Y0118000D02*
X0124287Y0118000D01*
X0124287Y0118710D02*
X0129883Y0118710D01*
X0129883Y0115798D02*
X0129883Y0114140D01*
X0124287Y0114140D01*
X0124287Y0115798D01*
X0129883Y0115798D01*
X0129883Y0114850D02*
X0124287Y0114850D01*
X0124287Y0115560D02*
X0129883Y0115560D01*
X0129883Y0112649D02*
X0129883Y0110991D01*
X0124287Y0110991D01*
X0124287Y0112649D01*
X0129883Y0112649D01*
X0129883Y0111701D02*
X0124287Y0111701D01*
X0124287Y0112411D02*
X0129883Y0112411D01*
X0129883Y0109499D02*
X0129883Y0107841D01*
X0124287Y0107841D01*
X0124287Y0109499D01*
X0129883Y0109499D01*
X0129883Y0108551D02*
X0124287Y0108551D01*
X0124287Y0109261D02*
X0129883Y0109261D01*
X0129883Y0106349D02*
X0129883Y0104691D01*
X0124287Y0104691D01*
X0124287Y0106349D01*
X0129883Y0106349D01*
X0129883Y0105401D02*
X0124287Y0105401D01*
X0124287Y0106111D02*
X0129883Y0106111D01*
X0129883Y0103200D02*
X0129883Y0101542D01*
X0124287Y0101542D01*
X0124287Y0103200D01*
X0129883Y0103200D01*
X0129883Y0102252D02*
X0124287Y0102252D01*
X0124287Y0102962D02*
X0129883Y0102962D01*
X0129883Y0100050D02*
X0129883Y0098392D01*
X0124287Y0098392D01*
X0124287Y0100050D01*
X0129883Y0100050D01*
X0129883Y0099102D02*
X0124287Y0099102D01*
X0124287Y0099812D02*
X0129883Y0099812D01*
X0129883Y0096901D02*
X0129883Y0095243D01*
X0124287Y0095243D01*
X0124287Y0096901D01*
X0129883Y0096901D01*
X0129883Y0095953D02*
X0124287Y0095953D01*
X0124287Y0096663D02*
X0129883Y0096663D01*
X0129883Y0093751D02*
X0129883Y0092093D01*
X0124287Y0092093D01*
X0124287Y0093751D01*
X0129883Y0093751D01*
X0129883Y0092803D02*
X0124287Y0092803D01*
X0124287Y0093513D02*
X0129883Y0093513D01*
X0135001Y0088633D02*
X0135001Y0083037D01*
X0133343Y0083037D01*
X0133343Y0088633D01*
X0135001Y0088633D01*
X0135001Y0083747D02*
X0133343Y0083747D01*
X0133343Y0084457D02*
X0135001Y0084457D01*
X0135001Y0085167D02*
X0133343Y0085167D01*
X0133343Y0085877D02*
X0135001Y0085877D01*
X0135001Y0086587D02*
X0133343Y0086587D01*
X0133343Y0087297D02*
X0135001Y0087297D01*
X0135001Y0088007D02*
X0133343Y0088007D01*
X0138151Y0088633D02*
X0138151Y0083037D01*
X0136493Y0083037D01*
X0136493Y0088633D01*
X0138151Y0088633D01*
X0138151Y0083747D02*
X0136493Y0083747D01*
X0136493Y0084457D02*
X0138151Y0084457D01*
X0138151Y0085167D02*
X0136493Y0085167D01*
X0136493Y0085877D02*
X0138151Y0085877D01*
X0138151Y0086587D02*
X0136493Y0086587D01*
X0136493Y0087297D02*
X0138151Y0087297D01*
X0138151Y0088007D02*
X0136493Y0088007D01*
X0141300Y0088633D02*
X0141300Y0083037D01*
X0139642Y0083037D01*
X0139642Y0088633D01*
X0141300Y0088633D01*
X0141300Y0083747D02*
X0139642Y0083747D01*
X0139642Y0084457D02*
X0141300Y0084457D01*
X0141300Y0085167D02*
X0139642Y0085167D01*
X0139642Y0085877D02*
X0141300Y0085877D01*
X0141300Y0086587D02*
X0139642Y0086587D01*
X0139642Y0087297D02*
X0141300Y0087297D01*
X0141300Y0088007D02*
X0139642Y0088007D01*
X0144450Y0088633D02*
X0144450Y0083037D01*
X0142792Y0083037D01*
X0142792Y0088633D01*
X0144450Y0088633D01*
X0144450Y0083747D02*
X0142792Y0083747D01*
X0142792Y0084457D02*
X0144450Y0084457D01*
X0144450Y0085167D02*
X0142792Y0085167D01*
X0142792Y0085877D02*
X0144450Y0085877D01*
X0144450Y0086587D02*
X0142792Y0086587D01*
X0142792Y0087297D02*
X0144450Y0087297D01*
X0144450Y0088007D02*
X0142792Y0088007D01*
X0147599Y0088633D02*
X0147599Y0083037D01*
X0145941Y0083037D01*
X0145941Y0088633D01*
X0147599Y0088633D01*
X0147599Y0083747D02*
X0145941Y0083747D01*
X0145941Y0084457D02*
X0147599Y0084457D01*
X0147599Y0085167D02*
X0145941Y0085167D01*
X0145941Y0085877D02*
X0147599Y0085877D01*
X0147599Y0086587D02*
X0145941Y0086587D01*
X0145941Y0087297D02*
X0147599Y0087297D01*
X0147599Y0088007D02*
X0145941Y0088007D01*
X0150749Y0088633D02*
X0150749Y0083037D01*
X0149091Y0083037D01*
X0149091Y0088633D01*
X0150749Y0088633D01*
X0150749Y0083747D02*
X0149091Y0083747D01*
X0149091Y0084457D02*
X0150749Y0084457D01*
X0150749Y0085167D02*
X0149091Y0085167D01*
X0149091Y0085877D02*
X0150749Y0085877D01*
X0150749Y0086587D02*
X0149091Y0086587D01*
X0149091Y0087297D02*
X0150749Y0087297D01*
X0150749Y0088007D02*
X0149091Y0088007D01*
X0153899Y0088633D02*
X0153899Y0083037D01*
X0152241Y0083037D01*
X0152241Y0088633D01*
X0153899Y0088633D01*
X0153899Y0083747D02*
X0152241Y0083747D01*
X0152241Y0084457D02*
X0153899Y0084457D01*
X0153899Y0085167D02*
X0152241Y0085167D01*
X0152241Y0085877D02*
X0153899Y0085877D01*
X0153899Y0086587D02*
X0152241Y0086587D01*
X0152241Y0087297D02*
X0153899Y0087297D01*
X0153899Y0088007D02*
X0152241Y0088007D01*
X0157048Y0088633D02*
X0157048Y0083037D01*
X0155390Y0083037D01*
X0155390Y0088633D01*
X0157048Y0088633D01*
X0157048Y0083747D02*
X0155390Y0083747D01*
X0155390Y0084457D02*
X0157048Y0084457D01*
X0157048Y0085167D02*
X0155390Y0085167D01*
X0155390Y0085877D02*
X0157048Y0085877D01*
X0157048Y0086587D02*
X0155390Y0086587D01*
X0155390Y0087297D02*
X0157048Y0087297D01*
X0157048Y0088007D02*
X0155390Y0088007D01*
X0160198Y0088633D02*
X0160198Y0083037D01*
X0158540Y0083037D01*
X0158540Y0088633D01*
X0160198Y0088633D01*
X0160198Y0083747D02*
X0158540Y0083747D01*
X0158540Y0084457D02*
X0160198Y0084457D01*
X0160198Y0085167D02*
X0158540Y0085167D01*
X0158540Y0085877D02*
X0160198Y0085877D01*
X0160198Y0086587D02*
X0158540Y0086587D01*
X0158540Y0087297D02*
X0160198Y0087297D01*
X0160198Y0088007D02*
X0158540Y0088007D01*
X0163348Y0088633D02*
X0163348Y0083037D01*
X0161690Y0083037D01*
X0161690Y0088633D01*
X0163348Y0088633D01*
X0163348Y0083747D02*
X0161690Y0083747D01*
X0161690Y0084457D02*
X0163348Y0084457D01*
X0163348Y0085167D02*
X0161690Y0085167D01*
X0161690Y0085877D02*
X0163348Y0085877D01*
X0163348Y0086587D02*
X0161690Y0086587D01*
X0161690Y0087297D02*
X0163348Y0087297D01*
X0163348Y0088007D02*
X0161690Y0088007D01*
X0166497Y0088633D02*
X0166497Y0083037D01*
X0164839Y0083037D01*
X0164839Y0088633D01*
X0166497Y0088633D01*
X0166497Y0083747D02*
X0164839Y0083747D01*
X0164839Y0084457D02*
X0166497Y0084457D01*
X0166497Y0085167D02*
X0164839Y0085167D01*
X0164839Y0085877D02*
X0166497Y0085877D01*
X0166497Y0086587D02*
X0164839Y0086587D01*
X0164839Y0087297D02*
X0166497Y0087297D01*
X0166497Y0088007D02*
X0164839Y0088007D01*
X0175553Y0092093D02*
X0175553Y0093751D01*
X0175553Y0092093D02*
X0169957Y0092093D01*
X0169957Y0093751D01*
X0175553Y0093751D01*
X0175553Y0092803D02*
X0169957Y0092803D01*
X0169957Y0093513D02*
X0175553Y0093513D01*
X0175553Y0095243D02*
X0175553Y0096901D01*
X0175553Y0095243D02*
X0169957Y0095243D01*
X0169957Y0096901D01*
X0175553Y0096901D01*
X0175553Y0095953D02*
X0169957Y0095953D01*
X0169957Y0096663D02*
X0175553Y0096663D01*
X0175553Y0098392D02*
X0175553Y0100050D01*
X0175553Y0098392D02*
X0169957Y0098392D01*
X0169957Y0100050D01*
X0175553Y0100050D01*
X0175553Y0099102D02*
X0169957Y0099102D01*
X0169957Y0099812D02*
X0175553Y0099812D01*
X0175553Y0101542D02*
X0175553Y0103200D01*
X0175553Y0101542D02*
X0169957Y0101542D01*
X0169957Y0103200D01*
X0175553Y0103200D01*
X0175553Y0102252D02*
X0169957Y0102252D01*
X0169957Y0102962D02*
X0175553Y0102962D01*
X0175553Y0104691D02*
X0175553Y0106349D01*
X0175553Y0104691D02*
X0169957Y0104691D01*
X0169957Y0106349D01*
X0175553Y0106349D01*
X0175553Y0105401D02*
X0169957Y0105401D01*
X0169957Y0106111D02*
X0175553Y0106111D01*
X0175553Y0107841D02*
X0175553Y0109499D01*
X0175553Y0107841D02*
X0169957Y0107841D01*
X0169957Y0109499D01*
X0175553Y0109499D01*
X0175553Y0108551D02*
X0169957Y0108551D01*
X0169957Y0109261D02*
X0175553Y0109261D01*
X0175553Y0110991D02*
X0175553Y0112649D01*
X0175553Y0110991D02*
X0169957Y0110991D01*
X0169957Y0112649D01*
X0175553Y0112649D01*
X0175553Y0111701D02*
X0169957Y0111701D01*
X0169957Y0112411D02*
X0175553Y0112411D01*
X0175553Y0114140D02*
X0175553Y0115798D01*
X0175553Y0114140D02*
X0169957Y0114140D01*
X0169957Y0115798D01*
X0175553Y0115798D01*
X0175553Y0114850D02*
X0169957Y0114850D01*
X0169957Y0115560D02*
X0175553Y0115560D01*
X0175553Y0117290D02*
X0175553Y0118948D01*
X0175553Y0117290D02*
X0169957Y0117290D01*
X0169957Y0118948D01*
X0175553Y0118948D01*
X0175553Y0118000D02*
X0169957Y0118000D01*
X0169957Y0118710D02*
X0175553Y0118710D01*
X0175553Y0120440D02*
X0175553Y0122098D01*
X0175553Y0120440D02*
X0169957Y0120440D01*
X0169957Y0122098D01*
X0175553Y0122098D01*
X0175553Y0121150D02*
X0169957Y0121150D01*
X0169957Y0121860D02*
X0175553Y0121860D01*
X0175553Y0123589D02*
X0175553Y0125247D01*
X0175553Y0123589D02*
X0169957Y0123589D01*
X0169957Y0125247D01*
X0175553Y0125247D01*
X0175553Y0124299D02*
X0169957Y0124299D01*
X0169957Y0125009D02*
X0175553Y0125009D01*
X0166497Y0128707D02*
X0166497Y0134303D01*
X0166497Y0128707D02*
X0164839Y0128707D01*
X0164839Y0134303D01*
X0166497Y0134303D01*
X0166497Y0129417D02*
X0164839Y0129417D01*
X0164839Y0130127D02*
X0166497Y0130127D01*
X0166497Y0130837D02*
X0164839Y0130837D01*
X0164839Y0131547D02*
X0166497Y0131547D01*
X0166497Y0132257D02*
X0164839Y0132257D01*
X0164839Y0132967D02*
X0166497Y0132967D01*
X0166497Y0133677D02*
X0164839Y0133677D01*
X0163348Y0134303D02*
X0163348Y0128707D01*
X0161690Y0128707D01*
X0161690Y0134303D01*
X0163348Y0134303D01*
X0163348Y0129417D02*
X0161690Y0129417D01*
X0161690Y0130127D02*
X0163348Y0130127D01*
X0163348Y0130837D02*
X0161690Y0130837D01*
X0161690Y0131547D02*
X0163348Y0131547D01*
X0163348Y0132257D02*
X0161690Y0132257D01*
X0161690Y0132967D02*
X0163348Y0132967D01*
X0163348Y0133677D02*
X0161690Y0133677D01*
X0160198Y0134303D02*
X0160198Y0128707D01*
X0158540Y0128707D01*
X0158540Y0134303D01*
X0160198Y0134303D01*
X0160198Y0129417D02*
X0158540Y0129417D01*
X0158540Y0130127D02*
X0160198Y0130127D01*
X0160198Y0130837D02*
X0158540Y0130837D01*
X0158540Y0131547D02*
X0160198Y0131547D01*
X0160198Y0132257D02*
X0158540Y0132257D01*
X0158540Y0132967D02*
X0160198Y0132967D01*
X0160198Y0133677D02*
X0158540Y0133677D01*
X0157048Y0134303D02*
X0157048Y0128707D01*
X0155390Y0128707D01*
X0155390Y0134303D01*
X0157048Y0134303D01*
X0157048Y0129417D02*
X0155390Y0129417D01*
X0155390Y0130127D02*
X0157048Y0130127D01*
X0157048Y0130837D02*
X0155390Y0130837D01*
X0155390Y0131547D02*
X0157048Y0131547D01*
X0157048Y0132257D02*
X0155390Y0132257D01*
X0155390Y0132967D02*
X0157048Y0132967D01*
X0157048Y0133677D02*
X0155390Y0133677D01*
D12*
X0168609Y0133402D02*
X0172039Y0133402D01*
X0168609Y0133402D02*
X0168609Y0136438D01*
X0172039Y0136438D01*
X0172039Y0133402D01*
X0172039Y0134702D02*
X0168609Y0134702D01*
X0168609Y0136002D02*
X0172039Y0136002D01*
X0175302Y0133402D02*
X0178732Y0133402D01*
X0175302Y0133402D02*
X0175302Y0136438D01*
X0178732Y0136438D01*
X0178732Y0133402D01*
X0178732Y0134702D02*
X0175302Y0134702D01*
X0175302Y0136002D02*
X0178732Y0136002D01*
X0178732Y0162688D02*
X0175302Y0162688D01*
X0178732Y0162688D02*
X0178732Y0159652D01*
X0175302Y0159652D01*
X0175302Y0162688D01*
X0175302Y0160952D02*
X0178732Y0160952D01*
X0178732Y0162252D02*
X0175302Y0162252D01*
X0172039Y0162688D02*
X0168609Y0162688D01*
X0172039Y0162688D02*
X0172039Y0159652D01*
X0168609Y0159652D01*
X0168609Y0162688D01*
X0168609Y0160952D02*
X0172039Y0160952D01*
X0172039Y0162252D02*
X0168609Y0162252D01*
X0117482Y0146438D02*
X0114052Y0146438D01*
X0117482Y0146438D02*
X0117482Y0143402D01*
X0114052Y0143402D01*
X0114052Y0146438D01*
X0114052Y0144702D02*
X0117482Y0144702D01*
X0117482Y0146002D02*
X0114052Y0146002D01*
X0110789Y0146438D02*
X0107359Y0146438D01*
X0110789Y0146438D02*
X0110789Y0143402D01*
X0107359Y0143402D01*
X0107359Y0146438D01*
X0107359Y0144702D02*
X0110789Y0144702D01*
X0110789Y0146002D02*
X0107359Y0146002D01*
X0107556Y0134455D02*
X0110592Y0134455D01*
X0107556Y0134455D02*
X0107556Y0137885D01*
X0110592Y0137885D01*
X0110592Y0134455D01*
X0110592Y0135755D02*
X0107556Y0135755D01*
X0107556Y0137055D02*
X0110592Y0137055D01*
X0114249Y0134455D02*
X0117285Y0134455D01*
X0114249Y0134455D02*
X0114249Y0137885D01*
X0117285Y0137885D01*
X0117285Y0134455D01*
X0117285Y0135755D02*
X0114249Y0135755D01*
X0114249Y0137055D02*
X0117285Y0137055D01*
X0101035Y0106955D02*
X0097999Y0106955D01*
X0097999Y0110385D01*
X0101035Y0110385D01*
X0101035Y0106955D01*
X0101035Y0108255D02*
X0097999Y0108255D01*
X0097999Y0109555D02*
X0101035Y0109555D01*
X0094342Y0106955D02*
X0091306Y0106955D01*
X0091306Y0110385D01*
X0094342Y0110385D01*
X0094342Y0106955D01*
X0094342Y0108255D02*
X0091306Y0108255D01*
X0091306Y0109555D02*
X0094342Y0109555D01*
X0088732Y0110188D02*
X0085302Y0110188D01*
X0088732Y0110188D02*
X0088732Y0107152D01*
X0085302Y0107152D01*
X0085302Y0110188D01*
X0085302Y0108452D02*
X0088732Y0108452D01*
X0088732Y0109752D02*
X0085302Y0109752D01*
X0082039Y0110188D02*
X0078609Y0110188D01*
X0082039Y0110188D02*
X0082039Y0107152D01*
X0078609Y0107152D01*
X0078609Y0110188D01*
X0078609Y0108452D02*
X0082039Y0108452D01*
X0082039Y0109752D02*
X0078609Y0109752D01*
X0069785Y0106955D02*
X0066749Y0106955D01*
X0066749Y0110385D01*
X0069785Y0110385D01*
X0069785Y0106955D01*
X0069785Y0108255D02*
X0066749Y0108255D01*
X0066749Y0109555D02*
X0069785Y0109555D01*
X0063092Y0106955D02*
X0060056Y0106955D01*
X0060056Y0110385D01*
X0063092Y0110385D01*
X0063092Y0106955D01*
X0063092Y0108255D02*
X0060056Y0108255D01*
X0060056Y0109555D02*
X0063092Y0109555D01*
X0100056Y0067885D02*
X0103092Y0067885D01*
X0103092Y0064455D01*
X0100056Y0064455D01*
X0100056Y0067885D01*
X0100056Y0065755D02*
X0103092Y0065755D01*
X0103092Y0067055D02*
X0100056Y0067055D01*
X0106749Y0067885D02*
X0109785Y0067885D01*
X0109785Y0064455D01*
X0106749Y0064455D01*
X0106749Y0067885D01*
X0106749Y0065755D02*
X0109785Y0065755D01*
X0109785Y0067055D02*
X0106749Y0067055D01*
X0114652Y0071109D02*
X0114652Y0074539D01*
X0117688Y0074539D01*
X0117688Y0071109D01*
X0114652Y0071109D01*
X0114652Y0072409D02*
X0117688Y0072409D01*
X0117688Y0073709D02*
X0114652Y0073709D01*
X0114652Y0077802D02*
X0114652Y0081232D01*
X0117688Y0081232D01*
X0117688Y0077802D01*
X0114652Y0077802D01*
X0114652Y0079102D02*
X0117688Y0079102D01*
X0117688Y0080402D02*
X0114652Y0080402D01*
X0127885Y0081035D02*
X0127885Y0077999D01*
X0124455Y0077999D01*
X0124455Y0081035D01*
X0127885Y0081035D01*
X0127885Y0079299D02*
X0124455Y0079299D01*
X0124455Y0080599D02*
X0127885Y0080599D01*
X0127885Y0074342D02*
X0127885Y0071306D01*
X0124455Y0071306D01*
X0124455Y0074342D01*
X0127885Y0074342D01*
X0127885Y0072606D02*
X0124455Y0072606D01*
X0124455Y0073906D02*
X0127885Y0073906D01*
X0154652Y0073289D02*
X0154652Y0069859D01*
X0154652Y0073289D02*
X0157688Y0073289D01*
X0157688Y0069859D01*
X0154652Y0069859D01*
X0154652Y0071159D02*
X0157688Y0071159D01*
X0157688Y0072459D02*
X0154652Y0072459D01*
X0154652Y0076552D02*
X0154652Y0079982D01*
X0157688Y0079982D01*
X0157688Y0076552D01*
X0154652Y0076552D01*
X0154652Y0077852D02*
X0157688Y0077852D01*
X0157688Y0079152D02*
X0154652Y0079152D01*
X0184662Y0085307D02*
X0187698Y0085307D01*
X0187698Y0080695D01*
X0184662Y0080695D01*
X0184662Y0085307D01*
X0184662Y0081995D02*
X0187698Y0081995D01*
X0187698Y0083295D02*
X0184662Y0083295D01*
X0184662Y0084595D02*
X0187698Y0084595D01*
X0192142Y0085307D02*
X0195178Y0085307D01*
X0195178Y0080695D01*
X0192142Y0080695D01*
X0192142Y0085307D01*
X0192142Y0081995D02*
X0195178Y0081995D01*
X0195178Y0083295D02*
X0192142Y0083295D01*
X0192142Y0084595D02*
X0195178Y0084595D01*
X0198806Y0085385D02*
X0201842Y0085385D01*
X0201842Y0081955D01*
X0198806Y0081955D01*
X0198806Y0085385D01*
X0198806Y0083255D02*
X0201842Y0083255D01*
X0201842Y0084555D02*
X0198806Y0084555D01*
X0205499Y0085385D02*
X0208535Y0085385D01*
X0208535Y0081955D01*
X0205499Y0081955D01*
X0205499Y0085385D01*
X0205499Y0083255D02*
X0208535Y0083255D01*
X0208535Y0084555D02*
X0205499Y0084555D01*
X0194785Y0094135D02*
X0191749Y0094135D01*
X0194785Y0094135D02*
X0194785Y0090705D01*
X0191749Y0090705D01*
X0191749Y0094135D01*
X0191749Y0092005D02*
X0194785Y0092005D01*
X0194785Y0093305D02*
X0191749Y0093305D01*
X0188092Y0094135D02*
X0185056Y0094135D01*
X0188092Y0094135D02*
X0188092Y0090705D01*
X0185056Y0090705D01*
X0185056Y0094135D01*
X0185056Y0092005D02*
X0188092Y0092005D01*
X0188092Y0093305D02*
X0185056Y0093305D01*
X0185902Y0102359D02*
X0185902Y0105789D01*
X0188938Y0105789D01*
X0188938Y0102359D01*
X0185902Y0102359D01*
X0185902Y0103659D02*
X0188938Y0103659D01*
X0188938Y0104959D02*
X0185902Y0104959D01*
X0185902Y0109052D02*
X0185902Y0112482D01*
X0188938Y0112482D01*
X0188938Y0109052D01*
X0185902Y0109052D01*
X0185902Y0110352D02*
X0188938Y0110352D01*
X0188938Y0111652D02*
X0185902Y0111652D01*
X0188402Y0076645D02*
X0191438Y0076645D01*
X0191438Y0072033D01*
X0188402Y0072033D01*
X0188402Y0076645D01*
X0188402Y0073333D02*
X0191438Y0073333D01*
X0191438Y0074633D02*
X0188402Y0074633D01*
X0188402Y0075933D02*
X0191438Y0075933D01*
X0198806Y0075385D02*
X0201842Y0075385D01*
X0201842Y0071955D01*
X0198806Y0071955D01*
X0198806Y0075385D01*
X0198806Y0073255D02*
X0201842Y0073255D01*
X0201842Y0074555D02*
X0198806Y0074555D01*
X0205499Y0075385D02*
X0208535Y0075385D01*
X0208535Y0071955D01*
X0205499Y0071955D01*
X0205499Y0075385D01*
X0205499Y0073255D02*
X0208535Y0073255D01*
X0208535Y0074555D02*
X0205499Y0074555D01*
X0207359Y0210902D02*
X0210789Y0210902D01*
X0207359Y0210902D02*
X0207359Y0213938D01*
X0210789Y0213938D01*
X0210789Y0210902D01*
X0210789Y0212202D02*
X0207359Y0212202D01*
X0207359Y0213502D02*
X0210789Y0213502D01*
X0214052Y0210902D02*
X0217482Y0210902D01*
X0214052Y0210902D02*
X0214052Y0213938D01*
X0217482Y0213938D01*
X0217482Y0210902D01*
X0217482Y0212202D02*
X0214052Y0212202D01*
X0214052Y0213502D02*
X0217482Y0213502D01*
D13*
X0221170Y0061170D03*
X0221170Y0051170D03*
X0211170Y0051170D03*
X0201170Y0051170D03*
X0191170Y0051170D03*
X0181170Y0051170D03*
X0181170Y0061170D03*
X0191170Y0061170D03*
X0201170Y0061170D03*
X0211170Y0061170D03*
X0161170Y0061170D03*
X0151170Y0061170D03*
X0151170Y0051170D03*
X0161170Y0051170D03*
X0141170Y0051170D03*
X0131170Y0051170D03*
X0121170Y0051170D03*
X0121170Y0061170D03*
X0131170Y0061170D03*
X0141170Y0061170D03*
D14*
X0093913Y0117542D02*
X0093913Y0121492D01*
X0093913Y0117542D02*
X0092463Y0117542D01*
X0092463Y0121492D01*
X0093913Y0121492D01*
X0093913Y0118991D02*
X0092463Y0118991D01*
X0092463Y0120440D02*
X0093913Y0120440D01*
X0088913Y0121492D02*
X0088913Y0117542D01*
X0087463Y0117542D01*
X0087463Y0121492D01*
X0088913Y0121492D01*
X0088913Y0118991D02*
X0087463Y0118991D01*
X0087463Y0120440D02*
X0088913Y0120440D01*
X0083913Y0121492D02*
X0083913Y0117542D01*
X0082463Y0117542D01*
X0082463Y0121492D01*
X0083913Y0121492D01*
X0083913Y0118991D02*
X0082463Y0118991D01*
X0082463Y0120440D02*
X0083913Y0120440D01*
X0078913Y0121492D02*
X0078913Y0117542D01*
X0077463Y0117542D01*
X0077463Y0121492D01*
X0078913Y0121492D01*
X0078913Y0118991D02*
X0077463Y0118991D01*
X0077463Y0120440D02*
X0078913Y0120440D01*
X0073913Y0121492D02*
X0073913Y0117542D01*
X0072463Y0117542D01*
X0072463Y0121492D01*
X0073913Y0121492D01*
X0073913Y0118991D02*
X0072463Y0118991D01*
X0072463Y0120440D02*
X0073913Y0120440D01*
X0068913Y0121492D02*
X0068913Y0117542D01*
X0067463Y0117542D01*
X0067463Y0121492D01*
X0068913Y0121492D01*
X0068913Y0118991D02*
X0067463Y0118991D01*
X0067463Y0120440D02*
X0068913Y0120440D01*
X0063913Y0121492D02*
X0063913Y0117542D01*
X0062463Y0117542D01*
X0062463Y0121492D01*
X0063913Y0121492D01*
X0063913Y0118991D02*
X0062463Y0118991D01*
X0062463Y0120440D02*
X0063913Y0120440D01*
X0058913Y0121492D02*
X0058913Y0117542D01*
X0057463Y0117542D01*
X0057463Y0121492D01*
X0058913Y0121492D01*
X0058913Y0118991D02*
X0057463Y0118991D01*
X0057463Y0120440D02*
X0058913Y0120440D01*
X0058913Y0150337D02*
X0058913Y0154287D01*
X0058913Y0150337D02*
X0057463Y0150337D01*
X0057463Y0154287D01*
X0058913Y0154287D01*
X0058913Y0151786D02*
X0057463Y0151786D01*
X0057463Y0153235D02*
X0058913Y0153235D01*
X0063913Y0154287D02*
X0063913Y0150337D01*
X0062463Y0150337D01*
X0062463Y0154287D01*
X0063913Y0154287D01*
X0063913Y0151786D02*
X0062463Y0151786D01*
X0062463Y0153235D02*
X0063913Y0153235D01*
X0068913Y0154287D02*
X0068913Y0150337D01*
X0067463Y0150337D01*
X0067463Y0154287D01*
X0068913Y0154287D01*
X0068913Y0151786D02*
X0067463Y0151786D01*
X0067463Y0153235D02*
X0068913Y0153235D01*
X0073913Y0154287D02*
X0073913Y0150337D01*
X0072463Y0150337D01*
X0072463Y0154287D01*
X0073913Y0154287D01*
X0073913Y0151786D02*
X0072463Y0151786D01*
X0072463Y0153235D02*
X0073913Y0153235D01*
X0078913Y0154287D02*
X0078913Y0150337D01*
X0077463Y0150337D01*
X0077463Y0154287D01*
X0078913Y0154287D01*
X0078913Y0151786D02*
X0077463Y0151786D01*
X0077463Y0153235D02*
X0078913Y0153235D01*
X0083913Y0154287D02*
X0083913Y0150337D01*
X0082463Y0150337D01*
X0082463Y0154287D01*
X0083913Y0154287D01*
X0083913Y0151786D02*
X0082463Y0151786D01*
X0082463Y0153235D02*
X0083913Y0153235D01*
X0088913Y0154287D02*
X0088913Y0150337D01*
X0087463Y0150337D01*
X0087463Y0154287D01*
X0088913Y0154287D01*
X0088913Y0151786D02*
X0087463Y0151786D01*
X0087463Y0153235D02*
X0088913Y0153235D01*
X0093913Y0154287D02*
X0093913Y0150337D01*
X0092463Y0150337D01*
X0092463Y0154287D01*
X0093913Y0154287D01*
X0093913Y0151786D02*
X0092463Y0151786D01*
X0092463Y0153235D02*
X0093913Y0153235D01*
D15*
X0136601Y0146718D02*
X0139479Y0146718D01*
X0136601Y0146718D02*
X0136601Y0149204D01*
X0139479Y0149204D01*
X0139479Y0146718D01*
X0139479Y0147782D02*
X0136601Y0147782D01*
X0136601Y0148846D02*
X0139479Y0148846D01*
X0139479Y0158136D02*
X0136601Y0158136D01*
X0136601Y0160622D01*
X0139479Y0160622D01*
X0139479Y0158136D01*
X0139479Y0159200D02*
X0136601Y0159200D01*
X0136601Y0160264D02*
X0139479Y0160264D01*
X0157861Y0158136D02*
X0160739Y0158136D01*
X0157861Y0158136D02*
X0157861Y0160622D01*
X0160739Y0160622D01*
X0160739Y0158136D01*
X0160739Y0159200D02*
X0157861Y0159200D01*
X0157861Y0160264D02*
X0160739Y0160264D01*
X0160739Y0146718D02*
X0157861Y0146718D01*
X0157861Y0149204D01*
X0160739Y0149204D01*
X0160739Y0146718D01*
X0160739Y0147782D02*
X0157861Y0147782D01*
X0157861Y0148846D02*
X0160739Y0148846D01*
X0092427Y0103180D02*
X0092427Y0097546D01*
X0092427Y0103180D02*
X0094913Y0103180D01*
X0094913Y0097546D01*
X0092427Y0097546D01*
X0092427Y0098610D02*
X0094913Y0098610D01*
X0094913Y0099674D02*
X0092427Y0099674D01*
X0092427Y0100738D02*
X0094913Y0100738D01*
X0094913Y0101802D02*
X0092427Y0101802D01*
X0092427Y0102866D02*
X0094913Y0102866D01*
X0083677Y0103180D02*
X0083677Y0097546D01*
X0083677Y0103180D02*
X0086163Y0103180D01*
X0086163Y0097546D01*
X0083677Y0097546D01*
X0083677Y0098610D02*
X0086163Y0098610D01*
X0086163Y0099674D02*
X0083677Y0099674D01*
X0083677Y0100738D02*
X0086163Y0100738D01*
X0086163Y0101802D02*
X0083677Y0101802D01*
X0083677Y0102866D02*
X0086163Y0102866D01*
X0067427Y0100680D02*
X0067427Y0095046D01*
X0067427Y0100680D02*
X0069913Y0100680D01*
X0069913Y0095046D01*
X0067427Y0095046D01*
X0067427Y0096110D02*
X0069913Y0096110D01*
X0069913Y0097174D02*
X0067427Y0097174D01*
X0067427Y0098238D02*
X0069913Y0098238D01*
X0069913Y0099302D02*
X0067427Y0099302D01*
X0067427Y0100366D02*
X0069913Y0100366D01*
X0057427Y0100680D02*
X0057427Y0095046D01*
X0057427Y0100680D02*
X0059913Y0100680D01*
X0059913Y0095046D01*
X0057427Y0095046D01*
X0057427Y0096110D02*
X0059913Y0096110D01*
X0059913Y0097174D02*
X0057427Y0097174D01*
X0057427Y0098238D02*
X0059913Y0098238D01*
X0059913Y0099302D02*
X0057427Y0099302D01*
X0057427Y0100366D02*
X0059913Y0100366D01*
X0057427Y0087294D02*
X0057427Y0081660D01*
X0057427Y0087294D02*
X0059913Y0087294D01*
X0059913Y0081660D01*
X0057427Y0081660D01*
X0057427Y0082724D02*
X0059913Y0082724D01*
X0059913Y0083788D02*
X0057427Y0083788D01*
X0057427Y0084852D02*
X0059913Y0084852D01*
X0059913Y0085916D02*
X0057427Y0085916D01*
X0057427Y0086980D02*
X0059913Y0086980D01*
X0067427Y0087294D02*
X0067427Y0081660D01*
X0067427Y0087294D02*
X0069913Y0087294D01*
X0069913Y0081660D01*
X0067427Y0081660D01*
X0067427Y0082724D02*
X0069913Y0082724D01*
X0069913Y0083788D02*
X0067427Y0083788D01*
X0067427Y0084852D02*
X0069913Y0084852D01*
X0069913Y0085916D02*
X0067427Y0085916D01*
X0067427Y0086980D02*
X0069913Y0086980D01*
X0067427Y0075680D02*
X0067427Y0070046D01*
X0067427Y0075680D02*
X0069913Y0075680D01*
X0069913Y0070046D01*
X0067427Y0070046D01*
X0067427Y0071110D02*
X0069913Y0071110D01*
X0069913Y0072174D02*
X0067427Y0072174D01*
X0067427Y0073238D02*
X0069913Y0073238D01*
X0069913Y0074302D02*
X0067427Y0074302D01*
X0067427Y0075366D02*
X0069913Y0075366D01*
X0077427Y0075680D02*
X0077427Y0070046D01*
X0077427Y0075680D02*
X0079913Y0075680D01*
X0079913Y0070046D01*
X0077427Y0070046D01*
X0077427Y0071110D02*
X0079913Y0071110D01*
X0079913Y0072174D02*
X0077427Y0072174D01*
X0077427Y0073238D02*
X0079913Y0073238D01*
X0079913Y0074302D02*
X0077427Y0074302D01*
X0077427Y0075366D02*
X0079913Y0075366D01*
X0087427Y0075680D02*
X0087427Y0070046D01*
X0087427Y0075680D02*
X0089913Y0075680D01*
X0089913Y0070046D01*
X0087427Y0070046D01*
X0087427Y0071110D02*
X0089913Y0071110D01*
X0089913Y0072174D02*
X0087427Y0072174D01*
X0087427Y0073238D02*
X0089913Y0073238D01*
X0089913Y0074302D02*
X0087427Y0074302D01*
X0087427Y0075366D02*
X0089913Y0075366D01*
X0092427Y0084160D02*
X0092427Y0089794D01*
X0094913Y0089794D01*
X0094913Y0084160D01*
X0092427Y0084160D01*
X0092427Y0085224D02*
X0094913Y0085224D01*
X0094913Y0086288D02*
X0092427Y0086288D01*
X0092427Y0087352D02*
X0094913Y0087352D01*
X0094913Y0088416D02*
X0092427Y0088416D01*
X0092427Y0089480D02*
X0094913Y0089480D01*
X0083677Y0089794D02*
X0083677Y0084160D01*
X0083677Y0089794D02*
X0086163Y0089794D01*
X0086163Y0084160D01*
X0083677Y0084160D01*
X0083677Y0085224D02*
X0086163Y0085224D01*
X0086163Y0086288D02*
X0083677Y0086288D01*
X0083677Y0087352D02*
X0086163Y0087352D01*
X0086163Y0088416D02*
X0083677Y0088416D01*
X0083677Y0089480D02*
X0086163Y0089480D01*
X0057427Y0075680D02*
X0057427Y0070046D01*
X0057427Y0075680D02*
X0059913Y0075680D01*
X0059913Y0070046D01*
X0057427Y0070046D01*
X0057427Y0071110D02*
X0059913Y0071110D01*
X0059913Y0072174D02*
X0057427Y0072174D01*
X0057427Y0073238D02*
X0059913Y0073238D01*
X0059913Y0074302D02*
X0057427Y0074302D01*
X0057427Y0075366D02*
X0059913Y0075366D01*
X0057427Y0062294D02*
X0057427Y0056660D01*
X0057427Y0062294D02*
X0059913Y0062294D01*
X0059913Y0056660D01*
X0057427Y0056660D01*
X0057427Y0057724D02*
X0059913Y0057724D01*
X0059913Y0058788D02*
X0057427Y0058788D01*
X0057427Y0059852D02*
X0059913Y0059852D01*
X0059913Y0060916D02*
X0057427Y0060916D01*
X0057427Y0061980D02*
X0059913Y0061980D01*
X0067427Y0062294D02*
X0067427Y0056660D01*
X0067427Y0062294D02*
X0069913Y0062294D01*
X0069913Y0056660D01*
X0067427Y0056660D01*
X0067427Y0057724D02*
X0069913Y0057724D01*
X0069913Y0058788D02*
X0067427Y0058788D01*
X0067427Y0059852D02*
X0069913Y0059852D01*
X0069913Y0060916D02*
X0067427Y0060916D01*
X0067427Y0061980D02*
X0069913Y0061980D01*
X0077427Y0062294D02*
X0077427Y0056660D01*
X0077427Y0062294D02*
X0079913Y0062294D01*
X0079913Y0056660D01*
X0077427Y0056660D01*
X0077427Y0057724D02*
X0079913Y0057724D01*
X0079913Y0058788D02*
X0077427Y0058788D01*
X0077427Y0059852D02*
X0079913Y0059852D01*
X0079913Y0060916D02*
X0077427Y0060916D01*
X0077427Y0061980D02*
X0079913Y0061980D01*
X0087427Y0062294D02*
X0087427Y0056660D01*
X0087427Y0062294D02*
X0089913Y0062294D01*
X0089913Y0056660D01*
X0087427Y0056660D01*
X0087427Y0057724D02*
X0089913Y0057724D01*
X0089913Y0058788D02*
X0087427Y0058788D01*
X0087427Y0059852D02*
X0089913Y0059852D01*
X0089913Y0060916D02*
X0087427Y0060916D01*
X0087427Y0061980D02*
X0089913Y0061980D01*
D16*
X0129145Y0132880D02*
X0129145Y0136468D01*
X0129145Y0132880D02*
X0123195Y0132880D01*
X0123195Y0136468D01*
X0129145Y0136468D01*
X0129145Y0134416D02*
X0123195Y0134416D01*
X0123195Y0135952D02*
X0129145Y0135952D01*
X0129145Y0145872D02*
X0129145Y0149460D01*
X0129145Y0145872D02*
X0123195Y0145872D01*
X0123195Y0149460D01*
X0129145Y0149460D01*
X0129145Y0147408D02*
X0123195Y0147408D01*
X0123195Y0148944D02*
X0129145Y0148944D01*
X0216330Y0085464D02*
X0216330Y0081876D01*
X0212742Y0081876D01*
X0212742Y0085464D01*
X0216330Y0085464D01*
X0216330Y0083412D02*
X0212742Y0083412D01*
X0212742Y0084948D02*
X0216330Y0084948D01*
X0224598Y0085464D02*
X0224598Y0081876D01*
X0221010Y0081876D01*
X0221010Y0085464D01*
X0224598Y0085464D01*
X0224598Y0083412D02*
X0221010Y0083412D01*
X0221010Y0084948D02*
X0224598Y0084948D01*
X0224598Y0075464D02*
X0224598Y0071876D01*
X0221010Y0071876D01*
X0221010Y0075464D01*
X0224598Y0075464D01*
X0224598Y0073412D02*
X0221010Y0073412D01*
X0221010Y0074948D02*
X0224598Y0074948D01*
X0216330Y0075464D02*
X0216330Y0071876D01*
X0212742Y0071876D01*
X0212742Y0075464D01*
X0216330Y0075464D01*
X0216330Y0073412D02*
X0212742Y0073412D01*
X0212742Y0074948D02*
X0216330Y0074948D01*
D17*
X0213295Y0130115D02*
X0207117Y0130115D01*
X0213295Y0130115D02*
X0213295Y0124725D01*
X0207117Y0124725D01*
X0207117Y0130115D01*
X0207117Y0126820D02*
X0213295Y0126820D01*
X0213295Y0128915D02*
X0207117Y0128915D01*
X0196759Y0130115D02*
X0190581Y0130115D01*
X0196759Y0130115D02*
X0196759Y0124725D01*
X0190581Y0124725D01*
X0190581Y0130115D01*
X0190581Y0126820D02*
X0196759Y0126820D01*
X0196759Y0128915D02*
X0190581Y0128915D01*
X0190581Y0150115D02*
X0196759Y0150115D01*
X0196759Y0144725D01*
X0190581Y0144725D01*
X0190581Y0150115D01*
X0190581Y0146820D02*
X0196759Y0146820D01*
X0196759Y0148915D02*
X0190581Y0148915D01*
X0190581Y0163865D02*
X0196759Y0163865D01*
X0196759Y0158475D01*
X0190581Y0158475D01*
X0190581Y0163865D01*
X0190581Y0160570D02*
X0196759Y0160570D01*
X0196759Y0162665D02*
X0190581Y0162665D01*
X0190581Y0183865D02*
X0196759Y0183865D01*
X0196759Y0178475D01*
X0190581Y0178475D01*
X0190581Y0183865D01*
X0190581Y0180570D02*
X0196759Y0180570D01*
X0196759Y0182665D02*
X0190581Y0182665D01*
X0207117Y0183865D02*
X0213295Y0183865D01*
X0213295Y0178475D01*
X0207117Y0178475D01*
X0207117Y0183865D01*
X0207117Y0180570D02*
X0213295Y0180570D01*
X0213295Y0182665D02*
X0207117Y0182665D01*
X0207117Y0163865D02*
X0213295Y0163865D01*
X0213295Y0158475D01*
X0207117Y0158475D01*
X0207117Y0163865D01*
X0207117Y0160570D02*
X0213295Y0160570D01*
X0213295Y0162665D02*
X0207117Y0162665D01*
X0207117Y0150115D02*
X0213295Y0150115D01*
X0213295Y0144725D01*
X0207117Y0144725D01*
X0207117Y0150115D01*
X0207117Y0146820D02*
X0213295Y0146820D01*
X0213295Y0148915D02*
X0207117Y0148915D01*
D18*
X0218370Y0149920D02*
X0223970Y0149920D01*
X0223970Y0139920D02*
X0218370Y0139920D01*
X0218370Y0159920D02*
X0223970Y0159920D01*
X0223970Y0111170D02*
X0218370Y0111170D01*
X0218370Y0101170D02*
X0223970Y0101170D01*
X0177720Y0081170D02*
X0172120Y0081170D01*
X0172120Y0071170D02*
X0177720Y0071170D01*
D19*
X0154893Y0146659D02*
X0152683Y0146659D01*
X0152683Y0149263D01*
X0154893Y0149263D01*
X0154893Y0146659D01*
X0154893Y0147605D02*
X0152683Y0147605D01*
X0152683Y0148551D02*
X0154893Y0148551D01*
X0149775Y0146659D02*
X0147565Y0146659D01*
X0147565Y0149263D01*
X0149775Y0149263D01*
X0149775Y0146659D01*
X0149775Y0147605D02*
X0147565Y0147605D01*
X0147565Y0148551D02*
X0149775Y0148551D01*
X0144657Y0146659D02*
X0142447Y0146659D01*
X0142447Y0149263D01*
X0144657Y0149263D01*
X0144657Y0146659D01*
X0144657Y0147605D02*
X0142447Y0147605D01*
X0142447Y0148551D02*
X0144657Y0148551D01*
X0144657Y0158077D02*
X0142447Y0158077D01*
X0142447Y0160681D01*
X0144657Y0160681D01*
X0144657Y0158077D01*
X0144657Y0159023D02*
X0142447Y0159023D01*
X0142447Y0159969D02*
X0144657Y0159969D01*
X0147565Y0158077D02*
X0149775Y0158077D01*
X0147565Y0158077D02*
X0147565Y0160681D01*
X0149775Y0160681D01*
X0149775Y0158077D01*
X0149775Y0159023D02*
X0147565Y0159023D01*
X0147565Y0159969D02*
X0149775Y0159969D01*
X0152683Y0158077D02*
X0154893Y0158077D01*
X0152683Y0158077D02*
X0152683Y0160681D01*
X0154893Y0160681D01*
X0154893Y0158077D01*
X0154893Y0159023D02*
X0152683Y0159023D01*
X0152683Y0159969D02*
X0154893Y0159969D01*
D20*
X0148670Y0171170D03*
X0138670Y0171170D03*
X0128670Y0171170D03*
X0118670Y0171170D03*
X0123670Y0181170D03*
X0133670Y0181170D03*
X0143670Y0181170D03*
X0153670Y0181170D03*
X0098670Y0181170D03*
X0088670Y0181170D03*
X0078670Y0181170D03*
X0068670Y0181170D03*
X0063670Y0171170D03*
X0073670Y0171170D03*
X0083670Y0171170D03*
X0093670Y0171170D03*
D21*
X0058670Y0206170D03*
X0158670Y0206170D03*
D22*
X0191503Y0204567D02*
X0199597Y0204567D01*
X0199597Y0202773D01*
X0191503Y0202773D01*
X0191503Y0204567D01*
X0191503Y0203542D02*
X0199597Y0203542D01*
X0199597Y0204311D02*
X0191503Y0204311D01*
X0191503Y0209567D02*
X0199597Y0209567D01*
X0199597Y0207773D01*
X0191503Y0207773D01*
X0191503Y0209567D01*
X0191503Y0208542D02*
X0199597Y0208542D01*
X0199597Y0209311D02*
X0191503Y0209311D01*
X0191503Y0214567D02*
X0199597Y0214567D01*
X0199597Y0212773D01*
X0191503Y0212773D01*
X0191503Y0214567D01*
X0191503Y0213542D02*
X0199597Y0213542D01*
X0199597Y0214311D02*
X0191503Y0214311D01*
X0191503Y0199567D02*
X0199597Y0199567D01*
X0199597Y0197773D01*
X0191503Y0197773D01*
X0191503Y0199567D01*
X0191503Y0198542D02*
X0199597Y0198542D01*
X0199597Y0199311D02*
X0191503Y0199311D01*
X0191503Y0194567D02*
X0199597Y0194567D01*
X0199597Y0192773D01*
X0191503Y0192773D01*
X0191503Y0194567D01*
X0191503Y0193542D02*
X0199597Y0193542D01*
X0199597Y0194311D02*
X0191503Y0194311D01*
D23*
X0176597Y0197426D02*
X0176597Y0209914D01*
X0176597Y0197426D02*
X0169621Y0197426D01*
X0169621Y0209914D01*
X0176597Y0209914D01*
X0176597Y0199509D02*
X0169621Y0199509D01*
X0169621Y0201592D02*
X0176597Y0201592D01*
X0176597Y0203675D02*
X0169621Y0203675D01*
X0169621Y0205758D02*
X0176597Y0205758D01*
X0176597Y0207841D02*
X0169621Y0207841D01*
D24*
X0204308Y0200479D02*
X0208722Y0200479D01*
X0204308Y0200479D02*
X0204308Y0206861D01*
X0208722Y0206861D01*
X0208722Y0200479D01*
X0208722Y0202370D02*
X0204308Y0202370D01*
X0204308Y0204261D02*
X0208722Y0204261D01*
X0208722Y0206152D02*
X0204308Y0206152D01*
X0204308Y0190479D02*
X0208722Y0190479D01*
X0204308Y0190479D02*
X0204308Y0196861D01*
X0208722Y0196861D01*
X0208722Y0190479D01*
X0208722Y0192370D02*
X0204308Y0192370D01*
X0204308Y0194261D02*
X0208722Y0194261D01*
X0208722Y0196152D02*
X0204308Y0196152D01*
X0216119Y0190479D02*
X0220533Y0190479D01*
X0216119Y0190479D02*
X0216119Y0196861D01*
X0220533Y0196861D01*
X0220533Y0190479D01*
X0220533Y0192370D02*
X0216119Y0192370D01*
X0216119Y0194261D02*
X0220533Y0194261D01*
X0220533Y0196152D02*
X0216119Y0196152D01*
X0216119Y0200479D02*
X0220533Y0200479D01*
X0216119Y0200479D02*
X0216119Y0206861D01*
X0220533Y0206861D01*
X0220533Y0200479D01*
X0220533Y0202370D02*
X0216119Y0202370D01*
X0216119Y0204261D02*
X0220533Y0204261D01*
X0220533Y0206152D02*
X0216119Y0206152D01*
D25*
X0109920Y0126170D03*
X0109920Y0113670D03*
X0109920Y0101170D03*
X0109920Y0088670D03*
D26*
X0168570Y0060920D02*
X0168570Y0057420D01*
X0168570Y0060920D02*
X0173770Y0060920D01*
X0173770Y0057420D01*
X0168570Y0057420D01*
X0168570Y0058919D02*
X0173770Y0058919D01*
X0173770Y0060418D02*
X0168570Y0060418D01*
X0168570Y0054920D02*
X0168570Y0051420D01*
X0168570Y0054920D02*
X0173770Y0054920D01*
X0173770Y0051420D01*
X0168570Y0051420D01*
X0168570Y0052919D02*
X0173770Y0052919D01*
X0173770Y0054418D02*
X0168570Y0054418D01*
X0217320Y0118920D02*
X0217320Y0122420D01*
X0222520Y0122420D01*
X0222520Y0118920D01*
X0217320Y0118920D01*
X0217320Y0120419D02*
X0222520Y0120419D01*
X0222520Y0121918D02*
X0217320Y0121918D01*
X0217320Y0124920D02*
X0217320Y0128420D01*
X0222520Y0128420D01*
X0222520Y0124920D01*
X0217320Y0124920D01*
X0217320Y0126419D02*
X0222520Y0126419D01*
X0222520Y0127918D02*
X0217320Y0127918D01*
D27*
X0219920Y0123670D03*
X0171170Y0056170D03*
D28*
X0257706Y0021485D03*
X0257706Y0218335D03*
X0021485Y0218335D03*
X0021485Y0021485D03*
M02*
