%
M48
M72
T01C0.02362
T02C0.03500
T03C0.03600
T04C0.04000
T05C0.05200
T06C0.12598
T07C0.12800
%
T01
X91170Y221170
X151170Y221170
X172420Y187420
X186170Y198670
X221170Y171170
X224920Y187420
X228670Y206170
X182420Y161170
X186170Y142420
X179920Y128670
X178670Y121170
X178670Y111170
X166170Y104920
X162420Y112420
X158670Y114920
X154920Y108670
X148670Y119920
X152420Y123670
X143670Y123670
X138045Y102420
X141170Y92420
X141170Y79920
X136170Y76170
X141170Y73670
X147420Y73670
X151170Y79920
X164295Y76170
X167420Y67420
X171170Y47420
X126170Y67420
X101170Y83670
X97420Y101170
X73670Y79920
X78670Y78670
X63670Y77420
X63670Y82420
X53670Y78670
X51170Y51170
X121170Y110545
X121170Y129920
X96170Y132420
X89920Y141170
X91170Y158670
X88670Y163670
X83670Y158670
X74920Y158670
X63670Y158670
X46170Y141170
X102420Y163670
X143670Y164920
X152420Y164920
X156170Y143670
X204920Y114920
X219920Y132420
X209920Y139920
X161170Y92420
X153670Y93670
T02
X63670Y171170
X73670Y171170
X83670Y171170
X93670Y171170
X88670Y181170
X78670Y181170
X68670Y181170
X98670Y181170
X118670Y171170
X128670Y171170
X138670Y171170
X148670Y171170
X143670Y181170
X133670Y181170
X123670Y181170
X153670Y181170
T03
X221170Y159920
X221170Y149920
X221170Y139920
X221170Y111170
X221170Y101170
X174920Y81170
X174920Y71170
T04
X121170Y51170
X131170Y51170
X131170Y61170
X121170Y61170
X141170Y61170
X141170Y51170
X151170Y51170
X161170Y51170
X161170Y61170
X151170Y61170
X181170Y61170
X181170Y51170
X191170Y51170
X191170Y61170
X201170Y61170
X211170Y61170
X211170Y51170
X201170Y51170
X221170Y51170
X221170Y61170
T05
X109920Y126170
X109920Y113670
X109920Y101170
X109920Y88670
T06
X21485Y218335
X257706Y218335
X257706Y21485
X21485Y21485
T07
X58670Y206170
X158670Y206170
M30
