G75*
%MOIN*%
%OFA0B0*%
%FSLAX25Y25*%
%IPPOS*%
%LPD*%
%AMOC8*
5,1,8,0,0,1.08239X$1,22.5*
%
%ADD10C,0.00000*%
%ADD11C,0.00800*%
%ADD12C,0.00591*%
%ADD13C,0.01181*%
%ADD14OC8,0.06000*%
%ADD15C,0.01250*%
%ADD16C,0.00945*%
%ADD17C,0.01417*%
%ADD18C,0.01984*%
%ADD19C,0.05600*%
%ADD20C,0.00827*%
%ADD21C,0.05500*%
%ADD22C,0.00650*%
%ADD23C,0.01992*%
%ADD24C,0.01772*%
%ADD25OC8,0.08500*%
%ADD26C,0.01380*%
%ADD27C,0.01200*%
%ADD28C,0.01600*%
%ADD29C,0.03562*%
%ADD30C,0.23622*%
%ADD31C,0.02000*%
%ADD32C,0.01000*%
%ADD33C,0.02400*%
D10*
X0001800Y0001800D02*
X0001800Y0238020D01*
X0277391Y0238020D01*
X0277391Y0001800D01*
X0001800Y0001800D01*
X0052270Y0206170D02*
X0052272Y0206330D01*
X0052278Y0206489D01*
X0052288Y0206648D01*
X0052302Y0206807D01*
X0052320Y0206966D01*
X0052341Y0207124D01*
X0052367Y0207281D01*
X0052397Y0207438D01*
X0052430Y0207594D01*
X0052468Y0207749D01*
X0052509Y0207903D01*
X0052554Y0208056D01*
X0052603Y0208208D01*
X0052656Y0208359D01*
X0052712Y0208508D01*
X0052773Y0208656D01*
X0052836Y0208802D01*
X0052904Y0208947D01*
X0052975Y0209090D01*
X0053049Y0209231D01*
X0053127Y0209370D01*
X0053209Y0209507D01*
X0053294Y0209642D01*
X0053382Y0209775D01*
X0053474Y0209906D01*
X0053568Y0210034D01*
X0053666Y0210160D01*
X0053767Y0210284D01*
X0053871Y0210405D01*
X0053978Y0210523D01*
X0054088Y0210639D01*
X0054201Y0210752D01*
X0054317Y0210862D01*
X0054435Y0210969D01*
X0054556Y0211073D01*
X0054680Y0211174D01*
X0054806Y0211272D01*
X0054934Y0211366D01*
X0055065Y0211458D01*
X0055198Y0211546D01*
X0055333Y0211631D01*
X0055470Y0211713D01*
X0055609Y0211791D01*
X0055750Y0211865D01*
X0055893Y0211936D01*
X0056038Y0212004D01*
X0056184Y0212067D01*
X0056332Y0212128D01*
X0056481Y0212184D01*
X0056632Y0212237D01*
X0056784Y0212286D01*
X0056937Y0212331D01*
X0057091Y0212372D01*
X0057246Y0212410D01*
X0057402Y0212443D01*
X0057559Y0212473D01*
X0057716Y0212499D01*
X0057874Y0212520D01*
X0058033Y0212538D01*
X0058192Y0212552D01*
X0058351Y0212562D01*
X0058510Y0212568D01*
X0058670Y0212570D01*
X0058830Y0212568D01*
X0058989Y0212562D01*
X0059148Y0212552D01*
X0059307Y0212538D01*
X0059466Y0212520D01*
X0059624Y0212499D01*
X0059781Y0212473D01*
X0059938Y0212443D01*
X0060094Y0212410D01*
X0060249Y0212372D01*
X0060403Y0212331D01*
X0060556Y0212286D01*
X0060708Y0212237D01*
X0060859Y0212184D01*
X0061008Y0212128D01*
X0061156Y0212067D01*
X0061302Y0212004D01*
X0061447Y0211936D01*
X0061590Y0211865D01*
X0061731Y0211791D01*
X0061870Y0211713D01*
X0062007Y0211631D01*
X0062142Y0211546D01*
X0062275Y0211458D01*
X0062406Y0211366D01*
X0062534Y0211272D01*
X0062660Y0211174D01*
X0062784Y0211073D01*
X0062905Y0210969D01*
X0063023Y0210862D01*
X0063139Y0210752D01*
X0063252Y0210639D01*
X0063362Y0210523D01*
X0063469Y0210405D01*
X0063573Y0210284D01*
X0063674Y0210160D01*
X0063772Y0210034D01*
X0063866Y0209906D01*
X0063958Y0209775D01*
X0064046Y0209642D01*
X0064131Y0209507D01*
X0064213Y0209370D01*
X0064291Y0209231D01*
X0064365Y0209090D01*
X0064436Y0208947D01*
X0064504Y0208802D01*
X0064567Y0208656D01*
X0064628Y0208508D01*
X0064684Y0208359D01*
X0064737Y0208208D01*
X0064786Y0208056D01*
X0064831Y0207903D01*
X0064872Y0207749D01*
X0064910Y0207594D01*
X0064943Y0207438D01*
X0064973Y0207281D01*
X0064999Y0207124D01*
X0065020Y0206966D01*
X0065038Y0206807D01*
X0065052Y0206648D01*
X0065062Y0206489D01*
X0065068Y0206330D01*
X0065070Y0206170D01*
X0065068Y0206010D01*
X0065062Y0205851D01*
X0065052Y0205692D01*
X0065038Y0205533D01*
X0065020Y0205374D01*
X0064999Y0205216D01*
X0064973Y0205059D01*
X0064943Y0204902D01*
X0064910Y0204746D01*
X0064872Y0204591D01*
X0064831Y0204437D01*
X0064786Y0204284D01*
X0064737Y0204132D01*
X0064684Y0203981D01*
X0064628Y0203832D01*
X0064567Y0203684D01*
X0064504Y0203538D01*
X0064436Y0203393D01*
X0064365Y0203250D01*
X0064291Y0203109D01*
X0064213Y0202970D01*
X0064131Y0202833D01*
X0064046Y0202698D01*
X0063958Y0202565D01*
X0063866Y0202434D01*
X0063772Y0202306D01*
X0063674Y0202180D01*
X0063573Y0202056D01*
X0063469Y0201935D01*
X0063362Y0201817D01*
X0063252Y0201701D01*
X0063139Y0201588D01*
X0063023Y0201478D01*
X0062905Y0201371D01*
X0062784Y0201267D01*
X0062660Y0201166D01*
X0062534Y0201068D01*
X0062406Y0200974D01*
X0062275Y0200882D01*
X0062142Y0200794D01*
X0062007Y0200709D01*
X0061870Y0200627D01*
X0061731Y0200549D01*
X0061590Y0200475D01*
X0061447Y0200404D01*
X0061302Y0200336D01*
X0061156Y0200273D01*
X0061008Y0200212D01*
X0060859Y0200156D01*
X0060708Y0200103D01*
X0060556Y0200054D01*
X0060403Y0200009D01*
X0060249Y0199968D01*
X0060094Y0199930D01*
X0059938Y0199897D01*
X0059781Y0199867D01*
X0059624Y0199841D01*
X0059466Y0199820D01*
X0059307Y0199802D01*
X0059148Y0199788D01*
X0058989Y0199778D01*
X0058830Y0199772D01*
X0058670Y0199770D01*
X0058510Y0199772D01*
X0058351Y0199778D01*
X0058192Y0199788D01*
X0058033Y0199802D01*
X0057874Y0199820D01*
X0057716Y0199841D01*
X0057559Y0199867D01*
X0057402Y0199897D01*
X0057246Y0199930D01*
X0057091Y0199968D01*
X0056937Y0200009D01*
X0056784Y0200054D01*
X0056632Y0200103D01*
X0056481Y0200156D01*
X0056332Y0200212D01*
X0056184Y0200273D01*
X0056038Y0200336D01*
X0055893Y0200404D01*
X0055750Y0200475D01*
X0055609Y0200549D01*
X0055470Y0200627D01*
X0055333Y0200709D01*
X0055198Y0200794D01*
X0055065Y0200882D01*
X0054934Y0200974D01*
X0054806Y0201068D01*
X0054680Y0201166D01*
X0054556Y0201267D01*
X0054435Y0201371D01*
X0054317Y0201478D01*
X0054201Y0201588D01*
X0054088Y0201701D01*
X0053978Y0201817D01*
X0053871Y0201935D01*
X0053767Y0202056D01*
X0053666Y0202180D01*
X0053568Y0202306D01*
X0053474Y0202434D01*
X0053382Y0202565D01*
X0053294Y0202698D01*
X0053209Y0202833D01*
X0053127Y0202970D01*
X0053049Y0203109D01*
X0052975Y0203250D01*
X0052904Y0203393D01*
X0052836Y0203538D01*
X0052773Y0203684D01*
X0052712Y0203832D01*
X0052656Y0203981D01*
X0052603Y0204132D01*
X0052554Y0204284D01*
X0052509Y0204437D01*
X0052468Y0204591D01*
X0052430Y0204746D01*
X0052397Y0204902D01*
X0052367Y0205059D01*
X0052341Y0205216D01*
X0052320Y0205374D01*
X0052302Y0205533D01*
X0052288Y0205692D01*
X0052278Y0205851D01*
X0052272Y0206010D01*
X0052270Y0206170D01*
X0152270Y0206170D02*
X0152272Y0206330D01*
X0152278Y0206489D01*
X0152288Y0206648D01*
X0152302Y0206807D01*
X0152320Y0206966D01*
X0152341Y0207124D01*
X0152367Y0207281D01*
X0152397Y0207438D01*
X0152430Y0207594D01*
X0152468Y0207749D01*
X0152509Y0207903D01*
X0152554Y0208056D01*
X0152603Y0208208D01*
X0152656Y0208359D01*
X0152712Y0208508D01*
X0152773Y0208656D01*
X0152836Y0208802D01*
X0152904Y0208947D01*
X0152975Y0209090D01*
X0153049Y0209231D01*
X0153127Y0209370D01*
X0153209Y0209507D01*
X0153294Y0209642D01*
X0153382Y0209775D01*
X0153474Y0209906D01*
X0153568Y0210034D01*
X0153666Y0210160D01*
X0153767Y0210284D01*
X0153871Y0210405D01*
X0153978Y0210523D01*
X0154088Y0210639D01*
X0154201Y0210752D01*
X0154317Y0210862D01*
X0154435Y0210969D01*
X0154556Y0211073D01*
X0154680Y0211174D01*
X0154806Y0211272D01*
X0154934Y0211366D01*
X0155065Y0211458D01*
X0155198Y0211546D01*
X0155333Y0211631D01*
X0155470Y0211713D01*
X0155609Y0211791D01*
X0155750Y0211865D01*
X0155893Y0211936D01*
X0156038Y0212004D01*
X0156184Y0212067D01*
X0156332Y0212128D01*
X0156481Y0212184D01*
X0156632Y0212237D01*
X0156784Y0212286D01*
X0156937Y0212331D01*
X0157091Y0212372D01*
X0157246Y0212410D01*
X0157402Y0212443D01*
X0157559Y0212473D01*
X0157716Y0212499D01*
X0157874Y0212520D01*
X0158033Y0212538D01*
X0158192Y0212552D01*
X0158351Y0212562D01*
X0158510Y0212568D01*
X0158670Y0212570D01*
X0158830Y0212568D01*
X0158989Y0212562D01*
X0159148Y0212552D01*
X0159307Y0212538D01*
X0159466Y0212520D01*
X0159624Y0212499D01*
X0159781Y0212473D01*
X0159938Y0212443D01*
X0160094Y0212410D01*
X0160249Y0212372D01*
X0160403Y0212331D01*
X0160556Y0212286D01*
X0160708Y0212237D01*
X0160859Y0212184D01*
X0161008Y0212128D01*
X0161156Y0212067D01*
X0161302Y0212004D01*
X0161447Y0211936D01*
X0161590Y0211865D01*
X0161731Y0211791D01*
X0161870Y0211713D01*
X0162007Y0211631D01*
X0162142Y0211546D01*
X0162275Y0211458D01*
X0162406Y0211366D01*
X0162534Y0211272D01*
X0162660Y0211174D01*
X0162784Y0211073D01*
X0162905Y0210969D01*
X0163023Y0210862D01*
X0163139Y0210752D01*
X0163252Y0210639D01*
X0163362Y0210523D01*
X0163469Y0210405D01*
X0163573Y0210284D01*
X0163674Y0210160D01*
X0163772Y0210034D01*
X0163866Y0209906D01*
X0163958Y0209775D01*
X0164046Y0209642D01*
X0164131Y0209507D01*
X0164213Y0209370D01*
X0164291Y0209231D01*
X0164365Y0209090D01*
X0164436Y0208947D01*
X0164504Y0208802D01*
X0164567Y0208656D01*
X0164628Y0208508D01*
X0164684Y0208359D01*
X0164737Y0208208D01*
X0164786Y0208056D01*
X0164831Y0207903D01*
X0164872Y0207749D01*
X0164910Y0207594D01*
X0164943Y0207438D01*
X0164973Y0207281D01*
X0164999Y0207124D01*
X0165020Y0206966D01*
X0165038Y0206807D01*
X0165052Y0206648D01*
X0165062Y0206489D01*
X0165068Y0206330D01*
X0165070Y0206170D01*
X0165068Y0206010D01*
X0165062Y0205851D01*
X0165052Y0205692D01*
X0165038Y0205533D01*
X0165020Y0205374D01*
X0164999Y0205216D01*
X0164973Y0205059D01*
X0164943Y0204902D01*
X0164910Y0204746D01*
X0164872Y0204591D01*
X0164831Y0204437D01*
X0164786Y0204284D01*
X0164737Y0204132D01*
X0164684Y0203981D01*
X0164628Y0203832D01*
X0164567Y0203684D01*
X0164504Y0203538D01*
X0164436Y0203393D01*
X0164365Y0203250D01*
X0164291Y0203109D01*
X0164213Y0202970D01*
X0164131Y0202833D01*
X0164046Y0202698D01*
X0163958Y0202565D01*
X0163866Y0202434D01*
X0163772Y0202306D01*
X0163674Y0202180D01*
X0163573Y0202056D01*
X0163469Y0201935D01*
X0163362Y0201817D01*
X0163252Y0201701D01*
X0163139Y0201588D01*
X0163023Y0201478D01*
X0162905Y0201371D01*
X0162784Y0201267D01*
X0162660Y0201166D01*
X0162534Y0201068D01*
X0162406Y0200974D01*
X0162275Y0200882D01*
X0162142Y0200794D01*
X0162007Y0200709D01*
X0161870Y0200627D01*
X0161731Y0200549D01*
X0161590Y0200475D01*
X0161447Y0200404D01*
X0161302Y0200336D01*
X0161156Y0200273D01*
X0161008Y0200212D01*
X0160859Y0200156D01*
X0160708Y0200103D01*
X0160556Y0200054D01*
X0160403Y0200009D01*
X0160249Y0199968D01*
X0160094Y0199930D01*
X0159938Y0199897D01*
X0159781Y0199867D01*
X0159624Y0199841D01*
X0159466Y0199820D01*
X0159307Y0199802D01*
X0159148Y0199788D01*
X0158989Y0199778D01*
X0158830Y0199772D01*
X0158670Y0199770D01*
X0158510Y0199772D01*
X0158351Y0199778D01*
X0158192Y0199788D01*
X0158033Y0199802D01*
X0157874Y0199820D01*
X0157716Y0199841D01*
X0157559Y0199867D01*
X0157402Y0199897D01*
X0157246Y0199930D01*
X0157091Y0199968D01*
X0156937Y0200009D01*
X0156784Y0200054D01*
X0156632Y0200103D01*
X0156481Y0200156D01*
X0156332Y0200212D01*
X0156184Y0200273D01*
X0156038Y0200336D01*
X0155893Y0200404D01*
X0155750Y0200475D01*
X0155609Y0200549D01*
X0155470Y0200627D01*
X0155333Y0200709D01*
X0155198Y0200794D01*
X0155065Y0200882D01*
X0154934Y0200974D01*
X0154806Y0201068D01*
X0154680Y0201166D01*
X0154556Y0201267D01*
X0154435Y0201371D01*
X0154317Y0201478D01*
X0154201Y0201588D01*
X0154088Y0201701D01*
X0153978Y0201817D01*
X0153871Y0201935D01*
X0153767Y0202056D01*
X0153666Y0202180D01*
X0153568Y0202306D01*
X0153474Y0202434D01*
X0153382Y0202565D01*
X0153294Y0202698D01*
X0153209Y0202833D01*
X0153127Y0202970D01*
X0153049Y0203109D01*
X0152975Y0203250D01*
X0152904Y0203393D01*
X0152836Y0203538D01*
X0152773Y0203684D01*
X0152712Y0203832D01*
X0152656Y0203981D01*
X0152603Y0204132D01*
X0152554Y0204284D01*
X0152509Y0204437D01*
X0152468Y0204591D01*
X0152430Y0204746D01*
X0152397Y0204902D01*
X0152367Y0205059D01*
X0152341Y0205216D01*
X0152320Y0205374D01*
X0152302Y0205533D01*
X0152288Y0205692D01*
X0152278Y0205851D01*
X0152272Y0206010D01*
X0152270Y0206170D01*
D11*
X0176570Y0221570D02*
X0176570Y0226374D01*
X0179773Y0226374D01*
X0181726Y0224773D02*
X0183328Y0226374D01*
X0183328Y0221570D01*
X0184929Y0221570D02*
X0181726Y0221570D01*
X0179773Y0221570D02*
X0176570Y0221570D01*
X0176570Y0223972D02*
X0178171Y0223972D01*
X0178972Y0230320D02*
X0176570Y0230320D01*
X0177371Y0231921D02*
X0176570Y0232722D01*
X0177371Y0233523D01*
X0179773Y0233523D01*
X0178972Y0231921D02*
X0177371Y0231921D01*
X0178972Y0231921D02*
X0179773Y0231121D01*
X0178972Y0230320D01*
X0181726Y0231121D02*
X0181726Y0233523D01*
X0181726Y0231121D02*
X0182527Y0230320D01*
X0184929Y0230320D01*
X0184929Y0229519D02*
X0184129Y0228719D01*
X0183328Y0228719D01*
X0184929Y0229519D02*
X0184929Y0233523D01*
X0186883Y0232722D02*
X0187684Y0233523D01*
X0190086Y0233523D01*
X0189285Y0231921D02*
X0190086Y0231121D01*
X0189285Y0230320D01*
X0186883Y0230320D01*
X0187684Y0231921D02*
X0186883Y0232722D01*
X0187684Y0231921D02*
X0189285Y0231921D01*
X0192039Y0230320D02*
X0192039Y0233523D01*
X0192840Y0233523D01*
X0193641Y0232722D01*
X0194441Y0233523D01*
X0195242Y0232722D01*
X0195242Y0230320D01*
X0193641Y0230320D02*
X0193641Y0232722D01*
X0197196Y0232722D02*
X0197196Y0231121D01*
X0197996Y0230320D01*
X0199598Y0230320D01*
X0200398Y0231121D01*
X0200398Y0232722D01*
X0199598Y0233523D01*
X0197996Y0233523D01*
X0197196Y0232722D01*
X0202352Y0232722D02*
X0202352Y0231121D01*
X0203153Y0230320D01*
X0205555Y0230320D01*
X0207508Y0231121D02*
X0207508Y0232722D01*
X0208309Y0233523D01*
X0209911Y0233523D01*
X0210711Y0232722D01*
X0210711Y0231121D01*
X0209911Y0230320D01*
X0208309Y0230320D01*
X0207508Y0231121D01*
X0205555Y0233523D02*
X0203153Y0233523D01*
X0202352Y0232722D01*
X0202352Y0226374D02*
X0202352Y0223171D01*
X0203953Y0221570D01*
X0205555Y0223171D01*
X0205555Y0226374D01*
X0207508Y0226374D02*
X0209911Y0226374D01*
X0210711Y0225573D01*
X0210711Y0223972D01*
X0209911Y0223171D01*
X0207508Y0223171D01*
X0207508Y0221570D02*
X0207508Y0226374D01*
X0209110Y0223171D02*
X0210711Y0221570D01*
X0217821Y0224773D02*
X0219423Y0221570D01*
X0221024Y0224773D01*
X0222978Y0225573D02*
X0223778Y0226374D01*
X0225380Y0226374D01*
X0226180Y0225573D01*
X0226180Y0224773D01*
X0222978Y0221570D01*
X0226180Y0221570D01*
X0215868Y0230320D02*
X0215868Y0232722D01*
X0215067Y0233523D01*
X0214266Y0232722D01*
X0214266Y0230320D01*
X0212665Y0230320D02*
X0212665Y0233523D01*
X0213466Y0233523D01*
X0214266Y0232722D01*
X0200398Y0225573D02*
X0199598Y0226374D01*
X0197996Y0226374D01*
X0197196Y0225573D01*
X0197196Y0222371D01*
X0197996Y0221570D01*
X0199598Y0221570D01*
X0200398Y0222371D01*
X0195242Y0221570D02*
X0192039Y0226374D01*
X0195242Y0226374D02*
X0192039Y0221570D01*
D12*
X0166357Y0134163D02*
X0166357Y0128847D01*
X0164979Y0128847D01*
X0164979Y0134163D01*
X0166357Y0134163D01*
X0166357Y0129437D02*
X0164979Y0129437D01*
X0164979Y0130027D02*
X0166357Y0130027D01*
X0166357Y0130617D02*
X0164979Y0130617D01*
X0164979Y0131207D02*
X0166357Y0131207D01*
X0166357Y0131797D02*
X0164979Y0131797D01*
X0164979Y0132387D02*
X0166357Y0132387D01*
X0166357Y0132977D02*
X0164979Y0132977D01*
X0164979Y0133567D02*
X0166357Y0133567D01*
X0166357Y0134157D02*
X0164979Y0134157D01*
X0163208Y0134163D02*
X0163208Y0128847D01*
X0161830Y0128847D01*
X0161830Y0134163D01*
X0163208Y0134163D01*
X0163208Y0129437D02*
X0161830Y0129437D01*
X0161830Y0130027D02*
X0163208Y0130027D01*
X0163208Y0130617D02*
X0161830Y0130617D01*
X0161830Y0131207D02*
X0163208Y0131207D01*
X0163208Y0131797D02*
X0161830Y0131797D01*
X0161830Y0132387D02*
X0163208Y0132387D01*
X0163208Y0132977D02*
X0161830Y0132977D01*
X0161830Y0133567D02*
X0163208Y0133567D01*
X0163208Y0134157D02*
X0161830Y0134157D01*
X0160058Y0134163D02*
X0160058Y0128847D01*
X0158680Y0128847D01*
X0158680Y0134163D01*
X0160058Y0134163D01*
X0160058Y0129437D02*
X0158680Y0129437D01*
X0158680Y0130027D02*
X0160058Y0130027D01*
X0160058Y0130617D02*
X0158680Y0130617D01*
X0158680Y0131207D02*
X0160058Y0131207D01*
X0160058Y0131797D02*
X0158680Y0131797D01*
X0158680Y0132387D02*
X0160058Y0132387D01*
X0160058Y0132977D02*
X0158680Y0132977D01*
X0158680Y0133567D02*
X0160058Y0133567D01*
X0160058Y0134157D02*
X0158680Y0134157D01*
X0156908Y0134163D02*
X0156908Y0128847D01*
X0155530Y0128847D01*
X0155530Y0134163D01*
X0156908Y0134163D01*
X0156908Y0129437D02*
X0155530Y0129437D01*
X0155530Y0130027D02*
X0156908Y0130027D01*
X0156908Y0130617D02*
X0155530Y0130617D01*
X0155530Y0131207D02*
X0156908Y0131207D01*
X0156908Y0131797D02*
X0155530Y0131797D01*
X0155530Y0132387D02*
X0156908Y0132387D01*
X0156908Y0132977D02*
X0155530Y0132977D01*
X0155530Y0133567D02*
X0156908Y0133567D01*
X0156908Y0134157D02*
X0155530Y0134157D01*
X0153759Y0134163D02*
X0153759Y0128847D01*
X0152381Y0128847D01*
X0152381Y0134163D01*
X0153759Y0134163D01*
X0153759Y0129437D02*
X0152381Y0129437D01*
X0152381Y0130027D02*
X0153759Y0130027D01*
X0153759Y0130617D02*
X0152381Y0130617D01*
X0152381Y0131207D02*
X0153759Y0131207D01*
X0153759Y0131797D02*
X0152381Y0131797D01*
X0152381Y0132387D02*
X0153759Y0132387D01*
X0153759Y0132977D02*
X0152381Y0132977D01*
X0152381Y0133567D02*
X0153759Y0133567D01*
X0153759Y0134157D02*
X0152381Y0134157D01*
X0150609Y0134163D02*
X0150609Y0128847D01*
X0149231Y0128847D01*
X0149231Y0134163D01*
X0150609Y0134163D01*
X0150609Y0129437D02*
X0149231Y0129437D01*
X0149231Y0130027D02*
X0150609Y0130027D01*
X0150609Y0130617D02*
X0149231Y0130617D01*
X0149231Y0131207D02*
X0150609Y0131207D01*
X0150609Y0131797D02*
X0149231Y0131797D01*
X0149231Y0132387D02*
X0150609Y0132387D01*
X0150609Y0132977D02*
X0149231Y0132977D01*
X0149231Y0133567D02*
X0150609Y0133567D01*
X0150609Y0134157D02*
X0149231Y0134157D01*
X0147459Y0134163D02*
X0147459Y0128847D01*
X0146081Y0128847D01*
X0146081Y0134163D01*
X0147459Y0134163D01*
X0147459Y0129437D02*
X0146081Y0129437D01*
X0146081Y0130027D02*
X0147459Y0130027D01*
X0147459Y0130617D02*
X0146081Y0130617D01*
X0146081Y0131207D02*
X0147459Y0131207D01*
X0147459Y0131797D02*
X0146081Y0131797D01*
X0146081Y0132387D02*
X0147459Y0132387D01*
X0147459Y0132977D02*
X0146081Y0132977D01*
X0146081Y0133567D02*
X0147459Y0133567D01*
X0147459Y0134157D02*
X0146081Y0134157D01*
X0144310Y0134163D02*
X0144310Y0128847D01*
X0142932Y0128847D01*
X0142932Y0134163D01*
X0144310Y0134163D01*
X0144310Y0129437D02*
X0142932Y0129437D01*
X0142932Y0130027D02*
X0144310Y0130027D01*
X0144310Y0130617D02*
X0142932Y0130617D01*
X0142932Y0131207D02*
X0144310Y0131207D01*
X0144310Y0131797D02*
X0142932Y0131797D01*
X0142932Y0132387D02*
X0144310Y0132387D01*
X0144310Y0132977D02*
X0142932Y0132977D01*
X0142932Y0133567D02*
X0144310Y0133567D01*
X0144310Y0134157D02*
X0142932Y0134157D01*
X0141160Y0134163D02*
X0141160Y0128847D01*
X0139782Y0128847D01*
X0139782Y0134163D01*
X0141160Y0134163D01*
X0141160Y0129437D02*
X0139782Y0129437D01*
X0139782Y0130027D02*
X0141160Y0130027D01*
X0141160Y0130617D02*
X0139782Y0130617D01*
X0139782Y0131207D02*
X0141160Y0131207D01*
X0141160Y0131797D02*
X0139782Y0131797D01*
X0139782Y0132387D02*
X0141160Y0132387D01*
X0141160Y0132977D02*
X0139782Y0132977D01*
X0139782Y0133567D02*
X0141160Y0133567D01*
X0141160Y0134157D02*
X0139782Y0134157D01*
X0138011Y0134163D02*
X0138011Y0128847D01*
X0136633Y0128847D01*
X0136633Y0134163D01*
X0138011Y0134163D01*
X0138011Y0129437D02*
X0136633Y0129437D01*
X0136633Y0130027D02*
X0138011Y0130027D01*
X0138011Y0130617D02*
X0136633Y0130617D01*
X0136633Y0131207D02*
X0138011Y0131207D01*
X0138011Y0131797D02*
X0136633Y0131797D01*
X0136633Y0132387D02*
X0138011Y0132387D01*
X0138011Y0132977D02*
X0136633Y0132977D01*
X0136633Y0133567D02*
X0138011Y0133567D01*
X0138011Y0134157D02*
X0136633Y0134157D01*
X0134861Y0134163D02*
X0134861Y0128847D01*
X0133483Y0128847D01*
X0133483Y0134163D01*
X0134861Y0134163D01*
X0134861Y0129437D02*
X0133483Y0129437D01*
X0133483Y0130027D02*
X0134861Y0130027D01*
X0134861Y0130617D02*
X0133483Y0130617D01*
X0133483Y0131207D02*
X0134861Y0131207D01*
X0134861Y0131797D02*
X0133483Y0131797D01*
X0133483Y0132387D02*
X0134861Y0132387D01*
X0134861Y0132977D02*
X0133483Y0132977D01*
X0133483Y0133567D02*
X0134861Y0133567D01*
X0134861Y0134157D02*
X0133483Y0134157D01*
X0129743Y0125107D02*
X0129743Y0123729D01*
X0124427Y0123729D01*
X0124427Y0125107D01*
X0129743Y0125107D01*
X0129743Y0124319D02*
X0124427Y0124319D01*
X0124427Y0124909D02*
X0129743Y0124909D01*
X0129743Y0121958D02*
X0129743Y0120580D01*
X0124427Y0120580D01*
X0124427Y0121958D01*
X0129743Y0121958D01*
X0129743Y0121170D02*
X0124427Y0121170D01*
X0124427Y0121760D02*
X0129743Y0121760D01*
X0129743Y0118808D02*
X0129743Y0117430D01*
X0124427Y0117430D01*
X0124427Y0118808D01*
X0129743Y0118808D01*
X0129743Y0118020D02*
X0124427Y0118020D01*
X0124427Y0118610D02*
X0129743Y0118610D01*
X0129743Y0115658D02*
X0129743Y0114280D01*
X0124427Y0114280D01*
X0124427Y0115658D01*
X0129743Y0115658D01*
X0129743Y0114870D02*
X0124427Y0114870D01*
X0124427Y0115460D02*
X0129743Y0115460D01*
X0129743Y0112509D02*
X0129743Y0111131D01*
X0124427Y0111131D01*
X0124427Y0112509D01*
X0129743Y0112509D01*
X0129743Y0111721D02*
X0124427Y0111721D01*
X0124427Y0112311D02*
X0129743Y0112311D01*
X0129743Y0109359D02*
X0129743Y0107981D01*
X0124427Y0107981D01*
X0124427Y0109359D01*
X0129743Y0109359D01*
X0129743Y0108571D02*
X0124427Y0108571D01*
X0124427Y0109161D02*
X0129743Y0109161D01*
X0129743Y0106209D02*
X0129743Y0104831D01*
X0124427Y0104831D01*
X0124427Y0106209D01*
X0129743Y0106209D01*
X0129743Y0105421D02*
X0124427Y0105421D01*
X0124427Y0106011D02*
X0129743Y0106011D01*
X0129743Y0103060D02*
X0129743Y0101682D01*
X0124427Y0101682D01*
X0124427Y0103060D01*
X0129743Y0103060D01*
X0129743Y0102272D02*
X0124427Y0102272D01*
X0124427Y0102862D02*
X0129743Y0102862D01*
X0129743Y0099910D02*
X0129743Y0098532D01*
X0124427Y0098532D01*
X0124427Y0099910D01*
X0129743Y0099910D01*
X0129743Y0099122D02*
X0124427Y0099122D01*
X0124427Y0099712D02*
X0129743Y0099712D01*
X0129743Y0096761D02*
X0129743Y0095383D01*
X0124427Y0095383D01*
X0124427Y0096761D01*
X0129743Y0096761D01*
X0129743Y0095973D02*
X0124427Y0095973D01*
X0124427Y0096563D02*
X0129743Y0096563D01*
X0129743Y0093611D02*
X0129743Y0092233D01*
X0124427Y0092233D01*
X0124427Y0093611D01*
X0129743Y0093611D01*
X0129743Y0092823D02*
X0124427Y0092823D01*
X0124427Y0093413D02*
X0129743Y0093413D01*
X0134861Y0088493D02*
X0134861Y0083177D01*
X0133483Y0083177D01*
X0133483Y0088493D01*
X0134861Y0088493D01*
X0134861Y0083767D02*
X0133483Y0083767D01*
X0133483Y0084357D02*
X0134861Y0084357D01*
X0134861Y0084947D02*
X0133483Y0084947D01*
X0133483Y0085537D02*
X0134861Y0085537D01*
X0134861Y0086127D02*
X0133483Y0086127D01*
X0133483Y0086717D02*
X0134861Y0086717D01*
X0134861Y0087307D02*
X0133483Y0087307D01*
X0133483Y0087897D02*
X0134861Y0087897D01*
X0134861Y0088487D02*
X0133483Y0088487D01*
X0138011Y0088493D02*
X0138011Y0083177D01*
X0136633Y0083177D01*
X0136633Y0088493D01*
X0138011Y0088493D01*
X0138011Y0083767D02*
X0136633Y0083767D01*
X0136633Y0084357D02*
X0138011Y0084357D01*
X0138011Y0084947D02*
X0136633Y0084947D01*
X0136633Y0085537D02*
X0138011Y0085537D01*
X0138011Y0086127D02*
X0136633Y0086127D01*
X0136633Y0086717D02*
X0138011Y0086717D01*
X0138011Y0087307D02*
X0136633Y0087307D01*
X0136633Y0087897D02*
X0138011Y0087897D01*
X0138011Y0088487D02*
X0136633Y0088487D01*
X0141160Y0088493D02*
X0141160Y0083177D01*
X0139782Y0083177D01*
X0139782Y0088493D01*
X0141160Y0088493D01*
X0141160Y0083767D02*
X0139782Y0083767D01*
X0139782Y0084357D02*
X0141160Y0084357D01*
X0141160Y0084947D02*
X0139782Y0084947D01*
X0139782Y0085537D02*
X0141160Y0085537D01*
X0141160Y0086127D02*
X0139782Y0086127D01*
X0139782Y0086717D02*
X0141160Y0086717D01*
X0141160Y0087307D02*
X0139782Y0087307D01*
X0139782Y0087897D02*
X0141160Y0087897D01*
X0141160Y0088487D02*
X0139782Y0088487D01*
X0144310Y0088493D02*
X0144310Y0083177D01*
X0142932Y0083177D01*
X0142932Y0088493D01*
X0144310Y0088493D01*
X0144310Y0083767D02*
X0142932Y0083767D01*
X0142932Y0084357D02*
X0144310Y0084357D01*
X0144310Y0084947D02*
X0142932Y0084947D01*
X0142932Y0085537D02*
X0144310Y0085537D01*
X0144310Y0086127D02*
X0142932Y0086127D01*
X0142932Y0086717D02*
X0144310Y0086717D01*
X0144310Y0087307D02*
X0142932Y0087307D01*
X0142932Y0087897D02*
X0144310Y0087897D01*
X0144310Y0088487D02*
X0142932Y0088487D01*
X0147459Y0088493D02*
X0147459Y0083177D01*
X0146081Y0083177D01*
X0146081Y0088493D01*
X0147459Y0088493D01*
X0147459Y0083767D02*
X0146081Y0083767D01*
X0146081Y0084357D02*
X0147459Y0084357D01*
X0147459Y0084947D02*
X0146081Y0084947D01*
X0146081Y0085537D02*
X0147459Y0085537D01*
X0147459Y0086127D02*
X0146081Y0086127D01*
X0146081Y0086717D02*
X0147459Y0086717D01*
X0147459Y0087307D02*
X0146081Y0087307D01*
X0146081Y0087897D02*
X0147459Y0087897D01*
X0147459Y0088487D02*
X0146081Y0088487D01*
X0150609Y0088493D02*
X0150609Y0083177D01*
X0149231Y0083177D01*
X0149231Y0088493D01*
X0150609Y0088493D01*
X0150609Y0083767D02*
X0149231Y0083767D01*
X0149231Y0084357D02*
X0150609Y0084357D01*
X0150609Y0084947D02*
X0149231Y0084947D01*
X0149231Y0085537D02*
X0150609Y0085537D01*
X0150609Y0086127D02*
X0149231Y0086127D01*
X0149231Y0086717D02*
X0150609Y0086717D01*
X0150609Y0087307D02*
X0149231Y0087307D01*
X0149231Y0087897D02*
X0150609Y0087897D01*
X0150609Y0088487D02*
X0149231Y0088487D01*
X0153759Y0088493D02*
X0153759Y0083177D01*
X0152381Y0083177D01*
X0152381Y0088493D01*
X0153759Y0088493D01*
X0153759Y0083767D02*
X0152381Y0083767D01*
X0152381Y0084357D02*
X0153759Y0084357D01*
X0153759Y0084947D02*
X0152381Y0084947D01*
X0152381Y0085537D02*
X0153759Y0085537D01*
X0153759Y0086127D02*
X0152381Y0086127D01*
X0152381Y0086717D02*
X0153759Y0086717D01*
X0153759Y0087307D02*
X0152381Y0087307D01*
X0152381Y0087897D02*
X0153759Y0087897D01*
X0153759Y0088487D02*
X0152381Y0088487D01*
X0156908Y0088493D02*
X0156908Y0083177D01*
X0155530Y0083177D01*
X0155530Y0088493D01*
X0156908Y0088493D01*
X0156908Y0083767D02*
X0155530Y0083767D01*
X0155530Y0084357D02*
X0156908Y0084357D01*
X0156908Y0084947D02*
X0155530Y0084947D01*
X0155530Y0085537D02*
X0156908Y0085537D01*
X0156908Y0086127D02*
X0155530Y0086127D01*
X0155530Y0086717D02*
X0156908Y0086717D01*
X0156908Y0087307D02*
X0155530Y0087307D01*
X0155530Y0087897D02*
X0156908Y0087897D01*
X0156908Y0088487D02*
X0155530Y0088487D01*
X0160058Y0088493D02*
X0160058Y0083177D01*
X0158680Y0083177D01*
X0158680Y0088493D01*
X0160058Y0088493D01*
X0160058Y0083767D02*
X0158680Y0083767D01*
X0158680Y0084357D02*
X0160058Y0084357D01*
X0160058Y0084947D02*
X0158680Y0084947D01*
X0158680Y0085537D02*
X0160058Y0085537D01*
X0160058Y0086127D02*
X0158680Y0086127D01*
X0158680Y0086717D02*
X0160058Y0086717D01*
X0160058Y0087307D02*
X0158680Y0087307D01*
X0158680Y0087897D02*
X0160058Y0087897D01*
X0160058Y0088487D02*
X0158680Y0088487D01*
X0163208Y0088493D02*
X0163208Y0083177D01*
X0161830Y0083177D01*
X0161830Y0088493D01*
X0163208Y0088493D01*
X0163208Y0083767D02*
X0161830Y0083767D01*
X0161830Y0084357D02*
X0163208Y0084357D01*
X0163208Y0084947D02*
X0161830Y0084947D01*
X0161830Y0085537D02*
X0163208Y0085537D01*
X0163208Y0086127D02*
X0161830Y0086127D01*
X0161830Y0086717D02*
X0163208Y0086717D01*
X0163208Y0087307D02*
X0161830Y0087307D01*
X0161830Y0087897D02*
X0163208Y0087897D01*
X0163208Y0088487D02*
X0161830Y0088487D01*
X0166357Y0088493D02*
X0166357Y0083177D01*
X0164979Y0083177D01*
X0164979Y0088493D01*
X0166357Y0088493D01*
X0166357Y0083767D02*
X0164979Y0083767D01*
X0164979Y0084357D02*
X0166357Y0084357D01*
X0166357Y0084947D02*
X0164979Y0084947D01*
X0164979Y0085537D02*
X0166357Y0085537D01*
X0166357Y0086127D02*
X0164979Y0086127D01*
X0164979Y0086717D02*
X0166357Y0086717D01*
X0166357Y0087307D02*
X0164979Y0087307D01*
X0164979Y0087897D02*
X0166357Y0087897D01*
X0166357Y0088487D02*
X0164979Y0088487D01*
X0175413Y0092233D02*
X0175413Y0093611D01*
X0175413Y0092233D02*
X0170097Y0092233D01*
X0170097Y0093611D01*
X0175413Y0093611D01*
X0175413Y0092823D02*
X0170097Y0092823D01*
X0170097Y0093413D02*
X0175413Y0093413D01*
X0175413Y0095383D02*
X0175413Y0096761D01*
X0175413Y0095383D02*
X0170097Y0095383D01*
X0170097Y0096761D01*
X0175413Y0096761D01*
X0175413Y0095973D02*
X0170097Y0095973D01*
X0170097Y0096563D02*
X0175413Y0096563D01*
X0175413Y0098532D02*
X0175413Y0099910D01*
X0175413Y0098532D02*
X0170097Y0098532D01*
X0170097Y0099910D01*
X0175413Y0099910D01*
X0175413Y0099122D02*
X0170097Y0099122D01*
X0170097Y0099712D02*
X0175413Y0099712D01*
X0175413Y0101682D02*
X0175413Y0103060D01*
X0175413Y0101682D02*
X0170097Y0101682D01*
X0170097Y0103060D01*
X0175413Y0103060D01*
X0175413Y0102272D02*
X0170097Y0102272D01*
X0170097Y0102862D02*
X0175413Y0102862D01*
X0175413Y0104831D02*
X0175413Y0106209D01*
X0175413Y0104831D02*
X0170097Y0104831D01*
X0170097Y0106209D01*
X0175413Y0106209D01*
X0175413Y0105421D02*
X0170097Y0105421D01*
X0170097Y0106011D02*
X0175413Y0106011D01*
X0175413Y0107981D02*
X0175413Y0109359D01*
X0175413Y0107981D02*
X0170097Y0107981D01*
X0170097Y0109359D01*
X0175413Y0109359D01*
X0175413Y0108571D02*
X0170097Y0108571D01*
X0170097Y0109161D02*
X0175413Y0109161D01*
X0175413Y0111131D02*
X0175413Y0112509D01*
X0175413Y0111131D02*
X0170097Y0111131D01*
X0170097Y0112509D01*
X0175413Y0112509D01*
X0175413Y0111721D02*
X0170097Y0111721D01*
X0170097Y0112311D02*
X0175413Y0112311D01*
X0175413Y0114280D02*
X0175413Y0115658D01*
X0175413Y0114280D02*
X0170097Y0114280D01*
X0170097Y0115658D01*
X0175413Y0115658D01*
X0175413Y0114870D02*
X0170097Y0114870D01*
X0170097Y0115460D02*
X0175413Y0115460D01*
X0175413Y0117430D02*
X0175413Y0118808D01*
X0175413Y0117430D02*
X0170097Y0117430D01*
X0170097Y0118808D01*
X0175413Y0118808D01*
X0175413Y0118020D02*
X0170097Y0118020D01*
X0170097Y0118610D02*
X0175413Y0118610D01*
X0175413Y0120580D02*
X0175413Y0121958D01*
X0175413Y0120580D02*
X0170097Y0120580D01*
X0170097Y0121958D01*
X0175413Y0121958D01*
X0175413Y0121170D02*
X0170097Y0121170D01*
X0170097Y0121760D02*
X0175413Y0121760D01*
X0175413Y0123729D02*
X0175413Y0125107D01*
X0175413Y0123729D02*
X0170097Y0123729D01*
X0170097Y0125107D01*
X0175413Y0125107D01*
X0175413Y0124319D02*
X0170097Y0124319D01*
X0170097Y0124909D02*
X0175413Y0124909D01*
D13*
X0175442Y0133542D02*
X0178592Y0133542D01*
X0175442Y0133542D02*
X0175442Y0136298D01*
X0178592Y0136298D01*
X0178592Y0133542D01*
X0178592Y0134722D02*
X0175442Y0134722D01*
X0175442Y0135902D02*
X0178592Y0135902D01*
X0171899Y0133542D02*
X0168749Y0133542D01*
X0168749Y0136298D01*
X0171899Y0136298D01*
X0171899Y0133542D01*
X0171899Y0134722D02*
X0168749Y0134722D01*
X0168749Y0135902D02*
X0171899Y0135902D01*
X0171899Y0162548D02*
X0168749Y0162548D01*
X0171899Y0162548D02*
X0171899Y0159792D01*
X0168749Y0159792D01*
X0168749Y0162548D01*
X0168749Y0160972D02*
X0171899Y0160972D01*
X0171899Y0162152D02*
X0168749Y0162152D01*
X0175442Y0162548D02*
X0178592Y0162548D01*
X0178592Y0159792D01*
X0175442Y0159792D01*
X0175442Y0162548D01*
X0175442Y0160972D02*
X0178592Y0160972D01*
X0178592Y0162152D02*
X0175442Y0162152D01*
X0207499Y0211042D02*
X0210649Y0211042D01*
X0207499Y0211042D02*
X0207499Y0213798D01*
X0210649Y0213798D01*
X0210649Y0211042D01*
X0210649Y0212222D02*
X0207499Y0212222D01*
X0207499Y0213402D02*
X0210649Y0213402D01*
X0214192Y0211042D02*
X0217342Y0211042D01*
X0214192Y0211042D02*
X0214192Y0213798D01*
X0217342Y0213798D01*
X0217342Y0211042D01*
X0217342Y0212222D02*
X0214192Y0212222D01*
X0214192Y0213402D02*
X0217342Y0213402D01*
X0117342Y0146298D02*
X0114192Y0146298D01*
X0117342Y0146298D02*
X0117342Y0143542D01*
X0114192Y0143542D01*
X0114192Y0146298D01*
X0114192Y0144722D02*
X0117342Y0144722D01*
X0117342Y0145902D02*
X0114192Y0145902D01*
X0110649Y0146298D02*
X0107499Y0146298D01*
X0110649Y0146298D02*
X0110649Y0143542D01*
X0107499Y0143542D01*
X0107499Y0146298D01*
X0107499Y0144722D02*
X0110649Y0144722D01*
X0110649Y0145902D02*
X0107499Y0145902D01*
X0107696Y0134595D02*
X0110452Y0134595D01*
X0107696Y0134595D02*
X0107696Y0137745D01*
X0110452Y0137745D01*
X0110452Y0134595D01*
X0110452Y0135775D02*
X0107696Y0135775D01*
X0107696Y0136955D02*
X0110452Y0136955D01*
X0114389Y0134595D02*
X0117145Y0134595D01*
X0114389Y0134595D02*
X0114389Y0137745D01*
X0117145Y0137745D01*
X0117145Y0134595D01*
X0117145Y0135775D02*
X0114389Y0135775D01*
X0114389Y0136955D02*
X0117145Y0136955D01*
X0100895Y0107095D02*
X0098139Y0107095D01*
X0098139Y0110245D01*
X0100895Y0110245D01*
X0100895Y0107095D01*
X0100895Y0108275D02*
X0098139Y0108275D01*
X0098139Y0109455D02*
X0100895Y0109455D01*
X0094202Y0107095D02*
X0091446Y0107095D01*
X0091446Y0110245D01*
X0094202Y0110245D01*
X0094202Y0107095D01*
X0094202Y0108275D02*
X0091446Y0108275D01*
X0091446Y0109455D02*
X0094202Y0109455D01*
X0088592Y0110048D02*
X0085442Y0110048D01*
X0088592Y0110048D02*
X0088592Y0107292D01*
X0085442Y0107292D01*
X0085442Y0110048D01*
X0085442Y0108472D02*
X0088592Y0108472D01*
X0088592Y0109652D02*
X0085442Y0109652D01*
X0081899Y0110048D02*
X0078749Y0110048D01*
X0081899Y0110048D02*
X0081899Y0107292D01*
X0078749Y0107292D01*
X0078749Y0110048D01*
X0078749Y0108472D02*
X0081899Y0108472D01*
X0081899Y0109652D02*
X0078749Y0109652D01*
X0069645Y0107095D02*
X0066889Y0107095D01*
X0066889Y0110245D01*
X0069645Y0110245D01*
X0069645Y0107095D01*
X0069645Y0108275D02*
X0066889Y0108275D01*
X0066889Y0109455D02*
X0069645Y0109455D01*
X0062952Y0107095D02*
X0060196Y0107095D01*
X0060196Y0110245D01*
X0062952Y0110245D01*
X0062952Y0107095D01*
X0062952Y0108275D02*
X0060196Y0108275D01*
X0060196Y0109455D02*
X0062952Y0109455D01*
X0100196Y0067745D02*
X0102952Y0067745D01*
X0102952Y0064595D01*
X0100196Y0064595D01*
X0100196Y0067745D01*
X0100196Y0065775D02*
X0102952Y0065775D01*
X0102952Y0066955D02*
X0100196Y0066955D01*
X0106889Y0067745D02*
X0109645Y0067745D01*
X0109645Y0064595D01*
X0106889Y0064595D01*
X0106889Y0067745D01*
X0106889Y0065775D02*
X0109645Y0065775D01*
X0109645Y0066955D02*
X0106889Y0066955D01*
X0114792Y0071249D02*
X0114792Y0074399D01*
X0117548Y0074399D01*
X0117548Y0071249D01*
X0114792Y0071249D01*
X0114792Y0072429D02*
X0117548Y0072429D01*
X0117548Y0073609D02*
X0114792Y0073609D01*
X0114792Y0077942D02*
X0114792Y0081092D01*
X0117548Y0081092D01*
X0117548Y0077942D01*
X0114792Y0077942D01*
X0114792Y0079122D02*
X0117548Y0079122D01*
X0117548Y0080302D02*
X0114792Y0080302D01*
X0127745Y0080895D02*
X0127745Y0078139D01*
X0124595Y0078139D01*
X0124595Y0080895D01*
X0127745Y0080895D01*
X0127745Y0079319D02*
X0124595Y0079319D01*
X0124595Y0080499D02*
X0127745Y0080499D01*
X0127745Y0074202D02*
X0127745Y0071446D01*
X0124595Y0071446D01*
X0124595Y0074202D01*
X0127745Y0074202D01*
X0127745Y0072626D02*
X0124595Y0072626D01*
X0124595Y0073806D02*
X0127745Y0073806D01*
X0154792Y0073149D02*
X0154792Y0069999D01*
X0154792Y0073149D02*
X0157548Y0073149D01*
X0157548Y0069999D01*
X0154792Y0069999D01*
X0154792Y0071179D02*
X0157548Y0071179D01*
X0157548Y0072359D02*
X0154792Y0072359D01*
X0154792Y0076692D02*
X0154792Y0079842D01*
X0157548Y0079842D01*
X0157548Y0076692D01*
X0154792Y0076692D01*
X0154792Y0077872D02*
X0157548Y0077872D01*
X0157548Y0079052D02*
X0154792Y0079052D01*
X0184802Y0085167D02*
X0187558Y0085167D01*
X0187558Y0080835D01*
X0184802Y0080835D01*
X0184802Y0085167D01*
X0184802Y0082015D02*
X0187558Y0082015D01*
X0187558Y0083195D02*
X0184802Y0083195D01*
X0184802Y0084375D02*
X0187558Y0084375D01*
X0192282Y0085167D02*
X0195038Y0085167D01*
X0195038Y0080835D01*
X0192282Y0080835D01*
X0192282Y0085167D01*
X0192282Y0082015D02*
X0195038Y0082015D01*
X0195038Y0083195D02*
X0192282Y0083195D01*
X0192282Y0084375D02*
X0195038Y0084375D01*
X0198946Y0085245D02*
X0201702Y0085245D01*
X0201702Y0082095D01*
X0198946Y0082095D01*
X0198946Y0085245D01*
X0198946Y0083275D02*
X0201702Y0083275D01*
X0201702Y0084455D02*
X0198946Y0084455D01*
X0205639Y0085245D02*
X0208395Y0085245D01*
X0208395Y0082095D01*
X0205639Y0082095D01*
X0205639Y0085245D01*
X0205639Y0083275D02*
X0208395Y0083275D01*
X0208395Y0084455D02*
X0205639Y0084455D01*
X0205639Y0075245D02*
X0208395Y0075245D01*
X0208395Y0072095D01*
X0205639Y0072095D01*
X0205639Y0075245D01*
X0205639Y0073275D02*
X0208395Y0073275D01*
X0208395Y0074455D02*
X0205639Y0074455D01*
X0201702Y0075245D02*
X0198946Y0075245D01*
X0201702Y0075245D02*
X0201702Y0072095D01*
X0198946Y0072095D01*
X0198946Y0075245D01*
X0198946Y0073275D02*
X0201702Y0073275D01*
X0201702Y0074455D02*
X0198946Y0074455D01*
X0191298Y0076505D02*
X0188542Y0076505D01*
X0191298Y0076505D02*
X0191298Y0072173D01*
X0188542Y0072173D01*
X0188542Y0076505D01*
X0188542Y0073353D02*
X0191298Y0073353D01*
X0191298Y0074533D02*
X0188542Y0074533D01*
X0188542Y0075713D02*
X0191298Y0075713D01*
X0191889Y0093995D02*
X0194645Y0093995D01*
X0194645Y0090845D01*
X0191889Y0090845D01*
X0191889Y0093995D01*
X0191889Y0092025D02*
X0194645Y0092025D01*
X0194645Y0093205D02*
X0191889Y0093205D01*
X0187952Y0093995D02*
X0185196Y0093995D01*
X0187952Y0093995D02*
X0187952Y0090845D01*
X0185196Y0090845D01*
X0185196Y0093995D01*
X0185196Y0092025D02*
X0187952Y0092025D01*
X0187952Y0093205D02*
X0185196Y0093205D01*
X0186042Y0102499D02*
X0186042Y0105649D01*
X0188798Y0105649D01*
X0188798Y0102499D01*
X0186042Y0102499D01*
X0186042Y0103679D02*
X0188798Y0103679D01*
X0188798Y0104859D02*
X0186042Y0104859D01*
X0186042Y0109192D02*
X0186042Y0112342D01*
X0188798Y0112342D01*
X0188798Y0109192D01*
X0186042Y0109192D01*
X0186042Y0110372D02*
X0188798Y0110372D01*
X0188798Y0111552D02*
X0186042Y0111552D01*
D14*
X0181170Y0061170D03*
X0181170Y0051170D03*
X0191170Y0051170D03*
X0191170Y0061170D03*
X0201170Y0061170D03*
X0211170Y0061170D03*
X0211170Y0051170D03*
X0201170Y0051170D03*
X0221170Y0051170D03*
X0221170Y0061170D03*
X0161170Y0061170D03*
X0151170Y0061170D03*
X0151170Y0051170D03*
X0161170Y0051170D03*
X0141170Y0051170D03*
X0131170Y0051170D03*
X0121170Y0051170D03*
X0121170Y0061170D03*
X0131170Y0061170D03*
X0141170Y0061170D03*
D15*
X0093813Y0117642D02*
X0093813Y0121392D01*
X0093813Y0117642D02*
X0092563Y0117642D01*
X0092563Y0121392D01*
X0093813Y0121392D01*
X0093813Y0118891D02*
X0092563Y0118891D01*
X0092563Y0120140D02*
X0093813Y0120140D01*
X0093813Y0121389D02*
X0092563Y0121389D01*
X0088813Y0121392D02*
X0088813Y0117642D01*
X0087563Y0117642D01*
X0087563Y0121392D01*
X0088813Y0121392D01*
X0088813Y0118891D02*
X0087563Y0118891D01*
X0087563Y0120140D02*
X0088813Y0120140D01*
X0088813Y0121389D02*
X0087563Y0121389D01*
X0083813Y0121392D02*
X0083813Y0117642D01*
X0082563Y0117642D01*
X0082563Y0121392D01*
X0083813Y0121392D01*
X0083813Y0118891D02*
X0082563Y0118891D01*
X0082563Y0120140D02*
X0083813Y0120140D01*
X0083813Y0121389D02*
X0082563Y0121389D01*
X0078813Y0121392D02*
X0078813Y0117642D01*
X0077563Y0117642D01*
X0077563Y0121392D01*
X0078813Y0121392D01*
X0078813Y0118891D02*
X0077563Y0118891D01*
X0077563Y0120140D02*
X0078813Y0120140D01*
X0078813Y0121389D02*
X0077563Y0121389D01*
X0073813Y0121392D02*
X0073813Y0117642D01*
X0072563Y0117642D01*
X0072563Y0121392D01*
X0073813Y0121392D01*
X0073813Y0118891D02*
X0072563Y0118891D01*
X0072563Y0120140D02*
X0073813Y0120140D01*
X0073813Y0121389D02*
X0072563Y0121389D01*
X0068813Y0121392D02*
X0068813Y0117642D01*
X0067563Y0117642D01*
X0067563Y0121392D01*
X0068813Y0121392D01*
X0068813Y0118891D02*
X0067563Y0118891D01*
X0067563Y0120140D02*
X0068813Y0120140D01*
X0068813Y0121389D02*
X0067563Y0121389D01*
X0063813Y0121392D02*
X0063813Y0117642D01*
X0062563Y0117642D01*
X0062563Y0121392D01*
X0063813Y0121392D01*
X0063813Y0118891D02*
X0062563Y0118891D01*
X0062563Y0120140D02*
X0063813Y0120140D01*
X0063813Y0121389D02*
X0062563Y0121389D01*
X0058813Y0121392D02*
X0058813Y0117642D01*
X0057563Y0117642D01*
X0057563Y0121392D01*
X0058813Y0121392D01*
X0058813Y0118891D02*
X0057563Y0118891D01*
X0057563Y0120140D02*
X0058813Y0120140D01*
X0058813Y0121389D02*
X0057563Y0121389D01*
X0058813Y0150437D02*
X0058813Y0154187D01*
X0058813Y0150437D02*
X0057563Y0150437D01*
X0057563Y0154187D01*
X0058813Y0154187D01*
X0058813Y0151686D02*
X0057563Y0151686D01*
X0057563Y0152935D02*
X0058813Y0152935D01*
X0058813Y0154184D02*
X0057563Y0154184D01*
X0063813Y0154187D02*
X0063813Y0150437D01*
X0062563Y0150437D01*
X0062563Y0154187D01*
X0063813Y0154187D01*
X0063813Y0151686D02*
X0062563Y0151686D01*
X0062563Y0152935D02*
X0063813Y0152935D01*
X0063813Y0154184D02*
X0062563Y0154184D01*
X0068813Y0154187D02*
X0068813Y0150437D01*
X0067563Y0150437D01*
X0067563Y0154187D01*
X0068813Y0154187D01*
X0068813Y0151686D02*
X0067563Y0151686D01*
X0067563Y0152935D02*
X0068813Y0152935D01*
X0068813Y0154184D02*
X0067563Y0154184D01*
X0073813Y0154187D02*
X0073813Y0150437D01*
X0072563Y0150437D01*
X0072563Y0154187D01*
X0073813Y0154187D01*
X0073813Y0151686D02*
X0072563Y0151686D01*
X0072563Y0152935D02*
X0073813Y0152935D01*
X0073813Y0154184D02*
X0072563Y0154184D01*
X0078813Y0154187D02*
X0078813Y0150437D01*
X0077563Y0150437D01*
X0077563Y0154187D01*
X0078813Y0154187D01*
X0078813Y0151686D02*
X0077563Y0151686D01*
X0077563Y0152935D02*
X0078813Y0152935D01*
X0078813Y0154184D02*
X0077563Y0154184D01*
X0083813Y0154187D02*
X0083813Y0150437D01*
X0082563Y0150437D01*
X0082563Y0154187D01*
X0083813Y0154187D01*
X0083813Y0151686D02*
X0082563Y0151686D01*
X0082563Y0152935D02*
X0083813Y0152935D01*
X0083813Y0154184D02*
X0082563Y0154184D01*
X0088813Y0154187D02*
X0088813Y0150437D01*
X0087563Y0150437D01*
X0087563Y0154187D01*
X0088813Y0154187D01*
X0088813Y0151686D02*
X0087563Y0151686D01*
X0087563Y0152935D02*
X0088813Y0152935D01*
X0088813Y0154184D02*
X0087563Y0154184D01*
X0093813Y0154187D02*
X0093813Y0150437D01*
X0092563Y0150437D01*
X0092563Y0154187D01*
X0093813Y0154187D01*
X0093813Y0151686D02*
X0092563Y0151686D01*
X0092563Y0152935D02*
X0093813Y0152935D01*
X0093813Y0154184D02*
X0092563Y0154184D01*
D16*
X0136741Y0158276D02*
X0139339Y0158276D01*
X0136741Y0158276D02*
X0136741Y0160482D01*
X0139339Y0160482D01*
X0139339Y0158276D01*
X0139339Y0159220D02*
X0136741Y0159220D01*
X0136741Y0160164D02*
X0139339Y0160164D01*
X0139339Y0146858D02*
X0136741Y0146858D01*
X0136741Y0149064D01*
X0139339Y0149064D01*
X0139339Y0146858D01*
X0139339Y0147802D02*
X0136741Y0147802D01*
X0136741Y0148746D02*
X0139339Y0148746D01*
X0158001Y0146858D02*
X0160599Y0146858D01*
X0158001Y0146858D02*
X0158001Y0149064D01*
X0160599Y0149064D01*
X0160599Y0146858D01*
X0160599Y0147802D02*
X0158001Y0147802D01*
X0158001Y0148746D02*
X0160599Y0148746D01*
X0160599Y0158276D02*
X0158001Y0158276D01*
X0158001Y0160482D01*
X0160599Y0160482D01*
X0160599Y0158276D01*
X0160599Y0159220D02*
X0158001Y0159220D01*
X0158001Y0160164D02*
X0160599Y0160164D01*
X0092567Y0103040D02*
X0092567Y0097686D01*
X0092567Y0103040D02*
X0094773Y0103040D01*
X0094773Y0097686D01*
X0092567Y0097686D01*
X0092567Y0098630D02*
X0094773Y0098630D01*
X0094773Y0099574D02*
X0092567Y0099574D01*
X0092567Y0100518D02*
X0094773Y0100518D01*
X0094773Y0101462D02*
X0092567Y0101462D01*
X0092567Y0102406D02*
X0094773Y0102406D01*
X0083817Y0103040D02*
X0083817Y0097686D01*
X0083817Y0103040D02*
X0086023Y0103040D01*
X0086023Y0097686D01*
X0083817Y0097686D01*
X0083817Y0098630D02*
X0086023Y0098630D01*
X0086023Y0099574D02*
X0083817Y0099574D01*
X0083817Y0100518D02*
X0086023Y0100518D01*
X0086023Y0101462D02*
X0083817Y0101462D01*
X0083817Y0102406D02*
X0086023Y0102406D01*
X0067567Y0100540D02*
X0067567Y0095186D01*
X0067567Y0100540D02*
X0069773Y0100540D01*
X0069773Y0095186D01*
X0067567Y0095186D01*
X0067567Y0096130D02*
X0069773Y0096130D01*
X0069773Y0097074D02*
X0067567Y0097074D01*
X0067567Y0098018D02*
X0069773Y0098018D01*
X0069773Y0098962D02*
X0067567Y0098962D01*
X0067567Y0099906D02*
X0069773Y0099906D01*
X0057567Y0100540D02*
X0057567Y0095186D01*
X0057567Y0100540D02*
X0059773Y0100540D01*
X0059773Y0095186D01*
X0057567Y0095186D01*
X0057567Y0096130D02*
X0059773Y0096130D01*
X0059773Y0097074D02*
X0057567Y0097074D01*
X0057567Y0098018D02*
X0059773Y0098018D01*
X0059773Y0098962D02*
X0057567Y0098962D01*
X0057567Y0099906D02*
X0059773Y0099906D01*
X0057567Y0087154D02*
X0057567Y0081800D01*
X0057567Y0087154D02*
X0059773Y0087154D01*
X0059773Y0081800D01*
X0057567Y0081800D01*
X0057567Y0082744D02*
X0059773Y0082744D01*
X0059773Y0083688D02*
X0057567Y0083688D01*
X0057567Y0084632D02*
X0059773Y0084632D01*
X0059773Y0085576D02*
X0057567Y0085576D01*
X0057567Y0086520D02*
X0059773Y0086520D01*
X0067567Y0087154D02*
X0067567Y0081800D01*
X0067567Y0087154D02*
X0069773Y0087154D01*
X0069773Y0081800D01*
X0067567Y0081800D01*
X0067567Y0082744D02*
X0069773Y0082744D01*
X0069773Y0083688D02*
X0067567Y0083688D01*
X0067567Y0084632D02*
X0069773Y0084632D01*
X0069773Y0085576D02*
X0067567Y0085576D01*
X0067567Y0086520D02*
X0069773Y0086520D01*
X0067567Y0075540D02*
X0067567Y0070186D01*
X0067567Y0075540D02*
X0069773Y0075540D01*
X0069773Y0070186D01*
X0067567Y0070186D01*
X0067567Y0071130D02*
X0069773Y0071130D01*
X0069773Y0072074D02*
X0067567Y0072074D01*
X0067567Y0073018D02*
X0069773Y0073018D01*
X0069773Y0073962D02*
X0067567Y0073962D01*
X0067567Y0074906D02*
X0069773Y0074906D01*
X0057567Y0075540D02*
X0057567Y0070186D01*
X0057567Y0075540D02*
X0059773Y0075540D01*
X0059773Y0070186D01*
X0057567Y0070186D01*
X0057567Y0071130D02*
X0059773Y0071130D01*
X0059773Y0072074D02*
X0057567Y0072074D01*
X0057567Y0073018D02*
X0059773Y0073018D01*
X0059773Y0073962D02*
X0057567Y0073962D01*
X0057567Y0074906D02*
X0059773Y0074906D01*
X0057567Y0062154D02*
X0057567Y0056800D01*
X0057567Y0062154D02*
X0059773Y0062154D01*
X0059773Y0056800D01*
X0057567Y0056800D01*
X0057567Y0057744D02*
X0059773Y0057744D01*
X0059773Y0058688D02*
X0057567Y0058688D01*
X0057567Y0059632D02*
X0059773Y0059632D01*
X0059773Y0060576D02*
X0057567Y0060576D01*
X0057567Y0061520D02*
X0059773Y0061520D01*
X0067567Y0062154D02*
X0067567Y0056800D01*
X0067567Y0062154D02*
X0069773Y0062154D01*
X0069773Y0056800D01*
X0067567Y0056800D01*
X0067567Y0057744D02*
X0069773Y0057744D01*
X0069773Y0058688D02*
X0067567Y0058688D01*
X0067567Y0059632D02*
X0069773Y0059632D01*
X0069773Y0060576D02*
X0067567Y0060576D01*
X0067567Y0061520D02*
X0069773Y0061520D01*
X0077567Y0062154D02*
X0077567Y0056800D01*
X0077567Y0062154D02*
X0079773Y0062154D01*
X0079773Y0056800D01*
X0077567Y0056800D01*
X0077567Y0057744D02*
X0079773Y0057744D01*
X0079773Y0058688D02*
X0077567Y0058688D01*
X0077567Y0059632D02*
X0079773Y0059632D01*
X0079773Y0060576D02*
X0077567Y0060576D01*
X0077567Y0061520D02*
X0079773Y0061520D01*
X0087567Y0062154D02*
X0087567Y0056800D01*
X0087567Y0062154D02*
X0089773Y0062154D01*
X0089773Y0056800D01*
X0087567Y0056800D01*
X0087567Y0057744D02*
X0089773Y0057744D01*
X0089773Y0058688D02*
X0087567Y0058688D01*
X0087567Y0059632D02*
X0089773Y0059632D01*
X0089773Y0060576D02*
X0087567Y0060576D01*
X0087567Y0061520D02*
X0089773Y0061520D01*
X0087567Y0070186D02*
X0087567Y0075540D01*
X0089773Y0075540D01*
X0089773Y0070186D01*
X0087567Y0070186D01*
X0087567Y0071130D02*
X0089773Y0071130D01*
X0089773Y0072074D02*
X0087567Y0072074D01*
X0087567Y0073018D02*
X0089773Y0073018D01*
X0089773Y0073962D02*
X0087567Y0073962D01*
X0087567Y0074906D02*
X0089773Y0074906D01*
X0077567Y0075540D02*
X0077567Y0070186D01*
X0077567Y0075540D02*
X0079773Y0075540D01*
X0079773Y0070186D01*
X0077567Y0070186D01*
X0077567Y0071130D02*
X0079773Y0071130D01*
X0079773Y0072074D02*
X0077567Y0072074D01*
X0077567Y0073018D02*
X0079773Y0073018D01*
X0079773Y0073962D02*
X0077567Y0073962D01*
X0077567Y0074906D02*
X0079773Y0074906D01*
X0083817Y0084300D02*
X0083817Y0089654D01*
X0086023Y0089654D01*
X0086023Y0084300D01*
X0083817Y0084300D01*
X0083817Y0085244D02*
X0086023Y0085244D01*
X0086023Y0086188D02*
X0083817Y0086188D01*
X0083817Y0087132D02*
X0086023Y0087132D01*
X0086023Y0088076D02*
X0083817Y0088076D01*
X0083817Y0089020D02*
X0086023Y0089020D01*
X0092567Y0089654D02*
X0092567Y0084300D01*
X0092567Y0089654D02*
X0094773Y0089654D01*
X0094773Y0084300D01*
X0092567Y0084300D01*
X0092567Y0085244D02*
X0094773Y0085244D01*
X0094773Y0086188D02*
X0092567Y0086188D01*
X0092567Y0087132D02*
X0094773Y0087132D01*
X0094773Y0088076D02*
X0092567Y0088076D01*
X0092567Y0089020D02*
X0094773Y0089020D01*
D17*
X0129005Y0133020D02*
X0129005Y0136328D01*
X0129005Y0133020D02*
X0123335Y0133020D01*
X0123335Y0136328D01*
X0129005Y0136328D01*
X0129005Y0134436D02*
X0123335Y0134436D01*
X0123335Y0135852D02*
X0129005Y0135852D01*
X0129005Y0146012D02*
X0129005Y0149320D01*
X0129005Y0146012D02*
X0123335Y0146012D01*
X0123335Y0149320D01*
X0129005Y0149320D01*
X0129005Y0147428D02*
X0123335Y0147428D01*
X0123335Y0148844D02*
X0129005Y0148844D01*
X0216190Y0085324D02*
X0216190Y0082016D01*
X0212882Y0082016D01*
X0212882Y0085324D01*
X0216190Y0085324D01*
X0216190Y0083432D02*
X0212882Y0083432D01*
X0212882Y0084848D02*
X0216190Y0084848D01*
X0224458Y0085324D02*
X0224458Y0082016D01*
X0221150Y0082016D01*
X0221150Y0085324D01*
X0224458Y0085324D01*
X0224458Y0083432D02*
X0221150Y0083432D01*
X0221150Y0084848D02*
X0224458Y0084848D01*
X0224458Y0075324D02*
X0224458Y0072016D01*
X0221150Y0072016D01*
X0221150Y0075324D01*
X0224458Y0075324D01*
X0224458Y0073432D02*
X0221150Y0073432D01*
X0221150Y0074848D02*
X0224458Y0074848D01*
X0216190Y0075324D02*
X0216190Y0072016D01*
X0212882Y0072016D01*
X0212882Y0075324D01*
X0216190Y0075324D01*
X0216190Y0073432D02*
X0212882Y0073432D01*
X0212882Y0074848D02*
X0216190Y0074848D01*
D18*
X0213151Y0129971D02*
X0207261Y0129971D01*
X0213151Y0129971D02*
X0213151Y0124869D01*
X0207261Y0124869D01*
X0207261Y0129971D01*
X0207261Y0126852D02*
X0213151Y0126852D01*
X0213151Y0128835D02*
X0207261Y0128835D01*
X0196615Y0129971D02*
X0190725Y0129971D01*
X0196615Y0129971D02*
X0196615Y0124869D01*
X0190725Y0124869D01*
X0190725Y0129971D01*
X0190725Y0126852D02*
X0196615Y0126852D01*
X0196615Y0128835D02*
X0190725Y0128835D01*
X0190725Y0149971D02*
X0196615Y0149971D01*
X0196615Y0144869D01*
X0190725Y0144869D01*
X0190725Y0149971D01*
X0190725Y0146852D02*
X0196615Y0146852D01*
X0196615Y0148835D02*
X0190725Y0148835D01*
X0190725Y0163721D02*
X0196615Y0163721D01*
X0196615Y0158619D01*
X0190725Y0158619D01*
X0190725Y0163721D01*
X0190725Y0160602D02*
X0196615Y0160602D01*
X0196615Y0162585D02*
X0190725Y0162585D01*
X0190725Y0183721D02*
X0196615Y0183721D01*
X0196615Y0178619D01*
X0190725Y0178619D01*
X0190725Y0183721D01*
X0190725Y0180602D02*
X0196615Y0180602D01*
X0196615Y0182585D02*
X0190725Y0182585D01*
X0207261Y0183721D02*
X0213151Y0183721D01*
X0213151Y0178619D01*
X0207261Y0178619D01*
X0207261Y0183721D01*
X0207261Y0180602D02*
X0213151Y0180602D01*
X0213151Y0182585D02*
X0207261Y0182585D01*
X0207261Y0163721D02*
X0213151Y0163721D01*
X0213151Y0158619D01*
X0207261Y0158619D01*
X0207261Y0163721D01*
X0207261Y0160602D02*
X0213151Y0160602D01*
X0213151Y0162585D02*
X0207261Y0162585D01*
X0207261Y0149971D02*
X0213151Y0149971D01*
X0213151Y0144869D01*
X0207261Y0144869D01*
X0207261Y0149971D01*
X0207261Y0146852D02*
X0213151Y0146852D01*
X0213151Y0148835D02*
X0207261Y0148835D01*
D19*
X0218370Y0149920D02*
X0223970Y0149920D01*
X0223970Y0139920D02*
X0218370Y0139920D01*
X0218370Y0159920D02*
X0223970Y0159920D01*
X0223970Y0111170D02*
X0218370Y0111170D01*
X0218370Y0101170D02*
X0223970Y0101170D01*
X0177720Y0081170D02*
X0172120Y0081170D01*
X0172120Y0071170D02*
X0177720Y0071170D01*
D20*
X0154753Y0146799D02*
X0152823Y0146799D01*
X0152823Y0149123D01*
X0154753Y0149123D01*
X0154753Y0146799D01*
X0154753Y0147625D02*
X0152823Y0147625D01*
X0152823Y0148451D02*
X0154753Y0148451D01*
X0149635Y0146799D02*
X0147705Y0146799D01*
X0147705Y0149123D01*
X0149635Y0149123D01*
X0149635Y0146799D01*
X0149635Y0147625D02*
X0147705Y0147625D01*
X0147705Y0148451D02*
X0149635Y0148451D01*
X0144517Y0146799D02*
X0142587Y0146799D01*
X0142587Y0149123D01*
X0144517Y0149123D01*
X0144517Y0146799D01*
X0144517Y0147625D02*
X0142587Y0147625D01*
X0142587Y0148451D02*
X0144517Y0148451D01*
X0144517Y0158217D02*
X0142587Y0158217D01*
X0142587Y0160541D01*
X0144517Y0160541D01*
X0144517Y0158217D01*
X0144517Y0159043D02*
X0142587Y0159043D01*
X0142587Y0159869D02*
X0144517Y0159869D01*
X0147705Y0158217D02*
X0149635Y0158217D01*
X0147705Y0158217D02*
X0147705Y0160541D01*
X0149635Y0160541D01*
X0149635Y0158217D01*
X0149635Y0159043D02*
X0147705Y0159043D01*
X0147705Y0159869D02*
X0149635Y0159869D01*
X0152823Y0158217D02*
X0154753Y0158217D01*
X0152823Y0158217D02*
X0152823Y0160541D01*
X0154753Y0160541D01*
X0154753Y0158217D01*
X0154753Y0159043D02*
X0152823Y0159043D01*
X0152823Y0159869D02*
X0154753Y0159869D01*
D21*
X0148670Y0171170D03*
X0138670Y0171170D03*
X0128670Y0171170D03*
X0118670Y0171170D03*
X0123670Y0181170D03*
X0133670Y0181170D03*
X0143670Y0181170D03*
X0153670Y0181170D03*
X0098670Y0181170D03*
X0088670Y0181170D03*
X0078670Y0181170D03*
X0068670Y0181170D03*
X0063670Y0171170D03*
X0073670Y0171170D03*
X0083670Y0171170D03*
X0093670Y0171170D03*
D22*
X0191643Y0194427D02*
X0199457Y0194427D01*
X0199457Y0192913D01*
X0191643Y0192913D01*
X0191643Y0194427D01*
X0191643Y0193562D02*
X0199457Y0193562D01*
X0199457Y0194211D02*
X0191643Y0194211D01*
X0191643Y0199427D02*
X0199457Y0199427D01*
X0199457Y0197913D01*
X0191643Y0197913D01*
X0191643Y0199427D01*
X0191643Y0198562D02*
X0199457Y0198562D01*
X0199457Y0199211D02*
X0191643Y0199211D01*
X0191643Y0204427D02*
X0199457Y0204427D01*
X0199457Y0202913D01*
X0191643Y0202913D01*
X0191643Y0204427D01*
X0191643Y0203562D02*
X0199457Y0203562D01*
X0199457Y0204211D02*
X0191643Y0204211D01*
X0191643Y0209427D02*
X0199457Y0209427D01*
X0199457Y0207913D01*
X0191643Y0207913D01*
X0191643Y0209427D01*
X0191643Y0208562D02*
X0199457Y0208562D01*
X0199457Y0209211D02*
X0191643Y0209211D01*
X0191643Y0214427D02*
X0199457Y0214427D01*
X0199457Y0212913D01*
X0191643Y0212913D01*
X0191643Y0214427D01*
X0191643Y0213562D02*
X0199457Y0213562D01*
X0199457Y0214211D02*
X0191643Y0214211D01*
D23*
X0176443Y0209760D02*
X0176443Y0197580D01*
X0169775Y0197580D01*
X0169775Y0209760D01*
X0176443Y0209760D01*
X0176443Y0199571D02*
X0169775Y0199571D01*
X0169775Y0201562D02*
X0176443Y0201562D01*
X0176443Y0203553D02*
X0169775Y0203553D01*
X0169775Y0205544D02*
X0176443Y0205544D01*
X0176443Y0207535D02*
X0169775Y0207535D01*
X0169775Y0209526D02*
X0176443Y0209526D01*
D24*
X0204448Y0200619D02*
X0208582Y0200619D01*
X0204448Y0200619D02*
X0204448Y0206721D01*
X0208582Y0206721D01*
X0208582Y0200619D01*
X0208582Y0202390D02*
X0204448Y0202390D01*
X0204448Y0204161D02*
X0208582Y0204161D01*
X0208582Y0205932D02*
X0204448Y0205932D01*
X0204448Y0190619D02*
X0208582Y0190619D01*
X0204448Y0190619D02*
X0204448Y0196721D01*
X0208582Y0196721D01*
X0208582Y0190619D01*
X0208582Y0192390D02*
X0204448Y0192390D01*
X0204448Y0194161D02*
X0208582Y0194161D01*
X0208582Y0195932D02*
X0204448Y0195932D01*
X0216259Y0190619D02*
X0220393Y0190619D01*
X0216259Y0190619D02*
X0216259Y0196721D01*
X0220393Y0196721D01*
X0220393Y0190619D01*
X0220393Y0192390D02*
X0216259Y0192390D01*
X0216259Y0194161D02*
X0220393Y0194161D01*
X0220393Y0195932D02*
X0216259Y0195932D01*
X0216259Y0200619D02*
X0220393Y0200619D01*
X0216259Y0200619D02*
X0216259Y0206721D01*
X0220393Y0206721D01*
X0220393Y0200619D01*
X0220393Y0202390D02*
X0216259Y0202390D01*
X0216259Y0204161D02*
X0220393Y0204161D01*
X0220393Y0205932D02*
X0216259Y0205932D01*
D25*
X0109920Y0126170D03*
X0109920Y0113670D03*
X0109920Y0101170D03*
X0109920Y0088670D03*
D26*
X0168710Y0060780D02*
X0168710Y0057560D01*
X0168710Y0060780D02*
X0173630Y0060780D01*
X0173630Y0057560D01*
X0168710Y0057560D01*
X0168710Y0058939D02*
X0173630Y0058939D01*
X0173630Y0060318D02*
X0168710Y0060318D01*
X0168710Y0054780D02*
X0168710Y0051560D01*
X0168710Y0054780D02*
X0173630Y0054780D01*
X0173630Y0051560D01*
X0168710Y0051560D01*
X0168710Y0052939D02*
X0173630Y0052939D01*
X0173630Y0054318D02*
X0168710Y0054318D01*
X0217460Y0119060D02*
X0217460Y0122280D01*
X0222380Y0122280D01*
X0222380Y0119060D01*
X0217460Y0119060D01*
X0217460Y0120439D02*
X0222380Y0120439D01*
X0222380Y0121818D02*
X0217460Y0121818D01*
X0217460Y0125060D02*
X0217460Y0128280D01*
X0222380Y0128280D01*
X0222380Y0125060D01*
X0217460Y0125060D01*
X0217460Y0126439D02*
X0222380Y0126439D01*
X0222380Y0127818D02*
X0217460Y0127818D01*
D27*
X0219920Y0120670D02*
X0228670Y0120670D01*
X0228670Y0093670D01*
X0222420Y0093670D01*
X0222420Y0083670D01*
X0222804Y0083670D01*
X0222804Y0073670D01*
X0214536Y0073670D02*
X0207017Y0073670D01*
X0200324Y0073670D02*
X0199654Y0074339D01*
X0189920Y0074339D01*
X0193660Y0083001D02*
X0193267Y0083394D01*
X0193267Y0092420D01*
X0189920Y0096170D02*
X0178670Y0096170D01*
X0178670Y0099221D01*
X0172755Y0099221D01*
X0172420Y0096406D02*
X0172422Y0096371D01*
X0172427Y0096336D01*
X0172436Y0096302D01*
X0172449Y0096270D01*
X0172465Y0096239D01*
X0172484Y0096209D01*
X0172506Y0096182D01*
X0172531Y0096157D01*
X0172558Y0096135D01*
X0172588Y0096116D01*
X0172619Y0096100D01*
X0172651Y0096087D01*
X0172685Y0096078D01*
X0172720Y0096073D01*
X0172755Y0096071D01*
X0172755Y0096072D02*
X0172755Y0096170D01*
X0178670Y0096170D01*
X0178670Y0099221D02*
X0178670Y0102371D01*
X0172755Y0102371D01*
X0168621Y0102371D01*
X0167420Y0101170D01*
X0164920Y0101170D01*
X0163670Y0102420D01*
X0149920Y0102420D01*
X0148670Y0103670D01*
X0148670Y0119920D01*
X0146770Y0123670D02*
X0143670Y0123670D01*
X0146770Y0123670D02*
X0146770Y0131505D01*
X0143621Y0131505D02*
X0143621Y0136121D01*
X0153670Y0146170D01*
X0153670Y0147843D01*
X0153788Y0147961D01*
X0156170Y0143670D02*
X0159300Y0143670D01*
X0159300Y0147961D01*
X0159300Y0151170D01*
X0148670Y0151170D01*
X0144920Y0154920D01*
X0138040Y0154920D01*
X0138040Y0159379D01*
X0143552Y0159379D02*
X0143670Y0159497D01*
X0143670Y0164920D01*
X0148670Y0159920D02*
X0148670Y0159379D01*
X0148670Y0156170D01*
X0151170Y0153670D01*
X0163670Y0153670D01*
X0166170Y0151170D01*
X0166170Y0144920D01*
X0161170Y0139920D01*
X0154920Y0139920D01*
X0149920Y0134920D01*
X0149920Y0131505D01*
X0153070Y0131505D02*
X0153070Y0134320D01*
X0156170Y0137420D01*
X0162420Y0137420D01*
X0168670Y0143670D01*
X0168670Y0152420D01*
X0164920Y0156170D01*
X0156170Y0156170D01*
X0153788Y0158552D01*
X0153788Y0159379D01*
X0159300Y0159379D02*
X0159300Y0164920D01*
X0152420Y0164920D01*
X0148670Y0147961D02*
X0148670Y0144920D01*
X0140471Y0136721D01*
X0140471Y0131505D01*
X0137420Y0131603D02*
X0137322Y0131505D01*
X0137420Y0131603D02*
X0137420Y0137420D01*
X0143552Y0143552D01*
X0143552Y0147961D01*
X0138040Y0147961D02*
X0138040Y0142420D01*
X0134172Y0138670D01*
X0134172Y0131505D01*
X0129920Y0128670D02*
X0133670Y0124920D01*
X0133670Y0101170D01*
X0131721Y0099221D01*
X0127085Y0099221D01*
X0120471Y0099221D01*
X0118670Y0097420D01*
X0118670Y0087420D01*
X0116170Y0084920D01*
X0116170Y0079517D01*
X0116170Y0088670D02*
X0109920Y0088670D01*
X0116170Y0088670D02*
X0116170Y0098670D01*
X0119920Y0102371D01*
X0127085Y0102371D01*
X0127085Y0105520D02*
X0113670Y0105520D01*
X0109920Y0101170D01*
X0121170Y0094920D02*
X0121170Y0091170D01*
X0126170Y0086170D01*
X0126170Y0079517D01*
X0132420Y0077420D02*
X0132420Y0067420D01*
X0167420Y0067420D01*
X0156219Y0078316D02*
X0156219Y0085835D01*
X0156219Y0091121D01*
X0153670Y0093670D01*
X0149920Y0092420D02*
X0153070Y0089270D01*
X0153070Y0085835D01*
X0149920Y0085835D02*
X0149920Y0081170D01*
X0151170Y0079920D01*
X0156170Y0078267D02*
X0156219Y0078316D01*
X0159369Y0085835D02*
X0159369Y0092420D01*
X0161170Y0092420D01*
X0161170Y0097420D02*
X0169920Y0088670D01*
X0181170Y0088670D01*
X0181170Y0092420D01*
X0186574Y0092420D01*
X0189920Y0096170D02*
X0189920Y0087420D01*
X0183670Y0087420D01*
X0182420Y0086170D01*
X0166003Y0086170D01*
X0165968Y0086168D01*
X0165933Y0086163D01*
X0165899Y0086154D01*
X0165867Y0086141D01*
X0165836Y0086125D01*
X0165806Y0086106D01*
X0165779Y0086084D01*
X0165754Y0086059D01*
X0165732Y0086032D01*
X0165713Y0086003D01*
X0165697Y0085971D01*
X0165684Y0085939D01*
X0165675Y0085905D01*
X0165670Y0085870D01*
X0165668Y0085835D01*
X0169418Y0092922D02*
X0162420Y0099920D01*
X0141795Y0099920D01*
X0129920Y0088045D01*
X0129920Y0068670D01*
X0128670Y0067420D01*
X0126170Y0067420D01*
X0110767Y0067420D01*
X0108267Y0066170D01*
X0101574Y0066170D02*
X0073670Y0066170D01*
X0073670Y0079920D01*
X0109920Y0113670D02*
X0116170Y0113670D01*
X0116170Y0114969D01*
X0127085Y0114969D01*
X0127085Y0118119D02*
X0116170Y0118119D01*
X0116170Y0126170D01*
X0109920Y0126170D01*
X0119920Y0131170D02*
X0119920Y0144920D01*
X0119920Y0147666D01*
X0126170Y0147666D01*
X0126170Y0134674D02*
X0126170Y0128670D01*
X0129920Y0128670D01*
X0127085Y0121269D02*
X0121170Y0121170D01*
X0121170Y0129920D01*
X0119920Y0131170D01*
X0127085Y0111820D02*
X0127085Y0108670D01*
X0127085Y0096072D02*
X0122322Y0096072D01*
X0121170Y0094920D01*
X0134172Y0085835D02*
X0134172Y0079172D01*
X0132420Y0077420D01*
X0136170Y0076170D02*
X0137420Y0077420D01*
X0137420Y0085737D01*
X0137419Y0085754D01*
X0137414Y0085771D01*
X0137407Y0085786D01*
X0137397Y0085800D01*
X0137385Y0085812D01*
X0137371Y0085822D01*
X0137356Y0085829D01*
X0137339Y0085834D01*
X0137322Y0085835D01*
X0140471Y0085835D02*
X0140471Y0080619D01*
X0141170Y0079920D01*
X0143621Y0082469D02*
X0144920Y0081170D01*
X0144920Y0078670D01*
X0142420Y0076170D01*
X0142420Y0074920D01*
X0141170Y0073670D01*
X0146770Y0074320D02*
X0147420Y0073670D01*
X0146770Y0074320D02*
X0146770Y0085835D01*
X0143621Y0085835D02*
X0143621Y0082469D01*
X0141170Y0092420D02*
X0149920Y0092420D01*
X0146170Y0097420D02*
X0141170Y0092420D01*
X0146170Y0097420D02*
X0161170Y0097420D01*
X0166170Y0104920D02*
X0151170Y0104920D01*
X0151170Y0113670D01*
X0159369Y0122420D01*
X0159369Y0131505D01*
X0162519Y0131505D02*
X0162519Y0118670D01*
X0158670Y0114920D01*
X0162420Y0112420D02*
X0164418Y0114418D01*
X0164418Y0118168D01*
X0165668Y0119418D01*
X0165668Y0131505D01*
X0156219Y0131505D02*
X0156219Y0123670D01*
X0152420Y0123670D01*
X0167420Y0118119D02*
X0167420Y0112420D01*
X0163670Y0108670D01*
X0154920Y0108670D01*
X0167420Y0118119D02*
X0172755Y0118119D01*
X0172755Y0121269D02*
X0178572Y0121269D01*
X0178670Y0121170D01*
X0182420Y0114969D02*
X0172755Y0114969D01*
X0172755Y0111820D02*
X0178020Y0111820D01*
X0178670Y0111170D01*
X0182420Y0114969D02*
X0182420Y0105520D01*
X0172755Y0105520D01*
X0182420Y0114969D02*
X0183719Y0114969D01*
X0187420Y0114969D01*
X0187420Y0127420D01*
X0187420Y0134920D01*
X0177017Y0134920D01*
X0177017Y0161170D01*
X0182420Y0161170D01*
X0193670Y0161170D01*
X0193670Y0167420D02*
X0199920Y0167420D01*
X0199920Y0147420D01*
X0193670Y0147420D01*
X0191170Y0147420D01*
X0186170Y0142420D01*
X0187420Y0127420D02*
X0193670Y0127420D01*
X0193670Y0120670D01*
X0219920Y0120670D01*
X0187420Y0114969D02*
X0187420Y0110767D01*
X0183670Y0114920D02*
X0183719Y0114969D01*
X0172755Y0092922D02*
X0169418Y0092922D01*
X0207017Y0083670D02*
X0214536Y0083670D01*
X0171170Y0053170D02*
X0171170Y0047420D01*
X0193670Y0167420D02*
X0193670Y0181170D01*
X0206170Y0203670D02*
X0206515Y0203670D01*
X0201170Y0208670D02*
X0204920Y0212420D01*
X0209074Y0212420D01*
X0201170Y0208670D02*
X0195550Y0208670D01*
D28*
X0200530Y0206262D02*
X0200737Y0206470D01*
X0201962Y0206470D01*
X0201962Y0202511D01*
X0201294Y0201844D01*
X0201437Y0202092D01*
X0201582Y0202632D01*
X0201582Y0203670D01*
X0195550Y0203670D01*
X0195550Y0203670D01*
X0189518Y0203670D01*
X0189518Y0202632D01*
X0189663Y0202092D01*
X0189942Y0201608D01*
X0190338Y0201212D01*
X0190570Y0201078D01*
X0190563Y0201070D01*
X0188552Y0201070D01*
X0188085Y0201536D01*
X0186843Y0202051D01*
X0185498Y0202051D01*
X0184255Y0201536D01*
X0183304Y0200585D01*
X0182789Y0199343D01*
X0182789Y0197998D01*
X0183304Y0196755D01*
X0184255Y0195804D01*
X0185498Y0195289D01*
X0186843Y0195289D01*
X0188085Y0195804D01*
X0188552Y0196270D01*
X0190563Y0196270D01*
X0190663Y0196170D01*
X0189718Y0195225D01*
X0189718Y0192115D01*
X0190845Y0190987D01*
X0200255Y0190987D01*
X0200537Y0191270D01*
X0201962Y0191270D01*
X0201962Y0190124D01*
X0202340Y0189211D01*
X0203040Y0188512D01*
X0203953Y0188133D01*
X0209076Y0188133D01*
X0209990Y0188512D01*
X0210020Y0188542D01*
X0210020Y0186943D01*
X0210385Y0186061D01*
X0211005Y0185441D01*
X0211005Y0181970D01*
X0209406Y0181970D01*
X0209406Y0186513D01*
X0206986Y0186513D01*
X0206446Y0186406D01*
X0205938Y0186196D01*
X0205481Y0185890D01*
X0205092Y0185501D01*
X0204786Y0185044D01*
X0204576Y0184536D01*
X0204469Y0183996D01*
X0204469Y0181970D01*
X0209405Y0181970D01*
X0209405Y0180370D01*
X0204469Y0180370D01*
X0204469Y0178344D01*
X0204576Y0177804D01*
X0204786Y0177296D01*
X0205092Y0176839D01*
X0205481Y0176450D01*
X0205938Y0176145D01*
X0206446Y0175934D01*
X0206986Y0175827D01*
X0209406Y0175827D01*
X0209406Y0180370D01*
X0211005Y0180370D01*
X0211005Y0175827D01*
X0213425Y0175827D01*
X0213965Y0175934D01*
X0214473Y0176145D01*
X0214930Y0176450D01*
X0215319Y0176839D01*
X0215625Y0177296D01*
X0215835Y0177804D01*
X0215943Y0178344D01*
X0215943Y0180370D01*
X0211006Y0180370D01*
X0211006Y0181970D01*
X0215943Y0181970D01*
X0215943Y0183996D01*
X0215835Y0184536D01*
X0215635Y0185020D01*
X0222538Y0185020D01*
X0223005Y0184554D01*
X0224248Y0184039D01*
X0225593Y0184039D01*
X0226835Y0184554D01*
X0227786Y0185505D01*
X0228301Y0186748D01*
X0228301Y0188093D01*
X0227786Y0189335D01*
X0226835Y0190286D01*
X0225593Y0190801D01*
X0224248Y0190801D01*
X0223070Y0190313D01*
X0223078Y0190354D01*
X0223078Y0192994D01*
X0219002Y0192994D01*
X0219002Y0194346D01*
X0223078Y0194346D01*
X0223078Y0196986D01*
X0222975Y0197505D01*
X0222773Y0197993D01*
X0222479Y0198433D01*
X0222242Y0198670D01*
X0222479Y0198907D01*
X0222773Y0199347D01*
X0222975Y0199835D01*
X0223078Y0200354D01*
X0223078Y0202994D01*
X0219002Y0202994D01*
X0219002Y0204346D01*
X0223078Y0204346D01*
X0223078Y0206986D01*
X0222975Y0207505D01*
X0222773Y0207993D01*
X0222479Y0208433D01*
X0222105Y0208807D01*
X0221665Y0209101D01*
X0221176Y0209304D01*
X0220657Y0209407D01*
X0219087Y0209407D01*
X0219198Y0209518D01*
X0219460Y0209910D01*
X0219640Y0210345D01*
X0219732Y0210807D01*
X0219732Y0212236D01*
X0215951Y0212236D01*
X0215951Y0212604D01*
X0219732Y0212604D01*
X0219732Y0214033D01*
X0219640Y0214495D01*
X0219460Y0214930D01*
X0219198Y0215322D01*
X0218865Y0215655D01*
X0218474Y0215916D01*
X0218039Y0216097D01*
X0217577Y0216189D01*
X0215951Y0216189D01*
X0215951Y0212604D01*
X0215582Y0212604D01*
X0215582Y0216189D01*
X0214520Y0216189D01*
X0214520Y0217040D01*
X0213290Y0218270D01*
X0204050Y0218270D01*
X0202820Y0217040D01*
X0201550Y0215770D01*
X0200837Y0215770D01*
X0200255Y0216353D01*
X0190845Y0216353D01*
X0189718Y0215225D01*
X0189718Y0212115D01*
X0190663Y0211170D01*
X0189718Y0210225D01*
X0189718Y0207115D01*
X0190570Y0206262D01*
X0190338Y0206128D01*
X0189942Y0205733D01*
X0189663Y0205248D01*
X0189518Y0204708D01*
X0189518Y0203670D01*
X0195550Y0203670D01*
X0195550Y0203670D01*
X0201582Y0203670D01*
X0201582Y0204708D01*
X0201437Y0205248D01*
X0201158Y0205733D01*
X0200762Y0206128D01*
X0200530Y0206262D01*
X0200677Y0206409D02*
X0201962Y0206409D01*
X0201962Y0204811D02*
X0201555Y0204811D01*
X0201582Y0203212D02*
X0201962Y0203212D01*
X0201515Y0198670D02*
X0206515Y0203670D01*
X0201515Y0198670D02*
X0195550Y0198670D01*
X0194920Y0198670D02*
X0186170Y0198670D01*
X0183068Y0200015D02*
X0179240Y0200015D01*
X0179240Y0198417D02*
X0182789Y0198417D01*
X0183277Y0196818D02*
X0179143Y0196818D01*
X0179132Y0196764D02*
X0179240Y0197304D01*
X0179240Y0202870D01*
X0173909Y0202870D01*
X0173909Y0194783D01*
X0176719Y0194783D01*
X0177259Y0194891D01*
X0177768Y0195102D01*
X0178226Y0195408D01*
X0178616Y0195797D01*
X0178922Y0196255D01*
X0179132Y0196764D01*
X0177945Y0195220D02*
X0189718Y0195220D01*
X0189718Y0193621D02*
X0003600Y0193621D01*
X0003600Y0192023D02*
X0189810Y0192023D01*
X0194920Y0193670D02*
X0195550Y0193670D01*
X0206515Y0193670D01*
X0212420Y0193670D01*
X0212420Y0187420D01*
X0224920Y0187420D01*
X0227997Y0188826D02*
X0275591Y0188826D01*
X0275591Y0190424D02*
X0226502Y0190424D01*
X0228301Y0187227D02*
X0275591Y0187227D01*
X0275591Y0185629D02*
X0227838Y0185629D01*
X0223338Y0190424D02*
X0223078Y0190424D01*
X0223078Y0192023D02*
X0275591Y0192023D01*
X0275591Y0193621D02*
X0219002Y0193621D01*
X0219002Y0194347D02*
X0217649Y0194347D01*
X0217649Y0197933D01*
X0217649Y0202994D01*
X0219002Y0202994D01*
X0219002Y0194347D01*
X0219002Y0195220D02*
X0217649Y0195220D01*
X0217649Y0196818D02*
X0219002Y0196818D01*
X0219002Y0198417D02*
X0217649Y0198417D01*
X0217649Y0200015D02*
X0219002Y0200015D01*
X0219002Y0201614D02*
X0217649Y0201614D01*
X0219002Y0203212D02*
X0275591Y0203212D01*
X0275591Y0201614D02*
X0223078Y0201614D01*
X0223011Y0200015D02*
X0275591Y0200015D01*
X0275591Y0198417D02*
X0222490Y0198417D01*
X0223078Y0196818D02*
X0275591Y0196818D01*
X0275591Y0195220D02*
X0223078Y0195220D01*
X0223078Y0204811D02*
X0275591Y0204811D01*
X0275591Y0206409D02*
X0223078Y0206409D01*
X0222763Y0208008D02*
X0275591Y0208008D01*
X0275591Y0209606D02*
X0219257Y0209606D01*
X0219732Y0211205D02*
X0275591Y0211205D01*
X0275591Y0212803D02*
X0219732Y0212803D01*
X0219659Y0214402D02*
X0275591Y0214402D01*
X0275591Y0216001D02*
X0218271Y0216001D01*
X0215951Y0216001D02*
X0215582Y0216001D01*
X0215582Y0214402D02*
X0215951Y0214402D01*
X0215951Y0212803D02*
X0215582Y0212803D01*
X0213961Y0217599D02*
X0275591Y0217599D01*
X0275591Y0219198D02*
X0003600Y0219198D01*
X0003600Y0220796D02*
X0174570Y0220796D01*
X0174570Y0220742D02*
X0175742Y0219570D01*
X0180601Y0219570D01*
X0180750Y0219718D01*
X0180898Y0219570D01*
X0185758Y0219570D01*
X0186929Y0220742D01*
X0186929Y0222398D01*
X0185758Y0223570D01*
X0185328Y0223570D01*
X0185328Y0227090D01*
X0186129Y0227890D01*
X0186558Y0228320D01*
X0189276Y0228320D01*
X0190113Y0228320D01*
X0190662Y0228869D01*
X0191211Y0228320D01*
X0191353Y0228320D01*
X0190241Y0227579D01*
X0189916Y0225954D01*
X0191237Y0223972D01*
X0189916Y0221990D01*
X0190241Y0220366D01*
X0191619Y0219446D01*
X0193244Y0219771D01*
X0193641Y0220367D01*
X0194037Y0219771D01*
X0195662Y0219446D01*
X0196640Y0220098D01*
X0197168Y0219570D01*
X0199589Y0219570D01*
X0200426Y0219570D01*
X0201776Y0220920D01*
X0201953Y0220742D01*
X0203125Y0219570D01*
X0204782Y0219570D01*
X0205731Y0220519D01*
X0206680Y0219570D01*
X0208337Y0219570D01*
X0209110Y0220343D01*
X0209883Y0219570D01*
X0211540Y0219570D01*
X0212711Y0220742D01*
X0212711Y0222398D01*
X0212339Y0222771D01*
X0212683Y0223115D01*
X0212711Y0223144D01*
X0212711Y0223964D01*
X0212711Y0224745D01*
X0212711Y0224801D01*
X0212711Y0225565D01*
X0212711Y0226402D01*
X0211540Y0227573D01*
X0211540Y0227573D01*
X0210766Y0228347D01*
X0211288Y0228869D01*
X0211836Y0228320D01*
X0216696Y0228320D01*
X0217868Y0229492D01*
X0217868Y0233551D01*
X0216696Y0234722D01*
X0215895Y0235523D01*
X0215075Y0235523D01*
X0211836Y0235523D01*
X0211288Y0234974D01*
X0210739Y0235523D01*
X0209138Y0235523D01*
X0208301Y0235523D01*
X0207481Y0235523D01*
X0207481Y0235523D01*
X0207452Y0235494D01*
X0206932Y0234974D01*
X0206383Y0235523D01*
X0203981Y0235523D01*
X0203144Y0235523D01*
X0202324Y0235523D01*
X0202296Y0235494D01*
X0201375Y0234574D01*
X0200426Y0235523D01*
X0198825Y0235523D01*
X0198825Y0235523D01*
X0197988Y0235523D01*
X0197168Y0235523D01*
X0197168Y0235523D01*
X0197139Y0235494D01*
X0196219Y0234574D01*
X0196070Y0234722D01*
X0195270Y0235523D01*
X0194450Y0235523D01*
X0191211Y0235523D01*
X0191062Y0235374D01*
X0190914Y0235523D01*
X0188512Y0235523D01*
X0187692Y0235523D01*
X0186855Y0235523D01*
X0186306Y0234974D01*
X0185758Y0235523D01*
X0184101Y0235523D01*
X0183328Y0234750D01*
X0182555Y0235523D01*
X0180898Y0235523D01*
X0180750Y0235374D01*
X0180601Y0235523D01*
X0178199Y0235523D01*
X0177379Y0235523D01*
X0176542Y0235523D01*
X0175371Y0234351D01*
X0174570Y0233551D01*
X0174570Y0232714D01*
X0174570Y0231894D01*
X0174570Y0231894D01*
X0174943Y0231521D01*
X0174570Y0231148D01*
X0174570Y0229492D01*
X0175715Y0228347D01*
X0174570Y0227203D01*
X0174570Y0220742D01*
X0174570Y0222395D02*
X0003600Y0222395D01*
X0003600Y0223993D02*
X0174570Y0223993D01*
X0174570Y0225592D02*
X0003600Y0225592D01*
X0003600Y0227190D02*
X0174570Y0227190D01*
X0175273Y0228789D02*
X0003600Y0228789D01*
X0003600Y0230387D02*
X0174570Y0230387D01*
X0174570Y0231986D02*
X0003600Y0231986D01*
X0003600Y0233584D02*
X0174604Y0233584D01*
X0175371Y0234351D02*
X0175371Y0234351D01*
X0176202Y0235183D02*
X0003600Y0235183D01*
X0003600Y0236220D02*
X0275591Y0236220D01*
X0275591Y0003600D01*
X0003600Y0003600D01*
X0003600Y0236220D01*
X0003600Y0217599D02*
X0203379Y0217599D01*
X0201781Y0216001D02*
X0200607Y0216001D01*
X0201652Y0220796D02*
X0201899Y0220796D01*
X0211923Y0227190D02*
X0221766Y0227190D01*
X0221398Y0226822D02*
X0221177Y0226932D01*
X0219606Y0226408D01*
X0219423Y0226042D01*
X0219240Y0226408D01*
X0217668Y0226932D01*
X0216186Y0226191D01*
X0215662Y0224619D01*
X0217570Y0220803D01*
X0217787Y0220152D01*
X0217932Y0220079D01*
X0218004Y0219935D01*
X0218655Y0219718D01*
X0219269Y0219411D01*
X0219423Y0219462D01*
X0219576Y0219411D01*
X0220190Y0219718D01*
X0220841Y0219935D01*
X0220913Y0220079D01*
X0221058Y0220152D01*
X0221185Y0220534D01*
X0222149Y0219570D01*
X0227009Y0219570D01*
X0228180Y0220742D01*
X0228180Y0222398D01*
X0227407Y0223171D01*
X0228180Y0223944D01*
X0228180Y0224745D01*
X0228180Y0224745D01*
X0228180Y0225582D01*
X0228180Y0226402D01*
X0228152Y0226431D01*
X0227009Y0227573D01*
X0226237Y0228346D01*
X0226208Y0228374D01*
X0225388Y0228374D01*
X0222950Y0228374D01*
X0221398Y0226822D01*
X0217868Y0230387D02*
X0275591Y0230387D01*
X0275591Y0228789D02*
X0217165Y0228789D01*
X0217868Y0231986D02*
X0275591Y0231986D01*
X0275591Y0233584D02*
X0217834Y0233584D01*
X0216235Y0235183D02*
X0275591Y0235183D01*
X0275591Y0227190D02*
X0227392Y0227190D01*
X0227009Y0227573D02*
X0227009Y0227573D01*
X0226208Y0228374D02*
X0226208Y0228374D01*
X0228180Y0226402D02*
X0228180Y0226402D01*
X0228180Y0225592D02*
X0275591Y0225592D01*
X0275591Y0223993D02*
X0228180Y0223993D01*
X0228180Y0222395D02*
X0275591Y0222395D01*
X0275591Y0220796D02*
X0228180Y0220796D01*
X0217572Y0220796D02*
X0212711Y0220796D01*
X0212711Y0222395D02*
X0216774Y0222395D01*
X0215975Y0223993D02*
X0212711Y0223993D01*
X0212711Y0223144D02*
X0212711Y0223144D01*
X0212711Y0225592D02*
X0215986Y0225592D01*
X0211368Y0228789D02*
X0211207Y0228789D01*
X0211079Y0235183D02*
X0211496Y0235183D01*
X0209138Y0235523D02*
X0209138Y0235523D01*
X0207141Y0235183D02*
X0206723Y0235183D01*
X0203981Y0235523D02*
X0203981Y0235523D01*
X0202324Y0235523D02*
X0202324Y0235523D01*
X0201984Y0235183D02*
X0200766Y0235183D01*
X0196828Y0235183D02*
X0195610Y0235183D01*
X0195270Y0235523D02*
X0195270Y0235523D01*
X0188512Y0235523D02*
X0188512Y0235523D01*
X0186515Y0235183D02*
X0186098Y0235183D01*
X0183761Y0235183D02*
X0182895Y0235183D01*
X0178199Y0235523D02*
X0178199Y0235523D01*
X0185428Y0227190D02*
X0190163Y0227190D01*
X0190157Y0225592D02*
X0185328Y0225592D01*
X0185328Y0223993D02*
X0191223Y0223993D01*
X0190185Y0222395D02*
X0186929Y0222395D01*
X0186929Y0220796D02*
X0190154Y0220796D01*
X0190493Y0216001D02*
X0003600Y0216001D01*
X0003600Y0214402D02*
X0189718Y0214402D01*
X0189718Y0212803D02*
X0163633Y0212803D01*
X0163315Y0213122D02*
X0160301Y0214370D01*
X0157039Y0214370D01*
X0154025Y0213122D01*
X0151718Y0210815D01*
X0150470Y0207801D01*
X0150470Y0204539D01*
X0151718Y0201525D01*
X0154025Y0199218D01*
X0157039Y0197970D01*
X0160301Y0197970D01*
X0163315Y0199218D01*
X0165622Y0201525D01*
X0166870Y0204539D01*
X0166870Y0207801D01*
X0165622Y0210815D01*
X0163315Y0213122D01*
X0165232Y0211205D02*
X0167377Y0211205D01*
X0167297Y0211085D02*
X0167086Y0210576D01*
X0166978Y0210036D01*
X0166978Y0204470D01*
X0172309Y0204470D01*
X0172309Y0202870D01*
X0173909Y0202870D01*
X0173909Y0204470D01*
X0179240Y0204470D01*
X0179240Y0210036D01*
X0179132Y0210576D01*
X0178922Y0211085D01*
X0178616Y0211543D01*
X0178226Y0211932D01*
X0177768Y0212238D01*
X0177259Y0212449D01*
X0176719Y0212557D01*
X0173909Y0212557D01*
X0173909Y0204470D01*
X0172309Y0204470D01*
X0172309Y0212557D01*
X0169499Y0212557D01*
X0168959Y0212449D01*
X0168450Y0212238D01*
X0167992Y0211932D01*
X0167603Y0211543D01*
X0167297Y0211085D01*
X0166978Y0209606D02*
X0166122Y0209606D01*
X0166784Y0208008D02*
X0166978Y0208008D01*
X0166978Y0206409D02*
X0166870Y0206409D01*
X0166870Y0204811D02*
X0166978Y0204811D01*
X0166321Y0203212D02*
X0172309Y0203212D01*
X0172309Y0202870D02*
X0166978Y0202870D01*
X0166978Y0197304D01*
X0167086Y0196764D01*
X0167297Y0196255D01*
X0167603Y0195797D01*
X0167992Y0195408D01*
X0168450Y0195102D01*
X0168959Y0194891D01*
X0169499Y0194783D01*
X0172309Y0194783D01*
X0172309Y0202870D01*
X0172309Y0201614D02*
X0173909Y0201614D01*
X0173909Y0203212D02*
X0189518Y0203212D01*
X0189545Y0204811D02*
X0179240Y0204811D01*
X0179240Y0206409D02*
X0190423Y0206409D01*
X0189718Y0208008D02*
X0179240Y0208008D01*
X0179240Y0209606D02*
X0189718Y0209606D01*
X0190628Y0211205D02*
X0178841Y0211205D01*
X0173909Y0211205D02*
X0172309Y0211205D01*
X0172309Y0209606D02*
X0173909Y0209606D01*
X0173909Y0208008D02*
X0172309Y0208008D01*
X0172309Y0206409D02*
X0173909Y0206409D01*
X0173909Y0204811D02*
X0172309Y0204811D01*
X0172309Y0200015D02*
X0173909Y0200015D01*
X0173909Y0198417D02*
X0172309Y0198417D01*
X0172309Y0196818D02*
X0173909Y0196818D01*
X0173909Y0195220D02*
X0172309Y0195220D01*
X0168273Y0195220D02*
X0003600Y0195220D01*
X0003600Y0196818D02*
X0167075Y0196818D01*
X0166978Y0198417D02*
X0161380Y0198417D01*
X0164112Y0200015D02*
X0166978Y0200015D01*
X0166978Y0201614D02*
X0165658Y0201614D01*
X0155960Y0198417D02*
X0061380Y0198417D01*
X0060301Y0197970D02*
X0063315Y0199218D01*
X0065622Y0201525D01*
X0066870Y0204539D01*
X0066870Y0207801D01*
X0065622Y0210815D01*
X0063315Y0213122D01*
X0060301Y0214370D01*
X0057039Y0214370D01*
X0054025Y0213122D01*
X0051718Y0210815D01*
X0050470Y0207801D01*
X0050470Y0204539D01*
X0051718Y0201525D01*
X0054025Y0199218D01*
X0057039Y0197970D01*
X0060301Y0197970D01*
X0064112Y0200015D02*
X0153228Y0200015D01*
X0151682Y0201614D02*
X0065658Y0201614D01*
X0066321Y0203212D02*
X0151020Y0203212D01*
X0150470Y0204811D02*
X0066870Y0204811D01*
X0066870Y0206409D02*
X0150470Y0206409D01*
X0150556Y0208008D02*
X0066784Y0208008D01*
X0066122Y0209606D02*
X0151218Y0209606D01*
X0152108Y0211205D02*
X0065232Y0211205D01*
X0063633Y0212803D02*
X0153707Y0212803D01*
X0179240Y0201614D02*
X0184442Y0201614D01*
X0187898Y0201614D02*
X0189939Y0201614D01*
X0201962Y0190424D02*
X0003600Y0190424D01*
X0003600Y0188826D02*
X0202725Y0188826D01*
X0205220Y0185629D02*
X0198373Y0185629D01*
X0198083Y0185919D02*
X0198812Y0185190D01*
X0199207Y0184237D01*
X0199207Y0178103D01*
X0198812Y0177151D01*
X0198083Y0176421D01*
X0197131Y0176027D01*
X0195870Y0176027D01*
X0195870Y0169620D01*
X0200831Y0169620D01*
X0202120Y0168331D01*
X0202120Y0146509D01*
X0200831Y0145220D01*
X0199207Y0145220D01*
X0199207Y0144353D01*
X0198812Y0143401D01*
X0198083Y0142671D01*
X0197131Y0142277D01*
X0190210Y0142277D01*
X0189551Y0142549D01*
X0189551Y0141748D01*
X0189036Y0140505D01*
X0188085Y0139554D01*
X0186843Y0139039D01*
X0185498Y0139039D01*
X0184255Y0139554D01*
X0183304Y0140505D01*
X0182789Y0141748D01*
X0182789Y0143093D01*
X0183304Y0144335D01*
X0184255Y0145286D01*
X0185498Y0145801D01*
X0186440Y0145801D01*
X0188133Y0147494D01*
X0188133Y0150487D01*
X0188528Y0151440D01*
X0189257Y0152169D01*
X0190210Y0152563D01*
X0197131Y0152563D01*
X0197720Y0152319D01*
X0197720Y0156271D01*
X0197131Y0156027D01*
X0190210Y0156027D01*
X0189257Y0156421D01*
X0188528Y0157151D01*
X0188133Y0158103D01*
X0188133Y0158970D01*
X0185002Y0158970D01*
X0184335Y0158304D01*
X0183093Y0157789D01*
X0181748Y0157789D01*
X0180505Y0158304D01*
X0180353Y0158456D01*
X0179499Y0157602D01*
X0179217Y0157602D01*
X0179217Y0138489D01*
X0179499Y0138489D01*
X0180782Y0137205D01*
X0180782Y0137120D01*
X0188331Y0137120D01*
X0189620Y0135831D01*
X0189620Y0132319D01*
X0190210Y0132563D01*
X0197131Y0132563D01*
X0198083Y0132169D01*
X0198812Y0131440D01*
X0199207Y0130487D01*
X0199207Y0124353D01*
X0198812Y0123401D01*
X0198282Y0122870D01*
X0205594Y0122870D01*
X0205063Y0123401D01*
X0204669Y0124353D01*
X0204669Y0130487D01*
X0205063Y0131440D01*
X0205792Y0132169D01*
X0206745Y0132563D01*
X0207520Y0132563D01*
X0207520Y0137538D01*
X0207054Y0138005D01*
X0206539Y0139248D01*
X0206539Y0140593D01*
X0207054Y0141835D01*
X0207295Y0142077D01*
X0206986Y0142077D01*
X0206446Y0142184D01*
X0205938Y0142395D01*
X0205481Y0142700D01*
X0205092Y0143089D01*
X0204786Y0143546D01*
X0204576Y0144054D01*
X0204469Y0144594D01*
X0204469Y0146620D01*
X0209405Y0146620D01*
X0209405Y0148220D01*
X0204469Y0148220D01*
X0204469Y0150246D01*
X0204576Y0150786D01*
X0204786Y0151294D01*
X0205092Y0151751D01*
X0205481Y0152140D01*
X0205938Y0152446D01*
X0206446Y0152656D01*
X0206986Y0152763D01*
X0209406Y0152763D01*
X0209406Y0148220D01*
X0211005Y0148220D01*
X0211005Y0152763D01*
X0213425Y0152763D01*
X0213965Y0152656D01*
X0214473Y0152446D01*
X0214504Y0152425D01*
X0214861Y0152917D01*
X0215373Y0153429D01*
X0215959Y0153854D01*
X0216604Y0154183D01*
X0217293Y0154407D01*
X0218008Y0154520D01*
X0221070Y0154520D01*
X0221070Y0150020D01*
X0221270Y0150020D01*
X0221270Y0154520D01*
X0224332Y0154520D01*
X0225047Y0154407D01*
X0225736Y0154183D01*
X0226381Y0153854D01*
X0226967Y0153429D01*
X0227479Y0152917D01*
X0227904Y0152331D01*
X0228233Y0151686D01*
X0228457Y0150997D01*
X0228570Y0150282D01*
X0228570Y0150020D01*
X0221270Y0150020D01*
X0221270Y0149820D01*
X0221270Y0145320D01*
X0224332Y0145320D01*
X0225047Y0145433D01*
X0225736Y0145657D01*
X0226381Y0145986D01*
X0226967Y0146411D01*
X0227479Y0146923D01*
X0227904Y0147509D01*
X0228233Y0148154D01*
X0228457Y0148843D01*
X0228570Y0149558D01*
X0228570Y0149820D01*
X0221270Y0149820D01*
X0221070Y0149820D01*
X0221070Y0145320D01*
X0218008Y0145320D01*
X0217293Y0145433D01*
X0216604Y0145657D01*
X0215959Y0145986D01*
X0215943Y0145998D01*
X0215943Y0144594D01*
X0215835Y0144054D01*
X0215625Y0143546D01*
X0215325Y0143097D01*
X0215878Y0143650D01*
X0217495Y0144320D01*
X0224845Y0144320D01*
X0226462Y0143650D01*
X0227700Y0142412D01*
X0228370Y0140795D01*
X0228370Y0139045D01*
X0227700Y0137428D01*
X0226462Y0136190D01*
X0224845Y0135520D01*
X0221271Y0135520D01*
X0221835Y0135286D01*
X0222302Y0134820D01*
X0232897Y0134820D01*
X0233780Y0134455D01*
X0234455Y0133780D01*
X0234820Y0132897D01*
X0234820Y0066943D01*
X0234455Y0066061D01*
X0233780Y0065385D01*
X0232897Y0065020D01*
X0223825Y0065020D01*
X0225770Y0063075D01*
X0225770Y0059265D01*
X0223075Y0056570D01*
X0219265Y0056570D01*
X0216570Y0059265D01*
X0216570Y0063075D01*
X0218515Y0065020D01*
X0213825Y0065020D01*
X0215770Y0063075D01*
X0215770Y0059265D01*
X0213075Y0056570D01*
X0209265Y0056570D01*
X0206570Y0059265D01*
X0206570Y0063075D01*
X0208515Y0065020D01*
X0203825Y0065020D01*
X0205770Y0063075D01*
X0205770Y0059265D01*
X0203075Y0056570D01*
X0199265Y0056570D01*
X0196570Y0059265D01*
X0196570Y0063075D01*
X0198515Y0065020D01*
X0193825Y0065020D01*
X0195770Y0063075D01*
X0195770Y0059265D01*
X0193075Y0056570D01*
X0189265Y0056570D01*
X0186570Y0059265D01*
X0186570Y0063075D01*
X0188515Y0065020D01*
X0184108Y0065020D01*
X0185970Y0063158D01*
X0185970Y0061370D01*
X0181370Y0061370D01*
X0181370Y0060970D01*
X0181370Y0056370D01*
X0183158Y0056370D01*
X0185970Y0059182D01*
X0185970Y0060970D01*
X0181370Y0060970D01*
X0180970Y0060970D01*
X0180970Y0056370D01*
X0179182Y0056370D01*
X0176370Y0059182D01*
X0176370Y0060774D01*
X0175920Y0060350D01*
X0175920Y0056612D01*
X0175479Y0056170D01*
X0175920Y0055729D01*
X0175920Y0050612D01*
X0174579Y0049270D01*
X0174063Y0049270D01*
X0174551Y0048093D01*
X0174551Y0046748D01*
X0174036Y0045505D01*
X0173085Y0044554D01*
X0171843Y0044039D01*
X0170498Y0044039D01*
X0169255Y0044554D01*
X0168304Y0045505D01*
X0167789Y0046748D01*
X0167789Y0048093D01*
X0168277Y0049270D01*
X0167762Y0049270D01*
X0166420Y0050612D01*
X0166420Y0055729D01*
X0166862Y0056170D01*
X0166420Y0056612D01*
X0166420Y0061729D01*
X0167762Y0063070D01*
X0171808Y0063070D01*
X0175732Y0066770D01*
X0171245Y0066770D01*
X0170801Y0066954D01*
X0170801Y0066748D01*
X0170286Y0065505D01*
X0169335Y0064554D01*
X0168093Y0064039D01*
X0166748Y0064039D01*
X0165505Y0064554D01*
X0164838Y0065220D01*
X0163625Y0065220D01*
X0165770Y0063075D01*
X0165770Y0059265D01*
X0163075Y0056570D01*
X0159265Y0056570D01*
X0156570Y0059265D01*
X0156570Y0063075D01*
X0158715Y0065220D01*
X0153625Y0065220D01*
X0155770Y0063075D01*
X0155770Y0059265D01*
X0153075Y0056570D01*
X0149265Y0056570D01*
X0146570Y0059265D01*
X0146570Y0063075D01*
X0148715Y0065220D01*
X0143625Y0065220D01*
X0145770Y0063075D01*
X0145770Y0059265D01*
X0143075Y0056570D01*
X0139265Y0056570D01*
X0136570Y0059265D01*
X0136570Y0063075D01*
X0138715Y0065220D01*
X0133625Y0065220D01*
X0135770Y0063075D01*
X0135770Y0059265D01*
X0133075Y0056570D01*
X0129265Y0056570D01*
X0126570Y0059265D01*
X0126570Y0063075D01*
X0128022Y0064528D01*
X0126843Y0064039D01*
X0125498Y0064039D01*
X0124318Y0064528D01*
X0125770Y0063075D01*
X0125770Y0059265D01*
X0123075Y0056570D01*
X0119265Y0056570D01*
X0116570Y0059265D01*
X0116570Y0063075D01*
X0118715Y0065220D01*
X0111835Y0065220D01*
X0111835Y0063688D01*
X0110552Y0062405D01*
X0105981Y0062405D01*
X0104920Y0063466D01*
X0103859Y0062405D01*
X0099288Y0062405D01*
X0098005Y0063688D01*
X0098005Y0063970D01*
X0091170Y0063970D01*
X0091591Y0063550D01*
X0091890Y0063031D01*
X0092045Y0062454D01*
X0092045Y0059477D01*
X0088670Y0059477D01*
X0088670Y0059477D01*
X0088670Y0054528D01*
X0087269Y0054528D01*
X0086691Y0054682D01*
X0086172Y0054982D01*
X0085749Y0055405D01*
X0085450Y0055923D01*
X0085295Y0056501D01*
X0085295Y0059477D01*
X0088670Y0059477D01*
X0088670Y0059477D01*
X0088670Y0054528D01*
X0090072Y0054528D01*
X0090650Y0054682D01*
X0091168Y0054982D01*
X0091591Y0055405D01*
X0091890Y0055923D01*
X0092045Y0056501D01*
X0092045Y0059477D01*
X0088670Y0059477D01*
X0088670Y0059477D01*
X0085295Y0059477D01*
X0085295Y0062454D01*
X0085450Y0063031D01*
X0085749Y0063550D01*
X0086170Y0063970D01*
X0081170Y0063970D01*
X0081591Y0063550D01*
X0081890Y0063031D01*
X0082045Y0062454D01*
X0082045Y0059477D01*
X0078670Y0059477D01*
X0078670Y0059477D01*
X0078670Y0054528D01*
X0077269Y0054528D01*
X0076691Y0054682D01*
X0076172Y0054982D01*
X0075749Y0055405D01*
X0075450Y0055923D01*
X0075295Y0056501D01*
X0075295Y0059477D01*
X0078670Y0059477D01*
X0078670Y0059477D01*
X0078670Y0054528D01*
X0080072Y0054528D01*
X0080650Y0054682D01*
X0081168Y0054982D01*
X0081591Y0055405D01*
X0081890Y0055923D01*
X0082045Y0056501D01*
X0082045Y0059477D01*
X0078670Y0059477D01*
X0078670Y0059477D01*
X0075295Y0059477D01*
X0075295Y0062454D01*
X0075450Y0063031D01*
X0075749Y0063550D01*
X0076170Y0063970D01*
X0072759Y0063970D01*
X0071470Y0065259D01*
X0071470Y0068953D01*
X0070631Y0068113D01*
X0066709Y0068113D01*
X0065495Y0069327D01*
X0065495Y0074516D01*
X0064343Y0074039D01*
X0062998Y0074039D01*
X0061845Y0074516D01*
X0061845Y0069327D01*
X0060631Y0068113D01*
X0056709Y0068113D01*
X0055495Y0069327D01*
X0055495Y0075766D01*
X0054343Y0075289D01*
X0052998Y0075289D01*
X0051755Y0075804D01*
X0050804Y0076755D01*
X0050289Y0077998D01*
X0050289Y0079343D01*
X0050804Y0080585D01*
X0051755Y0081536D01*
X0052998Y0082051D01*
X0054343Y0082051D01*
X0055495Y0081574D01*
X0055495Y0088013D01*
X0056709Y0089227D01*
X0060631Y0089227D01*
X0061270Y0088588D01*
X0061270Y0093753D01*
X0060631Y0093113D01*
X0056709Y0093113D01*
X0055495Y0094327D01*
X0055495Y0101399D01*
X0056709Y0102613D01*
X0060631Y0102613D01*
X0061845Y0101399D01*
X0061845Y0100263D01*
X0065495Y0100263D01*
X0065495Y0101270D01*
X0063193Y0101270D01*
X0062311Y0101635D01*
X0061635Y0102311D01*
X0059539Y0104407D01*
X0059333Y0104905D01*
X0059288Y0104905D01*
X0058005Y0106188D01*
X0058005Y0108844D01*
X0056153Y0110696D01*
X0055788Y0111579D01*
X0055788Y0116270D01*
X0055338Y0116720D01*
X0055338Y0122313D01*
X0056641Y0123617D01*
X0059734Y0123617D01*
X0060688Y0122663D01*
X0061641Y0123617D01*
X0064734Y0123617D01*
X0065688Y0122663D01*
X0066641Y0123617D01*
X0069734Y0123617D01*
X0070688Y0122663D01*
X0071641Y0123617D01*
X0074734Y0123617D01*
X0075688Y0122663D01*
X0076641Y0123617D01*
X0079734Y0123617D01*
X0080688Y0122663D01*
X0080788Y0122763D01*
X0080788Y0123665D01*
X0081153Y0124547D01*
X0086061Y0129455D01*
X0086943Y0129820D01*
X0098926Y0129820D01*
X0105505Y0136399D01*
X0105505Y0138652D01*
X0106788Y0139935D01*
X0111359Y0139935D01*
X0112420Y0138874D01*
X0113481Y0139935D01*
X0117720Y0139935D01*
X0117720Y0141352D01*
X0113284Y0141352D01*
X0112550Y0142086D01*
X0112505Y0142018D01*
X0112172Y0141685D01*
X0111781Y0141424D01*
X0111346Y0141243D01*
X0110884Y0141152D01*
X0109258Y0141152D01*
X0109258Y0144736D01*
X0108889Y0144736D01*
X0105108Y0144736D01*
X0105108Y0143307D01*
X0105200Y0142845D01*
X0105380Y0142410D01*
X0105642Y0142018D01*
X0105975Y0141685D01*
X0106366Y0141424D01*
X0106802Y0141243D01*
X0107263Y0141152D01*
X0108889Y0141152D01*
X0108889Y0144736D01*
X0108889Y0145104D01*
X0105108Y0145104D01*
X0105108Y0146533D01*
X0105200Y0146995D01*
X0105380Y0147430D01*
X0105642Y0147822D01*
X0105975Y0148155D01*
X0106366Y0148416D01*
X0106802Y0148597D01*
X0107263Y0148689D01*
X0108889Y0148689D01*
X0108889Y0145104D01*
X0109258Y0145104D01*
X0109258Y0148689D01*
X0110884Y0148689D01*
X0111346Y0148597D01*
X0111781Y0148416D01*
X0112172Y0148155D01*
X0112505Y0147822D01*
X0112550Y0147755D01*
X0113284Y0148489D01*
X0117720Y0148489D01*
X0117720Y0148577D01*
X0119009Y0149866D01*
X0121027Y0149866D01*
X0121027Y0150276D01*
X0122379Y0151628D01*
X0129961Y0151628D01*
X0131313Y0150276D01*
X0131313Y0145056D01*
X0129961Y0143704D01*
X0122379Y0143704D01*
X0122121Y0143962D01*
X0122120Y0143960D01*
X0122120Y0138377D01*
X0122379Y0138636D01*
X0129961Y0138636D01*
X0131313Y0137284D01*
X0131313Y0132064D01*
X0130119Y0130870D01*
X0130831Y0130870D01*
X0131588Y0130114D01*
X0131588Y0134947D01*
X0131972Y0135331D01*
X0131972Y0137779D01*
X0131958Y0137793D01*
X0131972Y0138687D01*
X0131972Y0139581D01*
X0131986Y0139595D01*
X0131986Y0139615D01*
X0132628Y0140238D01*
X0133261Y0140870D01*
X0133281Y0140870D01*
X0135840Y0143351D01*
X0135840Y0144829D01*
X0134669Y0146001D01*
X0134669Y0149922D01*
X0135883Y0151136D01*
X0140198Y0151136D01*
X0140976Y0150358D01*
X0141753Y0151136D01*
X0145351Y0151136D01*
X0146111Y0150376D01*
X0146872Y0151136D01*
X0150469Y0151136D01*
X0151229Y0150376D01*
X0151990Y0151136D01*
X0155587Y0151136D01*
X0156223Y0150500D01*
X0156605Y0150882D01*
X0157124Y0151181D01*
X0157702Y0151336D01*
X0159300Y0151336D01*
X0159300Y0147962D01*
X0159300Y0151336D01*
X0160898Y0151336D01*
X0161476Y0151181D01*
X0161995Y0150882D01*
X0162418Y0150459D01*
X0162717Y0149941D01*
X0162872Y0149363D01*
X0162872Y0147961D01*
X0159300Y0147961D01*
X0159300Y0144587D01*
X0160898Y0144587D01*
X0161476Y0144741D01*
X0161995Y0145041D01*
X0162418Y0145464D01*
X0162717Y0145982D01*
X0162872Y0146560D01*
X0162872Y0147961D01*
X0159300Y0147961D01*
X0159300Y0147961D01*
X0159300Y0144587D01*
X0157702Y0144587D01*
X0157124Y0144741D01*
X0156605Y0145041D01*
X0156223Y0145423D01*
X0155587Y0144787D01*
X0155398Y0144787D01*
X0154581Y0143970D01*
X0146669Y0136057D01*
X0147946Y0136057D01*
X0152720Y0140831D01*
X0154009Y0142120D01*
X0160259Y0142120D01*
X0163970Y0145831D01*
X0163970Y0150259D01*
X0162759Y0151470D01*
X0150259Y0151470D01*
X0147759Y0153970D01*
X0146470Y0155259D01*
X0146470Y0156605D01*
X0146111Y0156964D01*
X0145351Y0156204D01*
X0141753Y0156204D01*
X0141117Y0156840D01*
X0140735Y0156458D01*
X0140216Y0156159D01*
X0139639Y0156004D01*
X0138040Y0156004D01*
X0138040Y0159379D01*
X0138040Y0162754D01*
X0136442Y0162754D01*
X0135864Y0162599D01*
X0135346Y0162299D01*
X0134923Y0161876D01*
X0134623Y0161358D01*
X0134469Y0160780D01*
X0134468Y0159379D01*
X0138040Y0159379D01*
X0138040Y0159379D01*
X0138040Y0159379D01*
X0138040Y0162754D01*
X0139639Y0162754D01*
X0140216Y0162599D01*
X0140735Y0162299D01*
X0141117Y0161917D01*
X0141470Y0162270D01*
X0141470Y0162338D01*
X0140804Y0163005D01*
X0140289Y0164248D01*
X0140289Y0165593D01*
X0140804Y0166835D01*
X0141755Y0167786D01*
X0142998Y0168301D01*
X0144343Y0168301D01*
X0145585Y0167786D01*
X0146536Y0166835D01*
X0147051Y0165593D01*
X0147051Y0164248D01*
X0146536Y0163005D01*
X0145870Y0162338D01*
X0145870Y0162034D01*
X0146111Y0161793D01*
X0146872Y0162554D01*
X0150005Y0162554D01*
X0149554Y0163005D01*
X0149039Y0164248D01*
X0149039Y0165593D01*
X0149550Y0166826D01*
X0149535Y0166820D01*
X0147805Y0166820D01*
X0146206Y0167482D01*
X0144982Y0168706D01*
X0144320Y0170305D01*
X0144320Y0172035D01*
X0144982Y0173634D01*
X0146206Y0174858D01*
X0147805Y0175520D01*
X0149535Y0175520D01*
X0151134Y0174858D01*
X0152358Y0173634D01*
X0153020Y0172035D01*
X0153020Y0170305D01*
X0152358Y0168706D01*
X0151953Y0168301D01*
X0153093Y0168301D01*
X0154335Y0167786D01*
X0155002Y0167120D01*
X0160211Y0167120D01*
X0161500Y0165831D01*
X0161500Y0162511D01*
X0162672Y0161340D01*
X0162672Y0158370D01*
X0165831Y0158370D01*
X0169581Y0154620D01*
X0170870Y0153331D01*
X0170870Y0142759D01*
X0169581Y0141470D01*
X0164081Y0135969D01*
X0164093Y0135957D01*
X0164194Y0136057D01*
X0166358Y0136057D01*
X0166358Y0136533D01*
X0166450Y0136995D01*
X0166630Y0137430D01*
X0166892Y0137822D01*
X0167225Y0138155D01*
X0167616Y0138416D01*
X0168052Y0138597D01*
X0168513Y0138689D01*
X0170139Y0138689D01*
X0170139Y0135104D01*
X0170508Y0135104D01*
X0170508Y0138689D01*
X0172134Y0138689D01*
X0172596Y0138597D01*
X0173031Y0138416D01*
X0173422Y0138155D01*
X0173755Y0137822D01*
X0173800Y0137755D01*
X0174534Y0138489D01*
X0174817Y0138489D01*
X0174817Y0157602D01*
X0174534Y0157602D01*
X0173800Y0158336D01*
X0173755Y0158268D01*
X0173422Y0157935D01*
X0173031Y0157674D01*
X0172596Y0157493D01*
X0172134Y0157402D01*
X0170508Y0157402D01*
X0170508Y0160986D01*
X0170139Y0160986D01*
X0166358Y0160986D01*
X0166358Y0159557D01*
X0166450Y0159095D01*
X0166630Y0158660D01*
X0166892Y0158268D01*
X0167225Y0157935D01*
X0167616Y0157674D01*
X0168052Y0157493D01*
X0168513Y0157402D01*
X0170139Y0157402D01*
X0170139Y0160986D01*
X0170139Y0161354D01*
X0166358Y0161354D01*
X0166358Y0162783D01*
X0166450Y0163245D01*
X0166630Y0163680D01*
X0166892Y0164072D01*
X0167225Y0164405D01*
X0167616Y0164666D01*
X0168052Y0164847D01*
X0168513Y0164939D01*
X0170139Y0164939D01*
X0170139Y0161354D01*
X0170508Y0161354D01*
X0170508Y0164939D01*
X0172134Y0164939D01*
X0172596Y0164847D01*
X0173031Y0164666D01*
X0173422Y0164405D01*
X0173755Y0164072D01*
X0173800Y0164005D01*
X0174534Y0164739D01*
X0179499Y0164739D01*
X0180353Y0163884D01*
X0180505Y0164036D01*
X0181748Y0164551D01*
X0183093Y0164551D01*
X0184335Y0164036D01*
X0185002Y0163370D01*
X0188133Y0163370D01*
X0188133Y0164237D01*
X0188528Y0165190D01*
X0189257Y0165919D01*
X0190210Y0166313D01*
X0191666Y0166313D01*
X0191470Y0166509D01*
X0191470Y0176027D01*
X0190210Y0176027D01*
X0189257Y0176421D01*
X0188528Y0177151D01*
X0188133Y0178103D01*
X0188133Y0184237D01*
X0188528Y0185190D01*
X0189257Y0185919D01*
X0190210Y0186313D01*
X0197131Y0186313D01*
X0198083Y0185919D01*
X0199207Y0184030D02*
X0204475Y0184030D01*
X0204469Y0182432D02*
X0199207Y0182432D01*
X0199207Y0180833D02*
X0209405Y0180833D01*
X0209406Y0179235D02*
X0211005Y0179235D01*
X0211006Y0180833D02*
X0275591Y0180833D01*
X0275591Y0179235D02*
X0215943Y0179235D01*
X0215766Y0177636D02*
X0275591Y0177636D01*
X0275591Y0176038D02*
X0214215Y0176038D01*
X0211005Y0176038D02*
X0209406Y0176038D01*
X0209406Y0177636D02*
X0211005Y0177636D01*
X0209728Y0173570D02*
X0208846Y0173205D01*
X0208171Y0172530D01*
X0207806Y0171647D01*
X0207806Y0166313D01*
X0206745Y0166313D01*
X0205792Y0165919D01*
X0205063Y0165190D01*
X0204669Y0164237D01*
X0204669Y0158103D01*
X0205063Y0157151D01*
X0205792Y0156421D01*
X0206745Y0156027D01*
X0213666Y0156027D01*
X0214619Y0156421D01*
X0215132Y0156935D01*
X0215878Y0156190D01*
X0217495Y0155520D01*
X0224845Y0155520D01*
X0226462Y0156190D01*
X0227700Y0157428D01*
X0228370Y0159045D01*
X0228370Y0160795D01*
X0227700Y0162412D01*
X0226462Y0163650D01*
X0224845Y0164320D01*
X0217495Y0164320D01*
X0215878Y0163650D01*
X0215743Y0163515D01*
X0215743Y0164237D01*
X0215348Y0165190D01*
X0214619Y0165919D01*
X0213666Y0166313D01*
X0212605Y0166313D01*
X0212605Y0168770D01*
X0218788Y0168770D01*
X0219255Y0168304D01*
X0220498Y0167789D01*
X0221843Y0167789D01*
X0223085Y0168304D01*
X0224036Y0169255D01*
X0224551Y0170498D01*
X0224551Y0171843D01*
X0224036Y0173085D01*
X0223085Y0174036D01*
X0221843Y0174551D01*
X0220498Y0174551D01*
X0219255Y0174036D01*
X0218788Y0173570D01*
X0209728Y0173570D01*
X0208482Y0172841D02*
X0195870Y0172841D01*
X0195870Y0174439D02*
X0220227Y0174439D01*
X0222113Y0174439D02*
X0275591Y0174439D01*
X0275591Y0172841D02*
X0224138Y0172841D01*
X0224551Y0171242D02*
X0275591Y0171242D01*
X0275591Y0169644D02*
X0224197Y0169644D01*
X0222461Y0168045D02*
X0275591Y0168045D01*
X0275591Y0166447D02*
X0212605Y0166447D01*
X0212605Y0168045D02*
X0219879Y0168045D01*
X0221170Y0171170D02*
X0210206Y0171170D01*
X0210206Y0161170D01*
X0204669Y0161651D02*
X0202120Y0161651D01*
X0202120Y0160053D02*
X0204669Y0160053D01*
X0204669Y0158454D02*
X0202120Y0158454D01*
X0202120Y0156856D02*
X0205358Y0156856D01*
X0202120Y0155257D02*
X0275591Y0155257D01*
X0275591Y0153659D02*
X0226650Y0153659D01*
X0228042Y0152060D02*
X0275591Y0152060D01*
X0275591Y0150462D02*
X0228542Y0150462D01*
X0228460Y0148863D02*
X0275591Y0148863D01*
X0275591Y0147265D02*
X0227727Y0147265D01*
X0225753Y0145666D02*
X0275591Y0145666D01*
X0275591Y0144068D02*
X0225455Y0144068D01*
X0227644Y0142469D02*
X0275591Y0142469D01*
X0275591Y0140870D02*
X0228339Y0140870D01*
X0228370Y0139272D02*
X0275591Y0139272D01*
X0275591Y0137673D02*
X0227802Y0137673D01*
X0226185Y0136075D02*
X0275591Y0136075D01*
X0275591Y0134476D02*
X0233727Y0134476D01*
X0234820Y0132878D02*
X0275591Y0132878D01*
X0275591Y0131279D02*
X0234820Y0131279D01*
X0234820Y0129681D02*
X0275591Y0129681D01*
X0275591Y0128082D02*
X0234820Y0128082D01*
X0234820Y0126484D02*
X0275591Y0126484D01*
X0275591Y0124885D02*
X0234820Y0124885D01*
X0234820Y0123287D02*
X0275591Y0123287D01*
X0275591Y0121688D02*
X0234820Y0121688D01*
X0234820Y0120090D02*
X0275591Y0120090D01*
X0275591Y0118491D02*
X0234820Y0118491D01*
X0234820Y0116893D02*
X0275591Y0116893D01*
X0275591Y0115294D02*
X0234820Y0115294D01*
X0234820Y0113696D02*
X0275591Y0113696D01*
X0275591Y0112097D02*
X0234820Y0112097D01*
X0234820Y0110499D02*
X0275591Y0110499D01*
X0275591Y0108900D02*
X0234820Y0108900D01*
X0234820Y0107302D02*
X0275591Y0107302D01*
X0275591Y0105703D02*
X0234820Y0105703D01*
X0234820Y0104105D02*
X0275591Y0104105D01*
X0275591Y0102506D02*
X0234820Y0102506D01*
X0234820Y0100908D02*
X0275591Y0100908D01*
X0275591Y0099309D02*
X0234820Y0099309D01*
X0234820Y0097711D02*
X0275591Y0097711D01*
X0275591Y0096112D02*
X0234820Y0096112D01*
X0234820Y0094514D02*
X0275591Y0094514D01*
X0275591Y0092915D02*
X0234820Y0092915D01*
X0234820Y0091317D02*
X0275591Y0091317D01*
X0275591Y0089718D02*
X0234820Y0089718D01*
X0234820Y0088120D02*
X0275591Y0088120D01*
X0275591Y0086521D02*
X0234820Y0086521D01*
X0234820Y0084923D02*
X0275591Y0084923D01*
X0275591Y0083324D02*
X0234820Y0083324D01*
X0234820Y0081726D02*
X0275591Y0081726D01*
X0275591Y0080127D02*
X0234820Y0080127D01*
X0234820Y0078529D02*
X0275591Y0078529D01*
X0275591Y0076930D02*
X0234820Y0076930D01*
X0234820Y0075332D02*
X0275591Y0075332D01*
X0275591Y0073733D02*
X0234820Y0073733D01*
X0234820Y0072134D02*
X0275591Y0072134D01*
X0275591Y0070536D02*
X0234820Y0070536D01*
X0234820Y0068937D02*
X0275591Y0068937D01*
X0275591Y0067339D02*
X0234820Y0067339D01*
X0234135Y0065740D02*
X0275591Y0065740D01*
X0275591Y0064142D02*
X0224704Y0064142D01*
X0225770Y0062543D02*
X0275591Y0062543D01*
X0275591Y0060945D02*
X0225770Y0060945D01*
X0225770Y0059346D02*
X0275591Y0059346D01*
X0275591Y0057748D02*
X0224253Y0057748D01*
X0223075Y0055770D02*
X0219265Y0055770D01*
X0216570Y0053075D01*
X0216570Y0049265D01*
X0219265Y0046570D01*
X0223075Y0046570D01*
X0225770Y0049265D01*
X0225770Y0053075D01*
X0223075Y0055770D01*
X0224295Y0054551D02*
X0275591Y0054551D01*
X0275591Y0056149D02*
X0175499Y0056149D01*
X0175920Y0054551D02*
X0178045Y0054551D01*
X0179265Y0055770D02*
X0176570Y0053075D01*
X0176570Y0049265D01*
X0179265Y0046570D01*
X0183075Y0046570D01*
X0185770Y0049265D01*
X0185770Y0053075D01*
X0183075Y0055770D01*
X0179265Y0055770D01*
X0177804Y0057748D02*
X0175920Y0057748D01*
X0175920Y0059346D02*
X0176370Y0059346D01*
X0180970Y0059346D02*
X0181370Y0059346D01*
X0181370Y0057748D02*
X0180970Y0057748D01*
X0180970Y0060945D02*
X0181370Y0060945D01*
X0184536Y0057748D02*
X0188087Y0057748D01*
X0186570Y0059346D02*
X0185970Y0059346D01*
X0185970Y0060945D02*
X0186570Y0060945D01*
X0186570Y0062543D02*
X0185970Y0062543D01*
X0184986Y0064142D02*
X0187637Y0064142D01*
X0194704Y0064142D02*
X0197637Y0064142D01*
X0196570Y0062543D02*
X0195770Y0062543D01*
X0195770Y0060945D02*
X0196570Y0060945D01*
X0196570Y0059346D02*
X0195770Y0059346D01*
X0194253Y0057748D02*
X0198087Y0057748D01*
X0199265Y0055770D02*
X0196570Y0053075D01*
X0196570Y0049265D01*
X0199265Y0046570D01*
X0203075Y0046570D01*
X0205770Y0049265D01*
X0205770Y0053075D01*
X0203075Y0055770D01*
X0199265Y0055770D01*
X0198045Y0054551D02*
X0194295Y0054551D01*
X0193075Y0055770D02*
X0189265Y0055770D01*
X0186570Y0053075D01*
X0186570Y0049265D01*
X0189265Y0046570D01*
X0193075Y0046570D01*
X0195770Y0049265D01*
X0195770Y0053075D01*
X0193075Y0055770D01*
X0195770Y0052952D02*
X0196570Y0052952D01*
X0196570Y0051354D02*
X0195770Y0051354D01*
X0195770Y0049755D02*
X0196570Y0049755D01*
X0197678Y0048157D02*
X0194662Y0048157D01*
X0187678Y0048157D02*
X0184662Y0048157D01*
X0185770Y0049755D02*
X0186570Y0049755D01*
X0186570Y0051354D02*
X0185770Y0051354D01*
X0185770Y0052952D02*
X0186570Y0052952D01*
X0188045Y0054551D02*
X0184295Y0054551D01*
X0176570Y0052952D02*
X0175920Y0052952D01*
X0175920Y0051354D02*
X0176570Y0051354D01*
X0176570Y0049755D02*
X0175064Y0049755D01*
X0174525Y0048157D02*
X0177678Y0048157D01*
X0174473Y0046558D02*
X0275591Y0046558D01*
X0275591Y0044960D02*
X0173491Y0044960D01*
X0168849Y0044960D02*
X0003600Y0044960D01*
X0003600Y0046558D02*
X0118994Y0046558D01*
X0119182Y0046370D02*
X0120970Y0046370D01*
X0120970Y0050970D01*
X0121370Y0050970D01*
X0121370Y0046370D01*
X0123158Y0046370D01*
X0125970Y0049182D01*
X0125970Y0050970D01*
X0121370Y0050970D01*
X0121370Y0051370D01*
X0125970Y0051370D01*
X0125970Y0053158D01*
X0123158Y0055970D01*
X0121370Y0055970D01*
X0121370Y0051370D01*
X0120970Y0051370D01*
X0120970Y0050970D01*
X0116370Y0050970D01*
X0116370Y0049182D01*
X0119182Y0046370D01*
X0120970Y0046558D02*
X0121370Y0046558D01*
X0121370Y0048157D02*
X0120970Y0048157D01*
X0120970Y0049755D02*
X0121370Y0049755D01*
X0121370Y0051354D02*
X0126570Y0051354D01*
X0126570Y0052952D02*
X0125970Y0052952D01*
X0126570Y0053075D02*
X0126570Y0049265D01*
X0129265Y0046570D01*
X0133075Y0046570D01*
X0135770Y0049265D01*
X0135770Y0053075D01*
X0133075Y0055770D01*
X0129265Y0055770D01*
X0126570Y0053075D01*
X0128045Y0054551D02*
X0124577Y0054551D01*
X0121370Y0054551D02*
X0120970Y0054551D01*
X0120970Y0055970D02*
X0119182Y0055970D01*
X0116370Y0053158D01*
X0116370Y0051370D01*
X0120970Y0051370D01*
X0120970Y0055970D01*
X0120970Y0052952D02*
X0121370Y0052952D01*
X0120970Y0051354D02*
X0003600Y0051354D01*
X0003600Y0052952D02*
X0116370Y0052952D01*
X0117763Y0054551D02*
X0090159Y0054551D01*
X0088670Y0054551D02*
X0088670Y0054551D01*
X0087182Y0054551D02*
X0080159Y0054551D01*
X0078670Y0054551D02*
X0078670Y0054551D01*
X0077182Y0054551D02*
X0070159Y0054551D01*
X0070072Y0054528D02*
X0070650Y0054682D01*
X0071168Y0054982D01*
X0071591Y0055405D01*
X0071890Y0055923D01*
X0072045Y0056501D01*
X0072045Y0059477D01*
X0068670Y0059477D01*
X0068670Y0059477D01*
X0068670Y0054528D01*
X0067269Y0054528D01*
X0066691Y0054682D01*
X0066172Y0054982D01*
X0065749Y0055405D01*
X0065450Y0055923D01*
X0065295Y0056501D01*
X0065295Y0059477D01*
X0068670Y0059477D01*
X0068670Y0059477D01*
X0068670Y0054528D01*
X0070072Y0054528D01*
X0068670Y0054551D02*
X0068670Y0054551D01*
X0067182Y0054551D02*
X0060159Y0054551D01*
X0060072Y0054528D02*
X0060650Y0054682D01*
X0061168Y0054982D01*
X0061591Y0055405D01*
X0061890Y0055923D01*
X0062045Y0056501D01*
X0062045Y0059477D01*
X0058670Y0059477D01*
X0058670Y0059477D01*
X0058670Y0054528D01*
X0057269Y0054528D01*
X0056691Y0054682D01*
X0056172Y0054982D01*
X0055749Y0055405D01*
X0055450Y0055923D01*
X0055295Y0056501D01*
X0055295Y0059477D01*
X0058670Y0059477D01*
X0058670Y0059477D01*
X0058670Y0054528D01*
X0060072Y0054528D01*
X0058670Y0054551D02*
X0058670Y0054551D01*
X0057182Y0054551D02*
X0003600Y0054551D01*
X0003600Y0056149D02*
X0055389Y0056149D01*
X0055295Y0057748D02*
X0003600Y0057748D01*
X0003600Y0059346D02*
X0055295Y0059346D01*
X0055295Y0059477D02*
X0058670Y0059477D01*
X0058670Y0059477D01*
X0058670Y0064427D01*
X0057269Y0064427D01*
X0056691Y0064272D01*
X0056172Y0063973D01*
X0055749Y0063550D01*
X0055450Y0063031D01*
X0055295Y0062454D01*
X0055295Y0059477D01*
X0055295Y0060945D02*
X0003600Y0060945D01*
X0003600Y0062543D02*
X0055319Y0062543D01*
X0056465Y0064142D02*
X0003600Y0064142D01*
X0003600Y0065740D02*
X0071470Y0065740D01*
X0071470Y0067339D02*
X0003600Y0067339D01*
X0003600Y0068937D02*
X0055885Y0068937D01*
X0055495Y0070536D02*
X0003600Y0070536D01*
X0003600Y0072134D02*
X0055495Y0072134D01*
X0055495Y0073733D02*
X0003600Y0073733D01*
X0003600Y0075332D02*
X0052895Y0075332D01*
X0054445Y0075332D02*
X0055495Y0075332D01*
X0053670Y0078670D02*
X0058670Y0078670D01*
X0058670Y0072863D01*
X0061845Y0072134D02*
X0065495Y0072134D01*
X0065495Y0070536D02*
X0061845Y0070536D01*
X0061455Y0068937D02*
X0065885Y0068937D01*
X0067269Y0064427D02*
X0066691Y0064272D01*
X0066172Y0063973D01*
X0065749Y0063550D01*
X0065450Y0063031D01*
X0065295Y0062454D01*
X0065295Y0059477D01*
X0068670Y0059477D01*
X0068670Y0059477D01*
X0068670Y0064427D01*
X0067269Y0064427D01*
X0066465Y0064142D02*
X0060875Y0064142D01*
X0060650Y0064272D02*
X0060072Y0064427D01*
X0058670Y0064427D01*
X0058670Y0059477D01*
X0058670Y0059477D01*
X0062045Y0059477D01*
X0062045Y0062454D01*
X0061890Y0063031D01*
X0061591Y0063550D01*
X0061168Y0063973D01*
X0060650Y0064272D01*
X0058670Y0064142D02*
X0058670Y0064142D01*
X0058670Y0062543D02*
X0058670Y0062543D01*
X0058670Y0060945D02*
X0058670Y0060945D01*
X0058670Y0059346D02*
X0058670Y0059346D01*
X0058670Y0057748D02*
X0058670Y0057748D01*
X0058670Y0056149D02*
X0058670Y0056149D01*
X0061951Y0056149D02*
X0065389Y0056149D01*
X0065295Y0057748D02*
X0062045Y0057748D01*
X0062045Y0059346D02*
X0065295Y0059346D01*
X0065295Y0060945D02*
X0062045Y0060945D01*
X0062021Y0062543D02*
X0065319Y0062543D01*
X0068670Y0062543D02*
X0068670Y0062543D01*
X0068670Y0060945D02*
X0068670Y0060945D01*
X0068670Y0059477D02*
X0068670Y0059477D01*
X0072045Y0059477D01*
X0072045Y0062454D01*
X0071890Y0063031D01*
X0071591Y0063550D01*
X0071168Y0063973D01*
X0070650Y0064272D01*
X0070072Y0064427D01*
X0068670Y0064427D01*
X0068670Y0059477D01*
X0068670Y0059346D02*
X0068670Y0059346D01*
X0068670Y0057748D02*
X0068670Y0057748D01*
X0068670Y0056149D02*
X0068670Y0056149D01*
X0071951Y0056149D02*
X0075389Y0056149D01*
X0075295Y0057748D02*
X0072045Y0057748D01*
X0072045Y0059346D02*
X0075295Y0059346D01*
X0075295Y0060945D02*
X0072045Y0060945D01*
X0072021Y0062543D02*
X0075319Y0062543D01*
X0072587Y0064142D02*
X0070875Y0064142D01*
X0068670Y0064142D02*
X0068670Y0064142D01*
X0071455Y0068937D02*
X0071470Y0068937D01*
X0068670Y0072863D02*
X0068670Y0077420D01*
X0063670Y0077420D01*
X0058670Y0078670D02*
X0058670Y0084477D01*
X0063670Y0082420D02*
X0063670Y0097420D01*
X0061845Y0100908D02*
X0065495Y0100908D01*
X0063670Y0103670D02*
X0071170Y0103670D01*
X0076170Y0098670D01*
X0076170Y0091170D01*
X0080363Y0086977D01*
X0084920Y0086977D01*
X0084920Y0084920D01*
X0078670Y0078670D01*
X0078670Y0072863D01*
X0088670Y0072863D02*
X0093670Y0077863D01*
X0093670Y0086977D01*
X0096977Y0083670D01*
X0101170Y0083670D01*
X0098788Y0081270D02*
X0099255Y0080804D01*
X0100498Y0080289D01*
X0101843Y0080289D01*
X0103085Y0080804D01*
X0104036Y0081755D01*
X0104551Y0082998D01*
X0104551Y0084343D01*
X0104036Y0085585D01*
X0103085Y0086536D01*
X0101843Y0087051D01*
X0100498Y0087051D01*
X0099255Y0086536D01*
X0098788Y0086070D01*
X0097971Y0086070D01*
X0096845Y0087196D01*
X0096845Y0090513D01*
X0095631Y0091727D01*
X0094007Y0091727D01*
X0090030Y0095705D01*
X0089147Y0096070D01*
X0087338Y0096070D01*
X0088095Y0096827D01*
X0088095Y0097963D01*
X0090495Y0097963D01*
X0090495Y0096827D01*
X0091709Y0095613D01*
X0095631Y0095613D01*
X0096845Y0096827D01*
X0096845Y0097789D01*
X0098093Y0097789D01*
X0099335Y0098304D01*
X0100286Y0099255D01*
X0100801Y0100498D01*
X0100801Y0101843D01*
X0100286Y0103085D01*
X0099335Y0104036D01*
X0098093Y0104551D01*
X0096748Y0104551D01*
X0096355Y0104389D01*
X0095631Y0105113D01*
X0095317Y0105113D01*
X0096170Y0105966D01*
X0097231Y0104905D01*
X0101802Y0104905D01*
X0103085Y0106188D01*
X0103085Y0110941D01*
X0103414Y0111270D01*
X0104070Y0111270D01*
X0104070Y0111247D01*
X0107497Y0107820D01*
X0112343Y0107820D01*
X0115770Y0111247D01*
X0115770Y0111470D01*
X0117081Y0111470D01*
X0118370Y0112759D01*
X0118370Y0112769D01*
X0122333Y0112769D01*
X0122333Y0111820D01*
X0127085Y0111820D01*
X0127085Y0111820D01*
X0122333Y0111820D01*
X0122333Y0110855D01*
X0122475Y0110322D01*
X0122520Y0110245D01*
X0122475Y0110168D01*
X0122333Y0109635D01*
X0122333Y0108670D01*
X0122333Y0107720D01*
X0114487Y0107720D01*
X0114416Y0107782D01*
X0113589Y0107720D01*
X0112759Y0107720D01*
X0112692Y0107654D01*
X0112599Y0107647D01*
X0112058Y0107020D01*
X0107497Y0107020D01*
X0104070Y0103593D01*
X0104070Y0098747D01*
X0107497Y0095320D01*
X0112343Y0095320D01*
X0113970Y0096947D01*
X0113970Y0092893D01*
X0112343Y0094520D01*
X0107497Y0094520D01*
X0104070Y0091093D01*
X0104070Y0086247D01*
X0107497Y0082820D01*
X0112343Y0082820D01*
X0113970Y0084447D01*
X0113970Y0083282D01*
X0113885Y0083282D01*
X0112602Y0081999D01*
X0112602Y0077034D01*
X0113336Y0076300D01*
X0113268Y0076255D01*
X0112935Y0075922D01*
X0112674Y0075531D01*
X0112493Y0075096D01*
X0112402Y0074634D01*
X0112402Y0073008D01*
X0115986Y0073008D01*
X0115986Y0072639D01*
X0112402Y0072639D01*
X0112402Y0071013D01*
X0112493Y0070552D01*
X0112674Y0070116D01*
X0112935Y0069725D01*
X0113040Y0069620D01*
X0111124Y0069620D01*
X0110739Y0069748D01*
X0110552Y0069935D01*
X0105981Y0069935D01*
X0104920Y0068874D01*
X0103859Y0069935D01*
X0099288Y0069935D01*
X0098005Y0068652D01*
X0098005Y0068370D01*
X0090888Y0068370D01*
X0091845Y0069327D01*
X0091845Y0072644D01*
X0095705Y0076503D01*
X0096070Y0077386D01*
X0096070Y0081448D01*
X0096500Y0081270D01*
X0098788Y0081270D01*
X0096070Y0080127D02*
X0112602Y0080127D01*
X0112602Y0078529D02*
X0096070Y0078529D01*
X0095881Y0076930D02*
X0112706Y0076930D01*
X0112591Y0075332D02*
X0094533Y0075332D01*
X0092934Y0073733D02*
X0112402Y0073733D01*
X0112402Y0072134D02*
X0091845Y0072134D01*
X0091845Y0070536D02*
X0112500Y0070536D01*
X0116354Y0072639D02*
X0116354Y0073008D01*
X0119939Y0073008D01*
X0119939Y0074634D01*
X0119847Y0075096D01*
X0119666Y0075531D01*
X0119405Y0075922D01*
X0119072Y0076255D01*
X0119005Y0076300D01*
X0119739Y0077034D01*
X0119739Y0081999D01*
X0118455Y0083282D01*
X0118370Y0083282D01*
X0118370Y0084009D01*
X0119581Y0085220D01*
X0120870Y0086509D01*
X0120870Y0088359D01*
X0123970Y0085259D01*
X0123970Y0083085D01*
X0123688Y0083085D01*
X0122405Y0081802D01*
X0122405Y0077231D01*
X0123375Y0076261D01*
X0123071Y0076058D01*
X0122738Y0075725D01*
X0122477Y0075334D01*
X0122297Y0074899D01*
X0122205Y0074437D01*
X0122205Y0073008D01*
X0125986Y0073008D01*
X0125986Y0072639D01*
X0122205Y0072639D01*
X0122205Y0071210D01*
X0122297Y0070748D01*
X0122477Y0070313D01*
X0122738Y0069922D01*
X0123040Y0069620D01*
X0119300Y0069620D01*
X0119405Y0069725D01*
X0119666Y0070116D01*
X0119847Y0070552D01*
X0119939Y0071013D01*
X0119939Y0072639D01*
X0116354Y0072639D01*
X0119939Y0072134D02*
X0122205Y0072134D01*
X0122205Y0073733D02*
X0119939Y0073733D01*
X0119749Y0075332D02*
X0122476Y0075332D01*
X0122706Y0076930D02*
X0119634Y0076930D01*
X0119739Y0078529D02*
X0122405Y0078529D01*
X0122405Y0080127D02*
X0119739Y0080127D01*
X0119739Y0081726D02*
X0122405Y0081726D01*
X0123970Y0083324D02*
X0118370Y0083324D01*
X0119284Y0084923D02*
X0123970Y0084923D01*
X0122708Y0086521D02*
X0120870Y0086521D01*
X0120870Y0088120D02*
X0121109Y0088120D01*
X0125314Y0090138D02*
X0127085Y0090138D01*
X0127085Y0092922D01*
X0127085Y0092922D01*
X0127085Y0090138D01*
X0128902Y0090138D01*
X0127720Y0088956D01*
X0127720Y0087731D01*
X0127081Y0088370D01*
X0125314Y0090138D01*
X0125733Y0089718D02*
X0128482Y0089718D01*
X0127720Y0088120D02*
X0127332Y0088120D01*
X0127085Y0091317D02*
X0127085Y0091317D01*
X0127085Y0092915D02*
X0127085Y0092915D01*
X0127086Y0092922D02*
X0131686Y0092922D01*
X0131686Y0092922D01*
X0127086Y0092922D01*
X0127086Y0092922D01*
X0131838Y0093074D02*
X0131838Y0093887D01*
X0131695Y0094420D01*
X0131609Y0094569D01*
X0131638Y0094598D01*
X0131638Y0097021D01*
X0132633Y0097021D01*
X0135870Y0100259D01*
X0135870Y0125831D01*
X0134749Y0126952D01*
X0135646Y0126952D01*
X0135747Y0127053D01*
X0135848Y0126952D01*
X0138796Y0126952D01*
X0138896Y0127053D01*
X0138997Y0126952D01*
X0141945Y0126952D01*
X0142046Y0127053D01*
X0142147Y0126952D01*
X0142758Y0126952D01*
X0141755Y0126536D01*
X0140804Y0125585D01*
X0140289Y0124343D01*
X0140289Y0122998D01*
X0140804Y0121755D01*
X0141755Y0120804D01*
X0142998Y0120289D01*
X0144343Y0120289D01*
X0145585Y0120804D01*
X0146252Y0121470D01*
X0147682Y0121470D01*
X0148970Y0122759D01*
X0148970Y0126952D01*
X0151394Y0126952D01*
X0151495Y0127053D01*
X0151570Y0126978D01*
X0150505Y0126536D01*
X0149554Y0125585D01*
X0149039Y0124343D01*
X0149039Y0122998D01*
X0149554Y0121755D01*
X0150505Y0120804D01*
X0151748Y0120289D01*
X0153093Y0120289D01*
X0154335Y0120804D01*
X0155002Y0121470D01*
X0155464Y0121470D01*
X0149589Y0115201D01*
X0148970Y0114581D01*
X0148970Y0114540D01*
X0148942Y0114509D01*
X0148970Y0113634D01*
X0148970Y0104009D01*
X0150259Y0102720D01*
X0163588Y0102720D01*
X0164255Y0102054D01*
X0165498Y0101539D01*
X0166843Y0101539D01*
X0168002Y0102019D01*
X0168002Y0101406D01*
X0168145Y0100873D01*
X0168189Y0100796D01*
X0168145Y0100719D01*
X0168002Y0100186D01*
X0168002Y0099221D01*
X0168002Y0098256D01*
X0168145Y0097724D01*
X0168189Y0097646D01*
X0168145Y0097569D01*
X0168089Y0097362D01*
X0164620Y0100831D01*
X0163331Y0102120D01*
X0140884Y0102120D01*
X0131838Y0093074D01*
X0131641Y0094514D02*
X0133277Y0094514D01*
X0134876Y0096112D02*
X0131638Y0096112D01*
X0133322Y0097711D02*
X0136474Y0097711D01*
X0134920Y0099309D02*
X0138073Y0099309D01*
X0139671Y0100908D02*
X0135870Y0100908D01*
X0135870Y0102506D02*
X0163802Y0102506D01*
X0164544Y0100908D02*
X0168135Y0100908D01*
X0168402Y0102371D02*
X0168402Y0102371D01*
X0172755Y0102371D01*
X0177507Y0102371D01*
X0177507Y0103320D01*
X0183331Y0103320D01*
X0183652Y0103641D01*
X0183652Y0102263D01*
X0183743Y0101802D01*
X0183924Y0101366D01*
X0184185Y0100975D01*
X0184518Y0100642D01*
X0184910Y0100380D01*
X0185345Y0100200D01*
X0185807Y0100108D01*
X0187236Y0100108D01*
X0187236Y0103889D01*
X0187604Y0103889D01*
X0187604Y0100108D01*
X0189033Y0100108D01*
X0189495Y0100200D01*
X0189930Y0100380D01*
X0190322Y0100642D01*
X0190655Y0100975D01*
X0190916Y0101366D01*
X0191097Y0101802D01*
X0191189Y0102263D01*
X0191189Y0103889D01*
X0187604Y0103889D01*
X0187604Y0104258D01*
X0191189Y0104258D01*
X0191189Y0105884D01*
X0191097Y0106346D01*
X0190916Y0106781D01*
X0190655Y0107172D01*
X0190322Y0107505D01*
X0190255Y0107550D01*
X0190989Y0108284D01*
X0190989Y0113249D01*
X0189705Y0114532D01*
X0189620Y0114532D01*
X0189620Y0122521D01*
X0190210Y0122277D01*
X0191470Y0122277D01*
X0191470Y0119759D01*
X0192759Y0118470D01*
X0215170Y0118470D01*
X0215170Y0118112D01*
X0216512Y0116770D01*
X0223329Y0116770D01*
X0224670Y0118112D01*
X0224670Y0118470D01*
X0226470Y0118470D01*
X0226470Y0114893D01*
X0226462Y0114900D01*
X0224845Y0115570D01*
X0217495Y0115570D01*
X0215878Y0114900D01*
X0214640Y0113662D01*
X0213970Y0112045D01*
X0213970Y0110295D01*
X0214640Y0108678D01*
X0215878Y0107440D01*
X0217495Y0106770D01*
X0224845Y0106770D01*
X0226462Y0107440D01*
X0226470Y0107448D01*
X0226470Y0105040D01*
X0226381Y0105104D01*
X0225736Y0105433D01*
X0225047Y0105657D01*
X0224332Y0105770D01*
X0221270Y0105770D01*
X0221270Y0101270D01*
X0221070Y0101270D01*
X0221070Y0101070D01*
X0221270Y0101070D01*
X0221270Y0096570D01*
X0224332Y0096570D01*
X0225047Y0096683D01*
X0225736Y0096907D01*
X0226381Y0097236D01*
X0226470Y0097301D01*
X0226470Y0095870D01*
X0221509Y0095870D01*
X0220220Y0094581D01*
X0220220Y0087632D01*
X0220194Y0087632D01*
X0218842Y0086280D01*
X0218842Y0081060D01*
X0220194Y0079708D01*
X0220604Y0079708D01*
X0220604Y0077632D01*
X0220194Y0077632D01*
X0218842Y0076280D01*
X0218842Y0071060D01*
X0220082Y0069820D01*
X0217258Y0069820D01*
X0218498Y0071060D01*
X0218498Y0076280D01*
X0217146Y0077632D01*
X0211926Y0077632D01*
X0210574Y0076280D01*
X0210574Y0076163D01*
X0209302Y0077435D01*
X0204731Y0077435D01*
X0203670Y0076374D01*
X0202609Y0077435D01*
X0198038Y0077435D01*
X0197142Y0076539D01*
X0193489Y0076539D01*
X0193489Y0077412D01*
X0192256Y0078645D01*
X0195946Y0078645D01*
X0197229Y0079928D01*
X0197229Y0080431D01*
X0197422Y0080238D01*
X0197813Y0079977D01*
X0198248Y0079797D01*
X0198710Y0079705D01*
X0200139Y0079705D01*
X0200139Y0083486D01*
X0200508Y0083486D01*
X0200508Y0079705D01*
X0201937Y0079705D01*
X0202399Y0079797D01*
X0202834Y0079977D01*
X0203225Y0080238D01*
X0203558Y0080571D01*
X0203761Y0080875D01*
X0204731Y0079905D01*
X0209302Y0079905D01*
X0210574Y0081177D01*
X0210574Y0081060D01*
X0211926Y0079708D01*
X0217146Y0079708D01*
X0218498Y0081060D01*
X0218498Y0086280D01*
X0217146Y0087632D01*
X0211926Y0087632D01*
X0210574Y0086280D01*
X0210574Y0086163D01*
X0209302Y0087435D01*
X0204731Y0087435D01*
X0203761Y0086465D01*
X0203558Y0086769D01*
X0203225Y0087102D01*
X0202834Y0087363D01*
X0202399Y0087544D01*
X0201937Y0087635D01*
X0200508Y0087635D01*
X0200508Y0083854D01*
X0200139Y0083854D01*
X0200139Y0087635D01*
X0198710Y0087635D01*
X0198248Y0087544D01*
X0197813Y0087363D01*
X0197422Y0087102D01*
X0197089Y0086769D01*
X0196866Y0086436D01*
X0195946Y0087357D01*
X0195467Y0087357D01*
X0195467Y0088655D01*
X0195552Y0088655D01*
X0196835Y0089938D01*
X0196835Y0094902D01*
X0195552Y0096185D01*
X0190981Y0096185D01*
X0189920Y0095124D01*
X0188859Y0096185D01*
X0184288Y0096185D01*
X0183005Y0094902D01*
X0183005Y0094620D01*
X0180259Y0094620D01*
X0178970Y0093331D01*
X0178970Y0090870D01*
X0176730Y0090870D01*
X0177307Y0091448D01*
X0177307Y0094396D01*
X0177279Y0094425D01*
X0177365Y0094574D01*
X0177507Y0095107D01*
X0177507Y0096072D01*
X0177507Y0097036D01*
X0177365Y0097569D01*
X0177320Y0097646D01*
X0177365Y0097724D01*
X0177507Y0098256D01*
X0177507Y0099221D01*
X0172755Y0099221D01*
X0172755Y0099221D01*
X0172755Y0096437D01*
X0172755Y0096072D01*
X0172755Y0096072D01*
X0177507Y0096072D01*
X0172755Y0096072D01*
X0172755Y0096072D01*
X0172755Y0099221D01*
X0172755Y0099221D01*
X0177507Y0099221D01*
X0177507Y0100186D01*
X0177365Y0100719D01*
X0177320Y0100796D01*
X0177365Y0100873D01*
X0177507Y0101406D01*
X0177507Y0102371D01*
X0172755Y0102371D01*
X0172755Y0102371D01*
X0172755Y0099587D01*
X0172755Y0099221D01*
X0172755Y0099221D01*
X0168002Y0099221D01*
X0172755Y0099221D01*
X0172755Y0099221D01*
X0172755Y0102371D01*
X0172755Y0102371D01*
X0168402Y0102371D01*
X0172755Y0102371D02*
X0172755Y0102371D01*
X0172755Y0100908D02*
X0172755Y0100908D01*
X0172755Y0099309D02*
X0172755Y0099309D01*
X0172755Y0097711D02*
X0172755Y0097711D01*
X0172755Y0096112D02*
X0172755Y0096112D01*
X0168152Y0097711D02*
X0167741Y0097711D01*
X0168002Y0099309D02*
X0166142Y0099309D01*
X0168002Y0107821D02*
X0166843Y0108301D01*
X0166412Y0108301D01*
X0168096Y0109984D01*
X0168002Y0109635D01*
X0168002Y0108670D01*
X0168002Y0107821D01*
X0168002Y0108670D02*
X0172755Y0108670D01*
X0172755Y0108670D01*
X0177507Y0108670D01*
X0177507Y0107720D01*
X0180220Y0107720D01*
X0180220Y0112769D01*
X0177507Y0112769D01*
X0177507Y0111820D01*
X0172755Y0111820D01*
X0172755Y0111820D01*
X0177507Y0111820D01*
X0177507Y0110855D01*
X0177365Y0110322D01*
X0177320Y0110245D01*
X0177365Y0110168D01*
X0177507Y0109635D01*
X0177507Y0108670D01*
X0172755Y0108670D01*
X0172755Y0108670D01*
X0172755Y0109035D01*
X0172755Y0111820D01*
X0172755Y0111820D01*
X0172755Y0108670D01*
X0172755Y0108670D01*
X0168002Y0108670D01*
X0168002Y0108900D02*
X0167012Y0108900D01*
X0172755Y0108900D02*
X0172755Y0108900D01*
X0172755Y0110499D02*
X0172755Y0110499D01*
X0177412Y0110499D02*
X0180220Y0110499D01*
X0180220Y0112097D02*
X0177507Y0112097D01*
X0177507Y0108900D02*
X0180220Y0108900D01*
X0177507Y0102506D02*
X0183652Y0102506D01*
X0184252Y0100908D02*
X0177374Y0100908D01*
X0177507Y0099309D02*
X0214156Y0099309D01*
X0214107Y0099404D02*
X0214436Y0098759D01*
X0214861Y0098173D01*
X0215373Y0097661D01*
X0215959Y0097236D01*
X0216604Y0096907D01*
X0217293Y0096683D01*
X0218008Y0096570D01*
X0221070Y0096570D01*
X0221070Y0101070D01*
X0213770Y0101070D01*
X0213770Y0100808D01*
X0213883Y0100093D01*
X0214107Y0099404D01*
X0213770Y0100908D02*
X0190588Y0100908D01*
X0191189Y0102506D02*
X0213967Y0102506D01*
X0213883Y0102247D02*
X0213770Y0101532D01*
X0213770Y0101270D01*
X0221070Y0101270D01*
X0221070Y0105770D01*
X0218008Y0105770D01*
X0217293Y0105657D01*
X0216604Y0105433D01*
X0215959Y0105104D01*
X0215373Y0104679D01*
X0214861Y0104167D01*
X0214436Y0103581D01*
X0214107Y0102936D01*
X0213883Y0102247D01*
X0214816Y0104105D02*
X0187604Y0104105D01*
X0187604Y0102506D02*
X0187236Y0102506D01*
X0187236Y0100908D02*
X0187604Y0100908D01*
X0188932Y0096112D02*
X0190908Y0096112D01*
X0195625Y0096112D02*
X0226470Y0096112D01*
X0221270Y0097711D02*
X0221070Y0097711D01*
X0221070Y0099309D02*
X0221270Y0099309D01*
X0221270Y0100908D02*
X0221070Y0100908D01*
X0221070Y0102506D02*
X0221270Y0102506D01*
X0221270Y0104105D02*
X0221070Y0104105D01*
X0221070Y0105703D02*
X0221270Y0105703D01*
X0224754Y0105703D02*
X0226470Y0105703D01*
X0226470Y0107302D02*
X0226129Y0107302D01*
X0226470Y0115294D02*
X0225511Y0115294D01*
X0226470Y0116893D02*
X0223451Y0116893D01*
X0216829Y0115294D02*
X0189620Y0115294D01*
X0189620Y0116893D02*
X0216389Y0116893D01*
X0214673Y0113696D02*
X0190541Y0113696D01*
X0190989Y0112097D02*
X0213992Y0112097D01*
X0213970Y0110499D02*
X0190989Y0110499D01*
X0190989Y0108900D02*
X0214548Y0108900D01*
X0216211Y0107302D02*
X0190525Y0107302D01*
X0191189Y0105703D02*
X0217586Y0105703D01*
X0215324Y0097711D02*
X0177357Y0097711D01*
X0177507Y0096112D02*
X0184215Y0096112D01*
X0180152Y0094514D02*
X0177330Y0094514D01*
X0177307Y0092915D02*
X0178970Y0092915D01*
X0178970Y0091317D02*
X0177176Y0091317D01*
X0178595Y0085570D02*
X0171245Y0085570D01*
X0169628Y0084900D01*
X0168452Y0083725D01*
X0168452Y0085835D01*
X0165668Y0085835D01*
X0165668Y0085835D01*
X0165668Y0081083D01*
X0164703Y0081083D01*
X0164170Y0081225D01*
X0164093Y0081270D01*
X0164016Y0081225D01*
X0163483Y0081083D01*
X0162519Y0081083D01*
X0162519Y0085835D01*
X0162519Y0085835D01*
X0165303Y0085835D01*
X0165668Y0085835D01*
X0165668Y0081083D01*
X0166633Y0081083D01*
X0167166Y0081225D01*
X0167644Y0081501D01*
X0167720Y0081578D01*
X0167720Y0080295D01*
X0168390Y0078678D01*
X0169628Y0077440D01*
X0171245Y0076770D01*
X0178595Y0076770D01*
X0180212Y0077440D01*
X0181450Y0078678D01*
X0182120Y0080295D01*
X0182120Y0082045D01*
X0181450Y0083662D01*
X0180212Y0084900D01*
X0178595Y0085570D01*
X0180158Y0084923D02*
X0182411Y0084923D01*
X0182411Y0085402D02*
X0182411Y0083185D01*
X0185996Y0083185D01*
X0185996Y0087557D01*
X0184567Y0087557D01*
X0184105Y0087465D01*
X0183670Y0087285D01*
X0183278Y0087023D01*
X0182945Y0086690D01*
X0182683Y0086298D01*
X0182503Y0085863D01*
X0182411Y0085402D01*
X0182081Y0086470D02*
X0183370Y0087759D01*
X0183370Y0089573D01*
X0184288Y0088655D01*
X0188859Y0088655D01*
X0189920Y0089716D01*
X0190981Y0088655D01*
X0191067Y0088655D01*
X0191067Y0087048D01*
X0190092Y0086073D01*
X0190092Y0079928D01*
X0191325Y0078695D01*
X0188638Y0078695D01*
X0188690Y0078717D01*
X0189082Y0078979D01*
X0189415Y0079312D01*
X0189676Y0079703D01*
X0189857Y0080138D01*
X0189948Y0080600D01*
X0189948Y0082817D01*
X0186364Y0082817D01*
X0186364Y0083185D01*
X0185996Y0083185D01*
X0185996Y0082817D01*
X0182411Y0082817D01*
X0182411Y0080600D01*
X0182503Y0080138D01*
X0182683Y0079703D01*
X0182945Y0079312D01*
X0183278Y0078979D01*
X0183670Y0078717D01*
X0184105Y0078537D01*
X0184567Y0078445D01*
X0185996Y0078445D01*
X0185996Y0082816D01*
X0186364Y0082816D01*
X0186364Y0078445D01*
X0187384Y0078445D01*
X0186352Y0077412D01*
X0186352Y0071267D01*
X0187635Y0069983D01*
X0192205Y0069983D01*
X0193489Y0071267D01*
X0193489Y0072139D01*
X0196755Y0072139D01*
X0196755Y0071188D01*
X0198038Y0069905D01*
X0202609Y0069905D01*
X0203670Y0070966D01*
X0204731Y0069905D01*
X0209302Y0069905D01*
X0210574Y0071177D01*
X0210574Y0071060D01*
X0211814Y0069820D01*
X0181923Y0069820D01*
X0182120Y0070295D01*
X0182120Y0072045D01*
X0181450Y0073662D01*
X0180212Y0074900D01*
X0178595Y0075570D01*
X0171245Y0075570D01*
X0169628Y0074900D01*
X0168390Y0073662D01*
X0167720Y0072045D01*
X0167720Y0070801D01*
X0166748Y0070801D01*
X0165505Y0070286D01*
X0164838Y0069620D01*
X0159910Y0069620D01*
X0159939Y0069763D01*
X0159939Y0071389D01*
X0156354Y0071389D01*
X0156354Y0071758D01*
X0159939Y0071758D01*
X0159939Y0073384D01*
X0159847Y0073846D01*
X0159666Y0074281D01*
X0159405Y0074672D01*
X0159072Y0075005D01*
X0159005Y0075050D01*
X0159739Y0075784D01*
X0159739Y0080749D01*
X0159205Y0081283D01*
X0160843Y0081283D01*
X0160872Y0081312D01*
X0161021Y0081225D01*
X0161554Y0081083D01*
X0162518Y0081083D01*
X0162518Y0085835D01*
X0162519Y0085835D01*
X0165668Y0085835D01*
X0165668Y0085835D01*
X0165668Y0085835D01*
X0168452Y0085835D01*
X0168452Y0087027D01*
X0169009Y0086470D01*
X0182081Y0086470D01*
X0182132Y0086521D02*
X0182832Y0086521D01*
X0183370Y0088120D02*
X0191067Y0088120D01*
X0190539Y0086521D02*
X0189528Y0086521D01*
X0189415Y0086690D02*
X0189082Y0087023D01*
X0188690Y0087285D01*
X0188255Y0087465D01*
X0187793Y0087557D01*
X0186364Y0087557D01*
X0186364Y0083185D01*
X0189948Y0083185D01*
X0189948Y0085402D01*
X0189857Y0085863D01*
X0189676Y0086298D01*
X0189415Y0086690D01*
X0189948Y0084923D02*
X0190092Y0084923D01*
X0190092Y0083324D02*
X0189948Y0083324D01*
X0189948Y0081726D02*
X0190092Y0081726D01*
X0190092Y0080127D02*
X0189852Y0080127D01*
X0192372Y0078529D02*
X0220604Y0078529D01*
X0219775Y0080127D02*
X0217565Y0080127D01*
X0218498Y0081726D02*
X0218842Y0081726D01*
X0218842Y0083324D02*
X0218498Y0083324D01*
X0218498Y0084923D02*
X0218842Y0084923D01*
X0219083Y0086521D02*
X0218257Y0086521D01*
X0220220Y0088120D02*
X0195467Y0088120D01*
X0196615Y0089718D02*
X0220220Y0089718D01*
X0220220Y0091317D02*
X0196835Y0091317D01*
X0196835Y0092915D02*
X0220220Y0092915D01*
X0220220Y0094514D02*
X0196835Y0094514D01*
X0196781Y0086521D02*
X0196923Y0086521D01*
X0200139Y0086521D02*
X0200508Y0086521D01*
X0200508Y0084923D02*
X0200139Y0084923D01*
X0200139Y0083324D02*
X0200508Y0083324D01*
X0200508Y0081726D02*
X0200139Y0081726D01*
X0200139Y0080127D02*
X0200508Y0080127D01*
X0203059Y0080127D02*
X0204509Y0080127D01*
X0204226Y0076930D02*
X0203114Y0076930D01*
X0197533Y0076930D02*
X0193489Y0076930D01*
X0193489Y0072134D02*
X0196755Y0072134D01*
X0197407Y0070536D02*
X0192758Y0070536D01*
X0187082Y0070536D02*
X0182120Y0070536D01*
X0182083Y0072134D02*
X0186352Y0072134D01*
X0186352Y0073733D02*
X0181380Y0073733D01*
X0179171Y0075332D02*
X0186352Y0075332D01*
X0186352Y0076930D02*
X0178981Y0076930D01*
X0181301Y0078529D02*
X0184146Y0078529D01*
X0185996Y0078529D02*
X0186364Y0078529D01*
X0186364Y0080127D02*
X0185996Y0080127D01*
X0185996Y0081726D02*
X0186364Y0081726D01*
X0186364Y0083324D02*
X0185996Y0083324D01*
X0185996Y0084923D02*
X0186364Y0084923D01*
X0186364Y0086521D02*
X0185996Y0086521D01*
X0182411Y0083324D02*
X0181590Y0083324D01*
X0182120Y0081726D02*
X0182411Y0081726D01*
X0182508Y0080127D02*
X0182051Y0080127D01*
X0170859Y0076930D02*
X0159739Y0076930D01*
X0159739Y0078529D02*
X0168539Y0078529D01*
X0167790Y0080127D02*
X0159739Y0080127D01*
X0162518Y0081726D02*
X0162519Y0081726D01*
X0162518Y0083324D02*
X0162519Y0083324D01*
X0162518Y0084923D02*
X0162519Y0084923D01*
X0165668Y0084923D02*
X0165668Y0084923D01*
X0165668Y0083324D02*
X0165668Y0083324D01*
X0165668Y0081726D02*
X0165668Y0081726D01*
X0168452Y0084923D02*
X0169682Y0084923D01*
X0168958Y0086521D02*
X0168452Y0086521D01*
X0170669Y0075332D02*
X0159286Y0075332D01*
X0159869Y0073733D02*
X0168460Y0073733D01*
X0167757Y0072134D02*
X0159939Y0072134D01*
X0159939Y0070536D02*
X0166107Y0070536D01*
X0170384Y0065740D02*
X0174640Y0065740D01*
X0172945Y0064142D02*
X0168341Y0064142D01*
X0166499Y0064142D02*
X0164704Y0064142D01*
X0165770Y0062543D02*
X0167235Y0062543D01*
X0166420Y0060945D02*
X0165770Y0060945D01*
X0165770Y0059346D02*
X0166420Y0059346D01*
X0166420Y0057748D02*
X0164253Y0057748D01*
X0163075Y0055770D02*
X0159265Y0055770D01*
X0156570Y0053075D01*
X0156570Y0049265D01*
X0159265Y0046570D01*
X0163075Y0046570D01*
X0165770Y0049265D01*
X0165770Y0053075D01*
X0163075Y0055770D01*
X0164295Y0054551D02*
X0166420Y0054551D01*
X0166420Y0052952D02*
X0165770Y0052952D01*
X0165770Y0051354D02*
X0166420Y0051354D01*
X0165770Y0049755D02*
X0167276Y0049755D01*
X0167816Y0048157D02*
X0164662Y0048157D01*
X0167867Y0046558D02*
X0123347Y0046558D01*
X0124945Y0048157D02*
X0127678Y0048157D01*
X0126570Y0049755D02*
X0125970Y0049755D01*
X0124253Y0057748D02*
X0128087Y0057748D01*
X0126570Y0059346D02*
X0125770Y0059346D01*
X0125770Y0060945D02*
X0126570Y0060945D01*
X0126570Y0062543D02*
X0125770Y0062543D01*
X0125249Y0064142D02*
X0124704Y0064142D01*
X0127091Y0064142D02*
X0127637Y0064142D01*
X0134704Y0064142D02*
X0137637Y0064142D01*
X0136570Y0062543D02*
X0135770Y0062543D01*
X0135770Y0060945D02*
X0136570Y0060945D01*
X0136570Y0059346D02*
X0135770Y0059346D01*
X0134253Y0057748D02*
X0138087Y0057748D01*
X0139265Y0055770D02*
X0136570Y0053075D01*
X0136570Y0049265D01*
X0139265Y0046570D01*
X0143075Y0046570D01*
X0145770Y0049265D01*
X0145770Y0053075D01*
X0143075Y0055770D01*
X0139265Y0055770D01*
X0138045Y0054551D02*
X0134295Y0054551D01*
X0135770Y0052952D02*
X0136570Y0052952D01*
X0136570Y0051354D02*
X0135770Y0051354D01*
X0135770Y0049755D02*
X0136570Y0049755D01*
X0137678Y0048157D02*
X0134662Y0048157D01*
X0144662Y0048157D02*
X0147678Y0048157D01*
X0146570Y0049265D02*
X0149265Y0046570D01*
X0153075Y0046570D01*
X0155770Y0049265D01*
X0155770Y0053075D01*
X0153075Y0055770D01*
X0149265Y0055770D01*
X0146570Y0053075D01*
X0146570Y0049265D01*
X0146570Y0049755D02*
X0145770Y0049755D01*
X0145770Y0051354D02*
X0146570Y0051354D01*
X0146570Y0052952D02*
X0145770Y0052952D01*
X0144295Y0054551D02*
X0148045Y0054551D01*
X0148087Y0057748D02*
X0144253Y0057748D01*
X0145770Y0059346D02*
X0146570Y0059346D01*
X0146570Y0060945D02*
X0145770Y0060945D01*
X0145770Y0062543D02*
X0146570Y0062543D01*
X0147637Y0064142D02*
X0144704Y0064142D01*
X0146748Y0070289D02*
X0148093Y0070289D01*
X0149335Y0070804D01*
X0150286Y0071755D01*
X0150801Y0072998D01*
X0150801Y0074343D01*
X0150286Y0075585D01*
X0149335Y0076536D01*
X0148970Y0076688D01*
X0148970Y0077338D01*
X0149255Y0077054D01*
X0150498Y0076539D01*
X0151843Y0076539D01*
X0152602Y0076853D01*
X0152602Y0075784D01*
X0153336Y0075050D01*
X0153268Y0075005D01*
X0152935Y0074672D01*
X0152674Y0074281D01*
X0152493Y0073846D01*
X0152402Y0073384D01*
X0152402Y0071758D01*
X0155986Y0071758D01*
X0155986Y0071389D01*
X0152402Y0071389D01*
X0152402Y0069763D01*
X0152430Y0069620D01*
X0134620Y0069620D01*
X0134620Y0073152D01*
X0135498Y0072789D01*
X0136843Y0072789D01*
X0137789Y0073181D01*
X0137789Y0072998D01*
X0138304Y0071755D01*
X0139255Y0070804D01*
X0140498Y0070289D01*
X0141843Y0070289D01*
X0143085Y0070804D01*
X0144036Y0071755D01*
X0144295Y0072379D01*
X0144554Y0071755D01*
X0145505Y0070804D01*
X0146748Y0070289D01*
X0146151Y0070536D02*
X0142439Y0070536D01*
X0144194Y0072134D02*
X0144396Y0072134D01*
X0139901Y0070536D02*
X0134620Y0070536D01*
X0134620Y0072134D02*
X0138146Y0072134D01*
X0148689Y0070536D02*
X0152402Y0070536D01*
X0152402Y0072134D02*
X0150444Y0072134D01*
X0150801Y0073733D02*
X0152471Y0073733D01*
X0153054Y0075332D02*
X0150392Y0075332D01*
X0149553Y0076930D02*
X0148970Y0076930D01*
X0154704Y0064142D02*
X0157637Y0064142D01*
X0156570Y0062543D02*
X0155770Y0062543D01*
X0155770Y0060945D02*
X0156570Y0060945D01*
X0156570Y0059346D02*
X0155770Y0059346D01*
X0154253Y0057748D02*
X0158087Y0057748D01*
X0158045Y0054551D02*
X0154295Y0054551D01*
X0155770Y0052952D02*
X0156570Y0052952D01*
X0156570Y0051354D02*
X0155770Y0051354D01*
X0155770Y0049755D02*
X0156570Y0049755D01*
X0157678Y0048157D02*
X0154662Y0048157D01*
X0166841Y0056149D02*
X0091951Y0056149D01*
X0092045Y0057748D02*
X0118087Y0057748D01*
X0116570Y0059346D02*
X0092045Y0059346D01*
X0092045Y0060945D02*
X0116570Y0060945D01*
X0116570Y0062543D02*
X0110691Y0062543D01*
X0111835Y0064142D02*
X0117637Y0064142D01*
X0119840Y0070536D02*
X0122385Y0070536D01*
X0112602Y0081726D02*
X0104007Y0081726D01*
X0104551Y0083324D02*
X0106993Y0083324D01*
X0105394Y0084923D02*
X0104311Y0084923D01*
X0104070Y0086521D02*
X0103101Y0086521D01*
X0104070Y0088120D02*
X0096845Y0088120D01*
X0096845Y0089718D02*
X0104070Y0089718D01*
X0104293Y0091317D02*
X0096041Y0091317D01*
X0093670Y0088670D02*
X0093670Y0086977D01*
X0093670Y0088670D02*
X0088670Y0093670D01*
X0082420Y0093670D01*
X0079920Y0096170D01*
X0079920Y0099920D01*
X0071170Y0108670D01*
X0068267Y0108670D01*
X0068188Y0108749D01*
X0068188Y0119517D01*
X0070064Y0123287D02*
X0071312Y0123287D01*
X0075064Y0123287D02*
X0076312Y0123287D01*
X0080064Y0123287D02*
X0080788Y0123287D01*
X0081491Y0124885D02*
X0003600Y0124885D01*
X0003600Y0123287D02*
X0056312Y0123287D01*
X0055338Y0121688D02*
X0003600Y0121688D01*
X0003600Y0120090D02*
X0055338Y0120090D01*
X0055338Y0118491D02*
X0003600Y0118491D01*
X0003600Y0116893D02*
X0055338Y0116893D01*
X0055788Y0115294D02*
X0003600Y0115294D01*
X0003600Y0113696D02*
X0055788Y0113696D01*
X0055788Y0112097D02*
X0003600Y0112097D01*
X0003600Y0110499D02*
X0056351Y0110499D01*
X0057949Y0108900D02*
X0003600Y0108900D01*
X0003600Y0107302D02*
X0058005Y0107302D01*
X0058490Y0105703D02*
X0003600Y0105703D01*
X0003600Y0104105D02*
X0059841Y0104105D01*
X0060737Y0102506D02*
X0061440Y0102506D01*
X0063670Y0103670D02*
X0061574Y0105767D01*
X0061574Y0108670D01*
X0058188Y0112056D01*
X0058188Y0119517D01*
X0060064Y0123287D02*
X0061312Y0123287D01*
X0065064Y0123287D02*
X0066312Y0123287D01*
X0080324Y0112824D02*
X0080324Y0108670D01*
X0080324Y0112824D02*
X0083188Y0115688D01*
X0083188Y0119517D01*
X0083188Y0123188D01*
X0087420Y0127420D01*
X0099920Y0127420D01*
X0108670Y0136170D01*
X0109074Y0136170D01*
X0105505Y0137673D02*
X0003600Y0137673D01*
X0003600Y0136075D02*
X0105181Y0136075D01*
X0103582Y0134476D02*
X0003600Y0134476D01*
X0003600Y0132878D02*
X0101984Y0132878D01*
X0100385Y0131279D02*
X0003600Y0131279D01*
X0003600Y0129681D02*
X0086607Y0129681D01*
X0084688Y0128082D02*
X0003600Y0128082D01*
X0003600Y0126484D02*
X0083090Y0126484D01*
X0093188Y0119517D02*
X0093188Y0113188D01*
X0092824Y0112824D01*
X0092824Y0108670D01*
X0087017Y0108670D01*
X0084920Y0100363D02*
X0093670Y0100363D01*
X0096613Y0100363D01*
X0097420Y0101170D01*
X0099170Y0104105D02*
X0104582Y0104105D01*
X0104070Y0102506D02*
X0100526Y0102506D01*
X0100801Y0100908D02*
X0104070Y0100908D01*
X0104070Y0099309D02*
X0100309Y0099309D01*
X0096845Y0097711D02*
X0105106Y0097711D01*
X0106705Y0096112D02*
X0096130Y0096112D01*
X0092819Y0092915D02*
X0105892Y0092915D01*
X0107491Y0094514D02*
X0091221Y0094514D01*
X0091210Y0096112D02*
X0087380Y0096112D01*
X0088095Y0097711D02*
X0090495Y0097711D01*
X0095907Y0105703D02*
X0096433Y0105703D01*
X0099517Y0108670D02*
X0099517Y0110767D01*
X0102420Y0113670D01*
X0109920Y0113670D01*
X0106417Y0108900D02*
X0103085Y0108900D01*
X0103085Y0107302D02*
X0112301Y0107302D01*
X0113423Y0108900D02*
X0122333Y0108900D01*
X0122333Y0108670D02*
X0127085Y0108670D01*
X0122333Y0108670D01*
X0122428Y0110499D02*
X0115022Y0110499D01*
X0117709Y0112097D02*
X0122333Y0112097D01*
X0127085Y0111820D02*
X0127085Y0111820D01*
X0127085Y0111454D01*
X0127085Y0108670D01*
X0127085Y0108670D01*
X0127085Y0108670D01*
X0127085Y0111820D01*
X0127085Y0110499D02*
X0127085Y0110499D01*
X0127085Y0108900D02*
X0127085Y0108900D01*
X0135870Y0108900D02*
X0148970Y0108900D01*
X0148970Y0107302D02*
X0135870Y0107302D01*
X0135870Y0105703D02*
X0148970Y0105703D01*
X0148970Y0104105D02*
X0135870Y0104105D01*
X0135870Y0110499D02*
X0148970Y0110499D01*
X0148970Y0112097D02*
X0135870Y0112097D01*
X0135870Y0113696D02*
X0148968Y0113696D01*
X0149677Y0115294D02*
X0135870Y0115294D01*
X0135870Y0116893D02*
X0151175Y0116893D01*
X0152673Y0118491D02*
X0135870Y0118491D01*
X0135870Y0120090D02*
X0154171Y0120090D01*
X0149620Y0121688D02*
X0147900Y0121688D01*
X0148970Y0123287D02*
X0149039Y0123287D01*
X0148970Y0124885D02*
X0149264Y0124885D01*
X0148970Y0126484D02*
X0150452Y0126484D01*
X0141702Y0126484D02*
X0135218Y0126484D01*
X0135870Y0124885D02*
X0140514Y0124885D01*
X0140289Y0123287D02*
X0135870Y0123287D01*
X0135870Y0121688D02*
X0140870Y0121688D01*
X0131588Y0131279D02*
X0130529Y0131279D01*
X0131313Y0132878D02*
X0131588Y0132878D01*
X0131588Y0134476D02*
X0131313Y0134476D01*
X0131313Y0136075D02*
X0131972Y0136075D01*
X0131972Y0137673D02*
X0130924Y0137673D01*
X0131972Y0139272D02*
X0122120Y0139272D01*
X0122120Y0140870D02*
X0133281Y0140870D01*
X0134930Y0142469D02*
X0122120Y0142469D01*
X0119920Y0144920D02*
X0115767Y0144920D01*
X0118006Y0148863D02*
X0095386Y0148863D01*
X0094734Y0148212D02*
X0096038Y0149515D01*
X0096038Y0152239D01*
X0096070Y0152317D01*
X0096070Y0153926D01*
X0102433Y0160289D01*
X0103093Y0160289D01*
X0104335Y0160804D01*
X0105286Y0161755D01*
X0105801Y0162998D01*
X0105801Y0164343D01*
X0105286Y0165585D01*
X0104335Y0166536D01*
X0103093Y0167051D01*
X0101748Y0167051D01*
X0100505Y0166536D01*
X0099554Y0165585D01*
X0099039Y0164343D01*
X0099039Y0163683D01*
X0092311Y0156955D01*
X0091768Y0156412D01*
X0091641Y0156412D01*
X0090688Y0155458D01*
X0089734Y0156412D01*
X0086641Y0156412D01*
X0085688Y0155458D01*
X0085588Y0155558D01*
X0085588Y0155806D01*
X0086536Y0156755D01*
X0087051Y0157998D01*
X0087051Y0159343D01*
X0086536Y0160585D01*
X0085852Y0161270D01*
X0086288Y0161270D01*
X0086755Y0160804D01*
X0087998Y0160289D01*
X0089343Y0160289D01*
X0090585Y0160804D01*
X0091536Y0161755D01*
X0092051Y0162998D01*
X0092051Y0164343D01*
X0091536Y0165585D01*
X0090585Y0166536D01*
X0089343Y0167051D01*
X0087998Y0167051D01*
X0086755Y0166536D01*
X0086288Y0166070D01*
X0073193Y0166070D01*
X0072311Y0165705D01*
X0066153Y0159547D01*
X0065788Y0158665D01*
X0065788Y0155558D01*
X0065688Y0155458D01*
X0064734Y0156412D01*
X0061641Y0156412D01*
X0060688Y0155458D01*
X0060588Y0155558D01*
X0060588Y0158444D01*
X0063414Y0161270D01*
X0066647Y0161270D01*
X0067530Y0161635D01*
X0068205Y0162311D01*
X0070705Y0164811D01*
X0071070Y0165693D01*
X0071070Y0167618D01*
X0071206Y0167482D01*
X0072805Y0166820D01*
X0074535Y0166820D01*
X0076134Y0167482D01*
X0077358Y0168706D01*
X0078020Y0170305D01*
X0078020Y0172035D01*
X0077358Y0173634D01*
X0077222Y0173770D01*
X0080118Y0173770D01*
X0079982Y0173634D01*
X0079320Y0172035D01*
X0079320Y0170305D01*
X0079982Y0168706D01*
X0081206Y0167482D01*
X0082805Y0166820D01*
X0084535Y0166820D01*
X0086134Y0167482D01*
X0087358Y0168706D01*
X0088020Y0170305D01*
X0088020Y0172035D01*
X0087358Y0173634D01*
X0087222Y0173770D01*
X0090118Y0173770D01*
X0089982Y0173634D01*
X0089320Y0172035D01*
X0089320Y0170305D01*
X0089982Y0168706D01*
X0091206Y0167482D01*
X0092805Y0166820D01*
X0094535Y0166820D01*
X0096134Y0167482D01*
X0097358Y0168706D01*
X0098020Y0170305D01*
X0098020Y0172035D01*
X0097358Y0173634D01*
X0096568Y0174424D01*
X0096955Y0174811D01*
X0098964Y0176820D01*
X0099535Y0176820D01*
X0101134Y0177482D01*
X0102358Y0178706D01*
X0103020Y0180305D01*
X0103020Y0182035D01*
X0102358Y0183634D01*
X0101134Y0184858D01*
X0099535Y0185520D01*
X0097805Y0185520D01*
X0096206Y0184858D01*
X0094982Y0183634D01*
X0094320Y0182035D01*
X0094320Y0180305D01*
X0094713Y0179357D01*
X0093926Y0178570D01*
X0092222Y0178570D01*
X0092358Y0178706D01*
X0093020Y0180305D01*
X0093020Y0182035D01*
X0092358Y0183634D01*
X0091134Y0184858D01*
X0089535Y0185520D01*
X0087805Y0185520D01*
X0086206Y0184858D01*
X0084982Y0183634D01*
X0084320Y0182035D01*
X0084320Y0180305D01*
X0084982Y0178706D01*
X0085118Y0178570D01*
X0082222Y0178570D01*
X0082358Y0178706D01*
X0083020Y0180305D01*
X0083020Y0182035D01*
X0082358Y0183634D01*
X0081134Y0184858D01*
X0079535Y0185520D01*
X0077805Y0185520D01*
X0076206Y0184858D01*
X0074982Y0183634D01*
X0074320Y0182035D01*
X0074320Y0180305D01*
X0074982Y0178706D01*
X0075118Y0178570D01*
X0072222Y0178570D01*
X0072358Y0178706D01*
X0073020Y0180305D01*
X0073020Y0182035D01*
X0072358Y0183634D01*
X0071134Y0184858D01*
X0069535Y0185520D01*
X0067805Y0185520D01*
X0066206Y0184858D01*
X0064982Y0183634D01*
X0064320Y0182035D01*
X0064320Y0180305D01*
X0064982Y0178706D01*
X0066206Y0177482D01*
X0067805Y0176820D01*
X0068426Y0176820D01*
X0067311Y0175705D01*
X0066635Y0175030D01*
X0066438Y0174554D01*
X0066134Y0174858D01*
X0064535Y0175520D01*
X0062805Y0175520D01*
X0061206Y0174858D01*
X0059982Y0173634D01*
X0059320Y0172035D01*
X0059320Y0170305D01*
X0059982Y0168706D01*
X0061206Y0167482D01*
X0062805Y0166820D01*
X0064535Y0166820D01*
X0066134Y0167482D01*
X0066270Y0167618D01*
X0066270Y0167164D01*
X0065176Y0166070D01*
X0061943Y0166070D01*
X0061061Y0165705D01*
X0056828Y0161472D01*
X0056153Y0160797D01*
X0055788Y0159915D01*
X0055788Y0155558D01*
X0055338Y0155108D01*
X0055338Y0149515D01*
X0056641Y0148212D01*
X0059734Y0148212D01*
X0060688Y0149165D01*
X0061641Y0148212D01*
X0064734Y0148212D01*
X0065688Y0149165D01*
X0066641Y0148212D01*
X0069734Y0148212D01*
X0070688Y0149165D01*
X0071641Y0148212D01*
X0074734Y0148212D01*
X0075688Y0149165D01*
X0076641Y0148212D01*
X0079734Y0148212D01*
X0080688Y0149165D01*
X0081641Y0148212D01*
X0084734Y0148212D01*
X0085688Y0149165D01*
X0086641Y0148212D01*
X0089734Y0148212D01*
X0090688Y0149165D01*
X0091641Y0148212D01*
X0094734Y0148212D01*
X0096038Y0150462D02*
X0121212Y0150462D01*
X0131128Y0150462D02*
X0135208Y0150462D01*
X0134669Y0148863D02*
X0131313Y0148863D01*
X0131313Y0147265D02*
X0134669Y0147265D01*
X0135003Y0145666D02*
X0131313Y0145666D01*
X0130325Y0144068D02*
X0135840Y0144068D01*
X0140872Y0150462D02*
X0141079Y0150462D01*
X0146025Y0150462D02*
X0146197Y0150462D01*
X0148070Y0153659D02*
X0096070Y0153659D01*
X0096038Y0152060D02*
X0149669Y0152060D01*
X0151143Y0150462D02*
X0151315Y0150462D01*
X0146472Y0155257D02*
X0097401Y0155257D01*
X0099000Y0156856D02*
X0134948Y0156856D01*
X0134923Y0156881D02*
X0135346Y0156458D01*
X0135864Y0156159D01*
X0136442Y0156004D01*
X0138040Y0156004D01*
X0138040Y0159379D01*
X0134469Y0159379D01*
X0134469Y0157977D01*
X0134623Y0157399D01*
X0134923Y0156881D01*
X0134469Y0158454D02*
X0100598Y0158454D01*
X0102197Y0160053D02*
X0134469Y0160053D01*
X0134792Y0161651D02*
X0105183Y0161651D01*
X0105801Y0163250D02*
X0140702Y0163250D01*
X0140289Y0164848D02*
X0105592Y0164848D01*
X0104425Y0166447D02*
X0140643Y0166447D01*
X0141134Y0167482D02*
X0139535Y0166820D01*
X0137805Y0166820D01*
X0136206Y0167482D01*
X0134982Y0168706D01*
X0134320Y0170305D01*
X0134320Y0172035D01*
X0134982Y0173634D01*
X0136206Y0174858D01*
X0137805Y0175520D01*
X0139535Y0175520D01*
X0141134Y0174858D01*
X0142358Y0173634D01*
X0143020Y0172035D01*
X0143020Y0170305D01*
X0142358Y0168706D01*
X0141134Y0167482D01*
X0141697Y0168045D02*
X0142380Y0168045D01*
X0142746Y0169644D02*
X0144594Y0169644D01*
X0144320Y0171242D02*
X0143020Y0171242D01*
X0142686Y0172841D02*
X0144654Y0172841D01*
X0145787Y0174439D02*
X0141553Y0174439D01*
X0142805Y0176820D02*
X0141206Y0177482D01*
X0139982Y0178706D01*
X0139320Y0180305D01*
X0139320Y0182035D01*
X0139982Y0183634D01*
X0141206Y0184858D01*
X0142805Y0185520D01*
X0144535Y0185520D01*
X0146134Y0184858D01*
X0147358Y0183634D01*
X0148020Y0182035D01*
X0148020Y0180305D01*
X0147358Y0178706D01*
X0146134Y0177482D01*
X0144535Y0176820D01*
X0142805Y0176820D01*
X0141052Y0177636D02*
X0136288Y0177636D01*
X0136134Y0177482D02*
X0137358Y0178706D01*
X0138020Y0180305D01*
X0138020Y0182035D01*
X0137358Y0183634D01*
X0136134Y0184858D01*
X0134535Y0185520D01*
X0132805Y0185520D01*
X0131206Y0184858D01*
X0129982Y0183634D01*
X0129320Y0182035D01*
X0129320Y0180305D01*
X0129982Y0178706D01*
X0131206Y0177482D01*
X0132805Y0176820D01*
X0134535Y0176820D01*
X0136134Y0177482D01*
X0137577Y0179235D02*
X0139763Y0179235D01*
X0139320Y0180833D02*
X0138020Y0180833D01*
X0137856Y0182432D02*
X0139484Y0182432D01*
X0140378Y0184030D02*
X0136962Y0184030D01*
X0130378Y0184030D02*
X0126962Y0184030D01*
X0127358Y0183634D02*
X0126134Y0184858D01*
X0124535Y0185520D01*
X0122805Y0185520D01*
X0121206Y0184858D01*
X0119982Y0183634D01*
X0119320Y0182035D01*
X0119320Y0180305D01*
X0119982Y0178706D01*
X0121206Y0177482D01*
X0122805Y0176820D01*
X0124535Y0176820D01*
X0126134Y0177482D01*
X0127358Y0178706D01*
X0128020Y0180305D01*
X0128020Y0182035D01*
X0127358Y0183634D01*
X0127856Y0182432D02*
X0129484Y0182432D01*
X0129320Y0180833D02*
X0128020Y0180833D01*
X0127577Y0179235D02*
X0129763Y0179235D01*
X0131052Y0177636D02*
X0126288Y0177636D01*
X0127805Y0175520D02*
X0126206Y0174858D01*
X0124982Y0173634D01*
X0124320Y0172035D01*
X0124320Y0170305D01*
X0124982Y0168706D01*
X0126206Y0167482D01*
X0127805Y0166820D01*
X0129535Y0166820D01*
X0131134Y0167482D01*
X0132358Y0168706D01*
X0133020Y0170305D01*
X0133020Y0172035D01*
X0132358Y0173634D01*
X0131134Y0174858D01*
X0129535Y0175520D01*
X0127805Y0175520D01*
X0125787Y0174439D02*
X0121553Y0174439D01*
X0121134Y0174858D02*
X0119535Y0175520D01*
X0117805Y0175520D01*
X0116206Y0174858D01*
X0114982Y0173634D01*
X0114320Y0172035D01*
X0114320Y0170305D01*
X0114982Y0168706D01*
X0116206Y0167482D01*
X0117805Y0166820D01*
X0119535Y0166820D01*
X0121134Y0167482D01*
X0122358Y0168706D01*
X0123020Y0170305D01*
X0123020Y0172035D01*
X0122358Y0173634D01*
X0121134Y0174858D01*
X0122686Y0172841D02*
X0124654Y0172841D01*
X0124320Y0171242D02*
X0123020Y0171242D01*
X0122746Y0169644D02*
X0124594Y0169644D01*
X0125643Y0168045D02*
X0121697Y0168045D01*
X0115643Y0168045D02*
X0096697Y0168045D01*
X0097746Y0169644D02*
X0114594Y0169644D01*
X0114320Y0171242D02*
X0098020Y0171242D01*
X0097686Y0172841D02*
X0114654Y0172841D01*
X0115787Y0174439D02*
X0096583Y0174439D01*
X0098182Y0176038D02*
X0190183Y0176038D01*
X0191470Y0174439D02*
X0151553Y0174439D01*
X0152686Y0172841D02*
X0191470Y0172841D01*
X0191470Y0171242D02*
X0153020Y0171242D01*
X0152746Y0169644D02*
X0191470Y0169644D01*
X0191470Y0168045D02*
X0153711Y0168045D01*
X0149393Y0166447D02*
X0146697Y0166447D01*
X0147051Y0164848D02*
X0149039Y0164848D01*
X0149452Y0163250D02*
X0146638Y0163250D01*
X0145643Y0168045D02*
X0144961Y0168045D01*
X0138040Y0161651D02*
X0138040Y0161651D01*
X0138040Y0160053D02*
X0138040Y0160053D01*
X0138040Y0159379D02*
X0138040Y0159379D01*
X0138040Y0158454D02*
X0138040Y0158454D01*
X0138040Y0156856D02*
X0138040Y0156856D01*
X0146002Y0156856D02*
X0146220Y0156856D01*
X0135643Y0168045D02*
X0131697Y0168045D01*
X0132746Y0169644D02*
X0134594Y0169644D01*
X0134320Y0171242D02*
X0133020Y0171242D01*
X0132686Y0172841D02*
X0134654Y0172841D01*
X0135787Y0174439D02*
X0131553Y0174439D01*
X0121052Y0177636D02*
X0101288Y0177636D01*
X0102577Y0179235D02*
X0119763Y0179235D01*
X0119320Y0180833D02*
X0103020Y0180833D01*
X0102856Y0182432D02*
X0119484Y0182432D01*
X0120378Y0184030D02*
X0101962Y0184030D01*
X0098670Y0181170D02*
X0098670Y0179920D01*
X0094920Y0176170D01*
X0071170Y0176170D01*
X0068670Y0173670D01*
X0068670Y0166170D01*
X0066170Y0163670D01*
X0062420Y0163670D01*
X0058188Y0159438D01*
X0058188Y0152312D01*
X0055338Y0152060D02*
X0003600Y0152060D01*
X0003600Y0150462D02*
X0055338Y0150462D01*
X0055990Y0148863D02*
X0003600Y0148863D01*
X0003600Y0147265D02*
X0105312Y0147265D01*
X0105108Y0145666D02*
X0003600Y0145666D01*
X0003600Y0144068D02*
X0105108Y0144068D01*
X0105356Y0142469D02*
X0003600Y0142469D01*
X0003600Y0140870D02*
X0117720Y0140870D01*
X0115767Y0136170D02*
X0115767Y0132017D01*
X0109920Y0126170D01*
X0112022Y0139272D02*
X0112818Y0139272D01*
X0109258Y0142469D02*
X0108889Y0142469D01*
X0108889Y0144068D02*
X0109258Y0144068D01*
X0109258Y0145666D02*
X0108889Y0145666D01*
X0108889Y0147265D02*
X0109258Y0147265D01*
X0106125Y0139272D02*
X0003600Y0139272D01*
X0003600Y0153659D02*
X0055338Y0153659D01*
X0055486Y0155257D02*
X0003600Y0155257D01*
X0003600Y0156856D02*
X0055788Y0156856D01*
X0055788Y0158454D02*
X0003600Y0158454D01*
X0003600Y0160053D02*
X0055845Y0160053D01*
X0057007Y0161651D02*
X0003600Y0161651D01*
X0003600Y0163250D02*
X0058606Y0163250D01*
X0060204Y0164848D02*
X0003600Y0164848D01*
X0003600Y0166447D02*
X0065553Y0166447D01*
X0069144Y0163250D02*
X0069856Y0163250D01*
X0070720Y0164848D02*
X0071454Y0164848D01*
X0071070Y0166447D02*
X0086665Y0166447D01*
X0086697Y0168045D02*
X0090643Y0168045D01*
X0090675Y0166447D02*
X0100415Y0166447D01*
X0099248Y0164848D02*
X0091842Y0164848D01*
X0092051Y0163250D02*
X0098606Y0163250D01*
X0097007Y0161651D02*
X0091433Y0161651D01*
X0088670Y0163670D02*
X0073670Y0163670D01*
X0068188Y0158188D01*
X0068188Y0152312D01*
X0070688Y0155458D02*
X0070588Y0155558D01*
X0070588Y0157194D01*
X0074664Y0161270D01*
X0081488Y0161270D01*
X0080804Y0160585D01*
X0080289Y0159343D01*
X0080289Y0157998D01*
X0080788Y0156793D01*
X0080788Y0155558D01*
X0080688Y0155458D01*
X0079734Y0156412D01*
X0076641Y0156412D01*
X0075688Y0155458D01*
X0074734Y0156412D01*
X0071641Y0156412D01*
X0070688Y0155458D01*
X0070588Y0156856D02*
X0080762Y0156856D01*
X0080289Y0158454D02*
X0071848Y0158454D01*
X0073447Y0160053D02*
X0080583Y0160053D01*
X0083188Y0158188D02*
X0083670Y0158670D01*
X0083188Y0158188D02*
X0083188Y0152312D01*
X0085386Y0148863D02*
X0085990Y0148863D01*
X0080990Y0148863D02*
X0080386Y0148863D01*
X0075990Y0148863D02*
X0075386Y0148863D01*
X0070990Y0148863D02*
X0070386Y0148863D01*
X0065990Y0148863D02*
X0065386Y0148863D01*
X0060990Y0148863D02*
X0060386Y0148863D01*
X0060588Y0156856D02*
X0065788Y0156856D01*
X0065788Y0158454D02*
X0060598Y0158454D01*
X0062197Y0160053D02*
X0066659Y0160053D01*
X0067545Y0161651D02*
X0068257Y0161651D01*
X0060643Y0168045D02*
X0003600Y0168045D01*
X0003600Y0169644D02*
X0059594Y0169644D01*
X0059320Y0171242D02*
X0003600Y0171242D01*
X0003600Y0172841D02*
X0059654Y0172841D01*
X0060787Y0174439D02*
X0003600Y0174439D01*
X0003600Y0176038D02*
X0067644Y0176038D01*
X0066052Y0177636D02*
X0003600Y0177636D01*
X0003600Y0179235D02*
X0064763Y0179235D01*
X0064320Y0180833D02*
X0003600Y0180833D01*
X0003600Y0182432D02*
X0064484Y0182432D01*
X0065378Y0184030D02*
X0003600Y0184030D01*
X0003600Y0185629D02*
X0188967Y0185629D01*
X0188133Y0184030D02*
X0156962Y0184030D01*
X0157358Y0183634D02*
X0156134Y0184858D01*
X0154535Y0185520D01*
X0152805Y0185520D01*
X0151206Y0184858D01*
X0149982Y0183634D01*
X0149320Y0182035D01*
X0149320Y0180305D01*
X0149982Y0178706D01*
X0151206Y0177482D01*
X0152805Y0176820D01*
X0154535Y0176820D01*
X0156134Y0177482D01*
X0157358Y0178706D01*
X0158020Y0180305D01*
X0158020Y0182035D01*
X0157358Y0183634D01*
X0157856Y0182432D02*
X0188133Y0182432D01*
X0188133Y0180833D02*
X0158020Y0180833D01*
X0157577Y0179235D02*
X0188133Y0179235D01*
X0188327Y0177636D02*
X0156288Y0177636D01*
X0151052Y0177636D02*
X0146288Y0177636D01*
X0147577Y0179235D02*
X0149763Y0179235D01*
X0149320Y0180833D02*
X0148020Y0180833D01*
X0147856Y0182432D02*
X0149484Y0182432D01*
X0150378Y0184030D02*
X0146962Y0184030D01*
X0160885Y0166447D02*
X0191532Y0166447D01*
X0188386Y0164848D02*
X0172588Y0164848D01*
X0170508Y0164848D02*
X0170139Y0164848D01*
X0170139Y0163250D02*
X0170508Y0163250D01*
X0170508Y0161651D02*
X0170139Y0161651D01*
X0170139Y0160053D02*
X0170508Y0160053D01*
X0170508Y0158454D02*
X0170139Y0158454D01*
X0167346Y0156856D02*
X0174817Y0156856D01*
X0174817Y0155257D02*
X0168944Y0155257D01*
X0170543Y0153659D02*
X0174817Y0153659D01*
X0174817Y0152060D02*
X0170870Y0152060D01*
X0170870Y0150462D02*
X0174817Y0150462D01*
X0174817Y0148863D02*
X0170870Y0148863D01*
X0170870Y0147265D02*
X0174817Y0147265D01*
X0174817Y0145666D02*
X0170870Y0145666D01*
X0170870Y0144068D02*
X0174817Y0144068D01*
X0174817Y0142469D02*
X0170580Y0142469D01*
X0168982Y0140870D02*
X0174817Y0140870D01*
X0174817Y0139272D02*
X0167383Y0139272D01*
X0166793Y0137673D02*
X0165785Y0137673D01*
X0166358Y0136075D02*
X0164186Y0136075D01*
X0170139Y0136075D02*
X0170508Y0136075D01*
X0170508Y0134736D02*
X0170508Y0131152D01*
X0172134Y0131152D01*
X0172596Y0131243D01*
X0173031Y0131424D01*
X0173422Y0131685D01*
X0173755Y0132018D01*
X0173800Y0132086D01*
X0174534Y0131352D01*
X0179499Y0131352D01*
X0180782Y0132635D01*
X0180782Y0132720D01*
X0185220Y0132720D01*
X0185220Y0117169D01*
X0177307Y0117169D01*
X0177307Y0118075D01*
X0177998Y0117789D01*
X0179343Y0117789D01*
X0180585Y0118304D01*
X0181536Y0119255D01*
X0182051Y0120498D01*
X0182051Y0121843D01*
X0181536Y0123085D01*
X0180585Y0124036D01*
X0179343Y0124551D01*
X0177998Y0124551D01*
X0177507Y0124348D01*
X0177507Y0124418D01*
X0172755Y0124418D01*
X0172755Y0124418D01*
X0177507Y0124418D01*
X0177507Y0125383D01*
X0177365Y0125916D01*
X0177089Y0126394D01*
X0176699Y0126784D01*
X0176221Y0127060D01*
X0175688Y0127202D01*
X0172755Y0127202D01*
X0172755Y0124418D01*
X0172755Y0124418D01*
X0168002Y0124418D01*
X0168002Y0123453D01*
X0168145Y0122920D01*
X0168231Y0122771D01*
X0168202Y0122743D01*
X0168202Y0120319D01*
X0167868Y0120319D01*
X0167868Y0127678D01*
X0168252Y0128062D01*
X0168252Y0131203D01*
X0168513Y0131152D01*
X0170139Y0131152D01*
X0170139Y0134736D01*
X0170508Y0134736D01*
X0170508Y0134476D02*
X0170139Y0134476D01*
X0170139Y0132878D02*
X0170508Y0132878D01*
X0170508Y0131279D02*
X0170139Y0131279D01*
X0168252Y0129681D02*
X0185220Y0129681D01*
X0185220Y0131279D02*
X0172683Y0131279D01*
X0172755Y0127202D02*
X0169821Y0127202D01*
X0169288Y0127060D01*
X0168811Y0126784D01*
X0168421Y0126394D01*
X0168145Y0125916D01*
X0168002Y0125383D01*
X0168002Y0124418D01*
X0172755Y0124418D01*
X0172755Y0124418D01*
X0172755Y0127202D01*
X0172755Y0126484D02*
X0172755Y0126484D01*
X0172755Y0124885D02*
X0172755Y0124885D01*
X0168511Y0126484D02*
X0167868Y0126484D01*
X0167868Y0124885D02*
X0168002Y0124885D01*
X0168047Y0123287D02*
X0167868Y0123287D01*
X0167868Y0121688D02*
X0168202Y0121688D01*
X0168252Y0128082D02*
X0185220Y0128082D01*
X0185220Y0126484D02*
X0176999Y0126484D01*
X0177507Y0124885D02*
X0185220Y0124885D01*
X0185220Y0123287D02*
X0181335Y0123287D01*
X0182051Y0121688D02*
X0185220Y0121688D01*
X0185220Y0120090D02*
X0181882Y0120090D01*
X0180773Y0118491D02*
X0185220Y0118491D01*
X0189620Y0118491D02*
X0192738Y0118491D01*
X0191470Y0120090D02*
X0189620Y0120090D01*
X0189620Y0121688D02*
X0191470Y0121688D01*
X0198699Y0123287D02*
X0205177Y0123287D01*
X0204669Y0124885D02*
X0199207Y0124885D01*
X0199207Y0126484D02*
X0204669Y0126484D01*
X0204669Y0128082D02*
X0199207Y0128082D01*
X0199207Y0129681D02*
X0204669Y0129681D01*
X0204997Y0131279D02*
X0198879Y0131279D01*
X0207520Y0132878D02*
X0189620Y0132878D01*
X0189620Y0134476D02*
X0207520Y0134476D01*
X0207520Y0136075D02*
X0189376Y0136075D01*
X0187405Y0139272D02*
X0206539Y0139272D01*
X0206654Y0140870D02*
X0189188Y0140870D01*
X0189551Y0142469D02*
X0189746Y0142469D01*
X0185171Y0145666D02*
X0179217Y0145666D01*
X0179217Y0144068D02*
X0183193Y0144068D01*
X0182789Y0142469D02*
X0179217Y0142469D01*
X0179217Y0140870D02*
X0183152Y0140870D01*
X0184935Y0139272D02*
X0179217Y0139272D01*
X0180314Y0137673D02*
X0207385Y0137673D01*
X0209920Y0139920D02*
X0209920Y0127706D01*
X0209921Y0127706D02*
X0209923Y0127674D01*
X0209928Y0127643D01*
X0209937Y0127612D01*
X0209949Y0127582D01*
X0209965Y0127554D01*
X0209983Y0127528D01*
X0210004Y0127504D01*
X0210028Y0127483D01*
X0210054Y0127465D01*
X0210082Y0127449D01*
X0210112Y0127437D01*
X0210143Y0127428D01*
X0210174Y0127423D01*
X0210206Y0127421D01*
X0219920Y0132420D02*
X0232420Y0132420D01*
X0232420Y0067420D01*
X0179920Y0067420D01*
X0171170Y0059170D01*
X0197229Y0080127D02*
X0197588Y0080127D01*
X0203724Y0086521D02*
X0203817Y0086521D01*
X0210216Y0086521D02*
X0210815Y0086521D01*
X0211507Y0080127D02*
X0209524Y0080127D01*
X0209807Y0076930D02*
X0211224Y0076930D01*
X0211098Y0070536D02*
X0209933Y0070536D01*
X0204100Y0070536D02*
X0203240Y0070536D01*
X0204704Y0064142D02*
X0207637Y0064142D01*
X0206570Y0062543D02*
X0205770Y0062543D01*
X0205770Y0060945D02*
X0206570Y0060945D01*
X0206570Y0059346D02*
X0205770Y0059346D01*
X0204253Y0057748D02*
X0208087Y0057748D01*
X0209265Y0055770D02*
X0206570Y0053075D01*
X0206570Y0049265D01*
X0209265Y0046570D01*
X0213075Y0046570D01*
X0215770Y0049265D01*
X0215770Y0053075D01*
X0213075Y0055770D01*
X0209265Y0055770D01*
X0208045Y0054551D02*
X0204295Y0054551D01*
X0205770Y0052952D02*
X0206570Y0052952D01*
X0206570Y0051354D02*
X0205770Y0051354D01*
X0205770Y0049755D02*
X0206570Y0049755D01*
X0207678Y0048157D02*
X0204662Y0048157D01*
X0214662Y0048157D02*
X0217678Y0048157D01*
X0216570Y0049755D02*
X0215770Y0049755D01*
X0215770Y0051354D02*
X0216570Y0051354D01*
X0216570Y0052952D02*
X0215770Y0052952D01*
X0214295Y0054551D02*
X0218045Y0054551D01*
X0218087Y0057748D02*
X0214253Y0057748D01*
X0215770Y0059346D02*
X0216570Y0059346D01*
X0216570Y0060945D02*
X0215770Y0060945D01*
X0215770Y0062543D02*
X0216570Y0062543D01*
X0217637Y0064142D02*
X0214704Y0064142D01*
X0217974Y0070536D02*
X0219366Y0070536D01*
X0218842Y0072134D02*
X0218498Y0072134D01*
X0218498Y0073733D02*
X0218842Y0073733D01*
X0218842Y0075332D02*
X0218498Y0075332D01*
X0217848Y0076930D02*
X0219492Y0076930D01*
X0225770Y0052952D02*
X0275591Y0052952D01*
X0275591Y0051354D02*
X0225770Y0051354D01*
X0225770Y0049755D02*
X0275591Y0049755D01*
X0275591Y0048157D02*
X0224662Y0048157D01*
X0275591Y0043361D02*
X0003600Y0043361D01*
X0003600Y0041763D02*
X0275591Y0041763D01*
X0275591Y0040164D02*
X0003600Y0040164D01*
X0003600Y0038566D02*
X0275591Y0038566D01*
X0275591Y0036967D02*
X0003600Y0036967D01*
X0003600Y0035369D02*
X0275591Y0035369D01*
X0275591Y0033770D02*
X0003600Y0033770D01*
X0003600Y0032172D02*
X0275591Y0032172D01*
X0275591Y0030573D02*
X0003600Y0030573D01*
X0003600Y0028975D02*
X0275591Y0028975D01*
X0275591Y0027376D02*
X0003600Y0027376D01*
X0003600Y0025778D02*
X0275591Y0025778D01*
X0275591Y0024179D02*
X0003600Y0024179D01*
X0003600Y0022581D02*
X0275591Y0022581D01*
X0275591Y0020982D02*
X0003600Y0020982D01*
X0003600Y0019384D02*
X0275591Y0019384D01*
X0275591Y0017785D02*
X0003600Y0017785D01*
X0003600Y0016187D02*
X0275591Y0016187D01*
X0275591Y0014588D02*
X0003600Y0014588D01*
X0003600Y0012990D02*
X0275591Y0012990D01*
X0275591Y0011391D02*
X0003600Y0011391D01*
X0003600Y0009793D02*
X0275591Y0009793D01*
X0275591Y0008194D02*
X0003600Y0008194D01*
X0003600Y0006596D02*
X0275591Y0006596D01*
X0275591Y0004997D02*
X0003600Y0004997D01*
X0003600Y0048157D02*
X0117395Y0048157D01*
X0116370Y0049755D02*
X0003600Y0049755D01*
X0003600Y0076930D02*
X0050731Y0076930D01*
X0050289Y0078529D02*
X0003600Y0078529D01*
X0003600Y0080127D02*
X0050614Y0080127D01*
X0052211Y0081726D02*
X0003600Y0081726D01*
X0003600Y0083324D02*
X0055495Y0083324D01*
X0055495Y0081726D02*
X0055129Y0081726D01*
X0055495Y0084923D02*
X0003600Y0084923D01*
X0003600Y0086521D02*
X0055495Y0086521D01*
X0055602Y0088120D02*
X0003600Y0088120D01*
X0003600Y0089718D02*
X0061270Y0089718D01*
X0061270Y0091317D02*
X0003600Y0091317D01*
X0003600Y0092915D02*
X0061270Y0092915D01*
X0058670Y0097863D02*
X0068670Y0097863D01*
X0056603Y0102506D02*
X0003600Y0102506D01*
X0003600Y0100908D02*
X0055495Y0100908D01*
X0055495Y0099309D02*
X0003600Y0099309D01*
X0003600Y0097711D02*
X0055495Y0097711D01*
X0055495Y0096112D02*
X0003600Y0096112D01*
X0003600Y0094514D02*
X0055495Y0094514D01*
X0068670Y0084477D02*
X0068670Y0077420D01*
X0065495Y0073733D02*
X0061845Y0073733D01*
X0078670Y0059346D02*
X0078670Y0059346D01*
X0078670Y0057748D02*
X0078670Y0057748D01*
X0078670Y0056149D02*
X0078670Y0056149D01*
X0081951Y0056149D02*
X0085389Y0056149D01*
X0085295Y0057748D02*
X0082045Y0057748D01*
X0082045Y0059346D02*
X0085295Y0059346D01*
X0085295Y0060945D02*
X0082045Y0060945D01*
X0082021Y0062543D02*
X0085319Y0062543D01*
X0088670Y0059346D02*
X0088670Y0059346D01*
X0088670Y0057748D02*
X0088670Y0057748D01*
X0088670Y0056149D02*
X0088670Y0056149D01*
X0092021Y0062543D02*
X0099150Y0062543D01*
X0103998Y0062543D02*
X0105843Y0062543D01*
X0104983Y0068937D02*
X0104857Y0068937D01*
X0098290Y0068937D02*
X0091455Y0068937D01*
X0097520Y0086521D02*
X0099240Y0086521D01*
X0112847Y0083324D02*
X0113970Y0083324D01*
X0113948Y0092915D02*
X0113970Y0092915D01*
X0113970Y0094514D02*
X0112350Y0094514D01*
X0113135Y0096112D02*
X0113970Y0096112D01*
X0106180Y0105703D02*
X0102600Y0105703D01*
X0103085Y0110499D02*
X0104818Y0110499D01*
X0090990Y0148863D02*
X0090386Y0148863D01*
X0093188Y0152312D02*
X0093670Y0152794D01*
X0093670Y0154920D01*
X0102420Y0163670D01*
X0095409Y0160053D02*
X0086757Y0160053D01*
X0087051Y0158454D02*
X0093810Y0158454D01*
X0092212Y0156856D02*
X0086578Y0156856D01*
X0080643Y0168045D02*
X0076697Y0168045D01*
X0077746Y0169644D02*
X0079594Y0169644D01*
X0079320Y0171242D02*
X0078020Y0171242D01*
X0077686Y0172841D02*
X0079654Y0172841D01*
X0082577Y0179235D02*
X0084763Y0179235D01*
X0084320Y0180833D02*
X0083020Y0180833D01*
X0082856Y0182432D02*
X0084484Y0182432D01*
X0085378Y0184030D02*
X0081962Y0184030D01*
X0075378Y0184030D02*
X0071962Y0184030D01*
X0072856Y0182432D02*
X0074484Y0182432D01*
X0074320Y0180833D02*
X0073020Y0180833D01*
X0072577Y0179235D02*
X0074763Y0179235D01*
X0087686Y0172841D02*
X0089654Y0172841D01*
X0089320Y0171242D02*
X0088020Y0171242D01*
X0087746Y0169644D02*
X0089594Y0169644D01*
X0092577Y0179235D02*
X0094591Y0179235D01*
X0094320Y0180833D02*
X0093020Y0180833D01*
X0092856Y0182432D02*
X0094484Y0182432D01*
X0095378Y0184030D02*
X0091962Y0184030D01*
X0055960Y0198417D02*
X0003600Y0198417D01*
X0003600Y0200015D02*
X0053228Y0200015D01*
X0051682Y0201614D02*
X0003600Y0201614D01*
X0003600Y0203212D02*
X0051020Y0203212D01*
X0050470Y0204811D02*
X0003600Y0204811D01*
X0003600Y0206409D02*
X0050470Y0206409D01*
X0050556Y0208008D02*
X0003600Y0208008D01*
X0003600Y0209606D02*
X0051218Y0209606D01*
X0052108Y0211205D02*
X0003600Y0211205D01*
X0003600Y0212803D02*
X0053707Y0212803D01*
X0003600Y0187227D02*
X0210020Y0187227D01*
X0209406Y0185629D02*
X0210817Y0185629D01*
X0211005Y0184030D02*
X0209406Y0184030D01*
X0209406Y0182432D02*
X0211005Y0182432D01*
X0215943Y0182432D02*
X0275591Y0182432D01*
X0275591Y0184030D02*
X0215936Y0184030D01*
X0204469Y0179235D02*
X0199207Y0179235D01*
X0199014Y0177636D02*
X0204645Y0177636D01*
X0206196Y0176038D02*
X0197157Y0176038D01*
X0195870Y0171242D02*
X0207806Y0171242D01*
X0207806Y0169644D02*
X0195870Y0169644D01*
X0202120Y0168045D02*
X0207806Y0168045D01*
X0207806Y0166447D02*
X0202120Y0166447D01*
X0202120Y0164848D02*
X0204922Y0164848D01*
X0204669Y0163250D02*
X0202120Y0163250D01*
X0197720Y0155257D02*
X0179217Y0155257D01*
X0179217Y0153659D02*
X0197720Y0153659D01*
X0202120Y0153659D02*
X0215690Y0153659D01*
X0215212Y0156856D02*
X0215053Y0156856D01*
X0211005Y0152060D02*
X0209406Y0152060D01*
X0209406Y0150462D02*
X0211005Y0150462D01*
X0211005Y0148863D02*
X0209406Y0148863D01*
X0209405Y0147265D02*
X0202120Y0147265D01*
X0202120Y0148863D02*
X0204469Y0148863D01*
X0204511Y0150462D02*
X0202120Y0150462D01*
X0202120Y0152060D02*
X0205401Y0152060D01*
X0204469Y0145666D02*
X0201277Y0145666D01*
X0199089Y0144068D02*
X0204573Y0144068D01*
X0205827Y0142469D02*
X0197595Y0142469D01*
X0187903Y0147265D02*
X0179217Y0147265D01*
X0179217Y0148863D02*
X0188133Y0148863D01*
X0188133Y0150462D02*
X0179217Y0150462D01*
X0179217Y0152060D02*
X0189148Y0152060D01*
X0188823Y0156856D02*
X0179217Y0156856D01*
X0180351Y0158454D02*
X0180354Y0158454D01*
X0184486Y0158454D02*
X0188133Y0158454D01*
X0168059Y0164848D02*
X0161500Y0164848D01*
X0161500Y0163250D02*
X0166452Y0163250D01*
X0166358Y0161651D02*
X0162360Y0161651D01*
X0162672Y0160053D02*
X0166358Y0160053D01*
X0166768Y0158454D02*
X0162672Y0158454D01*
X0162415Y0150462D02*
X0163767Y0150462D01*
X0163970Y0148863D02*
X0162872Y0148863D01*
X0162872Y0147265D02*
X0163970Y0147265D01*
X0163805Y0145666D02*
X0162534Y0145666D01*
X0162206Y0144068D02*
X0154679Y0144068D01*
X0153080Y0142469D02*
X0160608Y0142469D01*
X0159300Y0145666D02*
X0159300Y0145666D01*
X0159300Y0147265D02*
X0159300Y0147265D01*
X0159300Y0147961D02*
X0159300Y0147961D01*
X0159300Y0147962D02*
X0159300Y0147962D01*
X0159300Y0148863D02*
X0159300Y0148863D01*
X0159300Y0150462D02*
X0159300Y0150462D01*
X0152759Y0140870D02*
X0151482Y0140870D01*
X0151161Y0139272D02*
X0149883Y0139272D01*
X0149562Y0137673D02*
X0148285Y0137673D01*
X0147964Y0136075D02*
X0146686Y0136075D01*
X0170139Y0137673D02*
X0170508Y0137673D01*
X0215838Y0144068D02*
X0216885Y0144068D01*
X0216587Y0145666D02*
X0215943Y0145666D01*
X0221070Y0145666D02*
X0221270Y0145666D01*
X0221270Y0147265D02*
X0221070Y0147265D01*
X0221070Y0148863D02*
X0221270Y0148863D01*
X0221270Y0150462D02*
X0221070Y0150462D01*
X0221070Y0152060D02*
X0221270Y0152060D01*
X0221270Y0153659D02*
X0221070Y0153659D01*
X0227128Y0156856D02*
X0275591Y0156856D01*
X0275591Y0158454D02*
X0228125Y0158454D01*
X0228370Y0160053D02*
X0275591Y0160053D01*
X0275591Y0161651D02*
X0228016Y0161651D01*
X0226863Y0163250D02*
X0275591Y0163250D01*
X0275591Y0164848D02*
X0215489Y0164848D01*
X0190742Y0228789D02*
X0190582Y0228789D01*
X0215895Y0235523D02*
X0215895Y0235523D01*
D29*
X0228670Y0206170D03*
X0224920Y0187420D03*
X0221170Y0171170D03*
X0209920Y0139920D03*
X0219920Y0132420D03*
X0204920Y0114920D03*
X0179920Y0128670D03*
X0178670Y0121170D03*
X0178670Y0111170D03*
X0166170Y0104920D03*
X0162420Y0112420D03*
X0158670Y0114920D03*
X0154920Y0108670D03*
X0148670Y0119920D03*
X0152420Y0123670D03*
X0143670Y0123670D03*
X0138045Y0102420D03*
X0141170Y0092420D03*
X0141170Y0079920D03*
X0136170Y0076170D03*
X0141170Y0073670D03*
X0147420Y0073670D03*
X0151170Y0079920D03*
X0164295Y0076170D03*
X0167420Y0067420D03*
X0171170Y0047420D03*
X0126170Y0067420D03*
X0101170Y0083670D03*
X0097420Y0101170D03*
X0073670Y0079920D03*
X0078670Y0078670D03*
X0063670Y0077420D03*
X0063670Y0082420D03*
X0053670Y0078670D03*
X0051170Y0051170D03*
X0121170Y0110545D03*
X0121170Y0129920D03*
X0096170Y0132420D03*
X0089920Y0141170D03*
X0091170Y0158670D03*
X0088670Y0163670D03*
X0083670Y0158670D03*
X0074920Y0158670D03*
X0063670Y0158670D03*
X0046170Y0141170D03*
X0102420Y0163670D03*
X0143670Y0164920D03*
X0152420Y0164920D03*
X0156170Y0143670D03*
X0182420Y0161170D03*
X0186170Y0142420D03*
X0172420Y0187420D03*
X0186170Y0198670D03*
X0151170Y0221170D03*
X0091170Y0221170D03*
X0153670Y0093670D03*
X0161170Y0092420D03*
D30*
X0257706Y0021485D03*
X0257706Y0218335D03*
X0021485Y0218335D03*
X0021485Y0021485D03*
D31*
X0127085Y0092922D02*
X0130422Y0092922D01*
X0138045Y0100545D01*
X0138045Y0102420D01*
D32*
X0068670Y0097863D02*
X0063670Y0097420D01*
X0194920Y0198670D02*
X0195550Y0198670D01*
X0195550Y0213670D02*
X0202420Y0213670D01*
X0204920Y0216170D01*
X0212420Y0216170D01*
X0212420Y0193670D01*
D33*
X0219920Y0132420D02*
X0219920Y0126670D01*
M02*
