G04 #@! TF.GenerationSoftware,KiCad,Pcbnew,5.1.5*
G04 #@! TF.CreationDate,2020-09-01T20:47:54+02:00*
G04 #@! TF.ProjectId,icE1usb-panel,69634531-7573-4622-9d70-616e656c2e6b,1.0*
G04 #@! TF.SameCoordinates,Original*
G04 #@! TF.FileFunction,Copper,L4,Bot*
G04 #@! TF.FilePolarity,Positive*
%FSLAX46Y46*%
G04 Gerber Fmt 4.6, Leading zero omitted, Abs format (unit mm)*
G04 Created by KiCad (PCBNEW 5.1.5) date 2020-09-01 20:47:54*
%MOMM*%
%LPD*%
G04 APERTURE LIST*
%ADD10C,0.300000*%
%ADD11R,1.500000X1.500000*%
%ADD12C,1.500000*%
%ADD13C,2.300000*%
%ADD14C,0.100000*%
%ADD15O,1.600000X1.000000*%
%ADD16O,2.100000X1.000000*%
%ADD17C,2.000000*%
%ADD18R,1.700000X1.700000*%
%ADD19O,1.700000X1.700000*%
%ADD20C,2.500000*%
%ADD21C,2.250000*%
%ADD22R,1.600000X1.600000*%
%ADD23C,1.600000*%
%ADD24C,0.600000*%
%ADD25C,0.500000*%
%ADD26C,0.250000*%
%ADD27C,0.200000*%
%ADD28C,0.600000*%
%ADD29C,1.000000*%
G04 APERTURE END LIST*
D10*
X-16250000Y-46550000D02*
X-16250000Y-46950000D01*
X-16250000Y18450000D02*
X-16250000Y18050000D01*
D11*
X36500000Y-53565000D03*
D12*
X36500000Y-55597000D03*
X36500000Y-57629000D03*
X36500000Y-59661000D03*
X34720000Y-54581000D03*
X34720000Y-56613000D03*
X34720000Y-58645000D03*
X34720000Y-60677000D03*
D13*
X35610000Y-80995000D03*
X35610000Y-48995000D03*
D12*
X29900000Y-50265000D03*
X29900000Y-52555000D03*
X29900000Y-61695000D03*
X29900000Y-63985000D03*
X29900000Y-68305000D03*
X29900000Y-77445000D03*
X29900000Y-79735000D03*
X29900000Y-66015000D03*
X36500000Y-71347000D03*
X34720000Y-70331000D03*
X36500000Y-69315000D03*
X34720000Y-76427000D03*
X34720000Y-72363000D03*
X36500000Y-73379000D03*
X34720000Y-74395000D03*
X36500000Y-75411000D03*
G04 #@! TA.AperFunction,SMDPad,CuDef*
D14*
G36*
X-16002946Y-45701083D02*
G01*
X-15981105Y-45704323D01*
X-15959686Y-45709688D01*
X-15938896Y-45717127D01*
X-15918936Y-45726568D01*
X-15899997Y-45737919D01*
X-15882262Y-45751073D01*
X-15865901Y-45765901D01*
X-15851073Y-45782262D01*
X-15837919Y-45799997D01*
X-15826568Y-45818936D01*
X-15817127Y-45838896D01*
X-15809688Y-45859686D01*
X-15804323Y-45881105D01*
X-15801083Y-45902946D01*
X-15800000Y-45925000D01*
X-15800000Y-46425000D01*
X-15801083Y-46447054D01*
X-15804323Y-46468895D01*
X-15809688Y-46490314D01*
X-15817127Y-46511104D01*
X-15826568Y-46531064D01*
X-15837919Y-46550003D01*
X-15851073Y-46567738D01*
X-15865901Y-46584099D01*
X-15882262Y-46598927D01*
X-15899997Y-46612081D01*
X-15918936Y-46623432D01*
X-15938896Y-46632873D01*
X-15959686Y-46640312D01*
X-15981105Y-46645677D01*
X-16002946Y-46648917D01*
X-16025000Y-46650000D01*
X-16475000Y-46650000D01*
X-16497054Y-46648917D01*
X-16518895Y-46645677D01*
X-16540314Y-46640312D01*
X-16561104Y-46632873D01*
X-16581064Y-46623432D01*
X-16600003Y-46612081D01*
X-16617738Y-46598927D01*
X-16634099Y-46584099D01*
X-16648927Y-46567738D01*
X-16662081Y-46550003D01*
X-16673432Y-46531064D01*
X-16682873Y-46511104D01*
X-16690312Y-46490314D01*
X-16695677Y-46468895D01*
X-16698917Y-46447054D01*
X-16700000Y-46425000D01*
X-16700000Y-45925000D01*
X-16698917Y-45902946D01*
X-16695677Y-45881105D01*
X-16690312Y-45859686D01*
X-16682873Y-45838896D01*
X-16673432Y-45818936D01*
X-16662081Y-45799997D01*
X-16648927Y-45782262D01*
X-16634099Y-45765901D01*
X-16617738Y-45751073D01*
X-16600003Y-45737919D01*
X-16581064Y-45726568D01*
X-16561104Y-45717127D01*
X-16540314Y-45709688D01*
X-16518895Y-45704323D01*
X-16497054Y-45701083D01*
X-16475000Y-45700000D01*
X-16025000Y-45700000D01*
X-16002946Y-45701083D01*
G37*
G04 #@! TD.AperFunction*
G04 #@! TA.AperFunction,SMDPad,CuDef*
G36*
X-16002946Y-46851083D02*
G01*
X-15981105Y-46854323D01*
X-15959686Y-46859688D01*
X-15938896Y-46867127D01*
X-15918936Y-46876568D01*
X-15899997Y-46887919D01*
X-15882262Y-46901073D01*
X-15865901Y-46915901D01*
X-15851073Y-46932262D01*
X-15837919Y-46949997D01*
X-15826568Y-46968936D01*
X-15817127Y-46988896D01*
X-15809688Y-47009686D01*
X-15804323Y-47031105D01*
X-15801083Y-47052946D01*
X-15800000Y-47075000D01*
X-15800000Y-47575000D01*
X-15801083Y-47597054D01*
X-15804323Y-47618895D01*
X-15809688Y-47640314D01*
X-15817127Y-47661104D01*
X-15826568Y-47681064D01*
X-15837919Y-47700003D01*
X-15851073Y-47717738D01*
X-15865901Y-47734099D01*
X-15882262Y-47748927D01*
X-15899997Y-47762081D01*
X-15918936Y-47773432D01*
X-15938896Y-47782873D01*
X-15959686Y-47790312D01*
X-15981105Y-47795677D01*
X-16002946Y-47798917D01*
X-16025000Y-47800000D01*
X-16475000Y-47800000D01*
X-16497054Y-47798917D01*
X-16518895Y-47795677D01*
X-16540314Y-47790312D01*
X-16561104Y-47782873D01*
X-16581064Y-47773432D01*
X-16600003Y-47762081D01*
X-16617738Y-47748927D01*
X-16634099Y-47734099D01*
X-16648927Y-47717738D01*
X-16662081Y-47700003D01*
X-16673432Y-47681064D01*
X-16682873Y-47661104D01*
X-16690312Y-47640314D01*
X-16695677Y-47618895D01*
X-16698917Y-47597054D01*
X-16700000Y-47575000D01*
X-16700000Y-47075000D01*
X-16698917Y-47052946D01*
X-16695677Y-47031105D01*
X-16690312Y-47009686D01*
X-16682873Y-46988896D01*
X-16673432Y-46968936D01*
X-16662081Y-46949997D01*
X-16648927Y-46932262D01*
X-16634099Y-46915901D01*
X-16617738Y-46901073D01*
X-16600003Y-46887919D01*
X-16581064Y-46876568D01*
X-16561104Y-46867127D01*
X-16540314Y-46859688D01*
X-16518895Y-46854323D01*
X-16497054Y-46851083D01*
X-16475000Y-46850000D01*
X-16025000Y-46850000D01*
X-16002946Y-46851083D01*
G37*
G04 #@! TD.AperFunction*
D15*
X-41400000Y-69320000D03*
X-41400000Y-60680000D03*
D16*
X-37220000Y-60680000D03*
X-37220000Y-69320000D03*
D11*
X-36500000Y-83570000D03*
D12*
X-36500000Y-81530000D03*
X-36500000Y-79490000D03*
X-36500000Y-77450000D03*
X-34720000Y-82550000D03*
X-34720000Y-80510000D03*
X-34720000Y-78470000D03*
X-34720000Y-76430000D03*
D17*
X-35610000Y-71880000D03*
X-35610000Y-88140000D03*
D18*
X-12320000Y-86350000D03*
D19*
X-12320000Y-83810000D03*
X-9780000Y-86350000D03*
X-9780000Y-83810000D03*
X-7240000Y-86350000D03*
X-7240000Y-83810000D03*
X-4700000Y-86350000D03*
X-4700000Y-83810000D03*
D18*
X13690000Y-45770000D03*
D19*
X13690000Y-43230000D03*
X16230000Y-45770000D03*
X16230000Y-43230000D03*
X18770000Y-45770000D03*
X18770000Y-43230000D03*
X21310000Y-45770000D03*
X21310000Y-43230000D03*
D18*
X21310000Y-84230000D03*
D19*
X21310000Y-86770000D03*
X18770000Y-84230000D03*
X18770000Y-86770000D03*
X16230000Y-84230000D03*
X16230000Y-86770000D03*
X13690000Y-84230000D03*
X13690000Y-86770000D03*
D20*
X-33460000Y-47540000D03*
X-38540000Y-47540000D03*
X-38540000Y-42460000D03*
X-33460000Y-42460000D03*
D21*
X-36000000Y-45000000D03*
D18*
X8000000Y-83810000D03*
D19*
X5460000Y-83810000D03*
X8000000Y-81270000D03*
X5460000Y-81270000D03*
X8000000Y-78730000D03*
X5460000Y-78730000D03*
X8000000Y-76190000D03*
X5460000Y-76190000D03*
D22*
X-6750000Y-45750000D03*
D23*
X-3500000Y-43300000D03*
D18*
X-22480000Y-83810000D03*
D19*
X-25020000Y-83810000D03*
X-22480000Y-81270000D03*
X-25020000Y-81270000D03*
X-22480000Y-78730000D03*
X-25020000Y-78730000D03*
X-22480000Y-76190000D03*
X-25020000Y-76190000D03*
D12*
X36500000Y-10411000D03*
X34720000Y-9395000D03*
X36500000Y-8379000D03*
X34720000Y-7363000D03*
X34720000Y-11427000D03*
X36500000Y-4315000D03*
X34720000Y-5331000D03*
X36500000Y-6347000D03*
X29900000Y-1015000D03*
X29900000Y-14735000D03*
X29900000Y-12445000D03*
X29900000Y-3305000D03*
X29900000Y1015000D03*
X29900000Y3305000D03*
X29900000Y12445000D03*
X29900000Y14735000D03*
D13*
X35610000Y16005000D03*
X35610000Y-15995000D03*
D12*
X34720000Y4323000D03*
X34720000Y6355000D03*
X34720000Y8387000D03*
X34720000Y10419000D03*
X36500000Y5339000D03*
X36500000Y7371000D03*
X36500000Y9403000D03*
D11*
X36500000Y11435000D03*
G04 #@! TA.AperFunction,SMDPad,CuDef*
D14*
G36*
X-16002946Y18148917D02*
G01*
X-15981105Y18145677D01*
X-15959686Y18140312D01*
X-15938896Y18132873D01*
X-15918936Y18123432D01*
X-15899997Y18112081D01*
X-15882262Y18098927D01*
X-15865901Y18084099D01*
X-15851073Y18067738D01*
X-15837919Y18050003D01*
X-15826568Y18031064D01*
X-15817127Y18011104D01*
X-15809688Y17990314D01*
X-15804323Y17968895D01*
X-15801083Y17947054D01*
X-15800000Y17925000D01*
X-15800000Y17425000D01*
X-15801083Y17402946D01*
X-15804323Y17381105D01*
X-15809688Y17359686D01*
X-15817127Y17338896D01*
X-15826568Y17318936D01*
X-15837919Y17299997D01*
X-15851073Y17282262D01*
X-15865901Y17265901D01*
X-15882262Y17251073D01*
X-15899997Y17237919D01*
X-15918936Y17226568D01*
X-15938896Y17217127D01*
X-15959686Y17209688D01*
X-15981105Y17204323D01*
X-16002946Y17201083D01*
X-16025000Y17200000D01*
X-16475000Y17200000D01*
X-16497054Y17201083D01*
X-16518895Y17204323D01*
X-16540314Y17209688D01*
X-16561104Y17217127D01*
X-16581064Y17226568D01*
X-16600003Y17237919D01*
X-16617738Y17251073D01*
X-16634099Y17265901D01*
X-16648927Y17282262D01*
X-16662081Y17299997D01*
X-16673432Y17318936D01*
X-16682873Y17338896D01*
X-16690312Y17359686D01*
X-16695677Y17381105D01*
X-16698917Y17402946D01*
X-16700000Y17425000D01*
X-16700000Y17925000D01*
X-16698917Y17947054D01*
X-16695677Y17968895D01*
X-16690312Y17990314D01*
X-16682873Y18011104D01*
X-16673432Y18031064D01*
X-16662081Y18050003D01*
X-16648927Y18067738D01*
X-16634099Y18084099D01*
X-16617738Y18098927D01*
X-16600003Y18112081D01*
X-16581064Y18123432D01*
X-16561104Y18132873D01*
X-16540314Y18140312D01*
X-16518895Y18145677D01*
X-16497054Y18148917D01*
X-16475000Y18150000D01*
X-16025000Y18150000D01*
X-16002946Y18148917D01*
G37*
G04 #@! TD.AperFunction*
G04 #@! TA.AperFunction,SMDPad,CuDef*
G36*
X-16002946Y19298917D02*
G01*
X-15981105Y19295677D01*
X-15959686Y19290312D01*
X-15938896Y19282873D01*
X-15918936Y19273432D01*
X-15899997Y19262081D01*
X-15882262Y19248927D01*
X-15865901Y19234099D01*
X-15851073Y19217738D01*
X-15837919Y19200003D01*
X-15826568Y19181064D01*
X-15817127Y19161104D01*
X-15809688Y19140314D01*
X-15804323Y19118895D01*
X-15801083Y19097054D01*
X-15800000Y19075000D01*
X-15800000Y18575000D01*
X-15801083Y18552946D01*
X-15804323Y18531105D01*
X-15809688Y18509686D01*
X-15817127Y18488896D01*
X-15826568Y18468936D01*
X-15837919Y18449997D01*
X-15851073Y18432262D01*
X-15865901Y18415901D01*
X-15882262Y18401073D01*
X-15899997Y18387919D01*
X-15918936Y18376568D01*
X-15938896Y18367127D01*
X-15959686Y18359688D01*
X-15981105Y18354323D01*
X-16002946Y18351083D01*
X-16025000Y18350000D01*
X-16475000Y18350000D01*
X-16497054Y18351083D01*
X-16518895Y18354323D01*
X-16540314Y18359688D01*
X-16561104Y18367127D01*
X-16581064Y18376568D01*
X-16600003Y18387919D01*
X-16617738Y18401073D01*
X-16634099Y18415901D01*
X-16648927Y18432262D01*
X-16662081Y18449997D01*
X-16673432Y18468936D01*
X-16682873Y18488896D01*
X-16690312Y18509686D01*
X-16695677Y18531105D01*
X-16698917Y18552946D01*
X-16700000Y18575000D01*
X-16700000Y19075000D01*
X-16698917Y19097054D01*
X-16695677Y19118895D01*
X-16690312Y19140314D01*
X-16682873Y19161104D01*
X-16673432Y19181064D01*
X-16662081Y19200003D01*
X-16648927Y19217738D01*
X-16634099Y19234099D01*
X-16617738Y19248927D01*
X-16600003Y19262081D01*
X-16581064Y19273432D01*
X-16561104Y19282873D01*
X-16540314Y19290312D01*
X-16518895Y19295677D01*
X-16497054Y19298917D01*
X-16475000Y19300000D01*
X-16025000Y19300000D01*
X-16002946Y19298917D01*
G37*
G04 #@! TD.AperFunction*
D23*
X-3500000Y21700000D03*
D22*
X-6750000Y19250000D03*
D19*
X5460000Y-11190000D03*
X8000000Y-11190000D03*
X5460000Y-13730000D03*
X8000000Y-13730000D03*
X5460000Y-16270000D03*
X8000000Y-16270000D03*
X5460000Y-18810000D03*
D18*
X8000000Y-18810000D03*
D19*
X-25020000Y-11190000D03*
X-22480000Y-11190000D03*
X-25020000Y-13730000D03*
X-22480000Y-13730000D03*
X-25020000Y-16270000D03*
X-22480000Y-16270000D03*
X-25020000Y-18810000D03*
D18*
X-22480000Y-18810000D03*
D21*
X-36000000Y20000000D03*
D20*
X-33460000Y22540000D03*
X-38540000Y22540000D03*
X-38540000Y17460000D03*
X-33460000Y17460000D03*
D19*
X13690000Y-21770000D03*
X13690000Y-19230000D03*
X16230000Y-21770000D03*
X16230000Y-19230000D03*
X18770000Y-21770000D03*
X18770000Y-19230000D03*
X21310000Y-21770000D03*
D18*
X21310000Y-19230000D03*
D19*
X21310000Y21770000D03*
X21310000Y19230000D03*
X18770000Y21770000D03*
X18770000Y19230000D03*
X16230000Y21770000D03*
X16230000Y19230000D03*
X13690000Y21770000D03*
D18*
X13690000Y19230000D03*
D19*
X-4700000Y-18810000D03*
X-4700000Y-21350000D03*
X-7240000Y-18810000D03*
X-7240000Y-21350000D03*
X-9780000Y-18810000D03*
X-9780000Y-21350000D03*
X-12320000Y-18810000D03*
D18*
X-12320000Y-21350000D03*
D17*
X-35610000Y-23140000D03*
X-35610000Y-6880000D03*
D12*
X-34720000Y-11430000D03*
X-34720000Y-13470000D03*
X-34720000Y-15510000D03*
X-34720000Y-17550000D03*
X-36500000Y-12450000D03*
X-36500000Y-14490000D03*
X-36500000Y-16530000D03*
D11*
X-36500000Y-18570000D03*
D16*
X-37220000Y-4320000D03*
X-37220000Y4320000D03*
D15*
X-41400000Y4320000D03*
X-41400000Y-4320000D03*
D24*
X-16000000Y-17250000D03*
X-17750000Y-22000000D03*
X-41500000Y9250000D03*
X-24750000Y7250000D03*
X-23000000Y7250000D03*
X-20750000Y7250000D03*
X-24750000Y-7250000D03*
X-23000000Y-7250000D03*
X-20750000Y-7250000D03*
X-12500000Y-1500000D03*
X-9500000Y-1500000D03*
X-9500000Y1500000D03*
X-12500000Y1500000D03*
X-9500000Y0D03*
X-11000000Y1500000D03*
X-11000000Y-1500000D03*
X-12500000Y0D03*
X-11000000Y0D03*
X-13500000Y16750000D03*
X-13500000Y19750000D03*
X-13500000Y21250000D03*
X-13500000Y18250000D03*
X-15750000Y12850000D03*
X-18250000Y12850000D03*
X-27750000Y19450000D03*
X-27750000Y21650000D03*
X-25250000Y21650000D03*
X-25250000Y19450000D03*
X-30000000Y18500000D03*
X-29250000Y16750000D03*
X-2500000Y10500000D03*
X-5750000Y16000000D03*
X-10500000Y10750000D03*
X-10500000Y9250000D03*
X-6250000Y-12500000D03*
X-850000Y-14250000D03*
X750000Y-12500000D03*
X-3500000Y3000000D03*
X-2750000Y-250000D03*
X-2750000Y-1750000D03*
X-19250000Y2750000D03*
X-19250000Y0D03*
X500000Y3500000D03*
X500000Y2000000D03*
X500000Y-5000000D03*
X500000Y-3500000D03*
X-34625000Y3250000D03*
X-34625000Y-3250000D03*
X-28250000Y3500000D03*
X-31750000Y-500000D03*
X-31750000Y-2000000D03*
X-31750000Y-3500000D03*
X31250000Y500000D03*
X19125000Y1625000D03*
X9000000Y8500000D03*
X9000000Y10000000D03*
X26000000Y-10000000D03*
X26000000Y-8500000D03*
X14325000Y1500000D03*
X14325000Y-5500000D03*
X18375000Y1625000D03*
X27750000Y1625000D03*
X25250000Y2275000D03*
X-35250000Y-3250000D03*
X-35250000Y3250000D03*
X-30000000Y4250000D03*
X-8500000Y-8250000D03*
X-2750000Y-4750000D03*
X-9250000Y-11095000D03*
X-16000000Y-82250000D03*
X-17750000Y-87000000D03*
X-41500000Y-55750000D03*
X-24750000Y-57750000D03*
X-23000000Y-57750000D03*
X-20750000Y-57750000D03*
X-24750000Y-72250000D03*
X-23000000Y-72250000D03*
X-20750000Y-72250000D03*
X-12500000Y-66500000D03*
X-9500000Y-66500000D03*
X-9500000Y-63500000D03*
X-12500000Y-63500000D03*
X-9500000Y-65000000D03*
X-11000000Y-63500000D03*
X-11000000Y-66500000D03*
X-12500000Y-65000000D03*
X-11000000Y-65000000D03*
X-13500000Y-48250000D03*
X-13500000Y-45250000D03*
X-13500000Y-43750000D03*
X-13500000Y-46750000D03*
X-15750000Y-52150000D03*
X-18250000Y-52150000D03*
X-27750000Y-45550000D03*
X-27750000Y-43350000D03*
X-25250000Y-43350000D03*
X-25250000Y-45550000D03*
X-30000000Y-46500000D03*
X-29250000Y-48250000D03*
X-2500000Y-54500000D03*
X-5750000Y-49000000D03*
X-10500000Y-54250000D03*
X-10500000Y-55750000D03*
X-6250000Y-77500000D03*
X-850000Y-79250000D03*
X750000Y-77500000D03*
X-3500000Y-62000000D03*
X-2750000Y-65250000D03*
X-2750000Y-66750000D03*
X-19250000Y-62250000D03*
X-19250000Y-65000000D03*
X500000Y-61500000D03*
X500000Y-63000000D03*
X500000Y-70000000D03*
X500000Y-68500000D03*
X-34625000Y-61750000D03*
X-34625000Y-68250000D03*
X-28250000Y-61500000D03*
X-31750000Y-65500000D03*
X-31750000Y-67000000D03*
X-31750000Y-68500000D03*
X31250000Y-64500000D03*
X19125000Y-63375000D03*
X9000000Y-56500000D03*
X9000000Y-55000000D03*
X26000000Y-75000000D03*
X26000000Y-73500000D03*
X14325000Y-63500000D03*
X14325000Y-70500000D03*
X18375000Y-63375000D03*
X27750000Y-63375000D03*
X25250000Y-62725000D03*
X-35250000Y-68250000D03*
X-35250000Y-61750000D03*
X-30000000Y-60750000D03*
X-8500000Y-73250000D03*
X-2750000Y-69750000D03*
X-9250000Y-76095000D03*
X-21000000Y-500000D03*
X-9250000Y6000000D03*
X-21000000Y-65500000D03*
X-9250000Y-59000000D03*
X-22750000Y-500000D03*
X-8625000Y5250000D03*
X-22750000Y-65500000D03*
X-8625000Y-59750000D03*
X-9500000Y5000000D03*
X-21000000Y500000D03*
X-9500000Y-60000000D03*
X-21000000Y-64500000D03*
X-9250000Y-6750000D03*
X-16000000Y-15750000D03*
X-9250000Y-12365000D03*
X-17750000Y-19250000D03*
X-19250000Y7250000D03*
X-19250000Y8000000D03*
X-10500000Y16750000D03*
X-15250000Y22000000D03*
X-15250000Y20500000D03*
X-15250000Y19000000D03*
X6200000Y-22000000D03*
X-7250000Y16000000D03*
X-50000Y-14250000D03*
X-5000000Y3000000D03*
X-17750000Y2000000D03*
X-7750000Y-4250000D03*
X-7750000Y-4250000D03*
X-7750000Y-4250000D03*
X-7750000Y-4250000D03*
X9000000Y7000000D03*
X26000000Y-7000000D03*
X18375000Y-1625000D03*
X19125000Y-1625000D03*
X-22750000Y500000D03*
X14325000Y5500000D03*
X14325000Y-1500000D03*
X-9250000Y-71750000D03*
X-16000000Y-80750000D03*
X-9250000Y-77365000D03*
X-17750000Y-84250000D03*
X-19250000Y-57750000D03*
X-19250000Y-57000000D03*
X-10500000Y-48250000D03*
X-15250000Y-43000000D03*
X-15250000Y-44500000D03*
X-15250000Y-46000000D03*
X6200000Y-87000000D03*
X-7250000Y-49000000D03*
X-50000Y-79250000D03*
X-5000000Y-62000000D03*
X-17750000Y-63000000D03*
X-7750000Y-69250000D03*
X-7750000Y-69250000D03*
X-7750000Y-69250000D03*
X-7750000Y-69250000D03*
X9000000Y-58000000D03*
X26000000Y-72000000D03*
X18375000Y-66625000D03*
X19125000Y-66625000D03*
X-22750000Y-64500000D03*
X14325000Y-59500000D03*
X14325000Y-66500000D03*
X-4250000Y-2500000D03*
X-5750000Y-4750000D03*
X-4250000Y-67500000D03*
X-5750000Y-69750000D03*
X-22750000Y6300000D03*
X-19250000Y-6500000D03*
X-19250000Y-7250000D03*
X-4250000Y-1000000D03*
X-18500000Y-750000D03*
X-2750000Y-6250000D03*
X-22750000Y-6300000D03*
X-22750000Y-58700000D03*
X-19250000Y-71500000D03*
X-19250000Y-72250000D03*
X-4250000Y-66000000D03*
X-18500000Y-65750000D03*
X-2750000Y-71250000D03*
X-22750000Y-71300000D03*
X-26250000Y7250000D03*
X-26250000Y-7250000D03*
X-34625000Y2450000D03*
X-34625000Y-2450000D03*
X-28250000Y-500000D03*
X-35250000Y-2450000D03*
X-35250000Y2450000D03*
X-27250000Y7250000D03*
X-27250000Y-7250000D03*
X-26250000Y-57750000D03*
X-26250000Y-72250000D03*
X-34625000Y-62550000D03*
X-34625000Y-67450000D03*
X-28250000Y-65500000D03*
X-35250000Y-67450000D03*
X-35250000Y-62550000D03*
X-27250000Y-57750000D03*
X-27250000Y-72250000D03*
X24250000Y22500000D03*
X24250000Y-42500000D03*
X24250000Y20875000D03*
X24250000Y-44125000D03*
X24250000Y-18500000D03*
X24250000Y-83500000D03*
X24250000Y-20125000D03*
X24250000Y-85125000D03*
X24250000Y-22500000D03*
X24250000Y-87500000D03*
X21750000Y-500000D03*
X21750000Y-65500000D03*
X-14170000Y-20080000D03*
X-17250000Y-2750000D03*
X-14170000Y-85080000D03*
X-17250000Y-67750000D03*
X-16000000Y-19250000D03*
X3500000Y-17250000D03*
X-18000000Y-2250000D03*
X21750000Y1750000D03*
X-16000000Y-84250000D03*
X3500000Y-82250000D03*
X-18000000Y-67250000D03*
X21750000Y-63250000D03*
X-12320000Y-14905000D03*
X-12320000Y-79905000D03*
X26000000Y7000000D03*
X31250000Y-500000D03*
X26000000Y-58000000D03*
X31250000Y-65500000D03*
X21750000Y1000000D03*
X21750000Y-64000000D03*
X-31750000Y1900000D03*
X-38850000Y11750000D03*
X-31750000Y-63100000D03*
X-38850000Y-53250000D03*
X-2000000Y-9500000D03*
X2000000Y5000000D03*
X2000000Y-5000000D03*
X-2000000Y-74500000D03*
X2000000Y-60000000D03*
X2000000Y-70000000D03*
X-3500000Y-9500000D03*
X2000000Y2000000D03*
X-3500000Y-74500000D03*
X2000000Y-63000000D03*
X-5000000Y-9500000D03*
X2000000Y-2000000D03*
X-5000000Y-74500000D03*
X2000000Y-67000000D03*
X9500000Y-21250000D03*
X-18250000Y5000000D03*
X-16250000Y1500000D03*
X9500000Y-86250000D03*
X-18250000Y-60000000D03*
X-16250000Y-63500000D03*
X9500000Y-22750000D03*
X-17500000Y5750000D03*
X-15500000Y2000000D03*
X9500000Y-87750000D03*
X-17500000Y-59250000D03*
X-15500000Y-63000000D03*
X-14250000Y-6000000D03*
X-7500000Y-8250000D03*
X-14250000Y-71000000D03*
X-7500000Y-73250000D03*
X8750000Y2750000D03*
X-11500000Y5500000D03*
X8750000Y-62250000D03*
X-11500000Y-59500000D03*
X-7500000Y3500000D03*
X8750000Y1250000D03*
X-7500000Y-61500000D03*
X8750000Y-63750000D03*
X-6000000Y3000000D03*
X8750000Y-4250000D03*
X-6000000Y-62000000D03*
X8750000Y-69250000D03*
X-7750000Y4250000D03*
X8750000Y-5750000D03*
X-7750000Y-60750000D03*
X8750000Y-70750000D03*
X-18500000Y21650000D03*
X-18500000Y9750000D03*
X-18500000Y-43350000D03*
X-18500000Y-55250000D03*
X-16000000Y4000000D03*
X-16000000Y4000000D03*
X-16000000Y2750000D03*
X-16000000Y-61000000D03*
X-16000000Y-61000000D03*
X-16000000Y-62250000D03*
X-15300000Y7750000D03*
X-13500000Y5500000D03*
X-15300000Y-57250000D03*
X-13500000Y-59500000D03*
X-16100000Y7750000D03*
X-14000000Y4500000D03*
X-16100000Y-57250000D03*
X-14000000Y-60500000D03*
X-15750000Y-4000000D03*
X-16500000Y-6000000D03*
X-15750000Y-69000000D03*
X-16500000Y-71000000D03*
X-28250000Y-3500000D03*
X-29000000Y4000000D03*
X-14750000Y-5250000D03*
X-9500000Y-5250000D03*
X-28250000Y-68500000D03*
X-29000000Y-61000000D03*
X-14750000Y-70250000D03*
X-9500000Y-70250000D03*
X-28250000Y-2000000D03*
X-28250000Y4500000D03*
X-28250000Y-67000000D03*
X-28250000Y-60500000D03*
X2500000Y-16750000D03*
X21750000Y250000D03*
X2500000Y-81750000D03*
X21750000Y-64750000D03*
X-15250000Y17500000D03*
X-15250000Y-47500000D03*
X-2450000Y-14250000D03*
X-6250000Y-5500000D03*
X-6750000Y3250000D03*
X-2450000Y-79250000D03*
X-6250000Y-70500000D03*
X-6750000Y-61750000D03*
X-1650000Y-14250000D03*
X-6250000Y-1500000D03*
X-1650000Y-79250000D03*
X-6250000Y-66500000D03*
D25*
X-35250000Y3250000D02*
X-34625000Y3250000D01*
X-35250000Y-3250000D02*
X-34625000Y-3250000D01*
D26*
X31250000Y1000000D02*
X31250000Y500000D01*
X31250000Y1750000D02*
X31250000Y1000000D01*
X30840000Y2160000D02*
X31250000Y1750000D01*
X27750000Y1625000D02*
X28285000Y2160000D01*
X28285000Y2160000D02*
X30840000Y2160000D01*
D25*
X-35250000Y-61750000D02*
X-34625000Y-61750000D01*
X-35250000Y-68250000D02*
X-34625000Y-68250000D01*
D26*
X31250000Y-64000000D02*
X31250000Y-64500000D01*
X31250000Y-63250000D02*
X31250000Y-64000000D01*
X30840000Y-62840000D02*
X31250000Y-63250000D01*
X27750000Y-63375000D02*
X28285000Y-62840000D01*
X28285000Y-62840000D02*
X30840000Y-62840000D01*
D27*
X-20750000Y1750000D02*
X-21750000Y750000D01*
X-21750000Y750000D02*
X-21750000Y0D01*
X-21250000Y-500000D02*
X-21000000Y-500000D01*
X-21750000Y0D02*
X-21250000Y-500000D01*
X-17500000Y750000D02*
X-18500000Y1750000D01*
X-15500000Y750000D02*
X-17500000Y750000D01*
X-14500000Y2250000D02*
X-14500000Y1750000D01*
X-14500000Y1750000D02*
X-15500000Y750000D01*
X-13500000Y3250000D02*
X-14500000Y2250000D01*
X-10250000Y5250000D02*
X-10250000Y3750000D01*
X-10250000Y3750000D02*
X-10750000Y3250000D01*
X-9500000Y6000000D02*
X-10250000Y5250000D01*
X-9250000Y6000000D02*
X-9500000Y6000000D01*
X-10750000Y3250000D02*
X-13500000Y3250000D01*
X-20750000Y1750000D02*
X-18500000Y1750000D01*
X-20750000Y-63250000D02*
X-21750000Y-64250000D01*
X-21750000Y-64250000D02*
X-21750000Y-65000000D01*
X-21250000Y-65500000D02*
X-21000000Y-65500000D01*
X-21750000Y-65000000D02*
X-21250000Y-65500000D01*
X-17500000Y-64250000D02*
X-18500000Y-63250000D01*
X-15500000Y-64250000D02*
X-17500000Y-64250000D01*
X-14500000Y-62750000D02*
X-14500000Y-63250000D01*
X-14500000Y-63250000D02*
X-15500000Y-64250000D01*
X-13500000Y-61750000D02*
X-14500000Y-62750000D01*
X-10250000Y-59750000D02*
X-10250000Y-61250000D01*
X-10250000Y-61250000D02*
X-10750000Y-61750000D01*
X-9500000Y-59000000D02*
X-10250000Y-59750000D01*
X-9250000Y-59000000D02*
X-9500000Y-59000000D01*
X-10750000Y-61750000D02*
X-13500000Y-61750000D01*
X-20750000Y-63250000D02*
X-18500000Y-63250000D01*
X-22750000Y-500000D02*
X-22000000Y-1250000D01*
X-20000000Y750000D02*
X-20250000Y500000D01*
X-20250000Y500000D02*
X-20250000Y-750000D01*
X-20250000Y-750000D02*
X-20750000Y-1250000D01*
X-20750000Y-1250000D02*
X-22000000Y-1250000D01*
X-18000000Y-250000D02*
X-19000000Y750000D01*
X-13500000Y1750000D02*
X-13500000Y1250000D01*
X-15000000Y-250000D02*
X-18000000Y-250000D01*
X-13500000Y1250000D02*
X-15000000Y-250000D01*
X-13000000Y2250000D02*
X-13500000Y1750000D01*
X-8625000Y4875000D02*
X-9250000Y4250000D01*
X-9250000Y4250000D02*
X-9250000Y3250000D01*
X-9250000Y3250000D02*
X-10250000Y2250000D01*
X-8625000Y5250000D02*
X-8625000Y4875000D01*
X-10250000Y2250000D02*
X-13000000Y2250000D01*
X-20000000Y750000D02*
X-19000000Y750000D01*
X-20000000Y-64250000D02*
X-19000000Y-64250000D01*
X-13500000Y-63250000D02*
X-13500000Y-63750000D01*
X-15000000Y-65250000D02*
X-18000000Y-65250000D01*
X-13500000Y-63750000D02*
X-15000000Y-65250000D01*
X-13000000Y-62750000D02*
X-13500000Y-63250000D01*
X-8625000Y-60125000D02*
X-9250000Y-60750000D01*
X-9250000Y-60750000D02*
X-9250000Y-61750000D01*
X-9250000Y-61750000D02*
X-10250000Y-62750000D01*
X-8625000Y-59750000D02*
X-8625000Y-60125000D01*
X-10250000Y-62750000D02*
X-13000000Y-62750000D01*
X-22750000Y-65500000D02*
X-22000000Y-66250000D01*
X-20000000Y-64250000D02*
X-20250000Y-64500000D01*
X-20250000Y-64500000D02*
X-20250000Y-65750000D01*
X-20250000Y-65750000D02*
X-20750000Y-66250000D01*
X-20750000Y-66250000D02*
X-22000000Y-66250000D01*
X-18000000Y-65250000D02*
X-19000000Y-64250000D01*
X-21000000Y500000D02*
X-20250000Y1250000D01*
X-9750000Y4500000D02*
X-9500000Y4750000D01*
X-9750000Y3500000D02*
X-9750000Y4500000D01*
X-10500000Y2750000D02*
X-9750000Y3500000D01*
X-9500000Y4750000D02*
X-9500000Y5000000D01*
X-13250000Y2750000D02*
X-10500000Y2750000D01*
X-14000000Y2000000D02*
X-13250000Y2750000D01*
X-18750000Y1250000D02*
X-17750000Y250000D01*
X-17750000Y250000D02*
X-15250000Y250000D01*
X-15250000Y250000D02*
X-14000000Y1500000D01*
X-14000000Y1500000D02*
X-14000000Y2000000D01*
X-20250000Y1250000D02*
X-18750000Y1250000D01*
X-21000000Y-64500000D02*
X-20250000Y-63750000D01*
X-9750000Y-60500000D02*
X-9500000Y-60250000D01*
X-9750000Y-61500000D02*
X-9750000Y-60500000D01*
X-10500000Y-62250000D02*
X-9750000Y-61500000D01*
X-9500000Y-60250000D02*
X-9500000Y-60000000D01*
X-13250000Y-62250000D02*
X-10500000Y-62250000D01*
X-14000000Y-63000000D02*
X-13250000Y-62250000D01*
X-18750000Y-63750000D02*
X-17750000Y-64750000D01*
X-17750000Y-64750000D02*
X-15250000Y-64750000D01*
X-15250000Y-64750000D02*
X-14000000Y-63500000D01*
X-14000000Y-63500000D02*
X-14000000Y-63000000D01*
X-20250000Y-63750000D02*
X-18750000Y-63750000D01*
D25*
X-15425000Y18825000D02*
X-15250000Y19000000D01*
X-16250000Y18825000D02*
X-15425000Y18825000D01*
X-15425000Y-46175000D02*
X-15250000Y-46000000D01*
X-16250000Y-46175000D02*
X-15425000Y-46175000D01*
X-19250000Y-7250000D02*
X-19250000Y-6500000D01*
D28*
X-18500000Y-750000D02*
X-18500000Y-1200000D01*
D27*
X-25750000Y5000000D02*
X-24450000Y6300000D01*
X-25750000Y-5000000D02*
X-25750000Y5000000D01*
X-22750000Y-6300000D02*
X-24450000Y-6300000D01*
X-24450000Y6300000D02*
X-22750000Y6300000D01*
X-24450000Y-6300000D02*
X-25750000Y-5000000D01*
D25*
X-19250000Y-1750000D02*
X-19250000Y-6500000D01*
X-18750000Y-1250000D02*
X-19250000Y-1750000D01*
X-17000000Y-1250000D02*
X-18750000Y-1250000D01*
X-15750000Y-2500000D02*
X-17000000Y-1250000D01*
X-3500000Y-5500000D02*
X-3500000Y-1750000D01*
X-8750000Y-2500000D02*
X-15750000Y-2500000D01*
X-2750000Y-6250000D02*
X-3500000Y-5500000D01*
X-3500000Y-1750000D02*
X-4750000Y-500000D01*
X-4750000Y-500000D02*
X-6750000Y-500000D01*
X-6750000Y-500000D02*
X-8750000Y-2500000D01*
X-19250000Y-72250000D02*
X-19250000Y-71500000D01*
D28*
X-18500000Y-65750000D02*
X-18500000Y-66200000D01*
D27*
X-25750000Y-60000000D02*
X-24450000Y-58700000D01*
X-25750000Y-70000000D02*
X-25750000Y-60000000D01*
X-22750000Y-71300000D02*
X-24450000Y-71300000D01*
X-24450000Y-58700000D02*
X-22750000Y-58700000D01*
X-24450000Y-71300000D02*
X-25750000Y-70000000D01*
D25*
X-19250000Y-66750000D02*
X-19250000Y-71500000D01*
X-18750000Y-66250000D02*
X-19250000Y-66750000D01*
X-17000000Y-66250000D02*
X-18750000Y-66250000D01*
X-15750000Y-67500000D02*
X-17000000Y-66250000D01*
X-3500000Y-70500000D02*
X-3500000Y-66750000D01*
X-8750000Y-67500000D02*
X-15750000Y-67500000D01*
X-2750000Y-71250000D02*
X-3500000Y-70500000D01*
X-3500000Y-66750000D02*
X-4750000Y-65500000D01*
X-4750000Y-65500000D02*
X-6750000Y-65500000D01*
X-6750000Y-65500000D02*
X-8750000Y-67500000D01*
D29*
X-35000000Y750000D02*
X-35000000Y-1750000D01*
X-35000000Y2000000D02*
X-35000000Y750000D01*
X-28250000Y-500000D02*
X-28250000Y750000D01*
D25*
X-34625000Y2450000D02*
X-35250000Y2450000D01*
X-35250000Y-2450000D02*
X-34625000Y-2450000D01*
X-35250000Y-2000000D02*
X-35000000Y-1750000D01*
X-35250000Y-2450000D02*
X-35250000Y-2000000D01*
X-34625000Y-2125000D02*
X-35000000Y-1750000D01*
X-34625000Y-2450000D02*
X-34625000Y-2125000D01*
X-34625000Y2375000D02*
X-35000000Y2000000D01*
X-34625000Y2450000D02*
X-34625000Y2375000D01*
X-35250000Y2250000D02*
X-35000000Y2000000D01*
X-35250000Y2450000D02*
X-35250000Y2250000D01*
D29*
X-26250000Y7250000D02*
X-27250000Y7250000D01*
X-26750000Y7250000D02*
X-26750000Y-7250000D01*
X-27250000Y-7250000D02*
X-26250000Y-7250000D01*
X-28250000Y750000D02*
X-26750000Y750000D01*
X-35000000Y750000D02*
X-28250000Y750000D01*
X-35000000Y-64250000D02*
X-35000000Y-66750000D01*
X-35000000Y-63000000D02*
X-35000000Y-64250000D01*
X-28250000Y-65500000D02*
X-28250000Y-64250000D01*
D25*
X-34625000Y-62550000D02*
X-35250000Y-62550000D01*
X-35250000Y-67450000D02*
X-34625000Y-67450000D01*
X-35250000Y-67000000D02*
X-35000000Y-66750000D01*
X-35250000Y-67450000D02*
X-35250000Y-67000000D01*
X-34625000Y-67125000D02*
X-35000000Y-66750000D01*
X-34625000Y-67450000D02*
X-34625000Y-67125000D01*
X-34625000Y-62625000D02*
X-35000000Y-63000000D01*
X-34625000Y-62550000D02*
X-34625000Y-62625000D01*
X-35250000Y-62750000D02*
X-35000000Y-63000000D01*
X-35250000Y-62550000D02*
X-35250000Y-62750000D01*
D29*
X-26250000Y-57750000D02*
X-27250000Y-57750000D01*
X-26750000Y-57750000D02*
X-26750000Y-72250000D01*
X-27250000Y-72250000D02*
X-26250000Y-72250000D01*
X-28250000Y-64250000D02*
X-26750000Y-64250000D01*
X-35000000Y-64250000D02*
X-28250000Y-64250000D01*
D26*
X18770000Y19230000D02*
X20040000Y20500000D01*
X20040000Y20500000D02*
X22250000Y20500000D01*
X22250000Y20500000D02*
X23000000Y21250000D01*
X23000000Y21250000D02*
X24250000Y22500000D01*
X18770000Y-45770000D02*
X20040000Y-44500000D01*
X20040000Y-44500000D02*
X22250000Y-44500000D01*
X22250000Y-44500000D02*
X23000000Y-43750000D01*
X23000000Y-43750000D02*
X24250000Y-42500000D01*
X22250000Y17750000D02*
X15170000Y17750000D01*
X15170000Y17750000D02*
X13690000Y19230000D01*
X22750000Y18250000D02*
X22250000Y17750000D01*
X24250000Y20875000D02*
X22750000Y19500000D01*
X22750000Y19500000D02*
X22750000Y18250000D01*
X22250000Y-47250000D02*
X15170000Y-47250000D01*
X15170000Y-47250000D02*
X13690000Y-45770000D01*
X22750000Y-46750000D02*
X22250000Y-47250000D01*
X24250000Y-44125000D02*
X22750000Y-45500000D01*
X22750000Y-45500000D02*
X22750000Y-46750000D01*
X23500000Y-17750000D02*
X24250000Y-18500000D01*
X17710000Y-17750000D02*
X23500000Y-17750000D01*
X16230000Y-19230000D02*
X17710000Y-17750000D01*
X23500000Y-82750000D02*
X24250000Y-83500000D01*
X17710000Y-82750000D02*
X23500000Y-82750000D01*
X16230000Y-84230000D02*
X17710000Y-82750000D01*
X23355000Y-19230000D02*
X24250000Y-20125000D01*
X21310000Y-19230000D02*
X23355000Y-19230000D01*
X23355000Y-84230000D02*
X24250000Y-85125000D01*
X21310000Y-84230000D02*
X23355000Y-84230000D01*
X24250000Y-22500000D02*
X23500000Y-23250000D01*
X20250000Y-23250000D02*
X23500000Y-23250000D01*
X18770000Y-21770000D02*
X20250000Y-23250000D01*
X24250000Y-87500000D02*
X23500000Y-88250000D01*
X20250000Y-88250000D02*
X23500000Y-88250000D01*
X18770000Y-86770000D02*
X20250000Y-88250000D01*
D27*
X21250000Y-500000D02*
X21750000Y-500000D01*
X2500000Y-9250000D02*
X3500000Y-8250000D01*
X1750000Y-16500000D02*
X2500000Y-15750000D01*
X12500000Y-750000D02*
X13500000Y250000D01*
X-4700000Y-18810000D02*
X-2390000Y-16500000D01*
X2500000Y-15750000D02*
X2500000Y-9250000D01*
X13500000Y250000D02*
X20500000Y250000D01*
X20500000Y250000D02*
X21250000Y-500000D01*
X-2390000Y-16500000D02*
X1750000Y-16500000D01*
X3500000Y-8250000D02*
X11750000Y-8250000D01*
X11750000Y-8250000D02*
X12500000Y-7500000D01*
X12500000Y-7500000D02*
X12500000Y-750000D01*
X21250000Y-65500000D02*
X21750000Y-65500000D01*
X2500000Y-74250000D02*
X3500000Y-73250000D01*
X1750000Y-81500000D02*
X2500000Y-80750000D01*
X12500000Y-65750000D02*
X13500000Y-64750000D01*
X-4700000Y-83810000D02*
X-2390000Y-81500000D01*
X2500000Y-80750000D02*
X2500000Y-74250000D01*
X13500000Y-64750000D02*
X20500000Y-64750000D01*
X20500000Y-64750000D02*
X21250000Y-65500000D01*
X-2390000Y-81500000D02*
X1750000Y-81500000D01*
X3500000Y-73250000D02*
X11750000Y-73250000D01*
X11750000Y-73250000D02*
X12500000Y-72500000D01*
X12500000Y-72500000D02*
X12500000Y-65750000D01*
X-17250000Y-3250000D02*
X-17250000Y-2750000D01*
X-8510000Y-20080000D02*
X-14170000Y-20080000D01*
X-17500000Y-3500000D02*
X-17250000Y-3250000D01*
X-7240000Y-21350000D02*
X-8510000Y-20080000D01*
X-14170000Y-20080000D02*
X-17500000Y-16750000D01*
X-17500000Y-16750000D02*
X-17500000Y-3500000D01*
X-17250000Y-68250000D02*
X-17250000Y-67750000D01*
X-8510000Y-85080000D02*
X-14170000Y-85080000D01*
X-17500000Y-68500000D02*
X-17250000Y-68250000D01*
X-7240000Y-86350000D02*
X-8510000Y-85080000D01*
X-14170000Y-85080000D02*
X-17500000Y-81750000D01*
X-17500000Y-81750000D02*
X-17500000Y-68500000D01*
X23000000Y1000000D02*
X22250000Y1750000D01*
X13500000Y-8000000D02*
X13500000Y-1250000D01*
X22250000Y1750000D02*
X21750000Y1750000D01*
X12250000Y-9250000D02*
X13500000Y-8000000D01*
X20000000Y-750000D02*
X21000000Y-1750000D01*
X3500000Y-17250000D02*
X3500000Y-9750000D01*
X3500000Y-9750000D02*
X4000000Y-9250000D01*
X13500000Y-1250000D02*
X14000000Y-750000D01*
X14000000Y-750000D02*
X20000000Y-750000D01*
X21000000Y-1750000D02*
X22250000Y-1750000D01*
X4000000Y-9250000D02*
X12250000Y-9250000D01*
X22250000Y-1750000D02*
X23000000Y-1000000D01*
X23000000Y-1000000D02*
X23000000Y1000000D01*
X-18000000Y-17250000D02*
X-16000000Y-19250000D01*
X-18000000Y-2250000D02*
X-18000000Y-17250000D01*
X23000000Y-64000000D02*
X22250000Y-63250000D01*
X13500000Y-73000000D02*
X13500000Y-66250000D01*
X22250000Y-63250000D02*
X21750000Y-63250000D01*
X12250000Y-74250000D02*
X13500000Y-73000000D01*
X20000000Y-65750000D02*
X21000000Y-66750000D01*
X3500000Y-82250000D02*
X3500000Y-74750000D01*
X3500000Y-74750000D02*
X4000000Y-74250000D01*
X13500000Y-66250000D02*
X14000000Y-65750000D01*
X14000000Y-65750000D02*
X20000000Y-65750000D01*
X21000000Y-66750000D02*
X22250000Y-66750000D01*
X4000000Y-74250000D02*
X12250000Y-74250000D01*
X22250000Y-66750000D02*
X23000000Y-66000000D01*
X23000000Y-66000000D02*
X23000000Y-64000000D01*
X-18000000Y-82250000D02*
X-16000000Y-84250000D01*
X-18000000Y-67250000D02*
X-18000000Y-82250000D01*
X-12320000Y-16680000D02*
X-12320000Y-14905000D01*
X-12320000Y-18810000D02*
X-12320000Y-16680000D01*
X-12320000Y-81680000D02*
X-12320000Y-79905000D01*
X-12320000Y-83810000D02*
X-12320000Y-81680000D01*
X31250000Y-500000D02*
X30750000Y0D01*
X26000000Y2000000D02*
X26000000Y7000000D01*
X30750000Y0D02*
X28000000Y0D01*
X28000000Y0D02*
X26000000Y2000000D01*
X31250000Y-65500000D02*
X30750000Y-65000000D01*
X26000000Y-63000000D02*
X26000000Y-58000000D01*
X30750000Y-65000000D02*
X28000000Y-65000000D01*
X28000000Y-65000000D02*
X26000000Y-63000000D01*
X21250000Y1000000D02*
X21750000Y1000000D01*
X20750000Y1000000D02*
X21250000Y1000000D01*
X2000000Y-9000000D02*
X3250000Y-7750000D01*
X13250000Y750000D02*
X20500000Y750000D01*
X12000000Y-500000D02*
X13250000Y750000D01*
X-9780000Y-18810000D02*
X-6970000Y-16000000D01*
X-6970000Y-16000000D02*
X1500000Y-16000000D01*
X3250000Y-7750000D02*
X11500000Y-7750000D01*
X11500000Y-7750000D02*
X12000000Y-7250000D01*
X12000000Y-7250000D02*
X12000000Y-500000D01*
X1500000Y-16000000D02*
X2000000Y-15500000D01*
X2000000Y-15500000D02*
X2000000Y-9000000D01*
X20500000Y750000D02*
X20750000Y1000000D01*
X21250000Y-64000000D02*
X21750000Y-64000000D01*
X20750000Y-64000000D02*
X21250000Y-64000000D01*
X2000000Y-74000000D02*
X3250000Y-72750000D01*
X13250000Y-64250000D02*
X20500000Y-64250000D01*
X12000000Y-65500000D02*
X13250000Y-64250000D01*
X-9780000Y-83810000D02*
X-6970000Y-81000000D01*
X-6970000Y-81000000D02*
X1500000Y-81000000D01*
X3250000Y-72750000D02*
X11500000Y-72750000D01*
X11500000Y-72750000D02*
X12000000Y-72250000D01*
X12000000Y-72250000D02*
X12000000Y-65500000D01*
X1500000Y-81000000D02*
X2000000Y-80500000D01*
X2000000Y-80500000D02*
X2000000Y-74000000D01*
X20500000Y-64250000D02*
X20750000Y-64000000D01*
X-31900000Y1900000D02*
X-31750000Y1900000D01*
X-32500000Y2500000D02*
X-31900000Y1900000D01*
X-32500000Y10750000D02*
X-32500000Y2500000D01*
X-38850000Y11750000D02*
X-33500000Y11750000D01*
X-33500000Y11750000D02*
X-32500000Y10750000D01*
X-31900000Y-63100000D02*
X-31750000Y-63100000D01*
X-32500000Y-62500000D02*
X-31900000Y-63100000D01*
X-32500000Y-54250000D02*
X-32500000Y-62500000D01*
X-38850000Y-53250000D02*
X-33500000Y-53250000D01*
X-33500000Y-53250000D02*
X-32500000Y-54250000D01*
X4750000Y5000000D02*
X2000000Y5000000D01*
X5750000Y4000000D02*
X4750000Y5000000D01*
X10250000Y3250000D02*
X9500000Y4000000D01*
X4500000Y-5000000D02*
X6500000Y-7000000D01*
X9500000Y4000000D02*
X5750000Y4000000D01*
X2000000Y-5000000D02*
X4500000Y-5000000D01*
X10250000Y-6250000D02*
X10250000Y3250000D01*
X6500000Y-7000000D02*
X9500000Y-7000000D01*
X9500000Y-7000000D02*
X10250000Y-6250000D01*
X-2000000Y-9500000D02*
X1500000Y-6000000D01*
X2000000Y-5500000D02*
X2000000Y-5000000D01*
X1500000Y-6000000D02*
X2000000Y-5500000D01*
X4750000Y-60000000D02*
X2000000Y-60000000D01*
X5750000Y-61000000D02*
X4750000Y-60000000D01*
X10250000Y-61750000D02*
X9500000Y-61000000D01*
X4500000Y-70000000D02*
X6500000Y-72000000D01*
X9500000Y-61000000D02*
X5750000Y-61000000D01*
X2000000Y-70000000D02*
X4500000Y-70000000D01*
X10250000Y-71250000D02*
X10250000Y-61750000D01*
X6500000Y-72000000D02*
X9500000Y-72000000D01*
X9500000Y-72000000D02*
X10250000Y-71250000D01*
X-2000000Y-74500000D02*
X1500000Y-71000000D01*
X2000000Y-70500000D02*
X2000000Y-70000000D01*
X1500000Y-71000000D02*
X2000000Y-70500000D01*
X-3000000Y-9500000D02*
X-3500000Y-9500000D01*
X1250000Y-5250000D02*
X-3000000Y-9500000D01*
X9750000Y3000000D02*
X9750000Y-6000000D01*
X4250000Y2000000D02*
X5750000Y3500000D01*
X5750000Y3500000D02*
X9250000Y3500000D01*
X2000000Y2000000D02*
X4250000Y2000000D01*
X9750000Y-6000000D02*
X9250000Y-6500000D01*
X6750000Y-6500000D02*
X4500000Y-4250000D01*
X9250000Y-6500000D02*
X6750000Y-6500000D01*
X1250000Y-4750000D02*
X1250000Y-5250000D01*
X4500000Y-4250000D02*
X1750000Y-4250000D01*
X9250000Y3500000D02*
X9750000Y3000000D01*
X1750000Y-4250000D02*
X1250000Y-4750000D01*
X-3000000Y-74500000D02*
X-3500000Y-74500000D01*
X1250000Y-70250000D02*
X-3000000Y-74500000D01*
X9750000Y-62000000D02*
X9750000Y-71000000D01*
X4250000Y-63000000D02*
X5750000Y-61500000D01*
X5750000Y-61500000D02*
X9250000Y-61500000D01*
X2000000Y-63000000D02*
X4250000Y-63000000D01*
X9750000Y-71000000D02*
X9250000Y-71500000D01*
X6750000Y-71500000D02*
X4500000Y-69250000D01*
X9250000Y-71500000D02*
X6750000Y-71500000D01*
X1250000Y-69750000D02*
X1250000Y-70250000D01*
X4500000Y-69250000D02*
X1750000Y-69250000D01*
X9250000Y-61500000D02*
X9750000Y-62000000D01*
X1750000Y-69250000D02*
X1250000Y-69750000D01*
X-250000Y-5750000D02*
X-3250000Y-8750000D01*
X-3250000Y-8750000D02*
X-4250000Y-8750000D01*
X2000000Y-3250000D02*
X1000000Y-4250000D01*
X1000000Y-4250000D02*
X250000Y-4250000D01*
X250000Y-4250000D02*
X-250000Y-4750000D01*
X-250000Y-4750000D02*
X-250000Y-5750000D01*
X-4250000Y-8750000D02*
X-5000000Y-9500000D01*
X2000000Y-2000000D02*
X2000000Y-3250000D01*
X-250000Y-70750000D02*
X-3250000Y-73750000D01*
X-3250000Y-73750000D02*
X-4250000Y-73750000D01*
X2000000Y-68250000D02*
X1000000Y-69250000D01*
X1000000Y-69250000D02*
X250000Y-69250000D01*
X250000Y-69250000D02*
X-250000Y-69750000D01*
X-250000Y-69750000D02*
X-250000Y-70750000D01*
X-4250000Y-73750000D02*
X-5000000Y-74500000D01*
X2000000Y-67000000D02*
X2000000Y-68250000D01*
X-16250000Y1500000D02*
X-17250000Y2500000D01*
X-17250000Y2500000D02*
X-17250000Y4000000D01*
X-17250000Y4000000D02*
X-18250000Y5000000D01*
X-18750000Y5000000D02*
X-18250000Y5000000D01*
X-20000000Y-9250000D02*
X-21500000Y-7750000D01*
X-18875000Y5125000D02*
X-18750000Y5000000D01*
X-24750000Y-4500000D02*
X-24750000Y4500000D01*
X-24750000Y4500000D02*
X-24125000Y5125000D01*
X-24125000Y5125000D02*
X-18875000Y5125000D01*
X-19500000Y-22750000D02*
X-20000000Y-22250000D01*
X9500000Y-21250000D02*
X8000000Y-22750000D01*
X-20000000Y-22250000D02*
X-20000000Y-9250000D01*
X8000000Y-22750000D02*
X-19500000Y-22750000D01*
X-21500000Y-7750000D02*
X-21500000Y-5875000D01*
X-21500000Y-5875000D02*
X-22250000Y-5125000D01*
X-24125000Y-5125000D02*
X-24750000Y-4500000D01*
X-22250000Y-5125000D02*
X-24125000Y-5125000D01*
X-18750000Y-60000000D02*
X-18250000Y-60000000D01*
X-20000000Y-74250000D02*
X-21500000Y-72750000D01*
X-18875000Y-59875000D02*
X-18750000Y-60000000D01*
X-24750000Y-69500000D02*
X-24750000Y-60500000D01*
X-24750000Y-60500000D02*
X-24125000Y-59875000D01*
X-24125000Y-59875000D02*
X-18875000Y-59875000D01*
X-19500000Y-87750000D02*
X-20000000Y-87250000D01*
X9500000Y-86250000D02*
X8000000Y-87750000D01*
X-20000000Y-87250000D02*
X-20000000Y-74250000D01*
X8000000Y-87750000D02*
X-19500000Y-87750000D01*
X-21500000Y-72750000D02*
X-21500000Y-70875000D01*
X-21500000Y-70875000D02*
X-22250000Y-70125000D01*
X-24125000Y-70125000D02*
X-24750000Y-69500000D01*
X-22250000Y-70125000D02*
X-24125000Y-70125000D01*
X-16250000Y-63500000D02*
X-17250000Y-62500000D01*
X-17250000Y-62500000D02*
X-17250000Y-61000000D01*
X-17250000Y-61000000D02*
X-18250000Y-60000000D01*
X-15500000Y2000000D02*
X-15625000Y2125000D01*
X-15625000Y2125000D02*
X-16250000Y2125000D01*
X-16250000Y2125000D02*
X-16750000Y2625000D01*
X-16750000Y2625000D02*
X-16750000Y4250000D01*
X-16750000Y4250000D02*
X-17500000Y5000000D01*
X-17500000Y5000000D02*
X-17500000Y5750000D01*
X-18750000Y5750000D02*
X-17500000Y5750000D01*
X-18875000Y5625000D02*
X-18750000Y5750000D01*
X-24375000Y5625000D02*
X-18875000Y5625000D01*
X-24375000Y-5625000D02*
X-25250000Y-4750000D01*
X-22000000Y-6125000D02*
X-22500000Y-5625000D01*
X-19750000Y-23250000D02*
X-20500000Y-22500000D01*
X9000000Y-23250000D02*
X-19750000Y-23250000D01*
X9500000Y-22750000D02*
X9000000Y-23250000D01*
X-20500000Y-9500000D02*
X-22000000Y-8000000D01*
X-20500000Y-22500000D02*
X-20500000Y-9500000D01*
X-22000000Y-8000000D02*
X-22000000Y-6125000D01*
X-22500000Y-5625000D02*
X-24375000Y-5625000D01*
X-25250000Y4750000D02*
X-24375000Y5625000D01*
X-25250000Y-4750000D02*
X-25250000Y4750000D01*
X-15500000Y-63000000D02*
X-15625000Y-62875000D01*
X-15625000Y-62875000D02*
X-16250000Y-62875000D01*
X-16250000Y-62875000D02*
X-16750000Y-62375000D01*
X-16750000Y-62375000D02*
X-16750000Y-60750000D01*
X-16750000Y-60750000D02*
X-17500000Y-60000000D01*
X-17500000Y-60000000D02*
X-17500000Y-59250000D01*
X-18750000Y-59250000D02*
X-17500000Y-59250000D01*
X-18875000Y-59375000D02*
X-18750000Y-59250000D01*
X-24375000Y-59375000D02*
X-18875000Y-59375000D01*
X-24375000Y-70625000D02*
X-25250000Y-69750000D01*
X-22000000Y-71125000D02*
X-22500000Y-70625000D01*
X-19750000Y-88250000D02*
X-20500000Y-87500000D01*
X9000000Y-88250000D02*
X-19750000Y-88250000D01*
X9500000Y-87750000D02*
X9000000Y-88250000D01*
X-20500000Y-74500000D02*
X-22000000Y-73000000D01*
X-20500000Y-87500000D02*
X-20500000Y-74500000D01*
X-22000000Y-73000000D02*
X-22000000Y-71125000D01*
X-22500000Y-70625000D02*
X-24375000Y-70625000D01*
X-25250000Y-60250000D02*
X-24375000Y-59375000D01*
X-25250000Y-69750000D02*
X-25250000Y-60250000D01*
X-14250000Y-6000000D02*
X-8500000Y-6000000D01*
X-7500000Y-7000000D02*
X-7500000Y-8250000D01*
X-8500000Y-6000000D02*
X-7500000Y-7000000D01*
X-14250000Y-71000000D02*
X-8500000Y-71000000D01*
X-7500000Y-72000000D02*
X-7500000Y-73250000D01*
X-8500000Y-71000000D02*
X-7500000Y-72000000D01*
X7500000Y2250000D02*
X8250000Y2250000D01*
X8250000Y2250000D02*
X8750000Y2750000D01*
X6250000Y1000000D02*
X7500000Y2250000D01*
X-8250000Y6750000D02*
X-6500000Y5000000D01*
X-6500000Y5000000D02*
X-3500000Y5000000D01*
X-10250000Y6750000D02*
X-8250000Y6750000D01*
X-11500000Y5500000D02*
X-10250000Y6750000D01*
X500000Y1000000D02*
X6250000Y1000000D01*
X-3500000Y5000000D02*
X500000Y1000000D01*
X7500000Y-62750000D02*
X8250000Y-62750000D01*
X8250000Y-62750000D02*
X8750000Y-62250000D01*
X6250000Y-64000000D02*
X7500000Y-62750000D01*
X-8250000Y-58250000D02*
X-6500000Y-60000000D01*
X-6500000Y-60000000D02*
X-3500000Y-60000000D01*
X-10250000Y-58250000D02*
X-8250000Y-58250000D01*
X-11500000Y-59500000D02*
X-10250000Y-58250000D01*
X500000Y-64000000D02*
X6250000Y-64000000D01*
X-3500000Y-60000000D02*
X500000Y-64000000D01*
X-7000000Y4000000D02*
X-7500000Y3500000D01*
X-3750000Y4500000D02*
X-6500000Y4500000D01*
X8250000Y1750000D02*
X7750000Y1750000D01*
X8750000Y1250000D02*
X8250000Y1750000D01*
X7750000Y1750000D02*
X6500000Y500000D01*
X250000Y500000D02*
X-3750000Y4500000D01*
X-6500000Y4500000D02*
X-7000000Y4000000D01*
X6500000Y500000D02*
X250000Y500000D01*
X-7000000Y-61000000D02*
X-7500000Y-61500000D01*
X-3750000Y-60500000D02*
X-6500000Y-60500000D01*
X8250000Y-63250000D02*
X7750000Y-63250000D01*
X8750000Y-63750000D02*
X8250000Y-63250000D01*
X7750000Y-63250000D02*
X6500000Y-64500000D01*
X250000Y-64500000D02*
X-3750000Y-60500000D01*
X-6500000Y-60500000D02*
X-7000000Y-61000000D01*
X6500000Y-64500000D02*
X250000Y-64500000D01*
X7750000Y-4750000D02*
X8250000Y-4750000D01*
X7250000Y-1250000D02*
X7250000Y-4250000D01*
X-7000000Y2000000D02*
X-7000000Y1750000D01*
X-6000000Y3000000D02*
X-7000000Y2000000D01*
X-750000Y-500000D02*
X6500000Y-500000D01*
X-6500000Y1250000D02*
X-2500000Y1250000D01*
X8250000Y-4750000D02*
X8750000Y-4250000D01*
X7250000Y-4250000D02*
X7750000Y-4750000D01*
X-7000000Y1750000D02*
X-6500000Y1250000D01*
X6500000Y-500000D02*
X7250000Y-1250000D01*
X-2500000Y1250000D02*
X-750000Y-500000D01*
X7750000Y-69750000D02*
X8250000Y-69750000D01*
X7250000Y-66250000D02*
X7250000Y-69250000D01*
X-7000000Y-63000000D02*
X-7000000Y-63250000D01*
X-6000000Y-62000000D02*
X-7000000Y-63000000D01*
X-750000Y-65500000D02*
X6500000Y-65500000D01*
X-6500000Y-63750000D02*
X-2500000Y-63750000D01*
X8250000Y-69750000D02*
X8750000Y-69250000D01*
X7250000Y-69250000D02*
X7750000Y-69750000D01*
X-7000000Y-63250000D02*
X-6500000Y-63750000D01*
X6500000Y-65500000D02*
X7250000Y-66250000D01*
X-2500000Y-63750000D02*
X-750000Y-65500000D01*
X8250000Y-5250000D02*
X8750000Y-5750000D01*
X7500000Y-5250000D02*
X8250000Y-5250000D01*
X-7500000Y1500000D02*
X-6750000Y750000D01*
X-2750000Y750000D02*
X-1000000Y-1000000D01*
X-7500000Y2000000D02*
X-7500000Y1500000D01*
X-8250000Y2750000D02*
X-7500000Y2000000D01*
X-7750000Y4250000D02*
X-8250000Y3750000D01*
X-6750000Y750000D02*
X-2750000Y750000D01*
X6750000Y-1500000D02*
X6750000Y-4500000D01*
X-8250000Y3750000D02*
X-8250000Y2750000D01*
X-1000000Y-1000000D02*
X6250000Y-1000000D01*
X6250000Y-1000000D02*
X6750000Y-1500000D01*
X6750000Y-4500000D02*
X7500000Y-5250000D01*
X8250000Y-70250000D02*
X8750000Y-70750000D01*
X7500000Y-70250000D02*
X8250000Y-70250000D01*
X-7500000Y-63500000D02*
X-6750000Y-64250000D01*
X-2750000Y-64250000D02*
X-1000000Y-66000000D01*
X-7500000Y-63000000D02*
X-7500000Y-63500000D01*
X-8250000Y-62250000D02*
X-7500000Y-63000000D01*
X-7750000Y-60750000D02*
X-8250000Y-61250000D01*
X-6750000Y-64250000D02*
X-2750000Y-64250000D01*
X6750000Y-66500000D02*
X6750000Y-69500000D01*
X-8250000Y-61250000D02*
X-8250000Y-62250000D01*
X-1000000Y-66000000D02*
X6250000Y-66000000D01*
X6250000Y-66000000D02*
X6750000Y-66500000D01*
X6750000Y-69500000D02*
X7500000Y-70250000D01*
X-19000000Y10250000D02*
X-18500000Y9750000D01*
X-18500000Y21650000D02*
X-18500000Y13750000D01*
X-19000000Y13250000D02*
X-19000000Y10250000D01*
X-18500000Y13750000D02*
X-19000000Y13250000D01*
X-19000000Y-54750000D02*
X-18500000Y-55250000D01*
X-18500000Y-43350000D02*
X-18500000Y-51250000D01*
X-19000000Y-51750000D02*
X-19000000Y-54750000D01*
X-18500000Y-51250000D02*
X-19000000Y-51750000D01*
X-16000000Y4000000D02*
X-16000000Y2750000D01*
X-16000000Y-61000000D02*
X-16000000Y-62250000D01*
X-15300000Y7750000D02*
X-15300000Y6550000D01*
X-14250000Y5500000D02*
X-13500000Y5500000D01*
X-15300000Y6550000D02*
X-14250000Y5500000D01*
X-15300000Y-57250000D02*
X-15300000Y-58450000D01*
X-14250000Y-59500000D02*
X-13500000Y-59500000D01*
X-15300000Y-58450000D02*
X-14250000Y-59500000D01*
X-16100000Y6600000D02*
X-14000000Y4500000D01*
X-16100000Y7750000D02*
X-16100000Y6600000D01*
X-16100000Y-58400000D02*
X-14000000Y-60500000D01*
X-16100000Y-57250000D02*
X-16100000Y-58400000D01*
X-15750000Y-5250000D02*
X-16500000Y-6000000D01*
X-15750000Y-4000000D02*
X-15750000Y-5250000D01*
X-15750000Y-70250000D02*
X-16500000Y-71000000D01*
X-15750000Y-69000000D02*
X-15750000Y-70250000D01*
X-9500000Y-5250000D02*
X-14750000Y-5250000D01*
X-9500000Y-70250000D02*
X-14750000Y-70250000D01*
X3000000Y-16250000D02*
X2500000Y-16750000D01*
X3000000Y-9500000D02*
X3000000Y-16250000D01*
X22500000Y0D02*
X22500000Y-750000D01*
X22000000Y-1250000D02*
X21250000Y-1250000D01*
X3750000Y-8750000D02*
X3000000Y-9500000D01*
X21750000Y250000D02*
X22250000Y250000D01*
X22500000Y-750000D02*
X22000000Y-1250000D01*
X13750000Y-250000D02*
X13000000Y-1000000D01*
X22250000Y250000D02*
X22500000Y0D01*
X21250000Y-1250000D02*
X20250000Y-250000D01*
X20250000Y-250000D02*
X13750000Y-250000D01*
X13000000Y-1000000D02*
X13000000Y-7750000D01*
X12000000Y-8750000D02*
X3750000Y-8750000D01*
X13000000Y-7750000D02*
X12000000Y-8750000D01*
X3000000Y-81250000D02*
X2500000Y-81750000D01*
X3000000Y-74500000D02*
X3000000Y-81250000D01*
X22500000Y-65000000D02*
X22500000Y-65750000D01*
X22000000Y-66250000D02*
X21250000Y-66250000D01*
X3750000Y-73750000D02*
X3000000Y-74500000D01*
X21750000Y-64750000D02*
X22250000Y-64750000D01*
X22500000Y-65750000D02*
X22000000Y-66250000D01*
X13750000Y-65250000D02*
X13000000Y-66000000D01*
X22250000Y-64750000D02*
X22500000Y-65000000D01*
X21250000Y-66250000D02*
X20250000Y-65250000D01*
X20250000Y-65250000D02*
X13750000Y-65250000D01*
X13000000Y-66000000D02*
X13000000Y-72750000D01*
X12000000Y-73750000D02*
X3750000Y-73750000D01*
X13000000Y-72750000D02*
X12000000Y-73750000D01*
D25*
X-15425000Y17675000D02*
X-15250000Y17500000D01*
X-16250000Y17675000D02*
X-15425000Y17675000D01*
X-15250000Y17500000D02*
X-8500000Y17500000D01*
X-8500000Y17500000D02*
X-6750000Y19250000D01*
X-15425000Y-47325000D02*
X-15250000Y-47500000D01*
X-16250000Y-47325000D02*
X-15425000Y-47325000D01*
X-15250000Y-47500000D02*
X-8500000Y-47500000D01*
X-8500000Y-47500000D02*
X-6750000Y-45750000D01*
D27*
X-6250000Y-5500000D02*
X-6250000Y-9500000D01*
X-2450000Y-14250000D02*
X-2450000Y-13800000D01*
X-6250000Y-10000000D02*
X-6250000Y-9500000D01*
X-2450000Y-13800000D02*
X-6250000Y-10000000D01*
X-6250000Y-70500000D02*
X-6250000Y-74500000D01*
X-2450000Y-79250000D02*
X-2450000Y-78800000D01*
X-6250000Y-75000000D02*
X-6250000Y-74500000D01*
X-2450000Y-78800000D02*
X-6250000Y-75000000D01*
X-1650000Y-14250000D02*
X-1650000Y-14100000D01*
X-6250000Y-3000000D02*
X-5000000Y-4250000D01*
X-6250000Y-1500000D02*
X-6250000Y-3000000D01*
X-5000000Y-4250000D02*
X-5000000Y-5250000D01*
X-5750000Y-6000000D02*
X-5750000Y-9750000D01*
X-5000000Y-5250000D02*
X-5750000Y-6000000D01*
X-1650000Y-13850000D02*
X-5750000Y-9750000D01*
X-1650000Y-14250000D02*
X-1650000Y-13850000D01*
X-1650000Y-79250000D02*
X-1650000Y-79100000D01*
X-6250000Y-68000000D02*
X-5000000Y-69250000D01*
X-6250000Y-66500000D02*
X-6250000Y-68000000D01*
X-5000000Y-69250000D02*
X-5000000Y-70250000D01*
X-5750000Y-71000000D02*
X-5750000Y-74750000D01*
X-5000000Y-70250000D02*
X-5750000Y-71000000D01*
X-1650000Y-78850000D02*
X-5750000Y-74750000D01*
X-1650000Y-79250000D02*
X-1650000Y-78850000D01*
D26*
G36*
X-35875000Y4698224D02*
G01*
X-35875000Y4051776D01*
X-36301776Y3625000D01*
X-38250000Y3625000D01*
X-38274386Y3622598D01*
X-38297835Y3615485D01*
X-38319446Y3603934D01*
X-38338388Y3588388D01*
X-38588388Y3338388D01*
X-38603934Y3319446D01*
X-38615485Y3297835D01*
X-38622598Y3274386D01*
X-38625000Y3250000D01*
X-38625000Y-3250000D01*
X-38622598Y-3274386D01*
X-38615485Y-3297835D01*
X-38603934Y-3319446D01*
X-38588388Y-3338388D01*
X-38338388Y-3588388D01*
X-38319446Y-3603934D01*
X-38297835Y-3615485D01*
X-38274386Y-3622598D01*
X-38250000Y-3625000D01*
X-36301776Y-3625000D01*
X-35875000Y-4051776D01*
X-35875000Y-4698224D01*
X-36301776Y-5125000D01*
X-41948224Y-5125000D01*
X-42375000Y-4698224D01*
X-42375000Y4698224D01*
X-41948224Y5125000D01*
X-36301776Y5125000D01*
X-35875000Y4698224D01*
G37*
X-35875000Y4698224D02*
X-35875000Y4051776D01*
X-36301776Y3625000D01*
X-38250000Y3625000D01*
X-38274386Y3622598D01*
X-38297835Y3615485D01*
X-38319446Y3603934D01*
X-38338388Y3588388D01*
X-38588388Y3338388D01*
X-38603934Y3319446D01*
X-38615485Y3297835D01*
X-38622598Y3274386D01*
X-38625000Y3250000D01*
X-38625000Y-3250000D01*
X-38622598Y-3274386D01*
X-38615485Y-3297835D01*
X-38603934Y-3319446D01*
X-38588388Y-3338388D01*
X-38338388Y-3588388D01*
X-38319446Y-3603934D01*
X-38297835Y-3615485D01*
X-38274386Y-3622598D01*
X-38250000Y-3625000D01*
X-36301776Y-3625000D01*
X-35875000Y-4051776D01*
X-35875000Y-4698224D01*
X-36301776Y-5125000D01*
X-41948224Y-5125000D01*
X-42375000Y-4698224D01*
X-42375000Y4698224D01*
X-41948224Y5125000D01*
X-36301776Y5125000D01*
X-35875000Y4698224D01*
G36*
X-35875000Y-60301776D02*
G01*
X-35875000Y-60948224D01*
X-36301776Y-61375000D01*
X-38250000Y-61375000D01*
X-38274386Y-61377402D01*
X-38297835Y-61384515D01*
X-38319446Y-61396066D01*
X-38338388Y-61411612D01*
X-38588388Y-61661612D01*
X-38603934Y-61680554D01*
X-38615485Y-61702165D01*
X-38622598Y-61725614D01*
X-38625000Y-61750000D01*
X-38625000Y-68250000D01*
X-38622598Y-68274386D01*
X-38615485Y-68297835D01*
X-38603934Y-68319446D01*
X-38588388Y-68338388D01*
X-38338388Y-68588388D01*
X-38319446Y-68603934D01*
X-38297835Y-68615485D01*
X-38274386Y-68622598D01*
X-38250000Y-68625000D01*
X-36301776Y-68625000D01*
X-35875000Y-69051776D01*
X-35875000Y-69698224D01*
X-36301776Y-70125000D01*
X-41948224Y-70125000D01*
X-42375000Y-69698224D01*
X-42375000Y-60301776D01*
X-41948224Y-59875000D01*
X-36301776Y-59875000D01*
X-35875000Y-60301776D01*
G37*
X-35875000Y-60301776D02*
X-35875000Y-60948224D01*
X-36301776Y-61375000D01*
X-38250000Y-61375000D01*
X-38274386Y-61377402D01*
X-38297835Y-61384515D01*
X-38319446Y-61396066D01*
X-38338388Y-61411612D01*
X-38588388Y-61661612D01*
X-38603934Y-61680554D01*
X-38615485Y-61702165D01*
X-38622598Y-61725614D01*
X-38625000Y-61750000D01*
X-38625000Y-68250000D01*
X-38622598Y-68274386D01*
X-38615485Y-68297835D01*
X-38603934Y-68319446D01*
X-38588388Y-68338388D01*
X-38338388Y-68588388D01*
X-38319446Y-68603934D01*
X-38297835Y-68615485D01*
X-38274386Y-68622598D01*
X-38250000Y-68625000D01*
X-36301776Y-68625000D01*
X-35875000Y-69051776D01*
X-35875000Y-69698224D01*
X-36301776Y-70125000D01*
X-41948224Y-70125000D01*
X-42375000Y-69698224D01*
X-42375000Y-60301776D01*
X-41948224Y-59875000D01*
X-36301776Y-59875000D01*
X-35875000Y-60301776D01*
M02*
