G04 #@! TF.GenerationSoftware,KiCad,Pcbnew,5.1.5*
G04 #@! TF.CreationDate,2020-09-01T20:47:55+02:00*
G04 #@! TF.ProjectId,icE1usb-panel,69634531-7573-4622-9d70-616e656c2e6b,1.0*
G04 #@! TF.SameCoordinates,Original*
G04 #@! TF.FileFunction,Profile,NP*
%FSLAX46Y46*%
G04 Gerber Fmt 4.6, Leading zero omitted, Abs format (unit mm)*
G04 Created by KiCad (PCBNEW 5.1.5) date 2020-09-01 20:47:55*
%MOMM*%
%LPD*%
G04 APERTURE LIST*
%ADD10C,0.050000*%
G04 APERTURE END LIST*
D10*
X50000000Y-98750000D02*
X-50000000Y-98750000D01*
X-50000000Y33750000D02*
X50000000Y33750000D01*
X50000000Y-32500000D02*
X50000000Y-98750000D01*
X-50000000Y-32500000D02*
X-50000000Y-98750000D01*
X-32250000Y-39500000D02*
X-35250000Y-39500000D01*
X-32250000Y-90500000D02*
X-35250000Y-90500000D01*
X-27750000Y-39500000D02*
X27750000Y-39500000D01*
X43000000Y-42500000D02*
X43000000Y-87500000D01*
X27750000Y-90500000D02*
X-27750000Y-90500000D01*
X-43000000Y-87500000D02*
X-43000000Y-42500000D01*
X37500000Y-91500000D02*
X40500000Y-91500000D01*
X36310660Y-90939340D02*
G75*
G03X35250000Y-90500000I-1060660J-1060660D01*
G01*
X-27750000Y-37500000D02*
X27750000Y-37500000D01*
X27750000Y-92500000D02*
X-27750000Y-92500000D01*
X37500000Y-93500000D02*
X40500000Y-93500000D01*
X44000000Y-90000000D02*
G75*
G02X40500000Y-93500000I-3500000J0D01*
G01*
X45000000Y-87500000D02*
X45000000Y-42500000D01*
X-45000000Y-42500000D02*
X-45000000Y-87500000D01*
X-32250000Y-37500000D02*
G75*
G02X-32250000Y-39500000I0J-1000000D01*
G01*
X-27750000Y-39500000D02*
G75*
G02X-27750000Y-37500000I0J1000000D01*
G01*
X-32250000Y-37500000D02*
X-35000000Y-37500000D01*
X32250000Y-39500000D02*
G75*
G02X32250000Y-37500000I0J1000000D01*
G01*
X27750000Y-37500000D02*
G75*
G02X27750000Y-39500000I0J-1000000D01*
G01*
X32250000Y-37500000D02*
X35000000Y-37500000D01*
X-32250000Y-90500000D02*
G75*
G02X-32250000Y-92500000I0J-1000000D01*
G01*
X-27750000Y-92500000D02*
G75*
G02X-27750000Y-90500000I0J1000000D01*
G01*
X-32250000Y-92500000D02*
X-35000000Y-92500000D01*
X32250000Y-92500000D02*
G75*
G02X32250000Y-90500000I0J1000000D01*
G01*
X27750000Y-90500000D02*
G75*
G02X27750000Y-92500000I0J-1000000D01*
G01*
X32250000Y-92500000D02*
X35000000Y-92500000D01*
X42560660Y-88560660D02*
G75*
G03X43000000Y-87500000I-1060660J1060660D01*
G01*
X42439340Y-88689340D02*
G75*
G03X42000000Y-89750000I1060660J-1060660D01*
G01*
X42000000Y-90000000D02*
G75*
G02X40500000Y-91500000I-1500000J0D01*
G01*
X36439340Y-91060660D02*
G75*
G03X37500000Y-91500000I1060660J1060660D01*
G01*
X36310660Y-90939340D02*
X36439340Y-91060660D01*
X42560660Y-88560660D02*
X42439340Y-88689340D01*
X42000000Y-89750000D02*
X42000000Y-90000000D01*
X-36310660Y-39060660D02*
G75*
G03X-35250000Y-39500000I1060660J1060660D01*
G01*
X-37500000Y-38500000D02*
X-40500000Y-38500000D01*
X-36439340Y-38939340D02*
G75*
G03X-37500000Y-38500000I-1060660J-1060660D01*
G01*
X-42000000Y-40250000D02*
X-42000000Y-40000000D01*
X-36310660Y-39060660D02*
X-36439340Y-38939340D01*
X-42000000Y-40000000D02*
G75*
G02X-40500000Y-38500000I1500000J0D01*
G01*
X-42560660Y-41439340D02*
X-42439340Y-41310660D01*
X-42439340Y-41310660D02*
G75*
G03X-42000000Y-40250000I-1060660J1060660D01*
G01*
X-42560660Y-41439340D02*
G75*
G03X-43000000Y-42500000I1060660J-1060660D01*
G01*
X-36310660Y-90939340D02*
G75*
G02X-35250000Y-90500000I1060660J-1060660D01*
G01*
X-37500000Y-91500000D02*
X-40500000Y-91500000D01*
X-36439340Y-91060660D02*
G75*
G02X-37500000Y-91500000I-1060660J1060660D01*
G01*
X-42000000Y-89750000D02*
X-42000000Y-90000000D01*
X-36310660Y-90939340D02*
X-36439340Y-91060660D01*
X-42000000Y-90000000D02*
G75*
G03X-40500000Y-91500000I1500000J0D01*
G01*
X-42560660Y-88560660D02*
X-42439340Y-88689340D01*
X-42439340Y-88689340D02*
G75*
G02X-42000000Y-89750000I-1060660J-1060660D01*
G01*
X-42560660Y-88560660D02*
G75*
G02X-43000000Y-87500000I1060660J1060660D01*
G01*
X37500000Y-38500000D02*
X40500000Y-38500000D01*
X36439340Y-38939340D02*
G75*
G02X37500000Y-38500000I1060660J-1060660D01*
G01*
X36310660Y-39060660D02*
X36439340Y-38939340D01*
X42000000Y-40250000D02*
X42000000Y-40000000D01*
X36310660Y-39060660D02*
G75*
G02X35250000Y-39500000I-1060660J1060660D01*
G01*
X42000000Y-40000000D02*
G75*
G03X40500000Y-38500000I-1500000J0D01*
G01*
X42560660Y-41439340D02*
X42439340Y-41310660D01*
X42439340Y-41310660D02*
G75*
G02X42000000Y-40250000I1060660J1060660D01*
G01*
X42560660Y-41439340D02*
G75*
G02X43000000Y-42500000I-1060660J-1060660D01*
G01*
X35051178Y-92500654D02*
G75*
G03X37500000Y-93500000I2448822J2500654D01*
G01*
X44000654Y-89948822D02*
G75*
G03X45000000Y-87500000I-2500654J2448822D01*
G01*
X35051178Y-92500654D02*
X35000000Y-92500000D01*
X44000000Y-90000000D02*
X44000654Y-89948822D01*
X-44000000Y-40000000D02*
G75*
G02X-40500000Y-36500000I3500000J0D01*
G01*
X-37500000Y-36500000D02*
X-40500000Y-36500000D01*
X-35051178Y-37499346D02*
X-35000000Y-37500000D01*
X-44000654Y-40051178D02*
G75*
G03X-45000000Y-42500000I2500654J-2448822D01*
G01*
X-44000000Y-40000000D02*
X-44000654Y-40051178D01*
X-35051178Y-37499346D02*
G75*
G03X-37500000Y-36500000I-2448822J-2500654D01*
G01*
X44000000Y-40000000D02*
G75*
G03X40500000Y-36500000I-3500000J0D01*
G01*
X37500000Y-36500000D02*
X40500000Y-36500000D01*
X35051178Y-37499346D02*
X35000000Y-37500000D01*
X44000654Y-40051178D02*
G75*
G02X45000000Y-42500000I-2500654J-2448822D01*
G01*
X44000000Y-40000000D02*
X44000654Y-40051178D01*
X35051178Y-37499346D02*
G75*
G02X37500000Y-36500000I2448822J-2500654D01*
G01*
X-44000000Y-90000000D02*
G75*
G03X-40500000Y-93500000I3500000J0D01*
G01*
X-37500000Y-93500000D02*
X-40500000Y-93500000D01*
X-35051178Y-92500654D02*
X-35000000Y-92500000D01*
X-44000654Y-89948822D02*
G75*
G02X-45000000Y-87500000I2500654J2448822D01*
G01*
X-44000000Y-90000000D02*
X-44000654Y-89948822D01*
X-35051178Y-92500654D02*
G75*
G02X-37500000Y-93500000I-2448822J2500654D01*
G01*
X32250000Y-90500000D02*
X35250000Y-90500000D01*
X32250000Y-39500000D02*
X35250000Y-39500000D01*
X50000000Y33750000D02*
X50000000Y-32500000D01*
X-50000000Y33750000D02*
X-50000000Y-32500000D01*
X32250000Y-25500000D02*
X35250000Y-25500000D01*
X-32250000Y-25500000D02*
X-35250000Y-25500000D01*
X32250000Y25500000D02*
X35250000Y25500000D01*
X-32250000Y25500000D02*
X-35250000Y25500000D01*
X-35051178Y-27500654D02*
G75*
G02X-37500000Y-28500000I-2448822J2500654D01*
G01*
X-44000000Y-25000000D02*
X-44000654Y-24948822D01*
X-44000654Y-24948822D02*
G75*
G02X-45000000Y-22500000I2500654J2448822D01*
G01*
X-35051178Y-27500654D02*
X-35000000Y-27500000D01*
X-37500000Y-28500000D02*
X-40500000Y-28500000D01*
X-44000000Y-25000000D02*
G75*
G03X-40500000Y-28500000I3500000J0D01*
G01*
X35051178Y27500654D02*
G75*
G02X37500000Y28500000I2448822J-2500654D01*
G01*
X44000000Y25000000D02*
X44000654Y24948822D01*
X44000654Y24948822D02*
G75*
G02X45000000Y22500000I-2500654J-2448822D01*
G01*
X35051178Y27500654D02*
X35000000Y27500000D01*
X37500000Y28500000D02*
X40500000Y28500000D01*
X44000000Y25000000D02*
G75*
G03X40500000Y28500000I-3500000J0D01*
G01*
X-35051178Y27500654D02*
G75*
G03X-37500000Y28500000I-2448822J-2500654D01*
G01*
X-44000000Y25000000D02*
X-44000654Y24948822D01*
X-44000654Y24948822D02*
G75*
G03X-45000000Y22500000I2500654J-2448822D01*
G01*
X-35051178Y27500654D02*
X-35000000Y27500000D01*
X-37500000Y28500000D02*
X-40500000Y28500000D01*
X-44000000Y25000000D02*
G75*
G02X-40500000Y28500000I3500000J0D01*
G01*
X44000000Y-25000000D02*
X44000654Y-24948822D01*
X35051178Y-27500654D02*
X35000000Y-27500000D01*
X44000654Y-24948822D02*
G75*
G03X45000000Y-22500000I-2500654J2448822D01*
G01*
X35051178Y-27500654D02*
G75*
G03X37500000Y-28500000I2448822J2500654D01*
G01*
X42560660Y23560660D02*
G75*
G02X43000000Y22500000I-1060660J-1060660D01*
G01*
X42439340Y23689340D02*
G75*
G02X42000000Y24750000I1060660J1060660D01*
G01*
X42560660Y23560660D02*
X42439340Y23689340D01*
X42000000Y25000000D02*
G75*
G03X40500000Y26500000I-1500000J0D01*
G01*
X36310660Y25939340D02*
G75*
G02X35250000Y25500000I-1060660J1060660D01*
G01*
X42000000Y24750000D02*
X42000000Y25000000D01*
X36310660Y25939340D02*
X36439340Y26060660D01*
X36439340Y26060660D02*
G75*
G02X37500000Y26500000I1060660J-1060660D01*
G01*
X37500000Y26500000D02*
X40500000Y26500000D01*
X-42560660Y-23560660D02*
G75*
G02X-43000000Y-22500000I1060660J1060660D01*
G01*
X-42439340Y-23689340D02*
G75*
G02X-42000000Y-24750000I-1060660J-1060660D01*
G01*
X-42560660Y-23560660D02*
X-42439340Y-23689340D01*
X-42000000Y-25000000D02*
G75*
G03X-40500000Y-26500000I1500000J0D01*
G01*
X-36310660Y-25939340D02*
X-36439340Y-26060660D01*
X-42000000Y-24750000D02*
X-42000000Y-25000000D01*
X-36439340Y-26060660D02*
G75*
G02X-37500000Y-26500000I-1060660J1060660D01*
G01*
X-37500000Y-26500000D02*
X-40500000Y-26500000D01*
X-36310660Y-25939340D02*
G75*
G02X-35250000Y-25500000I1060660J-1060660D01*
G01*
X-42560660Y23560660D02*
G75*
G03X-43000000Y22500000I1060660J-1060660D01*
G01*
X-42439340Y23689340D02*
G75*
G03X-42000000Y24750000I-1060660J1060660D01*
G01*
X-42560660Y23560660D02*
X-42439340Y23689340D01*
X-42000000Y25000000D02*
G75*
G02X-40500000Y26500000I1500000J0D01*
G01*
X-36310660Y25939340D02*
X-36439340Y26060660D01*
X-42000000Y24750000D02*
X-42000000Y25000000D01*
X-36439340Y26060660D02*
G75*
G03X-37500000Y26500000I-1060660J-1060660D01*
G01*
X-37500000Y26500000D02*
X-40500000Y26500000D01*
X-36310660Y25939340D02*
G75*
G03X-35250000Y25500000I1060660J1060660D01*
G01*
X42000000Y-24750000D02*
X42000000Y-25000000D01*
X42560660Y-23560660D02*
X42439340Y-23689340D01*
X36310660Y-25939340D02*
X36439340Y-26060660D01*
X36439340Y-26060660D02*
G75*
G03X37500000Y-26500000I1060660J1060660D01*
G01*
X42000000Y-25000000D02*
G75*
G02X40500000Y-26500000I-1500000J0D01*
G01*
X42439340Y-23689340D02*
G75*
G03X42000000Y-24750000I1060660J-1060660D01*
G01*
X42560660Y-23560660D02*
G75*
G03X43000000Y-22500000I-1060660J1060660D01*
G01*
X32250000Y-27500000D02*
X35000000Y-27500000D01*
X27750000Y-25500000D02*
G75*
G02X27750000Y-27500000I0J-1000000D01*
G01*
X32250000Y-27500000D02*
G75*
G02X32250000Y-25500000I0J1000000D01*
G01*
X-32250000Y-27500000D02*
X-35000000Y-27500000D01*
X-27750000Y-27500000D02*
G75*
G02X-27750000Y-25500000I0J1000000D01*
G01*
X-32250000Y-25500000D02*
G75*
G02X-32250000Y-27500000I0J-1000000D01*
G01*
X32250000Y27500000D02*
X35000000Y27500000D01*
X27750000Y27500000D02*
G75*
G02X27750000Y25500000I0J-1000000D01*
G01*
X32250000Y25500000D02*
G75*
G02X32250000Y27500000I0J1000000D01*
G01*
X-32250000Y27500000D02*
X-35000000Y27500000D01*
X-27750000Y25500000D02*
G75*
G02X-27750000Y27500000I0J1000000D01*
G01*
X-32250000Y27500000D02*
G75*
G02X-32250000Y25500000I0J-1000000D01*
G01*
X-45000000Y22500000D02*
X-45000000Y-22500000D01*
X45000000Y-22500000D02*
X45000000Y22500000D01*
X44000000Y-25000000D02*
G75*
G02X40500000Y-28500000I-3500000J0D01*
G01*
X37500000Y-28500000D02*
X40500000Y-28500000D01*
X27750000Y-27500000D02*
X-27750000Y-27500000D01*
X-27750000Y27500000D02*
X27750000Y27500000D01*
X36310660Y-25939340D02*
G75*
G03X35250000Y-25500000I-1060660J-1060660D01*
G01*
X37500000Y-26500000D02*
X40500000Y-26500000D01*
X-43000000Y-22500000D02*
X-43000000Y22500000D01*
X27750000Y-25500000D02*
X-27750000Y-25500000D01*
X43000000Y22500000D02*
X43000000Y-22500000D01*
X-27750000Y25500000D02*
X27750000Y25500000D01*
M02*
