M48
; DRILL file {KiCad 5.1.5} date Tue 01 Sep 2020 08:48:06 PM CEST
; FORMAT={-:-/ absolute / metric / decimal}
; #@! TF.CreationDate,2020-09-01T20:48:06+02:00
; #@! TF.GenerationSoftware,Kicad,Pcbnew,5.1.5
; #@! TF.FileFunction,Plated,1,4,PTH
FMAT,2
METRIC
T1C0.300
T2C0.600
T3C0.890
T4C1.000
T5C1.090
T6C1.500
T7C1.570
T8C1.700
%
G90
G05
T1
X-41.5Y9.25
X-41.5Y-55.75
X-38.85Y11.75
X-38.85Y-53.25
X-35.25Y3.25
X-35.25Y2.45
X-35.25Y-2.45
X-35.25Y-3.25
X-35.25Y-61.75
X-35.25Y-62.55
X-35.25Y-67.45
X-35.25Y-68.25
X-34.625Y3.25
X-34.625Y2.45
X-34.625Y-2.45
X-34.625Y-3.25
X-34.625Y-61.75
X-34.625Y-62.55
X-34.625Y-67.45
X-34.625Y-68.25
X-31.75Y1.9
X-31.75Y-0.5
X-31.75Y-2.0
X-31.75Y-3.5
X-31.75Y-63.1
X-31.75Y-65.5
X-31.75Y-67.0
X-31.75Y-68.5
X-30.0Y18.5
X-30.0Y4.25
X-30.0Y-46.5
X-30.0Y-60.75
X-29.25Y16.75
X-29.25Y-48.25
X-29.0Y4.0
X-29.0Y-61.0
X-28.25Y4.5
X-28.25Y3.5
X-28.25Y-0.5
X-28.25Y-2.0
X-28.25Y-3.5
X-28.25Y-60.5
X-28.25Y-61.5
X-28.25Y-65.5
X-28.25Y-67.0
X-28.25Y-68.5
X-27.75Y21.65
X-27.75Y19.45
X-27.75Y-43.35
X-27.75Y-45.55
X-27.25Y7.25
X-27.25Y-7.25
X-27.25Y-57.75
X-27.25Y-72.25
X-26.25Y7.25
X-26.25Y-7.25
X-26.25Y-57.75
X-26.25Y-72.25
X-25.25Y21.65
X-25.25Y19.45
X-25.25Y-43.35
X-25.25Y-45.55
X-24.75Y7.25
X-24.75Y-7.25
X-24.75Y-57.75
X-24.75Y-72.25
X-23.0Y7.25
X-23.0Y-7.25
X-23.0Y-57.75
X-23.0Y-72.25
X-22.75Y6.3
X-22.75Y0.5
X-22.75Y-0.5
X-22.75Y-6.3
X-22.75Y-58.7
X-22.75Y-64.5
X-22.75Y-65.5
X-22.75Y-71.3
X-21.0Y0.5
X-21.0Y-0.5
X-21.0Y-64.5
X-21.0Y-65.5
X-20.75Y7.25
X-20.75Y-7.25
X-20.75Y-57.75
X-20.75Y-72.25
X-19.25Y8.0
X-19.25Y7.25
X-19.25Y2.75
X-19.25Y0.0
X-19.25Y-6.5
X-19.25Y-7.25
X-19.25Y-57.0
X-19.25Y-57.75
X-19.25Y-62.25
X-19.25Y-65.0
X-19.25Y-71.5
X-19.25Y-72.25
X-18.5Y21.65
X-18.5Y9.75
X-18.5Y-0.75
X-18.5Y-43.35
X-18.5Y-55.25
X-18.5Y-65.75
X-18.25Y12.85
X-18.25Y5.0
X-18.25Y-52.15
X-18.25Y-60.0
X-18.0Y-2.25
X-18.0Y-67.25
X-17.75Y2.0
X-17.75Y-19.25
X-17.75Y-22.0
X-17.75Y-63.0
X-17.75Y-84.25
X-17.75Y-87.0
X-17.5Y5.75
X-17.5Y-59.25
X-17.25Y-2.75
X-17.25Y-67.75
X-16.5Y-6.0
X-16.5Y-71.0
X-16.25Y1.5
X-16.25Y-63.5
X-16.1Y7.75
X-16.1Y-57.25
X-16.0Y4.0
X-16.0Y4.0
X-16.0Y2.75
X-16.0Y-15.75
X-16.0Y-17.25
X-16.0Y-19.25
X-16.0Y-61.0
X-16.0Y-61.0
X-16.0Y-62.25
X-16.0Y-80.75
X-16.0Y-82.25
X-16.0Y-84.25
X-15.75Y12.85
X-15.75Y-4.0
X-15.75Y-52.15
X-15.75Y-69.0
X-15.5Y2.0
X-15.5Y-63.0
X-15.3Y7.75
X-15.3Y-57.25
X-15.25Y22.0
X-15.25Y20.5
X-15.25Y19.0
X-15.25Y17.5
X-15.25Y-43.0
X-15.25Y-44.5
X-15.25Y-46.0
X-15.25Y-47.5
X-14.75Y-5.25
X-14.75Y-70.25
X-14.25Y-6.0
X-14.25Y-71.0
X-14.17Y-20.08
X-14.17Y-85.08
X-14.0Y4.5
X-14.0Y-60.5
X-13.5Y21.25
X-13.5Y19.75
X-13.5Y18.25
X-13.5Y16.75
X-13.5Y5.5
X-13.5Y-43.75
X-13.5Y-45.25
X-13.5Y-46.75
X-13.5Y-48.25
X-13.5Y-59.5
X-12.5Y1.5
X-12.5Y0.0
X-12.5Y-1.5
X-12.5Y-63.5
X-12.5Y-65.0
X-12.5Y-66.5
X-12.32Y-14.905
X-12.32Y-79.905
X-11.5Y5.5
X-11.5Y-59.5
X-11.0Y1.5
X-11.0Y0.0
X-11.0Y-1.5
X-11.0Y-63.5
X-11.0Y-65.0
X-11.0Y-66.5
X-10.5Y16.75
X-10.5Y10.75
X-10.5Y9.25
X-10.5Y-48.25
X-10.5Y-54.25
X-10.5Y-55.75
X-9.5Y5.0
X-9.5Y1.5
X-9.5Y0.0
X-9.5Y-1.5
X-9.5Y-5.25
X-9.5Y-60.0
X-9.5Y-63.5
X-9.5Y-65.0
X-9.5Y-66.5
X-9.5Y-70.25
X-9.25Y6.0
X-9.25Y-6.75
X-9.25Y-11.095
X-9.25Y-12.365
X-9.25Y-59.0
X-9.25Y-71.75
X-9.25Y-76.095
X-9.25Y-77.365
X-8.625Y5.25
X-8.625Y-59.75
X-8.5Y-8.25
X-8.5Y-73.25
X-7.75Y4.25
X-7.75Y-4.25
X-7.75Y-4.25
X-7.75Y-4.25
X-7.75Y-4.25
X-7.75Y-60.75
X-7.75Y-69.25
X-7.75Y-69.25
X-7.75Y-69.25
X-7.75Y-69.25
X-7.5Y3.5
X-7.5Y-8.25
X-7.5Y-61.5
X-7.5Y-73.25
X-7.25Y16.0
X-7.25Y-49.0
X-6.75Y3.25
X-6.75Y-61.75
X-6.25Y-1.5
X-6.25Y-5.5
X-6.25Y-12.5
X-6.25Y-66.5
X-6.25Y-70.5
X-6.25Y-77.5
X-6.0Y3.0
X-6.0Y-62.0
X-5.75Y16.0
X-5.75Y-4.75
X-5.75Y-49.0
X-5.75Y-69.75
X-5.0Y3.0
X-5.0Y-9.5
X-5.0Y-62.0
X-5.0Y-74.5
X-4.25Y-1.0
X-4.25Y-2.5
X-4.25Y-66.0
X-4.25Y-67.5
X-3.5Y3.0
X-3.5Y-9.5
X-3.5Y-62.0
X-3.5Y-74.5
X-2.75Y-0.25
X-2.75Y-1.75
X-2.75Y-4.75
X-2.75Y-6.25
X-2.75Y-65.25
X-2.75Y-66.75
X-2.75Y-69.75
X-2.75Y-71.25
X-2.5Y10.5
X-2.5Y-54.5
X-2.45Y-14.25
X-2.45Y-79.25
X-2.0Y-9.5
X-2.0Y-74.5
X-1.65Y-14.25
X-1.65Y-79.25
X-0.85Y-14.25
X-0.85Y-79.25
X-0.05Y-14.25
X-0.05Y-79.25
X0.5Y3.5
X0.5Y2.0
X0.5Y-3.5
X0.5Y-5.0
X0.5Y-61.5
X0.5Y-63.0
X0.5Y-68.5
X0.5Y-70.0
X0.75Y-12.5
X0.75Y-77.5
X2.0Y5.0
X2.0Y2.0
X2.0Y-2.0
X2.0Y-5.0
X2.0Y-60.0
X2.0Y-63.0
X2.0Y-67.0
X2.0Y-70.0
X2.5Y-16.75
X2.5Y-81.75
X3.5Y-17.25
X3.5Y-82.25
X6.2Y-22.0
X6.2Y-87.0
X8.75Y2.75
X8.75Y1.25
X8.75Y-4.25
X8.75Y-5.75
X8.75Y-62.25
X8.75Y-63.75
X8.75Y-69.25
X8.75Y-70.75
X9.0Y10.0
X9.0Y8.5
X9.0Y7.0
X9.0Y-55.0
X9.0Y-56.5
X9.0Y-58.0
X9.5Y-21.25
X9.5Y-22.75
X9.5Y-86.25
X9.5Y-87.75
X14.325Y5.5
X14.325Y1.5
X14.325Y-1.5
X14.325Y-5.5
X14.325Y-59.5
X14.325Y-63.5
X14.325Y-66.5
X14.325Y-70.5
X18.375Y1.625
X18.375Y-1.625
X18.375Y-63.375
X18.375Y-66.625
X19.125Y1.625
X19.125Y-1.625
X19.125Y-63.375
X19.125Y-66.625
X21.75Y1.75
X21.75Y1.0
X21.75Y0.25
X21.75Y-0.5
X21.75Y-63.25
X21.75Y-64.0
X21.75Y-64.75
X21.75Y-65.5
X24.25Y22.5
X24.25Y20.875
X24.25Y-18.5
X24.25Y-20.125
X24.25Y-22.5
X24.25Y-42.5
X24.25Y-44.125
X24.25Y-83.5
X24.25Y-85.125
X24.25Y-87.5
X25.25Y2.275
X25.25Y-62.725
X26.0Y7.0
X26.0Y-7.0
X26.0Y-8.5
X26.0Y-10.0
X26.0Y-58.0
X26.0Y-72.0
X26.0Y-73.5
X26.0Y-75.0
X27.75Y1.625
X27.75Y-63.375
X31.25Y0.5
X31.25Y-0.5
X31.25Y-64.5
X31.25Y-65.5
T3
X-36.5Y-77.45
X-36.5Y-79.49
X-36.5Y-81.53
X-36.5Y-83.57
X-34.72Y-76.43
X-34.72Y-78.47
X-34.72Y-80.51
X-34.72Y-82.55
X29.9Y14.735
X29.9Y12.445
X29.9Y3.305
X29.9Y1.015
X29.9Y-1.015
X29.9Y-3.305
X29.9Y-12.445
X29.9Y-14.735
X34.72Y10.419
X34.72Y8.387
X34.72Y6.355
X34.72Y4.323
X34.72Y-5.331
X34.72Y-7.363
X34.72Y-9.395
X34.72Y-11.427
X36.5Y11.435
X36.5Y9.403
X36.5Y7.371
X36.5Y5.339
X36.5Y-4.315
X36.5Y-6.347
X36.5Y-8.379
X36.5Y-10.411
X29.9Y-50.265
X29.9Y-52.555
X29.9Y-61.695
X29.9Y-63.985
X29.9Y-66.015
X29.9Y-68.305
X29.9Y-77.445
X29.9Y-79.735
X34.72Y-54.581
X34.72Y-56.613
X34.72Y-58.645
X34.72Y-60.677
X34.72Y-70.331
X34.72Y-72.363
X34.72Y-74.395
X34.72Y-76.427
X36.5Y-53.565
X36.5Y-55.597
X36.5Y-57.629
X36.5Y-59.661
X36.5Y-69.315
X36.5Y-71.347
X36.5Y-73.379
X36.5Y-75.411
X-36.5Y-12.45
X-36.5Y-14.49
X-36.5Y-16.53
X-36.5Y-18.57
X-34.72Y-11.43
X-34.72Y-13.47
X-34.72Y-15.51
X-34.72Y-17.55
T4
X13.69Y-19.23
X13.69Y-21.77
X16.23Y-19.23
X16.23Y-21.77
X18.77Y-19.23
X18.77Y-21.77
X21.31Y-19.23
X21.31Y-21.77
X13.69Y-43.23
X13.69Y-45.77
X16.23Y-43.23
X16.23Y-45.77
X18.77Y-43.23
X18.77Y-45.77
X21.31Y-43.23
X21.31Y-45.77
X-12.32Y-83.81
X-12.32Y-86.35
X-9.78Y-83.81
X-9.78Y-86.35
X-7.24Y-83.81
X-7.24Y-86.35
X-4.7Y-83.81
X-4.7Y-86.35
X13.69Y21.77
X13.69Y19.23
X16.23Y21.77
X16.23Y19.23
X18.77Y21.77
X18.77Y19.23
X21.31Y21.77
X21.31Y19.23
X13.69Y-84.23
X13.69Y-86.77
X16.23Y-84.23
X16.23Y-86.77
X18.77Y-84.23
X18.77Y-86.77
X21.31Y-84.23
X21.31Y-86.77
X-25.02Y-76.19
X-25.02Y-78.73
X-25.02Y-81.27
X-25.02Y-83.81
X-22.48Y-76.19
X-22.48Y-78.73
X-22.48Y-81.27
X-22.48Y-83.81
X-12.32Y-18.81
X-12.32Y-21.35
X-9.78Y-18.81
X-9.78Y-21.35
X-7.24Y-18.81
X-7.24Y-21.35
X-4.7Y-18.81
X-4.7Y-21.35
X-25.02Y-11.19
X-25.02Y-13.73
X-25.02Y-16.27
X-25.02Y-18.81
X-22.48Y-11.19
X-22.48Y-13.73
X-22.48Y-16.27
X-22.48Y-18.81
X5.46Y-11.19
X5.46Y-13.73
X5.46Y-16.27
X5.46Y-18.81
X8.0Y-11.19
X8.0Y-13.73
X8.0Y-16.27
X8.0Y-18.81
X5.46Y-76.19
X5.46Y-78.73
X5.46Y-81.27
X5.46Y-83.81
X8.0Y-76.19
X8.0Y-78.73
X8.0Y-81.27
X8.0Y-83.81
T5
X-6.75Y-45.75
X-3.5Y-43.3
X-6.75Y19.25
X-3.5Y21.7
T6
X-36.0Y20.0
X-36.0Y-45.0
T7
X-35.61Y-6.88
X-35.61Y-23.14
X-35.61Y-71.88
X-35.61Y-88.14
X35.61Y16.005
X35.61Y-15.995
X35.61Y-48.995
X35.61Y-80.995
T8
X-38.54Y22.54
X-38.54Y17.46
X-33.46Y22.54
X-33.46Y17.46
X-38.54Y-42.46
X-38.54Y-47.54
X-33.46Y-42.46
X-33.46Y-47.54
T2
G00X-41.1Y4.32
M15
G01X-41.7Y4.32
M16
G05
G00X-41.1Y-4.32
M15
G01X-41.7Y-4.32
M16
G05
G00X-36.67Y4.32
M15
G01X-37.77Y4.32
M16
G05
G00X-36.67Y-4.32
M15
G01X-37.77Y-4.32
M16
G05
G00X-41.1Y-60.68
M15
G01X-41.7Y-60.68
M16
G05
G00X-41.1Y-69.32
M15
G01X-41.7Y-69.32
M16
G05
G00X-36.67Y-60.68
M15
G01X-37.77Y-60.68
M16
G05
G00X-36.67Y-69.32
M15
G01X-37.77Y-69.32
M16
G05
T0
M30
