M48
; DRILL file {KiCad 5.1.5} date Tue 01 Sep 2020 08:48:06 PM CEST
; FORMAT={-:-/ absolute / metric / decimal}
; #@! TF.CreationDate,2020-09-01T20:48:06+02:00
; #@! TF.GenerationSoftware,Kicad,Pcbnew,5.1.5
; #@! TF.FileFunction,NonPlated,1,4,NPTH
FMAT,2
METRIC
T1C0.450
T2C0.650
T3C0.700
T4C1.000
T5C2.000
T6C3.250
%
G90
G05
T1
X-31.4Y-39.55
X-30.7Y-39.55
X-30.0Y-39.55
X-29.3Y-39.55
X-28.6Y-39.55
X28.6Y-90.3
X29.3Y-90.3
X30.0Y-90.3
X30.7Y-90.3
X31.4Y-90.3
X-31.4Y-90.3
X-30.7Y-90.3
X-30.0Y-90.3
X-29.3Y-90.3
X-28.6Y-90.3
X28.6Y-39.55
X29.3Y-39.55
X30.0Y-39.55
X30.7Y-39.55
X31.4Y-39.55
X28.6Y-25.3
X29.3Y-25.3
X30.0Y-25.3
X30.7Y-25.3
X31.4Y-25.3
X-31.4Y-25.3
X-30.7Y-25.3
X-30.0Y-25.3
X-29.3Y-25.3
X-28.6Y-25.3
X28.6Y25.45
X29.3Y25.45
X30.0Y25.45
X30.7Y25.45
X31.4Y25.45
X-31.4Y25.45
X-30.7Y25.45
X-30.0Y25.45
X-29.3Y25.45
X-28.6Y25.45
T2
X-37.75Y2.89
X-37.75Y-2.89
X-37.75Y-62.11
X-37.75Y-67.89
T3
X41.0Y-84.65
X41.0Y-86.37
X41.0Y-19.65
X41.0Y-21.37
T4
X-40.25Y10.5
X-34.25Y10.5
X-40.25Y-54.5
X-34.25Y-54.5
T6
X-39.04Y-73.66
X-39.04Y-86.36
X39.04Y14.225
X39.04Y-14.225
X39.04Y-50.775
X39.04Y-79.225
X-39.04Y-8.66
X-39.04Y-21.36
T5
G00X-22.25Y3.575
M15
G01X-23.25Y3.575
M16
G05
G00X-22.25Y-3.575
M15
G01X-23.25Y-3.575
M16
G05
G00X-22.25Y-61.425
M15
G01X-23.25Y-61.425
M16
G05
G00X-22.25Y-68.575
M15
G01X-23.25Y-68.575
M16
G05
T0
M30
