G04 #@! TF.GenerationSoftware,KiCad,Pcbnew,5.1.5*
G04 #@! TF.CreationDate,2020-08-12T23:37:01+02:00*
G04 #@! TF.ProjectId,icE1usb,69634531-7573-4622-9e6b-696361645f70,rev?*
G04 #@! TF.SameCoordinates,Original*
G04 #@! TF.FileFunction,Profile,NP*
%FSLAX46Y46*%
G04 Gerber Fmt 4.6, Leading zero omitted, Abs format (unit mm)*
G04 Created by KiCad (PCBNEW 5.1.5) date 2020-08-12 23:37:01*
%MOMM*%
%LPD*%
G04 APERTURE LIST*
%ADD10C,0.050000*%
G04 APERTURE END LIST*
D10*
X39000000Y26500000D02*
X41000000Y26500000D01*
X38000000Y25500000D02*
G75*
G03X38500000Y26000000I0J500000D01*
G01*
X42500000Y25000000D02*
G75*
G03X41000000Y26500000I-1500000J0D01*
G01*
X39000000Y26500000D02*
G75*
G03X38500000Y26000000I0J-500000D01*
G01*
X-39000000Y-26500000D02*
X-41000000Y-26500000D01*
X-38000000Y-25500000D02*
G75*
G03X-38500000Y-26000000I0J-500000D01*
G01*
X-42500000Y-25000000D02*
G75*
G03X-41000000Y-26500000I1500000J0D01*
G01*
X-39000000Y-26500000D02*
G75*
G03X-38500000Y-26000000I0J500000D01*
G01*
X39000000Y-26500000D02*
X41000000Y-26500000D01*
X38000000Y-25500000D02*
G75*
G02X38500000Y-26000000I0J-500000D01*
G01*
X42500000Y-25000000D02*
G75*
G02X41000000Y-26500000I-1500000J0D01*
G01*
X39000000Y-26500000D02*
G75*
G02X38500000Y-26000000I0J500000D01*
G01*
X-39000000Y26500000D02*
X-41000000Y26500000D01*
X-39000000Y26500000D02*
G75*
G02X-38500000Y26000000I0J-500000D01*
G01*
X-38000000Y25500000D02*
G75*
G02X-38500000Y26000000I0J500000D01*
G01*
X-42500000Y25000000D02*
G75*
G02X-41000000Y26500000I1500000J0D01*
G01*
X-42500000Y-25000000D02*
X-42500000Y25000000D01*
X38000000Y-25500000D02*
X-38000000Y-25500000D01*
X42500000Y25000000D02*
X42500000Y-25000000D01*
X-38000000Y25500000D02*
X38000000Y25500000D01*
M02*
