M48
; DRILL file {KiCad 5.1.5} date Wed 12 Aug 2020 11:37:08 PM CEST
; FORMAT={-:-/ absolute / metric / decimal}
; #@! TF.CreationDate,2020-08-12T23:37:08+02:00
; #@! TF.GenerationSoftware,Kicad,Pcbnew,5.1.5
; #@! TF.FileFunction,Plated,1,4,PTH
FMAT,2
METRIC
T1C0.300
T2C0.600
T3C0.890
T4C1.000
T5C1.090
T6C1.500
T7C1.570
T8C1.700
%
G90
G05
T1
X-41.0Y9.25
X-38.35Y11.75
X-34.75Y3.25
X-34.75Y2.45
X-34.75Y-2.45
X-34.75Y-3.25
X-34.125Y3.25
X-34.125Y2.45
X-34.125Y-2.45
X-34.125Y-3.25
X-31.75Y2.7
X-31.75Y1.9
X-31.75Y-0.5
X-31.75Y-2.0
X-31.75Y-3.5
X-31.35Y5.25
X-30.0Y18.5
X-30.0Y4.25
X-29.25Y16.75
X-29.0Y4.0
X-28.25Y4.5
X-28.25Y3.5
X-28.25Y-0.5
X-28.25Y-2.0
X-28.25Y-3.5
X-27.75Y21.65
X-27.75Y19.45
X-26.75Y7.25
X-26.75Y-7.25
X-25.75Y7.25
X-25.75Y-7.25
X-25.25Y21.65
X-25.25Y19.45
X-24.25Y7.25
X-24.25Y-7.25
X-24.0Y0.5
X-24.0Y-0.5
X-22.5Y7.25
X-22.5Y-7.25
X-22.25Y6.3
X-22.25Y0.5
X-22.25Y-0.5
X-22.25Y-6.3
X-20.25Y7.25
X-20.25Y-7.25
X-19.25Y2.75
X-19.25Y0.0
X-19.0Y-16.75
X-19.0Y-20.0
X-18.75Y8.0
X-18.75Y7.25
X-18.75Y-6.5
X-18.75Y-7.25
X-18.5Y21.65
X-18.5Y9.75
X-18.5Y-0.75
X-18.25Y12.85
X-18.25Y5.0
X-18.0Y-2.25
X-17.75Y2.0
X-17.75Y-19.25
X-17.75Y-22.0
X-17.5Y5.75
X-17.25Y-2.75
X-16.5Y-6.0
X-16.25Y1.5
X-16.1Y7.75
X-16.0Y4.0
X-16.0Y4.0
X-16.0Y2.75
X-16.0Y-19.25
X-15.75Y12.85
X-15.75Y-4.0
X-15.5Y2.0
X-15.3Y7.75
X-15.25Y22.0
X-15.25Y20.5
X-15.25Y19.0
X-15.25Y17.5
X-14.75Y-5.25
X-14.25Y-6.0
X-14.25Y-20.45
X-14.0Y4.5
X-13.5Y21.25
X-13.5Y19.75
X-13.5Y18.25
X-13.5Y16.75
X-13.5Y5.5
X-12.5Y1.5
X-12.5Y0.0
X-12.5Y-1.5
X-12.5Y-12.095
X-12.5Y-15.905
X-11.5Y5.5
X-11.0Y1.5
X-11.0Y0.0
X-11.0Y-1.5
X-10.5Y16.75
X-10.5Y10.75
X-10.5Y9.25
X-10.25Y-12.095
X-10.25Y-13.365
X-9.5Y5.0
X-9.5Y1.5
X-9.5Y0.0
X-9.5Y-1.5
X-9.5Y-5.25
X-9.25Y6.0
X-9.25Y-6.75
X-8.625Y5.25
X-8.5Y-8.25
X-7.75Y4.25
X-7.75Y-4.25
X-7.75Y-4.25
X-7.75Y-4.25
X-7.75Y-4.25
X-7.5Y3.5
X-7.5Y-8.25
X-7.25Y16.0
X-6.75Y3.25
X-6.25Y-1.5
X-6.25Y-5.5
X-6.25Y-12.5
X-6.0Y3.0
X-5.75Y16.0
X-5.75Y-4.75
X-5.0Y3.0
X-5.0Y-9.5
X-4.25Y-1.0
X-4.25Y-2.5
X-3.5Y3.0
X-3.5Y-9.5
X-2.75Y-0.25
X-2.75Y-1.75
X-2.75Y-4.75
X-2.75Y-6.25
X-2.5Y10.5
X-2.45Y-14.25
X-2.0Y-9.5
X-1.65Y-14.25
X-0.85Y-14.25
X-0.05Y-14.25
X0.5Y3.5
X0.5Y2.0
X0.5Y-3.5
X0.5Y-5.0
X0.75Y-12.5
X2.0Y5.0
X2.0Y2.0
X2.0Y-2.0
X2.0Y-5.0
X2.5Y-16.75
X3.5Y-17.25
X6.2Y-22.0
X8.75Y2.75
X8.75Y1.25
X8.75Y-4.25
X8.75Y-5.75
X9.0Y11.5
X9.0Y10.0
X9.0Y8.5
X9.5Y-21.25
X9.5Y-22.75
X14.325Y5.5
X14.325Y1.5
X14.325Y-1.5
X14.325Y-5.5
X18.375Y1.625
X18.375Y-1.625
X19.125Y1.625
X19.125Y-1.625
X21.75Y1.75
X21.75Y1.0
X21.75Y0.25
X21.75Y-0.5
X24.25Y22.5
X24.25Y20.875
X24.25Y-18.5
X24.25Y-20.125
X25.25Y2.275
X26.0Y7.0
X26.0Y-8.5
X26.0Y-10.0
X26.0Y-11.5
X27.75Y1.625
X30.75Y0.5
X30.75Y-0.5
T3
X29.4Y14.735
X29.4Y12.445
X29.4Y3.305
X29.4Y1.015
X29.4Y-1.015
X29.4Y-3.305
X29.4Y-12.445
X29.4Y-14.735
X34.22Y10.419
X34.22Y8.387
X34.22Y6.355
X34.22Y4.323
X34.22Y-5.331
X34.22Y-7.363
X34.22Y-9.395
X34.22Y-11.427
X36.0Y11.435
X36.0Y9.403
X36.0Y7.371
X36.0Y5.339
X36.0Y-4.315
X36.0Y-6.347
X36.0Y-8.379
X36.0Y-10.411
X-36.0Y-12.45
X-36.0Y-14.49
X-36.0Y-16.53
X-36.0Y-18.57
X-34.22Y-11.43
X-34.22Y-13.47
X-34.22Y-15.51
X-34.22Y-17.55
T4
X13.69Y21.77
X13.69Y19.23
X16.23Y21.77
X16.23Y19.23
X18.77Y21.77
X18.77Y19.23
X21.31Y21.77
X21.31Y19.23
X13.69Y-19.23
X13.69Y-21.77
X16.23Y-19.23
X16.23Y-21.77
X18.77Y-19.23
X18.77Y-21.77
X21.31Y-19.23
X21.31Y-21.77
X-25.02Y-11.19
X-25.02Y-13.73
X-25.02Y-16.27
X-25.02Y-18.81
X-22.48Y-11.19
X-22.48Y-13.73
X-22.48Y-16.27
X-22.48Y-18.81
X-12.32Y-18.81
X-12.32Y-21.35
X-9.78Y-18.81
X-9.78Y-21.35
X-7.24Y-18.81
X-7.24Y-21.35
X-4.7Y-18.81
X-4.7Y-21.35
X5.46Y-11.19
X5.46Y-13.73
X5.46Y-16.27
X5.46Y-18.81
X8.0Y-11.19
X8.0Y-13.73
X8.0Y-16.27
X8.0Y-18.81
T5
X-6.75Y19.25
X-3.5Y21.7
T6
X-36.0Y20.0
T7
X35.11Y16.005
X35.11Y-15.995
X-35.11Y-6.88
X-35.11Y-23.14
T8
X-38.54Y22.54
X-38.54Y17.46
X-33.46Y22.54
X-33.46Y17.46
T2
G00X-40.6Y4.32
M15
G01X-41.2Y4.32
M16
G05
G00X-40.6Y-4.32
M15
G01X-41.2Y-4.32
M16
G05
G00X-36.17Y4.32
M15
G01X-37.27Y4.32
M16
G05
G00X-36.17Y-4.32
M15
G01X-37.27Y-4.32
M16
G05
T0
M30
