G04 #@! TF.GenerationSoftware,KiCad,Pcbnew,5.1.5*
G04 #@! TF.CreationDate,2020-08-12T23:37:01+02:00*
G04 #@! TF.ProjectId,icE1usb,69634531-7573-4622-9e6b-696361645f70,rev?*
G04 #@! TF.SameCoordinates,Original*
G04 #@! TF.FileFunction,Soldermask,Bot*
G04 #@! TF.FilePolarity,Negative*
%FSLAX46Y46*%
G04 Gerber Fmt 4.6, Leading zero omitted, Abs format (unit mm)*
G04 Created by KiCad (PCBNEW 5.1.5) date 2020-08-12 23:37:01*
%MOMM*%
%LPD*%
G04 APERTURE LIST*
%ADD10C,0.150000*%
%ADD11C,0.100000*%
G04 APERTURE END LIST*
D10*
G36*
X-16500000Y18300000D02*
G01*
X-16500000Y18200000D01*
X-16000000Y18200000D01*
X-16000000Y18300000D01*
X-16500000Y18300000D01*
G37*
X-16500000Y18300000D02*
X-16500000Y18200000D01*
X-16000000Y18200000D01*
X-16000000Y18300000D01*
X-16500000Y18300000D01*
D11*
G36*
X-34938965Y-22103450D02*
G01*
X-34803726Y-22130350D01*
X-34612638Y-22209502D01*
X-34440664Y-22324411D01*
X-34294411Y-22470664D01*
X-34179502Y-22642638D01*
X-34100350Y-22833726D01*
X-34060000Y-23036584D01*
X-34060000Y-23243416D01*
X-34100350Y-23446274D01*
X-34179502Y-23637362D01*
X-34294411Y-23809336D01*
X-34440664Y-23955589D01*
X-34612638Y-24070498D01*
X-34803726Y-24149650D01*
X-34938965Y-24176550D01*
X-35006582Y-24190000D01*
X-35213418Y-24190000D01*
X-35281035Y-24176550D01*
X-35416274Y-24149650D01*
X-35607362Y-24070498D01*
X-35779336Y-23955589D01*
X-35925589Y-23809336D01*
X-36040498Y-23637362D01*
X-36119650Y-23446274D01*
X-36160000Y-23243416D01*
X-36160000Y-23036584D01*
X-36119650Y-22833726D01*
X-36040498Y-22642638D01*
X-35925589Y-22470664D01*
X-35779336Y-22324411D01*
X-35607362Y-22209502D01*
X-35416274Y-22130350D01*
X-35281035Y-22103450D01*
X-35213418Y-22090000D01*
X-35006582Y-22090000D01*
X-34938965Y-22103450D01*
G37*
G36*
X-38051424Y-19749368D02*
G01*
X-38051423Y-19749368D01*
X-38051420Y-19749369D01*
X-37746590Y-19875634D01*
X-37472249Y-20058942D01*
X-37238942Y-20292249D01*
X-37055634Y-20566590D01*
X-36929369Y-20871420D01*
X-36929368Y-20871423D01*
X-36929368Y-20871424D01*
X-36865000Y-21195025D01*
X-36865000Y-21524975D01*
X-36914994Y-21776313D01*
X-36929369Y-21848580D01*
X-37055634Y-22153410D01*
X-37238942Y-22427751D01*
X-37472249Y-22661058D01*
X-37746590Y-22844366D01*
X-38051420Y-22970631D01*
X-38051423Y-22970632D01*
X-38051424Y-22970632D01*
X-38375025Y-23035000D01*
X-38704975Y-23035000D01*
X-39028576Y-22970632D01*
X-39028577Y-22970632D01*
X-39028580Y-22970631D01*
X-39333410Y-22844366D01*
X-39607751Y-22661058D01*
X-39841058Y-22427751D01*
X-40024366Y-22153410D01*
X-40150631Y-21848580D01*
X-40165006Y-21776313D01*
X-40215000Y-21524975D01*
X-40215000Y-21195025D01*
X-40150632Y-20871424D01*
X-40150632Y-20871423D01*
X-40150631Y-20871420D01*
X-40024366Y-20566590D01*
X-39841058Y-20292249D01*
X-39607751Y-20058942D01*
X-39333410Y-19875634D01*
X-39028580Y-19749369D01*
X-39028577Y-19749368D01*
X-39028576Y-19749368D01*
X-38704975Y-19685000D01*
X-38375025Y-19685000D01*
X-38051424Y-19749368D01*
G37*
G36*
X18933161Y-20884823D02*
G01*
X19032520Y-20904586D01*
X19196310Y-20972430D01*
X19343717Y-21070924D01*
X19469076Y-21196283D01*
X19567570Y-21343690D01*
X19635414Y-21507480D01*
X19655177Y-21606839D01*
X19670000Y-21681355D01*
X19670000Y-21858645D01*
X19657057Y-21923714D01*
X19635414Y-22032520D01*
X19567570Y-22196310D01*
X19469076Y-22343717D01*
X19343717Y-22469076D01*
X19196310Y-22567570D01*
X19032520Y-22635414D01*
X18933161Y-22655177D01*
X18858645Y-22670000D01*
X18681355Y-22670000D01*
X18606839Y-22655177D01*
X18507480Y-22635414D01*
X18343690Y-22567570D01*
X18196283Y-22469076D01*
X18070924Y-22343717D01*
X17972430Y-22196310D01*
X17904586Y-22032520D01*
X17882943Y-21923714D01*
X17870000Y-21858645D01*
X17870000Y-21681355D01*
X17884823Y-21606839D01*
X17904586Y-21507480D01*
X17972430Y-21343690D01*
X18070924Y-21196283D01*
X18196283Y-21070924D01*
X18343690Y-20972430D01*
X18507480Y-20904586D01*
X18606839Y-20884823D01*
X18681355Y-20870000D01*
X18858645Y-20870000D01*
X18933161Y-20884823D01*
G37*
G36*
X13853161Y-20884823D02*
G01*
X13952520Y-20904586D01*
X14116310Y-20972430D01*
X14263717Y-21070924D01*
X14389076Y-21196283D01*
X14487570Y-21343690D01*
X14555414Y-21507480D01*
X14575177Y-21606839D01*
X14590000Y-21681355D01*
X14590000Y-21858645D01*
X14577057Y-21923714D01*
X14555414Y-22032520D01*
X14487570Y-22196310D01*
X14389076Y-22343717D01*
X14263717Y-22469076D01*
X14116310Y-22567570D01*
X13952520Y-22635414D01*
X13853161Y-22655177D01*
X13778645Y-22670000D01*
X13601355Y-22670000D01*
X13526839Y-22655177D01*
X13427480Y-22635414D01*
X13263690Y-22567570D01*
X13116283Y-22469076D01*
X12990924Y-22343717D01*
X12892430Y-22196310D01*
X12824586Y-22032520D01*
X12802943Y-21923714D01*
X12790000Y-21858645D01*
X12790000Y-21681355D01*
X12804823Y-21606839D01*
X12824586Y-21507480D01*
X12892430Y-21343690D01*
X12990924Y-21196283D01*
X13116283Y-21070924D01*
X13263690Y-20972430D01*
X13427480Y-20904586D01*
X13526839Y-20884823D01*
X13601355Y-20870000D01*
X13778645Y-20870000D01*
X13853161Y-20884823D01*
G37*
G36*
X21473161Y-20884823D02*
G01*
X21572520Y-20904586D01*
X21736310Y-20972430D01*
X21883717Y-21070924D01*
X22009076Y-21196283D01*
X22107570Y-21343690D01*
X22175414Y-21507480D01*
X22195177Y-21606839D01*
X22210000Y-21681355D01*
X22210000Y-21858645D01*
X22197057Y-21923714D01*
X22175414Y-22032520D01*
X22107570Y-22196310D01*
X22009076Y-22343717D01*
X21883717Y-22469076D01*
X21736310Y-22567570D01*
X21572520Y-22635414D01*
X21473161Y-22655177D01*
X21398645Y-22670000D01*
X21221355Y-22670000D01*
X21146839Y-22655177D01*
X21047480Y-22635414D01*
X20883690Y-22567570D01*
X20736283Y-22469076D01*
X20610924Y-22343717D01*
X20512430Y-22196310D01*
X20444586Y-22032520D01*
X20422943Y-21923714D01*
X20410000Y-21858645D01*
X20410000Y-21681355D01*
X20424823Y-21606839D01*
X20444586Y-21507480D01*
X20512430Y-21343690D01*
X20610924Y-21196283D01*
X20736283Y-21070924D01*
X20883690Y-20972430D01*
X21047480Y-20904586D01*
X21146839Y-20884823D01*
X21221355Y-20870000D01*
X21398645Y-20870000D01*
X21473161Y-20884823D01*
G37*
G36*
X16393161Y-20884823D02*
G01*
X16492520Y-20904586D01*
X16656310Y-20972430D01*
X16803717Y-21070924D01*
X16929076Y-21196283D01*
X17027570Y-21343690D01*
X17095414Y-21507480D01*
X17115177Y-21606839D01*
X17130000Y-21681355D01*
X17130000Y-21858645D01*
X17117057Y-21923714D01*
X17095414Y-22032520D01*
X17027570Y-22196310D01*
X16929076Y-22343717D01*
X16803717Y-22469076D01*
X16656310Y-22567570D01*
X16492520Y-22635414D01*
X16393161Y-22655177D01*
X16318645Y-22670000D01*
X16141355Y-22670000D01*
X16066839Y-22655177D01*
X15967480Y-22635414D01*
X15803690Y-22567570D01*
X15656283Y-22469076D01*
X15530924Y-22343717D01*
X15432430Y-22196310D01*
X15364586Y-22032520D01*
X15342943Y-21923714D01*
X15330000Y-21858645D01*
X15330000Y-21681355D01*
X15344823Y-21606839D01*
X15364586Y-21507480D01*
X15432430Y-21343690D01*
X15530924Y-21196283D01*
X15656283Y-21070924D01*
X15803690Y-20972430D01*
X15967480Y-20904586D01*
X16066839Y-20884823D01*
X16141355Y-20870000D01*
X16318645Y-20870000D01*
X16393161Y-20884823D01*
G37*
G36*
X-11420000Y-22250000D02*
G01*
X-13220000Y-22250000D01*
X-13220000Y-20450000D01*
X-11420000Y-20450000D01*
X-11420000Y-22250000D01*
G37*
G36*
X-4536839Y-20464823D02*
G01*
X-4437480Y-20484586D01*
X-4273690Y-20552430D01*
X-4126283Y-20650924D01*
X-4000924Y-20776283D01*
X-3902430Y-20923690D01*
X-3834586Y-21087480D01*
X-3829109Y-21115016D01*
X-3800000Y-21261355D01*
X-3800000Y-21438645D01*
X-3813693Y-21507484D01*
X-3834586Y-21612520D01*
X-3902430Y-21776310D01*
X-4000924Y-21923717D01*
X-4126283Y-22049076D01*
X-4273690Y-22147570D01*
X-4437480Y-22215414D01*
X-4536839Y-22235177D01*
X-4611355Y-22250000D01*
X-4788645Y-22250000D01*
X-4863161Y-22235177D01*
X-4962520Y-22215414D01*
X-5126310Y-22147570D01*
X-5273717Y-22049076D01*
X-5399076Y-21923717D01*
X-5497570Y-21776310D01*
X-5565414Y-21612520D01*
X-5586307Y-21507484D01*
X-5600000Y-21438645D01*
X-5600000Y-21261355D01*
X-5570891Y-21115016D01*
X-5565414Y-21087480D01*
X-5497570Y-20923690D01*
X-5399076Y-20776283D01*
X-5273717Y-20650924D01*
X-5126310Y-20552430D01*
X-4962520Y-20484586D01*
X-4863161Y-20464823D01*
X-4788645Y-20450000D01*
X-4611355Y-20450000D01*
X-4536839Y-20464823D01*
G37*
G36*
X-7076839Y-20464823D02*
G01*
X-6977480Y-20484586D01*
X-6813690Y-20552430D01*
X-6666283Y-20650924D01*
X-6540924Y-20776283D01*
X-6442430Y-20923690D01*
X-6374586Y-21087480D01*
X-6369109Y-21115016D01*
X-6340000Y-21261355D01*
X-6340000Y-21438645D01*
X-6353693Y-21507484D01*
X-6374586Y-21612520D01*
X-6442430Y-21776310D01*
X-6540924Y-21923717D01*
X-6666283Y-22049076D01*
X-6813690Y-22147570D01*
X-6977480Y-22215414D01*
X-7076839Y-22235177D01*
X-7151355Y-22250000D01*
X-7328645Y-22250000D01*
X-7403161Y-22235177D01*
X-7502520Y-22215414D01*
X-7666310Y-22147570D01*
X-7813717Y-22049076D01*
X-7939076Y-21923717D01*
X-8037570Y-21776310D01*
X-8105414Y-21612520D01*
X-8126307Y-21507484D01*
X-8140000Y-21438645D01*
X-8140000Y-21261355D01*
X-8110891Y-21115016D01*
X-8105414Y-21087480D01*
X-8037570Y-20923690D01*
X-7939076Y-20776283D01*
X-7813717Y-20650924D01*
X-7666310Y-20552430D01*
X-7502520Y-20484586D01*
X-7403161Y-20464823D01*
X-7328645Y-20450000D01*
X-7151355Y-20450000D01*
X-7076839Y-20464823D01*
G37*
G36*
X-9616839Y-20464823D02*
G01*
X-9517480Y-20484586D01*
X-9353690Y-20552430D01*
X-9206283Y-20650924D01*
X-9080924Y-20776283D01*
X-8982430Y-20923690D01*
X-8914586Y-21087480D01*
X-8909109Y-21115016D01*
X-8880000Y-21261355D01*
X-8880000Y-21438645D01*
X-8893693Y-21507484D01*
X-8914586Y-21612520D01*
X-8982430Y-21776310D01*
X-9080924Y-21923717D01*
X-9206283Y-22049076D01*
X-9353690Y-22147570D01*
X-9517480Y-22215414D01*
X-9616839Y-22235177D01*
X-9691355Y-22250000D01*
X-9868645Y-22250000D01*
X-9943161Y-22235177D01*
X-10042520Y-22215414D01*
X-10206310Y-22147570D01*
X-10353717Y-22049076D01*
X-10479076Y-21923717D01*
X-10577570Y-21776310D01*
X-10645414Y-21612520D01*
X-10666307Y-21507484D01*
X-10680000Y-21438645D01*
X-10680000Y-21261355D01*
X-10650891Y-21115016D01*
X-10645414Y-21087480D01*
X-10577570Y-20923690D01*
X-10479076Y-20776283D01*
X-10353717Y-20650924D01*
X-10206310Y-20552430D01*
X-10042520Y-20484586D01*
X-9943161Y-20464823D01*
X-9868645Y-20450000D01*
X-9691355Y-20450000D01*
X-9616839Y-20464823D01*
G37*
G36*
X40366673Y-20985371D02*
G01*
X40366675Y-20985372D01*
X40366676Y-20985372D01*
X40393566Y-20996510D01*
X40439472Y-21015525D01*
X40504984Y-21059299D01*
X40560701Y-21115016D01*
X40604475Y-21180528D01*
X40634629Y-21253327D01*
X40650000Y-21330601D01*
X40650000Y-21409399D01*
X40634629Y-21486673D01*
X40604475Y-21559472D01*
X40560701Y-21624984D01*
X40504984Y-21680701D01*
X40439472Y-21724475D01*
X40393566Y-21743490D01*
X40366676Y-21754628D01*
X40366675Y-21754628D01*
X40366673Y-21754629D01*
X40289399Y-21770000D01*
X40210601Y-21770000D01*
X40133327Y-21754629D01*
X40133325Y-21754628D01*
X40133324Y-21754628D01*
X40106434Y-21743490D01*
X40060528Y-21724475D01*
X39995016Y-21680701D01*
X39939299Y-21624984D01*
X39895525Y-21559472D01*
X39865371Y-21486673D01*
X39850000Y-21409399D01*
X39850000Y-21330601D01*
X39865371Y-21253327D01*
X39895525Y-21180528D01*
X39939299Y-21115016D01*
X39995016Y-21059299D01*
X40060528Y-21015525D01*
X40106434Y-20996510D01*
X40133324Y-20985372D01*
X40133325Y-20985372D01*
X40133327Y-20985371D01*
X40210601Y-20970000D01*
X40289399Y-20970000D01*
X40366673Y-20985371D01*
G37*
G36*
X22210000Y-20130000D02*
G01*
X20410000Y-20130000D01*
X20410000Y-18330000D01*
X22210000Y-18330000D01*
X22210000Y-20130000D01*
G37*
G36*
X18933161Y-18344823D02*
G01*
X19032520Y-18364586D01*
X19196310Y-18432430D01*
X19343717Y-18530924D01*
X19469076Y-18656283D01*
X19567570Y-18803690D01*
X19635414Y-18967480D01*
X19655177Y-19066839D01*
X19670000Y-19141355D01*
X19670000Y-19318645D01*
X19657057Y-19383714D01*
X19635414Y-19492520D01*
X19567570Y-19656310D01*
X19469076Y-19803717D01*
X19343717Y-19929076D01*
X19196310Y-20027570D01*
X19032520Y-20095414D01*
X18933161Y-20115177D01*
X18858645Y-20130000D01*
X18681355Y-20130000D01*
X18606839Y-20115177D01*
X18507480Y-20095414D01*
X18343690Y-20027570D01*
X18196283Y-19929076D01*
X18070924Y-19803717D01*
X17972430Y-19656310D01*
X17904586Y-19492520D01*
X17882943Y-19383714D01*
X17870000Y-19318645D01*
X17870000Y-19141355D01*
X17884823Y-19066839D01*
X17904586Y-18967480D01*
X17972430Y-18803690D01*
X18070924Y-18656283D01*
X18196283Y-18530924D01*
X18343690Y-18432430D01*
X18507480Y-18364586D01*
X18606839Y-18344823D01*
X18681355Y-18330000D01*
X18858645Y-18330000D01*
X18933161Y-18344823D01*
G37*
G36*
X16393161Y-18344823D02*
G01*
X16492520Y-18364586D01*
X16656310Y-18432430D01*
X16803717Y-18530924D01*
X16929076Y-18656283D01*
X17027570Y-18803690D01*
X17095414Y-18967480D01*
X17115177Y-19066839D01*
X17130000Y-19141355D01*
X17130000Y-19318645D01*
X17117057Y-19383714D01*
X17095414Y-19492520D01*
X17027570Y-19656310D01*
X16929076Y-19803717D01*
X16803717Y-19929076D01*
X16656310Y-20027570D01*
X16492520Y-20095414D01*
X16393161Y-20115177D01*
X16318645Y-20130000D01*
X16141355Y-20130000D01*
X16066839Y-20115177D01*
X15967480Y-20095414D01*
X15803690Y-20027570D01*
X15656283Y-19929076D01*
X15530924Y-19803717D01*
X15432430Y-19656310D01*
X15364586Y-19492520D01*
X15342943Y-19383714D01*
X15330000Y-19318645D01*
X15330000Y-19141355D01*
X15344823Y-19066839D01*
X15364586Y-18967480D01*
X15432430Y-18803690D01*
X15530924Y-18656283D01*
X15656283Y-18530924D01*
X15803690Y-18432430D01*
X15967480Y-18364586D01*
X16066839Y-18344823D01*
X16141355Y-18330000D01*
X16318645Y-18330000D01*
X16393161Y-18344823D01*
G37*
G36*
X13853161Y-18344823D02*
G01*
X13952520Y-18364586D01*
X14116310Y-18432430D01*
X14263717Y-18530924D01*
X14389076Y-18656283D01*
X14487570Y-18803690D01*
X14555414Y-18967480D01*
X14575177Y-19066839D01*
X14590000Y-19141355D01*
X14590000Y-19318645D01*
X14577057Y-19383714D01*
X14555414Y-19492520D01*
X14487570Y-19656310D01*
X14389076Y-19803717D01*
X14263717Y-19929076D01*
X14116310Y-20027570D01*
X13952520Y-20095414D01*
X13853161Y-20115177D01*
X13778645Y-20130000D01*
X13601355Y-20130000D01*
X13526839Y-20115177D01*
X13427480Y-20095414D01*
X13263690Y-20027570D01*
X13116283Y-19929076D01*
X12990924Y-19803717D01*
X12892430Y-19656310D01*
X12824586Y-19492520D01*
X12802943Y-19383714D01*
X12790000Y-19318645D01*
X12790000Y-19141355D01*
X12804823Y-19066839D01*
X12824586Y-18967480D01*
X12892430Y-18803690D01*
X12990924Y-18656283D01*
X13116283Y-18530924D01*
X13263690Y-18432430D01*
X13427480Y-18364586D01*
X13526839Y-18344823D01*
X13601355Y-18330000D01*
X13778645Y-18330000D01*
X13853161Y-18344823D01*
G37*
G36*
X40366673Y-19265371D02*
G01*
X40366675Y-19265372D01*
X40366676Y-19265372D01*
X40393566Y-19276510D01*
X40439472Y-19295525D01*
X40504984Y-19339299D01*
X40560701Y-19395016D01*
X40604475Y-19460528D01*
X40634629Y-19533327D01*
X40650000Y-19610601D01*
X40650000Y-19689399D01*
X40634629Y-19766673D01*
X40604475Y-19839472D01*
X40560701Y-19904984D01*
X40504984Y-19960701D01*
X40439472Y-20004475D01*
X40393566Y-20023490D01*
X40366676Y-20034628D01*
X40366675Y-20034628D01*
X40366673Y-20034629D01*
X40289399Y-20050000D01*
X40210601Y-20050000D01*
X40133327Y-20034629D01*
X40133325Y-20034628D01*
X40133324Y-20034628D01*
X40106434Y-20023490D01*
X40060528Y-20004475D01*
X39995016Y-19960701D01*
X39939299Y-19904984D01*
X39895525Y-19839472D01*
X39865371Y-19766673D01*
X39850000Y-19689399D01*
X39850000Y-19610601D01*
X39865371Y-19533327D01*
X39895525Y-19460528D01*
X39939299Y-19395016D01*
X39995016Y-19339299D01*
X40060528Y-19295525D01*
X40106434Y-19276510D01*
X40133324Y-19265372D01*
X40133325Y-19265372D01*
X40133327Y-19265371D01*
X40210601Y-19250000D01*
X40289399Y-19250000D01*
X40366673Y-19265371D01*
G37*
G36*
X-4536839Y-17924823D02*
G01*
X-4437480Y-17944586D01*
X-4273690Y-18012430D01*
X-4126283Y-18110924D01*
X-4000924Y-18236283D01*
X-3902430Y-18383690D01*
X-3834586Y-18547480D01*
X-3814823Y-18646839D01*
X-3800000Y-18721355D01*
X-3800000Y-18898645D01*
X-3813693Y-18967484D01*
X-3834586Y-19072520D01*
X-3902430Y-19236310D01*
X-4000924Y-19383717D01*
X-4126283Y-19509076D01*
X-4273690Y-19607570D01*
X-4437480Y-19675414D01*
X-4536839Y-19695177D01*
X-4611355Y-19710000D01*
X-4788645Y-19710000D01*
X-4863161Y-19695177D01*
X-4962520Y-19675414D01*
X-5126310Y-19607570D01*
X-5273717Y-19509076D01*
X-5399076Y-19383717D01*
X-5497570Y-19236310D01*
X-5565414Y-19072520D01*
X-5586307Y-18967484D01*
X-5600000Y-18898645D01*
X-5600000Y-18721355D01*
X-5585177Y-18646839D01*
X-5565414Y-18547480D01*
X-5497570Y-18383690D01*
X-5399076Y-18236283D01*
X-5273717Y-18110924D01*
X-5126310Y-18012430D01*
X-4962520Y-17944586D01*
X-4863161Y-17924823D01*
X-4788645Y-17910000D01*
X-4611355Y-17910000D01*
X-4536839Y-17924823D01*
G37*
G36*
X-21580000Y-19710000D02*
G01*
X-23380000Y-19710000D01*
X-23380000Y-17910000D01*
X-21580000Y-17910000D01*
X-21580000Y-19710000D01*
G37*
G36*
X5623161Y-17924823D02*
G01*
X5722520Y-17944586D01*
X5886310Y-18012430D01*
X6033717Y-18110924D01*
X6159076Y-18236283D01*
X6257570Y-18383690D01*
X6325414Y-18547480D01*
X6345177Y-18646839D01*
X6360000Y-18721355D01*
X6360000Y-18898645D01*
X6346307Y-18967484D01*
X6325414Y-19072520D01*
X6257570Y-19236310D01*
X6159076Y-19383717D01*
X6033717Y-19509076D01*
X5886310Y-19607570D01*
X5722520Y-19675414D01*
X5623161Y-19695177D01*
X5548645Y-19710000D01*
X5371355Y-19710000D01*
X5296839Y-19695177D01*
X5197480Y-19675414D01*
X5033690Y-19607570D01*
X4886283Y-19509076D01*
X4760924Y-19383717D01*
X4662430Y-19236310D01*
X4594586Y-19072520D01*
X4573693Y-18967484D01*
X4560000Y-18898645D01*
X4560000Y-18721355D01*
X4574823Y-18646839D01*
X4594586Y-18547480D01*
X4662430Y-18383690D01*
X4760924Y-18236283D01*
X4886283Y-18110924D01*
X5033690Y-18012430D01*
X5197480Y-17944586D01*
X5296839Y-17924823D01*
X5371355Y-17910000D01*
X5548645Y-17910000D01*
X5623161Y-17924823D01*
G37*
G36*
X8900000Y-19710000D02*
G01*
X7100000Y-19710000D01*
X7100000Y-17910000D01*
X8900000Y-17910000D01*
X8900000Y-19710000D01*
G37*
G36*
X-24856839Y-17924823D02*
G01*
X-24757480Y-17944586D01*
X-24593690Y-18012430D01*
X-24446283Y-18110924D01*
X-24320924Y-18236283D01*
X-24222430Y-18383690D01*
X-24154586Y-18547480D01*
X-24134823Y-18646839D01*
X-24120000Y-18721355D01*
X-24120000Y-18898645D01*
X-24133693Y-18967484D01*
X-24154586Y-19072520D01*
X-24222430Y-19236310D01*
X-24320924Y-19383717D01*
X-24446283Y-19509076D01*
X-24593690Y-19607570D01*
X-24757480Y-19675414D01*
X-24856839Y-19695177D01*
X-24931355Y-19710000D01*
X-25108645Y-19710000D01*
X-25183161Y-19695177D01*
X-25282520Y-19675414D01*
X-25446310Y-19607570D01*
X-25593717Y-19509076D01*
X-25719076Y-19383717D01*
X-25817570Y-19236310D01*
X-25885414Y-19072520D01*
X-25906307Y-18967484D01*
X-25920000Y-18898645D01*
X-25920000Y-18721355D01*
X-25905177Y-18646839D01*
X-25885414Y-18547480D01*
X-25817570Y-18383690D01*
X-25719076Y-18236283D01*
X-25593717Y-18110924D01*
X-25446310Y-18012430D01*
X-25282520Y-17944586D01*
X-25183161Y-17924823D01*
X-25108645Y-17910000D01*
X-24931355Y-17910000D01*
X-24856839Y-17924823D01*
G37*
G36*
X-12156839Y-17924823D02*
G01*
X-12057480Y-17944586D01*
X-11893690Y-18012430D01*
X-11746283Y-18110924D01*
X-11620924Y-18236283D01*
X-11522430Y-18383690D01*
X-11454586Y-18547480D01*
X-11434823Y-18646839D01*
X-11420000Y-18721355D01*
X-11420000Y-18898645D01*
X-11433693Y-18967484D01*
X-11454586Y-19072520D01*
X-11522430Y-19236310D01*
X-11620924Y-19383717D01*
X-11746283Y-19509076D01*
X-11893690Y-19607570D01*
X-12057480Y-19675414D01*
X-12156839Y-19695177D01*
X-12231355Y-19710000D01*
X-12408645Y-19710000D01*
X-12483161Y-19695177D01*
X-12582520Y-19675414D01*
X-12746310Y-19607570D01*
X-12893717Y-19509076D01*
X-13019076Y-19383717D01*
X-13117570Y-19236310D01*
X-13185414Y-19072520D01*
X-13206307Y-18967484D01*
X-13220000Y-18898645D01*
X-13220000Y-18721355D01*
X-13205177Y-18646839D01*
X-13185414Y-18547480D01*
X-13117570Y-18383690D01*
X-13019076Y-18236283D01*
X-12893717Y-18110924D01*
X-12746310Y-18012430D01*
X-12582520Y-17944586D01*
X-12483161Y-17924823D01*
X-12408645Y-17910000D01*
X-12231355Y-17910000D01*
X-12156839Y-17924823D01*
G37*
G36*
X-9616839Y-17924823D02*
G01*
X-9517480Y-17944586D01*
X-9353690Y-18012430D01*
X-9206283Y-18110924D01*
X-9080924Y-18236283D01*
X-8982430Y-18383690D01*
X-8914586Y-18547480D01*
X-8894823Y-18646839D01*
X-8880000Y-18721355D01*
X-8880000Y-18898645D01*
X-8893693Y-18967484D01*
X-8914586Y-19072520D01*
X-8982430Y-19236310D01*
X-9080924Y-19383717D01*
X-9206283Y-19509076D01*
X-9353690Y-19607570D01*
X-9517480Y-19675414D01*
X-9616839Y-19695177D01*
X-9691355Y-19710000D01*
X-9868645Y-19710000D01*
X-9943161Y-19695177D01*
X-10042520Y-19675414D01*
X-10206310Y-19607570D01*
X-10353717Y-19509076D01*
X-10479076Y-19383717D01*
X-10577570Y-19236310D01*
X-10645414Y-19072520D01*
X-10666307Y-18967484D01*
X-10680000Y-18898645D01*
X-10680000Y-18721355D01*
X-10665177Y-18646839D01*
X-10645414Y-18547480D01*
X-10577570Y-18383690D01*
X-10479076Y-18236283D01*
X-10353717Y-18110924D01*
X-10206310Y-18012430D01*
X-10042520Y-17944586D01*
X-9943161Y-17924823D01*
X-9868645Y-17910000D01*
X-9691355Y-17910000D01*
X-9616839Y-17924823D01*
G37*
G36*
X-7076839Y-17924823D02*
G01*
X-6977480Y-17944586D01*
X-6813690Y-18012430D01*
X-6666283Y-18110924D01*
X-6540924Y-18236283D01*
X-6442430Y-18383690D01*
X-6374586Y-18547480D01*
X-6354823Y-18646839D01*
X-6340000Y-18721355D01*
X-6340000Y-18898645D01*
X-6353693Y-18967484D01*
X-6374586Y-19072520D01*
X-6442430Y-19236310D01*
X-6540924Y-19383717D01*
X-6666283Y-19509076D01*
X-6813690Y-19607570D01*
X-6977480Y-19675414D01*
X-7076839Y-19695177D01*
X-7151355Y-19710000D01*
X-7328645Y-19710000D01*
X-7403161Y-19695177D01*
X-7502520Y-19675414D01*
X-7666310Y-19607570D01*
X-7813717Y-19509076D01*
X-7939076Y-19383717D01*
X-8037570Y-19236310D01*
X-8105414Y-19072520D01*
X-8126307Y-18967484D01*
X-8140000Y-18898645D01*
X-8140000Y-18721355D01*
X-8125177Y-18646839D01*
X-8105414Y-18547480D01*
X-8037570Y-18383690D01*
X-7939076Y-18236283D01*
X-7813717Y-18110924D01*
X-7666310Y-18012430D01*
X-7502520Y-17944586D01*
X-7403161Y-17924823D01*
X-7328645Y-17910000D01*
X-7151355Y-17910000D01*
X-7076839Y-17924823D01*
G37*
G36*
X-35200000Y-19370000D02*
G01*
X-36800000Y-19370000D01*
X-36800000Y-17770000D01*
X-35200000Y-17770000D01*
X-35200000Y-19370000D01*
G37*
G36*
X-34091169Y-16759953D02*
G01*
X-33986649Y-16780743D01*
X-33841058Y-16841049D01*
X-33710030Y-16928599D01*
X-33598599Y-17040030D01*
X-33511049Y-17171058D01*
X-33450743Y-17316649D01*
X-33420000Y-17471207D01*
X-33420000Y-17628793D01*
X-33450743Y-17783351D01*
X-33511049Y-17928942D01*
X-33598599Y-18059970D01*
X-33710030Y-18171401D01*
X-33841058Y-18258951D01*
X-33986649Y-18319257D01*
X-34089688Y-18339752D01*
X-34141205Y-18350000D01*
X-34298795Y-18350000D01*
X-34350312Y-18339752D01*
X-34453351Y-18319257D01*
X-34598942Y-18258951D01*
X-34729970Y-18171401D01*
X-34841401Y-18059970D01*
X-34928951Y-17928942D01*
X-34989257Y-17783351D01*
X-35020000Y-17628793D01*
X-35020000Y-17471207D01*
X-34989257Y-17316649D01*
X-34928951Y-17171058D01*
X-34841401Y-17040030D01*
X-34729970Y-16928599D01*
X-34598942Y-16841049D01*
X-34453351Y-16780743D01*
X-34348831Y-16759953D01*
X-34298795Y-16750000D01*
X-34141205Y-16750000D01*
X-34091169Y-16759953D01*
G37*
G36*
X-35869688Y-15740248D02*
G01*
X-35766649Y-15760743D01*
X-35621058Y-15821049D01*
X-35490030Y-15908599D01*
X-35378599Y-16020030D01*
X-35291049Y-16151058D01*
X-35230743Y-16296649D01*
X-35200000Y-16451207D01*
X-35200000Y-16608793D01*
X-35230743Y-16763351D01*
X-35291049Y-16908942D01*
X-35378599Y-17039970D01*
X-35490030Y-17151401D01*
X-35621058Y-17238951D01*
X-35766649Y-17299257D01*
X-35869688Y-17319752D01*
X-35921205Y-17330000D01*
X-36078795Y-17330000D01*
X-36130312Y-17319752D01*
X-36233351Y-17299257D01*
X-36378942Y-17238951D01*
X-36509970Y-17151401D01*
X-36621401Y-17039970D01*
X-36708951Y-16908942D01*
X-36769257Y-16763351D01*
X-36800000Y-16608793D01*
X-36800000Y-16451207D01*
X-36769257Y-16296649D01*
X-36708951Y-16151058D01*
X-36621401Y-16020030D01*
X-36509970Y-15908599D01*
X-36378942Y-15821049D01*
X-36233351Y-15760743D01*
X-36130312Y-15740248D01*
X-36078795Y-15730000D01*
X-35921205Y-15730000D01*
X-35869688Y-15740248D01*
G37*
G36*
X35460024Y-14841114D02*
G01*
X35678417Y-14931575D01*
X35874953Y-15062897D01*
X36042103Y-15230047D01*
X36173425Y-15426583D01*
X36263886Y-15644976D01*
X36310000Y-15876808D01*
X36310000Y-16113192D01*
X36263886Y-16345024D01*
X36173425Y-16563417D01*
X36042103Y-16759953D01*
X35874953Y-16927103D01*
X35678417Y-17058425D01*
X35460024Y-17148886D01*
X35228192Y-17195000D01*
X34991808Y-17195000D01*
X34759976Y-17148886D01*
X34541583Y-17058425D01*
X34345047Y-16927103D01*
X34177897Y-16759953D01*
X34046575Y-16563417D01*
X33956114Y-16345024D01*
X33910000Y-16113192D01*
X33910000Y-15876808D01*
X33956114Y-15644976D01*
X34046575Y-15426583D01*
X34177897Y-15230047D01*
X34345047Y-15062897D01*
X34541583Y-14931575D01*
X34759976Y-14841114D01*
X34991808Y-14795000D01*
X35228192Y-14795000D01*
X35460024Y-14841114D01*
G37*
G36*
X-24856839Y-15384823D02*
G01*
X-24757480Y-15404586D01*
X-24593690Y-15472430D01*
X-24446283Y-15570924D01*
X-24320924Y-15696283D01*
X-24222430Y-15843690D01*
X-24154586Y-16007480D01*
X-24134823Y-16106839D01*
X-24120000Y-16181355D01*
X-24120000Y-16358645D01*
X-24134823Y-16433161D01*
X-24154586Y-16532520D01*
X-24222430Y-16696310D01*
X-24320924Y-16843717D01*
X-24446283Y-16969076D01*
X-24593690Y-17067570D01*
X-24757480Y-17135414D01*
X-24856839Y-17155177D01*
X-24931355Y-17170000D01*
X-25108645Y-17170000D01*
X-25183161Y-17155177D01*
X-25282520Y-17135414D01*
X-25446310Y-17067570D01*
X-25593717Y-16969076D01*
X-25719076Y-16843717D01*
X-25817570Y-16696310D01*
X-25885414Y-16532520D01*
X-25905177Y-16433161D01*
X-25920000Y-16358645D01*
X-25920000Y-16181355D01*
X-25905177Y-16106839D01*
X-25885414Y-16007480D01*
X-25817570Y-15843690D01*
X-25719076Y-15696283D01*
X-25593717Y-15570924D01*
X-25446310Y-15472430D01*
X-25282520Y-15404586D01*
X-25183161Y-15384823D01*
X-25108645Y-15370000D01*
X-24931355Y-15370000D01*
X-24856839Y-15384823D01*
G37*
G36*
X5623161Y-15384823D02*
G01*
X5722520Y-15404586D01*
X5886310Y-15472430D01*
X6033717Y-15570924D01*
X6159076Y-15696283D01*
X6257570Y-15843690D01*
X6325414Y-16007480D01*
X6345177Y-16106839D01*
X6360000Y-16181355D01*
X6360000Y-16358645D01*
X6345177Y-16433161D01*
X6325414Y-16532520D01*
X6257570Y-16696310D01*
X6159076Y-16843717D01*
X6033717Y-16969076D01*
X5886310Y-17067570D01*
X5722520Y-17135414D01*
X5623161Y-17155177D01*
X5548645Y-17170000D01*
X5371355Y-17170000D01*
X5296839Y-17155177D01*
X5197480Y-17135414D01*
X5033690Y-17067570D01*
X4886283Y-16969076D01*
X4760924Y-16843717D01*
X4662430Y-16696310D01*
X4594586Y-16532520D01*
X4574823Y-16433161D01*
X4560000Y-16358645D01*
X4560000Y-16181355D01*
X4574823Y-16106839D01*
X4594586Y-16007480D01*
X4662430Y-15843690D01*
X4760924Y-15696283D01*
X4886283Y-15570924D01*
X5033690Y-15472430D01*
X5197480Y-15404586D01*
X5296839Y-15384823D01*
X5371355Y-15370000D01*
X5548645Y-15370000D01*
X5623161Y-15384823D01*
G37*
G36*
X8163161Y-15384823D02*
G01*
X8262520Y-15404586D01*
X8426310Y-15472430D01*
X8573717Y-15570924D01*
X8699076Y-15696283D01*
X8797570Y-15843690D01*
X8865414Y-16007480D01*
X8885177Y-16106839D01*
X8900000Y-16181355D01*
X8900000Y-16358645D01*
X8885177Y-16433161D01*
X8865414Y-16532520D01*
X8797570Y-16696310D01*
X8699076Y-16843717D01*
X8573717Y-16969076D01*
X8426310Y-17067570D01*
X8262520Y-17135414D01*
X8163161Y-17155177D01*
X8088645Y-17170000D01*
X7911355Y-17170000D01*
X7836839Y-17155177D01*
X7737480Y-17135414D01*
X7573690Y-17067570D01*
X7426283Y-16969076D01*
X7300924Y-16843717D01*
X7202430Y-16696310D01*
X7134586Y-16532520D01*
X7114823Y-16433161D01*
X7100000Y-16358645D01*
X7100000Y-16181355D01*
X7114823Y-16106839D01*
X7134586Y-16007480D01*
X7202430Y-15843690D01*
X7300924Y-15696283D01*
X7426283Y-15570924D01*
X7573690Y-15472430D01*
X7737480Y-15404586D01*
X7836839Y-15384823D01*
X7911355Y-15370000D01*
X8088645Y-15370000D01*
X8163161Y-15384823D01*
G37*
G36*
X-22316839Y-15384823D02*
G01*
X-22217480Y-15404586D01*
X-22053690Y-15472430D01*
X-21906283Y-15570924D01*
X-21780924Y-15696283D01*
X-21682430Y-15843690D01*
X-21614586Y-16007480D01*
X-21594823Y-16106839D01*
X-21580000Y-16181355D01*
X-21580000Y-16358645D01*
X-21594823Y-16433161D01*
X-21614586Y-16532520D01*
X-21682430Y-16696310D01*
X-21780924Y-16843717D01*
X-21906283Y-16969076D01*
X-22053690Y-17067570D01*
X-22217480Y-17135414D01*
X-22316839Y-17155177D01*
X-22391355Y-17170000D01*
X-22568645Y-17170000D01*
X-22643161Y-17155177D01*
X-22742520Y-17135414D01*
X-22906310Y-17067570D01*
X-23053717Y-16969076D01*
X-23179076Y-16843717D01*
X-23277570Y-16696310D01*
X-23345414Y-16532520D01*
X-23365177Y-16433161D01*
X-23380000Y-16358645D01*
X-23380000Y-16181355D01*
X-23365177Y-16106839D01*
X-23345414Y-16007480D01*
X-23277570Y-15843690D01*
X-23179076Y-15696283D01*
X-23053717Y-15570924D01*
X-22906310Y-15472430D01*
X-22742520Y-15404586D01*
X-22643161Y-15384823D01*
X-22568645Y-15370000D01*
X-22391355Y-15370000D01*
X-22316839Y-15384823D01*
G37*
G36*
X-34089688Y-14720248D02*
G01*
X-33986649Y-14740743D01*
X-33841058Y-14801049D01*
X-33710030Y-14888599D01*
X-33598599Y-15000030D01*
X-33511049Y-15131058D01*
X-33450743Y-15276649D01*
X-33434880Y-15356401D01*
X-33420919Y-15426583D01*
X-33420000Y-15431207D01*
X-33420000Y-15588793D01*
X-33450743Y-15743351D01*
X-33511049Y-15888942D01*
X-33598599Y-16019970D01*
X-33710030Y-16131401D01*
X-33841058Y-16218951D01*
X-33986649Y-16279257D01*
X-34089688Y-16299752D01*
X-34141205Y-16310000D01*
X-34298795Y-16310000D01*
X-34350312Y-16299752D01*
X-34453351Y-16279257D01*
X-34598942Y-16218951D01*
X-34729970Y-16131401D01*
X-34841401Y-16019970D01*
X-34928951Y-15888942D01*
X-34989257Y-15743351D01*
X-35020000Y-15588793D01*
X-35020000Y-15431207D01*
X-35019080Y-15426583D01*
X-35005120Y-15356401D01*
X-34989257Y-15276649D01*
X-34928951Y-15131058D01*
X-34841401Y-15000030D01*
X-34729970Y-14888599D01*
X-34598942Y-14801049D01*
X-34453351Y-14740743D01*
X-34350312Y-14720248D01*
X-34298795Y-14710000D01*
X-34141205Y-14710000D01*
X-34089688Y-14720248D01*
G37*
G36*
X39028576Y-12614368D02*
G01*
X39028577Y-12614368D01*
X39028580Y-12614369D01*
X39333410Y-12740634D01*
X39607751Y-12923942D01*
X39841058Y-13157249D01*
X40024366Y-13431590D01*
X40150631Y-13736420D01*
X40150632Y-13736423D01*
X40150632Y-13736424D01*
X40215000Y-14060025D01*
X40215000Y-14389975D01*
X40174136Y-14595414D01*
X40150631Y-14713580D01*
X40024366Y-15018410D01*
X39841058Y-15292751D01*
X39607751Y-15526058D01*
X39333410Y-15709366D01*
X39028580Y-15835631D01*
X39028577Y-15835632D01*
X39028576Y-15835632D01*
X38704975Y-15900000D01*
X38375025Y-15900000D01*
X38051424Y-15835632D01*
X38051423Y-15835632D01*
X38051420Y-15835631D01*
X37746590Y-15709366D01*
X37472249Y-15526058D01*
X37238942Y-15292751D01*
X37055634Y-15018410D01*
X36929369Y-14713580D01*
X36905864Y-14595414D01*
X36865000Y-14389975D01*
X36865000Y-14060025D01*
X36929368Y-13736424D01*
X36929368Y-13736423D01*
X36929369Y-13736420D01*
X37055634Y-13431590D01*
X37238942Y-13157249D01*
X37472249Y-12923942D01*
X37746590Y-12740634D01*
X38051420Y-12614369D01*
X38051423Y-12614368D01*
X38051424Y-12614368D01*
X38375025Y-12550000D01*
X38704975Y-12550000D01*
X39028576Y-12614368D01*
G37*
G36*
X29530312Y-13945248D02*
G01*
X29633351Y-13965743D01*
X29778942Y-14026049D01*
X29909970Y-14113599D01*
X30021401Y-14225030D01*
X30108951Y-14356058D01*
X30169257Y-14501649D01*
X30200000Y-14656207D01*
X30200000Y-14813793D01*
X30169257Y-14968351D01*
X30108951Y-15113942D01*
X30021401Y-15244970D01*
X29909970Y-15356401D01*
X29778942Y-15443951D01*
X29633351Y-15504257D01*
X29530312Y-15524752D01*
X29478795Y-15535000D01*
X29321205Y-15535000D01*
X29269688Y-15524752D01*
X29166649Y-15504257D01*
X29021058Y-15443951D01*
X28890030Y-15356401D01*
X28778599Y-15244970D01*
X28691049Y-15113942D01*
X28630743Y-14968351D01*
X28600000Y-14813793D01*
X28600000Y-14656207D01*
X28630743Y-14501649D01*
X28691049Y-14356058D01*
X28778599Y-14225030D01*
X28890030Y-14113599D01*
X29021058Y-14026049D01*
X29166649Y-13965743D01*
X29269688Y-13945248D01*
X29321205Y-13935000D01*
X29478795Y-13935000D01*
X29530312Y-13945248D01*
G37*
G36*
X-35869688Y-13700248D02*
G01*
X-35766649Y-13720743D01*
X-35621058Y-13781049D01*
X-35490030Y-13868599D01*
X-35378599Y-13980030D01*
X-35291049Y-14111058D01*
X-35230743Y-14256649D01*
X-35221381Y-14303717D01*
X-35204223Y-14389973D01*
X-35200000Y-14411207D01*
X-35200000Y-14568793D01*
X-35230743Y-14723351D01*
X-35291049Y-14868942D01*
X-35378599Y-14999970D01*
X-35490030Y-15111401D01*
X-35621058Y-15198951D01*
X-35766649Y-15259257D01*
X-35869688Y-15279752D01*
X-35921205Y-15290000D01*
X-36078795Y-15290000D01*
X-36130312Y-15279752D01*
X-36233351Y-15259257D01*
X-36378942Y-15198951D01*
X-36509970Y-15111401D01*
X-36621401Y-14999970D01*
X-36708951Y-14868942D01*
X-36769257Y-14723351D01*
X-36800000Y-14568793D01*
X-36800000Y-14411207D01*
X-36795776Y-14389973D01*
X-36778619Y-14303717D01*
X-36769257Y-14256649D01*
X-36708951Y-14111058D01*
X-36621401Y-13980030D01*
X-36509970Y-13868599D01*
X-36378942Y-13781049D01*
X-36233351Y-13720743D01*
X-36130312Y-13700248D01*
X-36078795Y-13690000D01*
X-35921205Y-13690000D01*
X-35869688Y-13700248D01*
G37*
G36*
X-24856839Y-12844823D02*
G01*
X-24757480Y-12864586D01*
X-24593690Y-12932430D01*
X-24446283Y-13030924D01*
X-24320924Y-13156283D01*
X-24222430Y-13303690D01*
X-24154586Y-13467480D01*
X-24138412Y-13548793D01*
X-24120000Y-13641355D01*
X-24120000Y-13818645D01*
X-24129937Y-13868599D01*
X-24154586Y-13992520D01*
X-24222430Y-14156310D01*
X-24320924Y-14303717D01*
X-24446283Y-14429076D01*
X-24593690Y-14527570D01*
X-24757480Y-14595414D01*
X-24856839Y-14615177D01*
X-24931355Y-14630000D01*
X-25108645Y-14630000D01*
X-25183161Y-14615177D01*
X-25282520Y-14595414D01*
X-25446310Y-14527570D01*
X-25593717Y-14429076D01*
X-25719076Y-14303717D01*
X-25817570Y-14156310D01*
X-25885414Y-13992520D01*
X-25910063Y-13868599D01*
X-25920000Y-13818645D01*
X-25920000Y-13641355D01*
X-25901588Y-13548793D01*
X-25885414Y-13467480D01*
X-25817570Y-13303690D01*
X-25719076Y-13156283D01*
X-25593717Y-13030924D01*
X-25446310Y-12932430D01*
X-25282520Y-12864586D01*
X-25183161Y-12844823D01*
X-25108645Y-12830000D01*
X-24931355Y-12830000D01*
X-24856839Y-12844823D01*
G37*
G36*
X8163161Y-12844823D02*
G01*
X8262520Y-12864586D01*
X8426310Y-12932430D01*
X8573717Y-13030924D01*
X8699076Y-13156283D01*
X8797570Y-13303690D01*
X8865414Y-13467480D01*
X8881588Y-13548793D01*
X8900000Y-13641355D01*
X8900000Y-13818645D01*
X8890063Y-13868599D01*
X8865414Y-13992520D01*
X8797570Y-14156310D01*
X8699076Y-14303717D01*
X8573717Y-14429076D01*
X8426310Y-14527570D01*
X8262520Y-14595414D01*
X8163161Y-14615177D01*
X8088645Y-14630000D01*
X7911355Y-14630000D01*
X7836839Y-14615177D01*
X7737480Y-14595414D01*
X7573690Y-14527570D01*
X7426283Y-14429076D01*
X7300924Y-14303717D01*
X7202430Y-14156310D01*
X7134586Y-13992520D01*
X7109937Y-13868599D01*
X7100000Y-13818645D01*
X7100000Y-13641355D01*
X7118412Y-13548793D01*
X7134586Y-13467480D01*
X7202430Y-13303690D01*
X7300924Y-13156283D01*
X7426283Y-13030924D01*
X7573690Y-12932430D01*
X7737480Y-12864586D01*
X7836839Y-12844823D01*
X7911355Y-12830000D01*
X8088645Y-12830000D01*
X8163161Y-12844823D01*
G37*
G36*
X-22316839Y-12844823D02*
G01*
X-22217480Y-12864586D01*
X-22053690Y-12932430D01*
X-21906283Y-13030924D01*
X-21780924Y-13156283D01*
X-21682430Y-13303690D01*
X-21614586Y-13467480D01*
X-21598412Y-13548793D01*
X-21580000Y-13641355D01*
X-21580000Y-13818645D01*
X-21589937Y-13868599D01*
X-21614586Y-13992520D01*
X-21682430Y-14156310D01*
X-21780924Y-14303717D01*
X-21906283Y-14429076D01*
X-22053690Y-14527570D01*
X-22217480Y-14595414D01*
X-22316839Y-14615177D01*
X-22391355Y-14630000D01*
X-22568645Y-14630000D01*
X-22643161Y-14615177D01*
X-22742520Y-14595414D01*
X-22906310Y-14527570D01*
X-23053717Y-14429076D01*
X-23179076Y-14303717D01*
X-23277570Y-14156310D01*
X-23345414Y-13992520D01*
X-23370063Y-13868599D01*
X-23380000Y-13818645D01*
X-23380000Y-13641355D01*
X-23361588Y-13548793D01*
X-23345414Y-13467480D01*
X-23277570Y-13303690D01*
X-23179076Y-13156283D01*
X-23053717Y-13030924D01*
X-22906310Y-12932430D01*
X-22742520Y-12864586D01*
X-22643161Y-12844823D01*
X-22568645Y-12830000D01*
X-22391355Y-12830000D01*
X-22316839Y-12844823D01*
G37*
G36*
X5623161Y-12844823D02*
G01*
X5722520Y-12864586D01*
X5886310Y-12932430D01*
X6033717Y-13030924D01*
X6159076Y-13156283D01*
X6257570Y-13303690D01*
X6325414Y-13467480D01*
X6341588Y-13548793D01*
X6360000Y-13641355D01*
X6360000Y-13818645D01*
X6350063Y-13868599D01*
X6325414Y-13992520D01*
X6257570Y-14156310D01*
X6159076Y-14303717D01*
X6033717Y-14429076D01*
X5886310Y-14527570D01*
X5722520Y-14595414D01*
X5623161Y-14615177D01*
X5548645Y-14630000D01*
X5371355Y-14630000D01*
X5296839Y-14615177D01*
X5197480Y-14595414D01*
X5033690Y-14527570D01*
X4886283Y-14429076D01*
X4760924Y-14303717D01*
X4662430Y-14156310D01*
X4594586Y-13992520D01*
X4569937Y-13868599D01*
X4560000Y-13818645D01*
X4560000Y-13641355D01*
X4578412Y-13548793D01*
X4594586Y-13467480D01*
X4662430Y-13303690D01*
X4760924Y-13156283D01*
X4886283Y-13030924D01*
X5033690Y-12932430D01*
X5197480Y-12864586D01*
X5296839Y-12844823D01*
X5371355Y-12830000D01*
X5548645Y-12830000D01*
X5623161Y-12844823D01*
G37*
G36*
X-34099243Y-12678347D02*
G01*
X-33986649Y-12700743D01*
X-33841058Y-12761049D01*
X-33710030Y-12848599D01*
X-33598599Y-12960030D01*
X-33511049Y-13091058D01*
X-33450743Y-13236649D01*
X-33420000Y-13391207D01*
X-33420000Y-13548793D01*
X-33450743Y-13703351D01*
X-33511049Y-13848942D01*
X-33598599Y-13979970D01*
X-33710030Y-14091401D01*
X-33841058Y-14178951D01*
X-33986649Y-14239257D01*
X-34089688Y-14259752D01*
X-34141205Y-14270000D01*
X-34298795Y-14270000D01*
X-34350312Y-14259752D01*
X-34453351Y-14239257D01*
X-34598942Y-14178951D01*
X-34729970Y-14091401D01*
X-34841401Y-13979970D01*
X-34928951Y-13848942D01*
X-34989257Y-13703351D01*
X-35020000Y-13548793D01*
X-35020000Y-13391207D01*
X-34989257Y-13236649D01*
X-34928951Y-13091058D01*
X-34841401Y-12960030D01*
X-34729970Y-12848599D01*
X-34598942Y-12761049D01*
X-34453351Y-12700743D01*
X-34340757Y-12678347D01*
X-34298795Y-12670000D01*
X-34141205Y-12670000D01*
X-34099243Y-12678347D01*
G37*
G36*
X-35869688Y-11660248D02*
G01*
X-35766649Y-11680743D01*
X-35621058Y-11741049D01*
X-35490030Y-11828599D01*
X-35378599Y-11940030D01*
X-35291049Y-12071058D01*
X-35230743Y-12216649D01*
X-35210248Y-12319688D01*
X-35200994Y-12366207D01*
X-35200000Y-12371207D01*
X-35200000Y-12528793D01*
X-35230743Y-12683351D01*
X-35291049Y-12828942D01*
X-35378599Y-12959970D01*
X-35490030Y-13071401D01*
X-35621058Y-13158951D01*
X-35766649Y-13219257D01*
X-35869688Y-13239752D01*
X-35921205Y-13250000D01*
X-36078795Y-13250000D01*
X-36130312Y-13239752D01*
X-36233351Y-13219257D01*
X-36378942Y-13158951D01*
X-36509970Y-13071401D01*
X-36621401Y-12959970D01*
X-36708951Y-12828942D01*
X-36769257Y-12683351D01*
X-36800000Y-12528793D01*
X-36800000Y-12371207D01*
X-36799005Y-12366207D01*
X-36789752Y-12319688D01*
X-36769257Y-12216649D01*
X-36708951Y-12071058D01*
X-36621401Y-11940030D01*
X-36509970Y-11828599D01*
X-36378942Y-11741049D01*
X-36233351Y-11680743D01*
X-36130312Y-11660248D01*
X-36078795Y-11650000D01*
X-35921205Y-11650000D01*
X-35869688Y-11660248D01*
G37*
G36*
X29530312Y-11655248D02*
G01*
X29633351Y-11675743D01*
X29778942Y-11736049D01*
X29909970Y-11823599D01*
X30021401Y-11935030D01*
X30108951Y-12066058D01*
X30169257Y-12211649D01*
X30170252Y-12216653D01*
X30200000Y-12366205D01*
X30200000Y-12523795D01*
X30199005Y-12528795D01*
X30169257Y-12678351D01*
X30108951Y-12823942D01*
X30021401Y-12954970D01*
X29909970Y-13066401D01*
X29778942Y-13153951D01*
X29633351Y-13214257D01*
X29530312Y-13234752D01*
X29478795Y-13245000D01*
X29321205Y-13245000D01*
X29269688Y-13234752D01*
X29166649Y-13214257D01*
X29021058Y-13153951D01*
X28890030Y-13066401D01*
X28778599Y-12954970D01*
X28691049Y-12823942D01*
X28630743Y-12678351D01*
X28600995Y-12528795D01*
X28600000Y-12523795D01*
X28600000Y-12366205D01*
X28629748Y-12216653D01*
X28630743Y-12211649D01*
X28691049Y-12066058D01*
X28778599Y-11935030D01*
X28890030Y-11823599D01*
X29021058Y-11736049D01*
X29166649Y-11675743D01*
X29269688Y-11655248D01*
X29321205Y-11645000D01*
X29478795Y-11645000D01*
X29530312Y-11655248D01*
G37*
G36*
X-34089688Y-10640248D02*
G01*
X-33986649Y-10660743D01*
X-33841058Y-10721049D01*
X-33710030Y-10808599D01*
X-33598599Y-10920030D01*
X-33511049Y-11051058D01*
X-33450743Y-11196649D01*
X-33434434Y-11278642D01*
X-33420596Y-11348207D01*
X-33420000Y-11351207D01*
X-33420000Y-11508793D01*
X-33450743Y-11663351D01*
X-33511049Y-11808942D01*
X-33598599Y-11939970D01*
X-33710030Y-12051401D01*
X-33841058Y-12138951D01*
X-33986649Y-12199257D01*
X-34089688Y-12219752D01*
X-34141205Y-12230000D01*
X-34298795Y-12230000D01*
X-34350312Y-12219752D01*
X-34453351Y-12199257D01*
X-34598942Y-12138951D01*
X-34729970Y-12051401D01*
X-34841401Y-11939970D01*
X-34928951Y-11808942D01*
X-34989257Y-11663351D01*
X-35020000Y-11508793D01*
X-35020000Y-11351207D01*
X-35019403Y-11348207D01*
X-35005566Y-11278642D01*
X-34989257Y-11196649D01*
X-34928951Y-11051058D01*
X-34841401Y-10920030D01*
X-34729970Y-10808599D01*
X-34598942Y-10721049D01*
X-34453351Y-10660743D01*
X-34350312Y-10640248D01*
X-34298795Y-10630000D01*
X-34141205Y-10630000D01*
X-34089688Y-10640248D01*
G37*
G36*
X34350312Y-10637248D02*
G01*
X34453351Y-10657743D01*
X34598942Y-10718049D01*
X34729970Y-10805599D01*
X34841401Y-10917030D01*
X34928951Y-11048058D01*
X34989257Y-11193649D01*
X34992708Y-11211000D01*
X35020000Y-11348205D01*
X35020000Y-11505795D01*
X35019403Y-11508795D01*
X34989257Y-11660351D01*
X34928951Y-11805942D01*
X34841401Y-11936970D01*
X34729970Y-12048401D01*
X34598942Y-12135951D01*
X34453351Y-12196257D01*
X34350832Y-12216649D01*
X34298795Y-12227000D01*
X34141205Y-12227000D01*
X34089168Y-12216649D01*
X33986649Y-12196257D01*
X33841058Y-12135951D01*
X33710030Y-12048401D01*
X33598599Y-11936970D01*
X33511049Y-11805942D01*
X33450743Y-11660351D01*
X33420597Y-11508795D01*
X33420000Y-11505795D01*
X33420000Y-11348205D01*
X33447292Y-11211000D01*
X33450743Y-11193649D01*
X33511049Y-11048058D01*
X33598599Y-10917030D01*
X33710030Y-10805599D01*
X33841058Y-10718049D01*
X33986649Y-10657743D01*
X34089688Y-10637248D01*
X34141205Y-10627000D01*
X34298795Y-10627000D01*
X34350312Y-10637248D01*
G37*
G36*
X-22316839Y-10304823D02*
G01*
X-22217480Y-10324586D01*
X-22053690Y-10392430D01*
X-21906283Y-10490924D01*
X-21780924Y-10616283D01*
X-21682430Y-10763690D01*
X-21614586Y-10927480D01*
X-21594823Y-11026839D01*
X-21580000Y-11101355D01*
X-21580000Y-11278645D01*
X-21593837Y-11348205D01*
X-21614586Y-11452520D01*
X-21682430Y-11616310D01*
X-21780924Y-11763717D01*
X-21906283Y-11889076D01*
X-22053690Y-11987570D01*
X-22217480Y-12055414D01*
X-22316839Y-12075177D01*
X-22391355Y-12090000D01*
X-22568645Y-12090000D01*
X-22643161Y-12075177D01*
X-22742520Y-12055414D01*
X-22906310Y-11987570D01*
X-23053717Y-11889076D01*
X-23179076Y-11763717D01*
X-23277570Y-11616310D01*
X-23345414Y-11452520D01*
X-23366163Y-11348205D01*
X-23380000Y-11278645D01*
X-23380000Y-11101355D01*
X-23365177Y-11026839D01*
X-23345414Y-10927480D01*
X-23277570Y-10763690D01*
X-23179076Y-10616283D01*
X-23053717Y-10490924D01*
X-22906310Y-10392430D01*
X-22742520Y-10324586D01*
X-22643161Y-10304823D01*
X-22568645Y-10290000D01*
X-22391355Y-10290000D01*
X-22316839Y-10304823D01*
G37*
G36*
X8163161Y-10304823D02*
G01*
X8262520Y-10324586D01*
X8426310Y-10392430D01*
X8573717Y-10490924D01*
X8699076Y-10616283D01*
X8797570Y-10763690D01*
X8865414Y-10927480D01*
X8885177Y-11026839D01*
X8900000Y-11101355D01*
X8900000Y-11278645D01*
X8886163Y-11348205D01*
X8865414Y-11452520D01*
X8797570Y-11616310D01*
X8699076Y-11763717D01*
X8573717Y-11889076D01*
X8426310Y-11987570D01*
X8262520Y-12055414D01*
X8163161Y-12075177D01*
X8088645Y-12090000D01*
X7911355Y-12090000D01*
X7836839Y-12075177D01*
X7737480Y-12055414D01*
X7573690Y-11987570D01*
X7426283Y-11889076D01*
X7300924Y-11763717D01*
X7202430Y-11616310D01*
X7134586Y-11452520D01*
X7113837Y-11348205D01*
X7100000Y-11278645D01*
X7100000Y-11101355D01*
X7114823Y-11026839D01*
X7134586Y-10927480D01*
X7202430Y-10763690D01*
X7300924Y-10616283D01*
X7426283Y-10490924D01*
X7573690Y-10392430D01*
X7737480Y-10324586D01*
X7836839Y-10304823D01*
X7911355Y-10290000D01*
X8088645Y-10290000D01*
X8163161Y-10304823D01*
G37*
G36*
X5623161Y-10304823D02*
G01*
X5722520Y-10324586D01*
X5886310Y-10392430D01*
X6033717Y-10490924D01*
X6159076Y-10616283D01*
X6257570Y-10763690D01*
X6325414Y-10927480D01*
X6345177Y-11026839D01*
X6360000Y-11101355D01*
X6360000Y-11278645D01*
X6346163Y-11348205D01*
X6325414Y-11452520D01*
X6257570Y-11616310D01*
X6159076Y-11763717D01*
X6033717Y-11889076D01*
X5886310Y-11987570D01*
X5722520Y-12055414D01*
X5623161Y-12075177D01*
X5548645Y-12090000D01*
X5371355Y-12090000D01*
X5296839Y-12075177D01*
X5197480Y-12055414D01*
X5033690Y-11987570D01*
X4886283Y-11889076D01*
X4760924Y-11763717D01*
X4662430Y-11616310D01*
X4594586Y-11452520D01*
X4573837Y-11348205D01*
X4560000Y-11278645D01*
X4560000Y-11101355D01*
X4574823Y-11026839D01*
X4594586Y-10927480D01*
X4662430Y-10763690D01*
X4760924Y-10616283D01*
X4886283Y-10490924D01*
X5033690Y-10392430D01*
X5197480Y-10324586D01*
X5296839Y-10304823D01*
X5371355Y-10290000D01*
X5548645Y-10290000D01*
X5623161Y-10304823D01*
G37*
G36*
X-24856839Y-10304823D02*
G01*
X-24757480Y-10324586D01*
X-24593690Y-10392430D01*
X-24446283Y-10490924D01*
X-24320924Y-10616283D01*
X-24222430Y-10763690D01*
X-24154586Y-10927480D01*
X-24134823Y-11026839D01*
X-24120000Y-11101355D01*
X-24120000Y-11278645D01*
X-24133837Y-11348205D01*
X-24154586Y-11452520D01*
X-24222430Y-11616310D01*
X-24320924Y-11763717D01*
X-24446283Y-11889076D01*
X-24593690Y-11987570D01*
X-24757480Y-12055414D01*
X-24856839Y-12075177D01*
X-24931355Y-12090000D01*
X-25108645Y-12090000D01*
X-25183161Y-12075177D01*
X-25282520Y-12055414D01*
X-25446310Y-11987570D01*
X-25593717Y-11889076D01*
X-25719076Y-11763717D01*
X-25817570Y-11616310D01*
X-25885414Y-11452520D01*
X-25906163Y-11348205D01*
X-25920000Y-11278645D01*
X-25920000Y-11101355D01*
X-25905177Y-11026839D01*
X-25885414Y-10927480D01*
X-25817570Y-10763690D01*
X-25719076Y-10616283D01*
X-25593717Y-10490924D01*
X-25446310Y-10392430D01*
X-25282520Y-10324586D01*
X-25183161Y-10304823D01*
X-25108645Y-10290000D01*
X-24931355Y-10290000D01*
X-24856839Y-10304823D01*
G37*
G36*
X36130312Y-9621248D02*
G01*
X36233351Y-9641743D01*
X36378942Y-9702049D01*
X36509970Y-9789599D01*
X36621401Y-9901030D01*
X36708951Y-10032058D01*
X36769257Y-10177649D01*
X36772708Y-10195000D01*
X36800000Y-10332205D01*
X36800000Y-10489795D01*
X36799775Y-10490924D01*
X36769257Y-10644351D01*
X36708951Y-10789942D01*
X36621401Y-10920970D01*
X36509970Y-11032401D01*
X36378942Y-11119951D01*
X36233351Y-11180257D01*
X36150921Y-11196653D01*
X36078795Y-11211000D01*
X35921205Y-11211000D01*
X35849079Y-11196653D01*
X35766649Y-11180257D01*
X35621058Y-11119951D01*
X35490030Y-11032401D01*
X35378599Y-10920970D01*
X35291049Y-10789942D01*
X35230743Y-10644351D01*
X35200225Y-10490924D01*
X35200000Y-10489795D01*
X35200000Y-10332205D01*
X35227292Y-10195000D01*
X35230743Y-10177649D01*
X35291049Y-10032058D01*
X35378599Y-9901030D01*
X35490030Y-9789599D01*
X35621058Y-9702049D01*
X35766649Y-9641743D01*
X35869688Y-9621248D01*
X35921205Y-9611000D01*
X36078795Y-9611000D01*
X36130312Y-9621248D01*
G37*
G36*
X-38051424Y-7049368D02*
G01*
X-38051423Y-7049368D01*
X-38051420Y-7049369D01*
X-37746590Y-7175634D01*
X-37472249Y-7358942D01*
X-37238942Y-7592249D01*
X-37055634Y-7866590D01*
X-36929369Y-8171420D01*
X-36929368Y-8171423D01*
X-36929368Y-8171424D01*
X-36865000Y-8495025D01*
X-36865000Y-8824975D01*
X-36899895Y-9000403D01*
X-36929369Y-9148580D01*
X-37055634Y-9453410D01*
X-37238942Y-9727751D01*
X-37472249Y-9961058D01*
X-37746590Y-10144366D01*
X-38051420Y-10270631D01*
X-38051423Y-10270632D01*
X-38051424Y-10270632D01*
X-38375025Y-10335000D01*
X-38704975Y-10335000D01*
X-39028576Y-10270632D01*
X-39028577Y-10270632D01*
X-39028580Y-10270631D01*
X-39333410Y-10144366D01*
X-39607751Y-9961058D01*
X-39841058Y-9727751D01*
X-40024366Y-9453410D01*
X-40150631Y-9148580D01*
X-40180105Y-9000403D01*
X-40215000Y-8824975D01*
X-40215000Y-8495025D01*
X-40150632Y-8171424D01*
X-40150632Y-8171423D01*
X-40150631Y-8171420D01*
X-40024366Y-7866590D01*
X-39841058Y-7592249D01*
X-39607751Y-7358942D01*
X-39333410Y-7175634D01*
X-39028580Y-7049369D01*
X-39028577Y-7049368D01*
X-39028576Y-7049368D01*
X-38704975Y-6985000D01*
X-38375025Y-6985000D01*
X-38051424Y-7049368D01*
G37*
G36*
X34350312Y-8605248D02*
G01*
X34453351Y-8625743D01*
X34598942Y-8686049D01*
X34729970Y-8773599D01*
X34841401Y-8885030D01*
X34928951Y-9016058D01*
X34989257Y-9161649D01*
X35020000Y-9316207D01*
X35020000Y-9473793D01*
X34989257Y-9628351D01*
X34928951Y-9773942D01*
X34841401Y-9904970D01*
X34729970Y-10016401D01*
X34598942Y-10103951D01*
X34453351Y-10164257D01*
X34350312Y-10184752D01*
X34298795Y-10195000D01*
X34141205Y-10195000D01*
X34089688Y-10184752D01*
X33986649Y-10164257D01*
X33841058Y-10103951D01*
X33710030Y-10016401D01*
X33598599Y-9904970D01*
X33511049Y-9773942D01*
X33450743Y-9628351D01*
X33420000Y-9473793D01*
X33420000Y-9316207D01*
X33450743Y-9161649D01*
X33511049Y-9016058D01*
X33598599Y-8885030D01*
X33710030Y-8773599D01*
X33841058Y-8686049D01*
X33986649Y-8625743D01*
X34089688Y-8605248D01*
X34141205Y-8595000D01*
X34298795Y-8595000D01*
X34350312Y-8605248D01*
G37*
G36*
X36130312Y-7589248D02*
G01*
X36233351Y-7609743D01*
X36378942Y-7670049D01*
X36509970Y-7757599D01*
X36621401Y-7869030D01*
X36708951Y-8000058D01*
X36769257Y-8145649D01*
X36800000Y-8300207D01*
X36800000Y-8457793D01*
X36769257Y-8612351D01*
X36708951Y-8757942D01*
X36621401Y-8888970D01*
X36509970Y-9000401D01*
X36378942Y-9087951D01*
X36233351Y-9148257D01*
X36130312Y-9168752D01*
X36078795Y-9179000D01*
X35921205Y-9179000D01*
X35869688Y-9168752D01*
X35766649Y-9148257D01*
X35621058Y-9087951D01*
X35490030Y-9000401D01*
X35378599Y-8888970D01*
X35291049Y-8757942D01*
X35230743Y-8612351D01*
X35200000Y-8457793D01*
X35200000Y-8300207D01*
X35230743Y-8145649D01*
X35291049Y-8000058D01*
X35378599Y-7869030D01*
X35490030Y-7757599D01*
X35621058Y-7670049D01*
X35766649Y-7609743D01*
X35869688Y-7589248D01*
X35921205Y-7579000D01*
X36078795Y-7579000D01*
X36130312Y-7589248D01*
G37*
G36*
X34350312Y-6573248D02*
G01*
X34453351Y-6593743D01*
X34598942Y-6654049D01*
X34729970Y-6741599D01*
X34841401Y-6853030D01*
X34928951Y-6984058D01*
X34989257Y-7129649D01*
X35020000Y-7284207D01*
X35020000Y-7441793D01*
X34989257Y-7596351D01*
X34928951Y-7741942D01*
X34841401Y-7872970D01*
X34729970Y-7984401D01*
X34598942Y-8071951D01*
X34453351Y-8132257D01*
X34350312Y-8152752D01*
X34298795Y-8163000D01*
X34141205Y-8163000D01*
X34089688Y-8152752D01*
X33986649Y-8132257D01*
X33841058Y-8071951D01*
X33710030Y-7984401D01*
X33598599Y-7872970D01*
X33511049Y-7741942D01*
X33450743Y-7596351D01*
X33420000Y-7441793D01*
X33420000Y-7284207D01*
X33450743Y-7129649D01*
X33511049Y-6984058D01*
X33598599Y-6853030D01*
X33710030Y-6741599D01*
X33841058Y-6654049D01*
X33986649Y-6593743D01*
X34089688Y-6573248D01*
X34141205Y-6563000D01*
X34298795Y-6563000D01*
X34350312Y-6573248D01*
G37*
G36*
X-34938965Y-5843450D02*
G01*
X-34803726Y-5870350D01*
X-34612638Y-5949502D01*
X-34440664Y-6064411D01*
X-34294411Y-6210664D01*
X-34179502Y-6382638D01*
X-34100350Y-6573726D01*
X-34084373Y-6654049D01*
X-34060000Y-6776582D01*
X-34060000Y-6983418D01*
X-34060315Y-6985000D01*
X-34100350Y-7186274D01*
X-34179502Y-7377362D01*
X-34294411Y-7549336D01*
X-34440664Y-7695589D01*
X-34612638Y-7810498D01*
X-34803726Y-7889650D01*
X-34938965Y-7916550D01*
X-35006582Y-7930000D01*
X-35213418Y-7930000D01*
X-35281035Y-7916550D01*
X-35416274Y-7889650D01*
X-35607362Y-7810498D01*
X-35779336Y-7695589D01*
X-35925589Y-7549336D01*
X-36040498Y-7377362D01*
X-36119650Y-7186274D01*
X-36159685Y-6985000D01*
X-36160000Y-6983418D01*
X-36160000Y-6776582D01*
X-36135627Y-6654049D01*
X-36119650Y-6573726D01*
X-36040498Y-6382638D01*
X-35925589Y-6210664D01*
X-35779336Y-6064411D01*
X-35607362Y-5949502D01*
X-35416274Y-5870350D01*
X-35281035Y-5843450D01*
X-35213418Y-5830000D01*
X-35006582Y-5830000D01*
X-34938965Y-5843450D01*
G37*
G36*
X36130312Y-5557248D02*
G01*
X36233351Y-5577743D01*
X36378942Y-5638049D01*
X36509970Y-5725599D01*
X36621401Y-5837030D01*
X36708951Y-5968058D01*
X36769257Y-6113649D01*
X36800000Y-6268207D01*
X36800000Y-6425793D01*
X36769257Y-6580351D01*
X36708951Y-6725942D01*
X36621401Y-6856970D01*
X36509970Y-6968401D01*
X36378942Y-7055951D01*
X36233351Y-7116257D01*
X36130312Y-7136752D01*
X36078795Y-7147000D01*
X35921205Y-7147000D01*
X35869688Y-7136752D01*
X35766649Y-7116257D01*
X35621058Y-7055951D01*
X35490030Y-6968401D01*
X35378599Y-6856970D01*
X35291049Y-6725942D01*
X35230743Y-6580351D01*
X35200000Y-6425793D01*
X35200000Y-6268207D01*
X35230743Y-6113649D01*
X35291049Y-5968058D01*
X35378599Y-5837030D01*
X35490030Y-5725599D01*
X35621058Y-5638049D01*
X35766649Y-5577743D01*
X35869688Y-5557248D01*
X35921205Y-5547000D01*
X36078795Y-5547000D01*
X36130312Y-5557248D01*
G37*
G36*
X34350312Y-4541248D02*
G01*
X34453351Y-4561743D01*
X34598942Y-4622049D01*
X34729970Y-4709599D01*
X34841401Y-4821030D01*
X34928951Y-4952058D01*
X34989257Y-5097649D01*
X35020000Y-5252207D01*
X35020000Y-5409793D01*
X34989257Y-5564351D01*
X34928951Y-5709942D01*
X34841401Y-5840970D01*
X34729970Y-5952401D01*
X34598942Y-6039951D01*
X34453351Y-6100257D01*
X34350312Y-6120752D01*
X34298795Y-6131000D01*
X34141205Y-6131000D01*
X34089688Y-6120752D01*
X33986649Y-6100257D01*
X33841058Y-6039951D01*
X33710030Y-5952401D01*
X33598599Y-5840970D01*
X33511049Y-5709942D01*
X33450743Y-5564351D01*
X33420000Y-5409793D01*
X33420000Y-5252207D01*
X33450743Y-5097649D01*
X33511049Y-4952058D01*
X33598599Y-4821030D01*
X33710030Y-4709599D01*
X33841058Y-4622049D01*
X33986649Y-4561743D01*
X34089688Y-4541248D01*
X34141205Y-4531000D01*
X34298795Y-4531000D01*
X34350312Y-4541248D01*
G37*
G36*
X36130312Y-3525248D02*
G01*
X36233351Y-3545743D01*
X36378942Y-3606049D01*
X36509970Y-3693599D01*
X36621401Y-3805030D01*
X36708951Y-3936058D01*
X36769257Y-4081649D01*
X36800000Y-4236207D01*
X36800000Y-4393793D01*
X36769257Y-4548351D01*
X36708951Y-4693942D01*
X36621401Y-4824970D01*
X36509970Y-4936401D01*
X36378942Y-5023951D01*
X36233351Y-5084257D01*
X36130312Y-5104752D01*
X36078795Y-5115000D01*
X35921205Y-5115000D01*
X35869688Y-5104752D01*
X35766649Y-5084257D01*
X35621058Y-5023951D01*
X35490030Y-4936401D01*
X35378599Y-4824970D01*
X35291049Y-4693942D01*
X35230743Y-4548351D01*
X35200000Y-4393793D01*
X35200000Y-4236207D01*
X35230743Y-4081649D01*
X35291049Y-3936058D01*
X35378599Y-3805030D01*
X35490030Y-3693599D01*
X35621058Y-3606049D01*
X35766649Y-3545743D01*
X35869688Y-3525248D01*
X35921205Y-3515000D01*
X36078795Y-3515000D01*
X36130312Y-3525248D01*
G37*
G36*
X-36062181Y-3777958D02*
G01*
X-35958507Y-3809407D01*
X-35862958Y-3860479D01*
X-35779210Y-3929210D01*
X-35710479Y-4012958D01*
X-35659407Y-4108507D01*
X-35627958Y-4212181D01*
X-35617339Y-4320000D01*
X-35627958Y-4427819D01*
X-35659407Y-4531493D01*
X-35710479Y-4627042D01*
X-35779210Y-4710790D01*
X-35862958Y-4779521D01*
X-35958507Y-4830593D01*
X-36062181Y-4862042D01*
X-36142981Y-4870000D01*
X-37297019Y-4870000D01*
X-37377819Y-4862042D01*
X-37481493Y-4830593D01*
X-37577042Y-4779521D01*
X-37660790Y-4710790D01*
X-37729521Y-4627042D01*
X-37780593Y-4531493D01*
X-37812042Y-4427819D01*
X-37822661Y-4320000D01*
X-37812042Y-4212181D01*
X-37780593Y-4108507D01*
X-37729521Y-4012958D01*
X-37660790Y-3929210D01*
X-37577042Y-3860479D01*
X-37481493Y-3809407D01*
X-37377819Y-3777958D01*
X-37297019Y-3770000D01*
X-36142981Y-3770000D01*
X-36062181Y-3777958D01*
G37*
G36*
X-40492181Y-3777958D02*
G01*
X-40388507Y-3809407D01*
X-40292958Y-3860479D01*
X-40209210Y-3929210D01*
X-40140479Y-4012958D01*
X-40089407Y-4108507D01*
X-40057958Y-4212181D01*
X-40047339Y-4320000D01*
X-40057958Y-4427819D01*
X-40089407Y-4531493D01*
X-40140479Y-4627042D01*
X-40209210Y-4710790D01*
X-40292958Y-4779521D01*
X-40388507Y-4830593D01*
X-40492181Y-4862042D01*
X-40572981Y-4870000D01*
X-41227019Y-4870000D01*
X-41307819Y-4862042D01*
X-41411493Y-4830593D01*
X-41507042Y-4779521D01*
X-41590790Y-4710790D01*
X-41659521Y-4627042D01*
X-41710593Y-4531493D01*
X-41742042Y-4427819D01*
X-41752661Y-4320000D01*
X-41742042Y-4212181D01*
X-41710593Y-4108507D01*
X-41659521Y-4012958D01*
X-41590790Y-3929210D01*
X-41507042Y-3860479D01*
X-41411493Y-3809407D01*
X-41307819Y-3777958D01*
X-41227019Y-3770000D01*
X-40572981Y-3770000D01*
X-40492181Y-3777958D01*
G37*
G36*
X-21544164Y-2540193D02*
G01*
X-21346240Y-2600232D01*
X-21346238Y-2600233D01*
X-21163829Y-2697733D01*
X-21003946Y-2828946D01*
X-20872733Y-2988829D01*
X-20828462Y-3071653D01*
X-20775232Y-3171240D01*
X-20715193Y-3369164D01*
X-20694920Y-3575000D01*
X-20715193Y-3780836D01*
X-20760201Y-3929210D01*
X-20775233Y-3978762D01*
X-20872733Y-4161171D01*
X-21003946Y-4321054D01*
X-21163829Y-4452267D01*
X-21343581Y-4548347D01*
X-21346240Y-4549768D01*
X-21544164Y-4609807D01*
X-21698422Y-4625000D01*
X-22801578Y-4625000D01*
X-22955836Y-4609807D01*
X-23153760Y-4549768D01*
X-23156418Y-4548347D01*
X-23336171Y-4452267D01*
X-23496054Y-4321054D01*
X-23627267Y-4161171D01*
X-23724767Y-3978762D01*
X-23739798Y-3929210D01*
X-23784807Y-3780836D01*
X-23805080Y-3575000D01*
X-23784807Y-3369164D01*
X-23724768Y-3171240D01*
X-23671537Y-3071653D01*
X-23627267Y-2988829D01*
X-23496054Y-2828946D01*
X-23336171Y-2697733D01*
X-23153762Y-2600233D01*
X-23153760Y-2600232D01*
X-22955836Y-2540193D01*
X-22801578Y-2525000D01*
X-21698422Y-2525000D01*
X-21544164Y-2540193D01*
G37*
G36*
X29529067Y-2515000D02*
G01*
X29633351Y-2535743D01*
X29778942Y-2596049D01*
X29909970Y-2683599D01*
X30021401Y-2795030D01*
X30108951Y-2926058D01*
X30169257Y-3071649D01*
X30200000Y-3226207D01*
X30200000Y-3383793D01*
X30169257Y-3538351D01*
X30108951Y-3683942D01*
X30021401Y-3814970D01*
X29909970Y-3926401D01*
X29778942Y-4013951D01*
X29633351Y-4074257D01*
X29530312Y-4094752D01*
X29478795Y-4105000D01*
X29321205Y-4105000D01*
X29269688Y-4094752D01*
X29166649Y-4074257D01*
X29021058Y-4013951D01*
X28890030Y-3926401D01*
X28778599Y-3814970D01*
X28691049Y-3683942D01*
X28630743Y-3538351D01*
X28600000Y-3383793D01*
X28600000Y-3226207D01*
X28630743Y-3071649D01*
X28691049Y-2926058D01*
X28778599Y-2795030D01*
X28890030Y-2683599D01*
X29021058Y-2596049D01*
X29166649Y-2535743D01*
X29270933Y-2515000D01*
X29321205Y-2505000D01*
X29478795Y-2505000D01*
X29529067Y-2515000D01*
G37*
G36*
X-37140619Y-2529410D02*
G01*
X-37072367Y-2557681D01*
X-37010954Y-2598716D01*
X-36958716Y-2650954D01*
X-36917681Y-2712367D01*
X-36889410Y-2780619D01*
X-36875000Y-2853063D01*
X-36875000Y-2926937D01*
X-36889410Y-2999381D01*
X-36917681Y-3067633D01*
X-36958716Y-3129046D01*
X-37010954Y-3181284D01*
X-37072367Y-3222319D01*
X-37140619Y-3250590D01*
X-37213063Y-3265000D01*
X-37286937Y-3265000D01*
X-37359381Y-3250590D01*
X-37427633Y-3222319D01*
X-37489046Y-3181284D01*
X-37541284Y-3129046D01*
X-37582319Y-3067633D01*
X-37610590Y-2999381D01*
X-37625000Y-2926937D01*
X-37625000Y-2853063D01*
X-37610590Y-2780619D01*
X-37582319Y-2712367D01*
X-37541284Y-2650954D01*
X-37489046Y-2598716D01*
X-37427633Y-2557681D01*
X-37359381Y-2529410D01*
X-37286937Y-2515000D01*
X-37213063Y-2515000D01*
X-37140619Y-2529410D01*
G37*
G36*
X29530312Y-225248D02*
G01*
X29633351Y-245743D01*
X29778942Y-306049D01*
X29909970Y-393599D01*
X30021401Y-505030D01*
X30108951Y-636058D01*
X30169257Y-781649D01*
X30200000Y-936207D01*
X30200000Y-1093793D01*
X30169257Y-1248351D01*
X30108951Y-1393942D01*
X30021401Y-1524970D01*
X29909970Y-1636401D01*
X29778942Y-1723951D01*
X29633351Y-1784257D01*
X29530312Y-1804752D01*
X29478795Y-1815000D01*
X29321205Y-1815000D01*
X29269688Y-1804752D01*
X29166649Y-1784257D01*
X29021058Y-1723951D01*
X28890030Y-1636401D01*
X28778599Y-1524970D01*
X28691049Y-1393942D01*
X28630743Y-1248351D01*
X28600000Y-1093793D01*
X28600000Y-936207D01*
X28630743Y-781649D01*
X28691049Y-636058D01*
X28778599Y-505030D01*
X28890030Y-393599D01*
X29021058Y-306049D01*
X29166649Y-245743D01*
X29269688Y-225248D01*
X29321205Y-215000D01*
X29478795Y-215000D01*
X29530312Y-225248D01*
G37*
G36*
X29530312Y1804752D02*
G01*
X29633351Y1784257D01*
X29778942Y1723951D01*
X29909970Y1636401D01*
X30021401Y1524970D01*
X30108951Y1393942D01*
X30169257Y1248351D01*
X30200000Y1093793D01*
X30200000Y936207D01*
X30169257Y781649D01*
X30108951Y636058D01*
X30021401Y505030D01*
X29909970Y393599D01*
X29778942Y306049D01*
X29633351Y245743D01*
X29530312Y225248D01*
X29478795Y215000D01*
X29321205Y215000D01*
X29269688Y225248D01*
X29166649Y245743D01*
X29021058Y306049D01*
X28890030Y393599D01*
X28778599Y505030D01*
X28691049Y636058D01*
X28630743Y781649D01*
X28600000Y936207D01*
X28600000Y1093793D01*
X28630743Y1248351D01*
X28691049Y1393942D01*
X28778599Y1524970D01*
X28890030Y1636401D01*
X29021058Y1723951D01*
X29166649Y1784257D01*
X29269688Y1804752D01*
X29321205Y1815000D01*
X29478795Y1815000D01*
X29530312Y1804752D01*
G37*
G36*
X29530312Y4094752D02*
G01*
X29633351Y4074257D01*
X29778942Y4013951D01*
X29909970Y3926401D01*
X30021401Y3814970D01*
X30108951Y3683942D01*
X30169257Y3538351D01*
X30200000Y3383793D01*
X30200000Y3226207D01*
X30169257Y3071649D01*
X30108951Y2926058D01*
X30021401Y2795030D01*
X29909970Y2683599D01*
X29778942Y2596049D01*
X29633351Y2535743D01*
X29530312Y2515248D01*
X29478795Y2505000D01*
X29321205Y2505000D01*
X29269688Y2515248D01*
X29166649Y2535743D01*
X29021058Y2596049D01*
X28890030Y2683599D01*
X28778599Y2795030D01*
X28691049Y2926058D01*
X28630743Y3071649D01*
X28600000Y3226207D01*
X28600000Y3383793D01*
X28630743Y3538351D01*
X28691049Y3683942D01*
X28778599Y3814970D01*
X28890030Y3926401D01*
X29021058Y4013951D01*
X29166649Y4074257D01*
X29269688Y4094752D01*
X29321205Y4105000D01*
X29478795Y4105000D01*
X29530312Y4094752D01*
G37*
G36*
X-37140619Y3250590D02*
G01*
X-37072367Y3222319D01*
X-37010954Y3181284D01*
X-36958716Y3129046D01*
X-36917681Y3067633D01*
X-36889410Y2999381D01*
X-36875000Y2926937D01*
X-36875000Y2853063D01*
X-36889410Y2780619D01*
X-36917681Y2712367D01*
X-36958716Y2650954D01*
X-37010954Y2598716D01*
X-37072367Y2557681D01*
X-37140619Y2529410D01*
X-37213063Y2515000D01*
X-37286937Y2515000D01*
X-37359381Y2529410D01*
X-37427633Y2557681D01*
X-37489046Y2598716D01*
X-37541284Y2650954D01*
X-37582319Y2712367D01*
X-37610590Y2780619D01*
X-37625000Y2853063D01*
X-37625000Y2926937D01*
X-37610590Y2999381D01*
X-37582319Y3067633D01*
X-37541284Y3129046D01*
X-37489046Y3181284D01*
X-37427633Y3222319D01*
X-37359381Y3250590D01*
X-37286937Y3265000D01*
X-37213063Y3265000D01*
X-37140619Y3250590D01*
G37*
G36*
X-21544164Y4609807D02*
G01*
X-21346240Y4549768D01*
X-21346238Y4549767D01*
X-21312052Y4531494D01*
X-21163829Y4452267D01*
X-21003946Y4321054D01*
X-20872733Y4161171D01*
X-20775232Y3978760D01*
X-20715193Y3780836D01*
X-20694920Y3575000D01*
X-20715193Y3369164D01*
X-20772185Y3181284D01*
X-20775233Y3171238D01*
X-20872733Y2988829D01*
X-21003946Y2828946D01*
X-21163829Y2697733D01*
X-21190275Y2683597D01*
X-21346240Y2600232D01*
X-21486517Y2557680D01*
X-21544164Y2540193D01*
X-21698422Y2525000D01*
X-22801578Y2525000D01*
X-22955836Y2540193D01*
X-23013483Y2557680D01*
X-23153760Y2600232D01*
X-23309724Y2683597D01*
X-23336171Y2697733D01*
X-23496054Y2828946D01*
X-23627267Y2988829D01*
X-23724767Y3171238D01*
X-23727814Y3181284D01*
X-23784807Y3369164D01*
X-23805080Y3575000D01*
X-23784807Y3780836D01*
X-23724768Y3978760D01*
X-23627267Y4161171D01*
X-23496054Y4321054D01*
X-23336171Y4452267D01*
X-23187948Y4531494D01*
X-23153762Y4549767D01*
X-23153760Y4549768D01*
X-22955836Y4609807D01*
X-22801578Y4625000D01*
X-21698422Y4625000D01*
X-21544164Y4609807D01*
G37*
G36*
X34350312Y5112752D02*
G01*
X34453351Y5092257D01*
X34598942Y5031951D01*
X34729970Y4944401D01*
X34841401Y4832970D01*
X34928951Y4701942D01*
X34989257Y4556351D01*
X35020000Y4401793D01*
X35020000Y4244207D01*
X34989257Y4089649D01*
X34928951Y3944058D01*
X34841401Y3813030D01*
X34729970Y3701599D01*
X34598942Y3614049D01*
X34453351Y3553743D01*
X34350312Y3533248D01*
X34298795Y3523000D01*
X34141205Y3523000D01*
X34089688Y3533248D01*
X33986649Y3553743D01*
X33841058Y3614049D01*
X33710030Y3701599D01*
X33598599Y3813030D01*
X33511049Y3944058D01*
X33450743Y4089649D01*
X33420000Y4244207D01*
X33420000Y4401793D01*
X33450743Y4556351D01*
X33511049Y4701942D01*
X33598599Y4832970D01*
X33710030Y4944401D01*
X33841058Y5031951D01*
X33986649Y5092257D01*
X34089688Y5112752D01*
X34141205Y5123000D01*
X34298795Y5123000D01*
X34350312Y5112752D01*
G37*
G36*
X-40492181Y4862042D02*
G01*
X-40388507Y4830593D01*
X-40292958Y4779521D01*
X-40209210Y4710790D01*
X-40140479Y4627042D01*
X-40089407Y4531493D01*
X-40057958Y4427819D01*
X-40047339Y4320000D01*
X-40057958Y4212181D01*
X-40089407Y4108507D01*
X-40140479Y4012958D01*
X-40209210Y3929210D01*
X-40292958Y3860479D01*
X-40388507Y3809407D01*
X-40492181Y3777958D01*
X-40572981Y3770000D01*
X-41227019Y3770000D01*
X-41307819Y3777958D01*
X-41411493Y3809407D01*
X-41507042Y3860479D01*
X-41590790Y3929210D01*
X-41659521Y4012958D01*
X-41710593Y4108507D01*
X-41742042Y4212181D01*
X-41752661Y4320000D01*
X-41742042Y4427819D01*
X-41710593Y4531493D01*
X-41659521Y4627042D01*
X-41590790Y4710790D01*
X-41507042Y4779521D01*
X-41411493Y4830593D01*
X-41307819Y4862042D01*
X-41227019Y4870000D01*
X-40572981Y4870000D01*
X-40492181Y4862042D01*
G37*
G36*
X-36062181Y4862042D02*
G01*
X-35958507Y4830593D01*
X-35862958Y4779521D01*
X-35779210Y4710790D01*
X-35710479Y4627042D01*
X-35659407Y4531493D01*
X-35627958Y4427819D01*
X-35617339Y4320000D01*
X-35627958Y4212181D01*
X-35659407Y4108507D01*
X-35710479Y4012958D01*
X-35779210Y3929210D01*
X-35862958Y3860479D01*
X-35958507Y3809407D01*
X-36062181Y3777958D01*
X-36142981Y3770000D01*
X-37297019Y3770000D01*
X-37377819Y3777958D01*
X-37481493Y3809407D01*
X-37577042Y3860479D01*
X-37660790Y3929210D01*
X-37729521Y4012958D01*
X-37780593Y4108507D01*
X-37812042Y4212181D01*
X-37822661Y4320000D01*
X-37812042Y4427819D01*
X-37780593Y4531493D01*
X-37729521Y4627042D01*
X-37660790Y4710790D01*
X-37577042Y4779521D01*
X-37481493Y4830593D01*
X-37377819Y4862042D01*
X-37297019Y4870000D01*
X-36142981Y4870000D01*
X-36062181Y4862042D01*
G37*
G36*
X36130312Y6128752D02*
G01*
X36233351Y6108257D01*
X36378942Y6047951D01*
X36509970Y5960401D01*
X36621401Y5848970D01*
X36708951Y5717942D01*
X36769257Y5572351D01*
X36800000Y5417793D01*
X36800000Y5260207D01*
X36769257Y5105649D01*
X36708951Y4960058D01*
X36621401Y4829030D01*
X36509970Y4717599D01*
X36378942Y4630049D01*
X36233351Y4569743D01*
X36132928Y4549768D01*
X36078795Y4539000D01*
X35921205Y4539000D01*
X35867072Y4549768D01*
X35766649Y4569743D01*
X35621058Y4630049D01*
X35490030Y4717599D01*
X35378599Y4829030D01*
X35291049Y4960058D01*
X35230743Y5105649D01*
X35200000Y5260207D01*
X35200000Y5417793D01*
X35230743Y5572351D01*
X35291049Y5717942D01*
X35378599Y5848970D01*
X35490030Y5960401D01*
X35621058Y6047951D01*
X35766649Y6108257D01*
X35869688Y6128752D01*
X35921205Y6139000D01*
X36078795Y6139000D01*
X36130312Y6128752D01*
G37*
G36*
X34350312Y7144752D02*
G01*
X34453351Y7124257D01*
X34598942Y7063951D01*
X34729970Y6976401D01*
X34841401Y6864970D01*
X34928951Y6733942D01*
X34989257Y6588351D01*
X35020000Y6433793D01*
X35020000Y6276207D01*
X34989257Y6121649D01*
X34928951Y5976058D01*
X34841401Y5845030D01*
X34729970Y5733599D01*
X34598942Y5646049D01*
X34453351Y5585743D01*
X34350312Y5565248D01*
X34298795Y5555000D01*
X34141205Y5555000D01*
X34089688Y5565248D01*
X33986649Y5585743D01*
X33841058Y5646049D01*
X33710030Y5733599D01*
X33598599Y5845030D01*
X33511049Y5976058D01*
X33450743Y6121649D01*
X33420000Y6276207D01*
X33420000Y6433793D01*
X33450743Y6588351D01*
X33511049Y6733942D01*
X33598599Y6864970D01*
X33710030Y6976401D01*
X33841058Y7063951D01*
X33986649Y7124257D01*
X34089688Y7144752D01*
X34141205Y7155000D01*
X34298795Y7155000D01*
X34350312Y7144752D01*
G37*
G36*
X36130312Y8160752D02*
G01*
X36233351Y8140257D01*
X36378942Y8079951D01*
X36509970Y7992401D01*
X36621401Y7880970D01*
X36708951Y7749942D01*
X36769257Y7604351D01*
X36800000Y7449793D01*
X36800000Y7292207D01*
X36769257Y7137649D01*
X36708951Y6992058D01*
X36621401Y6861030D01*
X36509970Y6749599D01*
X36378942Y6662049D01*
X36233351Y6601743D01*
X36130312Y6581248D01*
X36078795Y6571000D01*
X35921205Y6571000D01*
X35869688Y6581248D01*
X35766649Y6601743D01*
X35621058Y6662049D01*
X35490030Y6749599D01*
X35378599Y6861030D01*
X35291049Y6992058D01*
X35230743Y7137649D01*
X35200000Y7292207D01*
X35200000Y7449793D01*
X35230743Y7604351D01*
X35291049Y7749942D01*
X35378599Y7880970D01*
X35490030Y7992401D01*
X35621058Y8079951D01*
X35766649Y8140257D01*
X35869688Y8160752D01*
X35921205Y8171000D01*
X36078795Y8171000D01*
X36130312Y8160752D01*
G37*
G36*
X34350312Y9176752D02*
G01*
X34453351Y9156257D01*
X34598942Y9095951D01*
X34729970Y9008401D01*
X34841401Y8896970D01*
X34928951Y8765942D01*
X34989257Y8620351D01*
X35020000Y8465793D01*
X35020000Y8308207D01*
X34989257Y8153649D01*
X34928951Y8008058D01*
X34841401Y7877030D01*
X34729970Y7765599D01*
X34598942Y7678049D01*
X34453351Y7617743D01*
X34350312Y7597248D01*
X34298795Y7587000D01*
X34141205Y7587000D01*
X34089688Y7597248D01*
X33986649Y7617743D01*
X33841058Y7678049D01*
X33710030Y7765599D01*
X33598599Y7877030D01*
X33511049Y8008058D01*
X33450743Y8153649D01*
X33420000Y8308207D01*
X33420000Y8465793D01*
X33450743Y8620351D01*
X33511049Y8765942D01*
X33598599Y8896970D01*
X33710030Y9008401D01*
X33841058Y9095951D01*
X33986649Y9156257D01*
X34089688Y9176752D01*
X34141205Y9187000D01*
X34298795Y9187000D01*
X34350312Y9176752D01*
G37*
G36*
X36130312Y10192752D02*
G01*
X36233351Y10172257D01*
X36378942Y10111951D01*
X36509970Y10024401D01*
X36621401Y9912970D01*
X36708951Y9781942D01*
X36769257Y9636351D01*
X36800000Y9481793D01*
X36800000Y9324207D01*
X36769257Y9169649D01*
X36708951Y9024058D01*
X36621401Y8893030D01*
X36509970Y8781599D01*
X36378942Y8694049D01*
X36233351Y8633743D01*
X36130312Y8613248D01*
X36078795Y8603000D01*
X35921205Y8603000D01*
X35869688Y8613248D01*
X35766649Y8633743D01*
X35621058Y8694049D01*
X35490030Y8781599D01*
X35378599Y8893030D01*
X35291049Y9024058D01*
X35230743Y9169649D01*
X35200000Y9324207D01*
X35200000Y9481793D01*
X35230743Y9636351D01*
X35291049Y9781942D01*
X35378599Y9912970D01*
X35490030Y10024401D01*
X35621058Y10111951D01*
X35766649Y10172257D01*
X35869688Y10192752D01*
X35921205Y10203000D01*
X36078795Y10203000D01*
X36130312Y10192752D01*
G37*
G36*
X34350312Y11208752D02*
G01*
X34453351Y11188257D01*
X34598942Y11127951D01*
X34729970Y11040401D01*
X34841401Y10928970D01*
X34928951Y10797942D01*
X34989257Y10652351D01*
X35008786Y10554170D01*
X35020000Y10497795D01*
X35020000Y10340205D01*
X35009752Y10288688D01*
X34989257Y10185649D01*
X34928951Y10040058D01*
X34841401Y9909030D01*
X34729970Y9797599D01*
X34598942Y9710049D01*
X34453351Y9649743D01*
X34350312Y9629248D01*
X34298795Y9619000D01*
X34141205Y9619000D01*
X34089688Y9629248D01*
X33986649Y9649743D01*
X33841058Y9710049D01*
X33710030Y9797599D01*
X33598599Y9909030D01*
X33511049Y10040058D01*
X33450743Y10185649D01*
X33430248Y10288688D01*
X33420000Y10340205D01*
X33420000Y10497795D01*
X33431214Y10554170D01*
X33450743Y10652351D01*
X33511049Y10797942D01*
X33598599Y10928970D01*
X33710030Y11040401D01*
X33841058Y11127951D01*
X33986649Y11188257D01*
X34089688Y11208752D01*
X34141205Y11219000D01*
X34298795Y11219000D01*
X34350312Y11208752D01*
G37*
G36*
X-33589575Y11028865D02*
G01*
X-33589574Y11028865D01*
X-33589571Y11028864D01*
X-33516477Y10998587D01*
X-33489474Y10987402D01*
X-33399398Y10927216D01*
X-33322784Y10850602D01*
X-33262598Y10760526D01*
X-33262597Y10760523D01*
X-33221136Y10660429D01*
X-33221135Y10660426D01*
X-33221135Y10660425D01*
X-33200000Y10554173D01*
X-33200000Y10445827D01*
X-33221009Y10340207D01*
X-33221136Y10339571D01*
X-33251413Y10266477D01*
X-33262598Y10239474D01*
X-33322784Y10149398D01*
X-33399398Y10072784D01*
X-33489474Y10012598D01*
X-33516477Y10001413D01*
X-33589571Y9971136D01*
X-33589574Y9971135D01*
X-33589575Y9971135D01*
X-33695827Y9950000D01*
X-33804173Y9950000D01*
X-33910425Y9971135D01*
X-33910426Y9971135D01*
X-33910429Y9971136D01*
X-33983523Y10001413D01*
X-34010526Y10012598D01*
X-34100602Y10072784D01*
X-34177216Y10149398D01*
X-34237402Y10239474D01*
X-34248587Y10266477D01*
X-34278864Y10339571D01*
X-34278991Y10340207D01*
X-34300000Y10445827D01*
X-34300000Y10554173D01*
X-34278865Y10660425D01*
X-34278865Y10660426D01*
X-34278864Y10660429D01*
X-34237403Y10760523D01*
X-34237402Y10760526D01*
X-34177216Y10850602D01*
X-34100602Y10927216D01*
X-34010526Y10987402D01*
X-33983523Y10998587D01*
X-33910429Y11028864D01*
X-33910426Y11028865D01*
X-33910425Y11028865D01*
X-33804173Y11050000D01*
X-33695827Y11050000D01*
X-33589575Y11028865D01*
G37*
G36*
X-39589575Y11028865D02*
G01*
X-39589574Y11028865D01*
X-39589571Y11028864D01*
X-39516477Y10998587D01*
X-39489474Y10987402D01*
X-39399398Y10927216D01*
X-39322784Y10850602D01*
X-39262598Y10760526D01*
X-39262597Y10760523D01*
X-39221136Y10660429D01*
X-39221135Y10660426D01*
X-39221135Y10660425D01*
X-39200000Y10554173D01*
X-39200000Y10445827D01*
X-39221009Y10340207D01*
X-39221136Y10339571D01*
X-39251413Y10266477D01*
X-39262598Y10239474D01*
X-39322784Y10149398D01*
X-39399398Y10072784D01*
X-39489474Y10012598D01*
X-39516477Y10001413D01*
X-39589571Y9971136D01*
X-39589574Y9971135D01*
X-39589575Y9971135D01*
X-39695827Y9950000D01*
X-39804173Y9950000D01*
X-39910425Y9971135D01*
X-39910426Y9971135D01*
X-39910429Y9971136D01*
X-39983523Y10001413D01*
X-40010526Y10012598D01*
X-40100602Y10072784D01*
X-40177216Y10149398D01*
X-40237402Y10239474D01*
X-40248587Y10266477D01*
X-40278864Y10339571D01*
X-40278991Y10340207D01*
X-40300000Y10445827D01*
X-40300000Y10554173D01*
X-40278865Y10660425D01*
X-40278865Y10660426D01*
X-40278864Y10660429D01*
X-40237403Y10760523D01*
X-40237402Y10760526D01*
X-40177216Y10850602D01*
X-40100602Y10927216D01*
X-40010526Y10987402D01*
X-39983523Y10998587D01*
X-39910429Y11028864D01*
X-39910426Y11028865D01*
X-39910425Y11028865D01*
X-39804173Y11050000D01*
X-39695827Y11050000D01*
X-39589575Y11028865D01*
G37*
G36*
X36800000Y10635000D02*
G01*
X35200000Y10635000D01*
X35200000Y12235000D01*
X36800000Y12235000D01*
X36800000Y10635000D01*
G37*
G36*
X29530312Y13234752D02*
G01*
X29633351Y13214257D01*
X29778942Y13153951D01*
X29909970Y13066401D01*
X30021401Y12954970D01*
X30108951Y12823942D01*
X30169257Y12678351D01*
X30200000Y12523793D01*
X30200000Y12366207D01*
X30169257Y12211649D01*
X30108951Y12066058D01*
X30021401Y11935030D01*
X29909970Y11823599D01*
X29778942Y11736049D01*
X29633351Y11675743D01*
X29530312Y11655248D01*
X29478795Y11645000D01*
X29321205Y11645000D01*
X29269688Y11655248D01*
X29166649Y11675743D01*
X29021058Y11736049D01*
X28890030Y11823599D01*
X28778599Y11935030D01*
X28691049Y12066058D01*
X28630743Y12211649D01*
X28600000Y12366207D01*
X28600000Y12523793D01*
X28630743Y12678351D01*
X28691049Y12823942D01*
X28778599Y12954970D01*
X28890030Y13066401D01*
X29021058Y13153951D01*
X29166649Y13214257D01*
X29269688Y13234752D01*
X29321205Y13245000D01*
X29478795Y13245000D01*
X29530312Y13234752D01*
G37*
G36*
X39028576Y15835632D02*
G01*
X39028577Y15835632D01*
X39028580Y15835631D01*
X39333410Y15709366D01*
X39607751Y15526058D01*
X39841058Y15292751D01*
X40024366Y15018410D01*
X40150631Y14713580D01*
X40150632Y14713577D01*
X40150632Y14713576D01*
X40215000Y14389975D01*
X40215000Y14060025D01*
X40196246Y13965743D01*
X40150631Y13736420D01*
X40024366Y13431590D01*
X39841058Y13157249D01*
X39607751Y12923942D01*
X39333410Y12740634D01*
X39028580Y12614369D01*
X39028577Y12614368D01*
X39028576Y12614368D01*
X38704975Y12550000D01*
X38375025Y12550000D01*
X38051424Y12614368D01*
X38051423Y12614368D01*
X38051420Y12614369D01*
X37746590Y12740634D01*
X37472249Y12923942D01*
X37238942Y13157249D01*
X37055634Y13431590D01*
X36929369Y13736420D01*
X36883754Y13965743D01*
X36865000Y14060025D01*
X36865000Y14389975D01*
X36929368Y14713576D01*
X36929368Y14713577D01*
X36929369Y14713580D01*
X37055634Y15018410D01*
X37238942Y15292751D01*
X37472249Y15526058D01*
X37746590Y15709366D01*
X38051420Y15835631D01*
X38051423Y15835632D01*
X38051424Y15835632D01*
X38375025Y15900000D01*
X38704975Y15900000D01*
X39028576Y15835632D01*
G37*
G36*
X29523738Y15526060D02*
G01*
X29633351Y15504257D01*
X29778942Y15443951D01*
X29909970Y15356401D01*
X30021401Y15244970D01*
X30108951Y15113942D01*
X30169257Y14968351D01*
X30200000Y14813793D01*
X30200000Y14656207D01*
X30169257Y14501649D01*
X30108951Y14356058D01*
X30021401Y14225030D01*
X29909970Y14113599D01*
X29778942Y14026049D01*
X29633351Y13965743D01*
X29530312Y13945248D01*
X29478795Y13935000D01*
X29321205Y13935000D01*
X29269688Y13945248D01*
X29166649Y13965743D01*
X29021058Y14026049D01*
X28890030Y14113599D01*
X28778599Y14225030D01*
X28691049Y14356058D01*
X28630743Y14501649D01*
X28600000Y14656207D01*
X28600000Y14813793D01*
X28630743Y14968351D01*
X28691049Y15113942D01*
X28778599Y15244970D01*
X28890030Y15356401D01*
X29021058Y15443951D01*
X29166649Y15504257D01*
X29276262Y15526060D01*
X29321205Y15535000D01*
X29478795Y15535000D01*
X29523738Y15526060D01*
G37*
G36*
X35460024Y17158886D02*
G01*
X35678417Y17068425D01*
X35874953Y16937103D01*
X36042103Y16769953D01*
X36173425Y16573417D01*
X36263886Y16355024D01*
X36310000Y16123192D01*
X36310000Y15886808D01*
X36263886Y15654976D01*
X36173425Y15436583D01*
X36042103Y15240047D01*
X35874953Y15072897D01*
X35678417Y14941575D01*
X35460024Y14851114D01*
X35228192Y14805000D01*
X34991808Y14805000D01*
X34759976Y14851114D01*
X34541583Y14941575D01*
X34345047Y15072897D01*
X34177897Y15240047D01*
X34046575Y15436583D01*
X33956114Y15654976D01*
X33910000Y15886808D01*
X33910000Y16123192D01*
X33956114Y16355024D01*
X34046575Y16573417D01*
X34177897Y16769953D01*
X34345047Y16937103D01*
X34541583Y17068425D01*
X34759976Y17158886D01*
X34991808Y17205000D01*
X35228192Y17205000D01*
X35460024Y17158886D01*
G37*
G36*
X-38160807Y18710043D02*
G01*
X-38160805Y18710042D01*
X-38160804Y18710042D01*
X-38096985Y18683607D01*
X-37924215Y18612044D01*
X-37711301Y18469779D01*
X-37530221Y18288699D01*
X-37387956Y18075785D01*
X-37289957Y17839193D01*
X-37240000Y17588041D01*
X-37240000Y17331959D01*
X-37289957Y17080807D01*
X-37387956Y16844215D01*
X-37530221Y16631301D01*
X-37711301Y16450221D01*
X-37924215Y16307956D01*
X-38096985Y16236393D01*
X-38160804Y16209958D01*
X-38160805Y16209958D01*
X-38160807Y16209957D01*
X-38411959Y16160000D01*
X-38668041Y16160000D01*
X-38919193Y16209957D01*
X-38919195Y16209958D01*
X-38919196Y16209958D01*
X-38983015Y16236393D01*
X-39155785Y16307956D01*
X-39368699Y16450221D01*
X-39549779Y16631301D01*
X-39692044Y16844215D01*
X-39790043Y17080807D01*
X-39840000Y17331959D01*
X-39840000Y17588041D01*
X-39790043Y17839193D01*
X-39692044Y18075785D01*
X-39549779Y18288699D01*
X-39368699Y18469779D01*
X-39155785Y18612044D01*
X-38983015Y18683607D01*
X-38919196Y18710042D01*
X-38919195Y18710042D01*
X-38919193Y18710043D01*
X-38668041Y18760000D01*
X-38411959Y18760000D01*
X-38160807Y18710043D01*
G37*
G36*
X-33080807Y18710043D02*
G01*
X-33080805Y18710042D01*
X-33080804Y18710042D01*
X-33016985Y18683607D01*
X-32844215Y18612044D01*
X-32631301Y18469779D01*
X-32450221Y18288699D01*
X-32307956Y18075785D01*
X-32209957Y17839193D01*
X-32160000Y17588041D01*
X-32160000Y17331959D01*
X-32209957Y17080807D01*
X-32307956Y16844215D01*
X-32450221Y16631301D01*
X-32631301Y16450221D01*
X-32844215Y16307956D01*
X-33016985Y16236393D01*
X-33080804Y16209958D01*
X-33080805Y16209958D01*
X-33080807Y16209957D01*
X-33331959Y16160000D01*
X-33588041Y16160000D01*
X-33839193Y16209957D01*
X-33839195Y16209958D01*
X-33839196Y16209958D01*
X-33903015Y16236393D01*
X-34075785Y16307956D01*
X-34288699Y16450221D01*
X-34469779Y16631301D01*
X-34612044Y16844215D01*
X-34710043Y17080807D01*
X-34760000Y17331959D01*
X-34760000Y17588041D01*
X-34710043Y17839193D01*
X-34612044Y18075785D01*
X-34469779Y18288699D01*
X-34288699Y18469779D01*
X-34075785Y18612044D01*
X-33903015Y18683607D01*
X-33839196Y18710042D01*
X-33839195Y18710042D01*
X-33839193Y18710043D01*
X-33588041Y18760000D01*
X-33331959Y18760000D01*
X-33080807Y18710043D01*
G37*
G36*
X-15936171Y18195379D02*
G01*
X-15892825Y18182231D01*
X-15852875Y18160877D01*
X-15817860Y18132140D01*
X-15789123Y18097125D01*
X-15767769Y18057175D01*
X-15754621Y18013829D01*
X-15750000Y17966912D01*
X-15750000Y17383088D01*
X-15754621Y17336171D01*
X-15767769Y17292825D01*
X-15789123Y17252875D01*
X-15817860Y17217860D01*
X-15852875Y17189123D01*
X-15892825Y17167769D01*
X-15936171Y17154621D01*
X-15983088Y17150000D01*
X-16516912Y17150000D01*
X-16563829Y17154621D01*
X-16607175Y17167769D01*
X-16647125Y17189123D01*
X-16682140Y17217860D01*
X-16710877Y17252875D01*
X-16732231Y17292825D01*
X-16745379Y17336171D01*
X-16750000Y17383088D01*
X-16750000Y17966912D01*
X-16745379Y18013829D01*
X-16732231Y18057175D01*
X-16710877Y18097125D01*
X-16682140Y18132140D01*
X-16647125Y18160877D01*
X-16607175Y18182231D01*
X-16563829Y18195379D01*
X-16516912Y18200000D01*
X-15983088Y18200000D01*
X-15936171Y18195379D01*
G37*
G36*
X-15936171Y19345379D02*
G01*
X-15892825Y19332231D01*
X-15852875Y19310877D01*
X-15817860Y19282140D01*
X-15789123Y19247125D01*
X-15767769Y19207175D01*
X-15754621Y19163829D01*
X-15750000Y19116912D01*
X-15750000Y18533088D01*
X-15754621Y18486171D01*
X-15767769Y18442825D01*
X-15789123Y18402875D01*
X-15817860Y18367860D01*
X-15852875Y18339123D01*
X-15892825Y18317769D01*
X-15936171Y18304621D01*
X-15983088Y18300000D01*
X-16516912Y18300000D01*
X-16563829Y18304621D01*
X-16607175Y18317769D01*
X-16647125Y18339123D01*
X-16682140Y18367860D01*
X-16710877Y18402875D01*
X-16732231Y18442825D01*
X-16745379Y18486171D01*
X-16750000Y18533088D01*
X-16750000Y19116912D01*
X-16745379Y19163829D01*
X-16732231Y19207175D01*
X-16710877Y19247125D01*
X-16682140Y19282140D01*
X-16647125Y19310877D01*
X-16607175Y19332231D01*
X-16563829Y19345379D01*
X-16516912Y19350000D01*
X-15983088Y19350000D01*
X-15936171Y19345379D01*
G37*
G36*
X14590000Y18330000D02*
G01*
X12790000Y18330000D01*
X12790000Y20130000D01*
X14590000Y20130000D01*
X14590000Y18330000D01*
G37*
G36*
X21470383Y20115730D02*
G01*
X21572520Y20095414D01*
X21736310Y20027570D01*
X21883717Y19929076D01*
X22009076Y19803717D01*
X22107570Y19656310D01*
X22175414Y19492520D01*
X22185179Y19443425D01*
X22210000Y19318645D01*
X22210000Y19141355D01*
X22199251Y19087318D01*
X22175414Y18967480D01*
X22107570Y18803690D01*
X22009076Y18656283D01*
X21883717Y18530924D01*
X21736310Y18432430D01*
X21572520Y18364586D01*
X21473161Y18344823D01*
X21398645Y18330000D01*
X21221355Y18330000D01*
X21146839Y18344823D01*
X21047480Y18364586D01*
X20883690Y18432430D01*
X20736283Y18530924D01*
X20610924Y18656283D01*
X20512430Y18803690D01*
X20444586Y18967480D01*
X20420749Y19087318D01*
X20410000Y19141355D01*
X20410000Y19318645D01*
X20434821Y19443425D01*
X20444586Y19492520D01*
X20512430Y19656310D01*
X20610924Y19803717D01*
X20736283Y19929076D01*
X20883690Y20027570D01*
X21047480Y20095414D01*
X21149617Y20115730D01*
X21221355Y20130000D01*
X21398645Y20130000D01*
X21470383Y20115730D01*
G37*
G36*
X16390383Y20115730D02*
G01*
X16492520Y20095414D01*
X16656310Y20027570D01*
X16803717Y19929076D01*
X16929076Y19803717D01*
X17027570Y19656310D01*
X17095414Y19492520D01*
X17105179Y19443425D01*
X17130000Y19318645D01*
X17130000Y19141355D01*
X17119251Y19087318D01*
X17095414Y18967480D01*
X17027570Y18803690D01*
X16929076Y18656283D01*
X16803717Y18530924D01*
X16656310Y18432430D01*
X16492520Y18364586D01*
X16393161Y18344823D01*
X16318645Y18330000D01*
X16141355Y18330000D01*
X16066839Y18344823D01*
X15967480Y18364586D01*
X15803690Y18432430D01*
X15656283Y18530924D01*
X15530924Y18656283D01*
X15432430Y18803690D01*
X15364586Y18967480D01*
X15340749Y19087318D01*
X15330000Y19141355D01*
X15330000Y19318645D01*
X15354821Y19443425D01*
X15364586Y19492520D01*
X15432430Y19656310D01*
X15530924Y19803717D01*
X15656283Y19929076D01*
X15803690Y20027570D01*
X15967480Y20095414D01*
X16069617Y20115730D01*
X16141355Y20130000D01*
X16318645Y20130000D01*
X16390383Y20115730D01*
G37*
G36*
X18930383Y20115730D02*
G01*
X19032520Y20095414D01*
X19196310Y20027570D01*
X19343717Y19929076D01*
X19469076Y19803717D01*
X19567570Y19656310D01*
X19635414Y19492520D01*
X19645179Y19443425D01*
X19670000Y19318645D01*
X19670000Y19141355D01*
X19659251Y19087318D01*
X19635414Y18967480D01*
X19567570Y18803690D01*
X19469076Y18656283D01*
X19343717Y18530924D01*
X19196310Y18432430D01*
X19032520Y18364586D01*
X18933161Y18344823D01*
X18858645Y18330000D01*
X18681355Y18330000D01*
X18606839Y18344823D01*
X18507480Y18364586D01*
X18343690Y18432430D01*
X18196283Y18530924D01*
X18070924Y18656283D01*
X17972430Y18803690D01*
X17904586Y18967480D01*
X17880749Y19087318D01*
X17870000Y19141355D01*
X17870000Y19318645D01*
X17894821Y19443425D01*
X17904586Y19492520D01*
X17972430Y19656310D01*
X18070924Y19803717D01*
X18196283Y19929076D01*
X18343690Y20027570D01*
X18507480Y20095414D01*
X18609617Y20115730D01*
X18681355Y20130000D01*
X18858645Y20130000D01*
X18930383Y20115730D01*
G37*
G36*
X-5900000Y18400000D02*
G01*
X-7600000Y18400000D01*
X-7600000Y20100000D01*
X-5900000Y20100000D01*
X-5900000Y18400000D01*
G37*
G36*
X-35657268Y21129847D02*
G01*
X-35443425Y21041270D01*
X-35250984Y20912685D01*
X-35087315Y20749016D01*
X-34958730Y20556575D01*
X-34870153Y20342732D01*
X-34825000Y20115730D01*
X-34825000Y19884270D01*
X-34870153Y19657268D01*
X-34958730Y19443425D01*
X-35087315Y19250984D01*
X-35250984Y19087315D01*
X-35443425Y18958730D01*
X-35657268Y18870153D01*
X-35884270Y18825000D01*
X-36115730Y18825000D01*
X-36342732Y18870153D01*
X-36556575Y18958730D01*
X-36749016Y19087315D01*
X-36912685Y19250984D01*
X-37041270Y19443425D01*
X-37129847Y19657268D01*
X-37175000Y19884270D01*
X-37175000Y20115730D01*
X-37129847Y20342732D01*
X-37041270Y20556575D01*
X-36912685Y20749016D01*
X-36749016Y20912685D01*
X-36556575Y21041270D01*
X-36342732Y21129847D01*
X-36115730Y21175000D01*
X-35884270Y21175000D01*
X-35657268Y21129847D01*
G37*
G36*
X-3252068Y22517336D02*
G01*
X-3252067Y22517336D01*
X-3252064Y22517335D01*
X-3097374Y22453260D01*
X-2958156Y22360238D01*
X-2839762Y22241844D01*
X-2746740Y22102626D01*
X-2682665Y21947936D01*
X-2682664Y21947933D01*
X-2682664Y21947932D01*
X-2650000Y21783720D01*
X-2650000Y21616280D01*
X-2671641Y21507484D01*
X-2682665Y21452064D01*
X-2746740Y21297374D01*
X-2839762Y21158156D01*
X-2958156Y21039762D01*
X-3097374Y20946740D01*
X-3252064Y20882665D01*
X-3252067Y20882664D01*
X-3252068Y20882664D01*
X-3416280Y20850000D01*
X-3583720Y20850000D01*
X-3747932Y20882664D01*
X-3747933Y20882664D01*
X-3747936Y20882665D01*
X-3902626Y20946740D01*
X-4041844Y21039762D01*
X-4160238Y21158156D01*
X-4253260Y21297374D01*
X-4317335Y21452064D01*
X-4328359Y21507484D01*
X-4350000Y21616280D01*
X-4350000Y21783720D01*
X-4317336Y21947932D01*
X-4317336Y21947933D01*
X-4317335Y21947936D01*
X-4253260Y22102626D01*
X-4160238Y22241844D01*
X-4041844Y22360238D01*
X-3902626Y22453260D01*
X-3747936Y22517335D01*
X-3747933Y22517336D01*
X-3747932Y22517336D01*
X-3583720Y22550000D01*
X-3416280Y22550000D01*
X-3252068Y22517336D01*
G37*
G36*
X13853161Y22655177D02*
G01*
X13952520Y22635414D01*
X14116310Y22567570D01*
X14263717Y22469076D01*
X14389076Y22343717D01*
X14487570Y22196310D01*
X14555414Y22032520D01*
X14572239Y21947932D01*
X14590000Y21858645D01*
X14590000Y21681355D01*
X14577056Y21616282D01*
X14555414Y21507480D01*
X14487570Y21343690D01*
X14389076Y21196283D01*
X14263717Y21070924D01*
X14116310Y20972430D01*
X13952520Y20904586D01*
X13853161Y20884823D01*
X13778645Y20870000D01*
X13601355Y20870000D01*
X13526839Y20884823D01*
X13427480Y20904586D01*
X13263690Y20972430D01*
X13116283Y21070924D01*
X12990924Y21196283D01*
X12892430Y21343690D01*
X12824586Y21507480D01*
X12802944Y21616282D01*
X12790000Y21681355D01*
X12790000Y21858645D01*
X12807761Y21947932D01*
X12824586Y22032520D01*
X12892430Y22196310D01*
X12990924Y22343717D01*
X13116283Y22469076D01*
X13263690Y22567570D01*
X13427480Y22635414D01*
X13526839Y22655177D01*
X13601355Y22670000D01*
X13778645Y22670000D01*
X13853161Y22655177D01*
G37*
G36*
X16393161Y22655177D02*
G01*
X16492520Y22635414D01*
X16656310Y22567570D01*
X16803717Y22469076D01*
X16929076Y22343717D01*
X17027570Y22196310D01*
X17095414Y22032520D01*
X17112239Y21947932D01*
X17130000Y21858645D01*
X17130000Y21681355D01*
X17117056Y21616282D01*
X17095414Y21507480D01*
X17027570Y21343690D01*
X16929076Y21196283D01*
X16803717Y21070924D01*
X16656310Y20972430D01*
X16492520Y20904586D01*
X16393161Y20884823D01*
X16318645Y20870000D01*
X16141355Y20870000D01*
X16066839Y20884823D01*
X15967480Y20904586D01*
X15803690Y20972430D01*
X15656283Y21070924D01*
X15530924Y21196283D01*
X15432430Y21343690D01*
X15364586Y21507480D01*
X15342944Y21616282D01*
X15330000Y21681355D01*
X15330000Y21858645D01*
X15347761Y21947932D01*
X15364586Y22032520D01*
X15432430Y22196310D01*
X15530924Y22343717D01*
X15656283Y22469076D01*
X15803690Y22567570D01*
X15967480Y22635414D01*
X16066839Y22655177D01*
X16141355Y22670000D01*
X16318645Y22670000D01*
X16393161Y22655177D01*
G37*
G36*
X18933161Y22655177D02*
G01*
X19032520Y22635414D01*
X19196310Y22567570D01*
X19343717Y22469076D01*
X19469076Y22343717D01*
X19567570Y22196310D01*
X19635414Y22032520D01*
X19652239Y21947932D01*
X19670000Y21858645D01*
X19670000Y21681355D01*
X19657056Y21616282D01*
X19635414Y21507480D01*
X19567570Y21343690D01*
X19469076Y21196283D01*
X19343717Y21070924D01*
X19196310Y20972430D01*
X19032520Y20904586D01*
X18933161Y20884823D01*
X18858645Y20870000D01*
X18681355Y20870000D01*
X18606839Y20884823D01*
X18507480Y20904586D01*
X18343690Y20972430D01*
X18196283Y21070924D01*
X18070924Y21196283D01*
X17972430Y21343690D01*
X17904586Y21507480D01*
X17882944Y21616282D01*
X17870000Y21681355D01*
X17870000Y21858645D01*
X17887761Y21947932D01*
X17904586Y22032520D01*
X17972430Y22196310D01*
X18070924Y22343717D01*
X18196283Y22469076D01*
X18343690Y22567570D01*
X18507480Y22635414D01*
X18606839Y22655177D01*
X18681355Y22670000D01*
X18858645Y22670000D01*
X18933161Y22655177D01*
G37*
G36*
X21473161Y22655177D02*
G01*
X21572520Y22635414D01*
X21736310Y22567570D01*
X21883717Y22469076D01*
X22009076Y22343717D01*
X22107570Y22196310D01*
X22175414Y22032520D01*
X22192239Y21947932D01*
X22210000Y21858645D01*
X22210000Y21681355D01*
X22197056Y21616282D01*
X22175414Y21507480D01*
X22107570Y21343690D01*
X22009076Y21196283D01*
X21883717Y21070924D01*
X21736310Y20972430D01*
X21572520Y20904586D01*
X21473161Y20884823D01*
X21398645Y20870000D01*
X21221355Y20870000D01*
X21146839Y20884823D01*
X21047480Y20904586D01*
X20883690Y20972430D01*
X20736283Y21070924D01*
X20610924Y21196283D01*
X20512430Y21343690D01*
X20444586Y21507480D01*
X20422944Y21616282D01*
X20410000Y21681355D01*
X20410000Y21858645D01*
X20427761Y21947932D01*
X20444586Y22032520D01*
X20512430Y22196310D01*
X20610924Y22343717D01*
X20736283Y22469076D01*
X20883690Y22567570D01*
X21047480Y22635414D01*
X21146839Y22655177D01*
X21221355Y22670000D01*
X21398645Y22670000D01*
X21473161Y22655177D01*
G37*
G36*
X-33080807Y23790043D02*
G01*
X-33080805Y23790042D01*
X-33080804Y23790042D01*
X-33016985Y23763607D01*
X-32844215Y23692044D01*
X-32631301Y23549779D01*
X-32450221Y23368699D01*
X-32307956Y23155785D01*
X-32209957Y22919193D01*
X-32160000Y22668041D01*
X-32160000Y22411959D01*
X-32209957Y22160807D01*
X-32307956Y21924215D01*
X-32450221Y21711301D01*
X-32631301Y21530221D01*
X-32844215Y21387956D01*
X-33016985Y21316393D01*
X-33080804Y21289958D01*
X-33080805Y21289958D01*
X-33080807Y21289957D01*
X-33331959Y21240000D01*
X-33588041Y21240000D01*
X-33839193Y21289957D01*
X-33839195Y21289958D01*
X-33839196Y21289958D01*
X-33903015Y21316393D01*
X-34075785Y21387956D01*
X-34288699Y21530221D01*
X-34469779Y21711301D01*
X-34612044Y21924215D01*
X-34710043Y22160807D01*
X-34760000Y22411959D01*
X-34760000Y22668041D01*
X-34710043Y22919193D01*
X-34612044Y23155785D01*
X-34469779Y23368699D01*
X-34288699Y23549779D01*
X-34075785Y23692044D01*
X-33903015Y23763607D01*
X-33839196Y23790042D01*
X-33839195Y23790042D01*
X-33839193Y23790043D01*
X-33588041Y23840000D01*
X-33331959Y23840000D01*
X-33080807Y23790043D01*
G37*
G36*
X-38160807Y23790043D02*
G01*
X-38160805Y23790042D01*
X-38160804Y23790042D01*
X-38096985Y23763607D01*
X-37924215Y23692044D01*
X-37711301Y23549779D01*
X-37530221Y23368699D01*
X-37387956Y23155785D01*
X-37289957Y22919193D01*
X-37240000Y22668041D01*
X-37240000Y22411959D01*
X-37289957Y22160807D01*
X-37387956Y21924215D01*
X-37530221Y21711301D01*
X-37711301Y21530221D01*
X-37924215Y21387956D01*
X-38096985Y21316393D01*
X-38160804Y21289958D01*
X-38160805Y21289958D01*
X-38160807Y21289957D01*
X-38411959Y21240000D01*
X-38668041Y21240000D01*
X-38919193Y21289957D01*
X-38919195Y21289958D01*
X-38919196Y21289958D01*
X-38983015Y21316393D01*
X-39155785Y21387956D01*
X-39368699Y21530221D01*
X-39549779Y21711301D01*
X-39692044Y21924215D01*
X-39790043Y22160807D01*
X-39840000Y22411959D01*
X-39840000Y22668041D01*
X-39790043Y22919193D01*
X-39692044Y23155785D01*
X-39549779Y23368699D01*
X-39368699Y23549779D01*
X-39155785Y23692044D01*
X-38983015Y23763607D01*
X-38919196Y23790042D01*
X-38919195Y23790042D01*
X-38919193Y23790043D01*
X-38668041Y23840000D01*
X-38411959Y23840000D01*
X-38160807Y23790043D01*
G37*
M02*
