G04 #@! TF.GenerationSoftware,KiCad,Pcbnew,5.1.5*
G04 #@! TF.CreationDate,2020-08-12T23:37:00+02:00*
G04 #@! TF.ProjectId,icE1usb,69634531-7573-4622-9e6b-696361645f70,rev?*
G04 #@! TF.SameCoordinates,Original*
G04 #@! TF.FileFunction,Legend,Top*
G04 #@! TF.FilePolarity,Positive*
%FSLAX46Y46*%
G04 Gerber Fmt 4.6, Leading zero omitted, Abs format (unit mm)*
G04 Created by KiCad (PCBNEW 5.1.5) date 2020-08-12 23:37:00*
%MOMM*%
%LPD*%
G04 APERTURE LIST*
%ADD10C,0.100000*%
%ADD11C,0.120000*%
%ADD12C,0.150000*%
G04 APERTURE END LIST*
D10*
X-28499999Y19346058D02*
G75*
G02X-26750001Y20500001I-1J1903942D01*
G01*
X-27977879Y19825960D02*
G75*
G02X-27249999Y20499999I977879J-325960D01*
G01*
D11*
X-14820000Y9250000D02*
X-14820000Y10250000D01*
X-18180000Y9250000D02*
X-18180000Y10250000D01*
X25837221Y7240000D02*
X26162779Y7240000D01*
X25837221Y8260000D02*
X26162779Y8260000D01*
X-17587221Y1260000D02*
X-17912779Y1260000D01*
X-17587221Y240000D02*
X-17912779Y240000D01*
X430000Y-13000000D02*
X430000Y-12000000D01*
X-2930000Y-13000000D02*
X-2930000Y-12000000D01*
X-4760000Y-9337221D02*
X-4760000Y-9662779D01*
X-3740000Y-9337221D02*
X-3740000Y-9662779D01*
X-3260000Y-9337221D02*
X-3260000Y-9662779D01*
X-2240000Y-9337221D02*
X-2240000Y-9662779D01*
X-1760000Y-9337221D02*
X-1760000Y-9662779D01*
X-740000Y-9337221D02*
X-740000Y-9662779D01*
X-260000Y-9337221D02*
X-260000Y-9662779D01*
X760000Y-9337221D02*
X760000Y-9662779D01*
X-4510000Y-12337221D02*
X-4510000Y-12662779D01*
X-3490000Y-12337221D02*
X-3490000Y-12662779D01*
X-6010000Y-12337221D02*
X-6010000Y-12662779D01*
X-4990000Y-12337221D02*
X-4990000Y-12662779D01*
X990000Y-12337221D02*
X990000Y-12662779D01*
X2010000Y-12337221D02*
X2010000Y-12662779D01*
X-39700000Y7900000D02*
X-39700000Y7000000D01*
X-42400000Y7900000D02*
X-42400000Y7000000D01*
X-32750000Y7900000D02*
X-39700000Y7900000D01*
X-30650000Y13100000D02*
X-30650000Y8400000D01*
X-37050000Y13100000D02*
X-30650000Y13100000D01*
X-42850000Y13100000D02*
X-39650000Y13100000D01*
X-42850000Y12500000D02*
X-42850000Y13100000D01*
X-44350000Y12500000D02*
X-42850000Y12500000D01*
X-44350000Y8500000D02*
X-44350000Y12500000D01*
X-42850000Y8500000D02*
X-44350000Y8500000D01*
X-42850000Y7900000D02*
X-42850000Y8500000D01*
X-42400000Y7900000D02*
X-42850000Y7900000D01*
X37200000Y16935000D02*
X36700000Y16435000D01*
X36200000Y16935000D02*
X37200000Y16935000D01*
X36700000Y16435000D02*
X36200000Y16935000D01*
X28185000Y-16240000D02*
X33700000Y-16240000D01*
X28140000Y16240000D02*
X33700000Y16240000D01*
X28140000Y16240000D02*
X28140000Y-16240000D01*
X44110000Y-16240000D02*
X36500000Y-16240000D01*
X44110000Y16240000D02*
X36500000Y16240000D01*
X44110000Y16240000D02*
X44110000Y-16240000D01*
X7912779Y-20740000D02*
X7587221Y-20740000D01*
X7912779Y-21760000D02*
X7587221Y-21760000D01*
X7912779Y-22240000D02*
X7587221Y-22240000D01*
X7912779Y-23260000D02*
X7587221Y-23260000D01*
X-7662779Y16990000D02*
X-7337221Y16990000D01*
X-7662779Y18010000D02*
X-7337221Y18010000D01*
X-27990000Y16587221D02*
X-27990000Y16912779D01*
X-29010000Y16587221D02*
X-29010000Y16912779D01*
X-9015000Y18235000D02*
X-11300000Y18235000D01*
X-9015000Y16765000D02*
X-9015000Y18235000D01*
X-11300000Y16765000D02*
X-9015000Y16765000D01*
D10*
X-29950000Y20590000D02*
G75*
G03X-29950000Y20590000I-50000J0D01*
G01*
D11*
X-13662779Y16990000D02*
X-13337221Y16990000D01*
X-13662779Y18010000D02*
X-13337221Y18010000D01*
X-13662779Y21490000D02*
X-13337221Y21490000D01*
X-13662779Y22510000D02*
X-13337221Y22510000D01*
X-13662779Y18490000D02*
X-13337221Y18490000D01*
X-13662779Y19510000D02*
X-13337221Y19510000D01*
X-13662779Y19990000D02*
X-13337221Y19990000D01*
X-13662779Y21010000D02*
X-13337221Y21010000D01*
X-30510000Y16912779D02*
X-30510000Y16587221D01*
X-29490000Y16912779D02*
X-29490000Y16587221D01*
X-2440000Y21910000D02*
X1285000Y21910000D01*
X-11535000Y21910000D02*
X-4560000Y21910000D01*
X-11535000Y19040000D02*
X-11535000Y21910000D01*
X1285000Y19040000D02*
X1285000Y21910000D01*
X-5690000Y19040000D02*
X1285000Y19040000D01*
X-11530000Y19040000D02*
X-7810000Y19040000D01*
X25500000Y3320000D02*
X26500000Y3320000D01*
X25500000Y6680000D02*
X26500000Y6680000D01*
D12*
X27275000Y-2800000D02*
X21300000Y-2800000D01*
X25700000Y2725000D02*
X21300000Y2725000D01*
D11*
X19260000Y-162779D02*
X19260000Y162779D01*
X18240000Y-162779D02*
X18240000Y162779D01*
X26162779Y-10240000D02*
X25837221Y-10240000D01*
X26162779Y-11260000D02*
X25837221Y-11260000D01*
X25837221Y-8260000D02*
X26162779Y-8260000D01*
X25837221Y-7240000D02*
X26162779Y-7240000D01*
X8837221Y10240000D02*
X9162779Y10240000D01*
X8837221Y11260000D02*
X9162779Y11260000D01*
X9162779Y8260000D02*
X8837221Y8260000D01*
X9162779Y7240000D02*
X8837221Y7240000D01*
X25837221Y-9760000D02*
X26162779Y-9760000D01*
X25837221Y-8740000D02*
X26162779Y-8740000D01*
X662779Y-2240000D02*
X337221Y-2240000D01*
X662779Y-3260000D02*
X337221Y-3260000D01*
X662779Y-3740000D02*
X337221Y-3740000D01*
X662779Y-4760000D02*
X337221Y-4760000D01*
X9162779Y9760000D02*
X8837221Y9760000D01*
X9162779Y8740000D02*
X8837221Y8740000D01*
X662779Y3260000D02*
X337221Y3260000D01*
X662779Y2240000D02*
X337221Y2240000D01*
X662779Y4760000D02*
X337221Y4760000D01*
X662779Y3740000D02*
X337221Y3740000D01*
X4250000Y-1820000D02*
X3250000Y-1820000D01*
X4250000Y-5180000D02*
X3250000Y-5180000D01*
X4250000Y5180000D02*
X3250000Y5180000D01*
X4250000Y1820000D02*
X3250000Y1820000D01*
X25500000Y-6680000D02*
X26500000Y-6680000D01*
X25500000Y-3320000D02*
X26500000Y-3320000D01*
X-16500000Y-20930000D02*
X-15500000Y-20930000D01*
X-16500000Y-17570000D02*
X-15500000Y-17570000D01*
X-31250000Y3180000D02*
X-32250000Y3180000D01*
X-31250000Y-180000D02*
X-32250000Y-180000D01*
X7162779Y-3740000D02*
X6837221Y-3740000D01*
X7162779Y-4760000D02*
X6837221Y-4760000D01*
X7162779Y-2240000D02*
X6837221Y-2240000D01*
X7162779Y-3260000D02*
X6837221Y-3260000D01*
X7162779Y-740000D02*
X6837221Y-740000D01*
X7162779Y-1760000D02*
X6837221Y-1760000D01*
X7162779Y-5240000D02*
X6837221Y-5240000D01*
X7162779Y-6260000D02*
X6837221Y-6260000D01*
X7162779Y4760000D02*
X6837221Y4760000D01*
X7162779Y3740000D02*
X6837221Y3740000D01*
X7162779Y3260000D02*
X6837221Y3260000D01*
X7162779Y2240000D02*
X6837221Y2240000D01*
X7162779Y1760000D02*
X6837221Y1760000D01*
X7162779Y740000D02*
X6837221Y740000D01*
X7162779Y6260000D02*
X6837221Y6260000D01*
X7162779Y5240000D02*
X6837221Y5240000D01*
X11760000Y-2162779D02*
X11760000Y-1837221D01*
X10740000Y-2162779D02*
X10740000Y-1837221D01*
X11760000Y4837221D02*
X11760000Y5162779D01*
X10740000Y4837221D02*
X10740000Y5162779D01*
X29412779Y-22240000D02*
X29087221Y-22240000D01*
X29412779Y-23260000D02*
X29087221Y-23260000D01*
X29412779Y-20740000D02*
X29087221Y-20740000D01*
X29412779Y-21760000D02*
X29087221Y-21760000D01*
X29412779Y-19240000D02*
X29087221Y-19240000D01*
X29412779Y-20260000D02*
X29087221Y-20260000D01*
X29412779Y-17740000D02*
X29087221Y-17740000D01*
X29412779Y-18760000D02*
X29087221Y-18760000D01*
X29412779Y17740000D02*
X29087221Y17740000D01*
X29412779Y18760000D02*
X29087221Y18760000D01*
X29412779Y20260000D02*
X29087221Y20260000D01*
X29412779Y19240000D02*
X29087221Y19240000D01*
X29412779Y21760000D02*
X29087221Y21760000D01*
X29412779Y20740000D02*
X29087221Y20740000D01*
X29412779Y23260000D02*
X29087221Y23260000D01*
X29412779Y22240000D02*
X29087221Y22240000D01*
X10662779Y-3740000D02*
X10337221Y-3740000D01*
X10662779Y-4760000D02*
X10337221Y-4760000D01*
X10662779Y-5240000D02*
X10337221Y-5240000D01*
X10662779Y-6260000D02*
X10337221Y-6260000D01*
X10662779Y3260000D02*
X10337221Y3260000D01*
X10662779Y2240000D02*
X10337221Y2240000D01*
X10662779Y1760000D02*
X10337221Y1760000D01*
X10662779Y740000D02*
X10337221Y740000D01*
X260000Y10837221D02*
X260000Y11162779D01*
X-760000Y10837221D02*
X-760000Y11162779D01*
X-10337221Y10510000D02*
X-10662779Y10510000D01*
X-10337221Y9490000D02*
X-10662779Y9490000D01*
X-10337221Y15010000D02*
X-10662779Y15010000D01*
X-10337221Y13990000D02*
X-10662779Y13990000D01*
X-10337221Y13510000D02*
X-10662779Y13510000D01*
X-10337221Y12490000D02*
X-10662779Y12490000D01*
X-29760000Y-1837221D02*
X-29760000Y-2162779D01*
X-28740000Y-1837221D02*
X-28740000Y-2162779D01*
X-4412779Y-6760000D02*
X-4087221Y-6760000D01*
X-4412779Y-5740000D02*
X-4087221Y-5740000D01*
X-31587221Y-740000D02*
X-31912779Y-740000D01*
X-31587221Y-1760000D02*
X-31912779Y-1760000D01*
X-31587221Y4760000D02*
X-31912779Y4760000D01*
X-31587221Y3740000D02*
X-31912779Y3740000D01*
X-31912779Y-4760000D02*
X-31587221Y-4760000D01*
X-31912779Y-3740000D02*
X-31587221Y-3740000D01*
X9330000Y-20140000D02*
X8000000Y-20140000D01*
X9330000Y-18810000D02*
X9330000Y-20140000D01*
X6730000Y-20140000D02*
X4130000Y-20140000D01*
X6730000Y-17540000D02*
X6730000Y-20140000D01*
X9330000Y-17540000D02*
X6730000Y-17540000D01*
X4130000Y-20140000D02*
X4130000Y-9860000D01*
X9330000Y-17540000D02*
X9330000Y-9860000D01*
X9330000Y-9860000D02*
X4130000Y-9860000D01*
X-21150000Y-20140000D02*
X-22480000Y-20140000D01*
X-21150000Y-18810000D02*
X-21150000Y-20140000D01*
X-23750000Y-20140000D02*
X-26350000Y-20140000D01*
X-23750000Y-17540000D02*
X-23750000Y-20140000D01*
X-21150000Y-17540000D02*
X-23750000Y-17540000D01*
X-26350000Y-20140000D02*
X-26350000Y-9860000D01*
X-21150000Y-17540000D02*
X-21150000Y-9860000D01*
X-21150000Y-9860000D02*
X-26350000Y-9860000D01*
X-17485000Y-22735000D02*
X-15200000Y-22735000D01*
X-17485000Y-21265000D02*
X-17485000Y-22735000D01*
X-15200000Y-21265000D02*
X-17485000Y-21265000D01*
X-10337221Y9010000D02*
X-10662779Y9010000D01*
X-10337221Y7990000D02*
X-10662779Y7990000D01*
X-10662779Y10990000D02*
X-10337221Y10990000D01*
X-10662779Y12010000D02*
X-10337221Y12010000D01*
X-19510000Y-18337221D02*
X-19510000Y-18662779D01*
X-18490000Y-18337221D02*
X-18490000Y-18662779D01*
X-7412779Y14740000D02*
X-7087221Y14740000D01*
X-7412779Y15760000D02*
X-7087221Y15760000D01*
X-4412779Y-760000D02*
X-4087221Y-760000D01*
X-4412779Y260000D02*
X-4087221Y260000D01*
X-4412779Y-2260000D02*
X-4087221Y-2260000D01*
X-4412779Y-1240000D02*
X-4087221Y-1240000D01*
X-4412779Y1740000D02*
X-4087221Y1740000D01*
X-4412779Y2760000D02*
X-4087221Y2760000D01*
X-9010000Y-6587221D02*
X-9010000Y-6912779D01*
X-7990000Y-6587221D02*
X-7990000Y-6912779D01*
X-17587221Y3260000D02*
X-17912779Y3260000D01*
X-17587221Y2240000D02*
X-17912779Y2240000D01*
X-31587221Y-2240000D02*
X-31912779Y-2240000D01*
X-31587221Y-3260000D02*
X-31912779Y-3260000D01*
X-21350000Y8860000D02*
X-23800000Y8860000D01*
X-23150000Y5640000D02*
X-21350000Y5640000D01*
X-21350000Y-5640000D02*
X-23800000Y-5640000D01*
X-23150000Y-8860000D02*
X-21350000Y-8860000D01*
X-20010000Y7412779D02*
X-20010000Y7087221D01*
X-18990000Y7412779D02*
X-18990000Y7087221D01*
X-25510000Y7412779D02*
X-25510000Y7087221D01*
X-24490000Y7412779D02*
X-24490000Y7087221D01*
X-20010000Y-7087221D02*
X-20010000Y-7412779D01*
X-18990000Y-7087221D02*
X-18990000Y-7412779D01*
X-25510000Y-7087221D02*
X-25510000Y-7412779D01*
X-24490000Y-7087221D02*
X-24490000Y-7412779D01*
X-4412779Y-5260000D02*
X-4087221Y-5260000D01*
X-4412779Y-4240000D02*
X-4087221Y-4240000D01*
X-40150000Y15850000D02*
X-31850000Y15850000D01*
X-40150000Y24150000D02*
X-31850000Y24150000D01*
X-31850000Y15850000D02*
X-31850000Y24150000D01*
X-40150000Y15850000D02*
X-40150000Y24150000D01*
X24400000Y-19700000D02*
X24400000Y-22000000D01*
X27600000Y-21300000D02*
X27600000Y-19700000D01*
X12725000Y-2700000D02*
X12725000Y-5000000D01*
X15925000Y-4300000D02*
X15925000Y-2700000D01*
X24400000Y21300000D02*
X24400000Y19000000D01*
X27600000Y19700000D02*
X27600000Y21300000D01*
X12725000Y4300000D02*
X12725000Y2000000D01*
X15925000Y2700000D02*
X15925000Y4300000D01*
X-26650000Y700000D02*
X-26650000Y3000000D01*
X-29850000Y2300000D02*
X-29850000Y700000D01*
X22640000Y-17900000D02*
X22640000Y-19230000D01*
X21310000Y-17900000D02*
X22640000Y-17900000D01*
X22640000Y-20500000D02*
X22640000Y-23100000D01*
X20040000Y-20500000D02*
X22640000Y-20500000D01*
X20040000Y-17900000D02*
X20040000Y-20500000D01*
X22640000Y-23100000D02*
X12360000Y-23100000D01*
X20040000Y-17900000D02*
X12360000Y-17900000D01*
X12360000Y-17900000D02*
X12360000Y-23100000D01*
X12360000Y17900000D02*
X12360000Y19230000D01*
X13690000Y17900000D02*
X12360000Y17900000D01*
X12360000Y20500000D02*
X12360000Y23100000D01*
X14960000Y20500000D02*
X12360000Y20500000D01*
X14960000Y17900000D02*
X14960000Y20500000D01*
X12360000Y23100000D02*
X22640000Y23100000D01*
X14960000Y17900000D02*
X22640000Y17900000D01*
X22640000Y17900000D02*
X22640000Y23100000D01*
X-13650000Y-22680000D02*
X-13650000Y-21350000D01*
X-12320000Y-22680000D02*
X-13650000Y-22680000D01*
X-13650000Y-20080000D02*
X-13650000Y-17480000D01*
X-11050000Y-20080000D02*
X-13650000Y-20080000D01*
X-11050000Y-22680000D02*
X-11050000Y-20080000D01*
X-13650000Y-17480000D02*
X-3370000Y-17480000D01*
X-11050000Y-22680000D02*
X-3370000Y-22680000D01*
X-3370000Y-22680000D02*
X-3370000Y-17480000D01*
X-16100000Y12240000D02*
X-16790000Y12240000D01*
X-16790000Y12090000D02*
X-16790000Y12240000D01*
X-26710000Y12090000D02*
X-26710000Y12240000D01*
X-16790000Y22260000D02*
X-16790000Y22410000D01*
X-26710000Y22260000D02*
X-26710000Y22410000D01*
X-16790000Y22410000D02*
X-26710000Y22410000D01*
X-16790000Y12090000D02*
X-26710000Y12090000D01*
X-3560000Y8390000D02*
X-3900000Y8390000D01*
X-1380000Y13610000D02*
X-1380000Y8390000D01*
X-6440000Y13610000D02*
X-6100000Y13610000D01*
X-8620000Y11000000D02*
X-8620000Y13610000D01*
X-6100000Y8390000D02*
X-6440000Y8390000D01*
X-3900000Y13610000D02*
X-3560000Y13610000D01*
X24250000Y-15250000D02*
X23250000Y-15250000D01*
X10750000Y-7250000D02*
X11750000Y-7250000D01*
X24250000Y-7250000D02*
X24250000Y-15250000D01*
X10750000Y-7250000D02*
X10750000Y-15250000D01*
X10750000Y-15250000D02*
X11750000Y-15250000D01*
X24250000Y-8250000D02*
X23250000Y-7250000D01*
X24250000Y-7250000D02*
X23250000Y-7250000D01*
X10750000Y15250000D02*
X11750000Y15250000D01*
X24250000Y7250000D02*
X23250000Y7250000D01*
X10750000Y7250000D02*
X10750000Y15250000D01*
X24250000Y7250000D02*
X24250000Y15250000D01*
X24250000Y15250000D02*
X23250000Y15250000D01*
X10750000Y8250000D02*
X11750000Y7250000D01*
X10750000Y7250000D02*
X11750000Y7250000D01*
X38750000Y-19500000D02*
X38750000Y-21500000D01*
X38750000Y-23000000D02*
X40000000Y-23000000D01*
X40000000Y-18000000D02*
X38750000Y-18000000D01*
X-25250000Y-4400000D02*
X-23750000Y-4400000D01*
X-25250000Y4400000D02*
X-25250000Y-4400000D01*
X-23750000Y4400000D02*
X-25250000Y4400000D01*
X-19250000Y-4400000D02*
X-20750000Y-4400000D01*
X-19250000Y1700000D02*
X-19250000Y-4400000D01*
X-19250000Y4400000D02*
X-19250000Y1700000D01*
X-20750000Y4400000D02*
X-19250000Y4400000D01*
D10*
X-20750000Y-1100000D02*
X-21850000Y-1100000D01*
X-20750000Y-1100000D02*
X-20750000Y-100000D01*
D11*
X-37000000Y-24070000D02*
X-36500000Y-23570000D01*
X-36000000Y-24070000D02*
X-37000000Y-24070000D01*
X-36500000Y-23570000D02*
X-36000000Y-24070000D01*
X-28185000Y-6690000D02*
X-33860000Y-6690000D01*
X-28185000Y-23330000D02*
X-33860000Y-23330000D01*
X-28185000Y-23330000D02*
X-28185000Y-6690000D01*
X-44065000Y-6690000D02*
X-36360000Y-6690000D01*
X-44065000Y-23330000D02*
X-36360000Y-23330000D01*
X-44065000Y-23330000D02*
X-44065000Y-6690000D01*
X-43750000Y4700000D02*
X-43750000Y-4700000D01*
X-37950000Y-4700000D02*
X-39950000Y-4700000D01*
X-41850000Y-4700000D02*
X-43750000Y-4700000D01*
X-37950000Y4700000D02*
X-39950000Y4700000D01*
X-41850000Y4700000D02*
X-43750000Y4700000D01*
X-12275000Y-16465000D02*
X-10600000Y-16465000D01*
X-12275000Y-16725000D02*
X-12275000Y-16465000D01*
X-15000000Y-16725000D02*
X-12275000Y-16725000D01*
X-17725000Y-16725000D02*
X-17725000Y-16465000D01*
X-15000000Y-16725000D02*
X-17725000Y-16725000D01*
X-12275000Y-11275000D02*
X-12275000Y-11535000D01*
X-15000000Y-11275000D02*
X-12275000Y-11275000D01*
X-17725000Y-11275000D02*
X-17725000Y-11535000D01*
X-15000000Y-11275000D02*
X-17725000Y-11275000D01*
X-14135000Y3610000D02*
X-14610000Y3610000D01*
X-7390000Y-3610000D02*
X-7390000Y-3135000D01*
X-7865000Y-3610000D02*
X-7390000Y-3610000D01*
X-14610000Y-3610000D02*
X-14610000Y-3135000D01*
X-14135000Y-3610000D02*
X-14610000Y-3610000D01*
X-7390000Y3610000D02*
X-7390000Y3135000D01*
X-7865000Y3610000D02*
X-7390000Y3610000D01*
D12*
X-8590952Y19678571D02*
X-7829047Y19678571D01*
X-8210000Y19297619D02*
X-8210000Y20059523D01*
M02*
