G75*
%MOIN*%
%OFA0B0*%
%FSLAX25Y25*%
%IPPOS*%
%LPD*%
%AMOC8*
5,1,8,0,0,1.08239X$1,22.5*
%
%ADD10C,0.00000*%
%ADD11C,0.01000*%
%ADD12C,0.01100*%
%ADD13C,0.00700*%
%ADD14C,0.00800*%
%ADD15R,0.00984X0.00984*%
%ADD16C,0.00600*%
%ADD17C,0.00500*%
%ADD18C,0.01200*%
%ADD19C,0.01600*%
%ADD20C,0.00400*%
%ADD21C,0.00200*%
D10*
X0004252Y0015829D02*
X0004252Y0311104D01*
X0397953Y0311104D01*
X0397953Y0015829D01*
X0004252Y0015829D01*
X0049528Y0033329D02*
X0049530Y0033466D01*
X0049536Y0033604D01*
X0049546Y0033741D01*
X0049560Y0033877D01*
X0049578Y0034014D01*
X0049600Y0034149D01*
X0049626Y0034284D01*
X0049655Y0034418D01*
X0049689Y0034552D01*
X0049726Y0034684D01*
X0049768Y0034815D01*
X0049813Y0034945D01*
X0049862Y0035073D01*
X0049914Y0035200D01*
X0049971Y0035325D01*
X0050030Y0035449D01*
X0050094Y0035571D01*
X0050161Y0035691D01*
X0050231Y0035809D01*
X0050305Y0035925D01*
X0050382Y0036039D01*
X0050463Y0036150D01*
X0050546Y0036259D01*
X0050633Y0036366D01*
X0050723Y0036469D01*
X0050816Y0036571D01*
X0050912Y0036669D01*
X0051010Y0036765D01*
X0051112Y0036858D01*
X0051215Y0036948D01*
X0051322Y0037035D01*
X0051431Y0037118D01*
X0051542Y0037199D01*
X0051656Y0037276D01*
X0051772Y0037350D01*
X0051890Y0037420D01*
X0052010Y0037487D01*
X0052132Y0037551D01*
X0052256Y0037610D01*
X0052381Y0037667D01*
X0052508Y0037719D01*
X0052636Y0037768D01*
X0052766Y0037813D01*
X0052897Y0037855D01*
X0053029Y0037892D01*
X0053163Y0037926D01*
X0053297Y0037955D01*
X0053432Y0037981D01*
X0053567Y0038003D01*
X0053704Y0038021D01*
X0053840Y0038035D01*
X0053977Y0038045D01*
X0054115Y0038051D01*
X0054252Y0038053D01*
X0054389Y0038051D01*
X0054527Y0038045D01*
X0054664Y0038035D01*
X0054800Y0038021D01*
X0054937Y0038003D01*
X0055072Y0037981D01*
X0055207Y0037955D01*
X0055341Y0037926D01*
X0055475Y0037892D01*
X0055607Y0037855D01*
X0055738Y0037813D01*
X0055868Y0037768D01*
X0055996Y0037719D01*
X0056123Y0037667D01*
X0056248Y0037610D01*
X0056372Y0037551D01*
X0056494Y0037487D01*
X0056614Y0037420D01*
X0056732Y0037350D01*
X0056848Y0037276D01*
X0056962Y0037199D01*
X0057073Y0037118D01*
X0057182Y0037035D01*
X0057289Y0036948D01*
X0057392Y0036858D01*
X0057494Y0036765D01*
X0057592Y0036669D01*
X0057688Y0036571D01*
X0057781Y0036469D01*
X0057871Y0036366D01*
X0057958Y0036259D01*
X0058041Y0036150D01*
X0058122Y0036039D01*
X0058199Y0035925D01*
X0058273Y0035809D01*
X0058343Y0035691D01*
X0058410Y0035571D01*
X0058474Y0035449D01*
X0058533Y0035325D01*
X0058590Y0035200D01*
X0058642Y0035073D01*
X0058691Y0034945D01*
X0058736Y0034815D01*
X0058778Y0034684D01*
X0058815Y0034552D01*
X0058849Y0034418D01*
X0058878Y0034284D01*
X0058904Y0034149D01*
X0058926Y0034014D01*
X0058944Y0033877D01*
X0058958Y0033741D01*
X0058968Y0033604D01*
X0058974Y0033466D01*
X0058976Y0033329D01*
X0058974Y0033192D01*
X0058968Y0033054D01*
X0058958Y0032917D01*
X0058944Y0032781D01*
X0058926Y0032644D01*
X0058904Y0032509D01*
X0058878Y0032374D01*
X0058849Y0032240D01*
X0058815Y0032106D01*
X0058778Y0031974D01*
X0058736Y0031843D01*
X0058691Y0031713D01*
X0058642Y0031585D01*
X0058590Y0031458D01*
X0058533Y0031333D01*
X0058474Y0031209D01*
X0058410Y0031087D01*
X0058343Y0030967D01*
X0058273Y0030849D01*
X0058199Y0030733D01*
X0058122Y0030619D01*
X0058041Y0030508D01*
X0057958Y0030399D01*
X0057871Y0030292D01*
X0057781Y0030189D01*
X0057688Y0030087D01*
X0057592Y0029989D01*
X0057494Y0029893D01*
X0057392Y0029800D01*
X0057289Y0029710D01*
X0057182Y0029623D01*
X0057073Y0029540D01*
X0056962Y0029459D01*
X0056848Y0029382D01*
X0056732Y0029308D01*
X0056614Y0029238D01*
X0056494Y0029171D01*
X0056372Y0029107D01*
X0056248Y0029048D01*
X0056123Y0028991D01*
X0055996Y0028939D01*
X0055868Y0028890D01*
X0055738Y0028845D01*
X0055607Y0028803D01*
X0055475Y0028766D01*
X0055341Y0028732D01*
X0055207Y0028703D01*
X0055072Y0028677D01*
X0054937Y0028655D01*
X0054800Y0028637D01*
X0054664Y0028623D01*
X0054527Y0028613D01*
X0054389Y0028607D01*
X0054252Y0028605D01*
X0054115Y0028607D01*
X0053977Y0028613D01*
X0053840Y0028623D01*
X0053704Y0028637D01*
X0053567Y0028655D01*
X0053432Y0028677D01*
X0053297Y0028703D01*
X0053163Y0028732D01*
X0053029Y0028766D01*
X0052897Y0028803D01*
X0052766Y0028845D01*
X0052636Y0028890D01*
X0052508Y0028939D01*
X0052381Y0028991D01*
X0052256Y0029048D01*
X0052132Y0029107D01*
X0052010Y0029171D01*
X0051890Y0029238D01*
X0051772Y0029308D01*
X0051656Y0029382D01*
X0051542Y0029459D01*
X0051431Y0029540D01*
X0051322Y0029623D01*
X0051215Y0029710D01*
X0051112Y0029800D01*
X0051010Y0029893D01*
X0050912Y0029989D01*
X0050816Y0030087D01*
X0050723Y0030189D01*
X0050633Y0030292D01*
X0050546Y0030399D01*
X0050463Y0030508D01*
X0050382Y0030619D01*
X0050305Y0030733D01*
X0050231Y0030849D01*
X0050161Y0030967D01*
X0050094Y0031087D01*
X0050030Y0031209D01*
X0049971Y0031333D01*
X0049914Y0031458D01*
X0049862Y0031585D01*
X0049813Y0031713D01*
X0049768Y0031843D01*
X0049726Y0031974D01*
X0049689Y0032106D01*
X0049655Y0032240D01*
X0049626Y0032374D01*
X0049600Y0032509D01*
X0049578Y0032644D01*
X0049560Y0032781D01*
X0049546Y0032917D01*
X0049536Y0033054D01*
X0049530Y0033192D01*
X0049528Y0033329D01*
X0074528Y0033329D02*
X0074530Y0033466D01*
X0074536Y0033604D01*
X0074546Y0033741D01*
X0074560Y0033877D01*
X0074578Y0034014D01*
X0074600Y0034149D01*
X0074626Y0034284D01*
X0074655Y0034418D01*
X0074689Y0034552D01*
X0074726Y0034684D01*
X0074768Y0034815D01*
X0074813Y0034945D01*
X0074862Y0035073D01*
X0074914Y0035200D01*
X0074971Y0035325D01*
X0075030Y0035449D01*
X0075094Y0035571D01*
X0075161Y0035691D01*
X0075231Y0035809D01*
X0075305Y0035925D01*
X0075382Y0036039D01*
X0075463Y0036150D01*
X0075546Y0036259D01*
X0075633Y0036366D01*
X0075723Y0036469D01*
X0075816Y0036571D01*
X0075912Y0036669D01*
X0076010Y0036765D01*
X0076112Y0036858D01*
X0076215Y0036948D01*
X0076322Y0037035D01*
X0076431Y0037118D01*
X0076542Y0037199D01*
X0076656Y0037276D01*
X0076772Y0037350D01*
X0076890Y0037420D01*
X0077010Y0037487D01*
X0077132Y0037551D01*
X0077256Y0037610D01*
X0077381Y0037667D01*
X0077508Y0037719D01*
X0077636Y0037768D01*
X0077766Y0037813D01*
X0077897Y0037855D01*
X0078029Y0037892D01*
X0078163Y0037926D01*
X0078297Y0037955D01*
X0078432Y0037981D01*
X0078567Y0038003D01*
X0078704Y0038021D01*
X0078840Y0038035D01*
X0078977Y0038045D01*
X0079115Y0038051D01*
X0079252Y0038053D01*
X0079389Y0038051D01*
X0079527Y0038045D01*
X0079664Y0038035D01*
X0079800Y0038021D01*
X0079937Y0038003D01*
X0080072Y0037981D01*
X0080207Y0037955D01*
X0080341Y0037926D01*
X0080475Y0037892D01*
X0080607Y0037855D01*
X0080738Y0037813D01*
X0080868Y0037768D01*
X0080996Y0037719D01*
X0081123Y0037667D01*
X0081248Y0037610D01*
X0081372Y0037551D01*
X0081494Y0037487D01*
X0081614Y0037420D01*
X0081732Y0037350D01*
X0081848Y0037276D01*
X0081962Y0037199D01*
X0082073Y0037118D01*
X0082182Y0037035D01*
X0082289Y0036948D01*
X0082392Y0036858D01*
X0082494Y0036765D01*
X0082592Y0036669D01*
X0082688Y0036571D01*
X0082781Y0036469D01*
X0082871Y0036366D01*
X0082958Y0036259D01*
X0083041Y0036150D01*
X0083122Y0036039D01*
X0083199Y0035925D01*
X0083273Y0035809D01*
X0083343Y0035691D01*
X0083410Y0035571D01*
X0083474Y0035449D01*
X0083533Y0035325D01*
X0083590Y0035200D01*
X0083642Y0035073D01*
X0083691Y0034945D01*
X0083736Y0034815D01*
X0083778Y0034684D01*
X0083815Y0034552D01*
X0083849Y0034418D01*
X0083878Y0034284D01*
X0083904Y0034149D01*
X0083926Y0034014D01*
X0083944Y0033877D01*
X0083958Y0033741D01*
X0083968Y0033604D01*
X0083974Y0033466D01*
X0083976Y0033329D01*
X0083974Y0033192D01*
X0083968Y0033054D01*
X0083958Y0032917D01*
X0083944Y0032781D01*
X0083926Y0032644D01*
X0083904Y0032509D01*
X0083878Y0032374D01*
X0083849Y0032240D01*
X0083815Y0032106D01*
X0083778Y0031974D01*
X0083736Y0031843D01*
X0083691Y0031713D01*
X0083642Y0031585D01*
X0083590Y0031458D01*
X0083533Y0031333D01*
X0083474Y0031209D01*
X0083410Y0031087D01*
X0083343Y0030967D01*
X0083273Y0030849D01*
X0083199Y0030733D01*
X0083122Y0030619D01*
X0083041Y0030508D01*
X0082958Y0030399D01*
X0082871Y0030292D01*
X0082781Y0030189D01*
X0082688Y0030087D01*
X0082592Y0029989D01*
X0082494Y0029893D01*
X0082392Y0029800D01*
X0082289Y0029710D01*
X0082182Y0029623D01*
X0082073Y0029540D01*
X0081962Y0029459D01*
X0081848Y0029382D01*
X0081732Y0029308D01*
X0081614Y0029238D01*
X0081494Y0029171D01*
X0081372Y0029107D01*
X0081248Y0029048D01*
X0081123Y0028991D01*
X0080996Y0028939D01*
X0080868Y0028890D01*
X0080738Y0028845D01*
X0080607Y0028803D01*
X0080475Y0028766D01*
X0080341Y0028732D01*
X0080207Y0028703D01*
X0080072Y0028677D01*
X0079937Y0028655D01*
X0079800Y0028637D01*
X0079664Y0028623D01*
X0079527Y0028613D01*
X0079389Y0028607D01*
X0079252Y0028605D01*
X0079115Y0028607D01*
X0078977Y0028613D01*
X0078840Y0028623D01*
X0078704Y0028637D01*
X0078567Y0028655D01*
X0078432Y0028677D01*
X0078297Y0028703D01*
X0078163Y0028732D01*
X0078029Y0028766D01*
X0077897Y0028803D01*
X0077766Y0028845D01*
X0077636Y0028890D01*
X0077508Y0028939D01*
X0077381Y0028991D01*
X0077256Y0029048D01*
X0077132Y0029107D01*
X0077010Y0029171D01*
X0076890Y0029238D01*
X0076772Y0029308D01*
X0076656Y0029382D01*
X0076542Y0029459D01*
X0076431Y0029540D01*
X0076322Y0029623D01*
X0076215Y0029710D01*
X0076112Y0029800D01*
X0076010Y0029893D01*
X0075912Y0029989D01*
X0075816Y0030087D01*
X0075723Y0030189D01*
X0075633Y0030292D01*
X0075546Y0030399D01*
X0075463Y0030508D01*
X0075382Y0030619D01*
X0075305Y0030733D01*
X0075231Y0030849D01*
X0075161Y0030967D01*
X0075094Y0031087D01*
X0075030Y0031209D01*
X0074971Y0031333D01*
X0074914Y0031458D01*
X0074862Y0031585D01*
X0074813Y0031713D01*
X0074768Y0031843D01*
X0074726Y0031974D01*
X0074689Y0032106D01*
X0074655Y0032240D01*
X0074626Y0032374D01*
X0074600Y0032509D01*
X0074578Y0032644D01*
X0074560Y0032781D01*
X0074546Y0032917D01*
X0074536Y0033054D01*
X0074530Y0033192D01*
X0074528Y0033329D01*
X0115352Y0043703D02*
X0115354Y0043863D01*
X0115360Y0044022D01*
X0115370Y0044181D01*
X0115384Y0044340D01*
X0115402Y0044499D01*
X0115423Y0044657D01*
X0115449Y0044814D01*
X0115479Y0044971D01*
X0115512Y0045127D01*
X0115550Y0045282D01*
X0115591Y0045436D01*
X0115636Y0045589D01*
X0115685Y0045741D01*
X0115738Y0045892D01*
X0115794Y0046041D01*
X0115855Y0046189D01*
X0115918Y0046335D01*
X0115986Y0046480D01*
X0116057Y0046623D01*
X0116131Y0046764D01*
X0116209Y0046903D01*
X0116291Y0047040D01*
X0116376Y0047175D01*
X0116464Y0047308D01*
X0116556Y0047439D01*
X0116650Y0047567D01*
X0116748Y0047693D01*
X0116849Y0047817D01*
X0116953Y0047938D01*
X0117060Y0048056D01*
X0117170Y0048172D01*
X0117283Y0048285D01*
X0117399Y0048395D01*
X0117517Y0048502D01*
X0117638Y0048606D01*
X0117762Y0048707D01*
X0117888Y0048805D01*
X0118016Y0048899D01*
X0118147Y0048991D01*
X0118280Y0049079D01*
X0118415Y0049164D01*
X0118552Y0049246D01*
X0118691Y0049324D01*
X0118832Y0049398D01*
X0118975Y0049469D01*
X0119120Y0049537D01*
X0119266Y0049600D01*
X0119414Y0049661D01*
X0119563Y0049717D01*
X0119714Y0049770D01*
X0119866Y0049819D01*
X0120019Y0049864D01*
X0120173Y0049905D01*
X0120328Y0049943D01*
X0120484Y0049976D01*
X0120641Y0050006D01*
X0120798Y0050032D01*
X0120956Y0050053D01*
X0121115Y0050071D01*
X0121274Y0050085D01*
X0121433Y0050095D01*
X0121592Y0050101D01*
X0121752Y0050103D01*
X0121912Y0050101D01*
X0122071Y0050095D01*
X0122230Y0050085D01*
X0122389Y0050071D01*
X0122548Y0050053D01*
X0122706Y0050032D01*
X0122863Y0050006D01*
X0123020Y0049976D01*
X0123176Y0049943D01*
X0123331Y0049905D01*
X0123485Y0049864D01*
X0123638Y0049819D01*
X0123790Y0049770D01*
X0123941Y0049717D01*
X0124090Y0049661D01*
X0124238Y0049600D01*
X0124384Y0049537D01*
X0124529Y0049469D01*
X0124672Y0049398D01*
X0124813Y0049324D01*
X0124952Y0049246D01*
X0125089Y0049164D01*
X0125224Y0049079D01*
X0125357Y0048991D01*
X0125488Y0048899D01*
X0125616Y0048805D01*
X0125742Y0048707D01*
X0125866Y0048606D01*
X0125987Y0048502D01*
X0126105Y0048395D01*
X0126221Y0048285D01*
X0126334Y0048172D01*
X0126444Y0048056D01*
X0126551Y0047938D01*
X0126655Y0047817D01*
X0126756Y0047693D01*
X0126854Y0047567D01*
X0126948Y0047439D01*
X0127040Y0047308D01*
X0127128Y0047175D01*
X0127213Y0047040D01*
X0127295Y0046903D01*
X0127373Y0046764D01*
X0127447Y0046623D01*
X0127518Y0046480D01*
X0127586Y0046335D01*
X0127649Y0046189D01*
X0127710Y0046041D01*
X0127766Y0045892D01*
X0127819Y0045741D01*
X0127868Y0045589D01*
X0127913Y0045436D01*
X0127954Y0045282D01*
X0127992Y0045127D01*
X0128025Y0044971D01*
X0128055Y0044814D01*
X0128081Y0044657D01*
X0128102Y0044499D01*
X0128120Y0044340D01*
X0128134Y0044181D01*
X0128144Y0044022D01*
X0128150Y0043863D01*
X0128152Y0043703D01*
X0128150Y0043543D01*
X0128144Y0043384D01*
X0128134Y0043225D01*
X0128120Y0043066D01*
X0128102Y0042907D01*
X0128081Y0042749D01*
X0128055Y0042592D01*
X0128025Y0042435D01*
X0127992Y0042279D01*
X0127954Y0042124D01*
X0127913Y0041970D01*
X0127868Y0041817D01*
X0127819Y0041665D01*
X0127766Y0041514D01*
X0127710Y0041365D01*
X0127649Y0041217D01*
X0127586Y0041071D01*
X0127518Y0040926D01*
X0127447Y0040783D01*
X0127373Y0040642D01*
X0127295Y0040503D01*
X0127213Y0040366D01*
X0127128Y0040231D01*
X0127040Y0040098D01*
X0126948Y0039967D01*
X0126854Y0039839D01*
X0126756Y0039713D01*
X0126655Y0039589D01*
X0126551Y0039468D01*
X0126444Y0039350D01*
X0126334Y0039234D01*
X0126221Y0039121D01*
X0126105Y0039011D01*
X0125987Y0038904D01*
X0125866Y0038800D01*
X0125742Y0038699D01*
X0125616Y0038601D01*
X0125488Y0038507D01*
X0125357Y0038415D01*
X0125224Y0038327D01*
X0125089Y0038242D01*
X0124952Y0038160D01*
X0124813Y0038082D01*
X0124672Y0038008D01*
X0124529Y0037937D01*
X0124384Y0037869D01*
X0124238Y0037806D01*
X0124090Y0037745D01*
X0123941Y0037689D01*
X0123790Y0037636D01*
X0123638Y0037587D01*
X0123485Y0037542D01*
X0123331Y0037501D01*
X0123176Y0037463D01*
X0123020Y0037430D01*
X0122863Y0037400D01*
X0122706Y0037374D01*
X0122548Y0037353D01*
X0122389Y0037335D01*
X0122230Y0037321D01*
X0122071Y0037311D01*
X0121912Y0037305D01*
X0121752Y0037303D01*
X0121592Y0037305D01*
X0121433Y0037311D01*
X0121274Y0037321D01*
X0121115Y0037335D01*
X0120956Y0037353D01*
X0120798Y0037374D01*
X0120641Y0037400D01*
X0120484Y0037430D01*
X0120328Y0037463D01*
X0120173Y0037501D01*
X0120019Y0037542D01*
X0119866Y0037587D01*
X0119714Y0037636D01*
X0119563Y0037689D01*
X0119414Y0037745D01*
X0119266Y0037806D01*
X0119120Y0037869D01*
X0118975Y0037937D01*
X0118832Y0038008D01*
X0118691Y0038082D01*
X0118552Y0038160D01*
X0118415Y0038242D01*
X0118280Y0038327D01*
X0118147Y0038415D01*
X0118016Y0038507D01*
X0117888Y0038601D01*
X0117762Y0038699D01*
X0117638Y0038800D01*
X0117517Y0038904D01*
X0117399Y0039011D01*
X0117283Y0039121D01*
X0117170Y0039234D01*
X0117060Y0039350D01*
X0116953Y0039468D01*
X0116849Y0039589D01*
X0116748Y0039713D01*
X0116650Y0039839D01*
X0116556Y0039967D01*
X0116464Y0040098D01*
X0116376Y0040231D01*
X0116291Y0040366D01*
X0116209Y0040503D01*
X0116131Y0040642D01*
X0116057Y0040783D01*
X0115986Y0040926D01*
X0115918Y0041071D01*
X0115855Y0041217D01*
X0115794Y0041365D01*
X0115738Y0041514D01*
X0115685Y0041665D01*
X0115636Y0041817D01*
X0115591Y0041970D01*
X0115550Y0042124D01*
X0115512Y0042279D01*
X0115479Y0042435D01*
X0115449Y0042592D01*
X0115423Y0042749D01*
X0115402Y0042907D01*
X0115384Y0043066D01*
X0115370Y0043225D01*
X0115360Y0043384D01*
X0115354Y0043543D01*
X0115352Y0043703D01*
X0074528Y0086478D02*
X0074530Y0086615D01*
X0074536Y0086753D01*
X0074546Y0086890D01*
X0074560Y0087026D01*
X0074578Y0087163D01*
X0074600Y0087298D01*
X0074626Y0087433D01*
X0074655Y0087567D01*
X0074689Y0087701D01*
X0074726Y0087833D01*
X0074768Y0087964D01*
X0074813Y0088094D01*
X0074862Y0088222D01*
X0074914Y0088349D01*
X0074971Y0088474D01*
X0075030Y0088598D01*
X0075094Y0088720D01*
X0075161Y0088840D01*
X0075231Y0088958D01*
X0075305Y0089074D01*
X0075382Y0089188D01*
X0075463Y0089299D01*
X0075546Y0089408D01*
X0075633Y0089515D01*
X0075723Y0089618D01*
X0075816Y0089720D01*
X0075912Y0089818D01*
X0076010Y0089914D01*
X0076112Y0090007D01*
X0076215Y0090097D01*
X0076322Y0090184D01*
X0076431Y0090267D01*
X0076542Y0090348D01*
X0076656Y0090425D01*
X0076772Y0090499D01*
X0076890Y0090569D01*
X0077010Y0090636D01*
X0077132Y0090700D01*
X0077256Y0090759D01*
X0077381Y0090816D01*
X0077508Y0090868D01*
X0077636Y0090917D01*
X0077766Y0090962D01*
X0077897Y0091004D01*
X0078029Y0091041D01*
X0078163Y0091075D01*
X0078297Y0091104D01*
X0078432Y0091130D01*
X0078567Y0091152D01*
X0078704Y0091170D01*
X0078840Y0091184D01*
X0078977Y0091194D01*
X0079115Y0091200D01*
X0079252Y0091202D01*
X0079389Y0091200D01*
X0079527Y0091194D01*
X0079664Y0091184D01*
X0079800Y0091170D01*
X0079937Y0091152D01*
X0080072Y0091130D01*
X0080207Y0091104D01*
X0080341Y0091075D01*
X0080475Y0091041D01*
X0080607Y0091004D01*
X0080738Y0090962D01*
X0080868Y0090917D01*
X0080996Y0090868D01*
X0081123Y0090816D01*
X0081248Y0090759D01*
X0081372Y0090700D01*
X0081494Y0090636D01*
X0081614Y0090569D01*
X0081732Y0090499D01*
X0081848Y0090425D01*
X0081962Y0090348D01*
X0082073Y0090267D01*
X0082182Y0090184D01*
X0082289Y0090097D01*
X0082392Y0090007D01*
X0082494Y0089914D01*
X0082592Y0089818D01*
X0082688Y0089720D01*
X0082781Y0089618D01*
X0082871Y0089515D01*
X0082958Y0089408D01*
X0083041Y0089299D01*
X0083122Y0089188D01*
X0083199Y0089074D01*
X0083273Y0088958D01*
X0083343Y0088840D01*
X0083410Y0088720D01*
X0083474Y0088598D01*
X0083533Y0088474D01*
X0083590Y0088349D01*
X0083642Y0088222D01*
X0083691Y0088094D01*
X0083736Y0087964D01*
X0083778Y0087833D01*
X0083815Y0087701D01*
X0083849Y0087567D01*
X0083878Y0087433D01*
X0083904Y0087298D01*
X0083926Y0087163D01*
X0083944Y0087026D01*
X0083958Y0086890D01*
X0083968Y0086753D01*
X0083974Y0086615D01*
X0083976Y0086478D01*
X0083974Y0086341D01*
X0083968Y0086203D01*
X0083958Y0086066D01*
X0083944Y0085930D01*
X0083926Y0085793D01*
X0083904Y0085658D01*
X0083878Y0085523D01*
X0083849Y0085389D01*
X0083815Y0085255D01*
X0083778Y0085123D01*
X0083736Y0084992D01*
X0083691Y0084862D01*
X0083642Y0084734D01*
X0083590Y0084607D01*
X0083533Y0084482D01*
X0083474Y0084358D01*
X0083410Y0084236D01*
X0083343Y0084116D01*
X0083273Y0083998D01*
X0083199Y0083882D01*
X0083122Y0083768D01*
X0083041Y0083657D01*
X0082958Y0083548D01*
X0082871Y0083441D01*
X0082781Y0083338D01*
X0082688Y0083236D01*
X0082592Y0083138D01*
X0082494Y0083042D01*
X0082392Y0082949D01*
X0082289Y0082859D01*
X0082182Y0082772D01*
X0082073Y0082689D01*
X0081962Y0082608D01*
X0081848Y0082531D01*
X0081732Y0082457D01*
X0081614Y0082387D01*
X0081494Y0082320D01*
X0081372Y0082256D01*
X0081248Y0082197D01*
X0081123Y0082140D01*
X0080996Y0082088D01*
X0080868Y0082039D01*
X0080738Y0081994D01*
X0080607Y0081952D01*
X0080475Y0081915D01*
X0080341Y0081881D01*
X0080207Y0081852D01*
X0080072Y0081826D01*
X0079937Y0081804D01*
X0079800Y0081786D01*
X0079664Y0081772D01*
X0079527Y0081762D01*
X0079389Y0081756D01*
X0079252Y0081754D01*
X0079115Y0081756D01*
X0078977Y0081762D01*
X0078840Y0081772D01*
X0078704Y0081786D01*
X0078567Y0081804D01*
X0078432Y0081826D01*
X0078297Y0081852D01*
X0078163Y0081881D01*
X0078029Y0081915D01*
X0077897Y0081952D01*
X0077766Y0081994D01*
X0077636Y0082039D01*
X0077508Y0082088D01*
X0077381Y0082140D01*
X0077256Y0082197D01*
X0077132Y0082256D01*
X0077010Y0082320D01*
X0076890Y0082387D01*
X0076772Y0082457D01*
X0076656Y0082531D01*
X0076542Y0082608D01*
X0076431Y0082689D01*
X0076322Y0082772D01*
X0076215Y0082859D01*
X0076112Y0082949D01*
X0076010Y0083042D01*
X0075912Y0083138D01*
X0075816Y0083236D01*
X0075723Y0083338D01*
X0075633Y0083441D01*
X0075546Y0083548D01*
X0075463Y0083657D01*
X0075382Y0083768D01*
X0075305Y0083882D01*
X0075231Y0083998D01*
X0075161Y0084116D01*
X0075094Y0084236D01*
X0075030Y0084358D01*
X0074971Y0084482D01*
X0074914Y0084607D01*
X0074862Y0084734D01*
X0074813Y0084862D01*
X0074768Y0084992D01*
X0074726Y0085123D01*
X0074689Y0085255D01*
X0074655Y0085389D01*
X0074626Y0085523D01*
X0074600Y0085658D01*
X0074578Y0085793D01*
X0074560Y0085930D01*
X0074546Y0086066D01*
X0074536Y0086203D01*
X0074530Y0086341D01*
X0074528Y0086478D01*
X0049528Y0086478D02*
X0049530Y0086615D01*
X0049536Y0086753D01*
X0049546Y0086890D01*
X0049560Y0087026D01*
X0049578Y0087163D01*
X0049600Y0087298D01*
X0049626Y0087433D01*
X0049655Y0087567D01*
X0049689Y0087701D01*
X0049726Y0087833D01*
X0049768Y0087964D01*
X0049813Y0088094D01*
X0049862Y0088222D01*
X0049914Y0088349D01*
X0049971Y0088474D01*
X0050030Y0088598D01*
X0050094Y0088720D01*
X0050161Y0088840D01*
X0050231Y0088958D01*
X0050305Y0089074D01*
X0050382Y0089188D01*
X0050463Y0089299D01*
X0050546Y0089408D01*
X0050633Y0089515D01*
X0050723Y0089618D01*
X0050816Y0089720D01*
X0050912Y0089818D01*
X0051010Y0089914D01*
X0051112Y0090007D01*
X0051215Y0090097D01*
X0051322Y0090184D01*
X0051431Y0090267D01*
X0051542Y0090348D01*
X0051656Y0090425D01*
X0051772Y0090499D01*
X0051890Y0090569D01*
X0052010Y0090636D01*
X0052132Y0090700D01*
X0052256Y0090759D01*
X0052381Y0090816D01*
X0052508Y0090868D01*
X0052636Y0090917D01*
X0052766Y0090962D01*
X0052897Y0091004D01*
X0053029Y0091041D01*
X0053163Y0091075D01*
X0053297Y0091104D01*
X0053432Y0091130D01*
X0053567Y0091152D01*
X0053704Y0091170D01*
X0053840Y0091184D01*
X0053977Y0091194D01*
X0054115Y0091200D01*
X0054252Y0091202D01*
X0054389Y0091200D01*
X0054527Y0091194D01*
X0054664Y0091184D01*
X0054800Y0091170D01*
X0054937Y0091152D01*
X0055072Y0091130D01*
X0055207Y0091104D01*
X0055341Y0091075D01*
X0055475Y0091041D01*
X0055607Y0091004D01*
X0055738Y0090962D01*
X0055868Y0090917D01*
X0055996Y0090868D01*
X0056123Y0090816D01*
X0056248Y0090759D01*
X0056372Y0090700D01*
X0056494Y0090636D01*
X0056614Y0090569D01*
X0056732Y0090499D01*
X0056848Y0090425D01*
X0056962Y0090348D01*
X0057073Y0090267D01*
X0057182Y0090184D01*
X0057289Y0090097D01*
X0057392Y0090007D01*
X0057494Y0089914D01*
X0057592Y0089818D01*
X0057688Y0089720D01*
X0057781Y0089618D01*
X0057871Y0089515D01*
X0057958Y0089408D01*
X0058041Y0089299D01*
X0058122Y0089188D01*
X0058199Y0089074D01*
X0058273Y0088958D01*
X0058343Y0088840D01*
X0058410Y0088720D01*
X0058474Y0088598D01*
X0058533Y0088474D01*
X0058590Y0088349D01*
X0058642Y0088222D01*
X0058691Y0088094D01*
X0058736Y0087964D01*
X0058778Y0087833D01*
X0058815Y0087701D01*
X0058849Y0087567D01*
X0058878Y0087433D01*
X0058904Y0087298D01*
X0058926Y0087163D01*
X0058944Y0087026D01*
X0058958Y0086890D01*
X0058968Y0086753D01*
X0058974Y0086615D01*
X0058976Y0086478D01*
X0058974Y0086341D01*
X0058968Y0086203D01*
X0058958Y0086066D01*
X0058944Y0085930D01*
X0058926Y0085793D01*
X0058904Y0085658D01*
X0058878Y0085523D01*
X0058849Y0085389D01*
X0058815Y0085255D01*
X0058778Y0085123D01*
X0058736Y0084992D01*
X0058691Y0084862D01*
X0058642Y0084734D01*
X0058590Y0084607D01*
X0058533Y0084482D01*
X0058474Y0084358D01*
X0058410Y0084236D01*
X0058343Y0084116D01*
X0058273Y0083998D01*
X0058199Y0083882D01*
X0058122Y0083768D01*
X0058041Y0083657D01*
X0057958Y0083548D01*
X0057871Y0083441D01*
X0057781Y0083338D01*
X0057688Y0083236D01*
X0057592Y0083138D01*
X0057494Y0083042D01*
X0057392Y0082949D01*
X0057289Y0082859D01*
X0057182Y0082772D01*
X0057073Y0082689D01*
X0056962Y0082608D01*
X0056848Y0082531D01*
X0056732Y0082457D01*
X0056614Y0082387D01*
X0056494Y0082320D01*
X0056372Y0082256D01*
X0056248Y0082197D01*
X0056123Y0082140D01*
X0055996Y0082088D01*
X0055868Y0082039D01*
X0055738Y0081994D01*
X0055607Y0081952D01*
X0055475Y0081915D01*
X0055341Y0081881D01*
X0055207Y0081852D01*
X0055072Y0081826D01*
X0054937Y0081804D01*
X0054800Y0081786D01*
X0054664Y0081772D01*
X0054527Y0081762D01*
X0054389Y0081756D01*
X0054252Y0081754D01*
X0054115Y0081756D01*
X0053977Y0081762D01*
X0053840Y0081772D01*
X0053704Y0081786D01*
X0053567Y0081804D01*
X0053432Y0081826D01*
X0053297Y0081852D01*
X0053163Y0081881D01*
X0053029Y0081915D01*
X0052897Y0081952D01*
X0052766Y0081994D01*
X0052636Y0082039D01*
X0052508Y0082088D01*
X0052381Y0082140D01*
X0052256Y0082197D01*
X0052132Y0082256D01*
X0052010Y0082320D01*
X0051890Y0082387D01*
X0051772Y0082457D01*
X0051656Y0082531D01*
X0051542Y0082608D01*
X0051431Y0082689D01*
X0051322Y0082772D01*
X0051215Y0082859D01*
X0051112Y0082949D01*
X0051010Y0083042D01*
X0050912Y0083138D01*
X0050816Y0083236D01*
X0050723Y0083338D01*
X0050633Y0083441D01*
X0050546Y0083548D01*
X0050463Y0083657D01*
X0050382Y0083768D01*
X0050305Y0083882D01*
X0050231Y0083998D01*
X0050161Y0084116D01*
X0050094Y0084236D01*
X0050030Y0084358D01*
X0049971Y0084482D01*
X0049914Y0084607D01*
X0049862Y0084734D01*
X0049813Y0084862D01*
X0049768Y0084992D01*
X0049726Y0085123D01*
X0049689Y0085255D01*
X0049655Y0085389D01*
X0049626Y0085523D01*
X0049600Y0085658D01*
X0049578Y0085793D01*
X0049560Y0085930D01*
X0049546Y0086066D01*
X0049536Y0086203D01*
X0049530Y0086341D01*
X0049528Y0086478D01*
X0215352Y0043703D02*
X0215354Y0043863D01*
X0215360Y0044022D01*
X0215370Y0044181D01*
X0215384Y0044340D01*
X0215402Y0044499D01*
X0215423Y0044657D01*
X0215449Y0044814D01*
X0215479Y0044971D01*
X0215512Y0045127D01*
X0215550Y0045282D01*
X0215591Y0045436D01*
X0215636Y0045589D01*
X0215685Y0045741D01*
X0215738Y0045892D01*
X0215794Y0046041D01*
X0215855Y0046189D01*
X0215918Y0046335D01*
X0215986Y0046480D01*
X0216057Y0046623D01*
X0216131Y0046764D01*
X0216209Y0046903D01*
X0216291Y0047040D01*
X0216376Y0047175D01*
X0216464Y0047308D01*
X0216556Y0047439D01*
X0216650Y0047567D01*
X0216748Y0047693D01*
X0216849Y0047817D01*
X0216953Y0047938D01*
X0217060Y0048056D01*
X0217170Y0048172D01*
X0217283Y0048285D01*
X0217399Y0048395D01*
X0217517Y0048502D01*
X0217638Y0048606D01*
X0217762Y0048707D01*
X0217888Y0048805D01*
X0218016Y0048899D01*
X0218147Y0048991D01*
X0218280Y0049079D01*
X0218415Y0049164D01*
X0218552Y0049246D01*
X0218691Y0049324D01*
X0218832Y0049398D01*
X0218975Y0049469D01*
X0219120Y0049537D01*
X0219266Y0049600D01*
X0219414Y0049661D01*
X0219563Y0049717D01*
X0219714Y0049770D01*
X0219866Y0049819D01*
X0220019Y0049864D01*
X0220173Y0049905D01*
X0220328Y0049943D01*
X0220484Y0049976D01*
X0220641Y0050006D01*
X0220798Y0050032D01*
X0220956Y0050053D01*
X0221115Y0050071D01*
X0221274Y0050085D01*
X0221433Y0050095D01*
X0221592Y0050101D01*
X0221752Y0050103D01*
X0221912Y0050101D01*
X0222071Y0050095D01*
X0222230Y0050085D01*
X0222389Y0050071D01*
X0222548Y0050053D01*
X0222706Y0050032D01*
X0222863Y0050006D01*
X0223020Y0049976D01*
X0223176Y0049943D01*
X0223331Y0049905D01*
X0223485Y0049864D01*
X0223638Y0049819D01*
X0223790Y0049770D01*
X0223941Y0049717D01*
X0224090Y0049661D01*
X0224238Y0049600D01*
X0224384Y0049537D01*
X0224529Y0049469D01*
X0224672Y0049398D01*
X0224813Y0049324D01*
X0224952Y0049246D01*
X0225089Y0049164D01*
X0225224Y0049079D01*
X0225357Y0048991D01*
X0225488Y0048899D01*
X0225616Y0048805D01*
X0225742Y0048707D01*
X0225866Y0048606D01*
X0225987Y0048502D01*
X0226105Y0048395D01*
X0226221Y0048285D01*
X0226334Y0048172D01*
X0226444Y0048056D01*
X0226551Y0047938D01*
X0226655Y0047817D01*
X0226756Y0047693D01*
X0226854Y0047567D01*
X0226948Y0047439D01*
X0227040Y0047308D01*
X0227128Y0047175D01*
X0227213Y0047040D01*
X0227295Y0046903D01*
X0227373Y0046764D01*
X0227447Y0046623D01*
X0227518Y0046480D01*
X0227586Y0046335D01*
X0227649Y0046189D01*
X0227710Y0046041D01*
X0227766Y0045892D01*
X0227819Y0045741D01*
X0227868Y0045589D01*
X0227913Y0045436D01*
X0227954Y0045282D01*
X0227992Y0045127D01*
X0228025Y0044971D01*
X0228055Y0044814D01*
X0228081Y0044657D01*
X0228102Y0044499D01*
X0228120Y0044340D01*
X0228134Y0044181D01*
X0228144Y0044022D01*
X0228150Y0043863D01*
X0228152Y0043703D01*
X0228150Y0043543D01*
X0228144Y0043384D01*
X0228134Y0043225D01*
X0228120Y0043066D01*
X0228102Y0042907D01*
X0228081Y0042749D01*
X0228055Y0042592D01*
X0228025Y0042435D01*
X0227992Y0042279D01*
X0227954Y0042124D01*
X0227913Y0041970D01*
X0227868Y0041817D01*
X0227819Y0041665D01*
X0227766Y0041514D01*
X0227710Y0041365D01*
X0227649Y0041217D01*
X0227586Y0041071D01*
X0227518Y0040926D01*
X0227447Y0040783D01*
X0227373Y0040642D01*
X0227295Y0040503D01*
X0227213Y0040366D01*
X0227128Y0040231D01*
X0227040Y0040098D01*
X0226948Y0039967D01*
X0226854Y0039839D01*
X0226756Y0039713D01*
X0226655Y0039589D01*
X0226551Y0039468D01*
X0226444Y0039350D01*
X0226334Y0039234D01*
X0226221Y0039121D01*
X0226105Y0039011D01*
X0225987Y0038904D01*
X0225866Y0038800D01*
X0225742Y0038699D01*
X0225616Y0038601D01*
X0225488Y0038507D01*
X0225357Y0038415D01*
X0225224Y0038327D01*
X0225089Y0038242D01*
X0224952Y0038160D01*
X0224813Y0038082D01*
X0224672Y0038008D01*
X0224529Y0037937D01*
X0224384Y0037869D01*
X0224238Y0037806D01*
X0224090Y0037745D01*
X0223941Y0037689D01*
X0223790Y0037636D01*
X0223638Y0037587D01*
X0223485Y0037542D01*
X0223331Y0037501D01*
X0223176Y0037463D01*
X0223020Y0037430D01*
X0222863Y0037400D01*
X0222706Y0037374D01*
X0222548Y0037353D01*
X0222389Y0037335D01*
X0222230Y0037321D01*
X0222071Y0037311D01*
X0221912Y0037305D01*
X0221752Y0037303D01*
X0221592Y0037305D01*
X0221433Y0037311D01*
X0221274Y0037321D01*
X0221115Y0037335D01*
X0220956Y0037353D01*
X0220798Y0037374D01*
X0220641Y0037400D01*
X0220484Y0037430D01*
X0220328Y0037463D01*
X0220173Y0037501D01*
X0220019Y0037542D01*
X0219866Y0037587D01*
X0219714Y0037636D01*
X0219563Y0037689D01*
X0219414Y0037745D01*
X0219266Y0037806D01*
X0219120Y0037869D01*
X0218975Y0037937D01*
X0218832Y0038008D01*
X0218691Y0038082D01*
X0218552Y0038160D01*
X0218415Y0038242D01*
X0218280Y0038327D01*
X0218147Y0038415D01*
X0218016Y0038507D01*
X0217888Y0038601D01*
X0217762Y0038699D01*
X0217638Y0038800D01*
X0217517Y0038904D01*
X0217399Y0039011D01*
X0217283Y0039121D01*
X0217170Y0039234D01*
X0217060Y0039350D01*
X0216953Y0039468D01*
X0216849Y0039589D01*
X0216748Y0039713D01*
X0216650Y0039839D01*
X0216556Y0039967D01*
X0216464Y0040098D01*
X0216376Y0040231D01*
X0216291Y0040366D01*
X0216209Y0040503D01*
X0216131Y0040642D01*
X0216057Y0040783D01*
X0215986Y0040926D01*
X0215918Y0041071D01*
X0215855Y0041217D01*
X0215794Y0041365D01*
X0215738Y0041514D01*
X0215685Y0041665D01*
X0215636Y0041817D01*
X0215591Y0041970D01*
X0215550Y0042124D01*
X0215512Y0042279D01*
X0215479Y0042435D01*
X0215449Y0042592D01*
X0215423Y0042749D01*
X0215402Y0042907D01*
X0215384Y0043066D01*
X0215370Y0043225D01*
X0215360Y0043384D01*
X0215354Y0043543D01*
X0215352Y0043703D01*
X0253971Y0052014D02*
X0253973Y0052102D01*
X0253979Y0052190D01*
X0253989Y0052278D01*
X0254003Y0052366D01*
X0254020Y0052452D01*
X0254042Y0052538D01*
X0254067Y0052622D01*
X0254097Y0052706D01*
X0254129Y0052788D01*
X0254166Y0052868D01*
X0254206Y0052947D01*
X0254250Y0053024D01*
X0254297Y0053099D01*
X0254347Y0053171D01*
X0254401Y0053242D01*
X0254457Y0053309D01*
X0254517Y0053375D01*
X0254579Y0053437D01*
X0254645Y0053497D01*
X0254712Y0053553D01*
X0254783Y0053607D01*
X0254855Y0053657D01*
X0254930Y0053704D01*
X0255007Y0053748D01*
X0255086Y0053788D01*
X0255166Y0053825D01*
X0255248Y0053857D01*
X0255332Y0053887D01*
X0255416Y0053912D01*
X0255502Y0053934D01*
X0255588Y0053951D01*
X0255676Y0053965D01*
X0255764Y0053975D01*
X0255852Y0053981D01*
X0255940Y0053983D01*
X0256028Y0053981D01*
X0256116Y0053975D01*
X0256204Y0053965D01*
X0256292Y0053951D01*
X0256378Y0053934D01*
X0256464Y0053912D01*
X0256548Y0053887D01*
X0256632Y0053857D01*
X0256714Y0053825D01*
X0256794Y0053788D01*
X0256873Y0053748D01*
X0256950Y0053704D01*
X0257025Y0053657D01*
X0257097Y0053607D01*
X0257168Y0053553D01*
X0257235Y0053497D01*
X0257301Y0053437D01*
X0257363Y0053375D01*
X0257423Y0053309D01*
X0257479Y0053242D01*
X0257533Y0053171D01*
X0257583Y0053099D01*
X0257630Y0053024D01*
X0257674Y0052947D01*
X0257714Y0052868D01*
X0257751Y0052788D01*
X0257783Y0052706D01*
X0257813Y0052622D01*
X0257838Y0052538D01*
X0257860Y0052452D01*
X0257877Y0052366D01*
X0257891Y0052278D01*
X0257901Y0052190D01*
X0257907Y0052102D01*
X0257909Y0052014D01*
X0257907Y0051926D01*
X0257901Y0051838D01*
X0257891Y0051750D01*
X0257877Y0051662D01*
X0257860Y0051576D01*
X0257838Y0051490D01*
X0257813Y0051406D01*
X0257783Y0051322D01*
X0257751Y0051240D01*
X0257714Y0051160D01*
X0257674Y0051081D01*
X0257630Y0051004D01*
X0257583Y0050929D01*
X0257533Y0050857D01*
X0257479Y0050786D01*
X0257423Y0050719D01*
X0257363Y0050653D01*
X0257301Y0050591D01*
X0257235Y0050531D01*
X0257168Y0050475D01*
X0257097Y0050421D01*
X0257025Y0050371D01*
X0256950Y0050324D01*
X0256873Y0050280D01*
X0256794Y0050240D01*
X0256714Y0050203D01*
X0256632Y0050171D01*
X0256548Y0050141D01*
X0256464Y0050116D01*
X0256378Y0050094D01*
X0256292Y0050077D01*
X0256204Y0050063D01*
X0256116Y0050053D01*
X0256028Y0050047D01*
X0255940Y0050045D01*
X0255852Y0050047D01*
X0255764Y0050053D01*
X0255676Y0050063D01*
X0255588Y0050077D01*
X0255502Y0050094D01*
X0255416Y0050116D01*
X0255332Y0050141D01*
X0255248Y0050171D01*
X0255166Y0050203D01*
X0255086Y0050240D01*
X0255007Y0050280D01*
X0254930Y0050324D01*
X0254855Y0050371D01*
X0254783Y0050421D01*
X0254712Y0050475D01*
X0254645Y0050531D01*
X0254579Y0050591D01*
X0254517Y0050653D01*
X0254457Y0050719D01*
X0254401Y0050786D01*
X0254347Y0050857D01*
X0254297Y0050929D01*
X0254250Y0051004D01*
X0254206Y0051081D01*
X0254166Y0051160D01*
X0254129Y0051240D01*
X0254097Y0051322D01*
X0254067Y0051406D01*
X0254042Y0051490D01*
X0254020Y0051576D01*
X0254003Y0051662D01*
X0253989Y0051750D01*
X0253979Y0051838D01*
X0253973Y0051926D01*
X0253971Y0052014D01*
X0253971Y0028394D02*
X0253973Y0028482D01*
X0253979Y0028570D01*
X0253989Y0028658D01*
X0254003Y0028746D01*
X0254020Y0028832D01*
X0254042Y0028918D01*
X0254067Y0029002D01*
X0254097Y0029086D01*
X0254129Y0029168D01*
X0254166Y0029248D01*
X0254206Y0029327D01*
X0254250Y0029404D01*
X0254297Y0029479D01*
X0254347Y0029551D01*
X0254401Y0029622D01*
X0254457Y0029689D01*
X0254517Y0029755D01*
X0254579Y0029817D01*
X0254645Y0029877D01*
X0254712Y0029933D01*
X0254783Y0029987D01*
X0254855Y0030037D01*
X0254930Y0030084D01*
X0255007Y0030128D01*
X0255086Y0030168D01*
X0255166Y0030205D01*
X0255248Y0030237D01*
X0255332Y0030267D01*
X0255416Y0030292D01*
X0255502Y0030314D01*
X0255588Y0030331D01*
X0255676Y0030345D01*
X0255764Y0030355D01*
X0255852Y0030361D01*
X0255940Y0030363D01*
X0256028Y0030361D01*
X0256116Y0030355D01*
X0256204Y0030345D01*
X0256292Y0030331D01*
X0256378Y0030314D01*
X0256464Y0030292D01*
X0256548Y0030267D01*
X0256632Y0030237D01*
X0256714Y0030205D01*
X0256794Y0030168D01*
X0256873Y0030128D01*
X0256950Y0030084D01*
X0257025Y0030037D01*
X0257097Y0029987D01*
X0257168Y0029933D01*
X0257235Y0029877D01*
X0257301Y0029817D01*
X0257363Y0029755D01*
X0257423Y0029689D01*
X0257479Y0029622D01*
X0257533Y0029551D01*
X0257583Y0029479D01*
X0257630Y0029404D01*
X0257674Y0029327D01*
X0257714Y0029248D01*
X0257751Y0029168D01*
X0257783Y0029086D01*
X0257813Y0029002D01*
X0257838Y0028918D01*
X0257860Y0028832D01*
X0257877Y0028746D01*
X0257891Y0028658D01*
X0257901Y0028570D01*
X0257907Y0028482D01*
X0257909Y0028394D01*
X0257907Y0028306D01*
X0257901Y0028218D01*
X0257891Y0028130D01*
X0257877Y0028042D01*
X0257860Y0027956D01*
X0257838Y0027870D01*
X0257813Y0027786D01*
X0257783Y0027702D01*
X0257751Y0027620D01*
X0257714Y0027540D01*
X0257674Y0027461D01*
X0257630Y0027384D01*
X0257583Y0027309D01*
X0257533Y0027237D01*
X0257479Y0027166D01*
X0257423Y0027099D01*
X0257363Y0027033D01*
X0257301Y0026971D01*
X0257235Y0026911D01*
X0257168Y0026855D01*
X0257097Y0026801D01*
X0257025Y0026751D01*
X0256950Y0026704D01*
X0256873Y0026660D01*
X0256794Y0026620D01*
X0256714Y0026583D01*
X0256632Y0026551D01*
X0256548Y0026521D01*
X0256464Y0026496D01*
X0256378Y0026474D01*
X0256292Y0026457D01*
X0256204Y0026443D01*
X0256116Y0026433D01*
X0256028Y0026427D01*
X0255940Y0026425D01*
X0255852Y0026427D01*
X0255764Y0026433D01*
X0255676Y0026443D01*
X0255588Y0026457D01*
X0255502Y0026474D01*
X0255416Y0026496D01*
X0255332Y0026521D01*
X0255248Y0026551D01*
X0255166Y0026583D01*
X0255086Y0026620D01*
X0255007Y0026660D01*
X0254930Y0026704D01*
X0254855Y0026751D01*
X0254783Y0026801D01*
X0254712Y0026855D01*
X0254645Y0026911D01*
X0254579Y0026971D01*
X0254517Y0027033D01*
X0254457Y0027099D01*
X0254401Y0027166D01*
X0254347Y0027237D01*
X0254297Y0027309D01*
X0254250Y0027384D01*
X0254206Y0027461D01*
X0254166Y0027540D01*
X0254129Y0027620D01*
X0254097Y0027702D01*
X0254067Y0027786D01*
X0254042Y0027870D01*
X0254020Y0027956D01*
X0254003Y0028042D01*
X0253989Y0028130D01*
X0253979Y0028218D01*
X0253973Y0028306D01*
X0253971Y0028394D01*
X0291654Y0034579D02*
X0291656Y0034663D01*
X0291662Y0034746D01*
X0291672Y0034829D01*
X0291686Y0034912D01*
X0291703Y0034994D01*
X0291725Y0035075D01*
X0291750Y0035154D01*
X0291779Y0035233D01*
X0291812Y0035310D01*
X0291848Y0035385D01*
X0291888Y0035459D01*
X0291931Y0035531D01*
X0291978Y0035600D01*
X0292028Y0035667D01*
X0292081Y0035732D01*
X0292137Y0035794D01*
X0292195Y0035854D01*
X0292257Y0035911D01*
X0292321Y0035964D01*
X0292388Y0036015D01*
X0292457Y0036062D01*
X0292528Y0036107D01*
X0292601Y0036147D01*
X0292676Y0036184D01*
X0292753Y0036218D01*
X0292831Y0036248D01*
X0292910Y0036274D01*
X0292991Y0036297D01*
X0293073Y0036315D01*
X0293155Y0036330D01*
X0293238Y0036341D01*
X0293321Y0036348D01*
X0293405Y0036351D01*
X0293489Y0036350D01*
X0293572Y0036345D01*
X0293656Y0036336D01*
X0293738Y0036323D01*
X0293820Y0036307D01*
X0293901Y0036286D01*
X0293982Y0036262D01*
X0294060Y0036234D01*
X0294138Y0036202D01*
X0294214Y0036166D01*
X0294288Y0036127D01*
X0294360Y0036085D01*
X0294430Y0036039D01*
X0294498Y0035990D01*
X0294563Y0035938D01*
X0294626Y0035883D01*
X0294686Y0035825D01*
X0294744Y0035764D01*
X0294798Y0035700D01*
X0294850Y0035634D01*
X0294898Y0035566D01*
X0294943Y0035495D01*
X0294984Y0035422D01*
X0295023Y0035348D01*
X0295057Y0035272D01*
X0295088Y0035194D01*
X0295115Y0035115D01*
X0295139Y0035034D01*
X0295158Y0034953D01*
X0295174Y0034871D01*
X0295186Y0034788D01*
X0295194Y0034704D01*
X0295198Y0034621D01*
X0295198Y0034537D01*
X0295194Y0034454D01*
X0295186Y0034370D01*
X0295174Y0034287D01*
X0295158Y0034205D01*
X0295139Y0034124D01*
X0295115Y0034043D01*
X0295088Y0033964D01*
X0295057Y0033886D01*
X0295023Y0033810D01*
X0294984Y0033736D01*
X0294943Y0033663D01*
X0294898Y0033592D01*
X0294850Y0033524D01*
X0294798Y0033458D01*
X0294744Y0033394D01*
X0294686Y0033333D01*
X0294626Y0033275D01*
X0294563Y0033220D01*
X0294498Y0033168D01*
X0294430Y0033119D01*
X0294360Y0033073D01*
X0294288Y0033031D01*
X0294214Y0032992D01*
X0294138Y0032956D01*
X0294060Y0032924D01*
X0293982Y0032896D01*
X0293901Y0032872D01*
X0293820Y0032851D01*
X0293738Y0032835D01*
X0293656Y0032822D01*
X0293572Y0032813D01*
X0293489Y0032808D01*
X0293405Y0032807D01*
X0293321Y0032810D01*
X0293238Y0032817D01*
X0293155Y0032828D01*
X0293073Y0032843D01*
X0292991Y0032861D01*
X0292910Y0032884D01*
X0292831Y0032910D01*
X0292753Y0032940D01*
X0292676Y0032974D01*
X0292601Y0033011D01*
X0292528Y0033051D01*
X0292457Y0033096D01*
X0292388Y0033143D01*
X0292321Y0033194D01*
X0292257Y0033247D01*
X0292195Y0033304D01*
X0292137Y0033364D01*
X0292081Y0033426D01*
X0292028Y0033491D01*
X0291978Y0033558D01*
X0291931Y0033627D01*
X0291888Y0033699D01*
X0291848Y0033773D01*
X0291812Y0033848D01*
X0291779Y0033925D01*
X0291750Y0034004D01*
X0291725Y0034083D01*
X0291703Y0034164D01*
X0291686Y0034246D01*
X0291672Y0034329D01*
X0291662Y0034412D01*
X0291656Y0034495D01*
X0291654Y0034579D01*
X0305433Y0034579D02*
X0305435Y0034663D01*
X0305441Y0034746D01*
X0305451Y0034829D01*
X0305465Y0034912D01*
X0305482Y0034994D01*
X0305504Y0035075D01*
X0305529Y0035154D01*
X0305558Y0035233D01*
X0305591Y0035310D01*
X0305627Y0035385D01*
X0305667Y0035459D01*
X0305710Y0035531D01*
X0305757Y0035600D01*
X0305807Y0035667D01*
X0305860Y0035732D01*
X0305916Y0035794D01*
X0305974Y0035854D01*
X0306036Y0035911D01*
X0306100Y0035964D01*
X0306167Y0036015D01*
X0306236Y0036062D01*
X0306307Y0036107D01*
X0306380Y0036147D01*
X0306455Y0036184D01*
X0306532Y0036218D01*
X0306610Y0036248D01*
X0306689Y0036274D01*
X0306770Y0036297D01*
X0306852Y0036315D01*
X0306934Y0036330D01*
X0307017Y0036341D01*
X0307100Y0036348D01*
X0307184Y0036351D01*
X0307268Y0036350D01*
X0307351Y0036345D01*
X0307435Y0036336D01*
X0307517Y0036323D01*
X0307599Y0036307D01*
X0307680Y0036286D01*
X0307761Y0036262D01*
X0307839Y0036234D01*
X0307917Y0036202D01*
X0307993Y0036166D01*
X0308067Y0036127D01*
X0308139Y0036085D01*
X0308209Y0036039D01*
X0308277Y0035990D01*
X0308342Y0035938D01*
X0308405Y0035883D01*
X0308465Y0035825D01*
X0308523Y0035764D01*
X0308577Y0035700D01*
X0308629Y0035634D01*
X0308677Y0035566D01*
X0308722Y0035495D01*
X0308763Y0035422D01*
X0308802Y0035348D01*
X0308836Y0035272D01*
X0308867Y0035194D01*
X0308894Y0035115D01*
X0308918Y0035034D01*
X0308937Y0034953D01*
X0308953Y0034871D01*
X0308965Y0034788D01*
X0308973Y0034704D01*
X0308977Y0034621D01*
X0308977Y0034537D01*
X0308973Y0034454D01*
X0308965Y0034370D01*
X0308953Y0034287D01*
X0308937Y0034205D01*
X0308918Y0034124D01*
X0308894Y0034043D01*
X0308867Y0033964D01*
X0308836Y0033886D01*
X0308802Y0033810D01*
X0308763Y0033736D01*
X0308722Y0033663D01*
X0308677Y0033592D01*
X0308629Y0033524D01*
X0308577Y0033458D01*
X0308523Y0033394D01*
X0308465Y0033333D01*
X0308405Y0033275D01*
X0308342Y0033220D01*
X0308277Y0033168D01*
X0308209Y0033119D01*
X0308139Y0033073D01*
X0308067Y0033031D01*
X0307993Y0032992D01*
X0307917Y0032956D01*
X0307839Y0032924D01*
X0307761Y0032896D01*
X0307680Y0032872D01*
X0307599Y0032851D01*
X0307517Y0032835D01*
X0307435Y0032822D01*
X0307351Y0032813D01*
X0307268Y0032808D01*
X0307184Y0032807D01*
X0307100Y0032810D01*
X0307017Y0032817D01*
X0306934Y0032828D01*
X0306852Y0032843D01*
X0306770Y0032861D01*
X0306689Y0032884D01*
X0306610Y0032910D01*
X0306532Y0032940D01*
X0306455Y0032974D01*
X0306380Y0033011D01*
X0306307Y0033051D01*
X0306236Y0033096D01*
X0306167Y0033143D01*
X0306100Y0033194D01*
X0306036Y0033247D01*
X0305974Y0033304D01*
X0305916Y0033364D01*
X0305860Y0033426D01*
X0305807Y0033491D01*
X0305757Y0033558D01*
X0305710Y0033627D01*
X0305667Y0033699D01*
X0305627Y0033773D01*
X0305591Y0033848D01*
X0305558Y0033925D01*
X0305529Y0034004D01*
X0305504Y0034083D01*
X0305482Y0034164D01*
X0305465Y0034246D01*
X0305451Y0034329D01*
X0305441Y0034412D01*
X0305435Y0034495D01*
X0305433Y0034579D01*
X0335177Y0026454D02*
X0335179Y0026538D01*
X0335185Y0026621D01*
X0335195Y0026704D01*
X0335209Y0026787D01*
X0335226Y0026869D01*
X0335248Y0026950D01*
X0335273Y0027029D01*
X0335302Y0027108D01*
X0335335Y0027185D01*
X0335371Y0027260D01*
X0335411Y0027334D01*
X0335454Y0027406D01*
X0335501Y0027475D01*
X0335551Y0027542D01*
X0335604Y0027607D01*
X0335660Y0027669D01*
X0335718Y0027729D01*
X0335780Y0027786D01*
X0335844Y0027839D01*
X0335911Y0027890D01*
X0335980Y0027937D01*
X0336051Y0027982D01*
X0336124Y0028022D01*
X0336199Y0028059D01*
X0336276Y0028093D01*
X0336354Y0028123D01*
X0336433Y0028149D01*
X0336514Y0028172D01*
X0336596Y0028190D01*
X0336678Y0028205D01*
X0336761Y0028216D01*
X0336844Y0028223D01*
X0336928Y0028226D01*
X0337012Y0028225D01*
X0337095Y0028220D01*
X0337179Y0028211D01*
X0337261Y0028198D01*
X0337343Y0028182D01*
X0337424Y0028161D01*
X0337505Y0028137D01*
X0337583Y0028109D01*
X0337661Y0028077D01*
X0337737Y0028041D01*
X0337811Y0028002D01*
X0337883Y0027960D01*
X0337953Y0027914D01*
X0338021Y0027865D01*
X0338086Y0027813D01*
X0338149Y0027758D01*
X0338209Y0027700D01*
X0338267Y0027639D01*
X0338321Y0027575D01*
X0338373Y0027509D01*
X0338421Y0027441D01*
X0338466Y0027370D01*
X0338507Y0027297D01*
X0338546Y0027223D01*
X0338580Y0027147D01*
X0338611Y0027069D01*
X0338638Y0026990D01*
X0338662Y0026909D01*
X0338681Y0026828D01*
X0338697Y0026746D01*
X0338709Y0026663D01*
X0338717Y0026579D01*
X0338721Y0026496D01*
X0338721Y0026412D01*
X0338717Y0026329D01*
X0338709Y0026245D01*
X0338697Y0026162D01*
X0338681Y0026080D01*
X0338662Y0025999D01*
X0338638Y0025918D01*
X0338611Y0025839D01*
X0338580Y0025761D01*
X0338546Y0025685D01*
X0338507Y0025611D01*
X0338466Y0025538D01*
X0338421Y0025467D01*
X0338373Y0025399D01*
X0338321Y0025333D01*
X0338267Y0025269D01*
X0338209Y0025208D01*
X0338149Y0025150D01*
X0338086Y0025095D01*
X0338021Y0025043D01*
X0337953Y0024994D01*
X0337883Y0024948D01*
X0337811Y0024906D01*
X0337737Y0024867D01*
X0337661Y0024831D01*
X0337583Y0024799D01*
X0337505Y0024771D01*
X0337424Y0024747D01*
X0337343Y0024726D01*
X0337261Y0024710D01*
X0337179Y0024697D01*
X0337095Y0024688D01*
X0337012Y0024683D01*
X0336928Y0024682D01*
X0336844Y0024685D01*
X0336761Y0024692D01*
X0336678Y0024703D01*
X0336596Y0024718D01*
X0336514Y0024736D01*
X0336433Y0024759D01*
X0336354Y0024785D01*
X0336276Y0024815D01*
X0336199Y0024849D01*
X0336124Y0024886D01*
X0336051Y0024926D01*
X0335980Y0024971D01*
X0335911Y0025018D01*
X0335844Y0025069D01*
X0335780Y0025122D01*
X0335718Y0025179D01*
X0335660Y0025239D01*
X0335604Y0025301D01*
X0335551Y0025366D01*
X0335501Y0025433D01*
X0335454Y0025502D01*
X0335411Y0025574D01*
X0335371Y0025648D01*
X0335335Y0025723D01*
X0335302Y0025800D01*
X0335273Y0025879D01*
X0335248Y0025958D01*
X0335226Y0026039D01*
X0335209Y0026121D01*
X0335195Y0026204D01*
X0335185Y0026287D01*
X0335179Y0026370D01*
X0335177Y0026454D01*
X0351909Y0026454D02*
X0351911Y0026538D01*
X0351917Y0026621D01*
X0351927Y0026704D01*
X0351941Y0026787D01*
X0351958Y0026869D01*
X0351980Y0026950D01*
X0352005Y0027029D01*
X0352034Y0027108D01*
X0352067Y0027185D01*
X0352103Y0027260D01*
X0352143Y0027334D01*
X0352186Y0027406D01*
X0352233Y0027475D01*
X0352283Y0027542D01*
X0352336Y0027607D01*
X0352392Y0027669D01*
X0352450Y0027729D01*
X0352512Y0027786D01*
X0352576Y0027839D01*
X0352643Y0027890D01*
X0352712Y0027937D01*
X0352783Y0027982D01*
X0352856Y0028022D01*
X0352931Y0028059D01*
X0353008Y0028093D01*
X0353086Y0028123D01*
X0353165Y0028149D01*
X0353246Y0028172D01*
X0353328Y0028190D01*
X0353410Y0028205D01*
X0353493Y0028216D01*
X0353576Y0028223D01*
X0353660Y0028226D01*
X0353744Y0028225D01*
X0353827Y0028220D01*
X0353911Y0028211D01*
X0353993Y0028198D01*
X0354075Y0028182D01*
X0354156Y0028161D01*
X0354237Y0028137D01*
X0354315Y0028109D01*
X0354393Y0028077D01*
X0354469Y0028041D01*
X0354543Y0028002D01*
X0354615Y0027960D01*
X0354685Y0027914D01*
X0354753Y0027865D01*
X0354818Y0027813D01*
X0354881Y0027758D01*
X0354941Y0027700D01*
X0354999Y0027639D01*
X0355053Y0027575D01*
X0355105Y0027509D01*
X0355153Y0027441D01*
X0355198Y0027370D01*
X0355239Y0027297D01*
X0355278Y0027223D01*
X0355312Y0027147D01*
X0355343Y0027069D01*
X0355370Y0026990D01*
X0355394Y0026909D01*
X0355413Y0026828D01*
X0355429Y0026746D01*
X0355441Y0026663D01*
X0355449Y0026579D01*
X0355453Y0026496D01*
X0355453Y0026412D01*
X0355449Y0026329D01*
X0355441Y0026245D01*
X0355429Y0026162D01*
X0355413Y0026080D01*
X0355394Y0025999D01*
X0355370Y0025918D01*
X0355343Y0025839D01*
X0355312Y0025761D01*
X0355278Y0025685D01*
X0355239Y0025611D01*
X0355198Y0025538D01*
X0355153Y0025467D01*
X0355105Y0025399D01*
X0355053Y0025333D01*
X0354999Y0025269D01*
X0354941Y0025208D01*
X0354881Y0025150D01*
X0354818Y0025095D01*
X0354753Y0025043D01*
X0354685Y0024994D01*
X0354615Y0024948D01*
X0354543Y0024906D01*
X0354469Y0024867D01*
X0354393Y0024831D01*
X0354315Y0024799D01*
X0354237Y0024771D01*
X0354156Y0024747D01*
X0354075Y0024726D01*
X0353993Y0024710D01*
X0353911Y0024697D01*
X0353827Y0024688D01*
X0353744Y0024683D01*
X0353660Y0024682D01*
X0353576Y0024685D01*
X0353493Y0024692D01*
X0353410Y0024703D01*
X0353328Y0024718D01*
X0353246Y0024736D01*
X0353165Y0024759D01*
X0353086Y0024785D01*
X0353008Y0024815D01*
X0352931Y0024849D01*
X0352856Y0024886D01*
X0352783Y0024926D01*
X0352712Y0024971D01*
X0352643Y0025018D01*
X0352576Y0025069D01*
X0352512Y0025122D01*
X0352450Y0025179D01*
X0352392Y0025239D01*
X0352336Y0025301D01*
X0352283Y0025366D01*
X0352233Y0025433D01*
X0352186Y0025502D01*
X0352143Y0025574D01*
X0352103Y0025648D01*
X0352067Y0025723D01*
X0352034Y0025800D01*
X0352005Y0025879D01*
X0351980Y0025958D01*
X0351958Y0026039D01*
X0351941Y0026121D01*
X0351927Y0026204D01*
X0351917Y0026287D01*
X0351911Y0026370D01*
X0351909Y0026454D01*
D11*
X0228552Y0002703D02*
X0228552Y0068703D01*
X0215752Y0068703D01*
X0228552Y0068703D02*
X0228552Y0082703D01*
X0114952Y0082703D01*
X0114952Y0068703D01*
X0122552Y0068703D01*
X0114952Y0068703D02*
X0114952Y0002703D01*
X0132752Y0002703D01*
X0155752Y0002703D01*
X0187752Y0002703D01*
X0210752Y0002703D01*
X0228552Y0002703D01*
X0177552Y0068703D02*
X0169952Y0068703D01*
X0174252Y0068703D01*
X0169952Y0068703D02*
X0160752Y0068703D01*
X0037246Y0156340D02*
X0035244Y0154338D01*
X0033242Y0154338D01*
X0031240Y0156340D01*
X0032241Y0158635D02*
X0031240Y0159636D01*
X0031240Y0161638D01*
X0032241Y0162639D01*
X0031240Y0165081D02*
X0033242Y0167083D01*
X0035244Y0167083D01*
X0037246Y0165081D01*
X0036245Y0162639D02*
X0037246Y0161638D01*
X0037246Y0159636D01*
X0036245Y0158635D01*
X0032241Y0158635D01*
X0027246Y0157341D02*
X0027246Y0155339D01*
X0026245Y0154338D01*
X0024243Y0154338D01*
X0023242Y0155339D01*
X0023242Y0157341D01*
X0024243Y0158342D01*
X0025244Y0158342D01*
X0025244Y0154338D01*
X0027246Y0160784D02*
X0027246Y0164787D01*
X0027246Y0162786D02*
X0021240Y0162786D01*
X0023242Y0160784D01*
X0024243Y0167229D02*
X0024243Y0171233D01*
X0023242Y0173675D02*
X0023242Y0175677D01*
X0022241Y0174676D02*
X0026245Y0174676D01*
X0027246Y0175677D01*
X0027246Y0177972D02*
X0023242Y0177972D01*
X0023242Y0179974D02*
X0023242Y0180974D01*
X0023242Y0179974D02*
X0025244Y0177972D01*
X0031240Y0178826D02*
X0031240Y0176824D01*
X0032241Y0175823D01*
X0031240Y0178826D02*
X0032241Y0179827D01*
X0033242Y0179827D01*
X0037246Y0175823D01*
X0037246Y0179827D01*
X0036245Y0182269D02*
X0032241Y0186272D01*
X0036245Y0186272D01*
X0037246Y0185271D01*
X0037246Y0183270D01*
X0036245Y0182269D01*
X0032241Y0182269D01*
X0031240Y0183270D01*
X0031240Y0185271D01*
X0032241Y0186272D01*
X0032241Y0188714D02*
X0031240Y0189715D01*
X0031240Y0191717D01*
X0032241Y0192718D01*
X0033242Y0192718D01*
X0037246Y0188714D01*
X0037246Y0192718D01*
X0036245Y0195160D02*
X0032241Y0195160D01*
X0031240Y0196161D01*
X0031240Y0198162D01*
X0032241Y0199163D01*
X0036245Y0195160D01*
X0037246Y0196161D01*
X0037246Y0198162D01*
X0036245Y0199163D01*
X0032241Y0199163D01*
X0027246Y0199237D02*
X0027246Y0197235D01*
X0026245Y0196234D01*
X0024243Y0196234D01*
X0023242Y0197235D01*
X0023242Y0199237D01*
X0024243Y0200238D01*
X0025244Y0200238D01*
X0025244Y0196234D01*
X0027246Y0193792D02*
X0027246Y0190789D01*
X0026245Y0189789D01*
X0024243Y0189789D01*
X0023242Y0190789D01*
X0023242Y0193792D01*
X0024243Y0187347D02*
X0023242Y0186346D01*
X0023242Y0184344D01*
X0025244Y0184344D02*
X0025244Y0187347D01*
X0024243Y0187347D02*
X0027246Y0187347D01*
X0027246Y0184344D01*
X0026245Y0183343D01*
X0025244Y0184344D01*
X0025244Y0202680D02*
X0023242Y0204681D01*
X0023242Y0205682D01*
X0023242Y0202680D02*
X0027246Y0202680D01*
X0033242Y0209052D02*
X0033242Y0212054D01*
X0035244Y0211053D02*
X0035244Y0209052D01*
X0034243Y0208051D01*
X0033242Y0209052D01*
X0035244Y0211053D02*
X0036245Y0212054D01*
X0037246Y0211053D01*
X0037246Y0208051D01*
X0036245Y0214496D02*
X0033242Y0214496D01*
X0036245Y0214496D02*
X0037246Y0215497D01*
X0037246Y0218500D01*
X0038246Y0218500D02*
X0039247Y0217499D01*
X0039247Y0216498D01*
X0038246Y0218500D02*
X0033242Y0218500D01*
X0034243Y0220942D02*
X0033242Y0221943D01*
X0033242Y0224945D01*
X0035244Y0223944D02*
X0035244Y0221943D01*
X0034243Y0220942D01*
X0037246Y0220942D02*
X0037246Y0223944D01*
X0036245Y0224945D01*
X0035244Y0223944D01*
X0037246Y0227387D02*
X0033242Y0227387D01*
X0033242Y0228388D01*
X0034243Y0229389D01*
X0033242Y0230390D01*
X0034243Y0231391D01*
X0037246Y0231391D01*
X0037246Y0229389D02*
X0034243Y0229389D01*
X0034243Y0233833D02*
X0036245Y0233833D01*
X0037246Y0234834D01*
X0037246Y0236835D01*
X0036245Y0237836D01*
X0034243Y0237836D01*
X0033242Y0236835D01*
X0033242Y0234834D01*
X0034243Y0233833D01*
X0034243Y0240278D02*
X0036245Y0240278D01*
X0037246Y0241279D01*
X0037246Y0244282D01*
X0036245Y0246724D02*
X0034243Y0246724D01*
X0033242Y0247725D01*
X0033242Y0249726D01*
X0034243Y0250727D01*
X0036245Y0250727D01*
X0037246Y0249726D01*
X0037246Y0247725D01*
X0036245Y0246724D01*
X0033242Y0244282D02*
X0033242Y0241279D01*
X0034243Y0240278D01*
X0033242Y0253169D02*
X0033242Y0254170D01*
X0034243Y0255171D01*
X0033242Y0256172D01*
X0034243Y0257173D01*
X0037246Y0257173D01*
X0037246Y0255171D02*
X0034243Y0255171D01*
X0033242Y0253169D02*
X0037246Y0253169D01*
X0027246Y0223537D02*
X0027246Y0219534D01*
X0027246Y0221536D02*
X0021240Y0221536D01*
X0023242Y0219534D01*
X0023242Y0217092D02*
X0027246Y0215090D01*
X0023242Y0213088D01*
X0306014Y0263673D02*
X0306014Y0284146D01*
X0316014Y0284146D02*
X0325542Y0284146D01*
X0335542Y0284146D02*
X0335542Y0263673D01*
X0325542Y0263673D02*
X0316014Y0263673D01*
X0309597Y0250317D02*
X0330069Y0250317D01*
X0330069Y0240317D02*
X0330069Y0230789D01*
X0330069Y0220789D02*
X0309597Y0220789D01*
X0309597Y0230789D02*
X0309597Y0240317D01*
D12*
X0048702Y0239904D02*
X0047718Y0238920D01*
X0048702Y0239904D02*
X0048702Y0241873D01*
X0047718Y0242857D01*
X0046734Y0242857D01*
X0045750Y0241873D01*
X0045750Y0239904D01*
X0044766Y0238920D01*
X0043781Y0238920D01*
X0042797Y0239904D01*
X0042797Y0241873D01*
X0043781Y0242857D01*
X0044766Y0245366D02*
X0042797Y0247334D01*
X0044766Y0249302D01*
X0048702Y0249302D01*
X0045750Y0249302D02*
X0045750Y0245366D01*
X0044766Y0245366D02*
X0048702Y0245366D01*
X0045750Y0236411D02*
X0045750Y0232475D01*
X0043781Y0229966D02*
X0045750Y0227998D01*
X0048702Y0227998D01*
X0045750Y0227998D02*
X0043781Y0226029D01*
X0042797Y0226029D01*
X0043781Y0223520D02*
X0044766Y0223520D01*
X0045750Y0222536D01*
X0045750Y0219584D01*
X0045750Y0217075D02*
X0045750Y0213138D01*
X0047718Y0210629D02*
X0048702Y0209645D01*
X0048702Y0207677D01*
X0047718Y0206693D01*
X0043781Y0206693D01*
X0042797Y0207677D01*
X0042797Y0209645D01*
X0043781Y0210629D01*
X0042797Y0219584D02*
X0042797Y0222536D01*
X0043781Y0223520D01*
X0045750Y0222536D02*
X0046734Y0223520D01*
X0047718Y0223520D01*
X0048702Y0222536D01*
X0048702Y0219584D01*
X0042797Y0219584D01*
X0042797Y0229966D02*
X0043781Y0229966D01*
X0043781Y0204184D02*
X0042797Y0203200D01*
X0042797Y0201231D01*
X0043781Y0200247D01*
X0047718Y0200247D01*
X0048702Y0201231D01*
X0048702Y0203200D01*
X0047718Y0204184D01*
X0042797Y0191293D02*
X0048702Y0187356D01*
X0048702Y0178402D02*
X0042797Y0178402D01*
X0042797Y0174465D02*
X0048702Y0174465D01*
X0046734Y0176434D01*
X0048702Y0178402D01*
X0048702Y0171956D02*
X0042797Y0171956D01*
X0045750Y0171956D02*
X0045750Y0168020D01*
X0046734Y0165511D02*
X0047718Y0165511D01*
X0048702Y0164527D01*
X0048702Y0162558D01*
X0047718Y0161574D01*
X0045750Y0162558D02*
X0045750Y0164527D01*
X0046734Y0165511D01*
X0043781Y0165511D02*
X0042797Y0164527D01*
X0042797Y0162558D01*
X0043781Y0161574D01*
X0044766Y0161574D01*
X0045750Y0162558D01*
X0047718Y0159065D02*
X0043781Y0159065D01*
X0042797Y0158081D01*
X0042797Y0156113D01*
X0043781Y0155129D01*
X0047718Y0155129D01*
X0048702Y0156113D01*
X0048702Y0158081D01*
X0047718Y0159065D01*
X0048702Y0168020D02*
X0042797Y0168020D01*
D13*
X0042768Y0141577D02*
X0043374Y0141577D01*
X0045797Y0139154D01*
X0046402Y0139154D01*
X0045797Y0137589D02*
X0046402Y0136983D01*
X0046402Y0135772D01*
X0045797Y0135166D01*
X0046402Y0133601D02*
X0045191Y0132390D01*
X0045191Y0132996D02*
X0045191Y0131179D01*
X0046402Y0131179D02*
X0042768Y0131179D01*
X0042768Y0132996D01*
X0043374Y0133601D01*
X0044585Y0133601D01*
X0045191Y0132996D01*
X0043374Y0135166D02*
X0042768Y0135772D01*
X0042768Y0136983D01*
X0043374Y0137589D01*
X0043980Y0137589D01*
X0044585Y0136983D01*
X0045191Y0137589D01*
X0045797Y0137589D01*
X0044585Y0136983D02*
X0044585Y0136378D01*
X0042768Y0139154D02*
X0042768Y0141577D01*
X0038233Y0119614D02*
X0038233Y0117191D01*
X0035810Y0119614D01*
X0035205Y0119614D01*
X0034599Y0119008D01*
X0034599Y0117797D01*
X0035205Y0117191D01*
X0034599Y0115626D02*
X0034599Y0113203D01*
X0034599Y0114415D02*
X0038233Y0114415D01*
X0039018Y0110365D02*
X0042652Y0110365D01*
X0042652Y0109154D02*
X0042652Y0111577D01*
X0040230Y0109154D02*
X0039018Y0110365D01*
X0040835Y0107589D02*
X0040835Y0105166D01*
X0039018Y0106983D01*
X0042652Y0106983D01*
X0042652Y0103601D02*
X0041441Y0102390D01*
X0041441Y0102996D02*
X0041441Y0101179D01*
X0042652Y0101179D02*
X0039018Y0101179D01*
X0039018Y0102996D01*
X0039624Y0103601D01*
X0040835Y0103601D01*
X0041441Y0102996D01*
X0056518Y0102996D02*
X0057124Y0103601D01*
X0058335Y0103601D01*
X0058941Y0102996D01*
X0058941Y0101179D01*
X0058941Y0102390D02*
X0060152Y0103601D01*
X0058335Y0105166D02*
X0058335Y0107589D01*
X0056518Y0106983D02*
X0058335Y0105166D01*
X0060152Y0106983D02*
X0056518Y0106983D01*
X0057124Y0109154D02*
X0056518Y0109760D01*
X0056518Y0110971D01*
X0057124Y0111577D01*
X0059547Y0109154D01*
X0060152Y0109760D01*
X0060152Y0110971D01*
X0059547Y0111577D01*
X0057124Y0111577D01*
X0057124Y0109154D02*
X0059547Y0109154D01*
X0056518Y0102996D02*
X0056518Y0101179D01*
X0060152Y0101179D01*
X0072099Y0113203D02*
X0072099Y0115626D01*
X0072099Y0114415D02*
X0075733Y0114415D01*
X0075733Y0117191D02*
X0075733Y0119614D01*
X0075733Y0118402D02*
X0072099Y0118402D01*
X0073310Y0117191D01*
X0072768Y0129929D02*
X0072768Y0131746D01*
X0073374Y0132351D01*
X0074585Y0132351D01*
X0075191Y0131746D01*
X0075191Y0129929D01*
X0075191Y0131140D02*
X0076402Y0132351D01*
X0075797Y0133916D02*
X0076402Y0134522D01*
X0076402Y0135733D01*
X0075797Y0136339D01*
X0075191Y0136339D01*
X0074585Y0135733D01*
X0074585Y0135128D01*
X0074585Y0135733D02*
X0073980Y0136339D01*
X0073374Y0136339D01*
X0072768Y0135733D01*
X0072768Y0134522D01*
X0073374Y0133916D01*
X0072768Y0129929D02*
X0076402Y0129929D01*
X0075797Y0137904D02*
X0076402Y0138510D01*
X0076402Y0139721D01*
X0075797Y0140327D01*
X0075191Y0140327D01*
X0074585Y0139721D01*
X0074585Y0137904D01*
X0075797Y0137904D01*
X0074585Y0137904D02*
X0073374Y0139115D01*
X0072768Y0140327D01*
X0109599Y0131276D02*
X0113233Y0131276D01*
X0113233Y0130065D02*
X0113233Y0132488D01*
X0110810Y0130065D02*
X0109599Y0131276D01*
X0110205Y0128500D02*
X0111416Y0128500D01*
X0112022Y0127894D01*
X0112022Y0126077D01*
X0113233Y0126077D02*
X0109599Y0126077D01*
X0109599Y0127894D01*
X0110205Y0128500D01*
X0112022Y0127289D02*
X0113233Y0128500D01*
X0113233Y0123301D02*
X0109599Y0123301D01*
X0109599Y0122090D02*
X0109599Y0124512D01*
X0116464Y0092482D02*
X0117675Y0092482D01*
X0117070Y0092482D02*
X0117070Y0089454D01*
X0116464Y0088848D01*
X0115859Y0088848D01*
X0115253Y0089454D01*
X0119241Y0088848D02*
X0121663Y0088848D01*
X0120452Y0088848D02*
X0120452Y0092482D01*
X0119241Y0091271D01*
X0100152Y0082221D02*
X0100152Y0081010D01*
X0099547Y0080404D01*
X0098335Y0080404D02*
X0097730Y0081615D01*
X0097730Y0082221D01*
X0098335Y0082827D01*
X0099547Y0082827D01*
X0100152Y0082221D01*
X0098335Y0080404D02*
X0096518Y0080404D01*
X0096518Y0082827D01*
X0100152Y0078839D02*
X0100152Y0076416D01*
X0100152Y0077628D02*
X0096518Y0077628D01*
X0097730Y0076416D01*
X0098335Y0074851D02*
X0098941Y0074246D01*
X0098941Y0072429D01*
X0098941Y0073640D02*
X0100152Y0074851D01*
X0098335Y0074851D02*
X0097124Y0074851D01*
X0096518Y0074246D01*
X0096518Y0072429D01*
X0100152Y0072429D01*
X0097652Y0046577D02*
X0096441Y0045365D01*
X0096441Y0045971D02*
X0096441Y0044154D01*
X0097652Y0044154D02*
X0094018Y0044154D01*
X0094018Y0045971D01*
X0094624Y0046577D01*
X0095835Y0046577D01*
X0096441Y0045971D01*
X0097652Y0042589D02*
X0094018Y0042589D01*
X0094018Y0040166D02*
X0097652Y0040166D01*
X0096441Y0041378D01*
X0097652Y0042589D01*
X0095835Y0038601D02*
X0096441Y0037996D01*
X0096441Y0036179D01*
X0097652Y0036179D02*
X0094018Y0036179D01*
X0094018Y0037996D01*
X0094624Y0038601D01*
X0095835Y0038601D01*
X0040733Y0043978D02*
X0040733Y0046401D01*
X0040127Y0047966D02*
X0037705Y0047966D01*
X0037099Y0048571D01*
X0037099Y0049783D01*
X0037705Y0050388D01*
X0040127Y0050388D01*
X0040733Y0049783D01*
X0040733Y0048571D01*
X0040127Y0047966D01*
X0040127Y0051953D02*
X0040733Y0052559D01*
X0040733Y0053770D01*
X0040127Y0054376D01*
X0039522Y0054376D01*
X0038916Y0053770D01*
X0038916Y0052559D01*
X0038310Y0051953D01*
X0037705Y0051953D01*
X0037099Y0052559D01*
X0037099Y0053770D01*
X0037705Y0054376D01*
X0037705Y0055941D02*
X0037099Y0056547D01*
X0037099Y0057758D01*
X0037705Y0058364D01*
X0038310Y0058364D01*
X0040733Y0055941D01*
X0040733Y0058364D01*
X0040733Y0065228D02*
X0037099Y0065228D01*
X0040733Y0065228D02*
X0040733Y0067651D01*
X0040127Y0069216D02*
X0037705Y0069216D01*
X0037099Y0069821D01*
X0037099Y0071033D01*
X0037705Y0071638D01*
X0040127Y0071638D01*
X0040733Y0071033D01*
X0040733Y0069821D01*
X0040127Y0069216D01*
X0040127Y0073203D02*
X0040733Y0073809D01*
X0040733Y0075020D01*
X0040127Y0075626D01*
X0039522Y0075626D01*
X0038916Y0075020D01*
X0038916Y0073809D01*
X0038310Y0073203D01*
X0037705Y0073203D01*
X0037099Y0073809D01*
X0037099Y0075020D01*
X0037705Y0075626D01*
X0038310Y0077191D02*
X0037099Y0078402D01*
X0040733Y0078402D01*
X0040733Y0077191D02*
X0040733Y0079614D01*
X0040733Y0043978D02*
X0037099Y0043978D01*
X0151518Y0090303D02*
X0151518Y0092120D01*
X0152124Y0092725D01*
X0153335Y0092725D01*
X0153941Y0092120D01*
X0153941Y0090303D01*
X0153941Y0091514D02*
X0155152Y0092725D01*
X0153335Y0094290D02*
X0151518Y0096107D01*
X0155152Y0096107D01*
X0153335Y0096713D02*
X0153335Y0094290D01*
X0152124Y0098278D02*
X0151518Y0098884D01*
X0151518Y0100095D01*
X0152124Y0100701D01*
X0152730Y0100701D01*
X0155152Y0098278D01*
X0155152Y0100701D01*
X0155152Y0090303D02*
X0151518Y0090303D01*
X0164602Y0147803D02*
X0164602Y0151437D01*
X0166419Y0151437D01*
X0167025Y0150831D01*
X0167025Y0149620D01*
X0166419Y0149014D01*
X0164602Y0149014D01*
X0165814Y0149014D02*
X0167025Y0147803D01*
X0168590Y0148408D02*
X0169196Y0147803D01*
X0170407Y0147803D01*
X0171012Y0148408D01*
X0171012Y0149014D01*
X0170407Y0149620D01*
X0169801Y0149620D01*
X0170407Y0149620D02*
X0171012Y0150225D01*
X0171012Y0150831D01*
X0170407Y0151437D01*
X0169196Y0151437D01*
X0168590Y0150831D01*
X0172578Y0150831D02*
X0173183Y0151437D01*
X0174395Y0151437D01*
X0175000Y0150831D01*
X0175000Y0150225D01*
X0174395Y0149620D01*
X0173183Y0149620D01*
X0172578Y0150225D01*
X0172578Y0150831D01*
X0173183Y0149620D02*
X0172578Y0149014D01*
X0172578Y0148408D01*
X0173183Y0147803D01*
X0174395Y0147803D01*
X0175000Y0148408D01*
X0175000Y0149014D01*
X0174395Y0149620D01*
X0178352Y0152242D02*
X0180169Y0152242D01*
X0180775Y0152847D01*
X0180775Y0155270D01*
X0180169Y0155876D01*
X0178352Y0155876D01*
X0178352Y0152242D01*
X0182340Y0152847D02*
X0182946Y0152242D01*
X0184157Y0152242D01*
X0184762Y0152847D01*
X0184762Y0154059D01*
X0184157Y0154664D01*
X0183551Y0154664D01*
X0182340Y0154059D01*
X0182340Y0155876D01*
X0184762Y0155876D01*
X0190377Y0154045D02*
X0192194Y0154045D01*
X0192800Y0153439D01*
X0192800Y0151017D01*
X0192194Y0150411D01*
X0190377Y0150411D01*
X0190377Y0154045D01*
X0194365Y0153439D02*
X0194365Y0152834D01*
X0194970Y0152228D01*
X0196182Y0152228D01*
X0196787Y0151622D01*
X0196787Y0151017D01*
X0196182Y0150411D01*
X0194970Y0150411D01*
X0194365Y0151017D01*
X0194365Y0151622D01*
X0194970Y0152228D01*
X0196182Y0152228D02*
X0196787Y0152834D01*
X0196787Y0153439D01*
X0196182Y0154045D01*
X0194970Y0154045D01*
X0194365Y0153439D01*
X0223352Y0151437D02*
X0223352Y0147803D01*
X0223352Y0149014D02*
X0225169Y0149014D01*
X0225775Y0149620D01*
X0225775Y0150831D01*
X0225169Y0151437D01*
X0223352Y0151437D01*
X0224564Y0149014D02*
X0225775Y0147803D01*
X0227340Y0148408D02*
X0227946Y0147803D01*
X0229157Y0147803D01*
X0229762Y0148408D01*
X0229762Y0149014D01*
X0229157Y0149620D01*
X0228551Y0149620D01*
X0229157Y0149620D02*
X0229762Y0150225D01*
X0229762Y0150831D01*
X0229157Y0151437D01*
X0227946Y0151437D01*
X0227340Y0150831D01*
X0231328Y0150831D02*
X0231933Y0151437D01*
X0233145Y0151437D01*
X0233750Y0150831D01*
X0233750Y0148408D01*
X0233145Y0147803D01*
X0231933Y0147803D01*
X0231328Y0148408D01*
X0231933Y0149620D02*
X0233750Y0149620D01*
X0231933Y0149620D02*
X0231328Y0150225D01*
X0231328Y0150831D01*
X0240852Y0160992D02*
X0242669Y0160992D01*
X0243275Y0161597D01*
X0243275Y0164020D01*
X0242669Y0164626D01*
X0240852Y0164626D01*
X0240852Y0160992D01*
X0244840Y0160992D02*
X0244840Y0161597D01*
X0247262Y0164020D01*
X0247262Y0164626D01*
X0244840Y0164626D01*
X0245446Y0169742D02*
X0244840Y0170347D01*
X0245446Y0169742D02*
X0246657Y0169742D01*
X0247262Y0170347D01*
X0247262Y0170953D01*
X0246657Y0171559D01*
X0246051Y0171559D01*
X0246657Y0171559D02*
X0247262Y0172164D01*
X0247262Y0172770D01*
X0246657Y0173376D01*
X0245446Y0173376D01*
X0244840Y0172770D01*
X0243275Y0172770D02*
X0242669Y0173376D01*
X0240852Y0173376D01*
X0240852Y0169742D01*
X0242669Y0169742D01*
X0243275Y0170347D01*
X0243275Y0172770D01*
X0232250Y0184284D02*
X0231645Y0183679D01*
X0230433Y0183679D01*
X0229828Y0184284D01*
X0231039Y0185496D02*
X0231645Y0185496D01*
X0232250Y0184890D01*
X0232250Y0184284D01*
X0231645Y0185496D02*
X0232250Y0186101D01*
X0232250Y0186707D01*
X0231645Y0187313D01*
X0230433Y0187313D01*
X0229828Y0186707D01*
X0228262Y0186707D02*
X0228262Y0185496D01*
X0227657Y0184890D01*
X0225840Y0184890D01*
X0225840Y0183679D02*
X0225840Y0187313D01*
X0227657Y0187313D01*
X0228262Y0186707D01*
X0224275Y0187313D02*
X0221852Y0187313D01*
X0223064Y0187313D02*
X0223064Y0183679D01*
X0202682Y0190598D02*
X0202682Y0194232D01*
X0200865Y0192415D01*
X0203287Y0192415D01*
X0199300Y0192415D02*
X0198694Y0191809D01*
X0196877Y0191809D01*
X0196877Y0190598D02*
X0196877Y0194232D01*
X0198694Y0194232D01*
X0199300Y0193626D01*
X0199300Y0192415D01*
X0195312Y0194232D02*
X0192889Y0194232D01*
X0194101Y0194232D02*
X0194101Y0190598D01*
X0193919Y0182126D02*
X0192102Y0182126D01*
X0192102Y0178492D01*
X0193919Y0178492D01*
X0194525Y0179097D01*
X0194525Y0181520D01*
X0193919Y0182126D01*
X0196090Y0180309D02*
X0198512Y0180309D01*
X0197907Y0182126D02*
X0196090Y0180309D01*
X0197907Y0178492D02*
X0197907Y0182126D01*
X0178512Y0177242D02*
X0176090Y0177242D01*
X0177301Y0177242D02*
X0177301Y0180876D01*
X0176090Y0179664D01*
X0174525Y0180270D02*
X0174525Y0177847D01*
X0173919Y0177242D01*
X0172102Y0177242D01*
X0172102Y0180876D01*
X0173919Y0180876D01*
X0174525Y0180270D01*
X0161000Y0191179D02*
X0158578Y0191179D01*
X0159789Y0191179D02*
X0159789Y0194813D01*
X0158578Y0193601D01*
X0157012Y0192996D02*
X0156407Y0192390D01*
X0154590Y0192390D01*
X0154590Y0191179D02*
X0154590Y0194813D01*
X0156407Y0194813D01*
X0157012Y0194207D01*
X0157012Y0192996D01*
X0153025Y0194813D02*
X0150602Y0194813D01*
X0151814Y0194813D02*
X0151814Y0191179D01*
X0139192Y0205279D02*
X0139798Y0205884D01*
X0139798Y0207096D01*
X0139192Y0207701D01*
X0139798Y0209266D02*
X0137375Y0211689D01*
X0136770Y0211689D01*
X0136164Y0211083D01*
X0136164Y0209872D01*
X0136770Y0209266D01*
X0136770Y0207701D02*
X0136164Y0207096D01*
X0136164Y0205884D01*
X0136770Y0205279D01*
X0139192Y0205279D01*
X0139798Y0209266D02*
X0139798Y0211689D01*
X0139192Y0213254D02*
X0139798Y0213860D01*
X0139798Y0215071D01*
X0139192Y0215677D01*
X0138587Y0215677D01*
X0137981Y0215071D01*
X0137981Y0214465D01*
X0137981Y0215071D02*
X0137375Y0215677D01*
X0136770Y0215677D01*
X0136164Y0215071D01*
X0136164Y0213860D01*
X0136770Y0213254D01*
X0159464Y0213328D02*
X0163098Y0213328D01*
X0163098Y0215751D01*
X0163098Y0217316D02*
X0160676Y0219739D01*
X0160070Y0219739D01*
X0159464Y0219133D01*
X0159464Y0217922D01*
X0160070Y0217316D01*
X0163098Y0217316D02*
X0163098Y0219739D01*
X0163667Y0230992D02*
X0163667Y0234626D01*
X0165484Y0234626D01*
X0166090Y0234020D01*
X0166090Y0232809D01*
X0165484Y0232203D01*
X0163667Y0232203D01*
X0164879Y0232203D02*
X0166090Y0230992D01*
X0167655Y0231597D02*
X0168261Y0230992D01*
X0169472Y0230992D01*
X0170077Y0231597D01*
X0170077Y0232203D01*
X0169472Y0232809D01*
X0168866Y0232809D01*
X0169472Y0232809D02*
X0170077Y0233414D01*
X0170077Y0234020D01*
X0169472Y0234626D01*
X0168261Y0234626D01*
X0167655Y0234020D01*
X0171643Y0232809D02*
X0174065Y0232809D01*
X0173459Y0234626D02*
X0171643Y0232809D01*
X0173459Y0230992D02*
X0173459Y0234626D01*
X0179204Y0235295D02*
X0179204Y0231661D01*
X0179204Y0232872D02*
X0181021Y0232872D01*
X0181627Y0233478D01*
X0181627Y0234689D01*
X0181021Y0235295D01*
X0179204Y0235295D01*
X0179204Y0236661D02*
X0179204Y0240295D01*
X0181021Y0240295D01*
X0181627Y0239689D01*
X0181627Y0238478D01*
X0181021Y0237872D01*
X0179204Y0237872D01*
X0180416Y0237872D02*
X0181627Y0236661D01*
X0183192Y0236661D02*
X0185614Y0239084D01*
X0185614Y0239689D01*
X0185009Y0240295D01*
X0183798Y0240295D01*
X0183192Y0239689D01*
X0183192Y0241661D02*
X0185614Y0244084D01*
X0185614Y0244689D01*
X0185009Y0245295D01*
X0183798Y0245295D01*
X0183192Y0244689D01*
X0181627Y0244689D02*
X0181627Y0243478D01*
X0181021Y0242872D01*
X0179204Y0242872D01*
X0179204Y0241661D02*
X0179204Y0245295D01*
X0181021Y0245295D01*
X0181627Y0244689D01*
X0181627Y0246661D02*
X0180416Y0247872D01*
X0181021Y0247872D02*
X0179204Y0247872D01*
X0179204Y0246661D02*
X0179204Y0250295D01*
X0181021Y0250295D01*
X0181627Y0249689D01*
X0181627Y0248478D01*
X0181021Y0247872D01*
X0183192Y0246661D02*
X0185614Y0249084D01*
X0185614Y0249689D01*
X0185009Y0250295D01*
X0183798Y0250295D01*
X0183192Y0249689D01*
X0183798Y0251661D02*
X0183192Y0252267D01*
X0183798Y0251661D02*
X0185009Y0251661D01*
X0185614Y0252267D01*
X0185614Y0252872D01*
X0185009Y0253478D01*
X0184403Y0253478D01*
X0185009Y0253478D02*
X0185614Y0254084D01*
X0185614Y0254689D01*
X0185009Y0255295D01*
X0183798Y0255295D01*
X0183192Y0254689D01*
X0181627Y0254689D02*
X0181627Y0253478D01*
X0181021Y0252872D01*
X0179204Y0252872D01*
X0179204Y0251661D02*
X0179204Y0255295D01*
X0181021Y0255295D01*
X0181627Y0254689D01*
X0181627Y0256661D02*
X0180416Y0257872D01*
X0181021Y0257872D02*
X0179204Y0257872D01*
X0179204Y0256661D02*
X0179204Y0260295D01*
X0181021Y0260295D01*
X0181627Y0259689D01*
X0181627Y0258478D01*
X0181021Y0257872D01*
X0183192Y0257267D02*
X0183798Y0256661D01*
X0185009Y0256661D01*
X0185614Y0257267D01*
X0185614Y0257872D01*
X0185009Y0258478D01*
X0184403Y0258478D01*
X0185009Y0258478D02*
X0185614Y0259084D01*
X0185614Y0259689D01*
X0185009Y0260295D01*
X0183798Y0260295D01*
X0183192Y0259689D01*
X0183798Y0261661D02*
X0183192Y0262267D01*
X0183798Y0261661D02*
X0185009Y0261661D01*
X0185614Y0262267D01*
X0185614Y0262872D01*
X0185009Y0263478D01*
X0184403Y0263478D01*
X0185009Y0263478D02*
X0185614Y0264084D01*
X0185614Y0264689D01*
X0185009Y0265295D01*
X0183798Y0265295D01*
X0183192Y0264689D01*
X0181627Y0264689D02*
X0181627Y0263478D01*
X0181021Y0262872D01*
X0179204Y0262872D01*
X0179204Y0261661D02*
X0179204Y0265295D01*
X0181021Y0265295D01*
X0181627Y0264689D01*
X0180416Y0262872D02*
X0181627Y0261661D01*
X0187180Y0261661D02*
X0189602Y0264084D01*
X0189602Y0264689D01*
X0188996Y0265295D01*
X0187785Y0265295D01*
X0187180Y0264689D01*
X0187180Y0261661D02*
X0189602Y0261661D01*
X0188391Y0260295D02*
X0187180Y0259084D01*
X0188391Y0260295D02*
X0188391Y0256661D01*
X0187180Y0256661D02*
X0189602Y0256661D01*
X0188996Y0255295D02*
X0189602Y0254689D01*
X0187180Y0252267D01*
X0187785Y0251661D01*
X0188996Y0251661D01*
X0189602Y0252267D01*
X0189602Y0254689D01*
X0188996Y0255295D02*
X0187785Y0255295D01*
X0187180Y0254689D01*
X0187180Y0252267D01*
X0187785Y0250295D02*
X0187180Y0249689D01*
X0187180Y0249084D01*
X0187785Y0248478D01*
X0189602Y0248478D01*
X0189602Y0249689D02*
X0188996Y0250295D01*
X0187785Y0250295D01*
X0189602Y0249689D02*
X0189602Y0247267D01*
X0188996Y0246661D01*
X0187785Y0246661D01*
X0187180Y0247267D01*
X0185614Y0246661D02*
X0183192Y0246661D01*
X0187180Y0244689D02*
X0187180Y0244084D01*
X0187785Y0243478D01*
X0188996Y0243478D01*
X0189602Y0242872D01*
X0189602Y0242267D01*
X0188996Y0241661D01*
X0187785Y0241661D01*
X0187180Y0242267D01*
X0187180Y0242872D01*
X0187785Y0243478D01*
X0188996Y0243478D02*
X0189602Y0244084D01*
X0189602Y0244689D01*
X0188996Y0245295D01*
X0187785Y0245295D01*
X0187180Y0244689D01*
X0185614Y0241661D02*
X0183192Y0241661D01*
X0181627Y0241661D02*
X0180416Y0242872D01*
X0187180Y0240295D02*
X0189602Y0240295D01*
X0189602Y0239689D01*
X0187180Y0237267D01*
X0187180Y0236661D01*
X0185614Y0236661D02*
X0183192Y0236661D01*
X0183798Y0235295D02*
X0183192Y0234689D01*
X0183798Y0235295D02*
X0185009Y0235295D01*
X0185614Y0234689D01*
X0185614Y0234084D01*
X0183192Y0231661D01*
X0185614Y0231661D01*
X0185009Y0230295D02*
X0183798Y0230295D01*
X0183192Y0229689D01*
X0181627Y0229689D02*
X0181627Y0228478D01*
X0181021Y0227872D01*
X0179204Y0227872D01*
X0179204Y0226661D02*
X0179204Y0230295D01*
X0181021Y0230295D01*
X0181627Y0229689D01*
X0181627Y0231661D02*
X0180416Y0232872D01*
X0185009Y0230295D02*
X0185614Y0229689D01*
X0185614Y0229084D01*
X0183192Y0226661D01*
X0185614Y0226661D01*
X0187180Y0227267D02*
X0187785Y0226661D01*
X0188996Y0226661D01*
X0189602Y0227267D01*
X0189602Y0228478D01*
X0188996Y0229084D01*
X0188391Y0229084D01*
X0187180Y0228478D01*
X0187180Y0230295D01*
X0189602Y0230295D01*
X0188996Y0231661D02*
X0189602Y0232267D01*
X0189602Y0232872D01*
X0188996Y0233478D01*
X0187180Y0233478D01*
X0187180Y0232267D01*
X0187785Y0231661D01*
X0188996Y0231661D01*
X0187180Y0233478D02*
X0188391Y0234689D01*
X0189602Y0235295D01*
X0181627Y0226661D02*
X0180416Y0227872D01*
X0212102Y0234284D02*
X0212708Y0233679D01*
X0213919Y0233679D01*
X0214525Y0234284D01*
X0216090Y0233679D02*
X0218512Y0236101D01*
X0218512Y0236707D01*
X0217907Y0237313D01*
X0216696Y0237313D01*
X0216090Y0236707D01*
X0214525Y0236707D02*
X0213919Y0237313D01*
X0212708Y0237313D01*
X0212102Y0236707D01*
X0212102Y0234284D01*
X0216090Y0233679D02*
X0218512Y0233679D01*
X0220078Y0233679D02*
X0220078Y0234284D01*
X0222500Y0236707D01*
X0222500Y0237313D01*
X0220078Y0237313D01*
X0233664Y0230071D02*
X0233664Y0228860D01*
X0234270Y0228254D01*
X0234270Y0226689D02*
X0233664Y0226083D01*
X0233664Y0224872D01*
X0234270Y0224266D01*
X0234270Y0222701D02*
X0233664Y0222096D01*
X0233664Y0220884D01*
X0234270Y0220279D01*
X0236692Y0220279D01*
X0237298Y0220884D01*
X0237298Y0222096D01*
X0236692Y0222701D01*
X0237298Y0224266D02*
X0234875Y0226689D01*
X0234270Y0226689D01*
X0237298Y0226689D02*
X0237298Y0224266D01*
X0237298Y0228254D02*
X0234875Y0230677D01*
X0234270Y0230677D01*
X0233664Y0230071D01*
X0237298Y0230677D02*
X0237298Y0228254D01*
X0247414Y0217571D02*
X0249231Y0215754D01*
X0249231Y0218177D01*
X0251048Y0217571D02*
X0247414Y0217571D01*
X0248020Y0214189D02*
X0247414Y0213583D01*
X0247414Y0212372D01*
X0248020Y0211766D01*
X0248020Y0210201D02*
X0247414Y0209596D01*
X0247414Y0208384D01*
X0248020Y0207779D01*
X0250442Y0207779D01*
X0251048Y0208384D01*
X0251048Y0209596D01*
X0250442Y0210201D01*
X0251048Y0211766D02*
X0248625Y0214189D01*
X0248020Y0214189D01*
X0251048Y0214189D02*
X0251048Y0211766D01*
X0277087Y0214450D02*
X0280721Y0214450D01*
X0280721Y0216873D01*
X0280116Y0218438D02*
X0280721Y0219044D01*
X0280721Y0220255D01*
X0280116Y0220861D01*
X0279510Y0220861D01*
X0278904Y0220255D01*
X0278904Y0219649D01*
X0278904Y0220255D02*
X0278299Y0220861D01*
X0277693Y0220861D01*
X0277087Y0220255D01*
X0277087Y0219044D01*
X0277693Y0218438D01*
X0294205Y0223349D02*
X0294811Y0222744D01*
X0297234Y0222744D01*
X0297839Y0223349D01*
X0297839Y0224561D01*
X0297234Y0225166D01*
X0297839Y0226731D02*
X0295417Y0229154D01*
X0294811Y0229154D01*
X0294205Y0228548D01*
X0294205Y0227337D01*
X0294811Y0226731D01*
X0294811Y0225166D02*
X0294205Y0224561D01*
X0294205Y0223349D01*
X0297839Y0226731D02*
X0297839Y0229154D01*
X0297234Y0230719D02*
X0297839Y0231325D01*
X0297839Y0232536D01*
X0297234Y0233142D01*
X0294811Y0233142D01*
X0294205Y0232536D01*
X0294205Y0231325D01*
X0294811Y0230719D01*
X0295417Y0230719D01*
X0296022Y0231325D01*
X0296022Y0233142D01*
X0289065Y0235347D02*
X0289065Y0236559D01*
X0288459Y0237164D01*
X0287854Y0237164D01*
X0286643Y0236559D01*
X0286643Y0238376D01*
X0289065Y0238376D01*
X0289065Y0235347D02*
X0288459Y0234742D01*
X0287248Y0234742D01*
X0286643Y0235347D01*
X0285077Y0235347D02*
X0284472Y0234742D01*
X0283261Y0234742D01*
X0282655Y0235347D01*
X0281090Y0234742D02*
X0279879Y0235953D01*
X0280484Y0235953D02*
X0278667Y0235953D01*
X0278667Y0234742D02*
X0278667Y0238376D01*
X0280484Y0238376D01*
X0281090Y0237770D01*
X0281090Y0236559D01*
X0280484Y0235953D01*
X0282655Y0237770D02*
X0283261Y0238376D01*
X0284472Y0238376D01*
X0285077Y0237770D01*
X0285077Y0237164D01*
X0284472Y0236559D01*
X0285077Y0235953D01*
X0285077Y0235347D01*
X0284472Y0236559D02*
X0283866Y0236559D01*
X0289333Y0248492D02*
X0289333Y0250309D01*
X0289939Y0250914D01*
X0291150Y0250914D01*
X0291756Y0250309D01*
X0291756Y0248492D01*
X0291756Y0249703D02*
X0292967Y0250914D01*
X0291150Y0252479D02*
X0291150Y0254902D01*
X0291150Y0256467D02*
X0291150Y0258890D01*
X0289333Y0258284D02*
X0291150Y0256467D01*
X0292967Y0258284D02*
X0289333Y0258284D01*
X0289333Y0254296D02*
X0291150Y0252479D01*
X0292967Y0254296D02*
X0289333Y0254296D01*
X0289333Y0248492D02*
X0292967Y0248492D01*
X0293459Y0265992D02*
X0292248Y0265992D01*
X0291643Y0266597D01*
X0291643Y0267203D01*
X0292248Y0267809D01*
X0293459Y0267809D01*
X0294065Y0267203D01*
X0294065Y0266597D01*
X0293459Y0265992D01*
X0293459Y0267809D02*
X0294065Y0268414D01*
X0294065Y0269020D01*
X0293459Y0269626D01*
X0292248Y0269626D01*
X0291643Y0269020D01*
X0291643Y0268414D01*
X0292248Y0267809D01*
X0290077Y0265992D02*
X0287655Y0265992D01*
X0288866Y0265992D02*
X0288866Y0269626D01*
X0287655Y0268414D01*
X0286090Y0269020D02*
X0285484Y0269626D01*
X0284273Y0269626D01*
X0283667Y0269020D01*
X0283667Y0266597D01*
X0284273Y0265992D01*
X0285484Y0265992D01*
X0286090Y0266597D01*
X0284914Y0275279D02*
X0284914Y0277096D01*
X0285520Y0277701D01*
X0286731Y0277701D01*
X0287337Y0277096D01*
X0287337Y0275279D01*
X0288548Y0275279D02*
X0284914Y0275279D01*
X0287337Y0276490D02*
X0288548Y0277701D01*
X0286731Y0279266D02*
X0286731Y0281689D01*
X0286731Y0283254D02*
X0286125Y0284465D01*
X0286125Y0285071D01*
X0286731Y0285677D01*
X0287942Y0285677D01*
X0288548Y0285071D01*
X0288548Y0283860D01*
X0287942Y0283254D01*
X0286731Y0283254D02*
X0284914Y0283254D01*
X0284914Y0285677D01*
X0284333Y0288492D02*
X0284333Y0290309D01*
X0284939Y0290914D01*
X0286150Y0290914D01*
X0286756Y0290309D01*
X0286756Y0288492D01*
X0286756Y0289703D02*
X0287967Y0290914D01*
X0286150Y0292479D02*
X0286150Y0294902D01*
X0286150Y0296467D02*
X0286150Y0298284D01*
X0286756Y0298890D01*
X0287362Y0298890D01*
X0287967Y0298284D01*
X0287967Y0297073D01*
X0287362Y0296467D01*
X0286150Y0296467D01*
X0284939Y0297678D01*
X0284333Y0298890D01*
X0284333Y0294296D02*
X0286150Y0292479D01*
X0287967Y0294296D02*
X0284333Y0294296D01*
X0284333Y0288492D02*
X0287967Y0288492D01*
X0288548Y0281083D02*
X0284914Y0281083D01*
X0286731Y0279266D01*
X0270458Y0295864D02*
X0269246Y0295864D01*
X0268641Y0296469D01*
X0267075Y0296469D02*
X0266470Y0295864D01*
X0265259Y0295864D01*
X0264653Y0296469D01*
X0263088Y0295864D02*
X0261877Y0297075D01*
X0262482Y0297075D02*
X0260665Y0297075D01*
X0260665Y0295864D02*
X0260665Y0299498D01*
X0262482Y0299498D01*
X0263088Y0298892D01*
X0263088Y0297681D01*
X0262482Y0297075D01*
X0264653Y0298892D02*
X0265259Y0299498D01*
X0266470Y0299498D01*
X0267075Y0298892D01*
X0267075Y0298286D01*
X0266470Y0297681D01*
X0267075Y0297075D01*
X0267075Y0296469D01*
X0266470Y0297681D02*
X0265864Y0297681D01*
X0268641Y0298892D02*
X0269246Y0299498D01*
X0270458Y0299498D01*
X0271063Y0298892D01*
X0271063Y0298286D01*
X0270458Y0297681D01*
X0271063Y0297075D01*
X0271063Y0296469D01*
X0270458Y0295864D01*
X0270458Y0297681D02*
X0269852Y0297681D01*
X0246717Y0297402D02*
X0246717Y0294979D01*
X0244295Y0297402D01*
X0243689Y0297402D01*
X0243083Y0296796D01*
X0243083Y0295585D01*
X0243689Y0294979D01*
X0243689Y0293414D02*
X0243083Y0292809D01*
X0243083Y0291597D01*
X0243689Y0290992D01*
X0246112Y0290992D01*
X0246717Y0291597D01*
X0246717Y0292809D01*
X0246112Y0293414D01*
X0246112Y0298967D02*
X0243689Y0301390D01*
X0246112Y0301390D01*
X0246717Y0300784D01*
X0246717Y0299573D01*
X0246112Y0298967D01*
X0243689Y0298967D01*
X0243083Y0299573D01*
X0243083Y0300784D01*
X0243689Y0301390D01*
X0214352Y0287045D02*
X0211930Y0287045D01*
X0211930Y0285228D01*
X0213141Y0285834D01*
X0213746Y0285834D01*
X0214352Y0285228D01*
X0214352Y0284017D01*
X0213746Y0283411D01*
X0212535Y0283411D01*
X0211930Y0284017D01*
X0210364Y0284017D02*
X0210364Y0287045D01*
X0207942Y0287045D02*
X0207942Y0284017D01*
X0208548Y0283411D01*
X0209759Y0283411D01*
X0210364Y0284017D01*
X0180416Y0252872D02*
X0181627Y0251661D01*
X0164709Y0268492D02*
X0163498Y0268492D01*
X0162893Y0269097D01*
X0163498Y0270309D02*
X0165315Y0270309D01*
X0165315Y0271520D02*
X0164709Y0272126D01*
X0163498Y0272126D01*
X0162893Y0271520D01*
X0162893Y0270914D01*
X0163498Y0270309D01*
X0165315Y0271520D02*
X0165315Y0269097D01*
X0164709Y0268492D01*
X0161327Y0268492D02*
X0158905Y0268492D01*
X0160116Y0268492D02*
X0160116Y0272126D01*
X0158905Y0270914D01*
X0157340Y0271520D02*
X0156734Y0272126D01*
X0155523Y0272126D01*
X0154917Y0271520D01*
X0154917Y0269097D01*
X0155523Y0268492D01*
X0156734Y0268492D01*
X0157340Y0269097D01*
X0130467Y0294097D02*
X0130467Y0295309D01*
X0129862Y0295914D01*
X0130467Y0297479D02*
X0130467Y0299902D01*
X0130467Y0298691D02*
X0126833Y0298691D01*
X0128045Y0297479D01*
X0127439Y0295914D02*
X0126833Y0295309D01*
X0126833Y0294097D01*
X0127439Y0293492D01*
X0129862Y0293492D01*
X0130467Y0294097D01*
X0130467Y0301467D02*
X0129862Y0301467D01*
X0127439Y0303890D01*
X0126833Y0303890D01*
X0126833Y0301467D01*
X0145665Y0300748D02*
X0145665Y0297114D01*
X0145665Y0298325D02*
X0147482Y0298325D01*
X0148088Y0298931D01*
X0148088Y0300142D01*
X0147482Y0300748D01*
X0145665Y0300748D01*
X0146877Y0298325D02*
X0148088Y0297114D01*
X0149653Y0297114D02*
X0152075Y0299536D01*
X0152075Y0300142D01*
X0151470Y0300748D01*
X0150259Y0300748D01*
X0149653Y0300142D01*
X0149653Y0297114D02*
X0152075Y0297114D01*
X0153641Y0298931D02*
X0156063Y0298931D01*
X0155458Y0300748D02*
X0153641Y0298931D01*
X0155458Y0297114D02*
X0155458Y0300748D01*
X0098102Y0282728D02*
X0095680Y0282728D01*
X0097496Y0284545D01*
X0097496Y0280911D01*
X0094114Y0281517D02*
X0094114Y0284545D01*
X0091692Y0284545D02*
X0091692Y0281517D01*
X0092298Y0280911D01*
X0093509Y0280911D01*
X0094114Y0281517D01*
X0074602Y0264689D02*
X0074602Y0264084D01*
X0073996Y0263478D01*
X0074602Y0262872D01*
X0074602Y0262267D01*
X0073996Y0261661D01*
X0072785Y0261661D01*
X0072180Y0262267D01*
X0070614Y0261661D02*
X0068192Y0261661D01*
X0070614Y0264084D01*
X0070614Y0264689D01*
X0070009Y0265295D01*
X0068798Y0265295D01*
X0068192Y0264689D01*
X0066627Y0264689D02*
X0066627Y0263478D01*
X0066021Y0262872D01*
X0064204Y0262872D01*
X0064204Y0261661D02*
X0064204Y0265295D01*
X0066021Y0265295D01*
X0066627Y0264689D01*
X0065416Y0262872D02*
X0066627Y0261661D01*
X0066021Y0260295D02*
X0066627Y0259689D01*
X0066627Y0258478D01*
X0066021Y0257872D01*
X0064204Y0257872D01*
X0064204Y0256661D02*
X0064204Y0260295D01*
X0066021Y0260295D01*
X0068192Y0259689D02*
X0068798Y0260295D01*
X0070009Y0260295D01*
X0070614Y0259689D01*
X0070614Y0259084D01*
X0068192Y0256661D01*
X0070614Y0256661D01*
X0070009Y0255295D02*
X0068798Y0255295D01*
X0068192Y0254689D01*
X0066627Y0254689D02*
X0066627Y0253478D01*
X0066021Y0252872D01*
X0064204Y0252872D01*
X0064204Y0251661D02*
X0064204Y0255295D01*
X0066021Y0255295D01*
X0066627Y0254689D01*
X0066627Y0256661D02*
X0065416Y0257872D01*
X0070009Y0255295D02*
X0070614Y0254689D01*
X0070614Y0254084D01*
X0068192Y0251661D01*
X0070614Y0251661D01*
X0070009Y0250295D02*
X0068798Y0250295D01*
X0068192Y0249689D01*
X0066627Y0249689D02*
X0066627Y0248478D01*
X0066021Y0247872D01*
X0064204Y0247872D01*
X0064204Y0246661D02*
X0064204Y0250295D01*
X0066021Y0250295D01*
X0066627Y0249689D01*
X0066627Y0251661D02*
X0065416Y0252872D01*
X0070009Y0250295D02*
X0070614Y0249689D01*
X0070614Y0249084D01*
X0068192Y0246661D01*
X0070614Y0246661D01*
X0072180Y0247267D02*
X0074602Y0249689D01*
X0074602Y0247267D01*
X0073996Y0246661D01*
X0072785Y0246661D01*
X0072180Y0247267D01*
X0072180Y0249689D01*
X0072785Y0250295D01*
X0073996Y0250295D01*
X0074602Y0249689D01*
X0074602Y0251661D02*
X0072180Y0251661D01*
X0073391Y0251661D02*
X0073391Y0255295D01*
X0072180Y0254084D01*
X0072180Y0256661D02*
X0074602Y0259084D01*
X0074602Y0259689D01*
X0073996Y0260295D01*
X0072785Y0260295D01*
X0072180Y0259689D01*
X0072180Y0256661D02*
X0074602Y0256661D01*
X0073996Y0263478D02*
X0073391Y0263478D01*
X0074602Y0264689D02*
X0073996Y0265295D01*
X0072785Y0265295D01*
X0072180Y0264689D01*
X0065416Y0247872D02*
X0066627Y0246661D01*
X0066021Y0245295D02*
X0066627Y0244689D01*
X0066627Y0243478D01*
X0066021Y0242872D01*
X0064204Y0242872D01*
X0064204Y0241661D02*
X0064204Y0245295D01*
X0066021Y0245295D01*
X0068192Y0244084D02*
X0069403Y0245295D01*
X0069403Y0241661D01*
X0068192Y0241661D02*
X0070614Y0241661D01*
X0072180Y0242267D02*
X0072785Y0241661D01*
X0073996Y0241661D01*
X0074602Y0242267D01*
X0074602Y0244689D01*
X0073996Y0245295D01*
X0072785Y0245295D01*
X0072180Y0244689D01*
X0072180Y0244084D01*
X0072785Y0243478D01*
X0074602Y0243478D01*
X0073996Y0240295D02*
X0074602Y0239689D01*
X0074602Y0239084D01*
X0073996Y0238478D01*
X0072785Y0238478D01*
X0072180Y0239084D01*
X0072180Y0239689D01*
X0072785Y0240295D01*
X0073996Y0240295D01*
X0073996Y0238478D02*
X0074602Y0237872D01*
X0074602Y0237267D01*
X0073996Y0236661D01*
X0072785Y0236661D01*
X0072180Y0237267D01*
X0072180Y0237872D01*
X0072785Y0238478D01*
X0070614Y0236661D02*
X0068192Y0236661D01*
X0069403Y0236661D02*
X0069403Y0240295D01*
X0068192Y0239084D01*
X0066627Y0239689D02*
X0066627Y0238478D01*
X0066021Y0237872D01*
X0064204Y0237872D01*
X0064204Y0236661D02*
X0064204Y0240295D01*
X0066021Y0240295D01*
X0066627Y0239689D01*
X0066627Y0241661D02*
X0065416Y0242872D01*
X0065416Y0237872D02*
X0066627Y0236661D01*
X0066021Y0235295D02*
X0066627Y0234689D01*
X0066627Y0233478D01*
X0066021Y0232872D01*
X0064204Y0232872D01*
X0064204Y0231661D02*
X0064204Y0235295D01*
X0066021Y0235295D01*
X0068192Y0234084D02*
X0069403Y0235295D01*
X0069403Y0231661D01*
X0068192Y0231661D02*
X0070614Y0231661D01*
X0072180Y0231661D02*
X0072180Y0232267D01*
X0074602Y0234689D01*
X0074602Y0235295D01*
X0072180Y0235295D01*
X0074602Y0230295D02*
X0073391Y0229689D01*
X0072180Y0228478D01*
X0073996Y0228478D01*
X0074602Y0227872D01*
X0074602Y0227267D01*
X0073996Y0226661D01*
X0072785Y0226661D01*
X0072180Y0227267D01*
X0072180Y0228478D01*
X0070614Y0226661D02*
X0068192Y0226661D01*
X0069403Y0226661D02*
X0069403Y0230295D01*
X0068192Y0229084D01*
X0066627Y0229689D02*
X0066627Y0228478D01*
X0066021Y0227872D01*
X0064204Y0227872D01*
X0064204Y0226661D02*
X0064204Y0230295D01*
X0066021Y0230295D01*
X0066627Y0229689D01*
X0066627Y0231661D02*
X0065416Y0232872D01*
X0065416Y0227872D02*
X0066627Y0226661D01*
X0107454Y0226545D02*
X0107454Y0225334D01*
X0108059Y0224728D01*
X0108059Y0223163D02*
X0107454Y0222558D01*
X0107454Y0221346D01*
X0108059Y0220741D01*
X0110482Y0220741D01*
X0111087Y0221346D01*
X0111087Y0222558D01*
X0110482Y0223163D01*
X0111087Y0224728D02*
X0108665Y0227151D01*
X0108059Y0227151D01*
X0107454Y0226545D01*
X0108665Y0228716D02*
X0107454Y0229927D01*
X0111087Y0229927D01*
X0111087Y0228716D02*
X0111087Y0231139D01*
X0111087Y0227151D02*
X0111087Y0224728D01*
X0119139Y0194232D02*
X0121562Y0194232D01*
X0120351Y0194232D02*
X0120351Y0190598D01*
X0123127Y0190598D02*
X0123127Y0194232D01*
X0124944Y0194232D01*
X0125550Y0193626D01*
X0125550Y0192415D01*
X0124944Y0191809D01*
X0123127Y0191809D01*
X0127115Y0190598D02*
X0129537Y0193021D01*
X0129537Y0193626D01*
X0128932Y0194232D01*
X0127720Y0194232D01*
X0127115Y0193626D01*
X0127115Y0190598D02*
X0129537Y0190598D01*
X0129932Y0172795D02*
X0128720Y0172795D01*
X0128115Y0172189D01*
X0126550Y0172189D02*
X0125944Y0172795D01*
X0124127Y0172795D01*
X0124127Y0169161D01*
X0125944Y0169161D01*
X0126550Y0169767D01*
X0126550Y0172189D01*
X0128115Y0169161D02*
X0130537Y0171584D01*
X0130537Y0172189D01*
X0129932Y0172795D01*
X0130537Y0169161D02*
X0128115Y0169161D01*
X0125944Y0164045D02*
X0124127Y0164045D01*
X0124127Y0160411D01*
X0125944Y0160411D01*
X0126550Y0161017D01*
X0126550Y0163439D01*
X0125944Y0164045D01*
X0128115Y0162228D02*
X0129932Y0162228D01*
X0130537Y0161622D01*
X0130537Y0161017D01*
X0129932Y0160411D01*
X0128720Y0160411D01*
X0128115Y0161017D01*
X0128115Y0162228D01*
X0129326Y0163439D01*
X0130537Y0164045D01*
X0229599Y0131882D02*
X0229599Y0130671D01*
X0230205Y0130065D01*
X0230205Y0128500D02*
X0231416Y0128500D01*
X0232022Y0127894D01*
X0232022Y0126077D01*
X0233233Y0126077D02*
X0229599Y0126077D01*
X0229599Y0127894D01*
X0230205Y0128500D01*
X0232022Y0127289D02*
X0233233Y0128500D01*
X0233233Y0130065D02*
X0230810Y0132488D01*
X0230205Y0132488D01*
X0229599Y0131882D01*
X0233233Y0132488D02*
X0233233Y0130065D01*
X0229599Y0124512D02*
X0229599Y0122090D01*
X0229599Y0123301D02*
X0233233Y0123301D01*
X0231377Y0101238D02*
X0231983Y0100632D01*
X0231983Y0099421D01*
X0231377Y0098815D01*
X0230166Y0100026D02*
X0230166Y0100632D01*
X0230772Y0101238D01*
X0231377Y0101238D01*
X0230166Y0100632D02*
X0229560Y0101238D01*
X0228955Y0101238D01*
X0228349Y0100632D01*
X0228349Y0099421D01*
X0228955Y0098815D01*
X0230166Y0097250D02*
X0230166Y0094827D01*
X0228349Y0096644D01*
X0231983Y0096644D01*
X0231983Y0093262D02*
X0230772Y0092051D01*
X0230772Y0092657D02*
X0230772Y0090840D01*
X0231983Y0090840D02*
X0228349Y0090840D01*
X0228349Y0092657D01*
X0228955Y0093262D01*
X0230166Y0093262D01*
X0230772Y0092657D01*
X0245081Y0093272D02*
X0245081Y0094483D01*
X0245687Y0095089D01*
X0246293Y0095089D01*
X0246898Y0094483D01*
X0247504Y0095089D01*
X0248110Y0095089D01*
X0248715Y0094483D01*
X0248715Y0093272D01*
X0248110Y0092666D01*
X0248110Y0091101D02*
X0245081Y0091101D01*
X0245687Y0092666D02*
X0245081Y0093272D01*
X0246898Y0093878D02*
X0246898Y0094483D01*
X0248110Y0091101D02*
X0248715Y0090496D01*
X0248715Y0089284D01*
X0248110Y0088679D01*
X0245081Y0088679D01*
X0273831Y0089392D02*
X0277465Y0091814D01*
X0273831Y0091814D01*
X0273831Y0093379D02*
X0277465Y0093379D01*
X0277465Y0095802D01*
X0275648Y0094591D02*
X0275648Y0093379D01*
X0273831Y0093379D02*
X0273831Y0095802D01*
X0273831Y0089392D02*
X0277465Y0089392D01*
X0276860Y0087827D02*
X0274437Y0087827D01*
X0273831Y0087221D01*
X0273831Y0086010D01*
X0274437Y0085404D01*
X0276860Y0085404D01*
X0277465Y0086010D01*
X0277465Y0087221D01*
X0276860Y0087827D01*
X0276860Y0083839D02*
X0274437Y0083839D01*
X0273831Y0083233D01*
X0273831Y0081416D01*
X0277465Y0081416D01*
X0277465Y0083233D01*
X0276860Y0083839D01*
X0276860Y0079851D02*
X0277465Y0079246D01*
X0277465Y0078034D01*
X0276860Y0077429D01*
X0274437Y0077429D01*
X0273831Y0078034D01*
X0273831Y0079246D01*
X0274437Y0079851D01*
X0282452Y0079856D02*
X0282452Y0076222D01*
X0282452Y0077434D02*
X0284269Y0077434D01*
X0284875Y0078039D01*
X0284875Y0079251D01*
X0284269Y0079856D01*
X0282452Y0079856D01*
X0283664Y0077434D02*
X0284875Y0076222D01*
X0286440Y0076222D02*
X0288863Y0076222D01*
X0287651Y0076222D02*
X0287651Y0079856D01*
X0286440Y0078645D01*
X0290428Y0078039D02*
X0292850Y0078039D01*
X0292245Y0076222D02*
X0292245Y0079856D01*
X0290428Y0078039D01*
X0282465Y0072202D02*
X0282465Y0069779D01*
X0280043Y0072202D01*
X0279437Y0072202D01*
X0278831Y0071596D01*
X0278831Y0070385D01*
X0279437Y0069779D01*
X0278831Y0067003D02*
X0282465Y0067003D01*
X0282465Y0068214D02*
X0282465Y0065791D01*
X0281860Y0064226D02*
X0282465Y0063621D01*
X0282465Y0062409D01*
X0281860Y0061804D01*
X0279437Y0061804D01*
X0278831Y0062409D01*
X0278831Y0063621D01*
X0279437Y0064226D01*
X0280043Y0065791D02*
X0278831Y0067003D01*
X0305665Y0071784D02*
X0306271Y0071179D01*
X0307482Y0071179D01*
X0308088Y0071784D01*
X0308088Y0074813D01*
X0309653Y0074207D02*
X0310259Y0074813D01*
X0311470Y0074813D01*
X0312075Y0074207D01*
X0312075Y0073601D01*
X0309653Y0071179D01*
X0312075Y0071179D01*
X0305665Y0071784D02*
X0305665Y0074813D01*
X0311915Y0078679D02*
X0311915Y0082313D01*
X0313732Y0082313D01*
X0314338Y0081707D01*
X0314338Y0080496D01*
X0313732Y0079890D01*
X0311915Y0079890D01*
X0313127Y0079890D02*
X0314338Y0078679D01*
X0315903Y0079284D02*
X0316509Y0078679D01*
X0317720Y0078679D01*
X0318325Y0079284D01*
X0318325Y0081707D01*
X0317720Y0082313D01*
X0316509Y0082313D01*
X0315903Y0081707D01*
X0315903Y0081101D01*
X0316509Y0080496D01*
X0318325Y0080496D01*
X0323831Y0080128D02*
X0327465Y0080128D01*
X0327465Y0081339D02*
X0327465Y0078916D01*
X0327465Y0077351D02*
X0326254Y0076140D01*
X0326254Y0076746D02*
X0326254Y0074929D01*
X0327465Y0074929D02*
X0323831Y0074929D01*
X0323831Y0076746D01*
X0324437Y0077351D01*
X0325648Y0077351D01*
X0326254Y0076746D01*
X0325043Y0078916D02*
X0323831Y0080128D01*
X0325043Y0082904D02*
X0323831Y0084115D01*
X0327465Y0084115D01*
X0327465Y0082904D02*
X0327465Y0085327D01*
X0328162Y0092327D02*
X0328162Y0094144D01*
X0328768Y0094750D01*
X0329979Y0094750D01*
X0330585Y0094144D01*
X0330585Y0092327D01*
X0331796Y0092327D02*
X0328162Y0092327D01*
X0330585Y0093539D02*
X0331796Y0094750D01*
X0331190Y0096315D02*
X0330585Y0096315D01*
X0329979Y0096921D01*
X0329979Y0098132D01*
X0330585Y0098738D01*
X0331190Y0098738D01*
X0331796Y0098132D01*
X0331796Y0096921D01*
X0331190Y0096315D01*
X0329979Y0096921D02*
X0329373Y0096315D01*
X0328768Y0096315D01*
X0328162Y0096921D01*
X0328162Y0098132D01*
X0328768Y0098738D01*
X0329373Y0098738D01*
X0329979Y0098132D01*
X0344415Y0110908D02*
X0345021Y0110303D01*
X0346232Y0110303D01*
X0346838Y0110908D01*
X0348403Y0110303D02*
X0350825Y0110303D01*
X0349614Y0110303D02*
X0349614Y0113937D01*
X0348403Y0112725D01*
X0346838Y0113331D02*
X0346232Y0113937D01*
X0345021Y0113937D01*
X0344415Y0113331D01*
X0344415Y0110908D01*
X0352391Y0110303D02*
X0354813Y0110303D01*
X0353602Y0110303D02*
X0353602Y0113937D01*
X0352391Y0112725D01*
X0375665Y0110457D02*
X0375665Y0108034D01*
X0376271Y0107429D01*
X0377482Y0107429D01*
X0378088Y0108034D01*
X0379653Y0107429D02*
X0379653Y0111063D01*
X0381470Y0111063D01*
X0382075Y0110457D01*
X0382075Y0109246D01*
X0381470Y0108640D01*
X0379653Y0108640D01*
X0380864Y0108640D02*
X0382075Y0107429D01*
X0383641Y0107429D02*
X0386063Y0107429D01*
X0384852Y0109246D02*
X0383641Y0109246D01*
X0383641Y0111063D02*
X0383641Y0107429D01*
X0383641Y0111063D02*
X0386063Y0111063D01*
X0385458Y0116179D02*
X0386063Y0116784D01*
X0386063Y0119207D01*
X0385458Y0119813D01*
X0384246Y0119813D01*
X0383641Y0119207D01*
X0383641Y0116784D01*
X0384246Y0116179D01*
X0385458Y0116179D01*
X0382075Y0116784D02*
X0382075Y0119207D01*
X0381470Y0119813D01*
X0379653Y0119813D01*
X0379653Y0116179D01*
X0381470Y0116179D01*
X0382075Y0116784D01*
X0378088Y0116784D02*
X0377482Y0116179D01*
X0376271Y0116179D01*
X0375665Y0116784D01*
X0375665Y0119207D01*
X0376271Y0119813D01*
X0377482Y0119813D01*
X0378088Y0119207D01*
X0377482Y0111063D02*
X0376271Y0111063D01*
X0375665Y0110457D01*
X0377482Y0111063D02*
X0378088Y0110457D01*
X0377482Y0101063D02*
X0376271Y0101063D01*
X0375665Y0100457D01*
X0375665Y0098034D01*
X0376271Y0097429D01*
X0377482Y0097429D01*
X0378088Y0098034D01*
X0378088Y0099246D01*
X0376877Y0099246D01*
X0378088Y0100457D02*
X0377482Y0101063D01*
X0379653Y0101063D02*
X0382075Y0097429D01*
X0382075Y0101063D01*
X0383641Y0101063D02*
X0385458Y0101063D01*
X0386063Y0100457D01*
X0386063Y0098034D01*
X0385458Y0097429D01*
X0383641Y0097429D01*
X0383641Y0101063D01*
X0379653Y0101063D02*
X0379653Y0097429D01*
X0367313Y0090563D02*
X0364891Y0090563D01*
X0364891Y0088746D01*
X0366102Y0089351D01*
X0366708Y0089351D01*
X0367313Y0088746D01*
X0367313Y0087534D01*
X0366708Y0086929D01*
X0365496Y0086929D01*
X0364891Y0087534D01*
X0363325Y0086929D02*
X0360903Y0086929D01*
X0362114Y0086929D02*
X0362114Y0090563D01*
X0360903Y0089351D01*
X0359338Y0089957D02*
X0358732Y0090563D01*
X0357521Y0090563D01*
X0356915Y0089957D01*
X0356915Y0087534D01*
X0357521Y0086929D01*
X0358732Y0086929D01*
X0359338Y0087534D01*
X0363165Y0068563D02*
X0364377Y0068563D01*
X0363771Y0068563D02*
X0363771Y0064929D01*
X0363165Y0064929D02*
X0364377Y0064929D01*
X0365824Y0065534D02*
X0366429Y0064929D01*
X0367641Y0064929D01*
X0368246Y0065534D01*
X0369811Y0065534D02*
X0370417Y0064929D01*
X0371628Y0064929D01*
X0372234Y0065534D01*
X0372234Y0066140D01*
X0371628Y0066746D01*
X0371023Y0066746D01*
X0371628Y0066746D02*
X0372234Y0067351D01*
X0372234Y0067957D01*
X0371628Y0068563D01*
X0370417Y0068563D01*
X0369811Y0067957D01*
X0368246Y0067957D02*
X0367641Y0068563D01*
X0366429Y0068563D01*
X0365824Y0067957D01*
X0365824Y0065534D01*
X0346296Y0061508D02*
X0346296Y0060297D01*
X0345690Y0059691D01*
X0346296Y0058126D02*
X0346296Y0055703D01*
X0346296Y0056915D02*
X0342662Y0056915D01*
X0343873Y0055703D01*
X0343268Y0054138D02*
X0342662Y0053533D01*
X0342662Y0052321D01*
X0343268Y0051716D01*
X0345690Y0051716D01*
X0346296Y0052321D01*
X0346296Y0053533D01*
X0345690Y0054138D01*
X0343268Y0059691D02*
X0342662Y0060297D01*
X0342662Y0061508D01*
X0343268Y0062114D01*
X0343873Y0062114D01*
X0344479Y0061508D01*
X0345085Y0062114D01*
X0345690Y0062114D01*
X0346296Y0061508D01*
X0344479Y0061508D02*
X0344479Y0060902D01*
X0334297Y0049633D02*
X0330663Y0049633D01*
X0332480Y0047816D01*
X0332480Y0050239D01*
X0334297Y0046251D02*
X0334297Y0043828D01*
X0334297Y0045040D02*
X0330663Y0045040D01*
X0331874Y0043828D01*
X0331268Y0042263D02*
X0330663Y0041658D01*
X0330663Y0040446D01*
X0331268Y0039841D01*
X0333691Y0039841D01*
X0334297Y0040446D01*
X0334297Y0041658D01*
X0333691Y0042263D01*
X0328046Y0041638D02*
X0326835Y0040427D01*
X0326835Y0041033D02*
X0326835Y0039216D01*
X0328046Y0039216D02*
X0324412Y0039216D01*
X0324412Y0041033D01*
X0325018Y0041638D01*
X0326229Y0041638D01*
X0326835Y0041033D01*
X0328046Y0043203D02*
X0328046Y0045626D01*
X0328046Y0044415D02*
X0324412Y0044415D01*
X0325623Y0043203D01*
X0325018Y0047191D02*
X0324412Y0047797D01*
X0324412Y0049008D01*
X0325018Y0049614D01*
X0325623Y0049614D01*
X0328046Y0047191D01*
X0328046Y0049614D01*
X0325864Y0033563D02*
X0325864Y0029929D01*
X0324653Y0029929D02*
X0327075Y0029929D01*
X0324653Y0032351D02*
X0325864Y0033563D01*
X0323088Y0033563D02*
X0320665Y0029929D01*
X0323088Y0029929D02*
X0320665Y0033563D01*
X0345867Y0041712D02*
X0346473Y0041106D01*
X0347684Y0041106D01*
X0348290Y0041712D01*
X0348290Y0042318D01*
X0347684Y0042923D01*
X0346473Y0042923D01*
X0345867Y0043529D01*
X0345867Y0044134D01*
X0346473Y0044740D01*
X0347684Y0044740D01*
X0348290Y0044134D01*
X0349855Y0044740D02*
X0349855Y0041106D01*
X0351066Y0042318D01*
X0352277Y0041106D01*
X0352277Y0044740D01*
X0353842Y0043529D02*
X0355054Y0044740D01*
X0355054Y0041106D01*
X0356265Y0041106D02*
X0353842Y0041106D01*
X0306604Y0093910D02*
X0302970Y0093910D01*
X0306604Y0093910D02*
X0306604Y0096332D01*
X0306604Y0097898D02*
X0306604Y0100320D01*
X0306604Y0099109D02*
X0302970Y0099109D01*
X0304182Y0097898D01*
X0304708Y0105078D02*
X0304708Y0106895D01*
X0305314Y0107501D01*
X0306525Y0107501D01*
X0307131Y0106895D01*
X0307131Y0105078D01*
X0308342Y0105078D02*
X0304708Y0105078D01*
X0307131Y0106290D02*
X0308342Y0107501D01*
X0308342Y0109066D02*
X0307736Y0109066D01*
X0305314Y0111489D01*
X0304708Y0111489D01*
X0304708Y0109066D01*
X0293385Y0108897D02*
X0293385Y0110108D01*
X0292779Y0110714D01*
X0292174Y0110714D01*
X0291568Y0110108D01*
X0291568Y0108291D01*
X0292779Y0108291D01*
X0293385Y0108897D01*
X0291568Y0108291D02*
X0290357Y0109503D01*
X0289751Y0110714D01*
X0290357Y0106726D02*
X0291568Y0106726D01*
X0292174Y0106121D01*
X0292174Y0104304D01*
X0293385Y0104304D02*
X0289751Y0104304D01*
X0289751Y0106121D01*
X0290357Y0106726D01*
X0292174Y0105515D02*
X0293385Y0106726D01*
X0278046Y0106683D02*
X0278046Y0107894D01*
X0277440Y0108500D01*
X0277440Y0110065D02*
X0278046Y0110671D01*
X0278046Y0111882D01*
X0277440Y0112488D01*
X0276835Y0112488D01*
X0276229Y0111882D01*
X0276229Y0110065D01*
X0277440Y0110065D01*
X0276229Y0110065D02*
X0275018Y0111276D01*
X0274412Y0112488D01*
X0275018Y0108500D02*
X0274412Y0107894D01*
X0274412Y0106683D01*
X0275018Y0106077D01*
X0277440Y0106077D01*
X0278046Y0106683D01*
X0269360Y0120303D02*
X0266937Y0120303D01*
X0266331Y0120908D01*
X0266331Y0122120D01*
X0266937Y0122725D01*
X0266937Y0124290D02*
X0266331Y0124896D01*
X0266331Y0126107D01*
X0266937Y0126713D01*
X0267543Y0126713D01*
X0268148Y0126107D01*
X0268754Y0126713D01*
X0269360Y0126713D01*
X0269965Y0126107D01*
X0269965Y0124896D01*
X0269360Y0124290D01*
X0269360Y0122725D02*
X0269965Y0122120D01*
X0269965Y0120908D01*
X0269360Y0120303D01*
X0268148Y0125502D02*
X0268148Y0126107D01*
X0271902Y0137491D02*
X0274931Y0137491D01*
X0275536Y0138097D01*
X0275536Y0139308D01*
X0274931Y0139914D01*
X0271902Y0139914D01*
X0273114Y0141479D02*
X0271902Y0142690D01*
X0275536Y0142690D01*
X0275536Y0141479D02*
X0275536Y0143901D01*
X0269100Y0151597D02*
X0266678Y0151597D01*
X0269100Y0154020D01*
X0269100Y0154625D01*
X0268495Y0155231D01*
X0267283Y0155231D01*
X0266678Y0154625D01*
X0265113Y0154625D02*
X0264507Y0155231D01*
X0263296Y0155231D01*
X0262690Y0154625D01*
X0262690Y0152203D01*
X0263296Y0151597D01*
X0264507Y0151597D01*
X0265113Y0152203D01*
X0280687Y0167803D02*
X0280081Y0168408D01*
X0280081Y0169620D01*
X0280687Y0170225D01*
X0280081Y0171790D02*
X0281898Y0171790D01*
X0281293Y0173002D01*
X0281293Y0173607D01*
X0281898Y0174213D01*
X0283110Y0174213D01*
X0283715Y0173607D01*
X0283715Y0172396D01*
X0283110Y0171790D01*
X0283110Y0170225D02*
X0283715Y0169620D01*
X0283715Y0168408D01*
X0283110Y0167803D01*
X0280687Y0167803D01*
X0280081Y0171790D02*
X0280081Y0174213D01*
X0301331Y0179053D02*
X0301331Y0180870D01*
X0301937Y0181475D01*
X0303148Y0181475D01*
X0303754Y0180870D01*
X0303754Y0179053D01*
X0303754Y0180264D02*
X0304965Y0181475D01*
X0304965Y0183040D02*
X0304965Y0185463D01*
X0304965Y0184252D02*
X0301331Y0184252D01*
X0302543Y0183040D01*
X0301331Y0179053D02*
X0304965Y0179053D01*
X0307813Y0172589D02*
X0308419Y0172589D01*
X0309024Y0171983D01*
X0309024Y0170772D01*
X0308419Y0170166D01*
X0307813Y0170166D01*
X0307207Y0170772D01*
X0307207Y0171983D01*
X0307813Y0172589D01*
X0309024Y0171983D02*
X0309630Y0172589D01*
X0310236Y0172589D01*
X0310841Y0171983D01*
X0310841Y0170772D01*
X0310236Y0170166D01*
X0309630Y0170166D01*
X0309024Y0170772D01*
X0307813Y0168601D02*
X0307207Y0167996D01*
X0307207Y0166784D01*
X0307813Y0166179D01*
X0310236Y0166179D01*
X0310841Y0166784D01*
X0310841Y0167996D01*
X0310236Y0168601D01*
X0310278Y0165187D02*
X0312700Y0165187D01*
X0312700Y0164581D01*
X0310278Y0162158D01*
X0310278Y0161553D01*
X0308713Y0162158D02*
X0308107Y0161553D01*
X0306896Y0161553D01*
X0306290Y0162158D01*
X0306290Y0164581D01*
X0306896Y0165187D01*
X0308107Y0165187D01*
X0308713Y0164581D01*
X0320665Y0157706D02*
X0320665Y0155283D01*
X0321271Y0154678D01*
X0322482Y0154678D01*
X0323088Y0155283D01*
X0324653Y0154678D02*
X0327075Y0154678D01*
X0325864Y0154678D02*
X0325864Y0158312D01*
X0324653Y0157100D01*
X0323088Y0157706D02*
X0322482Y0158312D01*
X0321271Y0158312D01*
X0320665Y0157706D01*
X0321271Y0147687D02*
X0320665Y0147081D01*
X0320665Y0144658D01*
X0321271Y0144053D01*
X0322482Y0144053D01*
X0323088Y0144658D01*
X0324653Y0145870D02*
X0327075Y0145870D01*
X0326470Y0147687D02*
X0324653Y0145870D01*
X0323088Y0147081D02*
X0322482Y0147687D01*
X0321271Y0147687D01*
X0326470Y0147687D02*
X0326470Y0144053D01*
X0324215Y0138871D02*
X0324215Y0136449D01*
X0321793Y0138871D01*
X0321187Y0138871D01*
X0320581Y0138266D01*
X0320581Y0137054D01*
X0321187Y0136449D01*
X0321187Y0134884D02*
X0320581Y0134278D01*
X0320581Y0133067D01*
X0321187Y0132461D01*
X0323610Y0132461D01*
X0324215Y0133067D01*
X0324215Y0134278D01*
X0323610Y0134884D01*
X0324215Y0131014D02*
X0324215Y0129803D01*
X0324215Y0130408D02*
X0320581Y0130408D01*
X0320581Y0129803D02*
X0320581Y0131014D01*
X0343831Y0167803D02*
X0343831Y0169620D01*
X0344437Y0170225D01*
X0345648Y0170225D01*
X0346254Y0169620D01*
X0346254Y0167803D01*
X0346254Y0169014D02*
X0347465Y0170225D01*
X0347465Y0171790D02*
X0347465Y0174213D01*
X0347465Y0173002D02*
X0343831Y0173002D01*
X0345043Y0171790D01*
X0344437Y0175778D02*
X0343831Y0176384D01*
X0343831Y0177595D01*
X0344437Y0178201D01*
X0346860Y0175778D01*
X0347465Y0176384D01*
X0347465Y0177595D01*
X0346860Y0178201D01*
X0344437Y0178201D01*
X0344437Y0175778D02*
X0346860Y0175778D01*
X0347465Y0167803D02*
X0343831Y0167803D01*
X0353162Y0184295D02*
X0353162Y0185506D01*
X0353162Y0184901D02*
X0356796Y0184901D01*
X0356796Y0185506D02*
X0356796Y0184295D01*
X0356190Y0186953D02*
X0353768Y0186953D01*
X0353162Y0187559D01*
X0353162Y0188770D01*
X0353768Y0189376D01*
X0354373Y0190941D02*
X0353162Y0192152D01*
X0356796Y0192152D01*
X0356796Y0190941D02*
X0356796Y0193364D01*
X0356190Y0189376D02*
X0356796Y0188770D01*
X0356796Y0187559D01*
X0356190Y0186953D01*
X0363162Y0190059D02*
X0363768Y0189453D01*
X0366190Y0189453D01*
X0366796Y0190059D01*
X0366796Y0191270D01*
X0366190Y0191876D01*
X0366190Y0193441D02*
X0366796Y0194047D01*
X0366796Y0195258D01*
X0366190Y0195864D01*
X0363768Y0195864D01*
X0363162Y0195258D01*
X0363162Y0194047D01*
X0363768Y0193441D01*
X0364373Y0193441D01*
X0364979Y0194047D01*
X0364979Y0195864D01*
X0363768Y0191876D02*
X0363162Y0191270D01*
X0363162Y0190059D01*
X0365726Y0185065D02*
X0369360Y0185065D01*
X0369360Y0183854D02*
X0369360Y0186277D01*
X0366937Y0183854D02*
X0365726Y0185065D01*
X0366332Y0182289D02*
X0367543Y0182289D01*
X0368148Y0181683D01*
X0368148Y0179866D01*
X0369360Y0179866D02*
X0365726Y0179866D01*
X0365726Y0181683D01*
X0366332Y0182289D01*
X0365726Y0178301D02*
X0365726Y0177090D01*
X0365726Y0177696D02*
X0368754Y0177696D01*
X0369360Y0177090D01*
X0369360Y0176484D01*
X0368754Y0175879D01*
X0375665Y0169207D02*
X0376271Y0169813D01*
X0377482Y0169813D01*
X0378088Y0169207D01*
X0378088Y0168601D01*
X0377482Y0167996D01*
X0378088Y0167390D01*
X0378088Y0166784D01*
X0377482Y0166179D01*
X0376271Y0166179D01*
X0375665Y0166784D01*
X0376877Y0167996D02*
X0377482Y0167996D01*
X0379653Y0167390D02*
X0380864Y0166179D01*
X0382075Y0167390D01*
X0382075Y0169813D01*
X0383641Y0169207D02*
X0384246Y0169813D01*
X0385458Y0169813D01*
X0386063Y0169207D01*
X0386063Y0168601D01*
X0385458Y0167996D01*
X0386063Y0167390D01*
X0386063Y0166784D01*
X0385458Y0166179D01*
X0384246Y0166179D01*
X0383641Y0166784D01*
X0384852Y0167996D02*
X0385458Y0167996D01*
X0379653Y0167390D02*
X0379653Y0169813D01*
X0380259Y0159813D02*
X0379653Y0159207D01*
X0379653Y0156784D01*
X0380259Y0156179D01*
X0381470Y0156179D01*
X0382075Y0156784D01*
X0382075Y0159207D01*
X0381470Y0159813D01*
X0380259Y0159813D01*
X0378088Y0159207D02*
X0377482Y0159813D01*
X0376271Y0159813D01*
X0375665Y0159207D01*
X0375665Y0158601D01*
X0376271Y0157996D01*
X0377482Y0157996D01*
X0378088Y0157390D01*
X0378088Y0156784D01*
X0377482Y0156179D01*
X0376271Y0156179D01*
X0375665Y0156784D01*
X0376271Y0149813D02*
X0375665Y0149207D01*
X0375665Y0148601D01*
X0376271Y0147996D01*
X0377482Y0147996D01*
X0378088Y0147390D01*
X0378088Y0146784D01*
X0377482Y0146179D01*
X0376271Y0146179D01*
X0375665Y0146784D01*
X0376271Y0149813D02*
X0377482Y0149813D01*
X0378088Y0149207D01*
X0379653Y0149813D02*
X0380864Y0149813D01*
X0380259Y0149813D02*
X0380259Y0146179D01*
X0380864Y0146179D02*
X0379653Y0146179D01*
X0380259Y0139813D02*
X0379653Y0139207D01*
X0379653Y0136784D01*
X0380259Y0136179D01*
X0381470Y0136179D01*
X0382075Y0136784D01*
X0383641Y0136179D02*
X0383641Y0139813D01*
X0382075Y0139207D02*
X0381470Y0139813D01*
X0380259Y0139813D01*
X0378088Y0139207D02*
X0377482Y0139813D01*
X0376271Y0139813D01*
X0375665Y0139207D01*
X0375665Y0138601D01*
X0376271Y0137996D01*
X0377482Y0137996D01*
X0378088Y0137390D01*
X0378088Y0136784D01*
X0377482Y0136179D01*
X0376271Y0136179D01*
X0375665Y0136784D01*
X0376271Y0131063D02*
X0375665Y0130457D01*
X0375665Y0129851D01*
X0376271Y0129246D01*
X0377482Y0129246D01*
X0378088Y0128640D01*
X0378088Y0128034D01*
X0377482Y0127429D01*
X0376271Y0127429D01*
X0375665Y0128034D01*
X0376271Y0131063D02*
X0377482Y0131063D01*
X0378088Y0130457D01*
X0379653Y0130457D02*
X0379653Y0129851D01*
X0380259Y0129246D01*
X0381470Y0129246D01*
X0382075Y0128640D01*
X0382075Y0128034D01*
X0381470Y0127429D01*
X0380259Y0127429D01*
X0379653Y0128034D01*
X0379653Y0130457D02*
X0380259Y0131063D01*
X0381470Y0131063D01*
X0382075Y0130457D01*
X0386063Y0136179D02*
X0384246Y0137996D01*
X0383641Y0137390D02*
X0386063Y0139813D01*
X0333715Y0188408D02*
X0333715Y0189620D01*
X0333110Y0190225D01*
X0333715Y0191790D02*
X0333715Y0194213D01*
X0333715Y0193002D02*
X0330081Y0193002D01*
X0331293Y0191790D01*
X0330687Y0190225D02*
X0330081Y0189620D01*
X0330081Y0188408D01*
X0330687Y0187803D01*
X0333110Y0187803D01*
X0333715Y0188408D01*
X0333110Y0195778D02*
X0331898Y0195778D01*
X0331898Y0197595D01*
X0332504Y0198201D01*
X0333110Y0198201D01*
X0333715Y0197595D01*
X0333715Y0196384D01*
X0333110Y0195778D01*
X0331898Y0195778D02*
X0330687Y0196989D01*
X0330081Y0198201D01*
X0322465Y0192516D02*
X0318831Y0192516D01*
X0320648Y0190699D01*
X0320648Y0193121D01*
X0319437Y0189134D02*
X0318831Y0188528D01*
X0318831Y0187317D01*
X0319437Y0186711D01*
X0321860Y0186711D01*
X0322465Y0187317D01*
X0322465Y0188528D01*
X0321860Y0189134D01*
X0322465Y0185264D02*
X0322465Y0184053D01*
X0322465Y0184658D02*
X0318831Y0184658D01*
X0318831Y0184053D02*
X0318831Y0185264D01*
X0318715Y0200303D02*
X0315081Y0200303D01*
X0315081Y0202120D01*
X0315687Y0202725D01*
X0316898Y0202725D01*
X0317504Y0202120D01*
X0317504Y0200303D01*
X0317504Y0201514D02*
X0318715Y0202725D01*
X0318715Y0204290D02*
X0318715Y0206713D01*
X0318715Y0205502D02*
X0315081Y0205502D01*
X0316293Y0204290D01*
X0315687Y0208278D02*
X0315081Y0208884D01*
X0315081Y0210095D01*
X0315687Y0210701D01*
X0316293Y0210701D01*
X0316898Y0210095D01*
X0317504Y0210701D01*
X0318110Y0210701D01*
X0318715Y0210095D01*
X0318715Y0208884D01*
X0318110Y0208278D01*
X0316898Y0209489D02*
X0316898Y0210095D01*
X0336331Y0210534D02*
X0336937Y0209929D01*
X0339360Y0209929D01*
X0339965Y0210534D01*
X0339965Y0211746D01*
X0339360Y0212351D01*
X0339965Y0213916D02*
X0339965Y0216339D01*
X0339965Y0215128D02*
X0336331Y0215128D01*
X0337543Y0213916D01*
X0336937Y0212351D02*
X0336331Y0211746D01*
X0336331Y0210534D01*
X0336937Y0217904D02*
X0336331Y0218510D01*
X0336331Y0219721D01*
X0336937Y0220327D01*
X0339360Y0217904D01*
X0339965Y0218510D01*
X0339965Y0219721D01*
X0339360Y0220327D01*
X0336937Y0220327D01*
X0336937Y0217904D02*
X0339360Y0217904D01*
X0339546Y0234033D02*
X0340757Y0234033D01*
X0341363Y0234639D01*
X0341363Y0237667D01*
X0342928Y0235850D02*
X0344745Y0235850D01*
X0345350Y0235244D01*
X0345350Y0234639D01*
X0344745Y0234033D01*
X0343533Y0234033D01*
X0342928Y0234639D01*
X0342928Y0235850D01*
X0344139Y0237061D01*
X0345350Y0237667D01*
X0338940Y0237667D02*
X0338940Y0234639D01*
X0339546Y0234033D01*
X0340430Y0257035D02*
X0339824Y0257641D01*
X0339824Y0260063D01*
X0340430Y0260669D01*
X0341641Y0260669D01*
X0342247Y0260063D01*
X0343812Y0260063D02*
X0344418Y0260669D01*
X0345629Y0260669D01*
X0346235Y0260063D01*
X0346235Y0259458D01*
X0345629Y0258852D01*
X0346235Y0258246D01*
X0346235Y0257641D01*
X0345629Y0257035D01*
X0344418Y0257035D01*
X0343812Y0257641D01*
X0342247Y0257641D02*
X0341641Y0257035D01*
X0340430Y0257035D01*
X0345023Y0258852D02*
X0345629Y0258852D01*
X0347800Y0260063D02*
X0348405Y0260669D01*
X0349617Y0260669D01*
X0350222Y0260063D01*
X0347800Y0257641D01*
X0348405Y0257035D01*
X0349617Y0257035D01*
X0350222Y0257641D01*
X0350222Y0260063D01*
X0347800Y0260063D02*
X0347800Y0257641D01*
X0343777Y0278994D02*
X0343777Y0279599D01*
X0346199Y0282022D01*
X0346199Y0282628D01*
X0343777Y0282628D01*
X0342212Y0282628D02*
X0342212Y0279599D01*
X0341606Y0278994D01*
X0340395Y0278994D01*
X0339789Y0279599D01*
X0339789Y0282628D01*
X0240999Y0049749D02*
X0239788Y0049749D01*
X0239183Y0049143D01*
X0237617Y0049749D02*
X0235195Y0046115D01*
X0237617Y0046115D02*
X0235195Y0049749D01*
X0239183Y0046115D02*
X0241605Y0048537D01*
X0241605Y0049143D01*
X0240999Y0049749D01*
X0241605Y0046115D02*
X0239183Y0046115D01*
D14*
X0284065Y0060704D02*
X0289065Y0060704D01*
X0289065Y0072204D01*
X0284065Y0072204D01*
X0284065Y0060704D01*
X0299565Y0078329D02*
X0299565Y0083329D01*
X0311065Y0083329D01*
X0311065Y0078329D01*
X0299565Y0078329D01*
X0292815Y0081329D02*
X0287815Y0081329D01*
X0287815Y0092829D01*
X0292815Y0092829D01*
X0292815Y0081329D01*
X0317815Y0076579D02*
X0317815Y0065079D01*
X0322815Y0065079D01*
X0322815Y0076579D01*
X0317815Y0076579D01*
X0317815Y0064079D02*
X0322815Y0064079D01*
X0322815Y0052579D01*
X0317815Y0052579D01*
X0317815Y0064079D01*
X0324377Y0061241D02*
X0328753Y0061241D01*
X0328753Y0052916D01*
X0324377Y0052916D01*
X0324377Y0061241D01*
X0336378Y0067630D02*
X0344252Y0067630D01*
X0344252Y0086528D01*
X0336378Y0086528D01*
X0336378Y0067630D01*
X0346378Y0083880D02*
X0354252Y0083880D01*
X0354252Y0102778D01*
X0346378Y0102778D01*
X0346378Y0083880D01*
X0361910Y0095829D02*
X0361910Y0100829D01*
X0364410Y0103329D01*
X0361910Y0105829D01*
X0361910Y0110829D01*
X0364410Y0113329D01*
X0361910Y0115829D01*
X0361910Y0120829D01*
X0364410Y0123329D01*
X0361910Y0125829D01*
X0361910Y0130829D01*
X0364410Y0133329D01*
X0361910Y0135829D01*
X0361910Y0140829D01*
X0364410Y0143329D01*
X0361910Y0145829D01*
X0361910Y0150829D01*
X0364410Y0153329D01*
X0361910Y0155829D01*
X0361910Y0160829D01*
X0364410Y0163329D01*
X0361910Y0165829D01*
X0361910Y0170829D01*
X0364410Y0173329D01*
X0369410Y0173329D01*
X0371910Y0170829D01*
X0371910Y0165829D01*
X0369410Y0163329D01*
X0371910Y0160829D01*
X0371910Y0155829D01*
X0369410Y0153329D01*
X0371910Y0150829D01*
X0371910Y0145829D01*
X0369410Y0143329D01*
X0371910Y0140829D01*
X0371910Y0135829D01*
X0369410Y0133329D01*
X0371910Y0130829D01*
X0371910Y0125829D01*
X0369410Y0123329D01*
X0371910Y0120829D01*
X0371910Y0115829D01*
X0369410Y0113329D01*
X0371910Y0110829D01*
X0371910Y0105829D01*
X0369410Y0103329D01*
X0371910Y0100829D01*
X0371910Y0095829D01*
X0369410Y0093329D01*
X0364410Y0093329D01*
X0361910Y0095829D01*
X0343565Y0114953D02*
X0343565Y0119953D01*
X0332065Y0119953D01*
X0332065Y0114953D01*
X0343565Y0114953D01*
X0332815Y0111953D02*
X0327815Y0111953D01*
X0327815Y0100453D01*
X0332815Y0100453D01*
X0332815Y0111953D01*
X0326400Y0133553D02*
X0326402Y0133600D01*
X0326408Y0133647D01*
X0326418Y0133694D01*
X0326431Y0133739D01*
X0326449Y0133783D01*
X0326470Y0133825D01*
X0326494Y0133866D01*
X0326522Y0133904D01*
X0326553Y0133940D01*
X0326587Y0133973D01*
X0326623Y0134003D01*
X0326662Y0134030D01*
X0326703Y0134054D01*
X0326746Y0134074D01*
X0326790Y0134090D01*
X0326836Y0134103D01*
X0326882Y0134112D01*
X0326930Y0134117D01*
X0326977Y0134118D01*
X0327024Y0134115D01*
X0327071Y0134108D01*
X0327117Y0134097D01*
X0327162Y0134083D01*
X0327206Y0134064D01*
X0327247Y0134042D01*
X0327287Y0134017D01*
X0327325Y0133988D01*
X0327360Y0133957D01*
X0327393Y0133922D01*
X0327422Y0133885D01*
X0327448Y0133846D01*
X0327471Y0133804D01*
X0327490Y0133761D01*
X0327506Y0133716D01*
X0327518Y0133670D01*
X0327526Y0133624D01*
X0327530Y0133577D01*
X0327530Y0133529D01*
X0327526Y0133482D01*
X0327518Y0133436D01*
X0327506Y0133390D01*
X0327490Y0133345D01*
X0327471Y0133302D01*
X0327448Y0133260D01*
X0327422Y0133221D01*
X0327393Y0133184D01*
X0327360Y0133149D01*
X0327325Y0133118D01*
X0327287Y0133089D01*
X0327248Y0133064D01*
X0327206Y0133042D01*
X0327162Y0133023D01*
X0327117Y0133009D01*
X0327071Y0132998D01*
X0327024Y0132991D01*
X0326977Y0132988D01*
X0326930Y0132989D01*
X0326882Y0132994D01*
X0326836Y0133003D01*
X0326790Y0133016D01*
X0326746Y0133032D01*
X0326703Y0133052D01*
X0326662Y0133076D01*
X0326623Y0133103D01*
X0326587Y0133133D01*
X0326553Y0133166D01*
X0326522Y0133202D01*
X0326494Y0133240D01*
X0326470Y0133281D01*
X0326449Y0133323D01*
X0326431Y0133367D01*
X0326418Y0133412D01*
X0326408Y0133459D01*
X0326402Y0133506D01*
X0326400Y0133553D01*
X0319815Y0146203D02*
X0308315Y0146203D01*
X0308315Y0151203D01*
X0319815Y0151203D01*
X0319815Y0146203D01*
X0319815Y0151203D02*
X0308315Y0151203D01*
X0308315Y0156203D01*
X0319815Y0156203D01*
X0319815Y0151203D01*
X0306065Y0161203D02*
X0306065Y0166203D01*
X0306065Y0171203D01*
X0294565Y0171203D01*
X0294565Y0166203D01*
X0306065Y0166203D01*
X0294565Y0166203D01*
X0294565Y0161203D01*
X0306065Y0161203D01*
X0300315Y0172953D02*
X0295315Y0172953D01*
X0295315Y0184453D01*
X0300315Y0184453D01*
X0300315Y0172953D01*
X0290315Y0176953D02*
X0290315Y0165453D01*
X0285315Y0165453D01*
X0285315Y0176953D01*
X0290315Y0176953D01*
X0278565Y0161203D02*
X0278565Y0156203D01*
X0267065Y0156203D01*
X0267065Y0161203D01*
X0278565Y0161203D01*
X0312815Y0185453D02*
X0317815Y0185453D01*
X0317815Y0196953D01*
X0312815Y0196953D01*
X0312815Y0185453D01*
X0325315Y0186953D02*
X0330315Y0186953D01*
X0330315Y0175453D01*
X0325315Y0175453D01*
X0325315Y0186953D01*
X0336565Y0196329D02*
X0341565Y0196329D01*
X0341565Y0207829D01*
X0336565Y0207829D01*
X0336565Y0196329D01*
X0348997Y0195494D02*
X0354165Y0195494D01*
X0354165Y0199269D01*
X0348965Y0201203D02*
X0348965Y0203009D01*
X0354165Y0204888D02*
X0354165Y0208663D01*
X0348997Y0208663D01*
X0361565Y0211579D02*
X0361565Y0200079D01*
X0366565Y0200079D01*
X0366565Y0211579D01*
X0361565Y0211579D01*
X0342815Y0176953D02*
X0337815Y0176953D01*
X0337815Y0165453D01*
X0342815Y0165453D01*
X0342815Y0176953D01*
X0305315Y0222264D02*
X0300315Y0222264D01*
X0300315Y0233764D01*
X0305315Y0233764D01*
X0305315Y0222264D01*
X0277689Y0228644D02*
X0277689Y0233644D01*
X0266189Y0233644D01*
X0266189Y0228644D01*
X0277689Y0228644D01*
X0273179Y0221060D02*
X0273179Y0213973D01*
X0268455Y0213973D02*
X0268455Y0221060D01*
X0264627Y0227704D02*
X0264627Y0212704D01*
X0257627Y0212704D01*
X0257627Y0227704D01*
X0264627Y0227704D01*
X0257067Y0227642D02*
X0252067Y0227642D01*
X0252067Y0216142D01*
X0257067Y0216142D01*
X0257067Y0227642D01*
X0259390Y0240494D02*
X0224744Y0240494D01*
X0223170Y0242069D01*
X0223170Y0276715D01*
X0224744Y0278289D01*
X0259390Y0278289D01*
X0260965Y0276715D01*
X0260965Y0242069D01*
X0259390Y0240494D01*
X0268817Y0263142D02*
X0268817Y0268142D01*
X0280317Y0268142D01*
X0280317Y0263142D01*
X0268817Y0263142D01*
X0289567Y0278642D02*
X0294567Y0278642D01*
X0294567Y0290142D01*
X0289567Y0290142D01*
X0289567Y0278642D01*
X0289567Y0284892D02*
X0294567Y0284892D01*
X0294567Y0296392D01*
X0289567Y0296392D01*
X0289567Y0284892D01*
X0271065Y0289264D02*
X0259565Y0289264D01*
X0259565Y0294264D01*
X0271065Y0294264D01*
X0271065Y0289264D01*
X0238317Y0286142D02*
X0233317Y0286142D01*
X0233317Y0297642D01*
X0238317Y0297642D01*
X0238317Y0286142D01*
X0202817Y0266892D02*
X0202817Y0261892D01*
X0191317Y0261892D01*
X0191317Y0266892D01*
X0202817Y0266892D01*
X0202817Y0261892D02*
X0202817Y0256892D01*
X0191317Y0256892D01*
X0191317Y0261892D01*
X0202817Y0261892D01*
X0202817Y0256892D02*
X0202817Y0251892D01*
X0191317Y0251892D01*
X0191317Y0256892D01*
X0202817Y0256892D01*
X0202817Y0251892D02*
X0202817Y0246892D01*
X0191317Y0246892D01*
X0191317Y0251892D01*
X0202817Y0251892D01*
X0202817Y0246892D02*
X0202817Y0241892D01*
X0191317Y0241892D01*
X0191317Y0246892D01*
X0202817Y0246892D01*
X0202817Y0241892D02*
X0202817Y0236892D01*
X0191317Y0236892D01*
X0191317Y0241892D01*
X0202817Y0241892D01*
X0202817Y0236892D02*
X0202817Y0231892D01*
X0191317Y0231892D01*
X0191317Y0236892D01*
X0202817Y0236892D01*
X0202817Y0231892D02*
X0202817Y0226892D01*
X0191317Y0226892D01*
X0191317Y0231892D01*
X0202817Y0231892D01*
X0211752Y0231829D02*
X0211752Y0224829D01*
X0226752Y0224829D01*
X0226752Y0231829D01*
X0211752Y0231829D01*
X0227067Y0231392D02*
X0227067Y0219892D01*
X0232067Y0219892D01*
X0232067Y0231392D01*
X0227067Y0231392D01*
X0166567Y0261892D02*
X0155067Y0261892D01*
X0155067Y0266892D01*
X0166567Y0266892D01*
X0166567Y0261892D01*
X0145965Y0276715D02*
X0145965Y0242069D01*
X0144390Y0240494D01*
X0109744Y0240494D01*
X0108170Y0242069D01*
X0108170Y0276715D01*
X0109744Y0278289D01*
X0144390Y0278289D01*
X0145965Y0276715D01*
X0144565Y0289264D02*
X0144565Y0294264D01*
X0156065Y0294264D01*
X0156065Y0289264D01*
X0144565Y0289264D01*
X0123317Y0286142D02*
X0118317Y0286142D01*
X0118317Y0297642D01*
X0123317Y0297642D01*
X0123317Y0286142D01*
X0087817Y0266892D02*
X0087817Y0261892D01*
X0076317Y0261892D01*
X0076317Y0266892D01*
X0087817Y0266892D01*
X0087817Y0261892D02*
X0087817Y0256892D01*
X0076317Y0256892D01*
X0076317Y0261892D01*
X0087817Y0261892D01*
X0087817Y0256892D02*
X0076317Y0256892D01*
X0076317Y0251892D01*
X0087817Y0251892D01*
X0087817Y0256892D01*
X0087817Y0251892D02*
X0087817Y0246892D01*
X0076317Y0246892D01*
X0076317Y0251892D01*
X0087817Y0251892D01*
X0087817Y0246892D02*
X0076317Y0246892D01*
X0076317Y0241892D01*
X0087817Y0241892D01*
X0087817Y0246892D01*
X0087817Y0241892D02*
X0076317Y0241892D01*
X0076317Y0236892D01*
X0087817Y0236892D01*
X0087817Y0241892D01*
X0087817Y0236892D02*
X0087817Y0231892D01*
X0076317Y0231892D01*
X0076317Y0236892D01*
X0087817Y0236892D01*
X0087817Y0231892D02*
X0076317Y0231892D01*
X0076317Y0226892D01*
X0087817Y0226892D01*
X0087817Y0231892D01*
X0112067Y0232017D02*
X0112067Y0220517D01*
X0117067Y0220517D01*
X0117067Y0232017D01*
X0112067Y0232017D01*
X0117002Y0232079D02*
X0124002Y0232079D01*
X0124002Y0217079D01*
X0117002Y0217079D01*
X0117002Y0232079D01*
X0135817Y0228892D02*
X0135817Y0217392D01*
X0140817Y0217392D01*
X0140817Y0228892D01*
X0135817Y0228892D01*
X0142002Y0228954D02*
X0149002Y0228954D01*
X0149002Y0213954D01*
X0142002Y0213954D01*
X0142002Y0228954D01*
X0150067Y0230642D02*
X0150067Y0235642D01*
X0161567Y0235642D01*
X0161567Y0230642D01*
X0150067Y0230642D01*
X0151580Y0222310D02*
X0151580Y0215223D01*
X0156304Y0215223D02*
X0156304Y0222310D01*
X0161252Y0156203D02*
X0149752Y0156203D01*
X0149752Y0151203D01*
X0161252Y0151203D01*
X0161252Y0156203D01*
X0208502Y0156203D02*
X0208502Y0151203D01*
X0220002Y0151203D01*
X0220002Y0156203D01*
X0208502Y0156203D01*
X0271565Y0129453D02*
X0271565Y0117953D01*
X0276565Y0117953D01*
X0276565Y0129453D01*
X0271565Y0129453D01*
X0280315Y0121953D02*
X0285315Y0121953D01*
X0285315Y0110453D01*
X0280315Y0110453D01*
X0280315Y0121953D01*
X0294673Y0111866D02*
X0299048Y0111866D01*
X0303423Y0111866D01*
X0303423Y0103541D01*
X0299048Y0103541D01*
X0299048Y0111866D01*
X0299048Y0103541D01*
X0294673Y0103541D01*
X0294673Y0111866D01*
X0226752Y0101953D02*
X0226752Y0090453D01*
X0221752Y0090453D01*
X0221752Y0101953D01*
X0226752Y0101953D01*
X0161752Y0101953D02*
X0161752Y0090453D01*
X0156752Y0090453D01*
X0156752Y0101953D01*
X0161752Y0101953D01*
X0108752Y0142079D02*
X0108752Y0147079D01*
X0097252Y0147079D01*
X0097252Y0142079D01*
X0108752Y0142079D01*
X0102502Y0142079D02*
X0102502Y0147079D01*
X0091002Y0147079D01*
X0091002Y0142079D01*
X0102502Y0142079D01*
X0102502Y0148329D02*
X0102502Y0153329D01*
X0091002Y0153329D01*
X0091002Y0148329D01*
X0102502Y0148329D01*
X0097252Y0148329D02*
X0097252Y0153329D01*
X0108752Y0153329D01*
X0108752Y0148329D01*
X0097252Y0148329D01*
X0070502Y0141579D02*
X0070502Y0130079D01*
X0065502Y0130079D01*
X0065502Y0141579D01*
X0070502Y0141579D01*
X0053002Y0142829D02*
X0053002Y0131329D01*
X0048002Y0131329D01*
X0048002Y0142829D01*
X0053002Y0142829D01*
X0049252Y0112829D02*
X0044252Y0112829D01*
X0044252Y0101329D01*
X0049252Y0101329D01*
X0049252Y0112829D01*
X0061752Y0112829D02*
X0061752Y0101329D01*
X0066752Y0101329D01*
X0066752Y0112829D01*
X0061752Y0112829D01*
X0072953Y0076341D02*
X0085552Y0076341D01*
X0085552Y0075947D01*
X0072953Y0075947D02*
X0072953Y0076341D01*
X0072953Y0065711D02*
X0072953Y0065317D01*
X0085552Y0065317D01*
X0085552Y0065711D01*
X0095502Y0065329D02*
X0100502Y0065329D01*
X0100502Y0053829D01*
X0095502Y0053829D01*
X0095502Y0065329D01*
X0297067Y0247392D02*
X0302067Y0247392D01*
X0302067Y0258892D01*
X0297067Y0258892D01*
X0297067Y0247392D01*
X0339437Y0263516D02*
X0339437Y0268516D01*
X0350937Y0268516D01*
X0350937Y0263516D01*
X0339437Y0263516D01*
D15*
X0282815Y0086587D03*
D16*
X0328516Y0134104D02*
X0328516Y0148301D01*
X0347114Y0148301D02*
X0347114Y0134104D01*
X0348467Y0077768D02*
X0348837Y0077768D01*
X0348467Y0077768D02*
X0348467Y0071390D01*
X0348837Y0071390D01*
X0352010Y0071390D02*
X0352380Y0071390D01*
X0355750Y0071390D02*
X0356120Y0071390D01*
X0359294Y0071390D02*
X0359664Y0071390D01*
X0359664Y0077768D01*
X0359294Y0077768D01*
X0356120Y0077768D02*
X0352010Y0077768D01*
X0221952Y0053503D02*
X0221952Y0002903D01*
X0210752Y0002703D02*
X0210752Y0052903D01*
X0221952Y0053503D02*
X0176552Y0053503D01*
X0176552Y0002903D01*
X0187752Y0002703D02*
X0187752Y0053003D01*
X0166952Y0053503D02*
X0121552Y0053503D01*
X0121552Y0002903D01*
X0132752Y0002703D02*
X0132752Y0053003D01*
X0155752Y0052903D02*
X0155752Y0002703D01*
X0166952Y0002903D02*
X0166952Y0053503D01*
X0115562Y0143629D02*
X0115562Y0147032D01*
X0113860Y0145330D01*
X0116129Y0145330D01*
X0112446Y0145330D02*
X0111879Y0144763D01*
X0110177Y0144763D01*
X0110177Y0143629D02*
X0110177Y0147032D01*
X0111879Y0147032D01*
X0112446Y0146464D01*
X0112446Y0145330D01*
X0111312Y0144763D02*
X0112446Y0143629D01*
X0112446Y0149254D02*
X0111312Y0150388D01*
X0111879Y0150388D02*
X0110177Y0150388D01*
X0110177Y0149254D02*
X0110177Y0152657D01*
X0111879Y0152657D01*
X0112446Y0152089D01*
X0112446Y0150955D01*
X0111879Y0150388D01*
X0113860Y0149254D02*
X0116129Y0151522D01*
X0116129Y0152089D01*
X0115562Y0152657D01*
X0114428Y0152657D01*
X0113860Y0152089D01*
X0113860Y0149254D02*
X0116129Y0149254D01*
X0089388Y0149571D02*
X0088821Y0149004D01*
X0087686Y0149004D01*
X0087119Y0149571D01*
X0085705Y0149004D02*
X0084570Y0150138D01*
X0085137Y0150138D02*
X0083436Y0150138D01*
X0083436Y0149004D02*
X0083436Y0152407D01*
X0085137Y0152407D01*
X0085705Y0151839D01*
X0085705Y0150705D01*
X0085137Y0150138D01*
X0087119Y0151839D02*
X0087686Y0152407D01*
X0088821Y0152407D01*
X0089388Y0151839D01*
X0089388Y0151272D01*
X0088821Y0150705D01*
X0089388Y0150138D01*
X0089388Y0149571D01*
X0088821Y0150705D02*
X0088253Y0150705D01*
X0087119Y0146782D02*
X0087119Y0145080D01*
X0088253Y0145647D01*
X0088821Y0145647D01*
X0089388Y0145080D01*
X0089388Y0143946D01*
X0088821Y0143379D01*
X0087686Y0143379D01*
X0087119Y0143946D01*
X0085705Y0143379D02*
X0084570Y0144513D01*
X0085137Y0144513D02*
X0083436Y0144513D01*
X0083436Y0143379D02*
X0083436Y0146782D01*
X0085137Y0146782D01*
X0085705Y0146214D01*
X0085705Y0145080D01*
X0085137Y0144513D01*
X0087119Y0146782D02*
X0089388Y0146782D01*
X0145799Y0200021D02*
X0146367Y0199454D01*
X0148635Y0199454D01*
X0149202Y0200021D01*
X0149202Y0201156D01*
X0148635Y0201723D01*
X0149202Y0203137D02*
X0146934Y0205406D01*
X0146367Y0205406D01*
X0145799Y0204839D01*
X0145799Y0203705D01*
X0146367Y0203137D01*
X0146367Y0201723D02*
X0145799Y0201156D01*
X0145799Y0200021D01*
X0149202Y0203137D02*
X0149202Y0205406D01*
X0148635Y0206821D02*
X0149202Y0207388D01*
X0149202Y0208522D01*
X0148635Y0209089D01*
X0147501Y0209089D01*
X0146934Y0208522D01*
X0146934Y0207955D01*
X0147501Y0206821D01*
X0145799Y0206821D01*
X0145799Y0209089D01*
X0121702Y0210012D02*
X0119434Y0212281D01*
X0118867Y0212281D01*
X0118299Y0211714D01*
X0118299Y0210580D01*
X0118867Y0210012D01*
X0118867Y0208598D02*
X0118299Y0208031D01*
X0118299Y0206896D01*
X0118867Y0206329D01*
X0121135Y0206329D01*
X0121702Y0206896D01*
X0121702Y0208031D01*
X0121135Y0208598D01*
X0121702Y0210012D02*
X0121702Y0212281D01*
X0121135Y0213696D02*
X0120568Y0213696D01*
X0120001Y0214263D01*
X0120001Y0215397D01*
X0120568Y0215964D01*
X0121135Y0215964D01*
X0121702Y0215397D01*
X0121702Y0214263D01*
X0121135Y0213696D01*
X0120001Y0214263D02*
X0119434Y0213696D01*
X0118867Y0213696D01*
X0118299Y0214263D01*
X0118299Y0215397D01*
X0118867Y0215964D01*
X0119434Y0215964D01*
X0120001Y0215397D01*
X0258924Y0211589D02*
X0259492Y0210455D01*
X0260626Y0209321D01*
X0260626Y0211022D01*
X0261193Y0211589D01*
X0261760Y0211589D01*
X0262327Y0211022D01*
X0262327Y0209888D01*
X0261760Y0209321D01*
X0260626Y0209321D01*
X0260059Y0207906D02*
X0262327Y0205637D01*
X0262327Y0207906D01*
X0260059Y0207906D02*
X0259492Y0207906D01*
X0258924Y0207339D01*
X0258924Y0206205D01*
X0259492Y0205637D01*
X0259492Y0204223D02*
X0258924Y0203656D01*
X0258924Y0202521D01*
X0259492Y0201954D01*
X0261760Y0201954D01*
X0262327Y0202521D01*
X0262327Y0203656D01*
X0261760Y0204223D01*
D17*
X0314075Y0182364D02*
X0314077Y0182412D01*
X0314083Y0182460D01*
X0314093Y0182507D01*
X0314106Y0182553D01*
X0314124Y0182598D01*
X0314144Y0182642D01*
X0314169Y0182684D01*
X0314197Y0182723D01*
X0314227Y0182760D01*
X0314261Y0182794D01*
X0314298Y0182826D01*
X0314336Y0182855D01*
X0314377Y0182880D01*
X0314420Y0182902D01*
X0314465Y0182920D01*
X0314511Y0182934D01*
X0314558Y0182945D01*
X0314606Y0182952D01*
X0314654Y0182955D01*
X0314702Y0182954D01*
X0314750Y0182949D01*
X0314798Y0182940D01*
X0314844Y0182928D01*
X0314889Y0182911D01*
X0314933Y0182891D01*
X0314975Y0182868D01*
X0315015Y0182841D01*
X0315053Y0182811D01*
X0315088Y0182778D01*
X0315120Y0182742D01*
X0315150Y0182704D01*
X0315176Y0182663D01*
X0315198Y0182620D01*
X0315218Y0182576D01*
X0315233Y0182531D01*
X0315245Y0182484D01*
X0315253Y0182436D01*
X0315257Y0182388D01*
X0315257Y0182340D01*
X0315253Y0182292D01*
X0315245Y0182244D01*
X0315233Y0182197D01*
X0315218Y0182152D01*
X0315198Y0182108D01*
X0315176Y0182065D01*
X0315150Y0182024D01*
X0315120Y0181986D01*
X0315088Y0181950D01*
X0315053Y0181917D01*
X0315015Y0181887D01*
X0314975Y0181860D01*
X0314933Y0181837D01*
X0314889Y0181817D01*
X0314844Y0181800D01*
X0314798Y0181788D01*
X0314750Y0181779D01*
X0314702Y0181774D01*
X0314654Y0181773D01*
X0314606Y0181776D01*
X0314558Y0181783D01*
X0314511Y0181794D01*
X0314465Y0181808D01*
X0314420Y0181826D01*
X0314377Y0181848D01*
X0314336Y0181873D01*
X0314298Y0181902D01*
X0314261Y0181934D01*
X0314227Y0181968D01*
X0314197Y0182005D01*
X0314169Y0182044D01*
X0314144Y0182086D01*
X0314124Y0182130D01*
X0314106Y0182175D01*
X0314093Y0182221D01*
X0314083Y0182268D01*
X0314077Y0182316D01*
X0314075Y0182364D01*
X0306792Y0155297D02*
X0305414Y0155297D01*
X0306792Y0155297D02*
X0306792Y0153722D01*
X0280414Y0155297D02*
X0278839Y0155297D01*
X0278839Y0153526D01*
X0278839Y0128919D02*
X0278839Y0128526D01*
X0280020Y0127344D01*
X0280611Y0127344D01*
X0305217Y0127344D02*
X0306792Y0127344D01*
X0306792Y0128722D01*
X0347421Y0070829D02*
X0347423Y0070868D01*
X0347429Y0070907D01*
X0347439Y0070945D01*
X0347452Y0070982D01*
X0347469Y0071017D01*
X0347489Y0071051D01*
X0347513Y0071082D01*
X0347540Y0071111D01*
X0347569Y0071137D01*
X0347601Y0071160D01*
X0347635Y0071180D01*
X0347671Y0071196D01*
X0347708Y0071208D01*
X0347747Y0071217D01*
X0347786Y0071222D01*
X0347825Y0071223D01*
X0347864Y0071220D01*
X0347903Y0071213D01*
X0347940Y0071202D01*
X0347977Y0071188D01*
X0348012Y0071170D01*
X0348045Y0071149D01*
X0348076Y0071124D01*
X0348104Y0071097D01*
X0348129Y0071067D01*
X0348151Y0071034D01*
X0348170Y0071000D01*
X0348185Y0070964D01*
X0348197Y0070926D01*
X0348205Y0070888D01*
X0348209Y0070849D01*
X0348209Y0070809D01*
X0348205Y0070770D01*
X0348197Y0070732D01*
X0348185Y0070694D01*
X0348170Y0070658D01*
X0348151Y0070624D01*
X0348129Y0070591D01*
X0348104Y0070561D01*
X0348076Y0070534D01*
X0348045Y0070509D01*
X0348012Y0070488D01*
X0347977Y0070470D01*
X0347940Y0070456D01*
X0347903Y0070445D01*
X0347864Y0070438D01*
X0347825Y0070435D01*
X0347786Y0070436D01*
X0347747Y0070441D01*
X0347708Y0070450D01*
X0347671Y0070462D01*
X0347635Y0070478D01*
X0347601Y0070498D01*
X0347569Y0070521D01*
X0347540Y0070547D01*
X0347513Y0070576D01*
X0347489Y0070607D01*
X0347469Y0070641D01*
X0347452Y0070676D01*
X0347439Y0070713D01*
X0347429Y0070751D01*
X0347423Y0070790D01*
X0347421Y0070829D01*
X0347423Y0070868D01*
X0347429Y0070907D01*
X0347439Y0070945D01*
X0347452Y0070982D01*
X0347469Y0071017D01*
X0347489Y0071051D01*
X0347513Y0071082D01*
X0347540Y0071111D01*
X0347569Y0071137D01*
X0347601Y0071160D01*
X0347635Y0071180D01*
X0347671Y0071196D01*
X0347708Y0071208D01*
X0347747Y0071217D01*
X0347786Y0071222D01*
X0347825Y0071223D01*
X0347864Y0071220D01*
X0347903Y0071213D01*
X0347940Y0071202D01*
X0347977Y0071188D01*
X0348012Y0071170D01*
X0348045Y0071149D01*
X0348076Y0071124D01*
X0348104Y0071097D01*
X0348129Y0071067D01*
X0348151Y0071034D01*
X0348170Y0071000D01*
X0348185Y0070964D01*
X0348197Y0070926D01*
X0348205Y0070888D01*
X0348209Y0070849D01*
X0348209Y0070809D01*
X0348205Y0070770D01*
X0348197Y0070732D01*
X0348185Y0070694D01*
X0348170Y0070658D01*
X0348151Y0070624D01*
X0348129Y0070591D01*
X0348104Y0070561D01*
X0348076Y0070534D01*
X0348045Y0070509D01*
X0348012Y0070488D01*
X0347977Y0070470D01*
X0347940Y0070456D01*
X0347903Y0070445D01*
X0347864Y0070438D01*
X0347825Y0070435D01*
X0347786Y0070436D01*
X0347747Y0070441D01*
X0347708Y0070450D01*
X0347671Y0070462D01*
X0347635Y0070478D01*
X0347601Y0070498D01*
X0347569Y0070521D01*
X0347540Y0070547D01*
X0347513Y0070576D01*
X0347489Y0070607D01*
X0347469Y0070641D01*
X0347452Y0070676D01*
X0347439Y0070713D01*
X0347429Y0070751D01*
X0347423Y0070790D01*
X0347421Y0070829D01*
X0352614Y0031031D02*
X0354174Y0031031D01*
X0354174Y0029480D01*
X0349252Y0021729D02*
X0349252Y0018580D01*
X0349252Y0018383D02*
X0341378Y0018383D01*
X0341378Y0018580D02*
X0341378Y0021729D01*
X0336457Y0029480D02*
X0336457Y0031031D01*
X0338017Y0031031D01*
X0265783Y0016582D02*
X0263814Y0016582D01*
X0263814Y0010676D01*
X0248066Y0010676D01*
X0248066Y0016582D01*
X0246098Y0016582D01*
X0246098Y0063826D01*
X0265783Y0063826D01*
X0265783Y0016582D01*
X0263814Y0016582D02*
X0248066Y0016582D01*
X0226240Y0112482D02*
X0223229Y0112482D01*
X0226240Y0112482D02*
X0226240Y0140474D01*
X0223229Y0140474D01*
X0223177Y0138132D02*
X0223179Y0138191D01*
X0223185Y0138250D01*
X0223195Y0138309D01*
X0223208Y0138367D01*
X0223226Y0138424D01*
X0223247Y0138479D01*
X0223272Y0138533D01*
X0223300Y0138585D01*
X0223331Y0138636D01*
X0223366Y0138684D01*
X0223404Y0138729D01*
X0223445Y0138772D01*
X0223489Y0138812D01*
X0223535Y0138850D01*
X0223584Y0138884D01*
X0223635Y0138915D01*
X0223687Y0138942D01*
X0223742Y0138966D01*
X0223798Y0138986D01*
X0223855Y0139003D01*
X0223913Y0139015D01*
X0223971Y0139024D01*
X0224030Y0139029D01*
X0224090Y0139030D01*
X0224149Y0139027D01*
X0224208Y0139020D01*
X0224267Y0139009D01*
X0224324Y0138995D01*
X0224381Y0138976D01*
X0224436Y0138954D01*
X0224489Y0138929D01*
X0224541Y0138900D01*
X0224591Y0138867D01*
X0224638Y0138831D01*
X0224683Y0138793D01*
X0224726Y0138751D01*
X0224765Y0138707D01*
X0224801Y0138660D01*
X0224835Y0138611D01*
X0224865Y0138559D01*
X0224891Y0138506D01*
X0224914Y0138452D01*
X0224934Y0138395D01*
X0224949Y0138338D01*
X0224961Y0138280D01*
X0224969Y0138221D01*
X0224973Y0138162D01*
X0224973Y0138102D01*
X0224969Y0138043D01*
X0224961Y0137984D01*
X0224949Y0137926D01*
X0224934Y0137869D01*
X0224914Y0137812D01*
X0224891Y0137758D01*
X0224865Y0137705D01*
X0224835Y0137653D01*
X0224801Y0137604D01*
X0224765Y0137557D01*
X0224726Y0137513D01*
X0224683Y0137471D01*
X0224638Y0137433D01*
X0224591Y0137397D01*
X0224541Y0137364D01*
X0224489Y0137335D01*
X0224436Y0137310D01*
X0224381Y0137288D01*
X0224324Y0137269D01*
X0224267Y0137255D01*
X0224208Y0137244D01*
X0224149Y0137237D01*
X0224090Y0137234D01*
X0224030Y0137235D01*
X0223971Y0137240D01*
X0223913Y0137249D01*
X0223855Y0137261D01*
X0223798Y0137278D01*
X0223742Y0137298D01*
X0223687Y0137322D01*
X0223635Y0137349D01*
X0223584Y0137380D01*
X0223535Y0137414D01*
X0223489Y0137452D01*
X0223445Y0137492D01*
X0223404Y0137535D01*
X0223366Y0137580D01*
X0223331Y0137628D01*
X0223300Y0137679D01*
X0223272Y0137731D01*
X0223247Y0137785D01*
X0223226Y0137840D01*
X0223208Y0137897D01*
X0223195Y0137955D01*
X0223185Y0138014D01*
X0223179Y0138073D01*
X0223177Y0138132D01*
X0178740Y0140474D02*
X0175729Y0140474D01*
X0175729Y0112482D01*
X0178740Y0112482D01*
X0168740Y0112482D02*
X0165729Y0112482D01*
X0168740Y0112482D02*
X0168740Y0140474D01*
X0165729Y0140474D01*
X0165677Y0138132D02*
X0165679Y0138191D01*
X0165685Y0138250D01*
X0165695Y0138309D01*
X0165708Y0138367D01*
X0165726Y0138424D01*
X0165747Y0138479D01*
X0165772Y0138533D01*
X0165800Y0138585D01*
X0165831Y0138636D01*
X0165866Y0138684D01*
X0165904Y0138729D01*
X0165945Y0138772D01*
X0165989Y0138812D01*
X0166035Y0138850D01*
X0166084Y0138884D01*
X0166135Y0138915D01*
X0166187Y0138942D01*
X0166242Y0138966D01*
X0166298Y0138986D01*
X0166355Y0139003D01*
X0166413Y0139015D01*
X0166471Y0139024D01*
X0166530Y0139029D01*
X0166590Y0139030D01*
X0166649Y0139027D01*
X0166708Y0139020D01*
X0166767Y0139009D01*
X0166824Y0138995D01*
X0166881Y0138976D01*
X0166936Y0138954D01*
X0166989Y0138929D01*
X0167041Y0138900D01*
X0167091Y0138867D01*
X0167138Y0138831D01*
X0167183Y0138793D01*
X0167226Y0138751D01*
X0167265Y0138707D01*
X0167301Y0138660D01*
X0167335Y0138611D01*
X0167365Y0138559D01*
X0167391Y0138506D01*
X0167414Y0138452D01*
X0167434Y0138395D01*
X0167449Y0138338D01*
X0167461Y0138280D01*
X0167469Y0138221D01*
X0167473Y0138162D01*
X0167473Y0138102D01*
X0167469Y0138043D01*
X0167461Y0137984D01*
X0167449Y0137926D01*
X0167434Y0137869D01*
X0167414Y0137812D01*
X0167391Y0137758D01*
X0167365Y0137705D01*
X0167335Y0137653D01*
X0167301Y0137604D01*
X0167265Y0137557D01*
X0167226Y0137513D01*
X0167183Y0137471D01*
X0167138Y0137433D01*
X0167091Y0137397D01*
X0167041Y0137364D01*
X0166989Y0137335D01*
X0166936Y0137310D01*
X0166881Y0137288D01*
X0166824Y0137269D01*
X0166767Y0137255D01*
X0166708Y0137244D01*
X0166649Y0137237D01*
X0166590Y0137234D01*
X0166530Y0137235D01*
X0166471Y0137240D01*
X0166413Y0137249D01*
X0166355Y0137261D01*
X0166298Y0137278D01*
X0166242Y0137298D01*
X0166187Y0137322D01*
X0166135Y0137349D01*
X0166084Y0137380D01*
X0166035Y0137414D01*
X0165989Y0137452D01*
X0165945Y0137492D01*
X0165904Y0137535D01*
X0165866Y0137580D01*
X0165831Y0137628D01*
X0165800Y0137679D01*
X0165772Y0137731D01*
X0165747Y0137785D01*
X0165726Y0137840D01*
X0165708Y0137897D01*
X0165695Y0137955D01*
X0165685Y0138014D01*
X0165679Y0138073D01*
X0165677Y0138132D01*
X0121240Y0140474D02*
X0118229Y0140474D01*
X0118229Y0112482D01*
X0121240Y0112482D01*
X0085158Y0094258D02*
X0073347Y0094258D01*
X0073347Y0016998D01*
X0085158Y0016998D01*
X0085158Y0094258D01*
X0064095Y0076341D02*
X0060552Y0076341D01*
X0060552Y0076734D01*
X0047953Y0076734D01*
X0047953Y0076341D01*
X0044410Y0076341D01*
X0044410Y0065317D01*
X0047953Y0065317D01*
X0047953Y0064923D01*
X0060552Y0064923D01*
X0060552Y0065317D01*
X0064095Y0065317D01*
X0064095Y0076341D01*
X0060158Y0094258D02*
X0048347Y0094258D01*
X0048347Y0016998D01*
X0060158Y0016998D01*
X0060158Y0094258D01*
X0060552Y0054234D02*
X0047953Y0054234D01*
X0047953Y0053841D01*
X0044410Y0053841D01*
X0044410Y0042817D01*
X0047953Y0042817D01*
X0047953Y0042423D01*
X0060552Y0042423D01*
X0060552Y0042817D01*
X0064095Y0042817D01*
X0064095Y0053841D01*
X0060552Y0053841D01*
X0060552Y0054234D01*
X0069410Y0053841D02*
X0072953Y0053841D01*
X0072953Y0054234D01*
X0085552Y0054234D01*
X0085552Y0053841D01*
X0089095Y0053841D01*
X0089095Y0042817D01*
X0085552Y0042817D01*
X0085552Y0042423D01*
X0072953Y0042423D01*
X0072953Y0042817D01*
X0069410Y0042817D01*
X0069410Y0053841D01*
X0073347Y0016998D02*
X0073347Y0001329D01*
X0073347Y0001250D02*
X0085158Y0001250D01*
X0085158Y0001329D02*
X0085158Y0016998D01*
X0060158Y0016998D02*
X0060158Y0001329D01*
X0060158Y0001250D02*
X0048347Y0001250D01*
X0048347Y0001329D02*
X0048347Y0016998D01*
D18*
X0069246Y0073191D02*
X0069248Y0073238D01*
X0069254Y0073284D01*
X0069263Y0073330D01*
X0069277Y0073374D01*
X0069294Y0073418D01*
X0069315Y0073459D01*
X0069339Y0073499D01*
X0069366Y0073537D01*
X0069397Y0073572D01*
X0069430Y0073605D01*
X0069466Y0073635D01*
X0069505Y0073661D01*
X0069545Y0073685D01*
X0069587Y0073704D01*
X0069631Y0073721D01*
X0069676Y0073733D01*
X0069722Y0073742D01*
X0069768Y0073747D01*
X0069815Y0073748D01*
X0069861Y0073745D01*
X0069907Y0073738D01*
X0069953Y0073727D01*
X0069997Y0073713D01*
X0070040Y0073695D01*
X0070081Y0073673D01*
X0070121Y0073648D01*
X0070158Y0073620D01*
X0070193Y0073589D01*
X0070225Y0073555D01*
X0070254Y0073518D01*
X0070279Y0073480D01*
X0070302Y0073439D01*
X0070321Y0073396D01*
X0070336Y0073352D01*
X0070348Y0073307D01*
X0070356Y0073261D01*
X0070360Y0073214D01*
X0070360Y0073168D01*
X0070356Y0073121D01*
X0070348Y0073075D01*
X0070336Y0073030D01*
X0070321Y0072986D01*
X0070302Y0072943D01*
X0070279Y0072902D01*
X0070254Y0072864D01*
X0070225Y0072827D01*
X0070193Y0072793D01*
X0070158Y0072762D01*
X0070121Y0072734D01*
X0070082Y0072709D01*
X0070040Y0072687D01*
X0069997Y0072669D01*
X0069953Y0072655D01*
X0069907Y0072644D01*
X0069861Y0072637D01*
X0069815Y0072634D01*
X0069768Y0072635D01*
X0069722Y0072640D01*
X0069676Y0072649D01*
X0069631Y0072661D01*
X0069587Y0072678D01*
X0069545Y0072697D01*
X0069505Y0072721D01*
X0069466Y0072747D01*
X0069430Y0072777D01*
X0069397Y0072810D01*
X0069366Y0072845D01*
X0069339Y0072883D01*
X0069315Y0072923D01*
X0069294Y0072964D01*
X0069277Y0073008D01*
X0069263Y0073052D01*
X0069254Y0073098D01*
X0069248Y0073144D01*
X0069246Y0073191D01*
D19*
X0147028Y0238644D02*
X0147030Y0238700D01*
X0147036Y0238755D01*
X0147046Y0238809D01*
X0147059Y0238863D01*
X0147077Y0238916D01*
X0147098Y0238967D01*
X0147122Y0239017D01*
X0147150Y0239065D01*
X0147182Y0239111D01*
X0147216Y0239155D01*
X0147254Y0239196D01*
X0147294Y0239234D01*
X0147337Y0239269D01*
X0147382Y0239301D01*
X0147430Y0239330D01*
X0147479Y0239356D01*
X0147530Y0239378D01*
X0147582Y0239396D01*
X0147636Y0239410D01*
X0147691Y0239421D01*
X0147746Y0239428D01*
X0147801Y0239431D01*
X0147857Y0239430D01*
X0147912Y0239425D01*
X0147967Y0239416D01*
X0148021Y0239404D01*
X0148074Y0239387D01*
X0148126Y0239367D01*
X0148176Y0239343D01*
X0148224Y0239316D01*
X0148271Y0239286D01*
X0148315Y0239252D01*
X0148357Y0239215D01*
X0148395Y0239175D01*
X0148432Y0239133D01*
X0148465Y0239088D01*
X0148494Y0239042D01*
X0148521Y0238993D01*
X0148543Y0238942D01*
X0148563Y0238890D01*
X0148578Y0238836D01*
X0148590Y0238782D01*
X0148598Y0238727D01*
X0148602Y0238672D01*
X0148602Y0238616D01*
X0148598Y0238561D01*
X0148590Y0238506D01*
X0148578Y0238452D01*
X0148563Y0238398D01*
X0148543Y0238346D01*
X0148521Y0238295D01*
X0148494Y0238246D01*
X0148465Y0238200D01*
X0148432Y0238155D01*
X0148395Y0238113D01*
X0148357Y0238073D01*
X0148315Y0238036D01*
X0148271Y0238002D01*
X0148224Y0237972D01*
X0148176Y0237945D01*
X0148126Y0237921D01*
X0148074Y0237901D01*
X0148021Y0237884D01*
X0147967Y0237872D01*
X0147912Y0237863D01*
X0147857Y0237858D01*
X0147801Y0237857D01*
X0147746Y0237860D01*
X0147691Y0237867D01*
X0147636Y0237878D01*
X0147582Y0237892D01*
X0147530Y0237910D01*
X0147479Y0237932D01*
X0147430Y0237958D01*
X0147382Y0237987D01*
X0147337Y0238019D01*
X0147294Y0238054D01*
X0147254Y0238092D01*
X0147216Y0238133D01*
X0147182Y0238177D01*
X0147150Y0238223D01*
X0147122Y0238271D01*
X0147098Y0238321D01*
X0147077Y0238372D01*
X0147059Y0238425D01*
X0147046Y0238479D01*
X0147036Y0238533D01*
X0147030Y0238588D01*
X0147028Y0238644D01*
X0147030Y0238700D01*
X0147036Y0238755D01*
X0147046Y0238809D01*
X0147059Y0238863D01*
X0147077Y0238916D01*
X0147098Y0238967D01*
X0147122Y0239017D01*
X0147150Y0239065D01*
X0147182Y0239111D01*
X0147216Y0239155D01*
X0147254Y0239196D01*
X0147294Y0239234D01*
X0147337Y0239269D01*
X0147382Y0239301D01*
X0147430Y0239330D01*
X0147479Y0239356D01*
X0147530Y0239378D01*
X0147582Y0239396D01*
X0147636Y0239410D01*
X0147691Y0239421D01*
X0147746Y0239428D01*
X0147801Y0239431D01*
X0147857Y0239430D01*
X0147912Y0239425D01*
X0147967Y0239416D01*
X0148021Y0239404D01*
X0148074Y0239387D01*
X0148126Y0239367D01*
X0148176Y0239343D01*
X0148224Y0239316D01*
X0148271Y0239286D01*
X0148315Y0239252D01*
X0148357Y0239215D01*
X0148395Y0239175D01*
X0148432Y0239133D01*
X0148465Y0239088D01*
X0148494Y0239042D01*
X0148521Y0238993D01*
X0148543Y0238942D01*
X0148563Y0238890D01*
X0148578Y0238836D01*
X0148590Y0238782D01*
X0148598Y0238727D01*
X0148602Y0238672D01*
X0148602Y0238616D01*
X0148598Y0238561D01*
X0148590Y0238506D01*
X0148578Y0238452D01*
X0148563Y0238398D01*
X0148543Y0238346D01*
X0148521Y0238295D01*
X0148494Y0238246D01*
X0148465Y0238200D01*
X0148432Y0238155D01*
X0148395Y0238113D01*
X0148357Y0238073D01*
X0148315Y0238036D01*
X0148271Y0238002D01*
X0148224Y0237972D01*
X0148176Y0237945D01*
X0148126Y0237921D01*
X0148074Y0237901D01*
X0148021Y0237884D01*
X0147967Y0237872D01*
X0147912Y0237863D01*
X0147857Y0237858D01*
X0147801Y0237857D01*
X0147746Y0237860D01*
X0147691Y0237867D01*
X0147636Y0237878D01*
X0147582Y0237892D01*
X0147530Y0237910D01*
X0147479Y0237932D01*
X0147430Y0237958D01*
X0147382Y0237987D01*
X0147337Y0238019D01*
X0147294Y0238054D01*
X0147254Y0238092D01*
X0147216Y0238133D01*
X0147182Y0238177D01*
X0147150Y0238223D01*
X0147122Y0238271D01*
X0147098Y0238321D01*
X0147077Y0238372D01*
X0147059Y0238425D01*
X0147046Y0238479D01*
X0147036Y0238533D01*
X0147030Y0238588D01*
X0147028Y0238644D01*
X0262028Y0238644D02*
X0262030Y0238700D01*
X0262036Y0238755D01*
X0262046Y0238809D01*
X0262059Y0238863D01*
X0262077Y0238916D01*
X0262098Y0238967D01*
X0262122Y0239017D01*
X0262150Y0239065D01*
X0262182Y0239111D01*
X0262216Y0239155D01*
X0262254Y0239196D01*
X0262294Y0239234D01*
X0262337Y0239269D01*
X0262382Y0239301D01*
X0262430Y0239330D01*
X0262479Y0239356D01*
X0262530Y0239378D01*
X0262582Y0239396D01*
X0262636Y0239410D01*
X0262691Y0239421D01*
X0262746Y0239428D01*
X0262801Y0239431D01*
X0262857Y0239430D01*
X0262912Y0239425D01*
X0262967Y0239416D01*
X0263021Y0239404D01*
X0263074Y0239387D01*
X0263126Y0239367D01*
X0263176Y0239343D01*
X0263224Y0239316D01*
X0263271Y0239286D01*
X0263315Y0239252D01*
X0263357Y0239215D01*
X0263395Y0239175D01*
X0263432Y0239133D01*
X0263465Y0239088D01*
X0263494Y0239042D01*
X0263521Y0238993D01*
X0263543Y0238942D01*
X0263563Y0238890D01*
X0263578Y0238836D01*
X0263590Y0238782D01*
X0263598Y0238727D01*
X0263602Y0238672D01*
X0263602Y0238616D01*
X0263598Y0238561D01*
X0263590Y0238506D01*
X0263578Y0238452D01*
X0263563Y0238398D01*
X0263543Y0238346D01*
X0263521Y0238295D01*
X0263494Y0238246D01*
X0263465Y0238200D01*
X0263432Y0238155D01*
X0263395Y0238113D01*
X0263357Y0238073D01*
X0263315Y0238036D01*
X0263271Y0238002D01*
X0263224Y0237972D01*
X0263176Y0237945D01*
X0263126Y0237921D01*
X0263074Y0237901D01*
X0263021Y0237884D01*
X0262967Y0237872D01*
X0262912Y0237863D01*
X0262857Y0237858D01*
X0262801Y0237857D01*
X0262746Y0237860D01*
X0262691Y0237867D01*
X0262636Y0237878D01*
X0262582Y0237892D01*
X0262530Y0237910D01*
X0262479Y0237932D01*
X0262430Y0237958D01*
X0262382Y0237987D01*
X0262337Y0238019D01*
X0262294Y0238054D01*
X0262254Y0238092D01*
X0262216Y0238133D01*
X0262182Y0238177D01*
X0262150Y0238223D01*
X0262122Y0238271D01*
X0262098Y0238321D01*
X0262077Y0238372D01*
X0262059Y0238425D01*
X0262046Y0238479D01*
X0262036Y0238533D01*
X0262030Y0238588D01*
X0262028Y0238644D01*
X0262030Y0238700D01*
X0262036Y0238755D01*
X0262046Y0238809D01*
X0262059Y0238863D01*
X0262077Y0238916D01*
X0262098Y0238967D01*
X0262122Y0239017D01*
X0262150Y0239065D01*
X0262182Y0239111D01*
X0262216Y0239155D01*
X0262254Y0239196D01*
X0262294Y0239234D01*
X0262337Y0239269D01*
X0262382Y0239301D01*
X0262430Y0239330D01*
X0262479Y0239356D01*
X0262530Y0239378D01*
X0262582Y0239396D01*
X0262636Y0239410D01*
X0262691Y0239421D01*
X0262746Y0239428D01*
X0262801Y0239431D01*
X0262857Y0239430D01*
X0262912Y0239425D01*
X0262967Y0239416D01*
X0263021Y0239404D01*
X0263074Y0239387D01*
X0263126Y0239367D01*
X0263176Y0239343D01*
X0263224Y0239316D01*
X0263271Y0239286D01*
X0263315Y0239252D01*
X0263357Y0239215D01*
X0263395Y0239175D01*
X0263432Y0239133D01*
X0263465Y0239088D01*
X0263494Y0239042D01*
X0263521Y0238993D01*
X0263543Y0238942D01*
X0263563Y0238890D01*
X0263578Y0238836D01*
X0263590Y0238782D01*
X0263598Y0238727D01*
X0263602Y0238672D01*
X0263602Y0238616D01*
X0263598Y0238561D01*
X0263590Y0238506D01*
X0263578Y0238452D01*
X0263563Y0238398D01*
X0263543Y0238346D01*
X0263521Y0238295D01*
X0263494Y0238246D01*
X0263465Y0238200D01*
X0263432Y0238155D01*
X0263395Y0238113D01*
X0263357Y0238073D01*
X0263315Y0238036D01*
X0263271Y0238002D01*
X0263224Y0237972D01*
X0263176Y0237945D01*
X0263126Y0237921D01*
X0263074Y0237901D01*
X0263021Y0237884D01*
X0262967Y0237872D01*
X0262912Y0237863D01*
X0262857Y0237858D01*
X0262801Y0237857D01*
X0262746Y0237860D01*
X0262691Y0237867D01*
X0262636Y0237878D01*
X0262582Y0237892D01*
X0262530Y0237910D01*
X0262479Y0237932D01*
X0262430Y0237958D01*
X0262382Y0237987D01*
X0262337Y0238019D01*
X0262294Y0238054D01*
X0262254Y0238092D01*
X0262216Y0238133D01*
X0262182Y0238177D01*
X0262150Y0238223D01*
X0262122Y0238271D01*
X0262098Y0238321D01*
X0262077Y0238372D01*
X0262059Y0238425D01*
X0262046Y0238479D01*
X0262036Y0238533D01*
X0262030Y0238588D01*
X0262028Y0238644D01*
X0331959Y0219805D02*
X0331961Y0219861D01*
X0331967Y0219916D01*
X0331977Y0219970D01*
X0331990Y0220024D01*
X0332008Y0220077D01*
X0332029Y0220128D01*
X0332053Y0220178D01*
X0332081Y0220226D01*
X0332113Y0220272D01*
X0332147Y0220316D01*
X0332185Y0220357D01*
X0332225Y0220395D01*
X0332268Y0220430D01*
X0332313Y0220462D01*
X0332361Y0220491D01*
X0332410Y0220517D01*
X0332461Y0220539D01*
X0332513Y0220557D01*
X0332567Y0220571D01*
X0332622Y0220582D01*
X0332677Y0220589D01*
X0332732Y0220592D01*
X0332788Y0220591D01*
X0332843Y0220586D01*
X0332898Y0220577D01*
X0332952Y0220565D01*
X0333005Y0220548D01*
X0333057Y0220528D01*
X0333107Y0220504D01*
X0333155Y0220477D01*
X0333202Y0220447D01*
X0333246Y0220413D01*
X0333288Y0220376D01*
X0333326Y0220336D01*
X0333363Y0220294D01*
X0333396Y0220249D01*
X0333425Y0220203D01*
X0333452Y0220154D01*
X0333474Y0220103D01*
X0333494Y0220051D01*
X0333509Y0219997D01*
X0333521Y0219943D01*
X0333529Y0219888D01*
X0333533Y0219833D01*
X0333533Y0219777D01*
X0333529Y0219722D01*
X0333521Y0219667D01*
X0333509Y0219613D01*
X0333494Y0219559D01*
X0333474Y0219507D01*
X0333452Y0219456D01*
X0333425Y0219407D01*
X0333396Y0219361D01*
X0333363Y0219316D01*
X0333326Y0219274D01*
X0333288Y0219234D01*
X0333246Y0219197D01*
X0333202Y0219163D01*
X0333155Y0219133D01*
X0333107Y0219106D01*
X0333057Y0219082D01*
X0333005Y0219062D01*
X0332952Y0219045D01*
X0332898Y0219033D01*
X0332843Y0219024D01*
X0332788Y0219019D01*
X0332732Y0219018D01*
X0332677Y0219021D01*
X0332622Y0219028D01*
X0332567Y0219039D01*
X0332513Y0219053D01*
X0332461Y0219071D01*
X0332410Y0219093D01*
X0332361Y0219119D01*
X0332313Y0219148D01*
X0332268Y0219180D01*
X0332225Y0219215D01*
X0332185Y0219253D01*
X0332147Y0219294D01*
X0332113Y0219338D01*
X0332081Y0219384D01*
X0332053Y0219432D01*
X0332029Y0219482D01*
X0332008Y0219533D01*
X0331990Y0219586D01*
X0331977Y0219640D01*
X0331967Y0219694D01*
X0331961Y0219749D01*
X0331959Y0219805D01*
X0331961Y0219861D01*
X0331967Y0219916D01*
X0331977Y0219970D01*
X0331990Y0220024D01*
X0332008Y0220077D01*
X0332029Y0220128D01*
X0332053Y0220178D01*
X0332081Y0220226D01*
X0332113Y0220272D01*
X0332147Y0220316D01*
X0332185Y0220357D01*
X0332225Y0220395D01*
X0332268Y0220430D01*
X0332313Y0220462D01*
X0332361Y0220491D01*
X0332410Y0220517D01*
X0332461Y0220539D01*
X0332513Y0220557D01*
X0332567Y0220571D01*
X0332622Y0220582D01*
X0332677Y0220589D01*
X0332732Y0220592D01*
X0332788Y0220591D01*
X0332843Y0220586D01*
X0332898Y0220577D01*
X0332952Y0220565D01*
X0333005Y0220548D01*
X0333057Y0220528D01*
X0333107Y0220504D01*
X0333155Y0220477D01*
X0333202Y0220447D01*
X0333246Y0220413D01*
X0333288Y0220376D01*
X0333326Y0220336D01*
X0333363Y0220294D01*
X0333396Y0220249D01*
X0333425Y0220203D01*
X0333452Y0220154D01*
X0333474Y0220103D01*
X0333494Y0220051D01*
X0333509Y0219997D01*
X0333521Y0219943D01*
X0333529Y0219888D01*
X0333533Y0219833D01*
X0333533Y0219777D01*
X0333529Y0219722D01*
X0333521Y0219667D01*
X0333509Y0219613D01*
X0333494Y0219559D01*
X0333474Y0219507D01*
X0333452Y0219456D01*
X0333425Y0219407D01*
X0333396Y0219361D01*
X0333363Y0219316D01*
X0333326Y0219274D01*
X0333288Y0219234D01*
X0333246Y0219197D01*
X0333202Y0219163D01*
X0333155Y0219133D01*
X0333107Y0219106D01*
X0333057Y0219082D01*
X0333005Y0219062D01*
X0332952Y0219045D01*
X0332898Y0219033D01*
X0332843Y0219024D01*
X0332788Y0219019D01*
X0332732Y0219018D01*
X0332677Y0219021D01*
X0332622Y0219028D01*
X0332567Y0219039D01*
X0332513Y0219053D01*
X0332461Y0219071D01*
X0332410Y0219093D01*
X0332361Y0219119D01*
X0332313Y0219148D01*
X0332268Y0219180D01*
X0332225Y0219215D01*
X0332185Y0219253D01*
X0332147Y0219294D01*
X0332113Y0219338D01*
X0332081Y0219384D01*
X0332053Y0219432D01*
X0332029Y0219482D01*
X0332008Y0219533D01*
X0331990Y0219586D01*
X0331977Y0219640D01*
X0331967Y0219694D01*
X0331961Y0219749D01*
X0331959Y0219805D01*
X0335739Y0286823D02*
X0335741Y0286879D01*
X0335747Y0286934D01*
X0335757Y0286988D01*
X0335770Y0287042D01*
X0335788Y0287095D01*
X0335809Y0287146D01*
X0335833Y0287196D01*
X0335861Y0287244D01*
X0335893Y0287290D01*
X0335927Y0287334D01*
X0335965Y0287375D01*
X0336005Y0287413D01*
X0336048Y0287448D01*
X0336093Y0287480D01*
X0336141Y0287509D01*
X0336190Y0287535D01*
X0336241Y0287557D01*
X0336293Y0287575D01*
X0336347Y0287589D01*
X0336402Y0287600D01*
X0336457Y0287607D01*
X0336512Y0287610D01*
X0336568Y0287609D01*
X0336623Y0287604D01*
X0336678Y0287595D01*
X0336732Y0287583D01*
X0336785Y0287566D01*
X0336837Y0287546D01*
X0336887Y0287522D01*
X0336935Y0287495D01*
X0336982Y0287465D01*
X0337026Y0287431D01*
X0337068Y0287394D01*
X0337106Y0287354D01*
X0337143Y0287312D01*
X0337176Y0287267D01*
X0337205Y0287221D01*
X0337232Y0287172D01*
X0337254Y0287121D01*
X0337274Y0287069D01*
X0337289Y0287015D01*
X0337301Y0286961D01*
X0337309Y0286906D01*
X0337313Y0286851D01*
X0337313Y0286795D01*
X0337309Y0286740D01*
X0337301Y0286685D01*
X0337289Y0286631D01*
X0337274Y0286577D01*
X0337254Y0286525D01*
X0337232Y0286474D01*
X0337205Y0286425D01*
X0337176Y0286379D01*
X0337143Y0286334D01*
X0337106Y0286292D01*
X0337068Y0286252D01*
X0337026Y0286215D01*
X0336982Y0286181D01*
X0336935Y0286151D01*
X0336887Y0286124D01*
X0336837Y0286100D01*
X0336785Y0286080D01*
X0336732Y0286063D01*
X0336678Y0286051D01*
X0336623Y0286042D01*
X0336568Y0286037D01*
X0336512Y0286036D01*
X0336457Y0286039D01*
X0336402Y0286046D01*
X0336347Y0286057D01*
X0336293Y0286071D01*
X0336241Y0286089D01*
X0336190Y0286111D01*
X0336141Y0286137D01*
X0336093Y0286166D01*
X0336048Y0286198D01*
X0336005Y0286233D01*
X0335965Y0286271D01*
X0335927Y0286312D01*
X0335893Y0286356D01*
X0335861Y0286402D01*
X0335833Y0286450D01*
X0335809Y0286500D01*
X0335788Y0286551D01*
X0335770Y0286604D01*
X0335757Y0286658D01*
X0335747Y0286712D01*
X0335741Y0286767D01*
X0335739Y0286823D01*
X0335741Y0286879D01*
X0335747Y0286934D01*
X0335757Y0286988D01*
X0335770Y0287042D01*
X0335788Y0287095D01*
X0335809Y0287146D01*
X0335833Y0287196D01*
X0335861Y0287244D01*
X0335893Y0287290D01*
X0335927Y0287334D01*
X0335965Y0287375D01*
X0336005Y0287413D01*
X0336048Y0287448D01*
X0336093Y0287480D01*
X0336141Y0287509D01*
X0336190Y0287535D01*
X0336241Y0287557D01*
X0336293Y0287575D01*
X0336347Y0287589D01*
X0336402Y0287600D01*
X0336457Y0287607D01*
X0336512Y0287610D01*
X0336568Y0287609D01*
X0336623Y0287604D01*
X0336678Y0287595D01*
X0336732Y0287583D01*
X0336785Y0287566D01*
X0336837Y0287546D01*
X0336887Y0287522D01*
X0336935Y0287495D01*
X0336982Y0287465D01*
X0337026Y0287431D01*
X0337068Y0287394D01*
X0337106Y0287354D01*
X0337143Y0287312D01*
X0337176Y0287267D01*
X0337205Y0287221D01*
X0337232Y0287172D01*
X0337254Y0287121D01*
X0337274Y0287069D01*
X0337289Y0287015D01*
X0337301Y0286961D01*
X0337309Y0286906D01*
X0337313Y0286851D01*
X0337313Y0286795D01*
X0337309Y0286740D01*
X0337301Y0286685D01*
X0337289Y0286631D01*
X0337274Y0286577D01*
X0337254Y0286525D01*
X0337232Y0286474D01*
X0337205Y0286425D01*
X0337176Y0286379D01*
X0337143Y0286334D01*
X0337106Y0286292D01*
X0337068Y0286252D01*
X0337026Y0286215D01*
X0336982Y0286181D01*
X0336935Y0286151D01*
X0336887Y0286124D01*
X0336837Y0286100D01*
X0336785Y0286080D01*
X0336732Y0286063D01*
X0336678Y0286051D01*
X0336623Y0286042D01*
X0336568Y0286037D01*
X0336512Y0286036D01*
X0336457Y0286039D01*
X0336402Y0286046D01*
X0336347Y0286057D01*
X0336293Y0286071D01*
X0336241Y0286089D01*
X0336190Y0286111D01*
X0336141Y0286137D01*
X0336093Y0286166D01*
X0336048Y0286198D01*
X0336005Y0286233D01*
X0335965Y0286271D01*
X0335927Y0286312D01*
X0335893Y0286356D01*
X0335861Y0286402D01*
X0335833Y0286450D01*
X0335809Y0286500D01*
X0335788Y0286551D01*
X0335770Y0286604D01*
X0335757Y0286658D01*
X0335747Y0286712D01*
X0335741Y0286767D01*
X0335739Y0286823D01*
X0277584Y0126744D02*
X0277586Y0126800D01*
X0277592Y0126855D01*
X0277602Y0126909D01*
X0277615Y0126963D01*
X0277633Y0127016D01*
X0277654Y0127067D01*
X0277678Y0127117D01*
X0277706Y0127165D01*
X0277738Y0127211D01*
X0277772Y0127255D01*
X0277810Y0127296D01*
X0277850Y0127334D01*
X0277893Y0127369D01*
X0277938Y0127401D01*
X0277986Y0127430D01*
X0278035Y0127456D01*
X0278086Y0127478D01*
X0278138Y0127496D01*
X0278192Y0127510D01*
X0278247Y0127521D01*
X0278302Y0127528D01*
X0278357Y0127531D01*
X0278413Y0127530D01*
X0278468Y0127525D01*
X0278523Y0127516D01*
X0278577Y0127504D01*
X0278630Y0127487D01*
X0278682Y0127467D01*
X0278732Y0127443D01*
X0278780Y0127416D01*
X0278827Y0127386D01*
X0278871Y0127352D01*
X0278913Y0127315D01*
X0278951Y0127275D01*
X0278988Y0127233D01*
X0279021Y0127188D01*
X0279050Y0127142D01*
X0279077Y0127093D01*
X0279099Y0127042D01*
X0279119Y0126990D01*
X0279134Y0126936D01*
X0279146Y0126882D01*
X0279154Y0126827D01*
X0279158Y0126772D01*
X0279158Y0126716D01*
X0279154Y0126661D01*
X0279146Y0126606D01*
X0279134Y0126552D01*
X0279119Y0126498D01*
X0279099Y0126446D01*
X0279077Y0126395D01*
X0279050Y0126346D01*
X0279021Y0126300D01*
X0278988Y0126255D01*
X0278951Y0126213D01*
X0278913Y0126173D01*
X0278871Y0126136D01*
X0278827Y0126102D01*
X0278780Y0126072D01*
X0278732Y0126045D01*
X0278682Y0126021D01*
X0278630Y0126001D01*
X0278577Y0125984D01*
X0278523Y0125972D01*
X0278468Y0125963D01*
X0278413Y0125958D01*
X0278357Y0125957D01*
X0278302Y0125960D01*
X0278247Y0125967D01*
X0278192Y0125978D01*
X0278138Y0125992D01*
X0278086Y0126010D01*
X0278035Y0126032D01*
X0277986Y0126058D01*
X0277938Y0126087D01*
X0277893Y0126119D01*
X0277850Y0126154D01*
X0277810Y0126192D01*
X0277772Y0126233D01*
X0277738Y0126277D01*
X0277706Y0126323D01*
X0277678Y0126371D01*
X0277654Y0126421D01*
X0277633Y0126472D01*
X0277615Y0126525D01*
X0277602Y0126579D01*
X0277592Y0126633D01*
X0277586Y0126688D01*
X0277584Y0126744D01*
X0277586Y0126800D01*
X0277592Y0126855D01*
X0277602Y0126909D01*
X0277615Y0126963D01*
X0277633Y0127016D01*
X0277654Y0127067D01*
X0277678Y0127117D01*
X0277706Y0127165D01*
X0277738Y0127211D01*
X0277772Y0127255D01*
X0277810Y0127296D01*
X0277850Y0127334D01*
X0277893Y0127369D01*
X0277938Y0127401D01*
X0277986Y0127430D01*
X0278035Y0127456D01*
X0278086Y0127478D01*
X0278138Y0127496D01*
X0278192Y0127510D01*
X0278247Y0127521D01*
X0278302Y0127528D01*
X0278357Y0127531D01*
X0278413Y0127530D01*
X0278468Y0127525D01*
X0278523Y0127516D01*
X0278577Y0127504D01*
X0278630Y0127487D01*
X0278682Y0127467D01*
X0278732Y0127443D01*
X0278780Y0127416D01*
X0278827Y0127386D01*
X0278871Y0127352D01*
X0278913Y0127315D01*
X0278951Y0127275D01*
X0278988Y0127233D01*
X0279021Y0127188D01*
X0279050Y0127142D01*
X0279077Y0127093D01*
X0279099Y0127042D01*
X0279119Y0126990D01*
X0279134Y0126936D01*
X0279146Y0126882D01*
X0279154Y0126827D01*
X0279158Y0126772D01*
X0279158Y0126716D01*
X0279154Y0126661D01*
X0279146Y0126606D01*
X0279134Y0126552D01*
X0279119Y0126498D01*
X0279099Y0126446D01*
X0279077Y0126395D01*
X0279050Y0126346D01*
X0279021Y0126300D01*
X0278988Y0126255D01*
X0278951Y0126213D01*
X0278913Y0126173D01*
X0278871Y0126136D01*
X0278827Y0126102D01*
X0278780Y0126072D01*
X0278732Y0126045D01*
X0278682Y0126021D01*
X0278630Y0126001D01*
X0278577Y0125984D01*
X0278523Y0125972D01*
X0278468Y0125963D01*
X0278413Y0125958D01*
X0278357Y0125957D01*
X0278302Y0125960D01*
X0278247Y0125967D01*
X0278192Y0125978D01*
X0278138Y0125992D01*
X0278086Y0126010D01*
X0278035Y0126032D01*
X0277986Y0126058D01*
X0277938Y0126087D01*
X0277893Y0126119D01*
X0277850Y0126154D01*
X0277810Y0126192D01*
X0277772Y0126233D01*
X0277738Y0126277D01*
X0277706Y0126323D01*
X0277678Y0126371D01*
X0277654Y0126421D01*
X0277633Y0126472D01*
X0277615Y0126525D01*
X0277602Y0126579D01*
X0277592Y0126633D01*
X0277586Y0126688D01*
X0277584Y0126744D01*
D20*
X0254715Y0084234D02*
X0248416Y0084234D01*
X0248416Y0072423D02*
X0254715Y0072423D01*
X0281689Y0044623D02*
X0285387Y0044623D01*
X0285331Y0044622D02*
X0290299Y0044622D01*
X0290299Y0044623D02*
X0290371Y0044621D01*
X0290444Y0044616D01*
X0290516Y0044607D01*
X0290588Y0044594D01*
X0290658Y0044577D01*
X0290728Y0044557D01*
X0290797Y0044534D01*
X0290865Y0044507D01*
X0290931Y0044476D01*
X0290995Y0044443D01*
X0291058Y0044406D01*
X0291119Y0044366D01*
X0291177Y0044323D01*
X0291234Y0044277D01*
X0291288Y0044228D01*
X0291339Y0044177D01*
X0291388Y0044123D01*
X0291434Y0044066D01*
X0291477Y0044008D01*
X0291517Y0043947D01*
X0291554Y0043884D01*
X0291587Y0043820D01*
X0291618Y0043754D01*
X0291645Y0043686D01*
X0291668Y0043617D01*
X0291688Y0043547D01*
X0291705Y0043477D01*
X0291718Y0043405D01*
X0291727Y0043333D01*
X0291732Y0043260D01*
X0291734Y0043188D01*
X0291734Y0043187D02*
X0291734Y0041090D01*
X0285332Y0040207D02*
X0281634Y0040207D01*
X0281586Y0040209D01*
X0281538Y0040214D01*
X0281492Y0040224D01*
X0281446Y0040236D01*
X0281401Y0040253D01*
X0281357Y0040273D01*
X0281316Y0040296D01*
X0281276Y0040323D01*
X0281238Y0040352D01*
X0281203Y0040385D01*
X0281171Y0040420D01*
X0281141Y0040457D01*
X0281115Y0040497D01*
X0281092Y0040539D01*
X0281072Y0040582D01*
X0281055Y0040627D01*
X0281042Y0040673D01*
X0281033Y0040720D01*
X0281028Y0040767D01*
X0281026Y0040815D01*
X0281027Y0040815D02*
X0281027Y0040815D01*
X0281029Y0040864D01*
X0281034Y0040914D01*
X0281044Y0040962D01*
X0281056Y0041010D01*
X0281073Y0041057D01*
X0281093Y0041102D01*
X0281116Y0041146D01*
X0281142Y0041188D01*
X0281171Y0041228D01*
X0281204Y0041265D01*
X0281239Y0041300D01*
X0281276Y0041333D01*
X0281316Y0041362D01*
X0281358Y0041388D01*
X0281402Y0041411D01*
X0281447Y0041431D01*
X0281494Y0041448D01*
X0281542Y0041460D01*
X0281590Y0041470D01*
X0281640Y0041475D01*
X0281689Y0041477D01*
X0282296Y0041477D01*
X0282354Y0041479D01*
X0282411Y0041485D01*
X0282468Y0041494D01*
X0282525Y0041507D01*
X0282580Y0041524D01*
X0282634Y0041544D01*
X0282687Y0041568D01*
X0282738Y0041595D01*
X0282787Y0041626D01*
X0282834Y0041659D01*
X0282878Y0041696D01*
X0282920Y0041736D01*
X0282960Y0041778D01*
X0282997Y0041822D01*
X0283030Y0041869D01*
X0283061Y0041919D01*
X0283088Y0041969D01*
X0283112Y0042022D01*
X0283132Y0042076D01*
X0283149Y0042131D01*
X0283162Y0042188D01*
X0283171Y0042245D01*
X0283177Y0042302D01*
X0283179Y0042360D01*
X0283179Y0042470D01*
X0283179Y0042471D02*
X0283177Y0042528D01*
X0283171Y0042586D01*
X0283162Y0042643D01*
X0283149Y0042699D01*
X0283132Y0042755D01*
X0283112Y0042809D01*
X0283088Y0042861D01*
X0283061Y0042912D01*
X0283030Y0042961D01*
X0282997Y0043008D01*
X0282960Y0043053D01*
X0282920Y0043095D01*
X0282878Y0043135D01*
X0282833Y0043172D01*
X0282786Y0043205D01*
X0282737Y0043236D01*
X0282686Y0043263D01*
X0282634Y0043287D01*
X0282580Y0043307D01*
X0282524Y0043324D01*
X0282468Y0043337D01*
X0282411Y0043346D01*
X0282353Y0043352D01*
X0282296Y0043354D01*
X0281634Y0043354D01*
X0281586Y0043356D01*
X0281539Y0043361D01*
X0281492Y0043371D01*
X0281446Y0043384D01*
X0281402Y0043400D01*
X0281358Y0043420D01*
X0281317Y0043443D01*
X0281277Y0043470D01*
X0281240Y0043499D01*
X0281205Y0043532D01*
X0281172Y0043567D01*
X0281143Y0043604D01*
X0281116Y0043644D01*
X0281093Y0043685D01*
X0281073Y0043729D01*
X0281057Y0043773D01*
X0281044Y0043819D01*
X0281034Y0043866D01*
X0281029Y0043913D01*
X0281027Y0043961D01*
X0281029Y0044010D01*
X0281034Y0044060D01*
X0281044Y0044108D01*
X0281056Y0044156D01*
X0281073Y0044203D01*
X0281093Y0044248D01*
X0281116Y0044292D01*
X0281142Y0044334D01*
X0281171Y0044374D01*
X0281204Y0044411D01*
X0281239Y0044446D01*
X0281276Y0044479D01*
X0281316Y0044508D01*
X0281358Y0044534D01*
X0281402Y0044557D01*
X0281447Y0044577D01*
X0281494Y0044594D01*
X0281542Y0044606D01*
X0281590Y0044616D01*
X0281640Y0044621D01*
X0281689Y0044623D01*
X0285331Y0044622D02*
X0285331Y0009575D01*
X0315301Y0009575D01*
X0315301Y0023815D01*
X0318999Y0023815D01*
X0318999Y0023814D02*
X0319047Y0023812D01*
X0319094Y0023807D01*
X0319141Y0023798D01*
X0319187Y0023785D01*
X0319232Y0023768D01*
X0319275Y0023748D01*
X0319317Y0023725D01*
X0319356Y0023699D01*
X0319394Y0023669D01*
X0319429Y0023637D01*
X0319461Y0023602D01*
X0319491Y0023564D01*
X0319517Y0023524D01*
X0319541Y0023483D01*
X0319560Y0023439D01*
X0319577Y0023395D01*
X0319590Y0023349D01*
X0319599Y0023302D01*
X0319604Y0023254D01*
X0319606Y0023207D01*
X0319606Y0023207D01*
X0319604Y0023158D01*
X0319599Y0023108D01*
X0319589Y0023060D01*
X0319577Y0023012D01*
X0319560Y0022965D01*
X0319540Y0022920D01*
X0319517Y0022876D01*
X0319491Y0022834D01*
X0319462Y0022794D01*
X0319429Y0022757D01*
X0319394Y0022722D01*
X0319357Y0022689D01*
X0319317Y0022660D01*
X0319275Y0022634D01*
X0319231Y0022611D01*
X0319186Y0022591D01*
X0319139Y0022574D01*
X0319091Y0022562D01*
X0319043Y0022552D01*
X0318993Y0022547D01*
X0318944Y0022545D01*
X0318337Y0022545D01*
X0318279Y0022543D01*
X0318222Y0022538D01*
X0318165Y0022528D01*
X0318108Y0022515D01*
X0318053Y0022498D01*
X0317999Y0022478D01*
X0317946Y0022454D01*
X0317895Y0022427D01*
X0317846Y0022396D01*
X0317799Y0022363D01*
X0317755Y0022326D01*
X0317712Y0022287D01*
X0317673Y0022244D01*
X0317636Y0022200D01*
X0317603Y0022153D01*
X0317572Y0022104D01*
X0317545Y0022053D01*
X0317521Y0022000D01*
X0317501Y0021946D01*
X0317484Y0021891D01*
X0317471Y0021834D01*
X0317461Y0021777D01*
X0317456Y0021720D01*
X0317454Y0021662D01*
X0317454Y0021552D01*
X0317456Y0021494D01*
X0317462Y0021436D01*
X0317471Y0021379D01*
X0317484Y0021323D01*
X0317501Y0021268D01*
X0317521Y0021214D01*
X0317545Y0021161D01*
X0317572Y0021110D01*
X0317603Y0021061D01*
X0317637Y0021014D01*
X0317673Y0020970D01*
X0317713Y0020928D01*
X0317755Y0020888D01*
X0317799Y0020852D01*
X0317846Y0020818D01*
X0317895Y0020787D01*
X0317946Y0020760D01*
X0317999Y0020736D01*
X0318053Y0020716D01*
X0318108Y0020699D01*
X0318164Y0020686D01*
X0318221Y0020677D01*
X0318279Y0020671D01*
X0318337Y0020669D01*
X0318999Y0020669D01*
X0318999Y0020668D02*
X0319047Y0020666D01*
X0319094Y0020661D01*
X0319141Y0020651D01*
X0319187Y0020638D01*
X0319231Y0020622D01*
X0319275Y0020602D01*
X0319316Y0020579D01*
X0319356Y0020552D01*
X0319393Y0020523D01*
X0319428Y0020490D01*
X0319461Y0020455D01*
X0319490Y0020418D01*
X0319517Y0020378D01*
X0319540Y0020337D01*
X0319560Y0020293D01*
X0319576Y0020249D01*
X0319589Y0020203D01*
X0319599Y0020156D01*
X0319604Y0020109D01*
X0319606Y0020061D01*
X0319604Y0020012D01*
X0319599Y0019962D01*
X0319589Y0019914D01*
X0319577Y0019866D01*
X0319560Y0019819D01*
X0319540Y0019774D01*
X0319517Y0019730D01*
X0319491Y0019688D01*
X0319462Y0019648D01*
X0319429Y0019611D01*
X0319394Y0019576D01*
X0319357Y0019543D01*
X0319317Y0019514D01*
X0319275Y0019488D01*
X0319231Y0019465D01*
X0319186Y0019445D01*
X0319139Y0019428D01*
X0319091Y0019416D01*
X0319043Y0019406D01*
X0318993Y0019401D01*
X0318944Y0019399D01*
X0315522Y0019399D01*
X0315301Y0023815D02*
X0315301Y0044622D01*
X0318999Y0044622D01*
X0319047Y0044620D01*
X0319094Y0044615D01*
X0319141Y0044606D01*
X0319187Y0044593D01*
X0319232Y0044576D01*
X0319275Y0044556D01*
X0319317Y0044533D01*
X0319356Y0044507D01*
X0319394Y0044477D01*
X0319429Y0044445D01*
X0319461Y0044410D01*
X0319491Y0044372D01*
X0319517Y0044332D01*
X0319541Y0044291D01*
X0319560Y0044247D01*
X0319577Y0044203D01*
X0319590Y0044157D01*
X0319599Y0044110D01*
X0319604Y0044062D01*
X0319606Y0044015D01*
X0319606Y0044015D01*
X0319604Y0043966D01*
X0319599Y0043916D01*
X0319589Y0043868D01*
X0319577Y0043820D01*
X0319560Y0043773D01*
X0319540Y0043728D01*
X0319517Y0043684D01*
X0319491Y0043642D01*
X0319462Y0043602D01*
X0319429Y0043565D01*
X0319394Y0043530D01*
X0319357Y0043497D01*
X0319317Y0043468D01*
X0319275Y0043442D01*
X0319231Y0043419D01*
X0319186Y0043399D01*
X0319139Y0043382D01*
X0319091Y0043370D01*
X0319043Y0043360D01*
X0318993Y0043355D01*
X0318944Y0043353D01*
X0318337Y0043353D01*
X0318279Y0043351D01*
X0318222Y0043346D01*
X0318165Y0043336D01*
X0318108Y0043323D01*
X0318053Y0043306D01*
X0317999Y0043286D01*
X0317946Y0043262D01*
X0317895Y0043235D01*
X0317846Y0043205D01*
X0317799Y0043171D01*
X0317755Y0043134D01*
X0317712Y0043095D01*
X0317673Y0043052D01*
X0317636Y0043008D01*
X0317602Y0042961D01*
X0317572Y0042912D01*
X0317545Y0042861D01*
X0317521Y0042808D01*
X0317501Y0042754D01*
X0317484Y0042699D01*
X0317471Y0042642D01*
X0317461Y0042585D01*
X0317456Y0042528D01*
X0317454Y0042470D01*
X0317454Y0042359D01*
X0317456Y0042301D01*
X0317462Y0042244D01*
X0317471Y0042187D01*
X0317484Y0042130D01*
X0317501Y0042075D01*
X0317521Y0042021D01*
X0317545Y0041968D01*
X0317572Y0041918D01*
X0317603Y0041868D01*
X0317636Y0041821D01*
X0317673Y0041777D01*
X0317713Y0041735D01*
X0317755Y0041695D01*
X0317799Y0041658D01*
X0317846Y0041625D01*
X0317896Y0041594D01*
X0317946Y0041567D01*
X0317999Y0041543D01*
X0318053Y0041523D01*
X0318108Y0041506D01*
X0318165Y0041493D01*
X0318222Y0041484D01*
X0318279Y0041478D01*
X0318337Y0041476D01*
X0318999Y0041476D01*
X0319047Y0041474D01*
X0319094Y0041469D01*
X0319141Y0041459D01*
X0319187Y0041446D01*
X0319231Y0041430D01*
X0319275Y0041410D01*
X0319316Y0041387D01*
X0319356Y0041360D01*
X0319393Y0041331D01*
X0319428Y0041298D01*
X0319461Y0041263D01*
X0319490Y0041226D01*
X0319517Y0041186D01*
X0319540Y0041145D01*
X0319560Y0041101D01*
X0319576Y0041057D01*
X0319589Y0041011D01*
X0319599Y0040964D01*
X0319604Y0040917D01*
X0319606Y0040869D01*
X0319604Y0040820D01*
X0319599Y0040770D01*
X0319589Y0040722D01*
X0319577Y0040674D01*
X0319560Y0040627D01*
X0319540Y0040582D01*
X0319517Y0040538D01*
X0319491Y0040496D01*
X0319462Y0040456D01*
X0319429Y0040419D01*
X0319394Y0040384D01*
X0319357Y0040351D01*
X0319317Y0040322D01*
X0319275Y0040296D01*
X0319231Y0040273D01*
X0319186Y0040253D01*
X0319139Y0040236D01*
X0319091Y0040224D01*
X0319043Y0040214D01*
X0318993Y0040209D01*
X0318944Y0040207D01*
X0315522Y0040207D01*
X0310278Y0044623D02*
X0310206Y0044621D01*
X0310134Y0044615D01*
X0310062Y0044606D01*
X0309991Y0044593D01*
X0309921Y0044576D01*
X0309852Y0044556D01*
X0309784Y0044531D01*
X0309717Y0044504D01*
X0309652Y0044473D01*
X0309588Y0044438D01*
X0309526Y0044400D01*
X0309467Y0044359D01*
X0309410Y0044315D01*
X0309355Y0044269D01*
X0309302Y0044219D01*
X0309252Y0044166D01*
X0309206Y0044111D01*
X0309162Y0044054D01*
X0309121Y0043995D01*
X0309083Y0043933D01*
X0309048Y0043869D01*
X0309017Y0043804D01*
X0308990Y0043737D01*
X0308965Y0043669D01*
X0308945Y0043600D01*
X0308928Y0043530D01*
X0308915Y0043459D01*
X0308906Y0043387D01*
X0308900Y0043315D01*
X0308898Y0043243D01*
X0308899Y0043243D02*
X0308899Y0040924D01*
X0310279Y0044622D02*
X0315301Y0044622D01*
X0303159Y0032039D02*
X0297364Y0032039D01*
X0297364Y0032038D02*
X0297292Y0032036D01*
X0297220Y0032030D01*
X0297149Y0032020D01*
X0297079Y0032007D01*
X0297009Y0031990D01*
X0296941Y0031969D01*
X0296873Y0031944D01*
X0296807Y0031915D01*
X0296743Y0031884D01*
X0296681Y0031848D01*
X0296620Y0031810D01*
X0296562Y0031768D01*
X0296506Y0031723D01*
X0296453Y0031675D01*
X0296402Y0031624D01*
X0296354Y0031571D01*
X0296309Y0031515D01*
X0296267Y0031457D01*
X0296229Y0031396D01*
X0296193Y0031334D01*
X0296162Y0031270D01*
X0296133Y0031204D01*
X0296108Y0031136D01*
X0296087Y0031068D01*
X0296070Y0030998D01*
X0296057Y0030928D01*
X0296047Y0030857D01*
X0296041Y0030785D01*
X0296039Y0030713D01*
X0296039Y0030714D02*
X0295211Y0014874D01*
X0295210Y0014829D01*
X0295214Y0014785D01*
X0295221Y0014741D01*
X0295231Y0014697D01*
X0295246Y0014655D01*
X0295264Y0014614D01*
X0295285Y0014575D01*
X0295310Y0014538D01*
X0295337Y0014503D01*
X0295368Y0014471D01*
X0295401Y0014441D01*
X0295437Y0014414D01*
X0295474Y0014390D01*
X0295514Y0014370D01*
X0295555Y0014353D01*
X0295598Y0014339D01*
X0295641Y0014329D01*
X0295685Y0014323D01*
X0295730Y0014321D01*
X0295774Y0014322D01*
X0295819Y0014328D01*
X0295862Y0014337D01*
X0295905Y0014349D01*
X0295946Y0014365D01*
X0295986Y0014385D01*
X0296025Y0014408D01*
X0296061Y0014434D01*
X0296094Y0014463D01*
X0296126Y0014495D01*
X0296154Y0014530D01*
X0296179Y0014566D01*
X0296201Y0014605D01*
X0296220Y0014645D01*
X0296235Y0014687D01*
X0296247Y0014730D01*
X0296255Y0014774D01*
X0296259Y0014818D01*
X0296260Y0014819D02*
X0296922Y0027071D01*
X0296924Y0027152D01*
X0296930Y0027234D01*
X0296939Y0027315D01*
X0296953Y0027395D01*
X0296970Y0027474D01*
X0296991Y0027553D01*
X0297016Y0027631D01*
X0297045Y0027707D01*
X0297077Y0027782D01*
X0297112Y0027855D01*
X0297151Y0027927D01*
X0297194Y0027996D01*
X0297239Y0028063D01*
X0297288Y0028129D01*
X0297340Y0028191D01*
X0297395Y0028252D01*
X0297452Y0028309D01*
X0297513Y0028364D01*
X0297575Y0028416D01*
X0297641Y0028465D01*
X0297708Y0028510D01*
X0297778Y0028553D01*
X0297849Y0028592D01*
X0297922Y0028627D01*
X0297997Y0028659D01*
X0298073Y0028688D01*
X0298151Y0028713D01*
X0298230Y0028734D01*
X0298309Y0028751D01*
X0298389Y0028765D01*
X0298470Y0028774D01*
X0298552Y0028780D01*
X0298633Y0028782D01*
X0302110Y0028782D01*
X0302189Y0028780D01*
X0302267Y0028775D01*
X0302346Y0028765D01*
X0302423Y0028752D01*
X0302500Y0028735D01*
X0302577Y0028715D01*
X0302652Y0028691D01*
X0302725Y0028663D01*
X0302798Y0028632D01*
X0302869Y0028598D01*
X0302938Y0028560D01*
X0303005Y0028519D01*
X0303071Y0028475D01*
X0303134Y0028428D01*
X0303194Y0028378D01*
X0303253Y0028325D01*
X0303309Y0028269D01*
X0303362Y0028210D01*
X0303412Y0028150D01*
X0303459Y0028087D01*
X0303503Y0028021D01*
X0303544Y0027954D01*
X0303582Y0027885D01*
X0303616Y0027814D01*
X0303647Y0027741D01*
X0303675Y0027668D01*
X0303699Y0027593D01*
X0303719Y0027516D01*
X0303736Y0027439D01*
X0303749Y0027362D01*
X0303759Y0027283D01*
X0303764Y0027205D01*
X0303766Y0027126D01*
X0303766Y0026850D01*
X0304318Y0014874D01*
X0304319Y0014873D02*
X0304323Y0014827D01*
X0304331Y0014781D01*
X0304343Y0014736D01*
X0304358Y0014692D01*
X0304378Y0014649D01*
X0304401Y0014608D01*
X0304427Y0014570D01*
X0304456Y0014533D01*
X0304489Y0014500D01*
X0304524Y0014469D01*
X0304562Y0014441D01*
X0304601Y0014417D01*
X0304643Y0014396D01*
X0304687Y0014378D01*
X0304731Y0014365D01*
X0304777Y0014355D01*
X0304823Y0014349D01*
X0304870Y0014347D01*
X0304917Y0014349D01*
X0304963Y0014355D01*
X0305009Y0014365D01*
X0305053Y0014378D01*
X0305097Y0014396D01*
X0305139Y0014417D01*
X0305178Y0014441D01*
X0305216Y0014469D01*
X0305251Y0014500D01*
X0305284Y0014533D01*
X0305313Y0014570D01*
X0305339Y0014608D01*
X0305362Y0014649D01*
X0305382Y0014692D01*
X0305397Y0014736D01*
X0305409Y0014781D01*
X0305417Y0014827D01*
X0305421Y0014873D01*
X0305422Y0014874D02*
X0304594Y0030604D01*
X0304592Y0030679D01*
X0304586Y0030754D01*
X0304576Y0030828D01*
X0304563Y0030902D01*
X0304545Y0030975D01*
X0304524Y0031047D01*
X0304499Y0031118D01*
X0304470Y0031188D01*
X0304438Y0031255D01*
X0304402Y0031322D01*
X0304362Y0031386D01*
X0304320Y0031447D01*
X0304274Y0031507D01*
X0304225Y0031564D01*
X0304174Y0031619D01*
X0304119Y0031670D01*
X0304062Y0031719D01*
X0304002Y0031765D01*
X0303941Y0031807D01*
X0303877Y0031847D01*
X0303810Y0031883D01*
X0303743Y0031915D01*
X0303673Y0031944D01*
X0303602Y0031969D01*
X0303530Y0031990D01*
X0303457Y0032008D01*
X0303383Y0032021D01*
X0303309Y0032031D01*
X0303234Y0032037D01*
X0303159Y0032039D01*
X0306967Y0030273D02*
X0307629Y0015812D01*
X0307629Y0015647D01*
X0307630Y0015647D02*
X0307632Y0015574D01*
X0307638Y0015502D01*
X0307647Y0015431D01*
X0307660Y0015360D01*
X0307677Y0015290D01*
X0307698Y0015220D01*
X0307722Y0015152D01*
X0307749Y0015086D01*
X0307780Y0015020D01*
X0307815Y0014957D01*
X0307853Y0014895D01*
X0307894Y0014836D01*
X0307938Y0014778D01*
X0307984Y0014724D01*
X0308034Y0014671D01*
X0308087Y0014621D01*
X0308141Y0014575D01*
X0308199Y0014531D01*
X0308258Y0014490D01*
X0308320Y0014452D01*
X0308383Y0014417D01*
X0308449Y0014386D01*
X0308515Y0014359D01*
X0308583Y0014335D01*
X0308653Y0014314D01*
X0308723Y0014297D01*
X0308794Y0014284D01*
X0308865Y0014275D01*
X0308937Y0014269D01*
X0309010Y0014267D01*
X0309009Y0014267D02*
X0315081Y0014267D01*
X0310941Y0017026D02*
X0311824Y0030438D01*
X0311825Y0030438D02*
X0311829Y0030479D01*
X0311837Y0030519D01*
X0311849Y0030558D01*
X0311863Y0030596D01*
X0311881Y0030633D01*
X0311902Y0030668D01*
X0311926Y0030701D01*
X0311953Y0030732D01*
X0311983Y0030760D01*
X0312014Y0030786D01*
X0312048Y0030809D01*
X0312084Y0030829D01*
X0312121Y0030846D01*
X0312159Y0030860D01*
X0312199Y0030870D01*
X0312239Y0030876D01*
X0312280Y0030880D01*
X0312321Y0030879D01*
X0312321Y0030880D02*
X0315081Y0030880D01*
X0308126Y0030328D02*
X0309009Y0016971D01*
X0309015Y0016910D01*
X0309025Y0016849D01*
X0309039Y0016789D01*
X0309057Y0016729D01*
X0309078Y0016671D01*
X0309103Y0016615D01*
X0309132Y0016560D01*
X0309164Y0016507D01*
X0309199Y0016457D01*
X0309237Y0016408D01*
X0309279Y0016363D01*
X0309323Y0016320D01*
X0309370Y0016280D01*
X0309420Y0016243D01*
X0309471Y0016209D01*
X0309525Y0016178D01*
X0309581Y0016152D01*
X0309638Y0016128D01*
X0309697Y0016109D01*
X0309756Y0016093D01*
X0309817Y0016081D01*
X0309878Y0016073D01*
X0309940Y0016069D01*
X0310002Y0016068D01*
X0310063Y0016072D01*
X0310125Y0016080D01*
X0310185Y0016091D01*
X0310245Y0016107D01*
X0310304Y0016126D01*
X0310361Y0016149D01*
X0310417Y0016175D01*
X0310471Y0016205D01*
X0310523Y0016239D01*
X0310573Y0016275D01*
X0310620Y0016315D01*
X0310664Y0016358D01*
X0310706Y0016403D01*
X0310745Y0016451D01*
X0310781Y0016502D01*
X0310813Y0016554D01*
X0310842Y0016609D01*
X0310868Y0016665D01*
X0310889Y0016723D01*
X0310907Y0016782D01*
X0310922Y0016842D01*
X0310932Y0016903D01*
X0310938Y0016965D01*
X0310941Y0017026D01*
X0308126Y0030328D02*
X0308122Y0030375D01*
X0308114Y0030423D01*
X0308102Y0030469D01*
X0308086Y0030514D01*
X0308066Y0030558D01*
X0308043Y0030600D01*
X0308017Y0030640D01*
X0307987Y0030677D01*
X0307954Y0030712D01*
X0307919Y0030744D01*
X0307881Y0030773D01*
X0307840Y0030799D01*
X0307798Y0030822D01*
X0307754Y0030841D01*
X0307709Y0030856D01*
X0307662Y0030867D01*
X0307615Y0030875D01*
X0307567Y0030879D01*
X0307519Y0030878D01*
X0307472Y0030874D01*
X0307425Y0030866D01*
X0307378Y0030854D01*
X0307333Y0030838D01*
X0307289Y0030819D01*
X0307247Y0030796D01*
X0307207Y0030769D01*
X0307170Y0030740D01*
X0307135Y0030707D01*
X0307103Y0030672D01*
X0307073Y0030634D01*
X0307047Y0030593D01*
X0307025Y0030551D01*
X0307006Y0030507D01*
X0306990Y0030462D01*
X0306979Y0030415D01*
X0306971Y0030368D01*
X0306967Y0030321D01*
X0306968Y0030273D01*
X0293666Y0030272D02*
X0293003Y0015812D01*
X0293003Y0015646D01*
X0293004Y0015646D02*
X0293002Y0015574D01*
X0292996Y0015502D01*
X0292987Y0015430D01*
X0292974Y0015359D01*
X0292957Y0015289D01*
X0292937Y0015220D01*
X0292912Y0015152D01*
X0292885Y0015085D01*
X0292854Y0015020D01*
X0292819Y0014956D01*
X0292781Y0014894D01*
X0292740Y0014835D01*
X0292696Y0014778D01*
X0292650Y0014723D01*
X0292600Y0014670D01*
X0292547Y0014620D01*
X0292492Y0014574D01*
X0292435Y0014530D01*
X0292376Y0014489D01*
X0292314Y0014451D01*
X0292250Y0014416D01*
X0292185Y0014385D01*
X0292118Y0014358D01*
X0292050Y0014333D01*
X0291981Y0014313D01*
X0291911Y0014296D01*
X0291840Y0014283D01*
X0291768Y0014274D01*
X0291696Y0014268D01*
X0291624Y0014266D01*
X0291624Y0014267D02*
X0285552Y0014267D01*
X0289692Y0017026D02*
X0288809Y0030438D01*
X0288808Y0030438D02*
X0288804Y0030479D01*
X0288796Y0030519D01*
X0288784Y0030558D01*
X0288770Y0030596D01*
X0288752Y0030633D01*
X0288731Y0030668D01*
X0288707Y0030701D01*
X0288680Y0030732D01*
X0288650Y0030760D01*
X0288619Y0030786D01*
X0288585Y0030809D01*
X0288549Y0030829D01*
X0288512Y0030846D01*
X0288474Y0030860D01*
X0288434Y0030870D01*
X0288394Y0030876D01*
X0288353Y0030880D01*
X0288312Y0030879D01*
X0288312Y0030880D02*
X0285552Y0030880D01*
X0292507Y0030328D02*
X0291624Y0016971D01*
X0291618Y0016910D01*
X0291608Y0016849D01*
X0291594Y0016789D01*
X0291576Y0016729D01*
X0291555Y0016671D01*
X0291530Y0016615D01*
X0291501Y0016560D01*
X0291469Y0016507D01*
X0291434Y0016457D01*
X0291396Y0016408D01*
X0291354Y0016363D01*
X0291310Y0016320D01*
X0291263Y0016280D01*
X0291213Y0016243D01*
X0291162Y0016209D01*
X0291108Y0016178D01*
X0291052Y0016152D01*
X0290995Y0016128D01*
X0290936Y0016109D01*
X0290877Y0016093D01*
X0290816Y0016081D01*
X0290755Y0016073D01*
X0290693Y0016069D01*
X0290631Y0016068D01*
X0290570Y0016072D01*
X0290508Y0016080D01*
X0290448Y0016091D01*
X0290388Y0016107D01*
X0290329Y0016126D01*
X0290272Y0016149D01*
X0290216Y0016175D01*
X0290162Y0016205D01*
X0290110Y0016239D01*
X0290060Y0016275D01*
X0290013Y0016315D01*
X0289969Y0016358D01*
X0289927Y0016403D01*
X0289888Y0016451D01*
X0289852Y0016502D01*
X0289820Y0016554D01*
X0289791Y0016609D01*
X0289765Y0016665D01*
X0289744Y0016723D01*
X0289726Y0016782D01*
X0289711Y0016842D01*
X0289701Y0016903D01*
X0289695Y0016965D01*
X0289692Y0017026D01*
X0285332Y0019400D02*
X0281634Y0019400D01*
X0281586Y0019402D01*
X0281539Y0019407D01*
X0281492Y0019416D01*
X0281446Y0019429D01*
X0281401Y0019446D01*
X0281358Y0019466D01*
X0281316Y0019489D01*
X0281277Y0019515D01*
X0281239Y0019545D01*
X0281204Y0019577D01*
X0281172Y0019612D01*
X0281142Y0019650D01*
X0281116Y0019690D01*
X0281092Y0019731D01*
X0281073Y0019775D01*
X0281056Y0019819D01*
X0281043Y0019865D01*
X0281034Y0019912D01*
X0281029Y0019960D01*
X0281027Y0020007D01*
X0281027Y0020007D01*
X0281029Y0020056D01*
X0281034Y0020106D01*
X0281044Y0020154D01*
X0281056Y0020202D01*
X0281073Y0020249D01*
X0281093Y0020294D01*
X0281116Y0020338D01*
X0281142Y0020380D01*
X0281171Y0020420D01*
X0281204Y0020457D01*
X0281239Y0020492D01*
X0281276Y0020525D01*
X0281316Y0020554D01*
X0281358Y0020580D01*
X0281402Y0020603D01*
X0281447Y0020623D01*
X0281494Y0020640D01*
X0281542Y0020652D01*
X0281590Y0020662D01*
X0281640Y0020667D01*
X0281689Y0020669D01*
X0282296Y0020669D01*
X0282353Y0020671D01*
X0282411Y0020677D01*
X0282468Y0020686D01*
X0282524Y0020699D01*
X0282580Y0020716D01*
X0282634Y0020736D01*
X0282686Y0020760D01*
X0282737Y0020787D01*
X0282786Y0020818D01*
X0282833Y0020851D01*
X0282878Y0020888D01*
X0282920Y0020928D01*
X0282960Y0020970D01*
X0282997Y0021015D01*
X0283030Y0021062D01*
X0283061Y0021111D01*
X0283088Y0021162D01*
X0283112Y0021214D01*
X0283132Y0021268D01*
X0283149Y0021324D01*
X0283162Y0021380D01*
X0283171Y0021437D01*
X0283177Y0021495D01*
X0283179Y0021552D01*
X0283179Y0021663D01*
X0283179Y0021662D02*
X0283177Y0021720D01*
X0283172Y0021777D01*
X0283162Y0021834D01*
X0283149Y0021891D01*
X0283132Y0021946D01*
X0283112Y0022000D01*
X0283088Y0022053D01*
X0283061Y0022104D01*
X0283030Y0022153D01*
X0282997Y0022200D01*
X0282960Y0022244D01*
X0282921Y0022287D01*
X0282878Y0022326D01*
X0282834Y0022363D01*
X0282787Y0022396D01*
X0282738Y0022427D01*
X0282687Y0022454D01*
X0282634Y0022478D01*
X0282580Y0022498D01*
X0282525Y0022515D01*
X0282468Y0022528D01*
X0282411Y0022538D01*
X0282354Y0022543D01*
X0282296Y0022545D01*
X0282296Y0022546D02*
X0281634Y0022546D01*
X0281586Y0022548D01*
X0281539Y0022553D01*
X0281492Y0022563D01*
X0281446Y0022576D01*
X0281402Y0022592D01*
X0281358Y0022612D01*
X0281317Y0022635D01*
X0281277Y0022662D01*
X0281240Y0022691D01*
X0281205Y0022724D01*
X0281172Y0022759D01*
X0281143Y0022796D01*
X0281116Y0022836D01*
X0281093Y0022877D01*
X0281073Y0022921D01*
X0281057Y0022965D01*
X0281044Y0023011D01*
X0281034Y0023058D01*
X0281029Y0023105D01*
X0281027Y0023153D01*
X0281029Y0023202D01*
X0281034Y0023252D01*
X0281044Y0023300D01*
X0281056Y0023348D01*
X0281073Y0023395D01*
X0281093Y0023440D01*
X0281116Y0023484D01*
X0281142Y0023526D01*
X0281171Y0023566D01*
X0281204Y0023603D01*
X0281239Y0023638D01*
X0281276Y0023671D01*
X0281316Y0023700D01*
X0281358Y0023726D01*
X0281402Y0023749D01*
X0281447Y0023769D01*
X0281494Y0023786D01*
X0281542Y0023798D01*
X0281590Y0023808D01*
X0281640Y0023813D01*
X0281689Y0023815D01*
X0285111Y0023815D01*
X0292507Y0030328D02*
X0292511Y0030375D01*
X0292519Y0030423D01*
X0292531Y0030469D01*
X0292547Y0030514D01*
X0292567Y0030558D01*
X0292590Y0030600D01*
X0292616Y0030640D01*
X0292646Y0030677D01*
X0292679Y0030712D01*
X0292714Y0030744D01*
X0292752Y0030773D01*
X0292793Y0030799D01*
X0292835Y0030822D01*
X0292879Y0030841D01*
X0292924Y0030856D01*
X0292971Y0030867D01*
X0293018Y0030875D01*
X0293066Y0030879D01*
X0293114Y0030878D01*
X0293161Y0030874D01*
X0293208Y0030866D01*
X0293255Y0030854D01*
X0293300Y0030838D01*
X0293344Y0030819D01*
X0293386Y0030796D01*
X0293426Y0030769D01*
X0293463Y0030740D01*
X0293498Y0030707D01*
X0293530Y0030672D01*
X0293560Y0030634D01*
X0293586Y0030593D01*
X0293608Y0030551D01*
X0293627Y0030507D01*
X0293643Y0030462D01*
X0293654Y0030415D01*
X0293662Y0030368D01*
X0293666Y0030321D01*
X0293665Y0030273D01*
X0295916Y0057423D02*
X0302215Y0057423D01*
X0302215Y0069234D02*
X0295916Y0069234D01*
D21*
X0083861Y0181401D02*
X0081561Y0184801D01*
X0081961Y0185501D01*
X0082261Y0186201D01*
X0082561Y0186801D01*
X0075761Y0189201D01*
X0075424Y0188497D01*
X0074963Y0187868D01*
X0074394Y0187336D01*
X0073735Y0186919D01*
X0073010Y0186632D01*
X0072244Y0186484D01*
X0071464Y0186481D01*
X0070698Y0186623D01*
X0069971Y0186905D01*
X0069309Y0187317D01*
X0068735Y0187845D01*
X0068269Y0188470D01*
X0067928Y0189171D01*
X0067722Y0189923D01*
X0067723Y0189923D02*
X0056761Y0189923D01*
X0056761Y0189725D02*
X0067777Y0189725D01*
X0067722Y0189923D02*
X0067661Y0190701D01*
X0067686Y0191491D01*
X0067859Y0192263D01*
X0068173Y0192989D01*
X0068619Y0193643D01*
X0069178Y0194201D01*
X0069833Y0194645D01*
X0070559Y0194959D01*
X0071331Y0195130D01*
X0072122Y0195154D01*
X0072903Y0195029D01*
X0073647Y0194760D01*
X0074327Y0194356D01*
X0074919Y0193832D01*
X0075403Y0193206D01*
X0075761Y0192501D01*
X0082461Y0195101D01*
X0082061Y0195801D01*
X0081661Y0196501D01*
X0081261Y0197201D01*
X0083661Y0200501D01*
X0082961Y0201201D01*
X0082361Y0201801D01*
X0081661Y0202401D01*
X0080961Y0203001D01*
X0077361Y0200601D01*
X0076561Y0201101D01*
X0075661Y0201401D01*
X0074761Y0201701D01*
X0074061Y0201901D01*
X0073361Y0205901D01*
X0072261Y0206001D01*
X0071361Y0206001D01*
X0070561Y0205901D01*
X0069561Y0205801D01*
X0068861Y0201701D01*
X0067761Y0201301D01*
X0067161Y0201101D01*
X0066461Y0200701D01*
X0065661Y0200201D01*
X0062461Y0202701D01*
X0061761Y0202101D01*
X0061061Y0201401D01*
X0060361Y0200601D01*
X0059661Y0199801D01*
X0062061Y0196401D01*
X0061661Y0195501D01*
X0061261Y0194701D01*
X0061061Y0194001D01*
X0060861Y0193301D01*
X0056761Y0192701D01*
X0056761Y0188901D01*
X0060861Y0188101D01*
X0061161Y0187001D01*
X0061561Y0186201D01*
X0062161Y0185001D01*
X0059761Y0181601D01*
X0060361Y0180901D01*
X0061061Y0180201D01*
X0061761Y0179501D01*
X0062461Y0178901D01*
X0065861Y0181201D01*
X0066761Y0180701D01*
X0067661Y0180301D01*
X0068461Y0180001D01*
X0069261Y0179701D01*
X0069861Y0175701D01*
X0071061Y0175601D01*
X0073661Y0175601D01*
X0074361Y0179801D01*
X0075361Y0180001D01*
X0076361Y0180401D01*
X0077261Y0180801D01*
X0078061Y0181201D01*
X0081261Y0178801D01*
X0081961Y0179401D01*
X0082661Y0180101D01*
X0083361Y0180801D01*
X0083861Y0181401D01*
X0083849Y0181387D02*
X0059944Y0181387D01*
X0060114Y0181189D02*
X0065843Y0181189D01*
X0065882Y0181189D02*
X0078036Y0181189D01*
X0078077Y0181189D02*
X0083684Y0181189D01*
X0083518Y0180990D02*
X0078341Y0180990D01*
X0078606Y0180792D02*
X0083351Y0180792D01*
X0083153Y0180593D02*
X0078871Y0180593D01*
X0079135Y0180395D02*
X0082954Y0180395D01*
X0082756Y0180196D02*
X0079400Y0180196D01*
X0079665Y0179998D02*
X0082557Y0179998D01*
X0082359Y0179799D02*
X0079929Y0179799D01*
X0080194Y0179601D02*
X0082160Y0179601D01*
X0081962Y0179402D02*
X0080459Y0179402D01*
X0080724Y0179204D02*
X0081730Y0179204D01*
X0081499Y0179005D02*
X0080988Y0179005D01*
X0081253Y0178807D02*
X0081267Y0178807D01*
X0083735Y0181586D02*
X0059773Y0181586D01*
X0059890Y0181784D02*
X0083601Y0181784D01*
X0083467Y0181983D02*
X0060030Y0181983D01*
X0060170Y0182181D02*
X0083333Y0182181D01*
X0083198Y0182380D02*
X0060310Y0182380D01*
X0060451Y0182578D02*
X0083064Y0182578D01*
X0082930Y0182777D02*
X0060591Y0182777D01*
X0060731Y0182975D02*
X0082795Y0182975D01*
X0082661Y0183174D02*
X0060871Y0183174D01*
X0061011Y0183372D02*
X0082527Y0183372D01*
X0082393Y0183571D02*
X0061151Y0183571D01*
X0061291Y0183769D02*
X0082258Y0183769D01*
X0082124Y0183968D02*
X0061431Y0183968D01*
X0061572Y0184166D02*
X0081990Y0184166D01*
X0081855Y0184365D02*
X0061712Y0184365D01*
X0061852Y0184563D02*
X0081721Y0184563D01*
X0081587Y0184762D02*
X0061992Y0184762D01*
X0062132Y0184960D02*
X0081652Y0184960D01*
X0081765Y0185159D02*
X0062081Y0185159D01*
X0061982Y0185357D02*
X0081879Y0185357D01*
X0081984Y0185556D02*
X0061883Y0185556D01*
X0061784Y0185754D02*
X0082069Y0185754D01*
X0082154Y0185953D02*
X0061684Y0185953D01*
X0061585Y0186151D02*
X0082239Y0186151D01*
X0082335Y0186350D02*
X0061486Y0186350D01*
X0061387Y0186548D02*
X0071099Y0186548D01*
X0070378Y0186747D02*
X0061287Y0186747D01*
X0061188Y0186945D02*
X0069905Y0186945D01*
X0069587Y0187144D02*
X0061121Y0187144D01*
X0061067Y0187343D02*
X0069281Y0187343D01*
X0069065Y0187541D02*
X0061013Y0187541D01*
X0060959Y0187740D02*
X0068849Y0187740D01*
X0068666Y0187938D02*
X0060905Y0187938D01*
X0060677Y0188137D02*
X0068518Y0188137D01*
X0068370Y0188335D02*
X0059660Y0188335D01*
X0058642Y0188534D02*
X0068238Y0188534D01*
X0068142Y0188732D02*
X0057625Y0188732D01*
X0056761Y0188931D02*
X0068045Y0188931D01*
X0067948Y0189129D02*
X0056761Y0189129D01*
X0056761Y0189328D02*
X0067885Y0189328D01*
X0067831Y0189526D02*
X0056761Y0189526D01*
X0056761Y0190122D02*
X0067707Y0190122D01*
X0067691Y0190320D02*
X0056761Y0190320D01*
X0056761Y0190519D02*
X0067675Y0190519D01*
X0067661Y0190717D02*
X0056761Y0190717D01*
X0056761Y0190916D02*
X0067667Y0190916D01*
X0067674Y0191114D02*
X0056761Y0191114D01*
X0056761Y0191313D02*
X0067680Y0191313D01*
X0067690Y0191511D02*
X0056761Y0191511D01*
X0056761Y0191710D02*
X0067735Y0191710D01*
X0067779Y0191908D02*
X0056761Y0191908D01*
X0056761Y0192107D02*
X0067824Y0192107D01*
X0067877Y0192305D02*
X0056761Y0192305D01*
X0056761Y0192504D02*
X0067963Y0192504D01*
X0068049Y0192702D02*
X0056771Y0192702D01*
X0058128Y0192901D02*
X0068135Y0192901D01*
X0068249Y0193099D02*
X0059484Y0193099D01*
X0060841Y0193298D02*
X0068384Y0193298D01*
X0068519Y0193496D02*
X0060916Y0193496D01*
X0060973Y0193695D02*
X0068671Y0193695D01*
X0068870Y0193893D02*
X0061030Y0193893D01*
X0061087Y0194092D02*
X0069069Y0194092D01*
X0069310Y0194290D02*
X0061143Y0194290D01*
X0061200Y0194489D02*
X0069603Y0194489D01*
X0069931Y0194687D02*
X0061257Y0194687D01*
X0061353Y0194886D02*
X0070391Y0194886D01*
X0071126Y0195084D02*
X0061452Y0195084D01*
X0061552Y0195283D02*
X0082356Y0195283D01*
X0082418Y0195084D02*
X0072556Y0195084D01*
X0073298Y0194886D02*
X0081907Y0194886D01*
X0081395Y0194687D02*
X0073769Y0194687D01*
X0074103Y0194489D02*
X0080884Y0194489D01*
X0080372Y0194290D02*
X0074401Y0194290D01*
X0074626Y0194092D02*
X0079861Y0194092D01*
X0079349Y0193893D02*
X0074850Y0193893D01*
X0075025Y0193695D02*
X0078838Y0193695D01*
X0078326Y0193496D02*
X0075179Y0193496D01*
X0075332Y0193298D02*
X0077815Y0193298D01*
X0077303Y0193099D02*
X0075457Y0193099D01*
X0075558Y0192901D02*
X0076791Y0192901D01*
X0076280Y0192702D02*
X0075658Y0192702D01*
X0075759Y0192504D02*
X0075768Y0192504D01*
X0075726Y0189129D02*
X0075964Y0189129D01*
X0075631Y0188931D02*
X0076526Y0188931D01*
X0077089Y0188732D02*
X0075537Y0188732D01*
X0075442Y0188534D02*
X0077651Y0188534D01*
X0078213Y0188335D02*
X0075306Y0188335D01*
X0075160Y0188137D02*
X0078776Y0188137D01*
X0079338Y0187938D02*
X0075014Y0187938D01*
X0074825Y0187740D02*
X0079901Y0187740D01*
X0080463Y0187541D02*
X0074613Y0187541D01*
X0074400Y0187343D02*
X0081026Y0187343D01*
X0081588Y0187144D02*
X0074090Y0187144D01*
X0073777Y0186945D02*
X0082151Y0186945D01*
X0082534Y0186747D02*
X0073301Y0186747D01*
X0072579Y0186548D02*
X0082434Y0186548D01*
X0077639Y0180990D02*
X0066240Y0180990D01*
X0066597Y0180792D02*
X0077240Y0180792D01*
X0076793Y0180593D02*
X0067003Y0180593D01*
X0067449Y0180395D02*
X0076345Y0180395D01*
X0075849Y0180196D02*
X0067940Y0180196D01*
X0068469Y0179998D02*
X0075345Y0179998D01*
X0074360Y0179799D02*
X0068998Y0179799D01*
X0069276Y0179601D02*
X0074327Y0179601D01*
X0074294Y0179402D02*
X0069305Y0179402D01*
X0069335Y0179204D02*
X0074261Y0179204D01*
X0074228Y0179005D02*
X0069365Y0179005D01*
X0069395Y0178807D02*
X0074195Y0178807D01*
X0074162Y0178608D02*
X0069424Y0178608D01*
X0069454Y0178410D02*
X0074129Y0178410D01*
X0074096Y0178211D02*
X0069484Y0178211D01*
X0069514Y0178012D02*
X0074063Y0178012D01*
X0074029Y0177814D02*
X0069544Y0177814D01*
X0069573Y0177615D02*
X0073996Y0177615D01*
X0073963Y0177417D02*
X0069603Y0177417D01*
X0069633Y0177218D02*
X0073930Y0177218D01*
X0073897Y0177020D02*
X0069663Y0177020D01*
X0069692Y0176821D02*
X0073864Y0176821D01*
X0073831Y0176623D02*
X0069722Y0176623D01*
X0069752Y0176424D02*
X0073798Y0176424D01*
X0073765Y0176226D02*
X0069782Y0176226D01*
X0069812Y0176027D02*
X0073732Y0176027D01*
X0073699Y0175829D02*
X0069841Y0175829D01*
X0070706Y0175630D02*
X0073665Y0175630D01*
X0065549Y0180990D02*
X0060284Y0180990D01*
X0060470Y0180792D02*
X0065256Y0180792D01*
X0064962Y0180593D02*
X0060668Y0180593D01*
X0060867Y0180395D02*
X0064669Y0180395D01*
X0064375Y0180196D02*
X0061065Y0180196D01*
X0061264Y0179998D02*
X0064082Y0179998D01*
X0063788Y0179799D02*
X0061462Y0179799D01*
X0061661Y0179601D02*
X0063495Y0179601D01*
X0063202Y0179402D02*
X0061876Y0179402D01*
X0062107Y0179204D02*
X0062908Y0179204D01*
X0062615Y0179005D02*
X0062339Y0179005D01*
X0061651Y0195481D02*
X0082243Y0195481D01*
X0082130Y0195680D02*
X0061740Y0195680D01*
X0061828Y0195879D02*
X0082016Y0195879D01*
X0081903Y0196077D02*
X0061917Y0196077D01*
X0062005Y0196276D02*
X0081789Y0196276D01*
X0081676Y0196474D02*
X0062009Y0196474D01*
X0061869Y0196673D02*
X0081562Y0196673D01*
X0081449Y0196871D02*
X0061729Y0196871D01*
X0061588Y0197070D02*
X0081336Y0197070D01*
X0081309Y0197268D02*
X0061448Y0197268D01*
X0061308Y0197467D02*
X0081454Y0197467D01*
X0081598Y0197665D02*
X0061168Y0197665D01*
X0061028Y0197864D02*
X0081743Y0197864D01*
X0081887Y0198062D02*
X0060888Y0198062D01*
X0060748Y0198261D02*
X0082031Y0198261D01*
X0082176Y0198459D02*
X0060608Y0198459D01*
X0060467Y0198658D02*
X0082320Y0198658D01*
X0082464Y0198856D02*
X0060327Y0198856D01*
X0060187Y0199055D02*
X0082609Y0199055D01*
X0082753Y0199253D02*
X0060047Y0199253D01*
X0059907Y0199452D02*
X0082898Y0199452D01*
X0083042Y0199650D02*
X0059767Y0199650D01*
X0059703Y0199849D02*
X0083186Y0199849D01*
X0083331Y0200047D02*
X0059876Y0200047D01*
X0060050Y0200246D02*
X0065603Y0200246D01*
X0065733Y0200246D02*
X0083475Y0200246D01*
X0083619Y0200444D02*
X0066050Y0200444D01*
X0066368Y0200643D02*
X0077293Y0200643D01*
X0077424Y0200643D02*
X0083519Y0200643D01*
X0083320Y0200841D02*
X0077721Y0200841D01*
X0078019Y0201040D02*
X0083122Y0201040D01*
X0082923Y0201238D02*
X0078317Y0201238D01*
X0078615Y0201437D02*
X0082725Y0201437D01*
X0082526Y0201635D02*
X0078912Y0201635D01*
X0079210Y0201834D02*
X0082322Y0201834D01*
X0082090Y0202032D02*
X0079508Y0202032D01*
X0079806Y0202231D02*
X0081859Y0202231D01*
X0081627Y0202429D02*
X0080103Y0202429D01*
X0080401Y0202628D02*
X0081396Y0202628D01*
X0081164Y0202826D02*
X0080699Y0202826D01*
X0076976Y0200841D02*
X0066706Y0200841D01*
X0067054Y0201040D02*
X0076658Y0201040D01*
X0076148Y0201238D02*
X0067573Y0201238D01*
X0068135Y0201437D02*
X0075552Y0201437D01*
X0074957Y0201635D02*
X0068681Y0201635D01*
X0068883Y0201834D02*
X0074295Y0201834D01*
X0074038Y0202032D02*
X0068917Y0202032D01*
X0068951Y0202231D02*
X0074003Y0202231D01*
X0073968Y0202429D02*
X0068985Y0202429D01*
X0069019Y0202628D02*
X0073933Y0202628D01*
X0073899Y0202826D02*
X0069053Y0202826D01*
X0069087Y0203025D02*
X0073864Y0203025D01*
X0073829Y0203223D02*
X0069121Y0203223D01*
X0069154Y0203422D02*
X0073794Y0203422D01*
X0073760Y0203620D02*
X0069188Y0203620D01*
X0069222Y0203819D02*
X0073725Y0203819D01*
X0073690Y0204017D02*
X0069256Y0204017D01*
X0069290Y0204216D02*
X0073655Y0204216D01*
X0073621Y0204414D02*
X0069324Y0204414D01*
X0069358Y0204613D02*
X0073586Y0204613D01*
X0073551Y0204812D02*
X0069392Y0204812D01*
X0069426Y0205010D02*
X0073516Y0205010D01*
X0073482Y0205209D02*
X0069459Y0205209D01*
X0069493Y0205407D02*
X0073447Y0205407D01*
X0073412Y0205606D02*
X0069527Y0205606D01*
X0069593Y0205804D02*
X0073377Y0205804D01*
X0065349Y0200444D02*
X0060224Y0200444D01*
X0060397Y0200643D02*
X0065095Y0200643D01*
X0064841Y0200841D02*
X0060571Y0200841D01*
X0060745Y0201040D02*
X0064587Y0201040D01*
X0064333Y0201238D02*
X0060918Y0201238D01*
X0061097Y0201437D02*
X0064078Y0201437D01*
X0063824Y0201635D02*
X0061295Y0201635D01*
X0061494Y0201834D02*
X0063570Y0201834D01*
X0063316Y0202032D02*
X0061692Y0202032D01*
X0061912Y0202231D02*
X0063062Y0202231D01*
X0062808Y0202429D02*
X0062144Y0202429D01*
X0062376Y0202628D02*
X0062554Y0202628D01*
M02*
