G75*
%MOIN*%
%OFA0B0*%
%FSLAX25Y25*%
%IPPOS*%
%LPD*%
%AMOC8*
5,1,8,0,0,1.08239X$1,22.5*
%
%ADD10C,0.00000*%
%ADD11C,0.00500*%
%ADD12C,0.01200*%
%ADD13C,0.00945*%
%ADD14C,0.01890*%
%ADD15C,0.01181*%
%ADD16C,0.01358*%
%ADD17C,0.00803*%
%ADD18C,0.01417*%
%ADD19C,0.01969*%
%ADD20C,0.01250*%
%ADD21C,0.00807*%
%ADD22C,0.03543*%
%ADD23C,0.01559*%
%ADD24C,0.01063*%
%ADD25C,0.00886*%
%ADD26C,0.01606*%
%ADD27C,0.01083*%
D10*
X0004252Y0015829D02*
X0004252Y0311104D01*
X0397953Y0311104D01*
X0397953Y0015829D01*
X0004252Y0015829D01*
X0049528Y0033329D02*
X0049530Y0033466D01*
X0049536Y0033604D01*
X0049546Y0033741D01*
X0049560Y0033877D01*
X0049578Y0034014D01*
X0049600Y0034149D01*
X0049626Y0034284D01*
X0049655Y0034418D01*
X0049689Y0034552D01*
X0049726Y0034684D01*
X0049768Y0034815D01*
X0049813Y0034945D01*
X0049862Y0035073D01*
X0049914Y0035200D01*
X0049971Y0035325D01*
X0050030Y0035449D01*
X0050094Y0035571D01*
X0050161Y0035691D01*
X0050231Y0035809D01*
X0050305Y0035925D01*
X0050382Y0036039D01*
X0050463Y0036150D01*
X0050546Y0036259D01*
X0050633Y0036366D01*
X0050723Y0036469D01*
X0050816Y0036571D01*
X0050912Y0036669D01*
X0051010Y0036765D01*
X0051112Y0036858D01*
X0051215Y0036948D01*
X0051322Y0037035D01*
X0051431Y0037118D01*
X0051542Y0037199D01*
X0051656Y0037276D01*
X0051772Y0037350D01*
X0051890Y0037420D01*
X0052010Y0037487D01*
X0052132Y0037551D01*
X0052256Y0037610D01*
X0052381Y0037667D01*
X0052508Y0037719D01*
X0052636Y0037768D01*
X0052766Y0037813D01*
X0052897Y0037855D01*
X0053029Y0037892D01*
X0053163Y0037926D01*
X0053297Y0037955D01*
X0053432Y0037981D01*
X0053567Y0038003D01*
X0053704Y0038021D01*
X0053840Y0038035D01*
X0053977Y0038045D01*
X0054115Y0038051D01*
X0054252Y0038053D01*
X0054389Y0038051D01*
X0054527Y0038045D01*
X0054664Y0038035D01*
X0054800Y0038021D01*
X0054937Y0038003D01*
X0055072Y0037981D01*
X0055207Y0037955D01*
X0055341Y0037926D01*
X0055475Y0037892D01*
X0055607Y0037855D01*
X0055738Y0037813D01*
X0055868Y0037768D01*
X0055996Y0037719D01*
X0056123Y0037667D01*
X0056248Y0037610D01*
X0056372Y0037551D01*
X0056494Y0037487D01*
X0056614Y0037420D01*
X0056732Y0037350D01*
X0056848Y0037276D01*
X0056962Y0037199D01*
X0057073Y0037118D01*
X0057182Y0037035D01*
X0057289Y0036948D01*
X0057392Y0036858D01*
X0057494Y0036765D01*
X0057592Y0036669D01*
X0057688Y0036571D01*
X0057781Y0036469D01*
X0057871Y0036366D01*
X0057958Y0036259D01*
X0058041Y0036150D01*
X0058122Y0036039D01*
X0058199Y0035925D01*
X0058273Y0035809D01*
X0058343Y0035691D01*
X0058410Y0035571D01*
X0058474Y0035449D01*
X0058533Y0035325D01*
X0058590Y0035200D01*
X0058642Y0035073D01*
X0058691Y0034945D01*
X0058736Y0034815D01*
X0058778Y0034684D01*
X0058815Y0034552D01*
X0058849Y0034418D01*
X0058878Y0034284D01*
X0058904Y0034149D01*
X0058926Y0034014D01*
X0058944Y0033877D01*
X0058958Y0033741D01*
X0058968Y0033604D01*
X0058974Y0033466D01*
X0058976Y0033329D01*
X0058974Y0033192D01*
X0058968Y0033054D01*
X0058958Y0032917D01*
X0058944Y0032781D01*
X0058926Y0032644D01*
X0058904Y0032509D01*
X0058878Y0032374D01*
X0058849Y0032240D01*
X0058815Y0032106D01*
X0058778Y0031974D01*
X0058736Y0031843D01*
X0058691Y0031713D01*
X0058642Y0031585D01*
X0058590Y0031458D01*
X0058533Y0031333D01*
X0058474Y0031209D01*
X0058410Y0031087D01*
X0058343Y0030967D01*
X0058273Y0030849D01*
X0058199Y0030733D01*
X0058122Y0030619D01*
X0058041Y0030508D01*
X0057958Y0030399D01*
X0057871Y0030292D01*
X0057781Y0030189D01*
X0057688Y0030087D01*
X0057592Y0029989D01*
X0057494Y0029893D01*
X0057392Y0029800D01*
X0057289Y0029710D01*
X0057182Y0029623D01*
X0057073Y0029540D01*
X0056962Y0029459D01*
X0056848Y0029382D01*
X0056732Y0029308D01*
X0056614Y0029238D01*
X0056494Y0029171D01*
X0056372Y0029107D01*
X0056248Y0029048D01*
X0056123Y0028991D01*
X0055996Y0028939D01*
X0055868Y0028890D01*
X0055738Y0028845D01*
X0055607Y0028803D01*
X0055475Y0028766D01*
X0055341Y0028732D01*
X0055207Y0028703D01*
X0055072Y0028677D01*
X0054937Y0028655D01*
X0054800Y0028637D01*
X0054664Y0028623D01*
X0054527Y0028613D01*
X0054389Y0028607D01*
X0054252Y0028605D01*
X0054115Y0028607D01*
X0053977Y0028613D01*
X0053840Y0028623D01*
X0053704Y0028637D01*
X0053567Y0028655D01*
X0053432Y0028677D01*
X0053297Y0028703D01*
X0053163Y0028732D01*
X0053029Y0028766D01*
X0052897Y0028803D01*
X0052766Y0028845D01*
X0052636Y0028890D01*
X0052508Y0028939D01*
X0052381Y0028991D01*
X0052256Y0029048D01*
X0052132Y0029107D01*
X0052010Y0029171D01*
X0051890Y0029238D01*
X0051772Y0029308D01*
X0051656Y0029382D01*
X0051542Y0029459D01*
X0051431Y0029540D01*
X0051322Y0029623D01*
X0051215Y0029710D01*
X0051112Y0029800D01*
X0051010Y0029893D01*
X0050912Y0029989D01*
X0050816Y0030087D01*
X0050723Y0030189D01*
X0050633Y0030292D01*
X0050546Y0030399D01*
X0050463Y0030508D01*
X0050382Y0030619D01*
X0050305Y0030733D01*
X0050231Y0030849D01*
X0050161Y0030967D01*
X0050094Y0031087D01*
X0050030Y0031209D01*
X0049971Y0031333D01*
X0049914Y0031458D01*
X0049862Y0031585D01*
X0049813Y0031713D01*
X0049768Y0031843D01*
X0049726Y0031974D01*
X0049689Y0032106D01*
X0049655Y0032240D01*
X0049626Y0032374D01*
X0049600Y0032509D01*
X0049578Y0032644D01*
X0049560Y0032781D01*
X0049546Y0032917D01*
X0049536Y0033054D01*
X0049530Y0033192D01*
X0049528Y0033329D01*
X0074528Y0033329D02*
X0074530Y0033466D01*
X0074536Y0033604D01*
X0074546Y0033741D01*
X0074560Y0033877D01*
X0074578Y0034014D01*
X0074600Y0034149D01*
X0074626Y0034284D01*
X0074655Y0034418D01*
X0074689Y0034552D01*
X0074726Y0034684D01*
X0074768Y0034815D01*
X0074813Y0034945D01*
X0074862Y0035073D01*
X0074914Y0035200D01*
X0074971Y0035325D01*
X0075030Y0035449D01*
X0075094Y0035571D01*
X0075161Y0035691D01*
X0075231Y0035809D01*
X0075305Y0035925D01*
X0075382Y0036039D01*
X0075463Y0036150D01*
X0075546Y0036259D01*
X0075633Y0036366D01*
X0075723Y0036469D01*
X0075816Y0036571D01*
X0075912Y0036669D01*
X0076010Y0036765D01*
X0076112Y0036858D01*
X0076215Y0036948D01*
X0076322Y0037035D01*
X0076431Y0037118D01*
X0076542Y0037199D01*
X0076656Y0037276D01*
X0076772Y0037350D01*
X0076890Y0037420D01*
X0077010Y0037487D01*
X0077132Y0037551D01*
X0077256Y0037610D01*
X0077381Y0037667D01*
X0077508Y0037719D01*
X0077636Y0037768D01*
X0077766Y0037813D01*
X0077897Y0037855D01*
X0078029Y0037892D01*
X0078163Y0037926D01*
X0078297Y0037955D01*
X0078432Y0037981D01*
X0078567Y0038003D01*
X0078704Y0038021D01*
X0078840Y0038035D01*
X0078977Y0038045D01*
X0079115Y0038051D01*
X0079252Y0038053D01*
X0079389Y0038051D01*
X0079527Y0038045D01*
X0079664Y0038035D01*
X0079800Y0038021D01*
X0079937Y0038003D01*
X0080072Y0037981D01*
X0080207Y0037955D01*
X0080341Y0037926D01*
X0080475Y0037892D01*
X0080607Y0037855D01*
X0080738Y0037813D01*
X0080868Y0037768D01*
X0080996Y0037719D01*
X0081123Y0037667D01*
X0081248Y0037610D01*
X0081372Y0037551D01*
X0081494Y0037487D01*
X0081614Y0037420D01*
X0081732Y0037350D01*
X0081848Y0037276D01*
X0081962Y0037199D01*
X0082073Y0037118D01*
X0082182Y0037035D01*
X0082289Y0036948D01*
X0082392Y0036858D01*
X0082494Y0036765D01*
X0082592Y0036669D01*
X0082688Y0036571D01*
X0082781Y0036469D01*
X0082871Y0036366D01*
X0082958Y0036259D01*
X0083041Y0036150D01*
X0083122Y0036039D01*
X0083199Y0035925D01*
X0083273Y0035809D01*
X0083343Y0035691D01*
X0083410Y0035571D01*
X0083474Y0035449D01*
X0083533Y0035325D01*
X0083590Y0035200D01*
X0083642Y0035073D01*
X0083691Y0034945D01*
X0083736Y0034815D01*
X0083778Y0034684D01*
X0083815Y0034552D01*
X0083849Y0034418D01*
X0083878Y0034284D01*
X0083904Y0034149D01*
X0083926Y0034014D01*
X0083944Y0033877D01*
X0083958Y0033741D01*
X0083968Y0033604D01*
X0083974Y0033466D01*
X0083976Y0033329D01*
X0083974Y0033192D01*
X0083968Y0033054D01*
X0083958Y0032917D01*
X0083944Y0032781D01*
X0083926Y0032644D01*
X0083904Y0032509D01*
X0083878Y0032374D01*
X0083849Y0032240D01*
X0083815Y0032106D01*
X0083778Y0031974D01*
X0083736Y0031843D01*
X0083691Y0031713D01*
X0083642Y0031585D01*
X0083590Y0031458D01*
X0083533Y0031333D01*
X0083474Y0031209D01*
X0083410Y0031087D01*
X0083343Y0030967D01*
X0083273Y0030849D01*
X0083199Y0030733D01*
X0083122Y0030619D01*
X0083041Y0030508D01*
X0082958Y0030399D01*
X0082871Y0030292D01*
X0082781Y0030189D01*
X0082688Y0030087D01*
X0082592Y0029989D01*
X0082494Y0029893D01*
X0082392Y0029800D01*
X0082289Y0029710D01*
X0082182Y0029623D01*
X0082073Y0029540D01*
X0081962Y0029459D01*
X0081848Y0029382D01*
X0081732Y0029308D01*
X0081614Y0029238D01*
X0081494Y0029171D01*
X0081372Y0029107D01*
X0081248Y0029048D01*
X0081123Y0028991D01*
X0080996Y0028939D01*
X0080868Y0028890D01*
X0080738Y0028845D01*
X0080607Y0028803D01*
X0080475Y0028766D01*
X0080341Y0028732D01*
X0080207Y0028703D01*
X0080072Y0028677D01*
X0079937Y0028655D01*
X0079800Y0028637D01*
X0079664Y0028623D01*
X0079527Y0028613D01*
X0079389Y0028607D01*
X0079252Y0028605D01*
X0079115Y0028607D01*
X0078977Y0028613D01*
X0078840Y0028623D01*
X0078704Y0028637D01*
X0078567Y0028655D01*
X0078432Y0028677D01*
X0078297Y0028703D01*
X0078163Y0028732D01*
X0078029Y0028766D01*
X0077897Y0028803D01*
X0077766Y0028845D01*
X0077636Y0028890D01*
X0077508Y0028939D01*
X0077381Y0028991D01*
X0077256Y0029048D01*
X0077132Y0029107D01*
X0077010Y0029171D01*
X0076890Y0029238D01*
X0076772Y0029308D01*
X0076656Y0029382D01*
X0076542Y0029459D01*
X0076431Y0029540D01*
X0076322Y0029623D01*
X0076215Y0029710D01*
X0076112Y0029800D01*
X0076010Y0029893D01*
X0075912Y0029989D01*
X0075816Y0030087D01*
X0075723Y0030189D01*
X0075633Y0030292D01*
X0075546Y0030399D01*
X0075463Y0030508D01*
X0075382Y0030619D01*
X0075305Y0030733D01*
X0075231Y0030849D01*
X0075161Y0030967D01*
X0075094Y0031087D01*
X0075030Y0031209D01*
X0074971Y0031333D01*
X0074914Y0031458D01*
X0074862Y0031585D01*
X0074813Y0031713D01*
X0074768Y0031843D01*
X0074726Y0031974D01*
X0074689Y0032106D01*
X0074655Y0032240D01*
X0074626Y0032374D01*
X0074600Y0032509D01*
X0074578Y0032644D01*
X0074560Y0032781D01*
X0074546Y0032917D01*
X0074536Y0033054D01*
X0074530Y0033192D01*
X0074528Y0033329D01*
X0115352Y0043703D02*
X0115354Y0043863D01*
X0115360Y0044022D01*
X0115370Y0044181D01*
X0115384Y0044340D01*
X0115402Y0044499D01*
X0115423Y0044657D01*
X0115449Y0044814D01*
X0115479Y0044971D01*
X0115512Y0045127D01*
X0115550Y0045282D01*
X0115591Y0045436D01*
X0115636Y0045589D01*
X0115685Y0045741D01*
X0115738Y0045892D01*
X0115794Y0046041D01*
X0115855Y0046189D01*
X0115918Y0046335D01*
X0115986Y0046480D01*
X0116057Y0046623D01*
X0116131Y0046764D01*
X0116209Y0046903D01*
X0116291Y0047040D01*
X0116376Y0047175D01*
X0116464Y0047308D01*
X0116556Y0047439D01*
X0116650Y0047567D01*
X0116748Y0047693D01*
X0116849Y0047817D01*
X0116953Y0047938D01*
X0117060Y0048056D01*
X0117170Y0048172D01*
X0117283Y0048285D01*
X0117399Y0048395D01*
X0117517Y0048502D01*
X0117638Y0048606D01*
X0117762Y0048707D01*
X0117888Y0048805D01*
X0118016Y0048899D01*
X0118147Y0048991D01*
X0118280Y0049079D01*
X0118415Y0049164D01*
X0118552Y0049246D01*
X0118691Y0049324D01*
X0118832Y0049398D01*
X0118975Y0049469D01*
X0119120Y0049537D01*
X0119266Y0049600D01*
X0119414Y0049661D01*
X0119563Y0049717D01*
X0119714Y0049770D01*
X0119866Y0049819D01*
X0120019Y0049864D01*
X0120173Y0049905D01*
X0120328Y0049943D01*
X0120484Y0049976D01*
X0120641Y0050006D01*
X0120798Y0050032D01*
X0120956Y0050053D01*
X0121115Y0050071D01*
X0121274Y0050085D01*
X0121433Y0050095D01*
X0121592Y0050101D01*
X0121752Y0050103D01*
X0121912Y0050101D01*
X0122071Y0050095D01*
X0122230Y0050085D01*
X0122389Y0050071D01*
X0122548Y0050053D01*
X0122706Y0050032D01*
X0122863Y0050006D01*
X0123020Y0049976D01*
X0123176Y0049943D01*
X0123331Y0049905D01*
X0123485Y0049864D01*
X0123638Y0049819D01*
X0123790Y0049770D01*
X0123941Y0049717D01*
X0124090Y0049661D01*
X0124238Y0049600D01*
X0124384Y0049537D01*
X0124529Y0049469D01*
X0124672Y0049398D01*
X0124813Y0049324D01*
X0124952Y0049246D01*
X0125089Y0049164D01*
X0125224Y0049079D01*
X0125357Y0048991D01*
X0125488Y0048899D01*
X0125616Y0048805D01*
X0125742Y0048707D01*
X0125866Y0048606D01*
X0125987Y0048502D01*
X0126105Y0048395D01*
X0126221Y0048285D01*
X0126334Y0048172D01*
X0126444Y0048056D01*
X0126551Y0047938D01*
X0126655Y0047817D01*
X0126756Y0047693D01*
X0126854Y0047567D01*
X0126948Y0047439D01*
X0127040Y0047308D01*
X0127128Y0047175D01*
X0127213Y0047040D01*
X0127295Y0046903D01*
X0127373Y0046764D01*
X0127447Y0046623D01*
X0127518Y0046480D01*
X0127586Y0046335D01*
X0127649Y0046189D01*
X0127710Y0046041D01*
X0127766Y0045892D01*
X0127819Y0045741D01*
X0127868Y0045589D01*
X0127913Y0045436D01*
X0127954Y0045282D01*
X0127992Y0045127D01*
X0128025Y0044971D01*
X0128055Y0044814D01*
X0128081Y0044657D01*
X0128102Y0044499D01*
X0128120Y0044340D01*
X0128134Y0044181D01*
X0128144Y0044022D01*
X0128150Y0043863D01*
X0128152Y0043703D01*
X0128150Y0043543D01*
X0128144Y0043384D01*
X0128134Y0043225D01*
X0128120Y0043066D01*
X0128102Y0042907D01*
X0128081Y0042749D01*
X0128055Y0042592D01*
X0128025Y0042435D01*
X0127992Y0042279D01*
X0127954Y0042124D01*
X0127913Y0041970D01*
X0127868Y0041817D01*
X0127819Y0041665D01*
X0127766Y0041514D01*
X0127710Y0041365D01*
X0127649Y0041217D01*
X0127586Y0041071D01*
X0127518Y0040926D01*
X0127447Y0040783D01*
X0127373Y0040642D01*
X0127295Y0040503D01*
X0127213Y0040366D01*
X0127128Y0040231D01*
X0127040Y0040098D01*
X0126948Y0039967D01*
X0126854Y0039839D01*
X0126756Y0039713D01*
X0126655Y0039589D01*
X0126551Y0039468D01*
X0126444Y0039350D01*
X0126334Y0039234D01*
X0126221Y0039121D01*
X0126105Y0039011D01*
X0125987Y0038904D01*
X0125866Y0038800D01*
X0125742Y0038699D01*
X0125616Y0038601D01*
X0125488Y0038507D01*
X0125357Y0038415D01*
X0125224Y0038327D01*
X0125089Y0038242D01*
X0124952Y0038160D01*
X0124813Y0038082D01*
X0124672Y0038008D01*
X0124529Y0037937D01*
X0124384Y0037869D01*
X0124238Y0037806D01*
X0124090Y0037745D01*
X0123941Y0037689D01*
X0123790Y0037636D01*
X0123638Y0037587D01*
X0123485Y0037542D01*
X0123331Y0037501D01*
X0123176Y0037463D01*
X0123020Y0037430D01*
X0122863Y0037400D01*
X0122706Y0037374D01*
X0122548Y0037353D01*
X0122389Y0037335D01*
X0122230Y0037321D01*
X0122071Y0037311D01*
X0121912Y0037305D01*
X0121752Y0037303D01*
X0121592Y0037305D01*
X0121433Y0037311D01*
X0121274Y0037321D01*
X0121115Y0037335D01*
X0120956Y0037353D01*
X0120798Y0037374D01*
X0120641Y0037400D01*
X0120484Y0037430D01*
X0120328Y0037463D01*
X0120173Y0037501D01*
X0120019Y0037542D01*
X0119866Y0037587D01*
X0119714Y0037636D01*
X0119563Y0037689D01*
X0119414Y0037745D01*
X0119266Y0037806D01*
X0119120Y0037869D01*
X0118975Y0037937D01*
X0118832Y0038008D01*
X0118691Y0038082D01*
X0118552Y0038160D01*
X0118415Y0038242D01*
X0118280Y0038327D01*
X0118147Y0038415D01*
X0118016Y0038507D01*
X0117888Y0038601D01*
X0117762Y0038699D01*
X0117638Y0038800D01*
X0117517Y0038904D01*
X0117399Y0039011D01*
X0117283Y0039121D01*
X0117170Y0039234D01*
X0117060Y0039350D01*
X0116953Y0039468D01*
X0116849Y0039589D01*
X0116748Y0039713D01*
X0116650Y0039839D01*
X0116556Y0039967D01*
X0116464Y0040098D01*
X0116376Y0040231D01*
X0116291Y0040366D01*
X0116209Y0040503D01*
X0116131Y0040642D01*
X0116057Y0040783D01*
X0115986Y0040926D01*
X0115918Y0041071D01*
X0115855Y0041217D01*
X0115794Y0041365D01*
X0115738Y0041514D01*
X0115685Y0041665D01*
X0115636Y0041817D01*
X0115591Y0041970D01*
X0115550Y0042124D01*
X0115512Y0042279D01*
X0115479Y0042435D01*
X0115449Y0042592D01*
X0115423Y0042749D01*
X0115402Y0042907D01*
X0115384Y0043066D01*
X0115370Y0043225D01*
X0115360Y0043384D01*
X0115354Y0043543D01*
X0115352Y0043703D01*
X0074528Y0086478D02*
X0074530Y0086615D01*
X0074536Y0086753D01*
X0074546Y0086890D01*
X0074560Y0087026D01*
X0074578Y0087163D01*
X0074600Y0087298D01*
X0074626Y0087433D01*
X0074655Y0087567D01*
X0074689Y0087701D01*
X0074726Y0087833D01*
X0074768Y0087964D01*
X0074813Y0088094D01*
X0074862Y0088222D01*
X0074914Y0088349D01*
X0074971Y0088474D01*
X0075030Y0088598D01*
X0075094Y0088720D01*
X0075161Y0088840D01*
X0075231Y0088958D01*
X0075305Y0089074D01*
X0075382Y0089188D01*
X0075463Y0089299D01*
X0075546Y0089408D01*
X0075633Y0089515D01*
X0075723Y0089618D01*
X0075816Y0089720D01*
X0075912Y0089818D01*
X0076010Y0089914D01*
X0076112Y0090007D01*
X0076215Y0090097D01*
X0076322Y0090184D01*
X0076431Y0090267D01*
X0076542Y0090348D01*
X0076656Y0090425D01*
X0076772Y0090499D01*
X0076890Y0090569D01*
X0077010Y0090636D01*
X0077132Y0090700D01*
X0077256Y0090759D01*
X0077381Y0090816D01*
X0077508Y0090868D01*
X0077636Y0090917D01*
X0077766Y0090962D01*
X0077897Y0091004D01*
X0078029Y0091041D01*
X0078163Y0091075D01*
X0078297Y0091104D01*
X0078432Y0091130D01*
X0078567Y0091152D01*
X0078704Y0091170D01*
X0078840Y0091184D01*
X0078977Y0091194D01*
X0079115Y0091200D01*
X0079252Y0091202D01*
X0079389Y0091200D01*
X0079527Y0091194D01*
X0079664Y0091184D01*
X0079800Y0091170D01*
X0079937Y0091152D01*
X0080072Y0091130D01*
X0080207Y0091104D01*
X0080341Y0091075D01*
X0080475Y0091041D01*
X0080607Y0091004D01*
X0080738Y0090962D01*
X0080868Y0090917D01*
X0080996Y0090868D01*
X0081123Y0090816D01*
X0081248Y0090759D01*
X0081372Y0090700D01*
X0081494Y0090636D01*
X0081614Y0090569D01*
X0081732Y0090499D01*
X0081848Y0090425D01*
X0081962Y0090348D01*
X0082073Y0090267D01*
X0082182Y0090184D01*
X0082289Y0090097D01*
X0082392Y0090007D01*
X0082494Y0089914D01*
X0082592Y0089818D01*
X0082688Y0089720D01*
X0082781Y0089618D01*
X0082871Y0089515D01*
X0082958Y0089408D01*
X0083041Y0089299D01*
X0083122Y0089188D01*
X0083199Y0089074D01*
X0083273Y0088958D01*
X0083343Y0088840D01*
X0083410Y0088720D01*
X0083474Y0088598D01*
X0083533Y0088474D01*
X0083590Y0088349D01*
X0083642Y0088222D01*
X0083691Y0088094D01*
X0083736Y0087964D01*
X0083778Y0087833D01*
X0083815Y0087701D01*
X0083849Y0087567D01*
X0083878Y0087433D01*
X0083904Y0087298D01*
X0083926Y0087163D01*
X0083944Y0087026D01*
X0083958Y0086890D01*
X0083968Y0086753D01*
X0083974Y0086615D01*
X0083976Y0086478D01*
X0083974Y0086341D01*
X0083968Y0086203D01*
X0083958Y0086066D01*
X0083944Y0085930D01*
X0083926Y0085793D01*
X0083904Y0085658D01*
X0083878Y0085523D01*
X0083849Y0085389D01*
X0083815Y0085255D01*
X0083778Y0085123D01*
X0083736Y0084992D01*
X0083691Y0084862D01*
X0083642Y0084734D01*
X0083590Y0084607D01*
X0083533Y0084482D01*
X0083474Y0084358D01*
X0083410Y0084236D01*
X0083343Y0084116D01*
X0083273Y0083998D01*
X0083199Y0083882D01*
X0083122Y0083768D01*
X0083041Y0083657D01*
X0082958Y0083548D01*
X0082871Y0083441D01*
X0082781Y0083338D01*
X0082688Y0083236D01*
X0082592Y0083138D01*
X0082494Y0083042D01*
X0082392Y0082949D01*
X0082289Y0082859D01*
X0082182Y0082772D01*
X0082073Y0082689D01*
X0081962Y0082608D01*
X0081848Y0082531D01*
X0081732Y0082457D01*
X0081614Y0082387D01*
X0081494Y0082320D01*
X0081372Y0082256D01*
X0081248Y0082197D01*
X0081123Y0082140D01*
X0080996Y0082088D01*
X0080868Y0082039D01*
X0080738Y0081994D01*
X0080607Y0081952D01*
X0080475Y0081915D01*
X0080341Y0081881D01*
X0080207Y0081852D01*
X0080072Y0081826D01*
X0079937Y0081804D01*
X0079800Y0081786D01*
X0079664Y0081772D01*
X0079527Y0081762D01*
X0079389Y0081756D01*
X0079252Y0081754D01*
X0079115Y0081756D01*
X0078977Y0081762D01*
X0078840Y0081772D01*
X0078704Y0081786D01*
X0078567Y0081804D01*
X0078432Y0081826D01*
X0078297Y0081852D01*
X0078163Y0081881D01*
X0078029Y0081915D01*
X0077897Y0081952D01*
X0077766Y0081994D01*
X0077636Y0082039D01*
X0077508Y0082088D01*
X0077381Y0082140D01*
X0077256Y0082197D01*
X0077132Y0082256D01*
X0077010Y0082320D01*
X0076890Y0082387D01*
X0076772Y0082457D01*
X0076656Y0082531D01*
X0076542Y0082608D01*
X0076431Y0082689D01*
X0076322Y0082772D01*
X0076215Y0082859D01*
X0076112Y0082949D01*
X0076010Y0083042D01*
X0075912Y0083138D01*
X0075816Y0083236D01*
X0075723Y0083338D01*
X0075633Y0083441D01*
X0075546Y0083548D01*
X0075463Y0083657D01*
X0075382Y0083768D01*
X0075305Y0083882D01*
X0075231Y0083998D01*
X0075161Y0084116D01*
X0075094Y0084236D01*
X0075030Y0084358D01*
X0074971Y0084482D01*
X0074914Y0084607D01*
X0074862Y0084734D01*
X0074813Y0084862D01*
X0074768Y0084992D01*
X0074726Y0085123D01*
X0074689Y0085255D01*
X0074655Y0085389D01*
X0074626Y0085523D01*
X0074600Y0085658D01*
X0074578Y0085793D01*
X0074560Y0085930D01*
X0074546Y0086066D01*
X0074536Y0086203D01*
X0074530Y0086341D01*
X0074528Y0086478D01*
X0049528Y0086478D02*
X0049530Y0086615D01*
X0049536Y0086753D01*
X0049546Y0086890D01*
X0049560Y0087026D01*
X0049578Y0087163D01*
X0049600Y0087298D01*
X0049626Y0087433D01*
X0049655Y0087567D01*
X0049689Y0087701D01*
X0049726Y0087833D01*
X0049768Y0087964D01*
X0049813Y0088094D01*
X0049862Y0088222D01*
X0049914Y0088349D01*
X0049971Y0088474D01*
X0050030Y0088598D01*
X0050094Y0088720D01*
X0050161Y0088840D01*
X0050231Y0088958D01*
X0050305Y0089074D01*
X0050382Y0089188D01*
X0050463Y0089299D01*
X0050546Y0089408D01*
X0050633Y0089515D01*
X0050723Y0089618D01*
X0050816Y0089720D01*
X0050912Y0089818D01*
X0051010Y0089914D01*
X0051112Y0090007D01*
X0051215Y0090097D01*
X0051322Y0090184D01*
X0051431Y0090267D01*
X0051542Y0090348D01*
X0051656Y0090425D01*
X0051772Y0090499D01*
X0051890Y0090569D01*
X0052010Y0090636D01*
X0052132Y0090700D01*
X0052256Y0090759D01*
X0052381Y0090816D01*
X0052508Y0090868D01*
X0052636Y0090917D01*
X0052766Y0090962D01*
X0052897Y0091004D01*
X0053029Y0091041D01*
X0053163Y0091075D01*
X0053297Y0091104D01*
X0053432Y0091130D01*
X0053567Y0091152D01*
X0053704Y0091170D01*
X0053840Y0091184D01*
X0053977Y0091194D01*
X0054115Y0091200D01*
X0054252Y0091202D01*
X0054389Y0091200D01*
X0054527Y0091194D01*
X0054664Y0091184D01*
X0054800Y0091170D01*
X0054937Y0091152D01*
X0055072Y0091130D01*
X0055207Y0091104D01*
X0055341Y0091075D01*
X0055475Y0091041D01*
X0055607Y0091004D01*
X0055738Y0090962D01*
X0055868Y0090917D01*
X0055996Y0090868D01*
X0056123Y0090816D01*
X0056248Y0090759D01*
X0056372Y0090700D01*
X0056494Y0090636D01*
X0056614Y0090569D01*
X0056732Y0090499D01*
X0056848Y0090425D01*
X0056962Y0090348D01*
X0057073Y0090267D01*
X0057182Y0090184D01*
X0057289Y0090097D01*
X0057392Y0090007D01*
X0057494Y0089914D01*
X0057592Y0089818D01*
X0057688Y0089720D01*
X0057781Y0089618D01*
X0057871Y0089515D01*
X0057958Y0089408D01*
X0058041Y0089299D01*
X0058122Y0089188D01*
X0058199Y0089074D01*
X0058273Y0088958D01*
X0058343Y0088840D01*
X0058410Y0088720D01*
X0058474Y0088598D01*
X0058533Y0088474D01*
X0058590Y0088349D01*
X0058642Y0088222D01*
X0058691Y0088094D01*
X0058736Y0087964D01*
X0058778Y0087833D01*
X0058815Y0087701D01*
X0058849Y0087567D01*
X0058878Y0087433D01*
X0058904Y0087298D01*
X0058926Y0087163D01*
X0058944Y0087026D01*
X0058958Y0086890D01*
X0058968Y0086753D01*
X0058974Y0086615D01*
X0058976Y0086478D01*
X0058974Y0086341D01*
X0058968Y0086203D01*
X0058958Y0086066D01*
X0058944Y0085930D01*
X0058926Y0085793D01*
X0058904Y0085658D01*
X0058878Y0085523D01*
X0058849Y0085389D01*
X0058815Y0085255D01*
X0058778Y0085123D01*
X0058736Y0084992D01*
X0058691Y0084862D01*
X0058642Y0084734D01*
X0058590Y0084607D01*
X0058533Y0084482D01*
X0058474Y0084358D01*
X0058410Y0084236D01*
X0058343Y0084116D01*
X0058273Y0083998D01*
X0058199Y0083882D01*
X0058122Y0083768D01*
X0058041Y0083657D01*
X0057958Y0083548D01*
X0057871Y0083441D01*
X0057781Y0083338D01*
X0057688Y0083236D01*
X0057592Y0083138D01*
X0057494Y0083042D01*
X0057392Y0082949D01*
X0057289Y0082859D01*
X0057182Y0082772D01*
X0057073Y0082689D01*
X0056962Y0082608D01*
X0056848Y0082531D01*
X0056732Y0082457D01*
X0056614Y0082387D01*
X0056494Y0082320D01*
X0056372Y0082256D01*
X0056248Y0082197D01*
X0056123Y0082140D01*
X0055996Y0082088D01*
X0055868Y0082039D01*
X0055738Y0081994D01*
X0055607Y0081952D01*
X0055475Y0081915D01*
X0055341Y0081881D01*
X0055207Y0081852D01*
X0055072Y0081826D01*
X0054937Y0081804D01*
X0054800Y0081786D01*
X0054664Y0081772D01*
X0054527Y0081762D01*
X0054389Y0081756D01*
X0054252Y0081754D01*
X0054115Y0081756D01*
X0053977Y0081762D01*
X0053840Y0081772D01*
X0053704Y0081786D01*
X0053567Y0081804D01*
X0053432Y0081826D01*
X0053297Y0081852D01*
X0053163Y0081881D01*
X0053029Y0081915D01*
X0052897Y0081952D01*
X0052766Y0081994D01*
X0052636Y0082039D01*
X0052508Y0082088D01*
X0052381Y0082140D01*
X0052256Y0082197D01*
X0052132Y0082256D01*
X0052010Y0082320D01*
X0051890Y0082387D01*
X0051772Y0082457D01*
X0051656Y0082531D01*
X0051542Y0082608D01*
X0051431Y0082689D01*
X0051322Y0082772D01*
X0051215Y0082859D01*
X0051112Y0082949D01*
X0051010Y0083042D01*
X0050912Y0083138D01*
X0050816Y0083236D01*
X0050723Y0083338D01*
X0050633Y0083441D01*
X0050546Y0083548D01*
X0050463Y0083657D01*
X0050382Y0083768D01*
X0050305Y0083882D01*
X0050231Y0083998D01*
X0050161Y0084116D01*
X0050094Y0084236D01*
X0050030Y0084358D01*
X0049971Y0084482D01*
X0049914Y0084607D01*
X0049862Y0084734D01*
X0049813Y0084862D01*
X0049768Y0084992D01*
X0049726Y0085123D01*
X0049689Y0085255D01*
X0049655Y0085389D01*
X0049626Y0085523D01*
X0049600Y0085658D01*
X0049578Y0085793D01*
X0049560Y0085930D01*
X0049546Y0086066D01*
X0049536Y0086203D01*
X0049530Y0086341D01*
X0049528Y0086478D01*
X0215352Y0043703D02*
X0215354Y0043863D01*
X0215360Y0044022D01*
X0215370Y0044181D01*
X0215384Y0044340D01*
X0215402Y0044499D01*
X0215423Y0044657D01*
X0215449Y0044814D01*
X0215479Y0044971D01*
X0215512Y0045127D01*
X0215550Y0045282D01*
X0215591Y0045436D01*
X0215636Y0045589D01*
X0215685Y0045741D01*
X0215738Y0045892D01*
X0215794Y0046041D01*
X0215855Y0046189D01*
X0215918Y0046335D01*
X0215986Y0046480D01*
X0216057Y0046623D01*
X0216131Y0046764D01*
X0216209Y0046903D01*
X0216291Y0047040D01*
X0216376Y0047175D01*
X0216464Y0047308D01*
X0216556Y0047439D01*
X0216650Y0047567D01*
X0216748Y0047693D01*
X0216849Y0047817D01*
X0216953Y0047938D01*
X0217060Y0048056D01*
X0217170Y0048172D01*
X0217283Y0048285D01*
X0217399Y0048395D01*
X0217517Y0048502D01*
X0217638Y0048606D01*
X0217762Y0048707D01*
X0217888Y0048805D01*
X0218016Y0048899D01*
X0218147Y0048991D01*
X0218280Y0049079D01*
X0218415Y0049164D01*
X0218552Y0049246D01*
X0218691Y0049324D01*
X0218832Y0049398D01*
X0218975Y0049469D01*
X0219120Y0049537D01*
X0219266Y0049600D01*
X0219414Y0049661D01*
X0219563Y0049717D01*
X0219714Y0049770D01*
X0219866Y0049819D01*
X0220019Y0049864D01*
X0220173Y0049905D01*
X0220328Y0049943D01*
X0220484Y0049976D01*
X0220641Y0050006D01*
X0220798Y0050032D01*
X0220956Y0050053D01*
X0221115Y0050071D01*
X0221274Y0050085D01*
X0221433Y0050095D01*
X0221592Y0050101D01*
X0221752Y0050103D01*
X0221912Y0050101D01*
X0222071Y0050095D01*
X0222230Y0050085D01*
X0222389Y0050071D01*
X0222548Y0050053D01*
X0222706Y0050032D01*
X0222863Y0050006D01*
X0223020Y0049976D01*
X0223176Y0049943D01*
X0223331Y0049905D01*
X0223485Y0049864D01*
X0223638Y0049819D01*
X0223790Y0049770D01*
X0223941Y0049717D01*
X0224090Y0049661D01*
X0224238Y0049600D01*
X0224384Y0049537D01*
X0224529Y0049469D01*
X0224672Y0049398D01*
X0224813Y0049324D01*
X0224952Y0049246D01*
X0225089Y0049164D01*
X0225224Y0049079D01*
X0225357Y0048991D01*
X0225488Y0048899D01*
X0225616Y0048805D01*
X0225742Y0048707D01*
X0225866Y0048606D01*
X0225987Y0048502D01*
X0226105Y0048395D01*
X0226221Y0048285D01*
X0226334Y0048172D01*
X0226444Y0048056D01*
X0226551Y0047938D01*
X0226655Y0047817D01*
X0226756Y0047693D01*
X0226854Y0047567D01*
X0226948Y0047439D01*
X0227040Y0047308D01*
X0227128Y0047175D01*
X0227213Y0047040D01*
X0227295Y0046903D01*
X0227373Y0046764D01*
X0227447Y0046623D01*
X0227518Y0046480D01*
X0227586Y0046335D01*
X0227649Y0046189D01*
X0227710Y0046041D01*
X0227766Y0045892D01*
X0227819Y0045741D01*
X0227868Y0045589D01*
X0227913Y0045436D01*
X0227954Y0045282D01*
X0227992Y0045127D01*
X0228025Y0044971D01*
X0228055Y0044814D01*
X0228081Y0044657D01*
X0228102Y0044499D01*
X0228120Y0044340D01*
X0228134Y0044181D01*
X0228144Y0044022D01*
X0228150Y0043863D01*
X0228152Y0043703D01*
X0228150Y0043543D01*
X0228144Y0043384D01*
X0228134Y0043225D01*
X0228120Y0043066D01*
X0228102Y0042907D01*
X0228081Y0042749D01*
X0228055Y0042592D01*
X0228025Y0042435D01*
X0227992Y0042279D01*
X0227954Y0042124D01*
X0227913Y0041970D01*
X0227868Y0041817D01*
X0227819Y0041665D01*
X0227766Y0041514D01*
X0227710Y0041365D01*
X0227649Y0041217D01*
X0227586Y0041071D01*
X0227518Y0040926D01*
X0227447Y0040783D01*
X0227373Y0040642D01*
X0227295Y0040503D01*
X0227213Y0040366D01*
X0227128Y0040231D01*
X0227040Y0040098D01*
X0226948Y0039967D01*
X0226854Y0039839D01*
X0226756Y0039713D01*
X0226655Y0039589D01*
X0226551Y0039468D01*
X0226444Y0039350D01*
X0226334Y0039234D01*
X0226221Y0039121D01*
X0226105Y0039011D01*
X0225987Y0038904D01*
X0225866Y0038800D01*
X0225742Y0038699D01*
X0225616Y0038601D01*
X0225488Y0038507D01*
X0225357Y0038415D01*
X0225224Y0038327D01*
X0225089Y0038242D01*
X0224952Y0038160D01*
X0224813Y0038082D01*
X0224672Y0038008D01*
X0224529Y0037937D01*
X0224384Y0037869D01*
X0224238Y0037806D01*
X0224090Y0037745D01*
X0223941Y0037689D01*
X0223790Y0037636D01*
X0223638Y0037587D01*
X0223485Y0037542D01*
X0223331Y0037501D01*
X0223176Y0037463D01*
X0223020Y0037430D01*
X0222863Y0037400D01*
X0222706Y0037374D01*
X0222548Y0037353D01*
X0222389Y0037335D01*
X0222230Y0037321D01*
X0222071Y0037311D01*
X0221912Y0037305D01*
X0221752Y0037303D01*
X0221592Y0037305D01*
X0221433Y0037311D01*
X0221274Y0037321D01*
X0221115Y0037335D01*
X0220956Y0037353D01*
X0220798Y0037374D01*
X0220641Y0037400D01*
X0220484Y0037430D01*
X0220328Y0037463D01*
X0220173Y0037501D01*
X0220019Y0037542D01*
X0219866Y0037587D01*
X0219714Y0037636D01*
X0219563Y0037689D01*
X0219414Y0037745D01*
X0219266Y0037806D01*
X0219120Y0037869D01*
X0218975Y0037937D01*
X0218832Y0038008D01*
X0218691Y0038082D01*
X0218552Y0038160D01*
X0218415Y0038242D01*
X0218280Y0038327D01*
X0218147Y0038415D01*
X0218016Y0038507D01*
X0217888Y0038601D01*
X0217762Y0038699D01*
X0217638Y0038800D01*
X0217517Y0038904D01*
X0217399Y0039011D01*
X0217283Y0039121D01*
X0217170Y0039234D01*
X0217060Y0039350D01*
X0216953Y0039468D01*
X0216849Y0039589D01*
X0216748Y0039713D01*
X0216650Y0039839D01*
X0216556Y0039967D01*
X0216464Y0040098D01*
X0216376Y0040231D01*
X0216291Y0040366D01*
X0216209Y0040503D01*
X0216131Y0040642D01*
X0216057Y0040783D01*
X0215986Y0040926D01*
X0215918Y0041071D01*
X0215855Y0041217D01*
X0215794Y0041365D01*
X0215738Y0041514D01*
X0215685Y0041665D01*
X0215636Y0041817D01*
X0215591Y0041970D01*
X0215550Y0042124D01*
X0215512Y0042279D01*
X0215479Y0042435D01*
X0215449Y0042592D01*
X0215423Y0042749D01*
X0215402Y0042907D01*
X0215384Y0043066D01*
X0215370Y0043225D01*
X0215360Y0043384D01*
X0215354Y0043543D01*
X0215352Y0043703D01*
X0253971Y0052014D02*
X0253973Y0052102D01*
X0253979Y0052190D01*
X0253989Y0052278D01*
X0254003Y0052366D01*
X0254020Y0052452D01*
X0254042Y0052538D01*
X0254067Y0052622D01*
X0254097Y0052706D01*
X0254129Y0052788D01*
X0254166Y0052868D01*
X0254206Y0052947D01*
X0254250Y0053024D01*
X0254297Y0053099D01*
X0254347Y0053171D01*
X0254401Y0053242D01*
X0254457Y0053309D01*
X0254517Y0053375D01*
X0254579Y0053437D01*
X0254645Y0053497D01*
X0254712Y0053553D01*
X0254783Y0053607D01*
X0254855Y0053657D01*
X0254930Y0053704D01*
X0255007Y0053748D01*
X0255086Y0053788D01*
X0255166Y0053825D01*
X0255248Y0053857D01*
X0255332Y0053887D01*
X0255416Y0053912D01*
X0255502Y0053934D01*
X0255588Y0053951D01*
X0255676Y0053965D01*
X0255764Y0053975D01*
X0255852Y0053981D01*
X0255940Y0053983D01*
X0256028Y0053981D01*
X0256116Y0053975D01*
X0256204Y0053965D01*
X0256292Y0053951D01*
X0256378Y0053934D01*
X0256464Y0053912D01*
X0256548Y0053887D01*
X0256632Y0053857D01*
X0256714Y0053825D01*
X0256794Y0053788D01*
X0256873Y0053748D01*
X0256950Y0053704D01*
X0257025Y0053657D01*
X0257097Y0053607D01*
X0257168Y0053553D01*
X0257235Y0053497D01*
X0257301Y0053437D01*
X0257363Y0053375D01*
X0257423Y0053309D01*
X0257479Y0053242D01*
X0257533Y0053171D01*
X0257583Y0053099D01*
X0257630Y0053024D01*
X0257674Y0052947D01*
X0257714Y0052868D01*
X0257751Y0052788D01*
X0257783Y0052706D01*
X0257813Y0052622D01*
X0257838Y0052538D01*
X0257860Y0052452D01*
X0257877Y0052366D01*
X0257891Y0052278D01*
X0257901Y0052190D01*
X0257907Y0052102D01*
X0257909Y0052014D01*
X0257907Y0051926D01*
X0257901Y0051838D01*
X0257891Y0051750D01*
X0257877Y0051662D01*
X0257860Y0051576D01*
X0257838Y0051490D01*
X0257813Y0051406D01*
X0257783Y0051322D01*
X0257751Y0051240D01*
X0257714Y0051160D01*
X0257674Y0051081D01*
X0257630Y0051004D01*
X0257583Y0050929D01*
X0257533Y0050857D01*
X0257479Y0050786D01*
X0257423Y0050719D01*
X0257363Y0050653D01*
X0257301Y0050591D01*
X0257235Y0050531D01*
X0257168Y0050475D01*
X0257097Y0050421D01*
X0257025Y0050371D01*
X0256950Y0050324D01*
X0256873Y0050280D01*
X0256794Y0050240D01*
X0256714Y0050203D01*
X0256632Y0050171D01*
X0256548Y0050141D01*
X0256464Y0050116D01*
X0256378Y0050094D01*
X0256292Y0050077D01*
X0256204Y0050063D01*
X0256116Y0050053D01*
X0256028Y0050047D01*
X0255940Y0050045D01*
X0255852Y0050047D01*
X0255764Y0050053D01*
X0255676Y0050063D01*
X0255588Y0050077D01*
X0255502Y0050094D01*
X0255416Y0050116D01*
X0255332Y0050141D01*
X0255248Y0050171D01*
X0255166Y0050203D01*
X0255086Y0050240D01*
X0255007Y0050280D01*
X0254930Y0050324D01*
X0254855Y0050371D01*
X0254783Y0050421D01*
X0254712Y0050475D01*
X0254645Y0050531D01*
X0254579Y0050591D01*
X0254517Y0050653D01*
X0254457Y0050719D01*
X0254401Y0050786D01*
X0254347Y0050857D01*
X0254297Y0050929D01*
X0254250Y0051004D01*
X0254206Y0051081D01*
X0254166Y0051160D01*
X0254129Y0051240D01*
X0254097Y0051322D01*
X0254067Y0051406D01*
X0254042Y0051490D01*
X0254020Y0051576D01*
X0254003Y0051662D01*
X0253989Y0051750D01*
X0253979Y0051838D01*
X0253973Y0051926D01*
X0253971Y0052014D01*
X0253971Y0028394D02*
X0253973Y0028482D01*
X0253979Y0028570D01*
X0253989Y0028658D01*
X0254003Y0028746D01*
X0254020Y0028832D01*
X0254042Y0028918D01*
X0254067Y0029002D01*
X0254097Y0029086D01*
X0254129Y0029168D01*
X0254166Y0029248D01*
X0254206Y0029327D01*
X0254250Y0029404D01*
X0254297Y0029479D01*
X0254347Y0029551D01*
X0254401Y0029622D01*
X0254457Y0029689D01*
X0254517Y0029755D01*
X0254579Y0029817D01*
X0254645Y0029877D01*
X0254712Y0029933D01*
X0254783Y0029987D01*
X0254855Y0030037D01*
X0254930Y0030084D01*
X0255007Y0030128D01*
X0255086Y0030168D01*
X0255166Y0030205D01*
X0255248Y0030237D01*
X0255332Y0030267D01*
X0255416Y0030292D01*
X0255502Y0030314D01*
X0255588Y0030331D01*
X0255676Y0030345D01*
X0255764Y0030355D01*
X0255852Y0030361D01*
X0255940Y0030363D01*
X0256028Y0030361D01*
X0256116Y0030355D01*
X0256204Y0030345D01*
X0256292Y0030331D01*
X0256378Y0030314D01*
X0256464Y0030292D01*
X0256548Y0030267D01*
X0256632Y0030237D01*
X0256714Y0030205D01*
X0256794Y0030168D01*
X0256873Y0030128D01*
X0256950Y0030084D01*
X0257025Y0030037D01*
X0257097Y0029987D01*
X0257168Y0029933D01*
X0257235Y0029877D01*
X0257301Y0029817D01*
X0257363Y0029755D01*
X0257423Y0029689D01*
X0257479Y0029622D01*
X0257533Y0029551D01*
X0257583Y0029479D01*
X0257630Y0029404D01*
X0257674Y0029327D01*
X0257714Y0029248D01*
X0257751Y0029168D01*
X0257783Y0029086D01*
X0257813Y0029002D01*
X0257838Y0028918D01*
X0257860Y0028832D01*
X0257877Y0028746D01*
X0257891Y0028658D01*
X0257901Y0028570D01*
X0257907Y0028482D01*
X0257909Y0028394D01*
X0257907Y0028306D01*
X0257901Y0028218D01*
X0257891Y0028130D01*
X0257877Y0028042D01*
X0257860Y0027956D01*
X0257838Y0027870D01*
X0257813Y0027786D01*
X0257783Y0027702D01*
X0257751Y0027620D01*
X0257714Y0027540D01*
X0257674Y0027461D01*
X0257630Y0027384D01*
X0257583Y0027309D01*
X0257533Y0027237D01*
X0257479Y0027166D01*
X0257423Y0027099D01*
X0257363Y0027033D01*
X0257301Y0026971D01*
X0257235Y0026911D01*
X0257168Y0026855D01*
X0257097Y0026801D01*
X0257025Y0026751D01*
X0256950Y0026704D01*
X0256873Y0026660D01*
X0256794Y0026620D01*
X0256714Y0026583D01*
X0256632Y0026551D01*
X0256548Y0026521D01*
X0256464Y0026496D01*
X0256378Y0026474D01*
X0256292Y0026457D01*
X0256204Y0026443D01*
X0256116Y0026433D01*
X0256028Y0026427D01*
X0255940Y0026425D01*
X0255852Y0026427D01*
X0255764Y0026433D01*
X0255676Y0026443D01*
X0255588Y0026457D01*
X0255502Y0026474D01*
X0255416Y0026496D01*
X0255332Y0026521D01*
X0255248Y0026551D01*
X0255166Y0026583D01*
X0255086Y0026620D01*
X0255007Y0026660D01*
X0254930Y0026704D01*
X0254855Y0026751D01*
X0254783Y0026801D01*
X0254712Y0026855D01*
X0254645Y0026911D01*
X0254579Y0026971D01*
X0254517Y0027033D01*
X0254457Y0027099D01*
X0254401Y0027166D01*
X0254347Y0027237D01*
X0254297Y0027309D01*
X0254250Y0027384D01*
X0254206Y0027461D01*
X0254166Y0027540D01*
X0254129Y0027620D01*
X0254097Y0027702D01*
X0254067Y0027786D01*
X0254042Y0027870D01*
X0254020Y0027956D01*
X0254003Y0028042D01*
X0253989Y0028130D01*
X0253979Y0028218D01*
X0253973Y0028306D01*
X0253971Y0028394D01*
X0291654Y0034579D02*
X0291656Y0034663D01*
X0291662Y0034746D01*
X0291672Y0034829D01*
X0291686Y0034912D01*
X0291703Y0034994D01*
X0291725Y0035075D01*
X0291750Y0035154D01*
X0291779Y0035233D01*
X0291812Y0035310D01*
X0291848Y0035385D01*
X0291888Y0035459D01*
X0291931Y0035531D01*
X0291978Y0035600D01*
X0292028Y0035667D01*
X0292081Y0035732D01*
X0292137Y0035794D01*
X0292195Y0035854D01*
X0292257Y0035911D01*
X0292321Y0035964D01*
X0292388Y0036015D01*
X0292457Y0036062D01*
X0292528Y0036107D01*
X0292601Y0036147D01*
X0292676Y0036184D01*
X0292753Y0036218D01*
X0292831Y0036248D01*
X0292910Y0036274D01*
X0292991Y0036297D01*
X0293073Y0036315D01*
X0293155Y0036330D01*
X0293238Y0036341D01*
X0293321Y0036348D01*
X0293405Y0036351D01*
X0293489Y0036350D01*
X0293572Y0036345D01*
X0293656Y0036336D01*
X0293738Y0036323D01*
X0293820Y0036307D01*
X0293901Y0036286D01*
X0293982Y0036262D01*
X0294060Y0036234D01*
X0294138Y0036202D01*
X0294214Y0036166D01*
X0294288Y0036127D01*
X0294360Y0036085D01*
X0294430Y0036039D01*
X0294498Y0035990D01*
X0294563Y0035938D01*
X0294626Y0035883D01*
X0294686Y0035825D01*
X0294744Y0035764D01*
X0294798Y0035700D01*
X0294850Y0035634D01*
X0294898Y0035566D01*
X0294943Y0035495D01*
X0294984Y0035422D01*
X0295023Y0035348D01*
X0295057Y0035272D01*
X0295088Y0035194D01*
X0295115Y0035115D01*
X0295139Y0035034D01*
X0295158Y0034953D01*
X0295174Y0034871D01*
X0295186Y0034788D01*
X0295194Y0034704D01*
X0295198Y0034621D01*
X0295198Y0034537D01*
X0295194Y0034454D01*
X0295186Y0034370D01*
X0295174Y0034287D01*
X0295158Y0034205D01*
X0295139Y0034124D01*
X0295115Y0034043D01*
X0295088Y0033964D01*
X0295057Y0033886D01*
X0295023Y0033810D01*
X0294984Y0033736D01*
X0294943Y0033663D01*
X0294898Y0033592D01*
X0294850Y0033524D01*
X0294798Y0033458D01*
X0294744Y0033394D01*
X0294686Y0033333D01*
X0294626Y0033275D01*
X0294563Y0033220D01*
X0294498Y0033168D01*
X0294430Y0033119D01*
X0294360Y0033073D01*
X0294288Y0033031D01*
X0294214Y0032992D01*
X0294138Y0032956D01*
X0294060Y0032924D01*
X0293982Y0032896D01*
X0293901Y0032872D01*
X0293820Y0032851D01*
X0293738Y0032835D01*
X0293656Y0032822D01*
X0293572Y0032813D01*
X0293489Y0032808D01*
X0293405Y0032807D01*
X0293321Y0032810D01*
X0293238Y0032817D01*
X0293155Y0032828D01*
X0293073Y0032843D01*
X0292991Y0032861D01*
X0292910Y0032884D01*
X0292831Y0032910D01*
X0292753Y0032940D01*
X0292676Y0032974D01*
X0292601Y0033011D01*
X0292528Y0033051D01*
X0292457Y0033096D01*
X0292388Y0033143D01*
X0292321Y0033194D01*
X0292257Y0033247D01*
X0292195Y0033304D01*
X0292137Y0033364D01*
X0292081Y0033426D01*
X0292028Y0033491D01*
X0291978Y0033558D01*
X0291931Y0033627D01*
X0291888Y0033699D01*
X0291848Y0033773D01*
X0291812Y0033848D01*
X0291779Y0033925D01*
X0291750Y0034004D01*
X0291725Y0034083D01*
X0291703Y0034164D01*
X0291686Y0034246D01*
X0291672Y0034329D01*
X0291662Y0034412D01*
X0291656Y0034495D01*
X0291654Y0034579D01*
X0305433Y0034579D02*
X0305435Y0034663D01*
X0305441Y0034746D01*
X0305451Y0034829D01*
X0305465Y0034912D01*
X0305482Y0034994D01*
X0305504Y0035075D01*
X0305529Y0035154D01*
X0305558Y0035233D01*
X0305591Y0035310D01*
X0305627Y0035385D01*
X0305667Y0035459D01*
X0305710Y0035531D01*
X0305757Y0035600D01*
X0305807Y0035667D01*
X0305860Y0035732D01*
X0305916Y0035794D01*
X0305974Y0035854D01*
X0306036Y0035911D01*
X0306100Y0035964D01*
X0306167Y0036015D01*
X0306236Y0036062D01*
X0306307Y0036107D01*
X0306380Y0036147D01*
X0306455Y0036184D01*
X0306532Y0036218D01*
X0306610Y0036248D01*
X0306689Y0036274D01*
X0306770Y0036297D01*
X0306852Y0036315D01*
X0306934Y0036330D01*
X0307017Y0036341D01*
X0307100Y0036348D01*
X0307184Y0036351D01*
X0307268Y0036350D01*
X0307351Y0036345D01*
X0307435Y0036336D01*
X0307517Y0036323D01*
X0307599Y0036307D01*
X0307680Y0036286D01*
X0307761Y0036262D01*
X0307839Y0036234D01*
X0307917Y0036202D01*
X0307993Y0036166D01*
X0308067Y0036127D01*
X0308139Y0036085D01*
X0308209Y0036039D01*
X0308277Y0035990D01*
X0308342Y0035938D01*
X0308405Y0035883D01*
X0308465Y0035825D01*
X0308523Y0035764D01*
X0308577Y0035700D01*
X0308629Y0035634D01*
X0308677Y0035566D01*
X0308722Y0035495D01*
X0308763Y0035422D01*
X0308802Y0035348D01*
X0308836Y0035272D01*
X0308867Y0035194D01*
X0308894Y0035115D01*
X0308918Y0035034D01*
X0308937Y0034953D01*
X0308953Y0034871D01*
X0308965Y0034788D01*
X0308973Y0034704D01*
X0308977Y0034621D01*
X0308977Y0034537D01*
X0308973Y0034454D01*
X0308965Y0034370D01*
X0308953Y0034287D01*
X0308937Y0034205D01*
X0308918Y0034124D01*
X0308894Y0034043D01*
X0308867Y0033964D01*
X0308836Y0033886D01*
X0308802Y0033810D01*
X0308763Y0033736D01*
X0308722Y0033663D01*
X0308677Y0033592D01*
X0308629Y0033524D01*
X0308577Y0033458D01*
X0308523Y0033394D01*
X0308465Y0033333D01*
X0308405Y0033275D01*
X0308342Y0033220D01*
X0308277Y0033168D01*
X0308209Y0033119D01*
X0308139Y0033073D01*
X0308067Y0033031D01*
X0307993Y0032992D01*
X0307917Y0032956D01*
X0307839Y0032924D01*
X0307761Y0032896D01*
X0307680Y0032872D01*
X0307599Y0032851D01*
X0307517Y0032835D01*
X0307435Y0032822D01*
X0307351Y0032813D01*
X0307268Y0032808D01*
X0307184Y0032807D01*
X0307100Y0032810D01*
X0307017Y0032817D01*
X0306934Y0032828D01*
X0306852Y0032843D01*
X0306770Y0032861D01*
X0306689Y0032884D01*
X0306610Y0032910D01*
X0306532Y0032940D01*
X0306455Y0032974D01*
X0306380Y0033011D01*
X0306307Y0033051D01*
X0306236Y0033096D01*
X0306167Y0033143D01*
X0306100Y0033194D01*
X0306036Y0033247D01*
X0305974Y0033304D01*
X0305916Y0033364D01*
X0305860Y0033426D01*
X0305807Y0033491D01*
X0305757Y0033558D01*
X0305710Y0033627D01*
X0305667Y0033699D01*
X0305627Y0033773D01*
X0305591Y0033848D01*
X0305558Y0033925D01*
X0305529Y0034004D01*
X0305504Y0034083D01*
X0305482Y0034164D01*
X0305465Y0034246D01*
X0305451Y0034329D01*
X0305441Y0034412D01*
X0305435Y0034495D01*
X0305433Y0034579D01*
X0335177Y0026454D02*
X0335179Y0026538D01*
X0335185Y0026621D01*
X0335195Y0026704D01*
X0335209Y0026787D01*
X0335226Y0026869D01*
X0335248Y0026950D01*
X0335273Y0027029D01*
X0335302Y0027108D01*
X0335335Y0027185D01*
X0335371Y0027260D01*
X0335411Y0027334D01*
X0335454Y0027406D01*
X0335501Y0027475D01*
X0335551Y0027542D01*
X0335604Y0027607D01*
X0335660Y0027669D01*
X0335718Y0027729D01*
X0335780Y0027786D01*
X0335844Y0027839D01*
X0335911Y0027890D01*
X0335980Y0027937D01*
X0336051Y0027982D01*
X0336124Y0028022D01*
X0336199Y0028059D01*
X0336276Y0028093D01*
X0336354Y0028123D01*
X0336433Y0028149D01*
X0336514Y0028172D01*
X0336596Y0028190D01*
X0336678Y0028205D01*
X0336761Y0028216D01*
X0336844Y0028223D01*
X0336928Y0028226D01*
X0337012Y0028225D01*
X0337095Y0028220D01*
X0337179Y0028211D01*
X0337261Y0028198D01*
X0337343Y0028182D01*
X0337424Y0028161D01*
X0337505Y0028137D01*
X0337583Y0028109D01*
X0337661Y0028077D01*
X0337737Y0028041D01*
X0337811Y0028002D01*
X0337883Y0027960D01*
X0337953Y0027914D01*
X0338021Y0027865D01*
X0338086Y0027813D01*
X0338149Y0027758D01*
X0338209Y0027700D01*
X0338267Y0027639D01*
X0338321Y0027575D01*
X0338373Y0027509D01*
X0338421Y0027441D01*
X0338466Y0027370D01*
X0338507Y0027297D01*
X0338546Y0027223D01*
X0338580Y0027147D01*
X0338611Y0027069D01*
X0338638Y0026990D01*
X0338662Y0026909D01*
X0338681Y0026828D01*
X0338697Y0026746D01*
X0338709Y0026663D01*
X0338717Y0026579D01*
X0338721Y0026496D01*
X0338721Y0026412D01*
X0338717Y0026329D01*
X0338709Y0026245D01*
X0338697Y0026162D01*
X0338681Y0026080D01*
X0338662Y0025999D01*
X0338638Y0025918D01*
X0338611Y0025839D01*
X0338580Y0025761D01*
X0338546Y0025685D01*
X0338507Y0025611D01*
X0338466Y0025538D01*
X0338421Y0025467D01*
X0338373Y0025399D01*
X0338321Y0025333D01*
X0338267Y0025269D01*
X0338209Y0025208D01*
X0338149Y0025150D01*
X0338086Y0025095D01*
X0338021Y0025043D01*
X0337953Y0024994D01*
X0337883Y0024948D01*
X0337811Y0024906D01*
X0337737Y0024867D01*
X0337661Y0024831D01*
X0337583Y0024799D01*
X0337505Y0024771D01*
X0337424Y0024747D01*
X0337343Y0024726D01*
X0337261Y0024710D01*
X0337179Y0024697D01*
X0337095Y0024688D01*
X0337012Y0024683D01*
X0336928Y0024682D01*
X0336844Y0024685D01*
X0336761Y0024692D01*
X0336678Y0024703D01*
X0336596Y0024718D01*
X0336514Y0024736D01*
X0336433Y0024759D01*
X0336354Y0024785D01*
X0336276Y0024815D01*
X0336199Y0024849D01*
X0336124Y0024886D01*
X0336051Y0024926D01*
X0335980Y0024971D01*
X0335911Y0025018D01*
X0335844Y0025069D01*
X0335780Y0025122D01*
X0335718Y0025179D01*
X0335660Y0025239D01*
X0335604Y0025301D01*
X0335551Y0025366D01*
X0335501Y0025433D01*
X0335454Y0025502D01*
X0335411Y0025574D01*
X0335371Y0025648D01*
X0335335Y0025723D01*
X0335302Y0025800D01*
X0335273Y0025879D01*
X0335248Y0025958D01*
X0335226Y0026039D01*
X0335209Y0026121D01*
X0335195Y0026204D01*
X0335185Y0026287D01*
X0335179Y0026370D01*
X0335177Y0026454D01*
X0351909Y0026454D02*
X0351911Y0026538D01*
X0351917Y0026621D01*
X0351927Y0026704D01*
X0351941Y0026787D01*
X0351958Y0026869D01*
X0351980Y0026950D01*
X0352005Y0027029D01*
X0352034Y0027108D01*
X0352067Y0027185D01*
X0352103Y0027260D01*
X0352143Y0027334D01*
X0352186Y0027406D01*
X0352233Y0027475D01*
X0352283Y0027542D01*
X0352336Y0027607D01*
X0352392Y0027669D01*
X0352450Y0027729D01*
X0352512Y0027786D01*
X0352576Y0027839D01*
X0352643Y0027890D01*
X0352712Y0027937D01*
X0352783Y0027982D01*
X0352856Y0028022D01*
X0352931Y0028059D01*
X0353008Y0028093D01*
X0353086Y0028123D01*
X0353165Y0028149D01*
X0353246Y0028172D01*
X0353328Y0028190D01*
X0353410Y0028205D01*
X0353493Y0028216D01*
X0353576Y0028223D01*
X0353660Y0028226D01*
X0353744Y0028225D01*
X0353827Y0028220D01*
X0353911Y0028211D01*
X0353993Y0028198D01*
X0354075Y0028182D01*
X0354156Y0028161D01*
X0354237Y0028137D01*
X0354315Y0028109D01*
X0354393Y0028077D01*
X0354469Y0028041D01*
X0354543Y0028002D01*
X0354615Y0027960D01*
X0354685Y0027914D01*
X0354753Y0027865D01*
X0354818Y0027813D01*
X0354881Y0027758D01*
X0354941Y0027700D01*
X0354999Y0027639D01*
X0355053Y0027575D01*
X0355105Y0027509D01*
X0355153Y0027441D01*
X0355198Y0027370D01*
X0355239Y0027297D01*
X0355278Y0027223D01*
X0355312Y0027147D01*
X0355343Y0027069D01*
X0355370Y0026990D01*
X0355394Y0026909D01*
X0355413Y0026828D01*
X0355429Y0026746D01*
X0355441Y0026663D01*
X0355449Y0026579D01*
X0355453Y0026496D01*
X0355453Y0026412D01*
X0355449Y0026329D01*
X0355441Y0026245D01*
X0355429Y0026162D01*
X0355413Y0026080D01*
X0355394Y0025999D01*
X0355370Y0025918D01*
X0355343Y0025839D01*
X0355312Y0025761D01*
X0355278Y0025685D01*
X0355239Y0025611D01*
X0355198Y0025538D01*
X0355153Y0025467D01*
X0355105Y0025399D01*
X0355053Y0025333D01*
X0354999Y0025269D01*
X0354941Y0025208D01*
X0354881Y0025150D01*
X0354818Y0025095D01*
X0354753Y0025043D01*
X0354685Y0024994D01*
X0354615Y0024948D01*
X0354543Y0024906D01*
X0354469Y0024867D01*
X0354393Y0024831D01*
X0354315Y0024799D01*
X0354237Y0024771D01*
X0354156Y0024747D01*
X0354075Y0024726D01*
X0353993Y0024710D01*
X0353911Y0024697D01*
X0353827Y0024688D01*
X0353744Y0024683D01*
X0353660Y0024682D01*
X0353576Y0024685D01*
X0353493Y0024692D01*
X0353410Y0024703D01*
X0353328Y0024718D01*
X0353246Y0024736D01*
X0353165Y0024759D01*
X0353086Y0024785D01*
X0353008Y0024815D01*
X0352931Y0024849D01*
X0352856Y0024886D01*
X0352783Y0024926D01*
X0352712Y0024971D01*
X0352643Y0025018D01*
X0352576Y0025069D01*
X0352512Y0025122D01*
X0352450Y0025179D01*
X0352392Y0025239D01*
X0352336Y0025301D01*
X0352283Y0025366D01*
X0352233Y0025433D01*
X0352186Y0025502D01*
X0352143Y0025574D01*
X0352103Y0025648D01*
X0352067Y0025723D01*
X0352034Y0025800D01*
X0352005Y0025879D01*
X0351980Y0025958D01*
X0351958Y0026039D01*
X0351941Y0026121D01*
X0351927Y0026204D01*
X0351917Y0026287D01*
X0351911Y0026370D01*
X0351909Y0026454D01*
D11*
X0327503Y0054266D02*
X0325628Y0054266D01*
X0325628Y0055516D01*
X0326565Y0056141D01*
X0327503Y0055516D01*
X0327503Y0054266D01*
X0327503Y0054713D02*
X0325628Y0054713D01*
X0325628Y0055211D02*
X0327503Y0055211D01*
X0327213Y0055710D02*
X0325918Y0055710D01*
X0326565Y0058016D02*
X0327503Y0058641D01*
X0327503Y0059891D01*
X0325628Y0059891D01*
X0325628Y0058641D01*
X0326565Y0058016D01*
X0326286Y0058202D02*
X0326844Y0058202D01*
X0327503Y0058701D02*
X0325628Y0058701D01*
X0325628Y0059199D02*
X0327503Y0059199D01*
X0327503Y0059698D02*
X0325628Y0059698D01*
X0321565Y0060829D02*
X0320315Y0059891D01*
X0319065Y0060829D01*
X0319065Y0062704D01*
X0321565Y0062704D01*
X0321565Y0060829D01*
X0321387Y0060695D02*
X0319244Y0060695D01*
X0319065Y0061193D02*
X0321565Y0061193D01*
X0321565Y0061692D02*
X0319065Y0061692D01*
X0319065Y0062190D02*
X0321565Y0062190D01*
X0321565Y0062689D02*
X0319065Y0062689D01*
X0319909Y0060196D02*
X0320722Y0060196D01*
X0320315Y0056766D02*
X0321565Y0055829D01*
X0321565Y0053954D01*
X0319065Y0053954D01*
X0319065Y0055829D01*
X0320315Y0056766D01*
X0320236Y0056707D02*
X0320395Y0056707D01*
X0321059Y0056208D02*
X0319571Y0056208D01*
X0319065Y0055710D02*
X0321565Y0055710D01*
X0321565Y0055211D02*
X0319065Y0055211D01*
X0319065Y0054713D02*
X0321565Y0054713D01*
X0321565Y0054214D02*
X0319065Y0054214D01*
X0319065Y0066454D02*
X0319065Y0068329D01*
X0320315Y0069266D01*
X0321565Y0068329D01*
X0321565Y0066454D01*
X0319065Y0066454D01*
X0319065Y0066677D02*
X0321565Y0066677D01*
X0321565Y0067175D02*
X0319065Y0067175D01*
X0319065Y0067674D02*
X0321565Y0067674D01*
X0321565Y0068172D02*
X0319065Y0068172D01*
X0319522Y0068671D02*
X0321109Y0068671D01*
X0320444Y0069169D02*
X0320186Y0069169D01*
X0320315Y0072391D02*
X0319065Y0073329D01*
X0319065Y0075204D01*
X0321565Y0075204D01*
X0321565Y0073329D01*
X0320315Y0072391D01*
X0319958Y0072659D02*
X0320672Y0072659D01*
X0321337Y0073158D02*
X0319294Y0073158D01*
X0319065Y0073656D02*
X0321565Y0073656D01*
X0321565Y0074155D02*
X0319065Y0074155D01*
X0319065Y0074653D02*
X0321565Y0074653D01*
X0321565Y0075152D02*
X0319065Y0075152D01*
X0309690Y0079579D02*
X0309690Y0082079D01*
X0307815Y0082079D01*
X0306878Y0080829D01*
X0307815Y0079579D01*
X0309690Y0079579D01*
X0309690Y0079638D02*
X0307771Y0079638D01*
X0307397Y0080137D02*
X0309690Y0080137D01*
X0309690Y0080635D02*
X0307023Y0080635D01*
X0307107Y0081134D02*
X0309690Y0081134D01*
X0309690Y0081632D02*
X0307480Y0081632D01*
X0303753Y0080829D02*
X0302815Y0082079D01*
X0300940Y0082079D01*
X0300940Y0079579D01*
X0302815Y0079579D01*
X0303753Y0080829D01*
X0303608Y0080635D02*
X0300940Y0080635D01*
X0300940Y0080137D02*
X0303234Y0080137D01*
X0302860Y0079638D02*
X0300940Y0079638D01*
X0300940Y0081134D02*
X0303524Y0081134D01*
X0303150Y0081632D02*
X0300940Y0081632D01*
X0291565Y0082704D02*
X0289065Y0082704D01*
X0289065Y0084579D01*
X0290315Y0085516D01*
X0291565Y0084579D01*
X0291565Y0082704D01*
X0291565Y0083128D02*
X0289065Y0083128D01*
X0289065Y0083626D02*
X0291565Y0083626D01*
X0291565Y0084125D02*
X0289065Y0084125D01*
X0289125Y0084623D02*
X0291506Y0084623D01*
X0290841Y0085122D02*
X0289789Y0085122D01*
X0290315Y0088641D02*
X0289065Y0089579D01*
X0289065Y0091454D01*
X0291565Y0091454D01*
X0291565Y0089579D01*
X0290315Y0088641D01*
X0289690Y0089110D02*
X0290940Y0089110D01*
X0291565Y0089608D02*
X0289065Y0089608D01*
X0289065Y0090107D02*
X0291565Y0090107D01*
X0291565Y0090605D02*
X0289065Y0090605D01*
X0289065Y0091104D02*
X0291565Y0091104D01*
X0295923Y0104891D02*
X0295923Y0106141D01*
X0296861Y0106766D01*
X0297798Y0106141D01*
X0297798Y0104891D01*
X0295923Y0104891D01*
X0295923Y0105062D02*
X0297798Y0105062D01*
X0297798Y0105561D02*
X0295923Y0105561D01*
X0295923Y0106059D02*
X0297798Y0106059D01*
X0297173Y0106558D02*
X0296548Y0106558D01*
X0296861Y0108641D02*
X0295923Y0109266D01*
X0295923Y0110516D01*
X0297798Y0110516D01*
X0297798Y0109266D01*
X0296861Y0108641D01*
X0297474Y0109050D02*
X0296247Y0109050D01*
X0295923Y0109549D02*
X0297798Y0109549D01*
X0297798Y0110047D02*
X0295923Y0110047D01*
X0300298Y0110047D02*
X0302173Y0110047D01*
X0302173Y0110516D02*
X0300298Y0110516D01*
X0300298Y0109266D01*
X0301236Y0108641D01*
X0302173Y0109266D01*
X0302173Y0110516D01*
X0302173Y0109549D02*
X0300298Y0109549D01*
X0300622Y0109050D02*
X0301849Y0109050D01*
X0301236Y0106766D02*
X0300298Y0106141D01*
X0300298Y0104891D01*
X0302173Y0104891D01*
X0302173Y0106141D01*
X0301236Y0106766D01*
X0301548Y0106558D02*
X0300923Y0106558D01*
X0300298Y0106059D02*
X0302173Y0106059D01*
X0302173Y0105561D02*
X0300298Y0105561D01*
X0300298Y0105062D02*
X0302173Y0105062D01*
X0284065Y0111828D02*
X0281565Y0111828D01*
X0281565Y0113703D01*
X0282815Y0114640D01*
X0284065Y0113703D01*
X0284065Y0111828D01*
X0284065Y0112041D02*
X0281565Y0112041D01*
X0281565Y0112540D02*
X0284065Y0112540D01*
X0284065Y0113038D02*
X0281565Y0113038D01*
X0281565Y0113537D02*
X0284065Y0113537D01*
X0283622Y0114035D02*
X0282009Y0114035D01*
X0282674Y0114534D02*
X0282957Y0114534D01*
X0282815Y0117765D02*
X0281565Y0118703D01*
X0281565Y0120578D01*
X0284065Y0120578D01*
X0284065Y0118703D01*
X0282815Y0117765D01*
X0282471Y0118024D02*
X0283160Y0118024D01*
X0283824Y0118522D02*
X0281806Y0118522D01*
X0281565Y0119021D02*
X0284065Y0119021D01*
X0284065Y0119519D02*
X0281565Y0119519D01*
X0281565Y0120018D02*
X0284065Y0120018D01*
X0284065Y0120516D02*
X0281565Y0120516D01*
X0275315Y0120516D02*
X0272815Y0120516D01*
X0272815Y0120018D02*
X0275315Y0120018D01*
X0275315Y0119519D02*
X0272815Y0119519D01*
X0272815Y0119328D02*
X0272815Y0121203D01*
X0274065Y0122140D01*
X0275315Y0121203D01*
X0275315Y0119328D01*
X0272815Y0119328D01*
X0272815Y0121015D02*
X0275315Y0121015D01*
X0274901Y0121513D02*
X0273229Y0121513D01*
X0273894Y0122012D02*
X0274237Y0122012D01*
X0274065Y0125265D02*
X0272815Y0126203D01*
X0272815Y0128078D01*
X0275315Y0128078D01*
X0275315Y0126203D01*
X0274065Y0125265D01*
X0273751Y0125501D02*
X0274380Y0125501D01*
X0275045Y0126000D02*
X0273086Y0126000D01*
X0272815Y0126498D02*
X0275315Y0126498D01*
X0275315Y0126997D02*
X0272815Y0126997D01*
X0272815Y0127495D02*
X0275315Y0127495D01*
X0275315Y0127994D02*
X0272815Y0127994D01*
X0284256Y0133996D02*
X0284113Y0134465D01*
X0284065Y0134953D01*
X0284065Y0137453D01*
X0284113Y0137940D01*
X0284256Y0138409D01*
X0284487Y0138842D01*
X0284798Y0139221D01*
X0285176Y0139531D01*
X0285609Y0139762D01*
X0286078Y0139905D01*
X0286565Y0139953D01*
X0289065Y0139953D01*
X0289553Y0139905D01*
X0290022Y0139762D01*
X0290454Y0139531D01*
X0290833Y0139221D01*
X0291144Y0138842D01*
X0291375Y0138409D01*
X0291517Y0137940D01*
X0291565Y0137453D01*
X0291565Y0134953D01*
X0291517Y0134465D01*
X0291375Y0133996D01*
X0291144Y0133564D01*
X0290833Y0133185D01*
X0290454Y0132874D01*
X0290022Y0132643D01*
X0289553Y0132501D01*
X0289065Y0132453D01*
X0286565Y0132453D01*
X0286078Y0132501D01*
X0285609Y0132643D01*
X0285176Y0132874D01*
X0284798Y0133185D01*
X0284487Y0133564D01*
X0284256Y0133996D01*
X0284266Y0133976D02*
X0291364Y0133976D01*
X0291518Y0134474D02*
X0284112Y0134474D01*
X0284065Y0134973D02*
X0291565Y0134973D01*
X0291565Y0135471D02*
X0284065Y0135471D01*
X0284065Y0135970D02*
X0291565Y0135970D01*
X0291565Y0136468D02*
X0284065Y0136468D01*
X0284065Y0136967D02*
X0291565Y0136967D01*
X0291564Y0137466D02*
X0284067Y0137466D01*
X0284120Y0137964D02*
X0291510Y0137964D01*
X0291347Y0138463D02*
X0284284Y0138463D01*
X0284585Y0138961D02*
X0291046Y0138961D01*
X0290542Y0139460D02*
X0285089Y0139460D01*
X0286078Y0142501D02*
X0285609Y0142643D01*
X0285176Y0142874D01*
X0284798Y0143185D01*
X0284487Y0143564D01*
X0284256Y0143996D01*
X0284113Y0144465D01*
X0284065Y0144953D01*
X0284065Y0147453D01*
X0284113Y0147940D01*
X0284256Y0148409D01*
X0284487Y0148842D01*
X0284798Y0149221D01*
X0285176Y0149531D01*
X0285609Y0149762D01*
X0286078Y0149905D01*
X0286565Y0149953D01*
X0289065Y0149953D01*
X0289553Y0149905D01*
X0290022Y0149762D01*
X0290454Y0149531D01*
X0290833Y0149221D01*
X0291144Y0148842D01*
X0291375Y0148409D01*
X0291517Y0147940D01*
X0291565Y0147453D01*
X0291565Y0144953D01*
X0291517Y0144465D01*
X0291375Y0143996D01*
X0291144Y0143564D01*
X0290833Y0143185D01*
X0290454Y0142874D01*
X0290022Y0142643D01*
X0289553Y0142501D01*
X0289065Y0142453D01*
X0286565Y0142453D01*
X0286078Y0142501D01*
X0285085Y0142949D02*
X0290546Y0142949D01*
X0291049Y0143448D02*
X0284582Y0143448D01*
X0284282Y0143946D02*
X0291348Y0143946D01*
X0291511Y0144445D02*
X0284120Y0144445D01*
X0284066Y0144943D02*
X0291564Y0144943D01*
X0291565Y0145442D02*
X0284065Y0145442D01*
X0284065Y0145940D02*
X0291565Y0145940D01*
X0291565Y0146439D02*
X0284065Y0146439D01*
X0284065Y0146937D02*
X0291565Y0146937D01*
X0291565Y0147436D02*
X0284065Y0147436D01*
X0284113Y0147934D02*
X0291518Y0147934D01*
X0291363Y0148433D02*
X0284268Y0148433D01*
X0284560Y0148931D02*
X0291070Y0148931D01*
X0290578Y0149430D02*
X0285052Y0149430D01*
X0286317Y0149928D02*
X0289314Y0149928D01*
X0294256Y0148409D02*
X0294487Y0148842D01*
X0294798Y0149221D01*
X0295176Y0149531D01*
X0295609Y0149762D01*
X0296078Y0149905D01*
X0296565Y0149953D01*
X0299065Y0149953D01*
X0299553Y0149905D01*
X0300022Y0149762D01*
X0300454Y0149531D01*
X0300833Y0149221D01*
X0301144Y0148842D01*
X0301375Y0148409D01*
X0301517Y0147940D01*
X0301565Y0147453D01*
X0301565Y0144953D01*
X0301517Y0144465D01*
X0301375Y0143996D01*
X0301144Y0143564D01*
X0300833Y0143185D01*
X0300454Y0142874D01*
X0300022Y0142643D01*
X0299553Y0142501D01*
X0299065Y0142453D01*
X0296565Y0142453D01*
X0296078Y0142501D01*
X0295609Y0142643D01*
X0295176Y0142874D01*
X0294798Y0143185D01*
X0294487Y0143564D01*
X0294256Y0143996D01*
X0294113Y0144465D01*
X0294065Y0144953D01*
X0294065Y0147453D01*
X0294113Y0147940D01*
X0294256Y0148409D01*
X0294268Y0148433D02*
X0301363Y0148433D01*
X0301518Y0147934D02*
X0294113Y0147934D01*
X0294065Y0147436D02*
X0301565Y0147436D01*
X0301565Y0146937D02*
X0294065Y0146937D01*
X0294065Y0146439D02*
X0301565Y0146439D01*
X0301565Y0145940D02*
X0294065Y0145940D01*
X0294065Y0145442D02*
X0301565Y0145442D01*
X0301564Y0144943D02*
X0294066Y0144943D01*
X0294120Y0144445D02*
X0301511Y0144445D01*
X0301348Y0143946D02*
X0294282Y0143946D01*
X0294582Y0143448D02*
X0301049Y0143448D01*
X0300546Y0142949D02*
X0295085Y0142949D01*
X0296078Y0139905D02*
X0296565Y0139953D01*
X0299065Y0139953D01*
X0299553Y0139905D01*
X0300022Y0139762D01*
X0300454Y0139531D01*
X0300833Y0139221D01*
X0301144Y0138842D01*
X0301375Y0138409D01*
X0301517Y0137940D01*
X0301565Y0137453D01*
X0301565Y0134953D01*
X0301517Y0134465D01*
X0301375Y0133996D01*
X0301144Y0133564D01*
X0300833Y0133185D01*
X0300454Y0132874D01*
X0300022Y0132643D01*
X0299553Y0132501D01*
X0299065Y0132453D01*
X0296565Y0132453D01*
X0296078Y0132501D01*
X0295609Y0132643D01*
X0295176Y0132874D01*
X0294798Y0133185D01*
X0294487Y0133564D01*
X0294256Y0133996D01*
X0294113Y0134465D01*
X0294065Y0134953D01*
X0294065Y0137453D01*
X0294113Y0137940D01*
X0294256Y0138409D01*
X0294487Y0138842D01*
X0294798Y0139221D01*
X0295176Y0139531D01*
X0295609Y0139762D01*
X0296078Y0139905D01*
X0295089Y0139460D02*
X0300542Y0139460D01*
X0301046Y0138961D02*
X0294585Y0138961D01*
X0294284Y0138463D02*
X0301347Y0138463D01*
X0301510Y0137964D02*
X0294120Y0137964D01*
X0294067Y0137466D02*
X0301564Y0137466D01*
X0301565Y0136967D02*
X0294065Y0136967D01*
X0294065Y0136468D02*
X0301565Y0136468D01*
X0301565Y0135970D02*
X0294065Y0135970D01*
X0294065Y0135471D02*
X0301565Y0135471D01*
X0301565Y0134973D02*
X0294065Y0134973D01*
X0294112Y0134474D02*
X0301518Y0134474D01*
X0301364Y0133976D02*
X0294266Y0133976D01*
X0294558Y0133477D02*
X0301073Y0133477D01*
X0300582Y0132979D02*
X0295049Y0132979D01*
X0296285Y0132480D02*
X0299346Y0132480D01*
X0291073Y0133477D02*
X0284558Y0133477D01*
X0285049Y0132979D02*
X0290582Y0132979D01*
X0289346Y0132480D02*
X0286285Y0132480D01*
X0294560Y0148931D02*
X0301070Y0148931D01*
X0300578Y0149430D02*
X0295052Y0149430D01*
X0296317Y0149928D02*
X0299314Y0149928D01*
X0309690Y0149928D02*
X0311584Y0149928D01*
X0311565Y0149953D02*
X0312503Y0148703D01*
X0311565Y0147453D01*
X0309690Y0147453D01*
X0309690Y0149953D01*
X0311565Y0149953D01*
X0311958Y0149430D02*
X0309690Y0149430D01*
X0309690Y0148931D02*
X0312331Y0148931D01*
X0312300Y0148433D02*
X0309690Y0148433D01*
X0309690Y0147934D02*
X0311926Y0147934D01*
X0315628Y0148703D02*
X0316565Y0149953D01*
X0318440Y0149953D01*
X0318440Y0147453D01*
X0316565Y0147453D01*
X0315628Y0148703D01*
X0315799Y0148931D02*
X0318440Y0148931D01*
X0318440Y0148433D02*
X0315830Y0148433D01*
X0316204Y0147934D02*
X0318440Y0147934D01*
X0318440Y0149430D02*
X0316173Y0149430D01*
X0316547Y0149928D02*
X0318440Y0149928D01*
X0318440Y0152453D02*
X0318440Y0154953D01*
X0316565Y0154953D01*
X0315628Y0153703D01*
X0316565Y0152453D01*
X0318440Y0152453D01*
X0318440Y0152919D02*
X0316215Y0152919D01*
X0315841Y0153418D02*
X0318440Y0153418D01*
X0318440Y0153916D02*
X0315788Y0153916D01*
X0316162Y0154415D02*
X0318440Y0154415D01*
X0318440Y0154913D02*
X0316536Y0154913D01*
X0312503Y0153703D02*
X0311565Y0152453D01*
X0309690Y0152453D01*
X0309690Y0154953D01*
X0311565Y0154953D01*
X0312503Y0153703D01*
X0312343Y0153916D02*
X0309690Y0153916D01*
X0309690Y0153418D02*
X0312289Y0153418D01*
X0311915Y0152919D02*
X0309690Y0152919D01*
X0309690Y0154415D02*
X0311969Y0154415D01*
X0311595Y0154913D02*
X0309690Y0154913D01*
X0304690Y0162453D02*
X0302815Y0162453D01*
X0301878Y0163703D01*
X0302815Y0164953D01*
X0304690Y0164953D01*
X0304690Y0162453D01*
X0304690Y0162890D02*
X0302488Y0162890D01*
X0302114Y0163388D02*
X0304690Y0163388D01*
X0304690Y0163887D02*
X0302016Y0163887D01*
X0302390Y0164385D02*
X0304690Y0164385D01*
X0304690Y0164884D02*
X0302763Y0164884D01*
X0302815Y0167453D02*
X0301878Y0168703D01*
X0302815Y0169953D01*
X0304690Y0169953D01*
X0304690Y0167453D01*
X0302815Y0167453D01*
X0302499Y0167875D02*
X0304690Y0167875D01*
X0304690Y0168373D02*
X0302125Y0168373D01*
X0302004Y0168872D02*
X0304690Y0168872D01*
X0304690Y0169370D02*
X0302378Y0169370D01*
X0302752Y0169869D02*
X0304690Y0169869D01*
X0298753Y0168703D02*
X0297815Y0167453D01*
X0295940Y0167453D01*
X0295940Y0169953D01*
X0297815Y0169953D01*
X0298753Y0168703D01*
X0298626Y0168872D02*
X0295940Y0168872D01*
X0295940Y0169370D02*
X0298252Y0169370D01*
X0297878Y0169869D02*
X0295940Y0169869D01*
X0295940Y0168373D02*
X0298506Y0168373D01*
X0298132Y0167875D02*
X0295940Y0167875D01*
X0295940Y0164953D02*
X0297815Y0164953D01*
X0298753Y0163703D01*
X0297815Y0162453D01*
X0295940Y0162453D01*
X0295940Y0164953D01*
X0295940Y0164884D02*
X0297867Y0164884D01*
X0298241Y0164385D02*
X0295940Y0164385D01*
X0295940Y0163887D02*
X0298615Y0163887D01*
X0298517Y0163388D02*
X0295940Y0163388D01*
X0295940Y0162890D02*
X0298143Y0162890D01*
X0289065Y0166828D02*
X0286565Y0166828D01*
X0286565Y0168703D01*
X0287815Y0169640D01*
X0289065Y0168703D01*
X0289065Y0166828D01*
X0289065Y0166878D02*
X0286565Y0166878D01*
X0286565Y0167376D02*
X0289065Y0167376D01*
X0289065Y0167875D02*
X0286565Y0167875D01*
X0286565Y0168373D02*
X0289065Y0168373D01*
X0288840Y0168872D02*
X0286791Y0168872D01*
X0287455Y0169370D02*
X0288175Y0169370D01*
X0287815Y0172765D02*
X0286565Y0173703D01*
X0286565Y0175578D01*
X0289065Y0175578D01*
X0289065Y0173703D01*
X0287815Y0172765D01*
X0287689Y0172860D02*
X0287941Y0172860D01*
X0288606Y0173358D02*
X0287025Y0173358D01*
X0286565Y0173857D02*
X0289065Y0173857D01*
X0289065Y0174355D02*
X0286565Y0174355D01*
X0286565Y0174854D02*
X0289065Y0174854D01*
X0289065Y0175352D02*
X0286565Y0175352D01*
X0296565Y0175352D02*
X0299065Y0175352D01*
X0299065Y0174854D02*
X0296565Y0174854D01*
X0296565Y0174355D02*
X0299065Y0174355D01*
X0299065Y0174328D02*
X0296565Y0174328D01*
X0296565Y0176203D01*
X0297815Y0177140D01*
X0299065Y0176203D01*
X0299065Y0174328D01*
X0299065Y0175851D02*
X0296565Y0175851D01*
X0296761Y0176349D02*
X0298870Y0176349D01*
X0298205Y0176848D02*
X0297425Y0176848D01*
X0297815Y0180265D02*
X0296565Y0181203D01*
X0296565Y0183078D01*
X0299065Y0183078D01*
X0299065Y0181203D01*
X0297815Y0180265D01*
X0297719Y0180337D02*
X0297912Y0180337D01*
X0298576Y0180836D02*
X0297054Y0180836D01*
X0296565Y0181334D02*
X0299065Y0181334D01*
X0299065Y0181833D02*
X0296565Y0181833D01*
X0296565Y0182332D02*
X0299065Y0182332D01*
X0299065Y0182830D02*
X0296565Y0182830D01*
X0314065Y0186828D02*
X0316565Y0186828D01*
X0316565Y0188703D01*
X0315315Y0189640D01*
X0314065Y0188703D01*
X0314065Y0186828D01*
X0314065Y0187317D02*
X0316565Y0187317D01*
X0316565Y0187815D02*
X0314065Y0187815D01*
X0314065Y0188314D02*
X0316565Y0188314D01*
X0316419Y0188812D02*
X0314211Y0188812D01*
X0314876Y0189311D02*
X0315755Y0189311D01*
X0315315Y0192765D02*
X0314065Y0193703D01*
X0314065Y0195578D01*
X0316565Y0195578D01*
X0316565Y0193703D01*
X0315315Y0192765D01*
X0315269Y0192800D02*
X0315362Y0192800D01*
X0316027Y0193299D02*
X0314604Y0193299D01*
X0314065Y0193797D02*
X0316565Y0193797D01*
X0316565Y0194296D02*
X0314065Y0194296D01*
X0314065Y0194794D02*
X0316565Y0194794D01*
X0316565Y0195293D02*
X0314065Y0195293D01*
X0326565Y0185578D02*
X0329065Y0185578D01*
X0329065Y0183703D01*
X0327815Y0182765D01*
X0326565Y0183703D01*
X0326565Y0185578D01*
X0326565Y0185323D02*
X0329065Y0185323D01*
X0329065Y0184824D02*
X0326565Y0184824D01*
X0326565Y0184326D02*
X0329065Y0184326D01*
X0329065Y0183827D02*
X0326565Y0183827D01*
X0327064Y0183329D02*
X0328566Y0183329D01*
X0327902Y0182830D02*
X0327729Y0182830D01*
X0327815Y0179640D02*
X0329065Y0178703D01*
X0329065Y0176828D01*
X0326565Y0176828D01*
X0326565Y0178703D01*
X0327815Y0179640D01*
X0327416Y0179340D02*
X0328215Y0179340D01*
X0328880Y0178842D02*
X0326751Y0178842D01*
X0326565Y0178343D02*
X0329065Y0178343D01*
X0329065Y0177845D02*
X0326565Y0177845D01*
X0326565Y0177346D02*
X0329065Y0177346D01*
X0329065Y0176848D02*
X0326565Y0176848D01*
X0339065Y0175578D02*
X0341565Y0175578D01*
X0341565Y0173703D01*
X0340315Y0172765D01*
X0339065Y0173703D01*
X0339065Y0175578D01*
X0339065Y0175352D02*
X0341565Y0175352D01*
X0341565Y0174854D02*
X0339065Y0174854D01*
X0339065Y0174355D02*
X0341565Y0174355D01*
X0341565Y0173857D02*
X0339065Y0173857D01*
X0339525Y0173358D02*
X0341106Y0173358D01*
X0340441Y0172860D02*
X0340189Y0172860D01*
X0340315Y0169640D02*
X0339065Y0168703D01*
X0339065Y0166828D01*
X0341565Y0166828D01*
X0341565Y0168703D01*
X0340315Y0169640D01*
X0339955Y0169370D02*
X0340675Y0169370D01*
X0341340Y0168872D02*
X0339291Y0168872D01*
X0339065Y0168373D02*
X0341565Y0168373D01*
X0341565Y0167875D02*
X0339065Y0167875D01*
X0339065Y0167376D02*
X0341565Y0167376D01*
X0341565Y0166878D02*
X0339065Y0166878D01*
X0340315Y0197704D02*
X0337815Y0197704D01*
X0337815Y0199579D01*
X0339065Y0200516D01*
X0340315Y0199579D01*
X0340315Y0197704D01*
X0340315Y0197785D02*
X0337815Y0197785D01*
X0337815Y0198284D02*
X0340315Y0198284D01*
X0340315Y0198782D02*
X0337815Y0198782D01*
X0337815Y0199281D02*
X0340315Y0199281D01*
X0340048Y0199779D02*
X0338083Y0199779D01*
X0338748Y0200278D02*
X0339383Y0200278D01*
X0339065Y0203641D02*
X0337815Y0204579D01*
X0337815Y0206454D01*
X0340315Y0206454D01*
X0340315Y0204579D01*
X0339065Y0203641D01*
X0338897Y0203768D02*
X0339234Y0203768D01*
X0339898Y0204266D02*
X0338232Y0204266D01*
X0337815Y0204765D02*
X0340315Y0204765D01*
X0340315Y0205263D02*
X0337815Y0205263D01*
X0337815Y0205762D02*
X0340315Y0205762D01*
X0340315Y0206260D02*
X0337815Y0206260D01*
X0362815Y0208329D02*
X0364065Y0207391D01*
X0365315Y0208329D01*
X0365315Y0210204D01*
X0362815Y0210204D01*
X0362815Y0208329D01*
X0362915Y0208254D02*
X0365216Y0208254D01*
X0365315Y0208753D02*
X0362815Y0208753D01*
X0362815Y0209251D02*
X0365315Y0209251D01*
X0365315Y0209750D02*
X0362815Y0209750D01*
X0363579Y0207756D02*
X0364551Y0207756D01*
X0364065Y0204266D02*
X0365315Y0203329D01*
X0365315Y0201454D01*
X0362815Y0201454D01*
X0362815Y0203329D01*
X0364065Y0204266D01*
X0364066Y0204266D01*
X0364730Y0203768D02*
X0363400Y0203768D01*
X0362815Y0203269D02*
X0365315Y0203269D01*
X0365315Y0202770D02*
X0362815Y0202770D01*
X0362815Y0202272D02*
X0365315Y0202272D01*
X0365315Y0201773D02*
X0362815Y0201773D01*
X0304065Y0223639D02*
X0301565Y0223639D01*
X0301565Y0225514D01*
X0302815Y0226451D01*
X0304065Y0225514D01*
X0304065Y0223639D01*
X0304065Y0223708D02*
X0301565Y0223708D01*
X0301565Y0224206D02*
X0304065Y0224206D01*
X0304065Y0224705D02*
X0301565Y0224705D01*
X0301565Y0225203D02*
X0304065Y0225203D01*
X0303814Y0225702D02*
X0301816Y0225702D01*
X0302481Y0226201D02*
X0303150Y0226201D01*
X0302815Y0229576D02*
X0301565Y0230514D01*
X0301565Y0232389D01*
X0304065Y0232389D01*
X0304065Y0230514D01*
X0302815Y0229576D01*
X0302664Y0229690D02*
X0302967Y0229690D01*
X0303632Y0230189D02*
X0301999Y0230189D01*
X0301565Y0230687D02*
X0304065Y0230687D01*
X0304065Y0231186D02*
X0301565Y0231186D01*
X0301565Y0231684D02*
X0304065Y0231684D01*
X0304065Y0232183D02*
X0301565Y0232183D01*
X0300817Y0248767D02*
X0298317Y0248767D01*
X0298317Y0250642D01*
X0299567Y0251579D01*
X0300817Y0250642D01*
X0300817Y0248767D01*
X0300817Y0249132D02*
X0298317Y0249132D01*
X0298317Y0249631D02*
X0300817Y0249631D01*
X0300817Y0250129D02*
X0298317Y0250129D01*
X0298317Y0250628D02*
X0300817Y0250628D01*
X0300171Y0251126D02*
X0298963Y0251126D01*
X0299567Y0254704D02*
X0298317Y0255642D01*
X0298317Y0257517D01*
X0300817Y0257517D01*
X0300817Y0255642D01*
X0299567Y0254704D01*
X0299021Y0255114D02*
X0300114Y0255114D01*
X0300779Y0255613D02*
X0298356Y0255613D01*
X0298317Y0256111D02*
X0300817Y0256111D01*
X0300817Y0256610D02*
X0298317Y0256610D01*
X0298317Y0257108D02*
X0300817Y0257108D01*
X0278942Y0264392D02*
X0277067Y0264392D01*
X0276130Y0265642D01*
X0277067Y0266892D01*
X0278942Y0266892D01*
X0278942Y0264392D01*
X0278942Y0264586D02*
X0276922Y0264586D01*
X0276548Y0265084D02*
X0278942Y0265084D01*
X0278942Y0265583D02*
X0276174Y0265583D01*
X0276460Y0266081D02*
X0278942Y0266081D01*
X0278942Y0266580D02*
X0276833Y0266580D01*
X0273005Y0265642D02*
X0272067Y0264392D01*
X0270192Y0264392D01*
X0270192Y0266892D01*
X0272067Y0266892D01*
X0273005Y0265642D01*
X0272961Y0265583D02*
X0270192Y0265583D01*
X0270192Y0266081D02*
X0272675Y0266081D01*
X0272301Y0266580D02*
X0270192Y0266580D01*
X0270192Y0265084D02*
X0272587Y0265084D01*
X0272213Y0264586D02*
X0270192Y0264586D01*
X0290817Y0280017D02*
X0293317Y0280017D01*
X0293317Y0281892D01*
X0292067Y0282829D01*
X0290817Y0281892D01*
X0290817Y0280017D01*
X0290817Y0280040D02*
X0293317Y0280040D01*
X0293317Y0280538D02*
X0290817Y0280538D01*
X0290817Y0281037D02*
X0293317Y0281037D01*
X0293317Y0281535D02*
X0290817Y0281535D01*
X0291007Y0282034D02*
X0293128Y0282034D01*
X0292463Y0282532D02*
X0291671Y0282532D01*
X0292067Y0285954D02*
X0290817Y0286892D01*
X0290817Y0288767D01*
X0293317Y0288767D01*
X0293317Y0286892D01*
X0292067Y0285954D01*
X0291977Y0286022D02*
X0292157Y0286022D01*
X0292822Y0286520D02*
X0291312Y0286520D01*
X0290817Y0286520D02*
X0293317Y0286520D01*
X0293317Y0286267D02*
X0290817Y0286267D01*
X0290817Y0288142D01*
X0292067Y0289079D01*
X0293317Y0288142D01*
X0293317Y0286267D01*
X0293317Y0287019D02*
X0290817Y0287019D01*
X0293317Y0287019D01*
X0293317Y0287517D02*
X0290817Y0287517D01*
X0293317Y0287517D01*
X0293317Y0288016D02*
X0290817Y0288016D01*
X0293317Y0288016D01*
X0293317Y0288514D02*
X0290817Y0288514D01*
X0291314Y0288514D02*
X0292820Y0288514D01*
X0292156Y0289013D02*
X0291979Y0289013D01*
X0292067Y0292204D02*
X0290817Y0293142D01*
X0290817Y0295017D01*
X0293317Y0295017D01*
X0293317Y0293142D01*
X0292067Y0292204D01*
X0291670Y0292503D02*
X0292465Y0292503D01*
X0293130Y0293001D02*
X0291005Y0293001D01*
X0290817Y0293500D02*
X0293317Y0293500D01*
X0293317Y0293998D02*
X0290817Y0293998D01*
X0290817Y0294497D02*
X0293317Y0294497D01*
X0293317Y0294995D02*
X0290817Y0294995D01*
X0269690Y0293014D02*
X0269690Y0290514D01*
X0267815Y0290514D01*
X0266878Y0291764D01*
X0267815Y0293014D01*
X0269690Y0293014D01*
X0269690Y0293001D02*
X0267806Y0293001D01*
X0267432Y0292503D02*
X0269690Y0292503D01*
X0269690Y0292004D02*
X0267058Y0292004D01*
X0267071Y0291505D02*
X0269690Y0291505D01*
X0269690Y0291007D02*
X0267445Y0291007D01*
X0263753Y0291764D02*
X0262815Y0293014D01*
X0260940Y0293014D01*
X0260940Y0290514D01*
X0262815Y0290514D01*
X0263753Y0291764D01*
X0263573Y0292004D02*
X0260940Y0292004D01*
X0260940Y0291505D02*
X0263559Y0291505D01*
X0263185Y0291007D02*
X0260940Y0291007D01*
X0260940Y0292503D02*
X0263199Y0292503D01*
X0262825Y0293001D02*
X0260940Y0293001D01*
X0237067Y0294392D02*
X0235817Y0293454D01*
X0234567Y0294392D01*
X0234567Y0296267D01*
X0237067Y0296267D01*
X0237067Y0294392D01*
X0237067Y0294497D02*
X0234567Y0294497D01*
X0234567Y0294995D02*
X0237067Y0294995D01*
X0237067Y0295494D02*
X0234567Y0295494D01*
X0234567Y0295992D02*
X0237067Y0295992D01*
X0236542Y0293998D02*
X0235092Y0293998D01*
X0235757Y0293500D02*
X0235878Y0293500D01*
X0235817Y0290329D02*
X0237067Y0289392D01*
X0237067Y0287517D01*
X0234567Y0287517D01*
X0234567Y0289392D01*
X0235817Y0290329D01*
X0235392Y0290010D02*
X0236243Y0290010D01*
X0236908Y0289511D02*
X0234727Y0289511D01*
X0234567Y0289013D02*
X0237067Y0289013D01*
X0237067Y0288514D02*
X0234567Y0288514D01*
X0234567Y0288016D02*
X0237067Y0288016D01*
X0237067Y0287517D02*
X0234567Y0287517D01*
X0201442Y0265642D02*
X0201442Y0263142D01*
X0199567Y0263142D01*
X0198630Y0264392D01*
X0199567Y0265642D01*
X0201442Y0265642D01*
X0201442Y0265583D02*
X0199523Y0265583D01*
X0199149Y0265084D02*
X0201442Y0265084D01*
X0201442Y0264586D02*
X0198775Y0264586D01*
X0198858Y0264087D02*
X0201442Y0264087D01*
X0201442Y0263589D02*
X0199232Y0263589D01*
X0199567Y0260642D02*
X0201442Y0260642D01*
X0201442Y0258142D01*
X0199567Y0258142D01*
X0198630Y0259392D01*
X0199567Y0260642D01*
X0199534Y0260598D02*
X0201442Y0260598D01*
X0201442Y0260099D02*
X0199160Y0260099D01*
X0198787Y0259601D02*
X0201442Y0259601D01*
X0201442Y0259102D02*
X0198847Y0259102D01*
X0199221Y0258604D02*
X0201442Y0258604D01*
X0201442Y0255642D02*
X0199567Y0255642D01*
X0198630Y0254392D01*
X0199567Y0253142D01*
X0201442Y0253142D01*
X0201442Y0255642D01*
X0201442Y0255613D02*
X0199545Y0255613D01*
X0199172Y0255114D02*
X0201442Y0255114D01*
X0201442Y0254616D02*
X0198798Y0254616D01*
X0198836Y0254117D02*
X0201442Y0254117D01*
X0201442Y0253619D02*
X0199210Y0253619D01*
X0199567Y0250642D02*
X0201442Y0250642D01*
X0201442Y0248142D01*
X0199567Y0248142D01*
X0198630Y0249392D01*
X0199567Y0250642D01*
X0199557Y0250628D02*
X0201442Y0250628D01*
X0201442Y0250129D02*
X0199183Y0250129D01*
X0198809Y0249631D02*
X0201442Y0249631D01*
X0201442Y0249132D02*
X0198825Y0249132D01*
X0199198Y0248634D02*
X0201442Y0248634D01*
X0201442Y0245642D02*
X0199567Y0245642D01*
X0198630Y0244392D01*
X0199567Y0243142D01*
X0201442Y0243142D01*
X0201442Y0245642D01*
X0201442Y0245144D02*
X0199194Y0245144D01*
X0198820Y0244645D02*
X0201442Y0244645D01*
X0201442Y0244147D02*
X0198813Y0244147D01*
X0199187Y0243648D02*
X0201442Y0243648D01*
X0201442Y0243150D02*
X0199561Y0243150D01*
X0199567Y0240642D02*
X0201442Y0240642D01*
X0201442Y0238142D01*
X0199567Y0238142D01*
X0198630Y0239392D01*
X0199567Y0240642D01*
X0199205Y0240159D02*
X0201442Y0240159D01*
X0201442Y0239660D02*
X0198831Y0239660D01*
X0198802Y0239162D02*
X0201442Y0239162D01*
X0201442Y0238663D02*
X0199176Y0238663D01*
X0199550Y0238165D02*
X0201442Y0238165D01*
X0201442Y0235642D02*
X0199567Y0235642D01*
X0198630Y0234392D01*
X0199567Y0233142D01*
X0201442Y0233142D01*
X0201442Y0235642D01*
X0201442Y0235174D02*
X0199216Y0235174D01*
X0198842Y0234675D02*
X0201442Y0234675D01*
X0201442Y0234177D02*
X0198791Y0234177D01*
X0199165Y0233678D02*
X0201442Y0233678D01*
X0201442Y0233180D02*
X0199539Y0233180D01*
X0199567Y0230642D02*
X0201442Y0230642D01*
X0201442Y0228142D01*
X0199567Y0228142D01*
X0198630Y0229392D01*
X0199567Y0230642D01*
X0199227Y0230189D02*
X0201442Y0230189D01*
X0201442Y0229690D02*
X0198854Y0229690D01*
X0198780Y0229192D02*
X0201442Y0229192D01*
X0201442Y0228693D02*
X0199154Y0228693D01*
X0199528Y0228195D02*
X0201442Y0228195D01*
X0195505Y0229392D02*
X0194567Y0228142D01*
X0192692Y0228142D01*
X0192692Y0230642D01*
X0194567Y0230642D01*
X0195505Y0229392D01*
X0195355Y0229192D02*
X0192692Y0229192D01*
X0192692Y0229690D02*
X0195281Y0229690D01*
X0194907Y0230189D02*
X0192692Y0230189D01*
X0192692Y0228693D02*
X0194981Y0228693D01*
X0194607Y0228195D02*
X0192692Y0228195D01*
X0192692Y0233142D02*
X0192692Y0235642D01*
X0194567Y0235642D01*
X0195505Y0234392D01*
X0194567Y0233142D01*
X0192692Y0233142D01*
X0192692Y0233180D02*
X0194596Y0233180D01*
X0194970Y0233678D02*
X0192692Y0233678D01*
X0192692Y0234177D02*
X0195343Y0234177D01*
X0195292Y0234675D02*
X0192692Y0234675D01*
X0192692Y0235174D02*
X0194918Y0235174D01*
X0194567Y0238142D02*
X0195505Y0239392D01*
X0194567Y0240642D01*
X0192692Y0240642D01*
X0192692Y0238142D01*
X0194567Y0238142D01*
X0194585Y0238165D02*
X0192692Y0238165D01*
X0192692Y0238663D02*
X0194958Y0238663D01*
X0195332Y0239162D02*
X0192692Y0239162D01*
X0192692Y0239660D02*
X0195303Y0239660D01*
X0194929Y0240159D02*
X0192692Y0240159D01*
X0192692Y0243142D02*
X0192692Y0245642D01*
X0194567Y0245642D01*
X0195505Y0244392D01*
X0194567Y0243142D01*
X0192692Y0243142D01*
X0192692Y0243150D02*
X0194573Y0243150D01*
X0194947Y0243648D02*
X0192692Y0243648D01*
X0192692Y0244147D02*
X0195321Y0244147D01*
X0195314Y0244645D02*
X0192692Y0244645D01*
X0192692Y0245144D02*
X0194941Y0245144D01*
X0194567Y0248142D02*
X0195505Y0249392D01*
X0194567Y0250642D01*
X0192692Y0250642D01*
X0192692Y0248142D01*
X0194567Y0248142D01*
X0194936Y0248634D02*
X0192692Y0248634D01*
X0192692Y0249132D02*
X0195310Y0249132D01*
X0195326Y0249631D02*
X0192692Y0249631D01*
X0192692Y0250129D02*
X0194952Y0250129D01*
X0194578Y0250628D02*
X0192692Y0250628D01*
X0192692Y0253142D02*
X0192692Y0255642D01*
X0194567Y0255642D01*
X0195505Y0254392D01*
X0194567Y0253142D01*
X0192692Y0253142D01*
X0192692Y0253619D02*
X0194925Y0253619D01*
X0195299Y0254117D02*
X0192692Y0254117D01*
X0192692Y0254616D02*
X0195337Y0254616D01*
X0194963Y0255114D02*
X0192692Y0255114D01*
X0192692Y0255613D02*
X0194589Y0255613D01*
X0194567Y0258142D02*
X0195505Y0259392D01*
X0194567Y0260642D01*
X0192692Y0260642D01*
X0192692Y0258142D01*
X0194567Y0258142D01*
X0194914Y0258604D02*
X0192692Y0258604D01*
X0192692Y0259102D02*
X0195288Y0259102D01*
X0195348Y0259601D02*
X0192692Y0259601D01*
X0192692Y0260099D02*
X0194974Y0260099D01*
X0194600Y0260598D02*
X0192692Y0260598D01*
X0192692Y0263142D02*
X0192692Y0265642D01*
X0194567Y0265642D01*
X0195505Y0264392D01*
X0194567Y0263142D01*
X0192692Y0263142D01*
X0192692Y0263589D02*
X0194903Y0263589D01*
X0195276Y0264087D02*
X0192692Y0264087D01*
X0192692Y0264586D02*
X0195359Y0264586D01*
X0194985Y0265084D02*
X0192692Y0265084D01*
X0192692Y0265583D02*
X0194611Y0265583D01*
X0165192Y0265583D02*
X0163273Y0265583D01*
X0163317Y0265642D02*
X0162380Y0264392D01*
X0163317Y0263142D01*
X0165192Y0263142D01*
X0165192Y0265642D01*
X0163317Y0265642D01*
X0162899Y0265084D02*
X0165192Y0265084D01*
X0165192Y0264586D02*
X0162525Y0264586D01*
X0162608Y0264087D02*
X0165192Y0264087D01*
X0165192Y0263589D02*
X0162982Y0263589D01*
X0159255Y0264392D02*
X0158317Y0263142D01*
X0156442Y0263142D01*
X0156442Y0265642D01*
X0158317Y0265642D01*
X0159255Y0264392D01*
X0159109Y0264586D02*
X0156442Y0264586D01*
X0156442Y0265084D02*
X0158735Y0265084D01*
X0158361Y0265583D02*
X0156442Y0265583D01*
X0156442Y0264087D02*
X0159026Y0264087D01*
X0158653Y0263589D02*
X0156442Y0263589D01*
X0154690Y0290514D02*
X0152815Y0290514D01*
X0151878Y0291764D01*
X0152815Y0293014D01*
X0154690Y0293014D01*
X0154690Y0290514D01*
X0154690Y0291007D02*
X0152445Y0291007D01*
X0152071Y0291505D02*
X0154690Y0291505D01*
X0154690Y0292004D02*
X0152058Y0292004D01*
X0152432Y0292503D02*
X0154690Y0292503D01*
X0154690Y0293001D02*
X0152806Y0293001D01*
X0148753Y0291764D02*
X0147815Y0290514D01*
X0145940Y0290514D01*
X0145940Y0293014D01*
X0147815Y0293014D01*
X0148753Y0291764D01*
X0148573Y0292004D02*
X0145940Y0292004D01*
X0145940Y0291505D02*
X0148559Y0291505D01*
X0148185Y0291007D02*
X0145940Y0291007D01*
X0145940Y0292503D02*
X0148199Y0292503D01*
X0147825Y0293001D02*
X0145940Y0293001D01*
X0122067Y0294392D02*
X0120817Y0293454D01*
X0119567Y0294392D01*
X0119567Y0296267D01*
X0122067Y0296267D01*
X0122067Y0294392D01*
X0122067Y0294497D02*
X0119567Y0294497D01*
X0119567Y0294995D02*
X0122067Y0294995D01*
X0122067Y0295494D02*
X0119567Y0295494D01*
X0119567Y0295992D02*
X0122067Y0295992D01*
X0121542Y0293998D02*
X0120092Y0293998D01*
X0120757Y0293500D02*
X0120878Y0293500D01*
X0120817Y0290329D02*
X0119567Y0289392D01*
X0119567Y0287517D01*
X0122067Y0287517D01*
X0122067Y0289392D01*
X0120817Y0290329D01*
X0120392Y0290010D02*
X0121243Y0290010D01*
X0121908Y0289511D02*
X0119727Y0289511D01*
X0119567Y0289013D02*
X0122067Y0289013D01*
X0122067Y0288514D02*
X0119567Y0288514D01*
X0119567Y0288016D02*
X0122067Y0288016D01*
X0122067Y0287517D02*
X0119567Y0287517D01*
X0086442Y0265642D02*
X0086442Y0263142D01*
X0084567Y0263142D01*
X0083630Y0264392D01*
X0084567Y0265642D01*
X0086442Y0265642D01*
X0086442Y0265583D02*
X0084523Y0265583D01*
X0084149Y0265084D02*
X0086442Y0265084D01*
X0086442Y0264586D02*
X0083775Y0264586D01*
X0083858Y0264087D02*
X0086442Y0264087D01*
X0086442Y0263589D02*
X0084232Y0263589D01*
X0084567Y0260642D02*
X0083630Y0259392D01*
X0084567Y0258142D01*
X0086442Y0258142D01*
X0086442Y0260642D01*
X0084567Y0260642D01*
X0084534Y0260598D02*
X0086442Y0260598D01*
X0086442Y0260099D02*
X0084160Y0260099D01*
X0083787Y0259601D02*
X0086442Y0259601D01*
X0086442Y0259102D02*
X0083847Y0259102D01*
X0084221Y0258604D02*
X0086442Y0258604D01*
X0086442Y0255642D02*
X0086442Y0253142D01*
X0084567Y0253142D01*
X0083630Y0254392D01*
X0084567Y0255642D01*
X0086442Y0255642D01*
X0086442Y0255613D02*
X0084545Y0255613D01*
X0084172Y0255114D02*
X0086442Y0255114D01*
X0086442Y0254616D02*
X0083798Y0254616D01*
X0083836Y0254117D02*
X0086442Y0254117D01*
X0086442Y0253619D02*
X0084210Y0253619D01*
X0084567Y0250642D02*
X0083630Y0249392D01*
X0084567Y0248142D01*
X0086442Y0248142D01*
X0086442Y0250642D01*
X0084567Y0250642D01*
X0084557Y0250628D02*
X0086442Y0250628D01*
X0086442Y0250129D02*
X0084183Y0250129D01*
X0083809Y0249631D02*
X0086442Y0249631D01*
X0086442Y0249132D02*
X0083825Y0249132D01*
X0084198Y0248634D02*
X0086442Y0248634D01*
X0086442Y0245642D02*
X0086442Y0243142D01*
X0084567Y0243142D01*
X0083630Y0244392D01*
X0084567Y0245642D01*
X0086442Y0245642D01*
X0086442Y0245144D02*
X0084194Y0245144D01*
X0083820Y0244645D02*
X0086442Y0244645D01*
X0086442Y0244147D02*
X0083813Y0244147D01*
X0084187Y0243648D02*
X0086442Y0243648D01*
X0086442Y0243150D02*
X0084561Y0243150D01*
X0084567Y0240642D02*
X0083630Y0239392D01*
X0084567Y0238142D01*
X0086442Y0238142D01*
X0086442Y0240642D01*
X0084567Y0240642D01*
X0084205Y0240159D02*
X0086442Y0240159D01*
X0086442Y0239660D02*
X0083831Y0239660D01*
X0083802Y0239162D02*
X0086442Y0239162D01*
X0086442Y0238663D02*
X0084176Y0238663D01*
X0084550Y0238165D02*
X0086442Y0238165D01*
X0086442Y0235642D02*
X0086442Y0233142D01*
X0084567Y0233142D01*
X0083630Y0234392D01*
X0084567Y0235642D01*
X0086442Y0235642D01*
X0086442Y0235174D02*
X0084216Y0235174D01*
X0083842Y0234675D02*
X0086442Y0234675D01*
X0086442Y0234177D02*
X0083791Y0234177D01*
X0084165Y0233678D02*
X0086442Y0233678D01*
X0086442Y0233180D02*
X0084539Y0233180D01*
X0084567Y0230642D02*
X0086442Y0230642D01*
X0086442Y0228142D01*
X0084567Y0228142D01*
X0083630Y0229392D01*
X0084567Y0230642D01*
X0084227Y0230189D02*
X0086442Y0230189D01*
X0086442Y0229690D02*
X0083854Y0229690D01*
X0083780Y0229192D02*
X0086442Y0229192D01*
X0086442Y0228693D02*
X0084154Y0228693D01*
X0084528Y0228195D02*
X0086442Y0228195D01*
X0080505Y0229392D02*
X0079567Y0228142D01*
X0077692Y0228142D01*
X0077692Y0230642D01*
X0079567Y0230642D01*
X0080505Y0229392D01*
X0080355Y0229192D02*
X0077692Y0229192D01*
X0077692Y0229690D02*
X0080281Y0229690D01*
X0079907Y0230189D02*
X0077692Y0230189D01*
X0077692Y0228693D02*
X0079981Y0228693D01*
X0079607Y0228195D02*
X0077692Y0228195D01*
X0077692Y0233142D02*
X0077692Y0235642D01*
X0079567Y0235642D01*
X0080505Y0234392D01*
X0079567Y0233142D01*
X0077692Y0233142D01*
X0077692Y0233180D02*
X0079596Y0233180D01*
X0079970Y0233678D02*
X0077692Y0233678D01*
X0077692Y0234177D02*
X0080343Y0234177D01*
X0080292Y0234675D02*
X0077692Y0234675D01*
X0077692Y0235174D02*
X0079918Y0235174D01*
X0079567Y0238142D02*
X0080505Y0239392D01*
X0079567Y0240642D01*
X0077692Y0240642D01*
X0077692Y0238142D01*
X0079567Y0238142D01*
X0079585Y0238165D02*
X0077692Y0238165D01*
X0077692Y0238663D02*
X0079958Y0238663D01*
X0080332Y0239162D02*
X0077692Y0239162D01*
X0077692Y0239660D02*
X0080303Y0239660D01*
X0079929Y0240159D02*
X0077692Y0240159D01*
X0077692Y0243142D02*
X0077692Y0245642D01*
X0079567Y0245642D01*
X0080505Y0244392D01*
X0079567Y0243142D01*
X0077692Y0243142D01*
X0077692Y0243150D02*
X0079573Y0243150D01*
X0079947Y0243648D02*
X0077692Y0243648D01*
X0077692Y0244147D02*
X0080321Y0244147D01*
X0080314Y0244645D02*
X0077692Y0244645D01*
X0077692Y0245144D02*
X0079941Y0245144D01*
X0079567Y0248142D02*
X0080505Y0249392D01*
X0079567Y0250642D01*
X0077692Y0250642D01*
X0077692Y0248142D01*
X0079567Y0248142D01*
X0079936Y0248634D02*
X0077692Y0248634D01*
X0077692Y0249132D02*
X0080310Y0249132D01*
X0080326Y0249631D02*
X0077692Y0249631D01*
X0077692Y0250129D02*
X0079952Y0250129D01*
X0079578Y0250628D02*
X0077692Y0250628D01*
X0077692Y0253142D02*
X0077692Y0255642D01*
X0079567Y0255642D01*
X0080505Y0254392D01*
X0079567Y0253142D01*
X0077692Y0253142D01*
X0077692Y0253619D02*
X0079925Y0253619D01*
X0080299Y0254117D02*
X0077692Y0254117D01*
X0077692Y0254616D02*
X0080337Y0254616D01*
X0079963Y0255114D02*
X0077692Y0255114D01*
X0077692Y0255613D02*
X0079589Y0255613D01*
X0079567Y0258142D02*
X0080505Y0259392D01*
X0079567Y0260642D01*
X0077692Y0260642D01*
X0077692Y0258142D01*
X0079567Y0258142D01*
X0079914Y0258604D02*
X0077692Y0258604D01*
X0077692Y0259102D02*
X0080288Y0259102D01*
X0080348Y0259601D02*
X0077692Y0259601D01*
X0077692Y0260099D02*
X0079974Y0260099D01*
X0079600Y0260598D02*
X0077692Y0260598D01*
X0077692Y0263142D02*
X0077692Y0265642D01*
X0079567Y0265642D01*
X0080505Y0264392D01*
X0079567Y0263142D01*
X0077692Y0263142D01*
X0077692Y0263589D02*
X0079903Y0263589D01*
X0080276Y0264087D02*
X0077692Y0264087D01*
X0077692Y0264586D02*
X0080359Y0264586D01*
X0079985Y0265084D02*
X0077692Y0265084D01*
X0077692Y0265583D02*
X0079611Y0265583D01*
X0113317Y0230642D02*
X0115817Y0230642D01*
X0115817Y0228767D01*
X0114567Y0227829D01*
X0113317Y0228767D01*
X0113317Y0230642D01*
X0113317Y0230189D02*
X0115817Y0230189D01*
X0115817Y0229690D02*
X0113317Y0229690D01*
X0113317Y0229192D02*
X0115817Y0229192D01*
X0115719Y0228693D02*
X0113415Y0228693D01*
X0114080Y0228195D02*
X0115054Y0228195D01*
X0118315Y0228195D02*
X0122690Y0228195D01*
X0122690Y0228016D02*
X0120502Y0226454D01*
X0118315Y0228016D01*
X0118315Y0230516D01*
X0122690Y0230516D01*
X0122690Y0228016D01*
X0122242Y0227696D02*
X0118763Y0227696D01*
X0119461Y0227198D02*
X0121544Y0227198D01*
X0120846Y0226699D02*
X0120159Y0226699D01*
X0118315Y0228693D02*
X0122690Y0228693D01*
X0122690Y0229192D02*
X0118315Y0229192D01*
X0118315Y0229690D02*
X0122690Y0229690D01*
X0122690Y0230189D02*
X0118315Y0230189D01*
X0114567Y0224704D02*
X0115817Y0223767D01*
X0115817Y0221892D01*
X0113317Y0221892D01*
X0113317Y0223767D01*
X0114567Y0224704D01*
X0113904Y0224206D02*
X0115231Y0224206D01*
X0115817Y0223708D02*
X0113317Y0223708D01*
X0113317Y0223209D02*
X0115817Y0223209D01*
X0115817Y0222711D02*
X0113317Y0222711D01*
X0113317Y0222212D02*
X0115817Y0222212D01*
X0118315Y0221141D02*
X0118315Y0218641D01*
X0122690Y0218641D01*
X0122690Y0221141D01*
X0120502Y0222704D01*
X0118315Y0221141D01*
X0118419Y0221215D02*
X0122586Y0221215D01*
X0122690Y0220717D02*
X0118315Y0220717D01*
X0118315Y0220218D02*
X0122690Y0220218D01*
X0122690Y0219720D02*
X0118315Y0219720D01*
X0118315Y0219221D02*
X0122690Y0219221D01*
X0122690Y0218723D02*
X0118315Y0218723D01*
X0119117Y0221714D02*
X0121888Y0221714D01*
X0121190Y0222212D02*
X0119814Y0222212D01*
X0137067Y0220642D02*
X0137067Y0218767D01*
X0139567Y0218767D01*
X0139567Y0220642D01*
X0138317Y0221579D01*
X0137067Y0220642D01*
X0137167Y0220717D02*
X0139467Y0220717D01*
X0139567Y0220218D02*
X0137067Y0220218D01*
X0137067Y0219720D02*
X0139567Y0219720D01*
X0139567Y0219221D02*
X0137067Y0219221D01*
X0137832Y0221215D02*
X0138802Y0221215D01*
X0138317Y0224704D02*
X0137067Y0225642D01*
X0137067Y0227517D01*
X0139567Y0227517D01*
X0139567Y0225642D01*
X0138317Y0224704D01*
X0138316Y0224705D02*
X0138318Y0224705D01*
X0138983Y0225203D02*
X0137652Y0225203D01*
X0137067Y0225702D02*
X0139567Y0225702D01*
X0139567Y0226201D02*
X0137067Y0226201D01*
X0137067Y0226699D02*
X0139567Y0226699D01*
X0139567Y0227198D02*
X0137067Y0227198D01*
X0143315Y0227198D02*
X0147690Y0227198D01*
X0147690Y0227391D02*
X0147690Y0224891D01*
X0145502Y0223329D01*
X0143315Y0224891D01*
X0143315Y0227391D01*
X0147690Y0227391D01*
X0147690Y0226699D02*
X0143315Y0226699D01*
X0143315Y0226201D02*
X0147690Y0226201D01*
X0147690Y0225702D02*
X0143315Y0225702D01*
X0143315Y0225203D02*
X0147690Y0225203D01*
X0147429Y0224705D02*
X0143576Y0224705D01*
X0144273Y0224206D02*
X0146731Y0224206D01*
X0146033Y0223708D02*
X0144971Y0223708D01*
X0145502Y0219579D02*
X0143315Y0218016D01*
X0143315Y0215516D01*
X0147690Y0215516D01*
X0147690Y0218016D01*
X0145502Y0219579D01*
X0145002Y0219221D02*
X0146003Y0219221D01*
X0146701Y0218723D02*
X0144304Y0218723D01*
X0143606Y0218224D02*
X0147398Y0218224D01*
X0147690Y0217726D02*
X0143315Y0217726D01*
X0143315Y0217227D02*
X0147690Y0217227D01*
X0147690Y0216729D02*
X0143315Y0216729D01*
X0143315Y0216230D02*
X0147690Y0216230D01*
X0147690Y0215732D02*
X0143315Y0215732D01*
X0151442Y0231892D02*
X0151442Y0234392D01*
X0153317Y0234392D01*
X0154255Y0233142D01*
X0153317Y0231892D01*
X0151442Y0231892D01*
X0151442Y0232183D02*
X0153535Y0232183D01*
X0153909Y0232681D02*
X0151442Y0232681D01*
X0151442Y0233180D02*
X0154226Y0233180D01*
X0153852Y0233678D02*
X0151442Y0233678D01*
X0151442Y0234177D02*
X0153479Y0234177D01*
X0157380Y0233142D02*
X0158317Y0231892D01*
X0160192Y0231892D01*
X0160192Y0234392D01*
X0158317Y0234392D01*
X0157380Y0233142D01*
X0157408Y0233180D02*
X0160192Y0233180D01*
X0160192Y0233678D02*
X0157782Y0233678D01*
X0158156Y0234177D02*
X0160192Y0234177D01*
X0160192Y0232681D02*
X0157725Y0232681D01*
X0158099Y0232183D02*
X0160192Y0232183D01*
X0213315Y0230516D02*
X0213315Y0226141D01*
X0215815Y0226141D01*
X0217377Y0228329D01*
X0215815Y0230516D01*
X0213315Y0230516D01*
X0213315Y0230189D02*
X0216049Y0230189D01*
X0216405Y0229690D02*
X0213315Y0229690D01*
X0213315Y0229192D02*
X0216761Y0229192D01*
X0217117Y0228693D02*
X0213315Y0228693D01*
X0213315Y0228195D02*
X0217281Y0228195D01*
X0216925Y0227696D02*
X0213315Y0227696D01*
X0213315Y0227198D02*
X0216569Y0227198D01*
X0216213Y0226699D02*
X0213315Y0226699D01*
X0213315Y0226201D02*
X0215857Y0226201D01*
X0221127Y0228329D02*
X0222690Y0230516D01*
X0225190Y0230516D01*
X0225190Y0226141D01*
X0222690Y0226141D01*
X0221127Y0228329D01*
X0221223Y0228195D02*
X0225190Y0228195D01*
X0225190Y0228693D02*
X0221388Y0228693D01*
X0221744Y0229192D02*
X0225190Y0229192D01*
X0225190Y0229690D02*
X0222100Y0229690D01*
X0222456Y0230189D02*
X0225190Y0230189D01*
X0225190Y0227696D02*
X0221579Y0227696D01*
X0221935Y0227198D02*
X0225190Y0227198D01*
X0225190Y0226699D02*
X0222291Y0226699D01*
X0222647Y0226201D02*
X0225190Y0226201D01*
X0228317Y0228142D02*
X0228317Y0230017D01*
X0230817Y0230017D01*
X0230817Y0228142D01*
X0229567Y0227204D01*
X0228317Y0228142D01*
X0228317Y0228195D02*
X0230817Y0228195D01*
X0230817Y0228693D02*
X0228317Y0228693D01*
X0228317Y0229192D02*
X0230817Y0229192D01*
X0230817Y0229690D02*
X0228317Y0229690D01*
X0228911Y0227696D02*
X0230223Y0227696D01*
X0229567Y0224079D02*
X0230817Y0223142D01*
X0230817Y0221267D01*
X0228317Y0221267D01*
X0228317Y0223142D01*
X0229567Y0224079D01*
X0229072Y0223708D02*
X0230062Y0223708D01*
X0230727Y0223209D02*
X0228408Y0223209D01*
X0228317Y0222711D02*
X0230817Y0222711D01*
X0230817Y0222212D02*
X0228317Y0222212D01*
X0228317Y0221714D02*
X0230817Y0221714D01*
X0253317Y0219392D02*
X0254567Y0220329D01*
X0255817Y0219392D01*
X0255817Y0217517D01*
X0253317Y0217517D01*
X0253317Y0219392D01*
X0253317Y0219221D02*
X0255817Y0219221D01*
X0255817Y0218723D02*
X0253317Y0218723D01*
X0253317Y0218224D02*
X0255817Y0218224D01*
X0255817Y0217726D02*
X0253317Y0217726D01*
X0253755Y0219720D02*
X0255380Y0219720D01*
X0254715Y0220218D02*
X0254419Y0220218D01*
X0254567Y0223454D02*
X0253317Y0224392D01*
X0253317Y0226267D01*
X0255817Y0226267D01*
X0255817Y0224392D01*
X0254567Y0223454D01*
X0254229Y0223708D02*
X0254906Y0223708D01*
X0255570Y0224206D02*
X0253564Y0224206D01*
X0253317Y0224705D02*
X0255817Y0224705D01*
X0255817Y0225203D02*
X0253317Y0225203D01*
X0253317Y0225702D02*
X0255817Y0225702D01*
X0255817Y0226201D02*
X0253317Y0226201D01*
X0258940Y0226141D02*
X0263315Y0226141D01*
X0263315Y0223641D01*
X0261127Y0222079D01*
X0258940Y0223641D01*
X0258940Y0226141D01*
X0258940Y0225702D02*
X0263315Y0225702D01*
X0263315Y0225203D02*
X0258940Y0225203D01*
X0258940Y0224705D02*
X0263315Y0224705D01*
X0263315Y0224206D02*
X0258940Y0224206D01*
X0258940Y0223708D02*
X0263315Y0223708D01*
X0262710Y0223209D02*
X0259544Y0223209D01*
X0260242Y0222711D02*
X0262012Y0222711D01*
X0261314Y0222212D02*
X0260940Y0222212D01*
X0261127Y0218329D02*
X0263315Y0216766D01*
X0263315Y0214266D01*
X0258940Y0214266D01*
X0258940Y0216766D01*
X0261127Y0218329D01*
X0260981Y0218224D02*
X0261273Y0218224D01*
X0261971Y0217726D02*
X0260283Y0217726D01*
X0259585Y0217227D02*
X0262669Y0217227D01*
X0263315Y0216729D02*
X0258940Y0216729D01*
X0258940Y0216230D02*
X0263315Y0216230D01*
X0263315Y0215732D02*
X0258940Y0215732D01*
X0258940Y0215233D02*
X0263315Y0215233D01*
X0263315Y0214735D02*
X0258940Y0214735D01*
X0267564Y0229894D02*
X0267564Y0232394D01*
X0269439Y0232394D01*
X0270377Y0231144D01*
X0269439Y0229894D01*
X0267564Y0229894D01*
X0267564Y0230189D02*
X0269660Y0230189D01*
X0270034Y0230687D02*
X0267564Y0230687D01*
X0267564Y0231186D02*
X0270345Y0231186D01*
X0269971Y0231684D02*
X0267564Y0231684D01*
X0267564Y0232183D02*
X0269598Y0232183D01*
X0273502Y0231144D02*
X0274439Y0232394D01*
X0276314Y0232394D01*
X0276314Y0229894D01*
X0274439Y0229894D01*
X0273502Y0231144D01*
X0273533Y0231186D02*
X0276314Y0231186D01*
X0276314Y0231684D02*
X0273907Y0231684D01*
X0274281Y0232183D02*
X0276314Y0232183D01*
X0276314Y0230687D02*
X0273844Y0230687D01*
X0274218Y0230189D02*
X0276314Y0230189D01*
X0340812Y0264766D02*
X0340812Y0267266D01*
X0342687Y0267266D01*
X0343625Y0266016D01*
X0342687Y0264766D01*
X0340812Y0264766D01*
X0340812Y0265084D02*
X0342926Y0265084D01*
X0343300Y0265583D02*
X0340812Y0265583D01*
X0340812Y0266081D02*
X0343576Y0266081D01*
X0343202Y0266580D02*
X0340812Y0266580D01*
X0340812Y0267078D02*
X0342828Y0267078D01*
X0346750Y0266016D02*
X0347687Y0267266D01*
X0349562Y0267266D01*
X0349562Y0264766D01*
X0347687Y0264766D01*
X0346750Y0266016D01*
X0346799Y0266081D02*
X0349562Y0266081D01*
X0349562Y0265583D02*
X0347074Y0265583D01*
X0347448Y0265084D02*
X0349562Y0265084D01*
X0349562Y0266580D02*
X0347173Y0266580D01*
X0347547Y0267078D02*
X0349562Y0267078D01*
X0277190Y0159953D02*
X0275315Y0159953D01*
X0274378Y0158703D01*
X0275315Y0157453D01*
X0277190Y0157453D01*
X0277190Y0159953D01*
X0277190Y0159899D02*
X0275275Y0159899D01*
X0274901Y0159400D02*
X0277190Y0159400D01*
X0277190Y0158901D02*
X0274527Y0158901D01*
X0274603Y0158403D02*
X0277190Y0158403D01*
X0277190Y0157904D02*
X0274977Y0157904D01*
X0271253Y0158703D02*
X0270315Y0157453D01*
X0268440Y0157453D01*
X0268440Y0159953D01*
X0270315Y0159953D01*
X0271253Y0158703D01*
X0271104Y0158901D02*
X0268440Y0158901D01*
X0268440Y0158403D02*
X0271028Y0158403D01*
X0270654Y0157904D02*
X0268440Y0157904D01*
X0268440Y0159400D02*
X0270730Y0159400D01*
X0270356Y0159899D02*
X0268440Y0159899D01*
X0218627Y0154953D02*
X0218627Y0152453D01*
X0216752Y0152453D01*
X0215815Y0153703D01*
X0216752Y0154953D01*
X0218627Y0154953D01*
X0218627Y0154913D02*
X0216723Y0154913D01*
X0216349Y0154415D02*
X0218627Y0154415D01*
X0218627Y0153916D02*
X0215975Y0153916D01*
X0216028Y0153418D02*
X0218627Y0153418D01*
X0218627Y0152919D02*
X0216402Y0152919D01*
X0212690Y0153703D02*
X0211752Y0152453D01*
X0209877Y0152453D01*
X0209877Y0154953D01*
X0211752Y0154953D01*
X0212690Y0153703D01*
X0212530Y0153916D02*
X0209877Y0153916D01*
X0209877Y0153418D02*
X0212476Y0153418D01*
X0212102Y0152919D02*
X0209877Y0152919D01*
X0209877Y0154415D02*
X0212156Y0154415D01*
X0211782Y0154913D02*
X0209877Y0154913D01*
X0159877Y0154913D02*
X0157973Y0154913D01*
X0158002Y0154953D02*
X0157065Y0153703D01*
X0158002Y0152453D01*
X0159877Y0152453D01*
X0159877Y0154953D01*
X0158002Y0154953D01*
X0157599Y0154415D02*
X0159877Y0154415D01*
X0159877Y0153916D02*
X0157225Y0153916D01*
X0157278Y0153418D02*
X0159877Y0153418D01*
X0159877Y0152919D02*
X0157652Y0152919D01*
X0153940Y0153703D02*
X0153002Y0154953D01*
X0151127Y0154953D01*
X0151127Y0152453D01*
X0153002Y0152453D01*
X0153940Y0153703D01*
X0153780Y0153916D02*
X0151127Y0153916D01*
X0151127Y0153418D02*
X0153726Y0153418D01*
X0153352Y0152919D02*
X0151127Y0152919D01*
X0151127Y0154415D02*
X0153406Y0154415D01*
X0153032Y0154913D02*
X0151127Y0154913D01*
X0107377Y0152079D02*
X0107377Y0149579D01*
X0105502Y0149579D01*
X0104565Y0150829D01*
X0105502Y0152079D01*
X0107377Y0152079D01*
X0107377Y0151922D02*
X0105385Y0151922D01*
X0105011Y0151424D02*
X0107377Y0151424D01*
X0107377Y0150925D02*
X0104637Y0150925D01*
X0104866Y0150427D02*
X0107377Y0150427D01*
X0107377Y0149928D02*
X0105240Y0149928D01*
X0101440Y0150829D02*
X0100502Y0152079D01*
X0098627Y0152079D01*
X0098627Y0149579D01*
X0100502Y0149579D01*
X0101440Y0150829D01*
X0101367Y0150925D02*
X0098627Y0150925D01*
X0098387Y0150925D02*
X0101127Y0150925D01*
X0101127Y0150427D02*
X0098616Y0150427D01*
X0098627Y0150427D02*
X0101138Y0150427D01*
X0101127Y0149928D02*
X0098990Y0149928D01*
X0098627Y0149928D02*
X0100764Y0149928D01*
X0101127Y0149579D02*
X0101127Y0152079D01*
X0099252Y0152079D01*
X0098315Y0150829D01*
X0099252Y0149579D01*
X0101127Y0149579D01*
X0101127Y0151424D02*
X0098761Y0151424D01*
X0098627Y0151424D02*
X0100993Y0151424D01*
X0101127Y0151922D02*
X0099135Y0151922D01*
X0098627Y0151922D02*
X0100620Y0151922D01*
X0095190Y0150829D02*
X0094252Y0149579D01*
X0092377Y0149579D01*
X0092377Y0152079D01*
X0094252Y0152079D01*
X0095190Y0150829D01*
X0095117Y0150925D02*
X0092377Y0150925D01*
X0092377Y0150427D02*
X0094888Y0150427D01*
X0094514Y0149928D02*
X0092377Y0149928D01*
X0092377Y0151424D02*
X0094743Y0151424D01*
X0094370Y0151922D02*
X0092377Y0151922D01*
X0092377Y0145829D02*
X0094252Y0145829D01*
X0095190Y0144579D01*
X0094252Y0143329D01*
X0092377Y0143329D01*
X0092377Y0145829D01*
X0092377Y0145442D02*
X0094543Y0145442D01*
X0094916Y0144943D02*
X0092377Y0144943D01*
X0092377Y0144445D02*
X0095089Y0144445D01*
X0094715Y0143946D02*
X0092377Y0143946D01*
X0092377Y0143448D02*
X0094341Y0143448D01*
X0098315Y0144579D02*
X0099252Y0145829D01*
X0101127Y0145829D01*
X0101127Y0143329D01*
X0099252Y0143329D01*
X0098315Y0144579D01*
X0098415Y0144445D02*
X0101127Y0144445D01*
X0101339Y0144445D02*
X0098627Y0144445D01*
X0098627Y0144943D02*
X0101166Y0144943D01*
X0101127Y0144943D02*
X0098588Y0144943D01*
X0098627Y0145442D02*
X0100793Y0145442D01*
X0101127Y0145442D02*
X0098962Y0145442D01*
X0098627Y0145829D02*
X0100502Y0145829D01*
X0101440Y0144579D01*
X0100502Y0143329D01*
X0098627Y0143329D01*
X0098627Y0145829D01*
X0098627Y0143946D02*
X0100965Y0143946D01*
X0101127Y0143946D02*
X0098789Y0143946D01*
X0098627Y0143448D02*
X0100591Y0143448D01*
X0101127Y0143448D02*
X0099163Y0143448D01*
X0104565Y0144579D02*
X0105502Y0143329D01*
X0107377Y0143329D01*
X0107377Y0145829D01*
X0105502Y0145829D01*
X0104565Y0144579D01*
X0104665Y0144445D02*
X0107377Y0144445D01*
X0107377Y0144943D02*
X0104838Y0144943D01*
X0105212Y0145442D02*
X0107377Y0145442D01*
X0107377Y0143946D02*
X0105039Y0143946D01*
X0105413Y0143448D02*
X0107377Y0143448D01*
X0069252Y0140204D02*
X0069252Y0138329D01*
X0068002Y0137391D01*
X0066752Y0138329D01*
X0066752Y0140204D01*
X0069252Y0140204D01*
X0069252Y0139958D02*
X0066752Y0139958D01*
X0066752Y0139460D02*
X0069252Y0139460D01*
X0069252Y0138961D02*
X0066752Y0138961D01*
X0066752Y0138463D02*
X0069252Y0138463D01*
X0068766Y0137964D02*
X0067239Y0137964D01*
X0067903Y0137466D02*
X0068101Y0137466D01*
X0068002Y0134266D02*
X0069252Y0133329D01*
X0069252Y0131454D01*
X0066752Y0131454D01*
X0066752Y0133329D01*
X0068002Y0134266D01*
X0067615Y0133976D02*
X0068389Y0133976D01*
X0069054Y0133477D02*
X0066951Y0133477D01*
X0066752Y0132979D02*
X0069252Y0132979D01*
X0069252Y0132480D02*
X0066752Y0132480D01*
X0066752Y0131982D02*
X0069252Y0131982D01*
X0069252Y0131483D02*
X0066752Y0131483D01*
X0051752Y0132704D02*
X0049252Y0132704D01*
X0049252Y0134579D01*
X0050502Y0135516D01*
X0051752Y0134579D01*
X0051752Y0132704D01*
X0051752Y0132979D02*
X0049252Y0132979D01*
X0049252Y0133477D02*
X0051752Y0133477D01*
X0051752Y0133976D02*
X0049252Y0133976D01*
X0049252Y0134474D02*
X0051752Y0134474D01*
X0051227Y0134973D02*
X0049778Y0134973D01*
X0050443Y0135471D02*
X0050562Y0135471D01*
X0050502Y0138641D02*
X0049252Y0139579D01*
X0049252Y0141454D01*
X0051752Y0141454D01*
X0051752Y0139579D01*
X0050502Y0138641D01*
X0050076Y0138961D02*
X0050929Y0138961D01*
X0051593Y0139460D02*
X0049411Y0139460D01*
X0049252Y0139958D02*
X0051752Y0139958D01*
X0051752Y0140457D02*
X0049252Y0140457D01*
X0049252Y0140955D02*
X0051752Y0140955D01*
X0051752Y0141454D02*
X0049252Y0141454D01*
X0048002Y0111454D02*
X0048002Y0109579D01*
X0046752Y0108641D01*
X0045502Y0109579D01*
X0045502Y0111454D01*
X0048002Y0111454D01*
X0048002Y0111044D02*
X0045502Y0111044D01*
X0045502Y0110546D02*
X0048002Y0110546D01*
X0048002Y0110047D02*
X0045502Y0110047D01*
X0045542Y0109549D02*
X0047962Y0109549D01*
X0047298Y0109050D02*
X0046207Y0109050D01*
X0046752Y0105516D02*
X0048002Y0104579D01*
X0048002Y0102704D01*
X0045502Y0102704D01*
X0045502Y0104579D01*
X0046752Y0105516D01*
X0046147Y0105062D02*
X0047358Y0105062D01*
X0048002Y0104564D02*
X0045502Y0104564D01*
X0045502Y0104065D02*
X0048002Y0104065D01*
X0048002Y0103567D02*
X0045502Y0103567D01*
X0045502Y0103068D02*
X0048002Y0103068D01*
X0063002Y0103068D02*
X0065502Y0103068D01*
X0065502Y0102704D02*
X0063002Y0102704D01*
X0063002Y0104579D01*
X0064252Y0105516D01*
X0065502Y0104579D01*
X0065502Y0102704D01*
X0065502Y0103567D02*
X0063002Y0103567D01*
X0063002Y0104065D02*
X0065502Y0104065D01*
X0065502Y0104564D02*
X0063002Y0104564D01*
X0063647Y0105062D02*
X0064858Y0105062D01*
X0064252Y0108641D02*
X0063002Y0109579D01*
X0063002Y0111454D01*
X0065502Y0111454D01*
X0065502Y0109579D01*
X0064252Y0108641D01*
X0063707Y0109050D02*
X0064798Y0109050D01*
X0065462Y0109549D02*
X0063042Y0109549D01*
X0063002Y0110047D02*
X0065502Y0110047D01*
X0065502Y0110546D02*
X0063002Y0110546D01*
X0063002Y0111044D02*
X0065502Y0111044D01*
X0096752Y0063954D02*
X0099252Y0063954D01*
X0099252Y0062079D01*
X0098002Y0061141D01*
X0096752Y0062079D01*
X0096752Y0063954D01*
X0096752Y0063686D02*
X0099252Y0063686D01*
X0099252Y0063187D02*
X0096752Y0063187D01*
X0096752Y0062689D02*
X0099252Y0062689D01*
X0099252Y0062190D02*
X0096752Y0062190D01*
X0097268Y0061692D02*
X0098736Y0061692D01*
X0098072Y0061193D02*
X0097933Y0061193D01*
X0098002Y0058016D02*
X0099252Y0057079D01*
X0099252Y0055204D01*
X0096752Y0055204D01*
X0096752Y0057079D01*
X0098002Y0058016D01*
X0097586Y0057704D02*
X0098419Y0057704D01*
X0099084Y0057205D02*
X0096921Y0057205D01*
X0096752Y0056707D02*
X0099252Y0056707D01*
X0099252Y0056208D02*
X0096752Y0056208D01*
X0096752Y0055710D02*
X0099252Y0055710D01*
X0099252Y0055211D02*
X0096752Y0055211D01*
X0158002Y0091828D02*
X0160502Y0091828D01*
X0160502Y0093703D01*
X0159252Y0094640D01*
X0158002Y0093703D01*
X0158002Y0091828D01*
X0158002Y0092101D02*
X0160502Y0092101D01*
X0160502Y0092599D02*
X0158002Y0092599D01*
X0158002Y0093098D02*
X0160502Y0093098D01*
X0160502Y0093597D02*
X0158002Y0093597D01*
X0158525Y0094095D02*
X0159979Y0094095D01*
X0159315Y0094594D02*
X0159190Y0094594D01*
X0159252Y0097765D02*
X0158002Y0098703D01*
X0158002Y0100578D01*
X0160502Y0100578D01*
X0160502Y0098703D01*
X0159252Y0097765D01*
X0158828Y0098083D02*
X0159676Y0098083D01*
X0160341Y0098582D02*
X0158164Y0098582D01*
X0158002Y0099080D02*
X0160502Y0099080D01*
X0160502Y0099579D02*
X0158002Y0099579D01*
X0158002Y0100077D02*
X0160502Y0100077D01*
X0160502Y0100576D02*
X0158002Y0100576D01*
X0223002Y0100578D02*
X0223002Y0098703D01*
X0224252Y0097765D01*
X0225502Y0098703D01*
X0225502Y0100578D01*
X0223002Y0100578D01*
X0223002Y0100576D02*
X0225502Y0100576D01*
X0225502Y0100077D02*
X0223002Y0100077D01*
X0223002Y0099579D02*
X0225502Y0099579D01*
X0225502Y0099080D02*
X0223002Y0099080D01*
X0223164Y0098582D02*
X0225341Y0098582D01*
X0224676Y0098083D02*
X0223828Y0098083D01*
X0224252Y0094640D02*
X0225502Y0093703D01*
X0225502Y0091828D01*
X0223002Y0091828D01*
X0223002Y0093703D01*
X0224252Y0094640D01*
X0224190Y0094594D02*
X0224315Y0094594D01*
X0224979Y0094095D02*
X0223525Y0094095D01*
X0223002Y0093597D02*
X0225502Y0093597D01*
X0225502Y0093098D02*
X0223002Y0093098D01*
X0223002Y0092599D02*
X0225502Y0092599D01*
X0225502Y0092101D02*
X0223002Y0092101D01*
X0285315Y0070829D02*
X0285315Y0068954D01*
X0286565Y0068016D01*
X0287815Y0068954D01*
X0287815Y0070829D01*
X0285315Y0070829D01*
X0285315Y0070665D02*
X0287815Y0070665D01*
X0287815Y0070166D02*
X0285315Y0070166D01*
X0285315Y0069668D02*
X0287815Y0069668D01*
X0287815Y0069169D02*
X0285315Y0069169D01*
X0285692Y0068671D02*
X0287438Y0068671D01*
X0286774Y0068172D02*
X0286357Y0068172D01*
X0286565Y0064891D02*
X0287815Y0063954D01*
X0287815Y0062079D01*
X0285315Y0062079D01*
X0285315Y0063954D01*
X0286565Y0064891D01*
X0286287Y0064683D02*
X0286843Y0064683D01*
X0287508Y0064184D02*
X0285623Y0064184D01*
X0285315Y0063686D02*
X0287815Y0063686D01*
X0287815Y0063187D02*
X0285315Y0063187D01*
X0285315Y0062689D02*
X0287815Y0062689D01*
X0287815Y0062190D02*
X0285315Y0062190D01*
X0329065Y0101828D02*
X0329065Y0103703D01*
X0330315Y0104640D01*
X0331565Y0103703D01*
X0331565Y0101828D01*
X0329065Y0101828D01*
X0329065Y0102071D02*
X0331565Y0102071D01*
X0331565Y0102570D02*
X0329065Y0102570D01*
X0329065Y0103068D02*
X0331565Y0103068D01*
X0331565Y0103567D02*
X0329065Y0103567D01*
X0329549Y0104065D02*
X0331082Y0104065D01*
X0330417Y0104564D02*
X0330213Y0104564D01*
X0330315Y0107765D02*
X0329065Y0108703D01*
X0329065Y0110578D01*
X0331565Y0110578D01*
X0331565Y0108703D01*
X0330315Y0107765D01*
X0329931Y0108053D02*
X0330699Y0108053D01*
X0331364Y0108552D02*
X0329266Y0108552D01*
X0329065Y0109050D02*
X0331565Y0109050D01*
X0331565Y0109549D02*
X0329065Y0109549D01*
X0329065Y0110047D02*
X0331565Y0110047D01*
X0331565Y0110546D02*
X0329065Y0110546D01*
X0333440Y0116203D02*
X0333440Y0118703D01*
X0335315Y0118703D01*
X0336253Y0117453D01*
X0335315Y0116203D01*
X0333440Y0116203D01*
X0333440Y0116528D02*
X0335559Y0116528D01*
X0335933Y0117027D02*
X0333440Y0117027D01*
X0333440Y0117525D02*
X0336199Y0117525D01*
X0335825Y0118024D02*
X0333440Y0118024D01*
X0333440Y0118522D02*
X0335451Y0118522D01*
X0339378Y0117453D02*
X0340315Y0118703D01*
X0342190Y0118703D01*
X0342190Y0116203D01*
X0340315Y0116203D01*
X0339378Y0117453D01*
X0339432Y0117525D02*
X0342190Y0117525D01*
X0342190Y0117027D02*
X0339697Y0117027D01*
X0340071Y0116528D02*
X0342190Y0116528D01*
X0342190Y0118024D02*
X0339806Y0118024D01*
X0340180Y0118522D02*
X0342190Y0118522D01*
D12*
X0347503Y0101141D02*
X0353128Y0101141D01*
X0353128Y0098016D01*
X0350315Y0096141D01*
X0347503Y0098016D01*
X0347503Y0101141D01*
X0347503Y0100923D02*
X0353128Y0100923D01*
X0353128Y0099725D02*
X0347503Y0099725D01*
X0347503Y0098526D02*
X0353128Y0098526D01*
X0352095Y0097328D02*
X0348536Y0097328D01*
X0350315Y0090516D02*
X0347503Y0088641D01*
X0347503Y0085516D01*
X0353128Y0085516D01*
X0353128Y0088641D01*
X0350315Y0090516D01*
X0349746Y0090136D02*
X0350885Y0090136D01*
X0352683Y0088938D02*
X0347948Y0088938D01*
X0347503Y0087739D02*
X0353128Y0087739D01*
X0353128Y0086541D02*
X0347503Y0086541D01*
X0343128Y0084891D02*
X0343128Y0081766D01*
X0340315Y0079891D01*
X0337503Y0081766D01*
X0337503Y0084891D01*
X0343128Y0084891D01*
X0343128Y0084144D02*
X0337503Y0084144D01*
X0337503Y0082945D02*
X0343128Y0082945D01*
X0343099Y0081747D02*
X0337532Y0081747D01*
X0339330Y0080548D02*
X0341301Y0080548D01*
X0340315Y0074266D02*
X0337503Y0072391D01*
X0337503Y0069266D01*
X0343128Y0069266D01*
X0343128Y0072391D01*
X0340315Y0074266D01*
X0338952Y0073357D02*
X0341679Y0073357D01*
X0343128Y0072159D02*
X0337503Y0072159D01*
X0337503Y0070960D02*
X0343128Y0070960D01*
X0343128Y0069762D02*
X0337503Y0069762D01*
X0087377Y0051454D02*
X0087377Y0045204D01*
X0084877Y0045204D01*
X0083002Y0048329D01*
X0084877Y0051454D01*
X0087377Y0051454D01*
X0087377Y0050586D02*
X0084356Y0050586D01*
X0083637Y0049387D02*
X0087377Y0049387D01*
X0087377Y0048189D02*
X0083086Y0048189D01*
X0083806Y0046990D02*
X0087377Y0046990D01*
X0087377Y0045792D02*
X0084525Y0045792D01*
X0075502Y0048329D02*
X0073627Y0045204D01*
X0071127Y0045204D01*
X0071127Y0051454D01*
X0073627Y0051454D01*
X0075502Y0048329D01*
X0075418Y0048189D02*
X0071127Y0048189D01*
X0071127Y0049387D02*
X0074867Y0049387D01*
X0074148Y0050586D02*
X0071127Y0050586D01*
X0071127Y0046990D02*
X0074699Y0046990D01*
X0073980Y0045792D02*
X0071127Y0045792D01*
X0062377Y0045792D02*
X0059525Y0045792D01*
X0059877Y0045204D02*
X0058002Y0048329D01*
X0059877Y0051454D01*
X0062377Y0051454D01*
X0062377Y0045204D01*
X0059877Y0045204D01*
X0058806Y0046990D02*
X0062377Y0046990D01*
X0062377Y0048189D02*
X0058086Y0048189D01*
X0058637Y0049387D02*
X0062377Y0049387D01*
X0062377Y0050586D02*
X0059356Y0050586D01*
X0050502Y0048329D02*
X0048627Y0045204D01*
X0046127Y0045204D01*
X0046127Y0051454D01*
X0048627Y0051454D01*
X0050502Y0048329D01*
X0050418Y0048189D02*
X0046127Y0048189D01*
X0046127Y0049387D02*
X0049867Y0049387D01*
X0049148Y0050586D02*
X0046127Y0050586D01*
X0046127Y0046990D02*
X0049699Y0046990D01*
X0048980Y0045792D02*
X0046127Y0045792D01*
X0046127Y0067704D02*
X0046127Y0073954D01*
X0048627Y0073954D01*
X0050502Y0070829D01*
X0048627Y0067704D01*
X0046127Y0067704D01*
X0046127Y0068563D02*
X0049143Y0068563D01*
X0049862Y0069762D02*
X0046127Y0069762D01*
X0046127Y0070960D02*
X0050423Y0070960D01*
X0049704Y0072159D02*
X0046127Y0072159D01*
X0046127Y0073357D02*
X0048985Y0073357D01*
X0058002Y0070829D02*
X0059877Y0067704D01*
X0062377Y0067704D01*
X0062377Y0073954D01*
X0059877Y0073954D01*
X0058002Y0070829D01*
X0058081Y0070960D02*
X0062377Y0070960D01*
X0062377Y0069762D02*
X0058642Y0069762D01*
X0059362Y0068563D02*
X0062377Y0068563D01*
X0062377Y0072159D02*
X0058800Y0072159D01*
X0059519Y0073357D02*
X0062377Y0073357D01*
D13*
X0134882Y0162995D02*
X0140236Y0162995D01*
X0140236Y0160789D01*
X0134882Y0160789D01*
X0134882Y0162995D01*
X0134882Y0161733D02*
X0140236Y0161733D01*
X0140236Y0162677D02*
X0134882Y0162677D01*
X0134882Y0170789D02*
X0140236Y0170789D01*
X0134882Y0170789D02*
X0134882Y0172995D01*
X0140236Y0172995D01*
X0140236Y0170789D01*
X0140236Y0171733D02*
X0134882Y0171733D01*
X0134882Y0172677D02*
X0140236Y0172677D01*
X0148268Y0170789D02*
X0153622Y0170789D01*
X0148268Y0170789D02*
X0148268Y0172995D01*
X0153622Y0172995D01*
X0153622Y0170789D01*
X0153622Y0171733D02*
X0148268Y0171733D01*
X0148268Y0172677D02*
X0153622Y0172677D01*
X0159882Y0172995D02*
X0165236Y0172995D01*
X0165236Y0170789D01*
X0159882Y0170789D01*
X0159882Y0172995D01*
X0159882Y0171733D02*
X0165236Y0171733D01*
X0165236Y0172677D02*
X0159882Y0172677D01*
X0159882Y0160789D02*
X0165236Y0160789D01*
X0159882Y0160789D02*
X0159882Y0162995D01*
X0165236Y0162995D01*
X0165236Y0160789D01*
X0165236Y0161733D02*
X0159882Y0161733D01*
X0159882Y0162677D02*
X0165236Y0162677D01*
X0173268Y0160789D02*
X0178622Y0160789D01*
X0173268Y0160789D02*
X0173268Y0162995D01*
X0178622Y0162995D01*
X0178622Y0160789D01*
X0178622Y0161733D02*
X0173268Y0161733D01*
X0173268Y0162677D02*
X0178622Y0162677D01*
X0178622Y0172995D02*
X0173268Y0172995D01*
X0178622Y0172995D02*
X0178622Y0170789D01*
X0173268Y0170789D01*
X0173268Y0172995D01*
X0173268Y0171733D02*
X0178622Y0171733D01*
X0178622Y0172677D02*
X0173268Y0172677D01*
X0192382Y0170789D02*
X0197736Y0170789D01*
X0192382Y0170789D02*
X0192382Y0172995D01*
X0197736Y0172995D01*
X0197736Y0170789D01*
X0197736Y0171733D02*
X0192382Y0171733D01*
X0192382Y0172677D02*
X0197736Y0172677D01*
X0205768Y0170789D02*
X0211122Y0170789D01*
X0205768Y0170789D02*
X0205768Y0172995D01*
X0211122Y0172995D01*
X0211122Y0170789D01*
X0211122Y0171733D02*
X0205768Y0171733D01*
X0205768Y0172677D02*
X0211122Y0172677D01*
X0217382Y0172995D02*
X0222736Y0172995D01*
X0222736Y0170789D01*
X0217382Y0170789D01*
X0217382Y0172995D01*
X0217382Y0171733D02*
X0222736Y0171733D01*
X0222736Y0172677D02*
X0217382Y0172677D01*
X0217382Y0160789D02*
X0222736Y0160789D01*
X0217382Y0160789D02*
X0217382Y0162995D01*
X0222736Y0162995D01*
X0222736Y0160789D01*
X0222736Y0161733D02*
X0217382Y0161733D01*
X0217382Y0162677D02*
X0222736Y0162677D01*
X0230768Y0160789D02*
X0236122Y0160789D01*
X0230768Y0160789D02*
X0230768Y0162995D01*
X0236122Y0162995D01*
X0236122Y0160789D01*
X0236122Y0161733D02*
X0230768Y0161733D01*
X0230768Y0162677D02*
X0236122Y0162677D01*
X0236122Y0172995D02*
X0230768Y0172995D01*
X0236122Y0172995D02*
X0236122Y0170789D01*
X0230768Y0170789D01*
X0230768Y0172995D01*
X0230768Y0171733D02*
X0236122Y0171733D01*
X0236122Y0172677D02*
X0230768Y0172677D01*
X0211122Y0162995D02*
X0205768Y0162995D01*
X0211122Y0162995D02*
X0211122Y0160789D01*
X0205768Y0160789D01*
X0205768Y0162995D01*
X0205768Y0161733D02*
X0211122Y0161733D01*
X0211122Y0162677D02*
X0205768Y0162677D01*
X0197736Y0162995D02*
X0192382Y0162995D01*
X0197736Y0162995D02*
X0197736Y0160789D01*
X0192382Y0160789D01*
X0192382Y0162995D01*
X0192382Y0161733D02*
X0197736Y0161733D01*
X0197736Y0162677D02*
X0192382Y0162677D01*
X0153622Y0162995D02*
X0148268Y0162995D01*
X0153622Y0162995D02*
X0153622Y0160789D01*
X0148268Y0160789D01*
X0148268Y0162995D01*
X0148268Y0161733D02*
X0153622Y0161733D01*
X0153622Y0162677D02*
X0148268Y0162677D01*
X0281712Y0091134D02*
X0283918Y0091134D01*
X0283918Y0088928D01*
X0281712Y0088928D01*
X0281712Y0091134D01*
X0281712Y0089872D02*
X0283918Y0089872D01*
X0283918Y0090816D02*
X0281712Y0090816D01*
X0281712Y0085229D02*
X0283918Y0085229D01*
X0283918Y0083023D01*
X0281712Y0083023D01*
X0281712Y0085229D01*
X0281712Y0083967D02*
X0283918Y0083967D01*
X0283918Y0084911D02*
X0281712Y0084911D01*
D14*
X0330079Y0121671D02*
X0330551Y0121671D01*
X0330079Y0121671D02*
X0330079Y0134347D01*
X0330551Y0134347D01*
X0330551Y0121671D01*
X0330551Y0123560D02*
X0330079Y0123560D01*
X0330079Y0125449D02*
X0330551Y0125449D01*
X0330551Y0127338D02*
X0330079Y0127338D01*
X0330079Y0129227D02*
X0330551Y0129227D01*
X0330551Y0131116D02*
X0330079Y0131116D01*
X0330079Y0133005D02*
X0330551Y0133005D01*
X0335079Y0122458D02*
X0335551Y0122458D01*
X0335079Y0122458D02*
X0335079Y0134348D01*
X0335551Y0134348D01*
X0335551Y0122458D01*
X0335551Y0124347D02*
X0335079Y0124347D01*
X0335079Y0126236D02*
X0335551Y0126236D01*
X0335551Y0128125D02*
X0335079Y0128125D01*
X0335079Y0130014D02*
X0335551Y0130014D01*
X0335551Y0131903D02*
X0335079Y0131903D01*
X0335079Y0133792D02*
X0335551Y0133792D01*
X0340079Y0122458D02*
X0340551Y0122458D01*
X0340079Y0122458D02*
X0340079Y0134348D01*
X0340551Y0134348D01*
X0340551Y0122458D01*
X0340551Y0124347D02*
X0340079Y0124347D01*
X0340079Y0126236D02*
X0340551Y0126236D01*
X0340551Y0128125D02*
X0340079Y0128125D01*
X0340079Y0130014D02*
X0340551Y0130014D01*
X0340551Y0131903D02*
X0340079Y0131903D01*
X0340079Y0133792D02*
X0340551Y0133792D01*
X0345079Y0122458D02*
X0345551Y0122458D01*
X0345079Y0122458D02*
X0345079Y0134348D01*
X0345551Y0134348D01*
X0345551Y0122458D01*
X0345551Y0124347D02*
X0345079Y0124347D01*
X0345079Y0126236D02*
X0345551Y0126236D01*
X0345551Y0128125D02*
X0345079Y0128125D01*
X0345079Y0130014D02*
X0345551Y0130014D01*
X0345551Y0131903D02*
X0345079Y0131903D01*
X0345079Y0133792D02*
X0345551Y0133792D01*
X0345551Y0148058D02*
X0345079Y0148058D01*
X0345079Y0159948D01*
X0345551Y0159948D01*
X0345551Y0148058D01*
X0345551Y0149947D02*
X0345079Y0149947D01*
X0345079Y0151836D02*
X0345551Y0151836D01*
X0345551Y0153725D02*
X0345079Y0153725D01*
X0345079Y0155614D02*
X0345551Y0155614D01*
X0345551Y0157503D02*
X0345079Y0157503D01*
X0345079Y0159392D02*
X0345551Y0159392D01*
X0340551Y0148058D02*
X0340079Y0148058D01*
X0340079Y0159948D01*
X0340551Y0159948D01*
X0340551Y0148058D01*
X0340551Y0149947D02*
X0340079Y0149947D01*
X0340079Y0151836D02*
X0340551Y0151836D01*
X0340551Y0153725D02*
X0340079Y0153725D01*
X0340079Y0155614D02*
X0340551Y0155614D01*
X0340551Y0157503D02*
X0340079Y0157503D01*
X0340079Y0159392D02*
X0340551Y0159392D01*
X0335551Y0148058D02*
X0335079Y0148058D01*
X0335079Y0159948D01*
X0335551Y0159948D01*
X0335551Y0148058D01*
X0335551Y0149947D02*
X0335079Y0149947D01*
X0335079Y0151836D02*
X0335551Y0151836D01*
X0335551Y0153725D02*
X0335079Y0153725D01*
X0335079Y0155614D02*
X0335551Y0155614D01*
X0335551Y0157503D02*
X0335079Y0157503D01*
X0335079Y0159392D02*
X0335551Y0159392D01*
X0330551Y0148058D02*
X0330079Y0148058D01*
X0330079Y0159948D01*
X0330551Y0159948D01*
X0330551Y0148058D01*
X0330551Y0149947D02*
X0330079Y0149947D01*
X0330079Y0151836D02*
X0330551Y0151836D01*
X0330551Y0153725D02*
X0330079Y0153725D01*
X0330079Y0155614D02*
X0330551Y0155614D01*
X0330551Y0157503D02*
X0330079Y0157503D01*
X0330079Y0159392D02*
X0330551Y0159392D01*
D15*
X0345718Y0196961D02*
X0345718Y0199717D01*
X0349538Y0199717D01*
X0349538Y0196961D01*
X0345718Y0196961D01*
X0345718Y0198141D02*
X0349538Y0198141D01*
X0349538Y0199321D02*
X0345718Y0199321D01*
X0345718Y0204441D02*
X0345718Y0207197D01*
X0349538Y0207197D01*
X0349538Y0204441D01*
X0345718Y0204441D01*
X0345718Y0205621D02*
X0349538Y0205621D01*
X0349538Y0206801D02*
X0345718Y0206801D01*
X0353592Y0203457D02*
X0353592Y0200701D01*
X0353592Y0203457D02*
X0357412Y0203457D01*
X0357412Y0200701D01*
X0353592Y0200701D01*
X0353592Y0201881D02*
X0357412Y0201881D01*
X0357412Y0203061D02*
X0353592Y0203061D01*
X0257274Y0082660D02*
X0257274Y0081478D01*
X0254714Y0081478D01*
X0254714Y0082660D01*
X0257274Y0082660D01*
X0257274Y0082658D02*
X0254714Y0082658D01*
X0257274Y0078920D02*
X0257274Y0077738D01*
X0254714Y0077738D01*
X0254714Y0078920D01*
X0257274Y0078920D01*
X0257274Y0078918D02*
X0254714Y0078918D01*
X0257668Y0075180D02*
X0257668Y0073998D01*
X0254714Y0073998D01*
X0254714Y0075180D01*
X0257668Y0075180D01*
X0257668Y0075178D02*
X0254714Y0075178D01*
X0245856Y0075180D02*
X0245856Y0073998D01*
X0245856Y0075180D02*
X0248416Y0075180D01*
X0248416Y0073998D01*
X0245856Y0073998D01*
X0245856Y0075178D02*
X0248416Y0075178D01*
X0245856Y0077738D02*
X0245856Y0078920D01*
X0248416Y0078920D01*
X0248416Y0077738D01*
X0245856Y0077738D01*
X0245856Y0078918D02*
X0248416Y0078918D01*
X0245856Y0081478D02*
X0245856Y0082660D01*
X0248416Y0082660D01*
X0248416Y0081478D01*
X0245856Y0081478D01*
X0245856Y0082658D02*
X0248416Y0082658D01*
X0293356Y0067660D02*
X0293356Y0066478D01*
X0293356Y0067660D02*
X0295916Y0067660D01*
X0295916Y0066478D01*
X0293356Y0066478D01*
X0293356Y0067658D02*
X0295916Y0067658D01*
X0293356Y0063920D02*
X0293356Y0062738D01*
X0293356Y0063920D02*
X0295916Y0063920D01*
X0295916Y0062738D01*
X0293356Y0062738D01*
X0293356Y0063918D02*
X0295916Y0063918D01*
X0293356Y0060180D02*
X0293356Y0058998D01*
X0293356Y0060180D02*
X0295916Y0060180D01*
X0295916Y0058998D01*
X0293356Y0058998D01*
X0293356Y0060178D02*
X0295916Y0060178D01*
X0305168Y0060180D02*
X0305168Y0058998D01*
X0302214Y0058998D01*
X0302214Y0060180D01*
X0305168Y0060180D01*
X0305168Y0060178D02*
X0302214Y0060178D01*
X0304774Y0062738D02*
X0304774Y0063920D01*
X0304774Y0062738D02*
X0302214Y0062738D01*
X0302214Y0063920D01*
X0304774Y0063920D01*
X0304774Y0063918D02*
X0302214Y0063918D01*
X0304774Y0066478D02*
X0304774Y0067660D01*
X0304774Y0066478D02*
X0302214Y0066478D01*
X0302214Y0067660D01*
X0304774Y0067660D01*
X0304774Y0067658D02*
X0302214Y0067658D01*
X0069370Y0127325D02*
X0066614Y0127325D01*
X0069370Y0127325D02*
X0069370Y0122993D01*
X0066614Y0122993D01*
X0066614Y0127325D01*
X0066614Y0124173D02*
X0069370Y0124173D01*
X0069370Y0125353D02*
X0066614Y0125353D01*
X0066614Y0126533D02*
X0069370Y0126533D01*
X0061890Y0127325D02*
X0059134Y0127325D01*
X0061890Y0127325D02*
X0061890Y0122993D01*
X0059134Y0122993D01*
X0059134Y0127325D01*
X0059134Y0124173D02*
X0061890Y0124173D01*
X0061890Y0125353D02*
X0059134Y0125353D01*
X0059134Y0126533D02*
X0061890Y0126533D01*
X0062874Y0118664D02*
X0065630Y0118664D01*
X0065630Y0114332D01*
X0062874Y0114332D01*
X0062874Y0118664D01*
X0062874Y0115512D02*
X0065630Y0115512D01*
X0065630Y0116692D02*
X0062874Y0116692D01*
X0062874Y0117872D02*
X0065630Y0117872D01*
X0051870Y0127325D02*
X0049114Y0127325D01*
X0051870Y0127325D02*
X0051870Y0122993D01*
X0049114Y0122993D01*
X0049114Y0127325D01*
X0049114Y0124173D02*
X0051870Y0124173D01*
X0051870Y0125353D02*
X0049114Y0125353D01*
X0049114Y0126533D02*
X0051870Y0126533D01*
X0044390Y0127325D02*
X0041634Y0127325D01*
X0044390Y0127325D02*
X0044390Y0122993D01*
X0041634Y0122993D01*
X0041634Y0127325D01*
X0041634Y0124173D02*
X0044390Y0124173D01*
X0044390Y0125353D02*
X0041634Y0125353D01*
X0041634Y0126533D02*
X0044390Y0126533D01*
X0045374Y0118664D02*
X0048130Y0118664D01*
X0048130Y0114332D01*
X0045374Y0114332D01*
X0045374Y0118664D01*
X0045374Y0115512D02*
X0048130Y0115512D01*
X0048130Y0116692D02*
X0045374Y0116692D01*
X0045374Y0117872D02*
X0048130Y0117872D01*
D16*
X0313081Y0167295D02*
X0313081Y0171449D01*
X0316251Y0171449D01*
X0316251Y0167295D01*
X0313081Y0167295D01*
X0313081Y0168652D02*
X0316251Y0168652D01*
X0316251Y0170009D02*
X0313081Y0170009D01*
X0313081Y0171366D02*
X0316251Y0171366D01*
X0319380Y0171449D02*
X0319380Y0167295D01*
X0319380Y0171449D02*
X0322550Y0171449D01*
X0322550Y0167295D01*
X0319380Y0167295D01*
X0319380Y0168652D02*
X0322550Y0168652D01*
X0322550Y0170009D02*
X0319380Y0170009D01*
X0319380Y0171366D02*
X0322550Y0171366D01*
X0319380Y0175956D02*
X0319380Y0180110D01*
X0322550Y0180110D01*
X0322550Y0175956D01*
X0319380Y0175956D01*
X0319380Y0177313D02*
X0322550Y0177313D01*
X0322550Y0178670D02*
X0319380Y0178670D01*
X0319380Y0180027D02*
X0322550Y0180027D01*
X0313081Y0180110D02*
X0313081Y0175956D01*
X0313081Y0180110D02*
X0316251Y0180110D01*
X0316251Y0175956D01*
X0313081Y0175956D01*
X0313081Y0177313D02*
X0316251Y0177313D01*
X0316251Y0178670D02*
X0313081Y0178670D01*
X0313081Y0180027D02*
X0316251Y0180027D01*
D17*
X0303831Y0153730D02*
X0303453Y0153730D01*
X0303453Y0155290D01*
X0303831Y0155290D01*
X0303831Y0153730D01*
X0303831Y0154532D02*
X0303453Y0154532D01*
X0301863Y0153730D02*
X0301485Y0153730D01*
X0301485Y0155290D01*
X0301863Y0155290D01*
X0301863Y0153730D01*
X0301863Y0154532D02*
X0301485Y0154532D01*
X0299894Y0153730D02*
X0299516Y0153730D01*
X0299516Y0155290D01*
X0299894Y0155290D01*
X0299894Y0153730D01*
X0299894Y0154532D02*
X0299516Y0154532D01*
X0297926Y0153730D02*
X0297548Y0153730D01*
X0297548Y0155290D01*
X0297926Y0155290D01*
X0297926Y0153730D01*
X0297926Y0154532D02*
X0297548Y0154532D01*
X0295957Y0153730D02*
X0295579Y0153730D01*
X0295579Y0155290D01*
X0295957Y0155290D01*
X0295957Y0153730D01*
X0295957Y0154532D02*
X0295579Y0154532D01*
X0293989Y0153730D02*
X0293611Y0153730D01*
X0293611Y0155290D01*
X0293989Y0155290D01*
X0293989Y0153730D01*
X0293989Y0154532D02*
X0293611Y0154532D01*
X0292020Y0153730D02*
X0291642Y0153730D01*
X0291642Y0155290D01*
X0292020Y0155290D01*
X0292020Y0153730D01*
X0292020Y0154532D02*
X0291642Y0154532D01*
X0290052Y0153730D02*
X0289674Y0153730D01*
X0289674Y0155290D01*
X0290052Y0155290D01*
X0290052Y0153730D01*
X0290052Y0154532D02*
X0289674Y0154532D01*
X0288083Y0153730D02*
X0287705Y0153730D01*
X0287705Y0155290D01*
X0288083Y0155290D01*
X0288083Y0153730D01*
X0288083Y0154532D02*
X0287705Y0154532D01*
X0286115Y0153730D02*
X0285737Y0153730D01*
X0285737Y0155290D01*
X0286115Y0155290D01*
X0286115Y0153730D01*
X0286115Y0154532D02*
X0285737Y0154532D01*
X0284146Y0153730D02*
X0283768Y0153730D01*
X0283768Y0155290D01*
X0284146Y0155290D01*
X0284146Y0153730D01*
X0284146Y0154532D02*
X0283768Y0154532D01*
X0282178Y0153730D02*
X0281800Y0153730D01*
X0281800Y0155290D01*
X0282178Y0155290D01*
X0282178Y0153730D01*
X0282178Y0154532D02*
X0281800Y0154532D01*
X0280406Y0152337D02*
X0280406Y0151959D01*
X0278846Y0151959D01*
X0278846Y0152337D01*
X0280406Y0152337D01*
X0280406Y0150368D02*
X0280406Y0149990D01*
X0278846Y0149990D01*
X0278846Y0150368D01*
X0280406Y0150368D01*
X0280406Y0148400D02*
X0280406Y0148022D01*
X0278846Y0148022D01*
X0278846Y0148400D01*
X0280406Y0148400D01*
X0280406Y0146431D02*
X0280406Y0146053D01*
X0278846Y0146053D01*
X0278846Y0146431D01*
X0280406Y0146431D01*
X0280406Y0144463D02*
X0280406Y0144085D01*
X0278846Y0144085D01*
X0278846Y0144463D01*
X0280406Y0144463D01*
X0280406Y0142494D02*
X0280406Y0142116D01*
X0278846Y0142116D01*
X0278846Y0142494D01*
X0280406Y0142494D01*
X0280406Y0140526D02*
X0280406Y0140148D01*
X0278846Y0140148D01*
X0278846Y0140526D01*
X0280406Y0140526D01*
X0280406Y0138557D02*
X0280406Y0138179D01*
X0278846Y0138179D01*
X0278846Y0138557D01*
X0280406Y0138557D01*
X0280406Y0136589D02*
X0280406Y0136211D01*
X0278846Y0136211D01*
X0278846Y0136589D01*
X0280406Y0136589D01*
X0280406Y0134620D02*
X0280406Y0134242D01*
X0278846Y0134242D01*
X0278846Y0134620D01*
X0280406Y0134620D01*
X0280406Y0132652D02*
X0280406Y0132274D01*
X0278846Y0132274D01*
X0278846Y0132652D01*
X0280406Y0132652D01*
X0280406Y0130683D02*
X0280406Y0130305D01*
X0278846Y0130305D01*
X0278846Y0130683D01*
X0280406Y0130683D01*
X0281800Y0128912D02*
X0282178Y0128912D01*
X0282178Y0127352D01*
X0281800Y0127352D01*
X0281800Y0128912D01*
X0281800Y0128154D02*
X0282178Y0128154D01*
X0283768Y0128912D02*
X0284146Y0128912D01*
X0284146Y0127352D01*
X0283768Y0127352D01*
X0283768Y0128912D01*
X0283768Y0128154D02*
X0284146Y0128154D01*
X0285737Y0128912D02*
X0286115Y0128912D01*
X0286115Y0127352D01*
X0285737Y0127352D01*
X0285737Y0128912D01*
X0285737Y0128154D02*
X0286115Y0128154D01*
X0287705Y0128912D02*
X0288083Y0128912D01*
X0288083Y0127352D01*
X0287705Y0127352D01*
X0287705Y0128912D01*
X0287705Y0128154D02*
X0288083Y0128154D01*
X0289674Y0128912D02*
X0290052Y0128912D01*
X0290052Y0127352D01*
X0289674Y0127352D01*
X0289674Y0128912D01*
X0289674Y0128154D02*
X0290052Y0128154D01*
X0291642Y0128912D02*
X0292020Y0128912D01*
X0292020Y0127352D01*
X0291642Y0127352D01*
X0291642Y0128912D01*
X0291642Y0128154D02*
X0292020Y0128154D01*
X0293611Y0128912D02*
X0293989Y0128912D01*
X0293989Y0127352D01*
X0293611Y0127352D01*
X0293611Y0128912D01*
X0293611Y0128154D02*
X0293989Y0128154D01*
X0295579Y0128912D02*
X0295957Y0128912D01*
X0295957Y0127352D01*
X0295579Y0127352D01*
X0295579Y0128912D01*
X0295579Y0128154D02*
X0295957Y0128154D01*
X0297548Y0128912D02*
X0297926Y0128912D01*
X0297926Y0127352D01*
X0297548Y0127352D01*
X0297548Y0128912D01*
X0297548Y0128154D02*
X0297926Y0128154D01*
X0299516Y0128912D02*
X0299894Y0128912D01*
X0299894Y0127352D01*
X0299516Y0127352D01*
X0299516Y0128912D01*
X0299516Y0128154D02*
X0299894Y0128154D01*
X0301485Y0128912D02*
X0301863Y0128912D01*
X0301863Y0127352D01*
X0301485Y0127352D01*
X0301485Y0128912D01*
X0301485Y0128154D02*
X0301863Y0128154D01*
X0303453Y0128912D02*
X0303831Y0128912D01*
X0303831Y0127352D01*
X0303453Y0127352D01*
X0303453Y0128912D01*
X0303453Y0128154D02*
X0303831Y0128154D01*
X0305224Y0130305D02*
X0305224Y0130683D01*
X0306784Y0130683D01*
X0306784Y0130305D01*
X0305224Y0130305D01*
X0305224Y0132274D02*
X0305224Y0132652D01*
X0306784Y0132652D01*
X0306784Y0132274D01*
X0305224Y0132274D01*
X0305224Y0134242D02*
X0305224Y0134620D01*
X0306784Y0134620D01*
X0306784Y0134242D01*
X0305224Y0134242D01*
X0305224Y0136211D02*
X0305224Y0136589D01*
X0306784Y0136589D01*
X0306784Y0136211D01*
X0305224Y0136211D01*
X0305224Y0138179D02*
X0305224Y0138557D01*
X0306784Y0138557D01*
X0306784Y0138179D01*
X0305224Y0138179D01*
X0305224Y0140148D02*
X0305224Y0140526D01*
X0306784Y0140526D01*
X0306784Y0140148D01*
X0305224Y0140148D01*
X0305224Y0142116D02*
X0305224Y0142494D01*
X0306784Y0142494D01*
X0306784Y0142116D01*
X0305224Y0142116D01*
X0305224Y0144085D02*
X0305224Y0144463D01*
X0306784Y0144463D01*
X0306784Y0144085D01*
X0305224Y0144085D01*
X0305224Y0146053D02*
X0305224Y0146431D01*
X0306784Y0146431D01*
X0306784Y0146053D01*
X0305224Y0146053D01*
X0305224Y0148022D02*
X0305224Y0148400D01*
X0306784Y0148400D01*
X0306784Y0148022D01*
X0305224Y0148022D01*
X0305224Y0149990D02*
X0305224Y0150368D01*
X0306784Y0150368D01*
X0306784Y0149990D01*
X0305224Y0149990D01*
X0305224Y0151959D02*
X0305224Y0152337D01*
X0306784Y0152337D01*
X0306784Y0151959D01*
X0305224Y0151959D01*
X0301026Y0099295D02*
X0301026Y0096555D01*
X0300254Y0096555D01*
X0300254Y0099295D01*
X0301026Y0099295D01*
X0301026Y0097357D02*
X0300254Y0097357D01*
X0300254Y0098159D02*
X0301026Y0098159D01*
X0301026Y0098961D02*
X0300254Y0098961D01*
X0297876Y0099295D02*
X0297876Y0096555D01*
X0297104Y0096555D01*
X0297104Y0099295D01*
X0297876Y0099295D01*
X0297876Y0097357D02*
X0297104Y0097357D01*
X0297104Y0098159D02*
X0297876Y0098159D01*
X0297876Y0098961D02*
X0297104Y0098961D01*
X0297876Y0092602D02*
X0297876Y0089862D01*
X0297104Y0089862D01*
X0297104Y0092602D01*
X0297876Y0092602D01*
X0297876Y0090664D02*
X0297104Y0090664D01*
X0297104Y0091466D02*
X0297876Y0091466D01*
X0297876Y0092268D02*
X0297104Y0092268D01*
X0301026Y0092602D02*
X0301026Y0089862D01*
X0300254Y0089862D01*
X0300254Y0092602D01*
X0301026Y0092602D01*
X0301026Y0090664D02*
X0300254Y0090664D01*
X0300254Y0091466D02*
X0301026Y0091466D01*
X0301026Y0092268D02*
X0300254Y0092268D01*
X0344535Y0026855D02*
X0346095Y0026855D01*
X0344535Y0026855D02*
X0344535Y0033139D01*
X0346095Y0033139D01*
X0346095Y0026855D01*
X0346095Y0027657D02*
X0344535Y0027657D01*
X0344535Y0028459D02*
X0346095Y0028459D01*
X0346095Y0029261D02*
X0344535Y0029261D01*
X0344535Y0030063D02*
X0346095Y0030063D01*
X0346095Y0030865D02*
X0344535Y0030865D01*
X0344535Y0031667D02*
X0346095Y0031667D01*
X0346095Y0032469D02*
X0344535Y0032469D01*
D18*
X0267982Y0209367D02*
X0267982Y0212675D01*
X0273652Y0212675D01*
X0273652Y0209367D01*
X0267982Y0209367D01*
X0267982Y0210783D02*
X0273652Y0210783D01*
X0273652Y0212199D02*
X0267982Y0212199D01*
X0267982Y0222359D02*
X0267982Y0225667D01*
X0273652Y0225667D01*
X0273652Y0222359D01*
X0267982Y0222359D01*
X0267982Y0223775D02*
X0273652Y0223775D01*
X0273652Y0225191D02*
X0267982Y0225191D01*
X0151107Y0223609D02*
X0151107Y0226917D01*
X0156777Y0226917D01*
X0156777Y0223609D01*
X0151107Y0223609D01*
X0151107Y0225025D02*
X0156777Y0225025D01*
X0156777Y0226441D02*
X0151107Y0226441D01*
X0151107Y0213925D02*
X0151107Y0210617D01*
X0151107Y0213925D02*
X0156777Y0213925D01*
X0156777Y0210617D01*
X0151107Y0210617D01*
X0151107Y0212033D02*
X0156777Y0212033D01*
X0156777Y0213449D02*
X0151107Y0213449D01*
D19*
X0085945Y0072207D02*
X0083583Y0072207D01*
X0083583Y0074175D01*
X0085945Y0074175D01*
X0085945Y0072207D01*
X0085945Y0074175D02*
X0083583Y0074175D01*
X0083583Y0067483D02*
X0085945Y0067483D01*
X0083583Y0067483D02*
X0083583Y0069451D01*
X0085945Y0069451D01*
X0085945Y0067483D01*
X0085945Y0069451D02*
X0083583Y0069451D01*
X0074921Y0067483D02*
X0072559Y0067483D01*
X0072559Y0069451D01*
X0074921Y0069451D01*
X0074921Y0067483D01*
X0074921Y0069451D02*
X0072559Y0069451D01*
X0072559Y0072207D02*
X0074921Y0072207D01*
X0072559Y0072207D02*
X0072559Y0074175D01*
X0074921Y0074175D01*
X0074921Y0072207D01*
X0074921Y0074175D02*
X0072559Y0074175D01*
D20*
X0125360Y0108186D02*
X0125360Y0111936D01*
X0126610Y0111936D01*
X0126610Y0108186D01*
X0125360Y0108186D01*
X0125360Y0109435D02*
X0126610Y0109435D01*
X0126610Y0110684D02*
X0125360Y0110684D01*
X0125360Y0111933D02*
X0126610Y0111933D01*
X0130360Y0111936D02*
X0130360Y0108186D01*
X0130360Y0111936D02*
X0131610Y0111936D01*
X0131610Y0108186D01*
X0130360Y0108186D01*
X0130360Y0109435D02*
X0131610Y0109435D01*
X0131610Y0110684D02*
X0130360Y0110684D01*
X0130360Y0111933D02*
X0131610Y0111933D01*
X0135360Y0111936D02*
X0135360Y0108186D01*
X0135360Y0111936D02*
X0136610Y0111936D01*
X0136610Y0108186D01*
X0135360Y0108186D01*
X0135360Y0109435D02*
X0136610Y0109435D01*
X0136610Y0110684D02*
X0135360Y0110684D01*
X0135360Y0111933D02*
X0136610Y0111933D01*
X0140360Y0111936D02*
X0140360Y0108186D01*
X0140360Y0111936D02*
X0141610Y0111936D01*
X0141610Y0108186D01*
X0140360Y0108186D01*
X0140360Y0109435D02*
X0141610Y0109435D01*
X0141610Y0110684D02*
X0140360Y0110684D01*
X0140360Y0111933D02*
X0141610Y0111933D01*
X0145360Y0111936D02*
X0145360Y0108186D01*
X0145360Y0111936D02*
X0146610Y0111936D01*
X0146610Y0108186D01*
X0145360Y0108186D01*
X0145360Y0109435D02*
X0146610Y0109435D01*
X0146610Y0110684D02*
X0145360Y0110684D01*
X0145360Y0111933D02*
X0146610Y0111933D01*
X0150360Y0111936D02*
X0150360Y0108186D01*
X0150360Y0111936D02*
X0151610Y0111936D01*
X0151610Y0108186D01*
X0150360Y0108186D01*
X0150360Y0109435D02*
X0151610Y0109435D01*
X0151610Y0110684D02*
X0150360Y0110684D01*
X0150360Y0111933D02*
X0151610Y0111933D01*
X0155360Y0111936D02*
X0155360Y0108186D01*
X0155360Y0111936D02*
X0156610Y0111936D01*
X0156610Y0108186D01*
X0155360Y0108186D01*
X0155360Y0109435D02*
X0156610Y0109435D01*
X0156610Y0110684D02*
X0155360Y0110684D01*
X0155360Y0111933D02*
X0156610Y0111933D01*
X0160360Y0111936D02*
X0160360Y0108186D01*
X0160360Y0111936D02*
X0161610Y0111936D01*
X0161610Y0108186D01*
X0160360Y0108186D01*
X0160360Y0109435D02*
X0161610Y0109435D01*
X0161610Y0110684D02*
X0160360Y0110684D01*
X0160360Y0111933D02*
X0161610Y0111933D01*
X0182860Y0111936D02*
X0182860Y0108186D01*
X0182860Y0111936D02*
X0184110Y0111936D01*
X0184110Y0108186D01*
X0182860Y0108186D01*
X0182860Y0109435D02*
X0184110Y0109435D01*
X0184110Y0110684D02*
X0182860Y0110684D01*
X0182860Y0111933D02*
X0184110Y0111933D01*
X0187860Y0111936D02*
X0187860Y0108186D01*
X0187860Y0111936D02*
X0189110Y0111936D01*
X0189110Y0108186D01*
X0187860Y0108186D01*
X0187860Y0109435D02*
X0189110Y0109435D01*
X0189110Y0110684D02*
X0187860Y0110684D01*
X0187860Y0111933D02*
X0189110Y0111933D01*
X0192860Y0111936D02*
X0192860Y0108186D01*
X0192860Y0111936D02*
X0194110Y0111936D01*
X0194110Y0108186D01*
X0192860Y0108186D01*
X0192860Y0109435D02*
X0194110Y0109435D01*
X0194110Y0110684D02*
X0192860Y0110684D01*
X0192860Y0111933D02*
X0194110Y0111933D01*
X0197860Y0111936D02*
X0197860Y0108186D01*
X0197860Y0111936D02*
X0199110Y0111936D01*
X0199110Y0108186D01*
X0197860Y0108186D01*
X0197860Y0109435D02*
X0199110Y0109435D01*
X0199110Y0110684D02*
X0197860Y0110684D01*
X0197860Y0111933D02*
X0199110Y0111933D01*
X0202860Y0111936D02*
X0202860Y0108186D01*
X0202860Y0111936D02*
X0204110Y0111936D01*
X0204110Y0108186D01*
X0202860Y0108186D01*
X0202860Y0109435D02*
X0204110Y0109435D01*
X0204110Y0110684D02*
X0202860Y0110684D01*
X0202860Y0111933D02*
X0204110Y0111933D01*
X0207860Y0111936D02*
X0207860Y0108186D01*
X0207860Y0111936D02*
X0209110Y0111936D01*
X0209110Y0108186D01*
X0207860Y0108186D01*
X0207860Y0109435D02*
X0209110Y0109435D01*
X0209110Y0110684D02*
X0207860Y0110684D01*
X0207860Y0111933D02*
X0209110Y0111933D01*
X0212860Y0111936D02*
X0212860Y0108186D01*
X0212860Y0111936D02*
X0214110Y0111936D01*
X0214110Y0108186D01*
X0212860Y0108186D01*
X0212860Y0109435D02*
X0214110Y0109435D01*
X0214110Y0110684D02*
X0212860Y0110684D01*
X0212860Y0111933D02*
X0214110Y0111933D01*
X0217860Y0111936D02*
X0217860Y0108186D01*
X0217860Y0111936D02*
X0219110Y0111936D01*
X0219110Y0108186D01*
X0217860Y0108186D01*
X0217860Y0109435D02*
X0219110Y0109435D01*
X0219110Y0110684D02*
X0217860Y0110684D01*
X0217860Y0111933D02*
X0219110Y0111933D01*
X0217860Y0140981D02*
X0217860Y0144731D01*
X0219110Y0144731D01*
X0219110Y0140981D01*
X0217860Y0140981D01*
X0217860Y0142230D02*
X0219110Y0142230D01*
X0219110Y0143479D02*
X0217860Y0143479D01*
X0217860Y0144728D02*
X0219110Y0144728D01*
X0212860Y0144731D02*
X0212860Y0140981D01*
X0212860Y0144731D02*
X0214110Y0144731D01*
X0214110Y0140981D01*
X0212860Y0140981D01*
X0212860Y0142230D02*
X0214110Y0142230D01*
X0214110Y0143479D02*
X0212860Y0143479D01*
X0212860Y0144728D02*
X0214110Y0144728D01*
X0207860Y0144731D02*
X0207860Y0140981D01*
X0207860Y0144731D02*
X0209110Y0144731D01*
X0209110Y0140981D01*
X0207860Y0140981D01*
X0207860Y0142230D02*
X0209110Y0142230D01*
X0209110Y0143479D02*
X0207860Y0143479D01*
X0207860Y0144728D02*
X0209110Y0144728D01*
X0202860Y0144731D02*
X0202860Y0140981D01*
X0202860Y0144731D02*
X0204110Y0144731D01*
X0204110Y0140981D01*
X0202860Y0140981D01*
X0202860Y0142230D02*
X0204110Y0142230D01*
X0204110Y0143479D02*
X0202860Y0143479D01*
X0202860Y0144728D02*
X0204110Y0144728D01*
X0197860Y0144731D02*
X0197860Y0140981D01*
X0197860Y0144731D02*
X0199110Y0144731D01*
X0199110Y0140981D01*
X0197860Y0140981D01*
X0197860Y0142230D02*
X0199110Y0142230D01*
X0199110Y0143479D02*
X0197860Y0143479D01*
X0197860Y0144728D02*
X0199110Y0144728D01*
X0192860Y0144731D02*
X0192860Y0140981D01*
X0192860Y0144731D02*
X0194110Y0144731D01*
X0194110Y0140981D01*
X0192860Y0140981D01*
X0192860Y0142230D02*
X0194110Y0142230D01*
X0194110Y0143479D02*
X0192860Y0143479D01*
X0192860Y0144728D02*
X0194110Y0144728D01*
X0187860Y0144731D02*
X0187860Y0140981D01*
X0187860Y0144731D02*
X0189110Y0144731D01*
X0189110Y0140981D01*
X0187860Y0140981D01*
X0187860Y0142230D02*
X0189110Y0142230D01*
X0189110Y0143479D02*
X0187860Y0143479D01*
X0187860Y0144728D02*
X0189110Y0144728D01*
X0182860Y0144731D02*
X0182860Y0140981D01*
X0182860Y0144731D02*
X0184110Y0144731D01*
X0184110Y0140981D01*
X0182860Y0140981D01*
X0182860Y0142230D02*
X0184110Y0142230D01*
X0184110Y0143479D02*
X0182860Y0143479D01*
X0182860Y0144728D02*
X0184110Y0144728D01*
X0160360Y0144731D02*
X0160360Y0140981D01*
X0160360Y0144731D02*
X0161610Y0144731D01*
X0161610Y0140981D01*
X0160360Y0140981D01*
X0160360Y0142230D02*
X0161610Y0142230D01*
X0161610Y0143479D02*
X0160360Y0143479D01*
X0160360Y0144728D02*
X0161610Y0144728D01*
X0155360Y0144731D02*
X0155360Y0140981D01*
X0155360Y0144731D02*
X0156610Y0144731D01*
X0156610Y0140981D01*
X0155360Y0140981D01*
X0155360Y0142230D02*
X0156610Y0142230D01*
X0156610Y0143479D02*
X0155360Y0143479D01*
X0155360Y0144728D02*
X0156610Y0144728D01*
X0150360Y0144731D02*
X0150360Y0140981D01*
X0150360Y0144731D02*
X0151610Y0144731D01*
X0151610Y0140981D01*
X0150360Y0140981D01*
X0150360Y0142230D02*
X0151610Y0142230D01*
X0151610Y0143479D02*
X0150360Y0143479D01*
X0150360Y0144728D02*
X0151610Y0144728D01*
X0145360Y0144731D02*
X0145360Y0140981D01*
X0145360Y0144731D02*
X0146610Y0144731D01*
X0146610Y0140981D01*
X0145360Y0140981D01*
X0145360Y0142230D02*
X0146610Y0142230D01*
X0146610Y0143479D02*
X0145360Y0143479D01*
X0145360Y0144728D02*
X0146610Y0144728D01*
X0140360Y0144731D02*
X0140360Y0140981D01*
X0140360Y0144731D02*
X0141610Y0144731D01*
X0141610Y0140981D01*
X0140360Y0140981D01*
X0140360Y0142230D02*
X0141610Y0142230D01*
X0141610Y0143479D02*
X0140360Y0143479D01*
X0140360Y0144728D02*
X0141610Y0144728D01*
X0135360Y0144731D02*
X0135360Y0140981D01*
X0135360Y0144731D02*
X0136610Y0144731D01*
X0136610Y0140981D01*
X0135360Y0140981D01*
X0135360Y0142230D02*
X0136610Y0142230D01*
X0136610Y0143479D02*
X0135360Y0143479D01*
X0135360Y0144728D02*
X0136610Y0144728D01*
X0130360Y0144731D02*
X0130360Y0140981D01*
X0130360Y0144731D02*
X0131610Y0144731D01*
X0131610Y0140981D01*
X0130360Y0140981D01*
X0130360Y0142230D02*
X0131610Y0142230D01*
X0131610Y0143479D02*
X0130360Y0143479D01*
X0130360Y0144728D02*
X0131610Y0144728D01*
X0125360Y0144731D02*
X0125360Y0140981D01*
X0125360Y0144731D02*
X0126610Y0144731D01*
X0126610Y0140981D01*
X0125360Y0140981D01*
X0125360Y0142230D02*
X0126610Y0142230D01*
X0126610Y0143479D02*
X0125360Y0143479D01*
X0125360Y0144728D02*
X0126610Y0144728D01*
D21*
X0126486Y0239107D02*
X0127648Y0239107D01*
X0127648Y0234007D01*
X0126486Y0234007D01*
X0126486Y0239107D01*
X0126486Y0234813D02*
X0127648Y0234813D01*
X0127648Y0235619D02*
X0126486Y0235619D01*
X0126486Y0236425D02*
X0127648Y0236425D01*
X0127648Y0237231D02*
X0126486Y0237231D01*
X0126486Y0238037D02*
X0127648Y0238037D01*
X0127648Y0238843D02*
X0126486Y0238843D01*
X0124499Y0239107D02*
X0123337Y0239107D01*
X0124499Y0239107D02*
X0124499Y0234007D01*
X0123337Y0234007D01*
X0123337Y0239107D01*
X0123337Y0234813D02*
X0124499Y0234813D01*
X0124499Y0235619D02*
X0123337Y0235619D01*
X0123337Y0236425D02*
X0124499Y0236425D01*
X0124499Y0237231D02*
X0123337Y0237231D01*
X0123337Y0238037D02*
X0124499Y0238037D01*
X0124499Y0238843D02*
X0123337Y0238843D01*
X0121349Y0239107D02*
X0120187Y0239107D01*
X0121349Y0239107D02*
X0121349Y0234007D01*
X0120187Y0234007D01*
X0120187Y0239107D01*
X0120187Y0234813D02*
X0121349Y0234813D01*
X0121349Y0235619D02*
X0120187Y0235619D01*
X0120187Y0236425D02*
X0121349Y0236425D01*
X0121349Y0237231D02*
X0120187Y0237231D01*
X0120187Y0238037D02*
X0121349Y0238037D01*
X0121349Y0238843D02*
X0120187Y0238843D01*
X0118199Y0239107D02*
X0117037Y0239107D01*
X0118199Y0239107D02*
X0118199Y0234007D01*
X0117037Y0234007D01*
X0117037Y0239107D01*
X0117037Y0234813D02*
X0118199Y0234813D01*
X0118199Y0235619D02*
X0117037Y0235619D01*
X0117037Y0236425D02*
X0118199Y0236425D01*
X0118199Y0237231D02*
X0117037Y0237231D01*
X0117037Y0238037D02*
X0118199Y0238037D01*
X0118199Y0238843D02*
X0117037Y0238843D01*
X0115050Y0239107D02*
X0113888Y0239107D01*
X0115050Y0239107D02*
X0115050Y0234007D01*
X0113888Y0234007D01*
X0113888Y0239107D01*
X0113888Y0234813D02*
X0115050Y0234813D01*
X0115050Y0235619D02*
X0113888Y0235619D01*
X0113888Y0236425D02*
X0115050Y0236425D01*
X0115050Y0237231D02*
X0113888Y0237231D01*
X0113888Y0238037D02*
X0115050Y0238037D01*
X0115050Y0238843D02*
X0113888Y0238843D01*
X0111900Y0239107D02*
X0110738Y0239107D01*
X0111900Y0239107D02*
X0111900Y0234007D01*
X0110738Y0234007D01*
X0110738Y0239107D01*
X0110738Y0234813D02*
X0111900Y0234813D01*
X0111900Y0235619D02*
X0110738Y0235619D01*
X0110738Y0236425D02*
X0111900Y0236425D01*
X0111900Y0237231D02*
X0110738Y0237231D01*
X0110738Y0238037D02*
X0111900Y0238037D01*
X0111900Y0238843D02*
X0110738Y0238843D01*
X0106783Y0244225D02*
X0101683Y0244225D01*
X0106783Y0244225D02*
X0106783Y0243063D01*
X0101683Y0243063D01*
X0101683Y0244225D01*
X0101683Y0243869D02*
X0106783Y0243869D01*
X0106783Y0247374D02*
X0101683Y0247374D01*
X0106783Y0247374D02*
X0106783Y0246212D01*
X0101683Y0246212D01*
X0101683Y0247374D01*
X0101683Y0247018D02*
X0106783Y0247018D01*
X0106783Y0250524D02*
X0101683Y0250524D01*
X0106783Y0250524D02*
X0106783Y0249362D01*
X0101683Y0249362D01*
X0101683Y0250524D01*
X0101683Y0250168D02*
X0106783Y0250168D01*
X0106783Y0253674D02*
X0101683Y0253674D01*
X0106783Y0253674D02*
X0106783Y0252512D01*
X0101683Y0252512D01*
X0101683Y0253674D01*
X0101683Y0253318D02*
X0106783Y0253318D01*
X0106783Y0256823D02*
X0101683Y0256823D01*
X0106783Y0256823D02*
X0106783Y0255661D01*
X0101683Y0255661D01*
X0101683Y0256823D01*
X0101683Y0256467D02*
X0106783Y0256467D01*
X0106783Y0259973D02*
X0101683Y0259973D01*
X0106783Y0259973D02*
X0106783Y0258811D01*
X0101683Y0258811D01*
X0101683Y0259973D01*
X0101683Y0259617D02*
X0106783Y0259617D01*
X0106783Y0263122D02*
X0101683Y0263122D01*
X0106783Y0263122D02*
X0106783Y0261960D01*
X0101683Y0261960D01*
X0101683Y0263122D01*
X0101683Y0262766D02*
X0106783Y0262766D01*
X0106783Y0266272D02*
X0101683Y0266272D01*
X0106783Y0266272D02*
X0106783Y0265110D01*
X0101683Y0265110D01*
X0101683Y0266272D01*
X0101683Y0265916D02*
X0106783Y0265916D01*
X0106783Y0269422D02*
X0101683Y0269422D01*
X0106783Y0269422D02*
X0106783Y0268260D01*
X0101683Y0268260D01*
X0101683Y0269422D01*
X0101683Y0269066D02*
X0106783Y0269066D01*
X0106783Y0272571D02*
X0101683Y0272571D01*
X0106783Y0272571D02*
X0106783Y0271409D01*
X0101683Y0271409D01*
X0101683Y0272571D01*
X0101683Y0272215D02*
X0106783Y0272215D01*
X0106783Y0275721D02*
X0101683Y0275721D01*
X0106783Y0275721D02*
X0106783Y0274559D01*
X0101683Y0274559D01*
X0101683Y0275721D01*
X0101683Y0275365D02*
X0106783Y0275365D01*
X0110738Y0284776D02*
X0111900Y0284776D01*
X0111900Y0279676D01*
X0110738Y0279676D01*
X0110738Y0284776D01*
X0110738Y0280482D02*
X0111900Y0280482D01*
X0111900Y0281288D02*
X0110738Y0281288D01*
X0110738Y0282094D02*
X0111900Y0282094D01*
X0111900Y0282900D02*
X0110738Y0282900D01*
X0110738Y0283706D02*
X0111900Y0283706D01*
X0111900Y0284512D02*
X0110738Y0284512D01*
X0113888Y0284776D02*
X0115050Y0284776D01*
X0115050Y0279676D01*
X0113888Y0279676D01*
X0113888Y0284776D01*
X0113888Y0280482D02*
X0115050Y0280482D01*
X0115050Y0281288D02*
X0113888Y0281288D01*
X0113888Y0282094D02*
X0115050Y0282094D01*
X0115050Y0282900D02*
X0113888Y0282900D01*
X0113888Y0283706D02*
X0115050Y0283706D01*
X0115050Y0284512D02*
X0113888Y0284512D01*
X0117037Y0284776D02*
X0118199Y0284776D01*
X0118199Y0279676D01*
X0117037Y0279676D01*
X0117037Y0284776D01*
X0117037Y0280482D02*
X0118199Y0280482D01*
X0118199Y0281288D02*
X0117037Y0281288D01*
X0117037Y0282094D02*
X0118199Y0282094D01*
X0118199Y0282900D02*
X0117037Y0282900D01*
X0117037Y0283706D02*
X0118199Y0283706D01*
X0118199Y0284512D02*
X0117037Y0284512D01*
X0120187Y0284776D02*
X0121349Y0284776D01*
X0121349Y0279676D01*
X0120187Y0279676D01*
X0120187Y0284776D01*
X0120187Y0280482D02*
X0121349Y0280482D01*
X0121349Y0281288D02*
X0120187Y0281288D01*
X0120187Y0282094D02*
X0121349Y0282094D01*
X0121349Y0282900D02*
X0120187Y0282900D01*
X0120187Y0283706D02*
X0121349Y0283706D01*
X0121349Y0284512D02*
X0120187Y0284512D01*
X0123337Y0284776D02*
X0124499Y0284776D01*
X0124499Y0279676D01*
X0123337Y0279676D01*
X0123337Y0284776D01*
X0123337Y0280482D02*
X0124499Y0280482D01*
X0124499Y0281288D02*
X0123337Y0281288D01*
X0123337Y0282094D02*
X0124499Y0282094D01*
X0124499Y0282900D02*
X0123337Y0282900D01*
X0123337Y0283706D02*
X0124499Y0283706D01*
X0124499Y0284512D02*
X0123337Y0284512D01*
X0126486Y0284776D02*
X0127648Y0284776D01*
X0127648Y0279676D01*
X0126486Y0279676D01*
X0126486Y0284776D01*
X0126486Y0280482D02*
X0127648Y0280482D01*
X0127648Y0281288D02*
X0126486Y0281288D01*
X0126486Y0282094D02*
X0127648Y0282094D01*
X0127648Y0282900D02*
X0126486Y0282900D01*
X0126486Y0283706D02*
X0127648Y0283706D01*
X0127648Y0284512D02*
X0126486Y0284512D01*
X0129636Y0284776D02*
X0130798Y0284776D01*
X0130798Y0279676D01*
X0129636Y0279676D01*
X0129636Y0284776D01*
X0129636Y0280482D02*
X0130798Y0280482D01*
X0130798Y0281288D02*
X0129636Y0281288D01*
X0129636Y0282094D02*
X0130798Y0282094D01*
X0130798Y0282900D02*
X0129636Y0282900D01*
X0129636Y0283706D02*
X0130798Y0283706D01*
X0130798Y0284512D02*
X0129636Y0284512D01*
X0132785Y0284776D02*
X0133947Y0284776D01*
X0133947Y0279676D01*
X0132785Y0279676D01*
X0132785Y0284776D01*
X0132785Y0280482D02*
X0133947Y0280482D01*
X0133947Y0281288D02*
X0132785Y0281288D01*
X0132785Y0282094D02*
X0133947Y0282094D01*
X0133947Y0282900D02*
X0132785Y0282900D01*
X0132785Y0283706D02*
X0133947Y0283706D01*
X0133947Y0284512D02*
X0132785Y0284512D01*
X0135935Y0284776D02*
X0137097Y0284776D01*
X0137097Y0279676D01*
X0135935Y0279676D01*
X0135935Y0284776D01*
X0135935Y0280482D02*
X0137097Y0280482D01*
X0137097Y0281288D02*
X0135935Y0281288D01*
X0135935Y0282094D02*
X0137097Y0282094D01*
X0137097Y0282900D02*
X0135935Y0282900D01*
X0135935Y0283706D02*
X0137097Y0283706D01*
X0137097Y0284512D02*
X0135935Y0284512D01*
X0139085Y0284776D02*
X0140247Y0284776D01*
X0140247Y0279676D01*
X0139085Y0279676D01*
X0139085Y0284776D01*
X0139085Y0280482D02*
X0140247Y0280482D01*
X0140247Y0281288D02*
X0139085Y0281288D01*
X0139085Y0282094D02*
X0140247Y0282094D01*
X0140247Y0282900D02*
X0139085Y0282900D01*
X0139085Y0283706D02*
X0140247Y0283706D01*
X0140247Y0284512D02*
X0139085Y0284512D01*
X0142234Y0284776D02*
X0143396Y0284776D01*
X0143396Y0279676D01*
X0142234Y0279676D01*
X0142234Y0284776D01*
X0142234Y0280482D02*
X0143396Y0280482D01*
X0143396Y0281288D02*
X0142234Y0281288D01*
X0142234Y0282094D02*
X0143396Y0282094D01*
X0143396Y0282900D02*
X0142234Y0282900D01*
X0142234Y0283706D02*
X0143396Y0283706D01*
X0143396Y0284512D02*
X0142234Y0284512D01*
X0147352Y0275721D02*
X0152452Y0275721D01*
X0152452Y0274559D01*
X0147352Y0274559D01*
X0147352Y0275721D01*
X0147352Y0275365D02*
X0152452Y0275365D01*
X0152452Y0272571D02*
X0147352Y0272571D01*
X0152452Y0272571D02*
X0152452Y0271409D01*
X0147352Y0271409D01*
X0147352Y0272571D01*
X0147352Y0272215D02*
X0152452Y0272215D01*
X0152452Y0269422D02*
X0147352Y0269422D01*
X0152452Y0269422D02*
X0152452Y0268260D01*
X0147352Y0268260D01*
X0147352Y0269422D01*
X0147352Y0269066D02*
X0152452Y0269066D01*
X0152452Y0266272D02*
X0147352Y0266272D01*
X0152452Y0266272D02*
X0152452Y0265110D01*
X0147352Y0265110D01*
X0147352Y0266272D01*
X0147352Y0265916D02*
X0152452Y0265916D01*
X0152452Y0263122D02*
X0147352Y0263122D01*
X0152452Y0263122D02*
X0152452Y0261960D01*
X0147352Y0261960D01*
X0147352Y0263122D01*
X0147352Y0262766D02*
X0152452Y0262766D01*
X0152452Y0259973D02*
X0147352Y0259973D01*
X0152452Y0259973D02*
X0152452Y0258811D01*
X0147352Y0258811D01*
X0147352Y0259973D01*
X0147352Y0259617D02*
X0152452Y0259617D01*
X0152452Y0256823D02*
X0147352Y0256823D01*
X0152452Y0256823D02*
X0152452Y0255661D01*
X0147352Y0255661D01*
X0147352Y0256823D01*
X0147352Y0256467D02*
X0152452Y0256467D01*
X0152452Y0253674D02*
X0147352Y0253674D01*
X0152452Y0253674D02*
X0152452Y0252512D01*
X0147352Y0252512D01*
X0147352Y0253674D01*
X0147352Y0253318D02*
X0152452Y0253318D01*
X0152452Y0250524D02*
X0147352Y0250524D01*
X0152452Y0250524D02*
X0152452Y0249362D01*
X0147352Y0249362D01*
X0147352Y0250524D01*
X0147352Y0250168D02*
X0152452Y0250168D01*
X0152452Y0247374D02*
X0147352Y0247374D01*
X0152452Y0247374D02*
X0152452Y0246212D01*
X0147352Y0246212D01*
X0147352Y0247374D01*
X0147352Y0247018D02*
X0152452Y0247018D01*
X0152452Y0244225D02*
X0147352Y0244225D01*
X0152452Y0244225D02*
X0152452Y0243063D01*
X0147352Y0243063D01*
X0147352Y0244225D01*
X0147352Y0243869D02*
X0152452Y0243869D01*
X0143396Y0239107D02*
X0142234Y0239107D01*
X0143396Y0239107D02*
X0143396Y0234007D01*
X0142234Y0234007D01*
X0142234Y0239107D01*
X0142234Y0234813D02*
X0143396Y0234813D01*
X0143396Y0235619D02*
X0142234Y0235619D01*
X0142234Y0236425D02*
X0143396Y0236425D01*
X0143396Y0237231D02*
X0142234Y0237231D01*
X0142234Y0238037D02*
X0143396Y0238037D01*
X0143396Y0238843D02*
X0142234Y0238843D01*
X0140247Y0239107D02*
X0139085Y0239107D01*
X0140247Y0239107D02*
X0140247Y0234007D01*
X0139085Y0234007D01*
X0139085Y0239107D01*
X0139085Y0234813D02*
X0140247Y0234813D01*
X0140247Y0235619D02*
X0139085Y0235619D01*
X0139085Y0236425D02*
X0140247Y0236425D01*
X0140247Y0237231D02*
X0139085Y0237231D01*
X0139085Y0238037D02*
X0140247Y0238037D01*
X0140247Y0238843D02*
X0139085Y0238843D01*
X0137097Y0239107D02*
X0135935Y0239107D01*
X0137097Y0239107D02*
X0137097Y0234007D01*
X0135935Y0234007D01*
X0135935Y0239107D01*
X0135935Y0234813D02*
X0137097Y0234813D01*
X0137097Y0235619D02*
X0135935Y0235619D01*
X0135935Y0236425D02*
X0137097Y0236425D01*
X0137097Y0237231D02*
X0135935Y0237231D01*
X0135935Y0238037D02*
X0137097Y0238037D01*
X0137097Y0238843D02*
X0135935Y0238843D01*
X0133947Y0239107D02*
X0132785Y0239107D01*
X0133947Y0239107D02*
X0133947Y0234007D01*
X0132785Y0234007D01*
X0132785Y0239107D01*
X0132785Y0234813D02*
X0133947Y0234813D01*
X0133947Y0235619D02*
X0132785Y0235619D01*
X0132785Y0236425D02*
X0133947Y0236425D01*
X0133947Y0237231D02*
X0132785Y0237231D01*
X0132785Y0238037D02*
X0133947Y0238037D01*
X0133947Y0238843D02*
X0132785Y0238843D01*
X0130798Y0239107D02*
X0129636Y0239107D01*
X0130798Y0239107D02*
X0130798Y0234007D01*
X0129636Y0234007D01*
X0129636Y0239107D01*
X0129636Y0234813D02*
X0130798Y0234813D01*
X0130798Y0235619D02*
X0129636Y0235619D01*
X0129636Y0236425D02*
X0130798Y0236425D01*
X0130798Y0237231D02*
X0129636Y0237231D01*
X0129636Y0238037D02*
X0130798Y0238037D01*
X0130798Y0238843D02*
X0129636Y0238843D01*
X0216683Y0244225D02*
X0221783Y0244225D01*
X0221783Y0243063D01*
X0216683Y0243063D01*
X0216683Y0244225D01*
X0216683Y0243869D02*
X0221783Y0243869D01*
X0221783Y0247374D02*
X0216683Y0247374D01*
X0221783Y0247374D02*
X0221783Y0246212D01*
X0216683Y0246212D01*
X0216683Y0247374D01*
X0216683Y0247018D02*
X0221783Y0247018D01*
X0221783Y0250524D02*
X0216683Y0250524D01*
X0221783Y0250524D02*
X0221783Y0249362D01*
X0216683Y0249362D01*
X0216683Y0250524D01*
X0216683Y0250168D02*
X0221783Y0250168D01*
X0221783Y0253674D02*
X0216683Y0253674D01*
X0221783Y0253674D02*
X0221783Y0252512D01*
X0216683Y0252512D01*
X0216683Y0253674D01*
X0216683Y0253318D02*
X0221783Y0253318D01*
X0221783Y0256823D02*
X0216683Y0256823D01*
X0221783Y0256823D02*
X0221783Y0255661D01*
X0216683Y0255661D01*
X0216683Y0256823D01*
X0216683Y0256467D02*
X0221783Y0256467D01*
X0221783Y0259973D02*
X0216683Y0259973D01*
X0221783Y0259973D02*
X0221783Y0258811D01*
X0216683Y0258811D01*
X0216683Y0259973D01*
X0216683Y0259617D02*
X0221783Y0259617D01*
X0221783Y0263122D02*
X0216683Y0263122D01*
X0221783Y0263122D02*
X0221783Y0261960D01*
X0216683Y0261960D01*
X0216683Y0263122D01*
X0216683Y0262766D02*
X0221783Y0262766D01*
X0221783Y0266272D02*
X0216683Y0266272D01*
X0221783Y0266272D02*
X0221783Y0265110D01*
X0216683Y0265110D01*
X0216683Y0266272D01*
X0216683Y0265916D02*
X0221783Y0265916D01*
X0221783Y0269422D02*
X0216683Y0269422D01*
X0221783Y0269422D02*
X0221783Y0268260D01*
X0216683Y0268260D01*
X0216683Y0269422D01*
X0216683Y0269066D02*
X0221783Y0269066D01*
X0221783Y0272571D02*
X0216683Y0272571D01*
X0221783Y0272571D02*
X0221783Y0271409D01*
X0216683Y0271409D01*
X0216683Y0272571D01*
X0216683Y0272215D02*
X0221783Y0272215D01*
X0221783Y0275721D02*
X0216683Y0275721D01*
X0221783Y0275721D02*
X0221783Y0274559D01*
X0216683Y0274559D01*
X0216683Y0275721D01*
X0216683Y0275365D02*
X0221783Y0275365D01*
X0225738Y0284776D02*
X0226900Y0284776D01*
X0226900Y0279676D01*
X0225738Y0279676D01*
X0225738Y0284776D01*
X0225738Y0280482D02*
X0226900Y0280482D01*
X0226900Y0281288D02*
X0225738Y0281288D01*
X0225738Y0282094D02*
X0226900Y0282094D01*
X0226900Y0282900D02*
X0225738Y0282900D01*
X0225738Y0283706D02*
X0226900Y0283706D01*
X0226900Y0284512D02*
X0225738Y0284512D01*
X0228888Y0284776D02*
X0230050Y0284776D01*
X0230050Y0279676D01*
X0228888Y0279676D01*
X0228888Y0284776D01*
X0228888Y0280482D02*
X0230050Y0280482D01*
X0230050Y0281288D02*
X0228888Y0281288D01*
X0228888Y0282094D02*
X0230050Y0282094D01*
X0230050Y0282900D02*
X0228888Y0282900D01*
X0228888Y0283706D02*
X0230050Y0283706D01*
X0230050Y0284512D02*
X0228888Y0284512D01*
X0232037Y0284776D02*
X0233199Y0284776D01*
X0233199Y0279676D01*
X0232037Y0279676D01*
X0232037Y0284776D01*
X0232037Y0280482D02*
X0233199Y0280482D01*
X0233199Y0281288D02*
X0232037Y0281288D01*
X0232037Y0282094D02*
X0233199Y0282094D01*
X0233199Y0282900D02*
X0232037Y0282900D01*
X0232037Y0283706D02*
X0233199Y0283706D01*
X0233199Y0284512D02*
X0232037Y0284512D01*
X0235187Y0284776D02*
X0236349Y0284776D01*
X0236349Y0279676D01*
X0235187Y0279676D01*
X0235187Y0284776D01*
X0235187Y0280482D02*
X0236349Y0280482D01*
X0236349Y0281288D02*
X0235187Y0281288D01*
X0235187Y0282094D02*
X0236349Y0282094D01*
X0236349Y0282900D02*
X0235187Y0282900D01*
X0235187Y0283706D02*
X0236349Y0283706D01*
X0236349Y0284512D02*
X0235187Y0284512D01*
X0238337Y0284776D02*
X0239499Y0284776D01*
X0239499Y0279676D01*
X0238337Y0279676D01*
X0238337Y0284776D01*
X0238337Y0280482D02*
X0239499Y0280482D01*
X0239499Y0281288D02*
X0238337Y0281288D01*
X0238337Y0282094D02*
X0239499Y0282094D01*
X0239499Y0282900D02*
X0238337Y0282900D01*
X0238337Y0283706D02*
X0239499Y0283706D01*
X0239499Y0284512D02*
X0238337Y0284512D01*
X0241486Y0284776D02*
X0242648Y0284776D01*
X0242648Y0279676D01*
X0241486Y0279676D01*
X0241486Y0284776D01*
X0241486Y0280482D02*
X0242648Y0280482D01*
X0242648Y0281288D02*
X0241486Y0281288D01*
X0241486Y0282094D02*
X0242648Y0282094D01*
X0242648Y0282900D02*
X0241486Y0282900D01*
X0241486Y0283706D02*
X0242648Y0283706D01*
X0242648Y0284512D02*
X0241486Y0284512D01*
X0244636Y0284776D02*
X0245798Y0284776D01*
X0245798Y0279676D01*
X0244636Y0279676D01*
X0244636Y0284776D01*
X0244636Y0280482D02*
X0245798Y0280482D01*
X0245798Y0281288D02*
X0244636Y0281288D01*
X0244636Y0282094D02*
X0245798Y0282094D01*
X0245798Y0282900D02*
X0244636Y0282900D01*
X0244636Y0283706D02*
X0245798Y0283706D01*
X0245798Y0284512D02*
X0244636Y0284512D01*
X0247785Y0284776D02*
X0248947Y0284776D01*
X0248947Y0279676D01*
X0247785Y0279676D01*
X0247785Y0284776D01*
X0247785Y0280482D02*
X0248947Y0280482D01*
X0248947Y0281288D02*
X0247785Y0281288D01*
X0247785Y0282094D02*
X0248947Y0282094D01*
X0248947Y0282900D02*
X0247785Y0282900D01*
X0247785Y0283706D02*
X0248947Y0283706D01*
X0248947Y0284512D02*
X0247785Y0284512D01*
X0250935Y0284776D02*
X0252097Y0284776D01*
X0252097Y0279676D01*
X0250935Y0279676D01*
X0250935Y0284776D01*
X0250935Y0280482D02*
X0252097Y0280482D01*
X0252097Y0281288D02*
X0250935Y0281288D01*
X0250935Y0282094D02*
X0252097Y0282094D01*
X0252097Y0282900D02*
X0250935Y0282900D01*
X0250935Y0283706D02*
X0252097Y0283706D01*
X0252097Y0284512D02*
X0250935Y0284512D01*
X0254085Y0284776D02*
X0255247Y0284776D01*
X0255247Y0279676D01*
X0254085Y0279676D01*
X0254085Y0284776D01*
X0254085Y0280482D02*
X0255247Y0280482D01*
X0255247Y0281288D02*
X0254085Y0281288D01*
X0254085Y0282094D02*
X0255247Y0282094D01*
X0255247Y0282900D02*
X0254085Y0282900D01*
X0254085Y0283706D02*
X0255247Y0283706D01*
X0255247Y0284512D02*
X0254085Y0284512D01*
X0257234Y0284776D02*
X0258396Y0284776D01*
X0258396Y0279676D01*
X0257234Y0279676D01*
X0257234Y0284776D01*
X0257234Y0280482D02*
X0258396Y0280482D01*
X0258396Y0281288D02*
X0257234Y0281288D01*
X0257234Y0282094D02*
X0258396Y0282094D01*
X0258396Y0282900D02*
X0257234Y0282900D01*
X0257234Y0283706D02*
X0258396Y0283706D01*
X0258396Y0284512D02*
X0257234Y0284512D01*
X0262352Y0275721D02*
X0267452Y0275721D01*
X0267452Y0274559D01*
X0262352Y0274559D01*
X0262352Y0275721D01*
X0262352Y0275365D02*
X0267452Y0275365D01*
X0267452Y0272571D02*
X0262352Y0272571D01*
X0267452Y0272571D02*
X0267452Y0271409D01*
X0262352Y0271409D01*
X0262352Y0272571D01*
X0262352Y0272215D02*
X0267452Y0272215D01*
X0267452Y0269422D02*
X0262352Y0269422D01*
X0267452Y0269422D02*
X0267452Y0268260D01*
X0262352Y0268260D01*
X0262352Y0269422D01*
X0262352Y0269066D02*
X0267452Y0269066D01*
X0267452Y0266272D02*
X0262352Y0266272D01*
X0267452Y0266272D02*
X0267452Y0265110D01*
X0262352Y0265110D01*
X0262352Y0266272D01*
X0262352Y0265916D02*
X0267452Y0265916D01*
X0267452Y0263122D02*
X0262352Y0263122D01*
X0267452Y0263122D02*
X0267452Y0261960D01*
X0262352Y0261960D01*
X0262352Y0263122D01*
X0262352Y0262766D02*
X0267452Y0262766D01*
X0267452Y0259973D02*
X0262352Y0259973D01*
X0267452Y0259973D02*
X0267452Y0258811D01*
X0262352Y0258811D01*
X0262352Y0259973D01*
X0262352Y0259617D02*
X0267452Y0259617D01*
X0267452Y0256823D02*
X0262352Y0256823D01*
X0267452Y0256823D02*
X0267452Y0255661D01*
X0262352Y0255661D01*
X0262352Y0256823D01*
X0262352Y0256467D02*
X0267452Y0256467D01*
X0267452Y0253674D02*
X0262352Y0253674D01*
X0267452Y0253674D02*
X0267452Y0252512D01*
X0262352Y0252512D01*
X0262352Y0253674D01*
X0262352Y0253318D02*
X0267452Y0253318D01*
X0267452Y0250524D02*
X0262352Y0250524D01*
X0267452Y0250524D02*
X0267452Y0249362D01*
X0262352Y0249362D01*
X0262352Y0250524D01*
X0262352Y0250168D02*
X0267452Y0250168D01*
X0267452Y0247374D02*
X0262352Y0247374D01*
X0267452Y0247374D02*
X0267452Y0246212D01*
X0262352Y0246212D01*
X0262352Y0247374D01*
X0262352Y0247018D02*
X0267452Y0247018D01*
X0267452Y0244225D02*
X0262352Y0244225D01*
X0267452Y0244225D02*
X0267452Y0243063D01*
X0262352Y0243063D01*
X0262352Y0244225D01*
X0262352Y0243869D02*
X0267452Y0243869D01*
X0258396Y0239107D02*
X0257234Y0239107D01*
X0258396Y0239107D02*
X0258396Y0234007D01*
X0257234Y0234007D01*
X0257234Y0239107D01*
X0257234Y0234813D02*
X0258396Y0234813D01*
X0258396Y0235619D02*
X0257234Y0235619D01*
X0257234Y0236425D02*
X0258396Y0236425D01*
X0258396Y0237231D02*
X0257234Y0237231D01*
X0257234Y0238037D02*
X0258396Y0238037D01*
X0258396Y0238843D02*
X0257234Y0238843D01*
X0255247Y0239107D02*
X0254085Y0239107D01*
X0255247Y0239107D02*
X0255247Y0234007D01*
X0254085Y0234007D01*
X0254085Y0239107D01*
X0254085Y0234813D02*
X0255247Y0234813D01*
X0255247Y0235619D02*
X0254085Y0235619D01*
X0254085Y0236425D02*
X0255247Y0236425D01*
X0255247Y0237231D02*
X0254085Y0237231D01*
X0254085Y0238037D02*
X0255247Y0238037D01*
X0255247Y0238843D02*
X0254085Y0238843D01*
X0252097Y0239107D02*
X0250935Y0239107D01*
X0252097Y0239107D02*
X0252097Y0234007D01*
X0250935Y0234007D01*
X0250935Y0239107D01*
X0250935Y0234813D02*
X0252097Y0234813D01*
X0252097Y0235619D02*
X0250935Y0235619D01*
X0250935Y0236425D02*
X0252097Y0236425D01*
X0252097Y0237231D02*
X0250935Y0237231D01*
X0250935Y0238037D02*
X0252097Y0238037D01*
X0252097Y0238843D02*
X0250935Y0238843D01*
X0248947Y0239107D02*
X0247785Y0239107D01*
X0248947Y0239107D02*
X0248947Y0234007D01*
X0247785Y0234007D01*
X0247785Y0239107D01*
X0247785Y0234813D02*
X0248947Y0234813D01*
X0248947Y0235619D02*
X0247785Y0235619D01*
X0247785Y0236425D02*
X0248947Y0236425D01*
X0248947Y0237231D02*
X0247785Y0237231D01*
X0247785Y0238037D02*
X0248947Y0238037D01*
X0248947Y0238843D02*
X0247785Y0238843D01*
X0245798Y0239107D02*
X0244636Y0239107D01*
X0245798Y0239107D02*
X0245798Y0234007D01*
X0244636Y0234007D01*
X0244636Y0239107D01*
X0244636Y0234813D02*
X0245798Y0234813D01*
X0245798Y0235619D02*
X0244636Y0235619D01*
X0244636Y0236425D02*
X0245798Y0236425D01*
X0245798Y0237231D02*
X0244636Y0237231D01*
X0244636Y0238037D02*
X0245798Y0238037D01*
X0245798Y0238843D02*
X0244636Y0238843D01*
X0242648Y0239107D02*
X0241486Y0239107D01*
X0242648Y0239107D02*
X0242648Y0234007D01*
X0241486Y0234007D01*
X0241486Y0239107D01*
X0241486Y0234813D02*
X0242648Y0234813D01*
X0242648Y0235619D02*
X0241486Y0235619D01*
X0241486Y0236425D02*
X0242648Y0236425D01*
X0242648Y0237231D02*
X0241486Y0237231D01*
X0241486Y0238037D02*
X0242648Y0238037D01*
X0242648Y0238843D02*
X0241486Y0238843D01*
X0239499Y0239107D02*
X0238337Y0239107D01*
X0239499Y0239107D02*
X0239499Y0234007D01*
X0238337Y0234007D01*
X0238337Y0239107D01*
X0238337Y0234813D02*
X0239499Y0234813D01*
X0239499Y0235619D02*
X0238337Y0235619D01*
X0238337Y0236425D02*
X0239499Y0236425D01*
X0239499Y0237231D02*
X0238337Y0237231D01*
X0238337Y0238037D02*
X0239499Y0238037D01*
X0239499Y0238843D02*
X0238337Y0238843D01*
X0236349Y0239107D02*
X0235187Y0239107D01*
X0236349Y0239107D02*
X0236349Y0234007D01*
X0235187Y0234007D01*
X0235187Y0239107D01*
X0235187Y0234813D02*
X0236349Y0234813D01*
X0236349Y0235619D02*
X0235187Y0235619D01*
X0235187Y0236425D02*
X0236349Y0236425D01*
X0236349Y0237231D02*
X0235187Y0237231D01*
X0235187Y0238037D02*
X0236349Y0238037D01*
X0236349Y0238843D02*
X0235187Y0238843D01*
X0233199Y0239107D02*
X0232037Y0239107D01*
X0233199Y0239107D02*
X0233199Y0234007D01*
X0232037Y0234007D01*
X0232037Y0239107D01*
X0232037Y0234813D02*
X0233199Y0234813D01*
X0233199Y0235619D02*
X0232037Y0235619D01*
X0232037Y0236425D02*
X0233199Y0236425D01*
X0233199Y0237231D02*
X0232037Y0237231D01*
X0232037Y0238037D02*
X0233199Y0238037D01*
X0233199Y0238843D02*
X0232037Y0238843D01*
X0230050Y0239107D02*
X0228888Y0239107D01*
X0230050Y0239107D02*
X0230050Y0234007D01*
X0228888Y0234007D01*
X0228888Y0239107D01*
X0228888Y0234813D02*
X0230050Y0234813D01*
X0230050Y0235619D02*
X0228888Y0235619D01*
X0228888Y0236425D02*
X0230050Y0236425D01*
X0230050Y0237231D02*
X0228888Y0237231D01*
X0228888Y0238037D02*
X0230050Y0238037D01*
X0230050Y0238843D02*
X0228888Y0238843D01*
X0226900Y0239107D02*
X0225738Y0239107D01*
X0226900Y0239107D02*
X0226900Y0234007D01*
X0225738Y0234007D01*
X0225738Y0239107D01*
X0225738Y0234813D02*
X0226900Y0234813D01*
X0226900Y0235619D02*
X0225738Y0235619D01*
X0225738Y0236425D02*
X0226900Y0236425D01*
X0226900Y0237231D02*
X0225738Y0237231D01*
X0225738Y0238037D02*
X0226900Y0238037D01*
X0226900Y0238843D02*
X0225738Y0238843D01*
X0294597Y0046971D02*
X0294597Y0039903D01*
X0293435Y0039903D01*
X0293435Y0046971D01*
X0294597Y0046971D01*
X0294597Y0040709D02*
X0293435Y0040709D01*
X0293435Y0041515D02*
X0294597Y0041515D01*
X0294597Y0042321D02*
X0293435Y0042321D01*
X0293435Y0043127D02*
X0294597Y0043127D01*
X0294597Y0043933D02*
X0293435Y0043933D01*
X0293435Y0044739D02*
X0294597Y0044739D01*
X0294597Y0045545D02*
X0293435Y0045545D01*
X0293435Y0046351D02*
X0294597Y0046351D01*
X0297747Y0046971D02*
X0297747Y0039903D01*
X0296585Y0039903D01*
X0296585Y0046971D01*
X0297747Y0046971D01*
X0297747Y0040709D02*
X0296585Y0040709D01*
X0296585Y0041515D02*
X0297747Y0041515D01*
X0297747Y0042321D02*
X0296585Y0042321D01*
X0296585Y0043127D02*
X0297747Y0043127D01*
X0297747Y0043933D02*
X0296585Y0043933D01*
X0296585Y0044739D02*
X0297747Y0044739D01*
X0297747Y0045545D02*
X0296585Y0045545D01*
X0296585Y0046351D02*
X0297747Y0046351D01*
X0300896Y0046971D02*
X0300896Y0039903D01*
X0299734Y0039903D01*
X0299734Y0046971D01*
X0300896Y0046971D01*
X0300896Y0040709D02*
X0299734Y0040709D01*
X0299734Y0041515D02*
X0300896Y0041515D01*
X0300896Y0042321D02*
X0299734Y0042321D01*
X0299734Y0043127D02*
X0300896Y0043127D01*
X0300896Y0043933D02*
X0299734Y0043933D01*
X0299734Y0044739D02*
X0300896Y0044739D01*
X0300896Y0045545D02*
X0299734Y0045545D01*
X0299734Y0046351D02*
X0300896Y0046351D01*
X0304046Y0046971D02*
X0304046Y0039903D01*
X0302884Y0039903D01*
X0302884Y0046971D01*
X0304046Y0046971D01*
X0304046Y0040709D02*
X0302884Y0040709D01*
X0302884Y0041515D02*
X0304046Y0041515D01*
X0304046Y0042321D02*
X0302884Y0042321D01*
X0302884Y0043127D02*
X0304046Y0043127D01*
X0304046Y0043933D02*
X0302884Y0043933D01*
X0302884Y0044739D02*
X0304046Y0044739D01*
X0304046Y0045545D02*
X0302884Y0045545D01*
X0302884Y0046351D02*
X0304046Y0046351D01*
X0307195Y0046971D02*
X0307195Y0039903D01*
X0306033Y0039903D01*
X0306033Y0046971D01*
X0307195Y0046971D01*
X0307195Y0040709D02*
X0306033Y0040709D01*
X0306033Y0041515D02*
X0307195Y0041515D01*
X0307195Y0042321D02*
X0306033Y0042321D01*
X0306033Y0043127D02*
X0307195Y0043127D01*
X0307195Y0043933D02*
X0306033Y0043933D01*
X0306033Y0044739D02*
X0307195Y0044739D01*
X0307195Y0045545D02*
X0306033Y0045545D01*
X0306033Y0046351D02*
X0307195Y0046351D01*
D22*
X0309399Y0227286D02*
X0313731Y0227286D01*
X0313731Y0223742D01*
X0309399Y0223742D01*
X0309399Y0227286D01*
X0309399Y0227284D02*
X0313731Y0227284D01*
X0325935Y0227286D02*
X0330267Y0227286D01*
X0330267Y0223742D01*
X0325935Y0223742D01*
X0325935Y0227286D01*
X0325935Y0227284D02*
X0330267Y0227284D01*
X0330267Y0247286D02*
X0325935Y0247286D01*
X0330267Y0247286D02*
X0330267Y0243742D01*
X0325935Y0243742D01*
X0325935Y0247286D01*
X0325935Y0247284D02*
X0330267Y0247284D01*
X0313731Y0247286D02*
X0309399Y0247286D01*
X0313731Y0247286D02*
X0313731Y0243742D01*
X0309399Y0243742D01*
X0309399Y0247286D01*
X0309399Y0247284D02*
X0313731Y0247284D01*
X0309045Y0263476D02*
X0309045Y0267808D01*
X0312589Y0267808D01*
X0312589Y0263476D01*
X0309045Y0263476D01*
X0309045Y0267018D02*
X0312589Y0267018D01*
X0329045Y0267808D02*
X0329045Y0263476D01*
X0329045Y0267808D02*
X0332589Y0267808D01*
X0332589Y0263476D01*
X0329045Y0263476D01*
X0329045Y0267018D02*
X0332589Y0267018D01*
X0329045Y0280011D02*
X0329045Y0284343D01*
X0332589Y0284343D01*
X0332589Y0280011D01*
X0329045Y0280011D01*
X0329045Y0283553D02*
X0332589Y0283553D01*
X0309045Y0284343D02*
X0309045Y0280011D01*
X0309045Y0284343D02*
X0312589Y0284343D01*
X0312589Y0280011D01*
X0309045Y0280011D01*
X0309045Y0283553D02*
X0312589Y0283553D01*
D23*
X0320993Y0046004D02*
X0320993Y0038902D01*
X0312709Y0038902D01*
X0312709Y0046004D01*
X0320993Y0046004D01*
X0320993Y0040460D02*
X0312709Y0040460D01*
X0312709Y0042018D02*
X0320993Y0042018D01*
X0320993Y0043576D02*
X0312709Y0043576D01*
X0312709Y0045134D02*
X0320993Y0045134D01*
X0320993Y0025138D02*
X0320993Y0018036D01*
X0312709Y0018036D01*
X0312709Y0025138D01*
X0320993Y0025138D01*
X0320993Y0019594D02*
X0312709Y0019594D01*
X0312709Y0021152D02*
X0320993Y0021152D01*
X0320993Y0022710D02*
X0312709Y0022710D01*
X0312709Y0024268D02*
X0320993Y0024268D01*
X0287922Y0025138D02*
X0287922Y0018036D01*
X0279638Y0018036D01*
X0279638Y0025138D01*
X0287922Y0025138D01*
X0287922Y0019594D02*
X0279638Y0019594D01*
X0279638Y0021152D02*
X0287922Y0021152D01*
X0287922Y0022710D02*
X0279638Y0022710D01*
X0279638Y0024268D02*
X0287922Y0024268D01*
X0287922Y0038902D02*
X0287922Y0046004D01*
X0287922Y0038902D02*
X0279638Y0038902D01*
X0279638Y0046004D01*
X0287922Y0046004D01*
X0287922Y0040460D02*
X0279638Y0040460D01*
X0279638Y0042018D02*
X0287922Y0042018D01*
X0287922Y0043576D02*
X0279638Y0043576D01*
X0279638Y0045134D02*
X0287922Y0045134D01*
D24*
X0335846Y0020839D02*
X0339784Y0020839D01*
X0335846Y0020839D02*
X0335846Y0023319D01*
X0339784Y0023319D01*
X0339784Y0020839D01*
X0339784Y0021901D02*
X0335846Y0021901D01*
X0335846Y0022963D02*
X0339784Y0022963D01*
X0350846Y0020839D02*
X0354784Y0020839D01*
X0350846Y0020839D02*
X0350846Y0023319D01*
X0354784Y0023319D01*
X0354784Y0020839D01*
X0354784Y0021901D02*
X0350846Y0021901D01*
X0350846Y0022963D02*
X0354784Y0022963D01*
D25*
X0350994Y0026897D02*
X0348928Y0026897D01*
X0348928Y0033097D01*
X0350994Y0033097D01*
X0350994Y0026897D01*
X0350994Y0027782D02*
X0348928Y0027782D01*
X0348928Y0028667D02*
X0350994Y0028667D01*
X0350994Y0029552D02*
X0348928Y0029552D01*
X0348928Y0030437D02*
X0350994Y0030437D01*
X0350994Y0031322D02*
X0348928Y0031322D01*
X0348928Y0032207D02*
X0350994Y0032207D01*
X0350994Y0033092D02*
X0348928Y0033092D01*
X0341703Y0026897D02*
X0339637Y0026897D01*
X0339637Y0033097D01*
X0341703Y0033097D01*
X0341703Y0026897D01*
X0341703Y0027782D02*
X0339637Y0027782D01*
X0339637Y0028667D02*
X0341703Y0028667D01*
X0341703Y0029552D02*
X0339637Y0029552D01*
X0339637Y0030437D02*
X0341703Y0030437D01*
X0341703Y0031322D02*
X0339637Y0031322D01*
X0339637Y0032207D02*
X0341703Y0032207D01*
X0341703Y0033092D02*
X0339637Y0033092D01*
D26*
X0263846Y0027196D02*
X0263846Y0019354D01*
X0263846Y0027196D02*
X0273814Y0027196D01*
X0273814Y0019354D01*
X0263846Y0019354D01*
X0263846Y0020959D02*
X0273814Y0020959D01*
X0273814Y0022564D02*
X0263846Y0022564D01*
X0263846Y0024169D02*
X0273814Y0024169D01*
X0273814Y0025774D02*
X0263846Y0025774D01*
X0239146Y0029984D02*
X0239146Y0037826D01*
X0249114Y0037826D01*
X0249114Y0029984D01*
X0239146Y0029984D01*
X0239146Y0031589D02*
X0249114Y0031589D01*
X0249114Y0033194D02*
X0239146Y0033194D01*
X0239146Y0034799D02*
X0249114Y0034799D01*
X0249114Y0036404D02*
X0239146Y0036404D01*
X0264436Y0057543D02*
X0264436Y0065385D01*
X0274404Y0065385D01*
X0274404Y0057543D01*
X0264436Y0057543D01*
X0264436Y0059148D02*
X0274404Y0059148D01*
X0274404Y0060753D02*
X0264436Y0060753D01*
X0264436Y0062358D02*
X0274404Y0062358D01*
X0274404Y0063963D02*
X0264436Y0063963D01*
D27*
X0349784Y0067640D02*
X0350866Y0067640D01*
X0349784Y0067640D02*
X0349784Y0071282D01*
X0350866Y0071282D01*
X0350866Y0067640D01*
X0350866Y0068722D02*
X0349784Y0068722D01*
X0349784Y0069804D02*
X0350866Y0069804D01*
X0350866Y0070886D02*
X0349784Y0070886D01*
X0353524Y0067640D02*
X0354606Y0067640D01*
X0353524Y0067640D02*
X0353524Y0071282D01*
X0354606Y0071282D01*
X0354606Y0067640D01*
X0354606Y0068722D02*
X0353524Y0068722D01*
X0353524Y0069804D02*
X0354606Y0069804D01*
X0354606Y0070886D02*
X0353524Y0070886D01*
X0357264Y0067640D02*
X0358346Y0067640D01*
X0357264Y0067640D02*
X0357264Y0071282D01*
X0358346Y0071282D01*
X0358346Y0067640D01*
X0358346Y0068722D02*
X0357264Y0068722D01*
X0357264Y0069804D02*
X0358346Y0069804D01*
X0358346Y0070886D02*
X0357264Y0070886D01*
X0357264Y0077876D02*
X0358346Y0077876D01*
X0357264Y0077876D02*
X0357264Y0081518D01*
X0358346Y0081518D01*
X0358346Y0077876D01*
X0358346Y0078958D02*
X0357264Y0078958D01*
X0357264Y0080040D02*
X0358346Y0080040D01*
X0358346Y0081122D02*
X0357264Y0081122D01*
X0350866Y0077876D02*
X0349784Y0077876D01*
X0349784Y0081518D01*
X0350866Y0081518D01*
X0350866Y0077876D01*
X0350866Y0078958D02*
X0349784Y0078958D01*
X0349784Y0080040D02*
X0350866Y0080040D01*
X0350866Y0081122D02*
X0349784Y0081122D01*
M02*
