%
M48
M71
T01C0.300
T02C0.305
T03C0.889
T04C0.900
T05C1.000
T06C1.016
T07C2.400
T08C3.200
T09C3.251
%
T01
X90218Y67568
X84853Y62360
X85488Y57280
X88028Y53868
X92473Y53868
X92473Y50693
X88980Y48470
X84535Y46660
X82948Y50375
X75645Y47613
X73105Y45390
X74375Y44120
X77550Y44120
X80090Y41581
X80725Y40311
X78820Y40311
X76915Y40311
X74375Y38088
X74375Y35866
X72153Y35866
X69771Y38088
X68819Y38088
X69295Y39263
X68660Y41581
X65485Y42121
X71200Y40311
X72946Y40469
X76598Y35866
X74375Y33643
X74693Y30468
X73740Y29515
X71041Y28087
X69295Y29515
X70565Y30150
X66438Y27515
X66025Y30055
X65739Y30849
X65326Y31643
X66755Y33643
X67390Y34278
X61405Y34183
X61088Y33231
X60770Y32278
X58865Y39851
X49975Y39851
X44260Y39851
X35370Y39851
X26004Y34818
X14415Y31960
X9970Y31960
X24893Y17038
X44260Y13005
X46165Y15545
X66438Y19896
X71518Y20213
X73581Y18308
X72788Y15133
X78503Y15450
X79455Y14498
X79455Y13228
X82948Y17991
X84535Y18626
X85805Y16721
X87075Y16721
X90250Y14815
X92473Y18626
X92155Y20531
X87393Y24658
X87393Y25610
X86440Y28880
X85170Y28880
X82630Y32055
X81043Y31738
X79773Y34913
X79455Y35866
X81360Y38088
X88663Y39041
X89068Y35231
X88980Y32055
X88980Y29833
X81043Y21801
X78185Y23070
X73899Y24817
X71835Y24658
X84535Y21166
X85805Y9101
X88663Y9101
X69295Y8466
X60453Y46883
X60770Y47835
X61405Y48470
X62993Y50058
X63628Y50693
X63945Y51645
X64660Y54455
X60850Y58900
X57040Y56360
X49420Y56995
X46245Y56678
X41800Y60805
X40213Y60488
X39895Y62710
X34815Y63345
X30370Y62075
X29735Y63345
X26560Y60170
X25290Y56995
X29100Y55090
X32275Y58742
X36005Y51645
X31243Y51645
X19575Y56995
X30688Y68108
X31005Y69061
X31005Y70013
X32275Y72871
X29100Y73506
X30688Y75728
X35450Y74141
X38625Y70966
X42594Y67156
X44023Y68108
X43070Y69061
X43705Y70013
X53230Y70966
X58151Y69854
X59898Y68743
X60215Y69696
X58310Y67791
X57675Y66521
X57675Y65250
X57675Y64298
X64025Y64615
X64660Y63980
X69740Y63345
X69740Y60488
X71010Y58742
X76915Y59820
X71010Y66521
X67518Y70648
X64660Y73506
X60850Y76046
X58310Y74141
X75773Y72871
X75773Y71283
X78948Y73188
T02
X25210Y35453
X25210Y39898
X68184Y37517
X56325Y71648
X54738Y56725
X36958Y53868
X27115Y71648
T03
X55055Y19991
X52515Y19991
X49975Y19991
X47435Y19991
X46165Y17451
X48705Y17451
X51245Y17451
X53785Y17451
X39815Y17451
X37275Y17451
X34735Y17451
X32195Y17451
X33465Y19991
X36005Y19991
X38545Y19991
X41085Y19991
T04
X78030Y8783
X74530Y8783
X85585Y6719
X89835Y6719
T05
X65009Y13211
X65009Y7212
T06
X93068Y40216
X93322Y42756
X93322Y37676
X93068Y35136
X93322Y32595
X93068Y30055
X93322Y27515
X93068Y24975
T07
X13780Y21965
X20130Y21965
X20130Y8466
X13780Y8466
T08
X6080Y9021
X96080Y74021
X96080Y9021
X6080Y74021
T09
X56325Y11100
X30925Y11100
M30
