%
M48
M72
T01C0.01181
T02C0.01200
T03C0.03500
T04C0.03543
T05C0.03937
T06C0.04000
T07C0.09449
T08C0.12598
T09C0.12800
%
T01
X98002Y67079
X56752Y125829
X39252Y125829
X102377Y137079
X139252Y156892
X174252Y156892
X196752Y156892
X231752Y156892
X241752Y134579
X240502Y130829
X239252Y127079
X257190Y124579
X258814Y121454
X259941Y118329
X261565Y108329
X272815Y116203
X277815Y118703
X279690Y110578
X290315Y116203
X294065Y119953
X292815Y132453
X292815Y141203
X301565Y141203
X312815Y141203
X314065Y137453
X325315Y126203
X319065Y124953
X335315Y113703
X340315Y113703
X350315Y117453
X350315Y126203
X350660Y138703
X349065Y153703
X320315Y149953
X317815Y158703
X315315Y163703
X310315Y158703
X302815Y158703
X292815Y149953
X287190Y159328
X280315Y158703
X272815Y154579
X270940Y149953
X274690Y149953
X284065Y141203
X265315Y134953
X262815Y132453
X270315Y163703
X257815Y165829
X238002Y184579
X239252Y188329
X241752Y190829
X248002Y197079
X250502Y199579
X251752Y203329
X254567Y214392
X239567Y231892
X224567Y221892
X194567Y224392
X182067Y223142
X164567Y239392
X158317Y238142
X157067Y246892
X137067Y249392
X119567Y244392
X117067Y249392
X104567Y236892
X99567Y224392
X114567Y216892
X127067Y231267
X123002Y203329
X141752Y203329
X77067Y224392
X120817Y268142
X122067Y271892
X122067Y275642
X127067Y286892
X114567Y289392
X120817Y298142
X139567Y291892
X152067Y279392
X167692Y264392
X173317Y268142
X169567Y271892
X172067Y275642
X209567Y279392
X228942Y275017
X235817Y270642
X237067Y274392
X229567Y266892
X227067Y261892
X227067Y256892
X227067Y253142
X252067Y254392
X254567Y251892
X274567Y249392
X274567Y238142
X279567Y231267
X302815Y235514
X334065Y245514
X355187Y266016
X310817Y288142
X298317Y286892
X298317Y280642
X279567Y261892
X265817Y278142
X254567Y289392
X239567Y299392
X229567Y291892
X336565Y225514
X346565Y212079
X364065Y212079
X364065Y199579
X350315Y190829
X332815Y183703
X326565Y198329
X297815Y187453
X287815Y178703
X292815Y173703
X305315Y173703
X344065Y100829
X344065Y97079
X332815Y83329
X332815Y73329
X326565Y70829
X337815Y65829
X342815Y65829
X355315Y58329
X364065Y73329
X362815Y80829
X319065Y85829
X307815Y90829
X290940Y97704
X282815Y97079
X281565Y79579
X289690Y72079
X286565Y59579
X309065Y60829
X312815Y57079
X312815Y52079
X272815Y33329
X261565Y78329
X181752Y61203
X174252Y51203
X337815Y35829
X349065Y35829
T02
X99252Y139579
X99252Y157079
X145502Y212079
X215502Y223329
X221752Y282079
X106752Y282079
X268440Y147704
T03
X126752Y68703
X136752Y68703
X146752Y68703
X156752Y68703
X151752Y78703
X141752Y78703
X131752Y78703
X161752Y78703
X181752Y68703
X191752Y68703
X201752Y68703
X211752Y68703
X206752Y78703
X196752Y78703
X186752Y78703
X216752Y78703
T04
X293426Y34579
X307205Y34579
X336949Y26454
X353681Y26454
T05
X255940Y52014
X255940Y28394
T06
X366410Y98329
X367410Y108329
X366410Y118329
X367410Y128329
X366410Y138329
X367410Y148329
X366410Y158329
X367410Y168329
T07
X54252Y86478
X79252Y86478
X79252Y33329
X54252Y33329
T08
X23937Y35514
X378268Y35514
X378268Y291419
X23937Y291419
T09
X121752Y43703
X221752Y43703
M30
