G75*
%MOIN*%
%OFA0B0*%
%FSLAX25Y25*%
%IPPOS*%
%LPD*%
%AMOC8*
5,1,8,0,0,1.08239X$1,22.5*
%
%ADD10C,0.00000*%
%ADD11C,0.01000*%
%ADD12C,0.01100*%
%ADD13C,0.00200*%
D10*
X0004252Y0015829D02*
X0004252Y0311104D01*
X0397953Y0311104D01*
X0397953Y0015829D01*
X0004252Y0015829D01*
X0049528Y0033329D02*
X0049530Y0033466D01*
X0049536Y0033604D01*
X0049546Y0033741D01*
X0049560Y0033877D01*
X0049578Y0034014D01*
X0049600Y0034149D01*
X0049626Y0034284D01*
X0049655Y0034418D01*
X0049689Y0034552D01*
X0049726Y0034684D01*
X0049768Y0034815D01*
X0049813Y0034945D01*
X0049862Y0035073D01*
X0049914Y0035200D01*
X0049971Y0035325D01*
X0050030Y0035449D01*
X0050094Y0035571D01*
X0050161Y0035691D01*
X0050231Y0035809D01*
X0050305Y0035925D01*
X0050382Y0036039D01*
X0050463Y0036150D01*
X0050546Y0036259D01*
X0050633Y0036366D01*
X0050723Y0036469D01*
X0050816Y0036571D01*
X0050912Y0036669D01*
X0051010Y0036765D01*
X0051112Y0036858D01*
X0051215Y0036948D01*
X0051322Y0037035D01*
X0051431Y0037118D01*
X0051542Y0037199D01*
X0051656Y0037276D01*
X0051772Y0037350D01*
X0051890Y0037420D01*
X0052010Y0037487D01*
X0052132Y0037551D01*
X0052256Y0037610D01*
X0052381Y0037667D01*
X0052508Y0037719D01*
X0052636Y0037768D01*
X0052766Y0037813D01*
X0052897Y0037855D01*
X0053029Y0037892D01*
X0053163Y0037926D01*
X0053297Y0037955D01*
X0053432Y0037981D01*
X0053567Y0038003D01*
X0053704Y0038021D01*
X0053840Y0038035D01*
X0053977Y0038045D01*
X0054115Y0038051D01*
X0054252Y0038053D01*
X0054389Y0038051D01*
X0054527Y0038045D01*
X0054664Y0038035D01*
X0054800Y0038021D01*
X0054937Y0038003D01*
X0055072Y0037981D01*
X0055207Y0037955D01*
X0055341Y0037926D01*
X0055475Y0037892D01*
X0055607Y0037855D01*
X0055738Y0037813D01*
X0055868Y0037768D01*
X0055996Y0037719D01*
X0056123Y0037667D01*
X0056248Y0037610D01*
X0056372Y0037551D01*
X0056494Y0037487D01*
X0056614Y0037420D01*
X0056732Y0037350D01*
X0056848Y0037276D01*
X0056962Y0037199D01*
X0057073Y0037118D01*
X0057182Y0037035D01*
X0057289Y0036948D01*
X0057392Y0036858D01*
X0057494Y0036765D01*
X0057592Y0036669D01*
X0057688Y0036571D01*
X0057781Y0036469D01*
X0057871Y0036366D01*
X0057958Y0036259D01*
X0058041Y0036150D01*
X0058122Y0036039D01*
X0058199Y0035925D01*
X0058273Y0035809D01*
X0058343Y0035691D01*
X0058410Y0035571D01*
X0058474Y0035449D01*
X0058533Y0035325D01*
X0058590Y0035200D01*
X0058642Y0035073D01*
X0058691Y0034945D01*
X0058736Y0034815D01*
X0058778Y0034684D01*
X0058815Y0034552D01*
X0058849Y0034418D01*
X0058878Y0034284D01*
X0058904Y0034149D01*
X0058926Y0034014D01*
X0058944Y0033877D01*
X0058958Y0033741D01*
X0058968Y0033604D01*
X0058974Y0033466D01*
X0058976Y0033329D01*
X0058974Y0033192D01*
X0058968Y0033054D01*
X0058958Y0032917D01*
X0058944Y0032781D01*
X0058926Y0032644D01*
X0058904Y0032509D01*
X0058878Y0032374D01*
X0058849Y0032240D01*
X0058815Y0032106D01*
X0058778Y0031974D01*
X0058736Y0031843D01*
X0058691Y0031713D01*
X0058642Y0031585D01*
X0058590Y0031458D01*
X0058533Y0031333D01*
X0058474Y0031209D01*
X0058410Y0031087D01*
X0058343Y0030967D01*
X0058273Y0030849D01*
X0058199Y0030733D01*
X0058122Y0030619D01*
X0058041Y0030508D01*
X0057958Y0030399D01*
X0057871Y0030292D01*
X0057781Y0030189D01*
X0057688Y0030087D01*
X0057592Y0029989D01*
X0057494Y0029893D01*
X0057392Y0029800D01*
X0057289Y0029710D01*
X0057182Y0029623D01*
X0057073Y0029540D01*
X0056962Y0029459D01*
X0056848Y0029382D01*
X0056732Y0029308D01*
X0056614Y0029238D01*
X0056494Y0029171D01*
X0056372Y0029107D01*
X0056248Y0029048D01*
X0056123Y0028991D01*
X0055996Y0028939D01*
X0055868Y0028890D01*
X0055738Y0028845D01*
X0055607Y0028803D01*
X0055475Y0028766D01*
X0055341Y0028732D01*
X0055207Y0028703D01*
X0055072Y0028677D01*
X0054937Y0028655D01*
X0054800Y0028637D01*
X0054664Y0028623D01*
X0054527Y0028613D01*
X0054389Y0028607D01*
X0054252Y0028605D01*
X0054115Y0028607D01*
X0053977Y0028613D01*
X0053840Y0028623D01*
X0053704Y0028637D01*
X0053567Y0028655D01*
X0053432Y0028677D01*
X0053297Y0028703D01*
X0053163Y0028732D01*
X0053029Y0028766D01*
X0052897Y0028803D01*
X0052766Y0028845D01*
X0052636Y0028890D01*
X0052508Y0028939D01*
X0052381Y0028991D01*
X0052256Y0029048D01*
X0052132Y0029107D01*
X0052010Y0029171D01*
X0051890Y0029238D01*
X0051772Y0029308D01*
X0051656Y0029382D01*
X0051542Y0029459D01*
X0051431Y0029540D01*
X0051322Y0029623D01*
X0051215Y0029710D01*
X0051112Y0029800D01*
X0051010Y0029893D01*
X0050912Y0029989D01*
X0050816Y0030087D01*
X0050723Y0030189D01*
X0050633Y0030292D01*
X0050546Y0030399D01*
X0050463Y0030508D01*
X0050382Y0030619D01*
X0050305Y0030733D01*
X0050231Y0030849D01*
X0050161Y0030967D01*
X0050094Y0031087D01*
X0050030Y0031209D01*
X0049971Y0031333D01*
X0049914Y0031458D01*
X0049862Y0031585D01*
X0049813Y0031713D01*
X0049768Y0031843D01*
X0049726Y0031974D01*
X0049689Y0032106D01*
X0049655Y0032240D01*
X0049626Y0032374D01*
X0049600Y0032509D01*
X0049578Y0032644D01*
X0049560Y0032781D01*
X0049546Y0032917D01*
X0049536Y0033054D01*
X0049530Y0033192D01*
X0049528Y0033329D01*
X0074528Y0033329D02*
X0074530Y0033466D01*
X0074536Y0033604D01*
X0074546Y0033741D01*
X0074560Y0033877D01*
X0074578Y0034014D01*
X0074600Y0034149D01*
X0074626Y0034284D01*
X0074655Y0034418D01*
X0074689Y0034552D01*
X0074726Y0034684D01*
X0074768Y0034815D01*
X0074813Y0034945D01*
X0074862Y0035073D01*
X0074914Y0035200D01*
X0074971Y0035325D01*
X0075030Y0035449D01*
X0075094Y0035571D01*
X0075161Y0035691D01*
X0075231Y0035809D01*
X0075305Y0035925D01*
X0075382Y0036039D01*
X0075463Y0036150D01*
X0075546Y0036259D01*
X0075633Y0036366D01*
X0075723Y0036469D01*
X0075816Y0036571D01*
X0075912Y0036669D01*
X0076010Y0036765D01*
X0076112Y0036858D01*
X0076215Y0036948D01*
X0076322Y0037035D01*
X0076431Y0037118D01*
X0076542Y0037199D01*
X0076656Y0037276D01*
X0076772Y0037350D01*
X0076890Y0037420D01*
X0077010Y0037487D01*
X0077132Y0037551D01*
X0077256Y0037610D01*
X0077381Y0037667D01*
X0077508Y0037719D01*
X0077636Y0037768D01*
X0077766Y0037813D01*
X0077897Y0037855D01*
X0078029Y0037892D01*
X0078163Y0037926D01*
X0078297Y0037955D01*
X0078432Y0037981D01*
X0078567Y0038003D01*
X0078704Y0038021D01*
X0078840Y0038035D01*
X0078977Y0038045D01*
X0079115Y0038051D01*
X0079252Y0038053D01*
X0079389Y0038051D01*
X0079527Y0038045D01*
X0079664Y0038035D01*
X0079800Y0038021D01*
X0079937Y0038003D01*
X0080072Y0037981D01*
X0080207Y0037955D01*
X0080341Y0037926D01*
X0080475Y0037892D01*
X0080607Y0037855D01*
X0080738Y0037813D01*
X0080868Y0037768D01*
X0080996Y0037719D01*
X0081123Y0037667D01*
X0081248Y0037610D01*
X0081372Y0037551D01*
X0081494Y0037487D01*
X0081614Y0037420D01*
X0081732Y0037350D01*
X0081848Y0037276D01*
X0081962Y0037199D01*
X0082073Y0037118D01*
X0082182Y0037035D01*
X0082289Y0036948D01*
X0082392Y0036858D01*
X0082494Y0036765D01*
X0082592Y0036669D01*
X0082688Y0036571D01*
X0082781Y0036469D01*
X0082871Y0036366D01*
X0082958Y0036259D01*
X0083041Y0036150D01*
X0083122Y0036039D01*
X0083199Y0035925D01*
X0083273Y0035809D01*
X0083343Y0035691D01*
X0083410Y0035571D01*
X0083474Y0035449D01*
X0083533Y0035325D01*
X0083590Y0035200D01*
X0083642Y0035073D01*
X0083691Y0034945D01*
X0083736Y0034815D01*
X0083778Y0034684D01*
X0083815Y0034552D01*
X0083849Y0034418D01*
X0083878Y0034284D01*
X0083904Y0034149D01*
X0083926Y0034014D01*
X0083944Y0033877D01*
X0083958Y0033741D01*
X0083968Y0033604D01*
X0083974Y0033466D01*
X0083976Y0033329D01*
X0083974Y0033192D01*
X0083968Y0033054D01*
X0083958Y0032917D01*
X0083944Y0032781D01*
X0083926Y0032644D01*
X0083904Y0032509D01*
X0083878Y0032374D01*
X0083849Y0032240D01*
X0083815Y0032106D01*
X0083778Y0031974D01*
X0083736Y0031843D01*
X0083691Y0031713D01*
X0083642Y0031585D01*
X0083590Y0031458D01*
X0083533Y0031333D01*
X0083474Y0031209D01*
X0083410Y0031087D01*
X0083343Y0030967D01*
X0083273Y0030849D01*
X0083199Y0030733D01*
X0083122Y0030619D01*
X0083041Y0030508D01*
X0082958Y0030399D01*
X0082871Y0030292D01*
X0082781Y0030189D01*
X0082688Y0030087D01*
X0082592Y0029989D01*
X0082494Y0029893D01*
X0082392Y0029800D01*
X0082289Y0029710D01*
X0082182Y0029623D01*
X0082073Y0029540D01*
X0081962Y0029459D01*
X0081848Y0029382D01*
X0081732Y0029308D01*
X0081614Y0029238D01*
X0081494Y0029171D01*
X0081372Y0029107D01*
X0081248Y0029048D01*
X0081123Y0028991D01*
X0080996Y0028939D01*
X0080868Y0028890D01*
X0080738Y0028845D01*
X0080607Y0028803D01*
X0080475Y0028766D01*
X0080341Y0028732D01*
X0080207Y0028703D01*
X0080072Y0028677D01*
X0079937Y0028655D01*
X0079800Y0028637D01*
X0079664Y0028623D01*
X0079527Y0028613D01*
X0079389Y0028607D01*
X0079252Y0028605D01*
X0079115Y0028607D01*
X0078977Y0028613D01*
X0078840Y0028623D01*
X0078704Y0028637D01*
X0078567Y0028655D01*
X0078432Y0028677D01*
X0078297Y0028703D01*
X0078163Y0028732D01*
X0078029Y0028766D01*
X0077897Y0028803D01*
X0077766Y0028845D01*
X0077636Y0028890D01*
X0077508Y0028939D01*
X0077381Y0028991D01*
X0077256Y0029048D01*
X0077132Y0029107D01*
X0077010Y0029171D01*
X0076890Y0029238D01*
X0076772Y0029308D01*
X0076656Y0029382D01*
X0076542Y0029459D01*
X0076431Y0029540D01*
X0076322Y0029623D01*
X0076215Y0029710D01*
X0076112Y0029800D01*
X0076010Y0029893D01*
X0075912Y0029989D01*
X0075816Y0030087D01*
X0075723Y0030189D01*
X0075633Y0030292D01*
X0075546Y0030399D01*
X0075463Y0030508D01*
X0075382Y0030619D01*
X0075305Y0030733D01*
X0075231Y0030849D01*
X0075161Y0030967D01*
X0075094Y0031087D01*
X0075030Y0031209D01*
X0074971Y0031333D01*
X0074914Y0031458D01*
X0074862Y0031585D01*
X0074813Y0031713D01*
X0074768Y0031843D01*
X0074726Y0031974D01*
X0074689Y0032106D01*
X0074655Y0032240D01*
X0074626Y0032374D01*
X0074600Y0032509D01*
X0074578Y0032644D01*
X0074560Y0032781D01*
X0074546Y0032917D01*
X0074536Y0033054D01*
X0074530Y0033192D01*
X0074528Y0033329D01*
X0115352Y0043703D02*
X0115354Y0043863D01*
X0115360Y0044022D01*
X0115370Y0044181D01*
X0115384Y0044340D01*
X0115402Y0044499D01*
X0115423Y0044657D01*
X0115449Y0044814D01*
X0115479Y0044971D01*
X0115512Y0045127D01*
X0115550Y0045282D01*
X0115591Y0045436D01*
X0115636Y0045589D01*
X0115685Y0045741D01*
X0115738Y0045892D01*
X0115794Y0046041D01*
X0115855Y0046189D01*
X0115918Y0046335D01*
X0115986Y0046480D01*
X0116057Y0046623D01*
X0116131Y0046764D01*
X0116209Y0046903D01*
X0116291Y0047040D01*
X0116376Y0047175D01*
X0116464Y0047308D01*
X0116556Y0047439D01*
X0116650Y0047567D01*
X0116748Y0047693D01*
X0116849Y0047817D01*
X0116953Y0047938D01*
X0117060Y0048056D01*
X0117170Y0048172D01*
X0117283Y0048285D01*
X0117399Y0048395D01*
X0117517Y0048502D01*
X0117638Y0048606D01*
X0117762Y0048707D01*
X0117888Y0048805D01*
X0118016Y0048899D01*
X0118147Y0048991D01*
X0118280Y0049079D01*
X0118415Y0049164D01*
X0118552Y0049246D01*
X0118691Y0049324D01*
X0118832Y0049398D01*
X0118975Y0049469D01*
X0119120Y0049537D01*
X0119266Y0049600D01*
X0119414Y0049661D01*
X0119563Y0049717D01*
X0119714Y0049770D01*
X0119866Y0049819D01*
X0120019Y0049864D01*
X0120173Y0049905D01*
X0120328Y0049943D01*
X0120484Y0049976D01*
X0120641Y0050006D01*
X0120798Y0050032D01*
X0120956Y0050053D01*
X0121115Y0050071D01*
X0121274Y0050085D01*
X0121433Y0050095D01*
X0121592Y0050101D01*
X0121752Y0050103D01*
X0121912Y0050101D01*
X0122071Y0050095D01*
X0122230Y0050085D01*
X0122389Y0050071D01*
X0122548Y0050053D01*
X0122706Y0050032D01*
X0122863Y0050006D01*
X0123020Y0049976D01*
X0123176Y0049943D01*
X0123331Y0049905D01*
X0123485Y0049864D01*
X0123638Y0049819D01*
X0123790Y0049770D01*
X0123941Y0049717D01*
X0124090Y0049661D01*
X0124238Y0049600D01*
X0124384Y0049537D01*
X0124529Y0049469D01*
X0124672Y0049398D01*
X0124813Y0049324D01*
X0124952Y0049246D01*
X0125089Y0049164D01*
X0125224Y0049079D01*
X0125357Y0048991D01*
X0125488Y0048899D01*
X0125616Y0048805D01*
X0125742Y0048707D01*
X0125866Y0048606D01*
X0125987Y0048502D01*
X0126105Y0048395D01*
X0126221Y0048285D01*
X0126334Y0048172D01*
X0126444Y0048056D01*
X0126551Y0047938D01*
X0126655Y0047817D01*
X0126756Y0047693D01*
X0126854Y0047567D01*
X0126948Y0047439D01*
X0127040Y0047308D01*
X0127128Y0047175D01*
X0127213Y0047040D01*
X0127295Y0046903D01*
X0127373Y0046764D01*
X0127447Y0046623D01*
X0127518Y0046480D01*
X0127586Y0046335D01*
X0127649Y0046189D01*
X0127710Y0046041D01*
X0127766Y0045892D01*
X0127819Y0045741D01*
X0127868Y0045589D01*
X0127913Y0045436D01*
X0127954Y0045282D01*
X0127992Y0045127D01*
X0128025Y0044971D01*
X0128055Y0044814D01*
X0128081Y0044657D01*
X0128102Y0044499D01*
X0128120Y0044340D01*
X0128134Y0044181D01*
X0128144Y0044022D01*
X0128150Y0043863D01*
X0128152Y0043703D01*
X0128150Y0043543D01*
X0128144Y0043384D01*
X0128134Y0043225D01*
X0128120Y0043066D01*
X0128102Y0042907D01*
X0128081Y0042749D01*
X0128055Y0042592D01*
X0128025Y0042435D01*
X0127992Y0042279D01*
X0127954Y0042124D01*
X0127913Y0041970D01*
X0127868Y0041817D01*
X0127819Y0041665D01*
X0127766Y0041514D01*
X0127710Y0041365D01*
X0127649Y0041217D01*
X0127586Y0041071D01*
X0127518Y0040926D01*
X0127447Y0040783D01*
X0127373Y0040642D01*
X0127295Y0040503D01*
X0127213Y0040366D01*
X0127128Y0040231D01*
X0127040Y0040098D01*
X0126948Y0039967D01*
X0126854Y0039839D01*
X0126756Y0039713D01*
X0126655Y0039589D01*
X0126551Y0039468D01*
X0126444Y0039350D01*
X0126334Y0039234D01*
X0126221Y0039121D01*
X0126105Y0039011D01*
X0125987Y0038904D01*
X0125866Y0038800D01*
X0125742Y0038699D01*
X0125616Y0038601D01*
X0125488Y0038507D01*
X0125357Y0038415D01*
X0125224Y0038327D01*
X0125089Y0038242D01*
X0124952Y0038160D01*
X0124813Y0038082D01*
X0124672Y0038008D01*
X0124529Y0037937D01*
X0124384Y0037869D01*
X0124238Y0037806D01*
X0124090Y0037745D01*
X0123941Y0037689D01*
X0123790Y0037636D01*
X0123638Y0037587D01*
X0123485Y0037542D01*
X0123331Y0037501D01*
X0123176Y0037463D01*
X0123020Y0037430D01*
X0122863Y0037400D01*
X0122706Y0037374D01*
X0122548Y0037353D01*
X0122389Y0037335D01*
X0122230Y0037321D01*
X0122071Y0037311D01*
X0121912Y0037305D01*
X0121752Y0037303D01*
X0121592Y0037305D01*
X0121433Y0037311D01*
X0121274Y0037321D01*
X0121115Y0037335D01*
X0120956Y0037353D01*
X0120798Y0037374D01*
X0120641Y0037400D01*
X0120484Y0037430D01*
X0120328Y0037463D01*
X0120173Y0037501D01*
X0120019Y0037542D01*
X0119866Y0037587D01*
X0119714Y0037636D01*
X0119563Y0037689D01*
X0119414Y0037745D01*
X0119266Y0037806D01*
X0119120Y0037869D01*
X0118975Y0037937D01*
X0118832Y0038008D01*
X0118691Y0038082D01*
X0118552Y0038160D01*
X0118415Y0038242D01*
X0118280Y0038327D01*
X0118147Y0038415D01*
X0118016Y0038507D01*
X0117888Y0038601D01*
X0117762Y0038699D01*
X0117638Y0038800D01*
X0117517Y0038904D01*
X0117399Y0039011D01*
X0117283Y0039121D01*
X0117170Y0039234D01*
X0117060Y0039350D01*
X0116953Y0039468D01*
X0116849Y0039589D01*
X0116748Y0039713D01*
X0116650Y0039839D01*
X0116556Y0039967D01*
X0116464Y0040098D01*
X0116376Y0040231D01*
X0116291Y0040366D01*
X0116209Y0040503D01*
X0116131Y0040642D01*
X0116057Y0040783D01*
X0115986Y0040926D01*
X0115918Y0041071D01*
X0115855Y0041217D01*
X0115794Y0041365D01*
X0115738Y0041514D01*
X0115685Y0041665D01*
X0115636Y0041817D01*
X0115591Y0041970D01*
X0115550Y0042124D01*
X0115512Y0042279D01*
X0115479Y0042435D01*
X0115449Y0042592D01*
X0115423Y0042749D01*
X0115402Y0042907D01*
X0115384Y0043066D01*
X0115370Y0043225D01*
X0115360Y0043384D01*
X0115354Y0043543D01*
X0115352Y0043703D01*
X0074528Y0086478D02*
X0074530Y0086615D01*
X0074536Y0086753D01*
X0074546Y0086890D01*
X0074560Y0087026D01*
X0074578Y0087163D01*
X0074600Y0087298D01*
X0074626Y0087433D01*
X0074655Y0087567D01*
X0074689Y0087701D01*
X0074726Y0087833D01*
X0074768Y0087964D01*
X0074813Y0088094D01*
X0074862Y0088222D01*
X0074914Y0088349D01*
X0074971Y0088474D01*
X0075030Y0088598D01*
X0075094Y0088720D01*
X0075161Y0088840D01*
X0075231Y0088958D01*
X0075305Y0089074D01*
X0075382Y0089188D01*
X0075463Y0089299D01*
X0075546Y0089408D01*
X0075633Y0089515D01*
X0075723Y0089618D01*
X0075816Y0089720D01*
X0075912Y0089818D01*
X0076010Y0089914D01*
X0076112Y0090007D01*
X0076215Y0090097D01*
X0076322Y0090184D01*
X0076431Y0090267D01*
X0076542Y0090348D01*
X0076656Y0090425D01*
X0076772Y0090499D01*
X0076890Y0090569D01*
X0077010Y0090636D01*
X0077132Y0090700D01*
X0077256Y0090759D01*
X0077381Y0090816D01*
X0077508Y0090868D01*
X0077636Y0090917D01*
X0077766Y0090962D01*
X0077897Y0091004D01*
X0078029Y0091041D01*
X0078163Y0091075D01*
X0078297Y0091104D01*
X0078432Y0091130D01*
X0078567Y0091152D01*
X0078704Y0091170D01*
X0078840Y0091184D01*
X0078977Y0091194D01*
X0079115Y0091200D01*
X0079252Y0091202D01*
X0079389Y0091200D01*
X0079527Y0091194D01*
X0079664Y0091184D01*
X0079800Y0091170D01*
X0079937Y0091152D01*
X0080072Y0091130D01*
X0080207Y0091104D01*
X0080341Y0091075D01*
X0080475Y0091041D01*
X0080607Y0091004D01*
X0080738Y0090962D01*
X0080868Y0090917D01*
X0080996Y0090868D01*
X0081123Y0090816D01*
X0081248Y0090759D01*
X0081372Y0090700D01*
X0081494Y0090636D01*
X0081614Y0090569D01*
X0081732Y0090499D01*
X0081848Y0090425D01*
X0081962Y0090348D01*
X0082073Y0090267D01*
X0082182Y0090184D01*
X0082289Y0090097D01*
X0082392Y0090007D01*
X0082494Y0089914D01*
X0082592Y0089818D01*
X0082688Y0089720D01*
X0082781Y0089618D01*
X0082871Y0089515D01*
X0082958Y0089408D01*
X0083041Y0089299D01*
X0083122Y0089188D01*
X0083199Y0089074D01*
X0083273Y0088958D01*
X0083343Y0088840D01*
X0083410Y0088720D01*
X0083474Y0088598D01*
X0083533Y0088474D01*
X0083590Y0088349D01*
X0083642Y0088222D01*
X0083691Y0088094D01*
X0083736Y0087964D01*
X0083778Y0087833D01*
X0083815Y0087701D01*
X0083849Y0087567D01*
X0083878Y0087433D01*
X0083904Y0087298D01*
X0083926Y0087163D01*
X0083944Y0087026D01*
X0083958Y0086890D01*
X0083968Y0086753D01*
X0083974Y0086615D01*
X0083976Y0086478D01*
X0083974Y0086341D01*
X0083968Y0086203D01*
X0083958Y0086066D01*
X0083944Y0085930D01*
X0083926Y0085793D01*
X0083904Y0085658D01*
X0083878Y0085523D01*
X0083849Y0085389D01*
X0083815Y0085255D01*
X0083778Y0085123D01*
X0083736Y0084992D01*
X0083691Y0084862D01*
X0083642Y0084734D01*
X0083590Y0084607D01*
X0083533Y0084482D01*
X0083474Y0084358D01*
X0083410Y0084236D01*
X0083343Y0084116D01*
X0083273Y0083998D01*
X0083199Y0083882D01*
X0083122Y0083768D01*
X0083041Y0083657D01*
X0082958Y0083548D01*
X0082871Y0083441D01*
X0082781Y0083338D01*
X0082688Y0083236D01*
X0082592Y0083138D01*
X0082494Y0083042D01*
X0082392Y0082949D01*
X0082289Y0082859D01*
X0082182Y0082772D01*
X0082073Y0082689D01*
X0081962Y0082608D01*
X0081848Y0082531D01*
X0081732Y0082457D01*
X0081614Y0082387D01*
X0081494Y0082320D01*
X0081372Y0082256D01*
X0081248Y0082197D01*
X0081123Y0082140D01*
X0080996Y0082088D01*
X0080868Y0082039D01*
X0080738Y0081994D01*
X0080607Y0081952D01*
X0080475Y0081915D01*
X0080341Y0081881D01*
X0080207Y0081852D01*
X0080072Y0081826D01*
X0079937Y0081804D01*
X0079800Y0081786D01*
X0079664Y0081772D01*
X0079527Y0081762D01*
X0079389Y0081756D01*
X0079252Y0081754D01*
X0079115Y0081756D01*
X0078977Y0081762D01*
X0078840Y0081772D01*
X0078704Y0081786D01*
X0078567Y0081804D01*
X0078432Y0081826D01*
X0078297Y0081852D01*
X0078163Y0081881D01*
X0078029Y0081915D01*
X0077897Y0081952D01*
X0077766Y0081994D01*
X0077636Y0082039D01*
X0077508Y0082088D01*
X0077381Y0082140D01*
X0077256Y0082197D01*
X0077132Y0082256D01*
X0077010Y0082320D01*
X0076890Y0082387D01*
X0076772Y0082457D01*
X0076656Y0082531D01*
X0076542Y0082608D01*
X0076431Y0082689D01*
X0076322Y0082772D01*
X0076215Y0082859D01*
X0076112Y0082949D01*
X0076010Y0083042D01*
X0075912Y0083138D01*
X0075816Y0083236D01*
X0075723Y0083338D01*
X0075633Y0083441D01*
X0075546Y0083548D01*
X0075463Y0083657D01*
X0075382Y0083768D01*
X0075305Y0083882D01*
X0075231Y0083998D01*
X0075161Y0084116D01*
X0075094Y0084236D01*
X0075030Y0084358D01*
X0074971Y0084482D01*
X0074914Y0084607D01*
X0074862Y0084734D01*
X0074813Y0084862D01*
X0074768Y0084992D01*
X0074726Y0085123D01*
X0074689Y0085255D01*
X0074655Y0085389D01*
X0074626Y0085523D01*
X0074600Y0085658D01*
X0074578Y0085793D01*
X0074560Y0085930D01*
X0074546Y0086066D01*
X0074536Y0086203D01*
X0074530Y0086341D01*
X0074528Y0086478D01*
X0049528Y0086478D02*
X0049530Y0086615D01*
X0049536Y0086753D01*
X0049546Y0086890D01*
X0049560Y0087026D01*
X0049578Y0087163D01*
X0049600Y0087298D01*
X0049626Y0087433D01*
X0049655Y0087567D01*
X0049689Y0087701D01*
X0049726Y0087833D01*
X0049768Y0087964D01*
X0049813Y0088094D01*
X0049862Y0088222D01*
X0049914Y0088349D01*
X0049971Y0088474D01*
X0050030Y0088598D01*
X0050094Y0088720D01*
X0050161Y0088840D01*
X0050231Y0088958D01*
X0050305Y0089074D01*
X0050382Y0089188D01*
X0050463Y0089299D01*
X0050546Y0089408D01*
X0050633Y0089515D01*
X0050723Y0089618D01*
X0050816Y0089720D01*
X0050912Y0089818D01*
X0051010Y0089914D01*
X0051112Y0090007D01*
X0051215Y0090097D01*
X0051322Y0090184D01*
X0051431Y0090267D01*
X0051542Y0090348D01*
X0051656Y0090425D01*
X0051772Y0090499D01*
X0051890Y0090569D01*
X0052010Y0090636D01*
X0052132Y0090700D01*
X0052256Y0090759D01*
X0052381Y0090816D01*
X0052508Y0090868D01*
X0052636Y0090917D01*
X0052766Y0090962D01*
X0052897Y0091004D01*
X0053029Y0091041D01*
X0053163Y0091075D01*
X0053297Y0091104D01*
X0053432Y0091130D01*
X0053567Y0091152D01*
X0053704Y0091170D01*
X0053840Y0091184D01*
X0053977Y0091194D01*
X0054115Y0091200D01*
X0054252Y0091202D01*
X0054389Y0091200D01*
X0054527Y0091194D01*
X0054664Y0091184D01*
X0054800Y0091170D01*
X0054937Y0091152D01*
X0055072Y0091130D01*
X0055207Y0091104D01*
X0055341Y0091075D01*
X0055475Y0091041D01*
X0055607Y0091004D01*
X0055738Y0090962D01*
X0055868Y0090917D01*
X0055996Y0090868D01*
X0056123Y0090816D01*
X0056248Y0090759D01*
X0056372Y0090700D01*
X0056494Y0090636D01*
X0056614Y0090569D01*
X0056732Y0090499D01*
X0056848Y0090425D01*
X0056962Y0090348D01*
X0057073Y0090267D01*
X0057182Y0090184D01*
X0057289Y0090097D01*
X0057392Y0090007D01*
X0057494Y0089914D01*
X0057592Y0089818D01*
X0057688Y0089720D01*
X0057781Y0089618D01*
X0057871Y0089515D01*
X0057958Y0089408D01*
X0058041Y0089299D01*
X0058122Y0089188D01*
X0058199Y0089074D01*
X0058273Y0088958D01*
X0058343Y0088840D01*
X0058410Y0088720D01*
X0058474Y0088598D01*
X0058533Y0088474D01*
X0058590Y0088349D01*
X0058642Y0088222D01*
X0058691Y0088094D01*
X0058736Y0087964D01*
X0058778Y0087833D01*
X0058815Y0087701D01*
X0058849Y0087567D01*
X0058878Y0087433D01*
X0058904Y0087298D01*
X0058926Y0087163D01*
X0058944Y0087026D01*
X0058958Y0086890D01*
X0058968Y0086753D01*
X0058974Y0086615D01*
X0058976Y0086478D01*
X0058974Y0086341D01*
X0058968Y0086203D01*
X0058958Y0086066D01*
X0058944Y0085930D01*
X0058926Y0085793D01*
X0058904Y0085658D01*
X0058878Y0085523D01*
X0058849Y0085389D01*
X0058815Y0085255D01*
X0058778Y0085123D01*
X0058736Y0084992D01*
X0058691Y0084862D01*
X0058642Y0084734D01*
X0058590Y0084607D01*
X0058533Y0084482D01*
X0058474Y0084358D01*
X0058410Y0084236D01*
X0058343Y0084116D01*
X0058273Y0083998D01*
X0058199Y0083882D01*
X0058122Y0083768D01*
X0058041Y0083657D01*
X0057958Y0083548D01*
X0057871Y0083441D01*
X0057781Y0083338D01*
X0057688Y0083236D01*
X0057592Y0083138D01*
X0057494Y0083042D01*
X0057392Y0082949D01*
X0057289Y0082859D01*
X0057182Y0082772D01*
X0057073Y0082689D01*
X0056962Y0082608D01*
X0056848Y0082531D01*
X0056732Y0082457D01*
X0056614Y0082387D01*
X0056494Y0082320D01*
X0056372Y0082256D01*
X0056248Y0082197D01*
X0056123Y0082140D01*
X0055996Y0082088D01*
X0055868Y0082039D01*
X0055738Y0081994D01*
X0055607Y0081952D01*
X0055475Y0081915D01*
X0055341Y0081881D01*
X0055207Y0081852D01*
X0055072Y0081826D01*
X0054937Y0081804D01*
X0054800Y0081786D01*
X0054664Y0081772D01*
X0054527Y0081762D01*
X0054389Y0081756D01*
X0054252Y0081754D01*
X0054115Y0081756D01*
X0053977Y0081762D01*
X0053840Y0081772D01*
X0053704Y0081786D01*
X0053567Y0081804D01*
X0053432Y0081826D01*
X0053297Y0081852D01*
X0053163Y0081881D01*
X0053029Y0081915D01*
X0052897Y0081952D01*
X0052766Y0081994D01*
X0052636Y0082039D01*
X0052508Y0082088D01*
X0052381Y0082140D01*
X0052256Y0082197D01*
X0052132Y0082256D01*
X0052010Y0082320D01*
X0051890Y0082387D01*
X0051772Y0082457D01*
X0051656Y0082531D01*
X0051542Y0082608D01*
X0051431Y0082689D01*
X0051322Y0082772D01*
X0051215Y0082859D01*
X0051112Y0082949D01*
X0051010Y0083042D01*
X0050912Y0083138D01*
X0050816Y0083236D01*
X0050723Y0083338D01*
X0050633Y0083441D01*
X0050546Y0083548D01*
X0050463Y0083657D01*
X0050382Y0083768D01*
X0050305Y0083882D01*
X0050231Y0083998D01*
X0050161Y0084116D01*
X0050094Y0084236D01*
X0050030Y0084358D01*
X0049971Y0084482D01*
X0049914Y0084607D01*
X0049862Y0084734D01*
X0049813Y0084862D01*
X0049768Y0084992D01*
X0049726Y0085123D01*
X0049689Y0085255D01*
X0049655Y0085389D01*
X0049626Y0085523D01*
X0049600Y0085658D01*
X0049578Y0085793D01*
X0049560Y0085930D01*
X0049546Y0086066D01*
X0049536Y0086203D01*
X0049530Y0086341D01*
X0049528Y0086478D01*
X0215352Y0043703D02*
X0215354Y0043863D01*
X0215360Y0044022D01*
X0215370Y0044181D01*
X0215384Y0044340D01*
X0215402Y0044499D01*
X0215423Y0044657D01*
X0215449Y0044814D01*
X0215479Y0044971D01*
X0215512Y0045127D01*
X0215550Y0045282D01*
X0215591Y0045436D01*
X0215636Y0045589D01*
X0215685Y0045741D01*
X0215738Y0045892D01*
X0215794Y0046041D01*
X0215855Y0046189D01*
X0215918Y0046335D01*
X0215986Y0046480D01*
X0216057Y0046623D01*
X0216131Y0046764D01*
X0216209Y0046903D01*
X0216291Y0047040D01*
X0216376Y0047175D01*
X0216464Y0047308D01*
X0216556Y0047439D01*
X0216650Y0047567D01*
X0216748Y0047693D01*
X0216849Y0047817D01*
X0216953Y0047938D01*
X0217060Y0048056D01*
X0217170Y0048172D01*
X0217283Y0048285D01*
X0217399Y0048395D01*
X0217517Y0048502D01*
X0217638Y0048606D01*
X0217762Y0048707D01*
X0217888Y0048805D01*
X0218016Y0048899D01*
X0218147Y0048991D01*
X0218280Y0049079D01*
X0218415Y0049164D01*
X0218552Y0049246D01*
X0218691Y0049324D01*
X0218832Y0049398D01*
X0218975Y0049469D01*
X0219120Y0049537D01*
X0219266Y0049600D01*
X0219414Y0049661D01*
X0219563Y0049717D01*
X0219714Y0049770D01*
X0219866Y0049819D01*
X0220019Y0049864D01*
X0220173Y0049905D01*
X0220328Y0049943D01*
X0220484Y0049976D01*
X0220641Y0050006D01*
X0220798Y0050032D01*
X0220956Y0050053D01*
X0221115Y0050071D01*
X0221274Y0050085D01*
X0221433Y0050095D01*
X0221592Y0050101D01*
X0221752Y0050103D01*
X0221912Y0050101D01*
X0222071Y0050095D01*
X0222230Y0050085D01*
X0222389Y0050071D01*
X0222548Y0050053D01*
X0222706Y0050032D01*
X0222863Y0050006D01*
X0223020Y0049976D01*
X0223176Y0049943D01*
X0223331Y0049905D01*
X0223485Y0049864D01*
X0223638Y0049819D01*
X0223790Y0049770D01*
X0223941Y0049717D01*
X0224090Y0049661D01*
X0224238Y0049600D01*
X0224384Y0049537D01*
X0224529Y0049469D01*
X0224672Y0049398D01*
X0224813Y0049324D01*
X0224952Y0049246D01*
X0225089Y0049164D01*
X0225224Y0049079D01*
X0225357Y0048991D01*
X0225488Y0048899D01*
X0225616Y0048805D01*
X0225742Y0048707D01*
X0225866Y0048606D01*
X0225987Y0048502D01*
X0226105Y0048395D01*
X0226221Y0048285D01*
X0226334Y0048172D01*
X0226444Y0048056D01*
X0226551Y0047938D01*
X0226655Y0047817D01*
X0226756Y0047693D01*
X0226854Y0047567D01*
X0226948Y0047439D01*
X0227040Y0047308D01*
X0227128Y0047175D01*
X0227213Y0047040D01*
X0227295Y0046903D01*
X0227373Y0046764D01*
X0227447Y0046623D01*
X0227518Y0046480D01*
X0227586Y0046335D01*
X0227649Y0046189D01*
X0227710Y0046041D01*
X0227766Y0045892D01*
X0227819Y0045741D01*
X0227868Y0045589D01*
X0227913Y0045436D01*
X0227954Y0045282D01*
X0227992Y0045127D01*
X0228025Y0044971D01*
X0228055Y0044814D01*
X0228081Y0044657D01*
X0228102Y0044499D01*
X0228120Y0044340D01*
X0228134Y0044181D01*
X0228144Y0044022D01*
X0228150Y0043863D01*
X0228152Y0043703D01*
X0228150Y0043543D01*
X0228144Y0043384D01*
X0228134Y0043225D01*
X0228120Y0043066D01*
X0228102Y0042907D01*
X0228081Y0042749D01*
X0228055Y0042592D01*
X0228025Y0042435D01*
X0227992Y0042279D01*
X0227954Y0042124D01*
X0227913Y0041970D01*
X0227868Y0041817D01*
X0227819Y0041665D01*
X0227766Y0041514D01*
X0227710Y0041365D01*
X0227649Y0041217D01*
X0227586Y0041071D01*
X0227518Y0040926D01*
X0227447Y0040783D01*
X0227373Y0040642D01*
X0227295Y0040503D01*
X0227213Y0040366D01*
X0227128Y0040231D01*
X0227040Y0040098D01*
X0226948Y0039967D01*
X0226854Y0039839D01*
X0226756Y0039713D01*
X0226655Y0039589D01*
X0226551Y0039468D01*
X0226444Y0039350D01*
X0226334Y0039234D01*
X0226221Y0039121D01*
X0226105Y0039011D01*
X0225987Y0038904D01*
X0225866Y0038800D01*
X0225742Y0038699D01*
X0225616Y0038601D01*
X0225488Y0038507D01*
X0225357Y0038415D01*
X0225224Y0038327D01*
X0225089Y0038242D01*
X0224952Y0038160D01*
X0224813Y0038082D01*
X0224672Y0038008D01*
X0224529Y0037937D01*
X0224384Y0037869D01*
X0224238Y0037806D01*
X0224090Y0037745D01*
X0223941Y0037689D01*
X0223790Y0037636D01*
X0223638Y0037587D01*
X0223485Y0037542D01*
X0223331Y0037501D01*
X0223176Y0037463D01*
X0223020Y0037430D01*
X0222863Y0037400D01*
X0222706Y0037374D01*
X0222548Y0037353D01*
X0222389Y0037335D01*
X0222230Y0037321D01*
X0222071Y0037311D01*
X0221912Y0037305D01*
X0221752Y0037303D01*
X0221592Y0037305D01*
X0221433Y0037311D01*
X0221274Y0037321D01*
X0221115Y0037335D01*
X0220956Y0037353D01*
X0220798Y0037374D01*
X0220641Y0037400D01*
X0220484Y0037430D01*
X0220328Y0037463D01*
X0220173Y0037501D01*
X0220019Y0037542D01*
X0219866Y0037587D01*
X0219714Y0037636D01*
X0219563Y0037689D01*
X0219414Y0037745D01*
X0219266Y0037806D01*
X0219120Y0037869D01*
X0218975Y0037937D01*
X0218832Y0038008D01*
X0218691Y0038082D01*
X0218552Y0038160D01*
X0218415Y0038242D01*
X0218280Y0038327D01*
X0218147Y0038415D01*
X0218016Y0038507D01*
X0217888Y0038601D01*
X0217762Y0038699D01*
X0217638Y0038800D01*
X0217517Y0038904D01*
X0217399Y0039011D01*
X0217283Y0039121D01*
X0217170Y0039234D01*
X0217060Y0039350D01*
X0216953Y0039468D01*
X0216849Y0039589D01*
X0216748Y0039713D01*
X0216650Y0039839D01*
X0216556Y0039967D01*
X0216464Y0040098D01*
X0216376Y0040231D01*
X0216291Y0040366D01*
X0216209Y0040503D01*
X0216131Y0040642D01*
X0216057Y0040783D01*
X0215986Y0040926D01*
X0215918Y0041071D01*
X0215855Y0041217D01*
X0215794Y0041365D01*
X0215738Y0041514D01*
X0215685Y0041665D01*
X0215636Y0041817D01*
X0215591Y0041970D01*
X0215550Y0042124D01*
X0215512Y0042279D01*
X0215479Y0042435D01*
X0215449Y0042592D01*
X0215423Y0042749D01*
X0215402Y0042907D01*
X0215384Y0043066D01*
X0215370Y0043225D01*
X0215360Y0043384D01*
X0215354Y0043543D01*
X0215352Y0043703D01*
X0253971Y0052014D02*
X0253973Y0052102D01*
X0253979Y0052190D01*
X0253989Y0052278D01*
X0254003Y0052366D01*
X0254020Y0052452D01*
X0254042Y0052538D01*
X0254067Y0052622D01*
X0254097Y0052706D01*
X0254129Y0052788D01*
X0254166Y0052868D01*
X0254206Y0052947D01*
X0254250Y0053024D01*
X0254297Y0053099D01*
X0254347Y0053171D01*
X0254401Y0053242D01*
X0254457Y0053309D01*
X0254517Y0053375D01*
X0254579Y0053437D01*
X0254645Y0053497D01*
X0254712Y0053553D01*
X0254783Y0053607D01*
X0254855Y0053657D01*
X0254930Y0053704D01*
X0255007Y0053748D01*
X0255086Y0053788D01*
X0255166Y0053825D01*
X0255248Y0053857D01*
X0255332Y0053887D01*
X0255416Y0053912D01*
X0255502Y0053934D01*
X0255588Y0053951D01*
X0255676Y0053965D01*
X0255764Y0053975D01*
X0255852Y0053981D01*
X0255940Y0053983D01*
X0256028Y0053981D01*
X0256116Y0053975D01*
X0256204Y0053965D01*
X0256292Y0053951D01*
X0256378Y0053934D01*
X0256464Y0053912D01*
X0256548Y0053887D01*
X0256632Y0053857D01*
X0256714Y0053825D01*
X0256794Y0053788D01*
X0256873Y0053748D01*
X0256950Y0053704D01*
X0257025Y0053657D01*
X0257097Y0053607D01*
X0257168Y0053553D01*
X0257235Y0053497D01*
X0257301Y0053437D01*
X0257363Y0053375D01*
X0257423Y0053309D01*
X0257479Y0053242D01*
X0257533Y0053171D01*
X0257583Y0053099D01*
X0257630Y0053024D01*
X0257674Y0052947D01*
X0257714Y0052868D01*
X0257751Y0052788D01*
X0257783Y0052706D01*
X0257813Y0052622D01*
X0257838Y0052538D01*
X0257860Y0052452D01*
X0257877Y0052366D01*
X0257891Y0052278D01*
X0257901Y0052190D01*
X0257907Y0052102D01*
X0257909Y0052014D01*
X0257907Y0051926D01*
X0257901Y0051838D01*
X0257891Y0051750D01*
X0257877Y0051662D01*
X0257860Y0051576D01*
X0257838Y0051490D01*
X0257813Y0051406D01*
X0257783Y0051322D01*
X0257751Y0051240D01*
X0257714Y0051160D01*
X0257674Y0051081D01*
X0257630Y0051004D01*
X0257583Y0050929D01*
X0257533Y0050857D01*
X0257479Y0050786D01*
X0257423Y0050719D01*
X0257363Y0050653D01*
X0257301Y0050591D01*
X0257235Y0050531D01*
X0257168Y0050475D01*
X0257097Y0050421D01*
X0257025Y0050371D01*
X0256950Y0050324D01*
X0256873Y0050280D01*
X0256794Y0050240D01*
X0256714Y0050203D01*
X0256632Y0050171D01*
X0256548Y0050141D01*
X0256464Y0050116D01*
X0256378Y0050094D01*
X0256292Y0050077D01*
X0256204Y0050063D01*
X0256116Y0050053D01*
X0256028Y0050047D01*
X0255940Y0050045D01*
X0255852Y0050047D01*
X0255764Y0050053D01*
X0255676Y0050063D01*
X0255588Y0050077D01*
X0255502Y0050094D01*
X0255416Y0050116D01*
X0255332Y0050141D01*
X0255248Y0050171D01*
X0255166Y0050203D01*
X0255086Y0050240D01*
X0255007Y0050280D01*
X0254930Y0050324D01*
X0254855Y0050371D01*
X0254783Y0050421D01*
X0254712Y0050475D01*
X0254645Y0050531D01*
X0254579Y0050591D01*
X0254517Y0050653D01*
X0254457Y0050719D01*
X0254401Y0050786D01*
X0254347Y0050857D01*
X0254297Y0050929D01*
X0254250Y0051004D01*
X0254206Y0051081D01*
X0254166Y0051160D01*
X0254129Y0051240D01*
X0254097Y0051322D01*
X0254067Y0051406D01*
X0254042Y0051490D01*
X0254020Y0051576D01*
X0254003Y0051662D01*
X0253989Y0051750D01*
X0253979Y0051838D01*
X0253973Y0051926D01*
X0253971Y0052014D01*
X0253971Y0028394D02*
X0253973Y0028482D01*
X0253979Y0028570D01*
X0253989Y0028658D01*
X0254003Y0028746D01*
X0254020Y0028832D01*
X0254042Y0028918D01*
X0254067Y0029002D01*
X0254097Y0029086D01*
X0254129Y0029168D01*
X0254166Y0029248D01*
X0254206Y0029327D01*
X0254250Y0029404D01*
X0254297Y0029479D01*
X0254347Y0029551D01*
X0254401Y0029622D01*
X0254457Y0029689D01*
X0254517Y0029755D01*
X0254579Y0029817D01*
X0254645Y0029877D01*
X0254712Y0029933D01*
X0254783Y0029987D01*
X0254855Y0030037D01*
X0254930Y0030084D01*
X0255007Y0030128D01*
X0255086Y0030168D01*
X0255166Y0030205D01*
X0255248Y0030237D01*
X0255332Y0030267D01*
X0255416Y0030292D01*
X0255502Y0030314D01*
X0255588Y0030331D01*
X0255676Y0030345D01*
X0255764Y0030355D01*
X0255852Y0030361D01*
X0255940Y0030363D01*
X0256028Y0030361D01*
X0256116Y0030355D01*
X0256204Y0030345D01*
X0256292Y0030331D01*
X0256378Y0030314D01*
X0256464Y0030292D01*
X0256548Y0030267D01*
X0256632Y0030237D01*
X0256714Y0030205D01*
X0256794Y0030168D01*
X0256873Y0030128D01*
X0256950Y0030084D01*
X0257025Y0030037D01*
X0257097Y0029987D01*
X0257168Y0029933D01*
X0257235Y0029877D01*
X0257301Y0029817D01*
X0257363Y0029755D01*
X0257423Y0029689D01*
X0257479Y0029622D01*
X0257533Y0029551D01*
X0257583Y0029479D01*
X0257630Y0029404D01*
X0257674Y0029327D01*
X0257714Y0029248D01*
X0257751Y0029168D01*
X0257783Y0029086D01*
X0257813Y0029002D01*
X0257838Y0028918D01*
X0257860Y0028832D01*
X0257877Y0028746D01*
X0257891Y0028658D01*
X0257901Y0028570D01*
X0257907Y0028482D01*
X0257909Y0028394D01*
X0257907Y0028306D01*
X0257901Y0028218D01*
X0257891Y0028130D01*
X0257877Y0028042D01*
X0257860Y0027956D01*
X0257838Y0027870D01*
X0257813Y0027786D01*
X0257783Y0027702D01*
X0257751Y0027620D01*
X0257714Y0027540D01*
X0257674Y0027461D01*
X0257630Y0027384D01*
X0257583Y0027309D01*
X0257533Y0027237D01*
X0257479Y0027166D01*
X0257423Y0027099D01*
X0257363Y0027033D01*
X0257301Y0026971D01*
X0257235Y0026911D01*
X0257168Y0026855D01*
X0257097Y0026801D01*
X0257025Y0026751D01*
X0256950Y0026704D01*
X0256873Y0026660D01*
X0256794Y0026620D01*
X0256714Y0026583D01*
X0256632Y0026551D01*
X0256548Y0026521D01*
X0256464Y0026496D01*
X0256378Y0026474D01*
X0256292Y0026457D01*
X0256204Y0026443D01*
X0256116Y0026433D01*
X0256028Y0026427D01*
X0255940Y0026425D01*
X0255852Y0026427D01*
X0255764Y0026433D01*
X0255676Y0026443D01*
X0255588Y0026457D01*
X0255502Y0026474D01*
X0255416Y0026496D01*
X0255332Y0026521D01*
X0255248Y0026551D01*
X0255166Y0026583D01*
X0255086Y0026620D01*
X0255007Y0026660D01*
X0254930Y0026704D01*
X0254855Y0026751D01*
X0254783Y0026801D01*
X0254712Y0026855D01*
X0254645Y0026911D01*
X0254579Y0026971D01*
X0254517Y0027033D01*
X0254457Y0027099D01*
X0254401Y0027166D01*
X0254347Y0027237D01*
X0254297Y0027309D01*
X0254250Y0027384D01*
X0254206Y0027461D01*
X0254166Y0027540D01*
X0254129Y0027620D01*
X0254097Y0027702D01*
X0254067Y0027786D01*
X0254042Y0027870D01*
X0254020Y0027956D01*
X0254003Y0028042D01*
X0253989Y0028130D01*
X0253979Y0028218D01*
X0253973Y0028306D01*
X0253971Y0028394D01*
X0291654Y0034579D02*
X0291656Y0034663D01*
X0291662Y0034746D01*
X0291672Y0034829D01*
X0291686Y0034912D01*
X0291703Y0034994D01*
X0291725Y0035075D01*
X0291750Y0035154D01*
X0291779Y0035233D01*
X0291812Y0035310D01*
X0291848Y0035385D01*
X0291888Y0035459D01*
X0291931Y0035531D01*
X0291978Y0035600D01*
X0292028Y0035667D01*
X0292081Y0035732D01*
X0292137Y0035794D01*
X0292195Y0035854D01*
X0292257Y0035911D01*
X0292321Y0035964D01*
X0292388Y0036015D01*
X0292457Y0036062D01*
X0292528Y0036107D01*
X0292601Y0036147D01*
X0292676Y0036184D01*
X0292753Y0036218D01*
X0292831Y0036248D01*
X0292910Y0036274D01*
X0292991Y0036297D01*
X0293073Y0036315D01*
X0293155Y0036330D01*
X0293238Y0036341D01*
X0293321Y0036348D01*
X0293405Y0036351D01*
X0293489Y0036350D01*
X0293572Y0036345D01*
X0293656Y0036336D01*
X0293738Y0036323D01*
X0293820Y0036307D01*
X0293901Y0036286D01*
X0293982Y0036262D01*
X0294060Y0036234D01*
X0294138Y0036202D01*
X0294214Y0036166D01*
X0294288Y0036127D01*
X0294360Y0036085D01*
X0294430Y0036039D01*
X0294498Y0035990D01*
X0294563Y0035938D01*
X0294626Y0035883D01*
X0294686Y0035825D01*
X0294744Y0035764D01*
X0294798Y0035700D01*
X0294850Y0035634D01*
X0294898Y0035566D01*
X0294943Y0035495D01*
X0294984Y0035422D01*
X0295023Y0035348D01*
X0295057Y0035272D01*
X0295088Y0035194D01*
X0295115Y0035115D01*
X0295139Y0035034D01*
X0295158Y0034953D01*
X0295174Y0034871D01*
X0295186Y0034788D01*
X0295194Y0034704D01*
X0295198Y0034621D01*
X0295198Y0034537D01*
X0295194Y0034454D01*
X0295186Y0034370D01*
X0295174Y0034287D01*
X0295158Y0034205D01*
X0295139Y0034124D01*
X0295115Y0034043D01*
X0295088Y0033964D01*
X0295057Y0033886D01*
X0295023Y0033810D01*
X0294984Y0033736D01*
X0294943Y0033663D01*
X0294898Y0033592D01*
X0294850Y0033524D01*
X0294798Y0033458D01*
X0294744Y0033394D01*
X0294686Y0033333D01*
X0294626Y0033275D01*
X0294563Y0033220D01*
X0294498Y0033168D01*
X0294430Y0033119D01*
X0294360Y0033073D01*
X0294288Y0033031D01*
X0294214Y0032992D01*
X0294138Y0032956D01*
X0294060Y0032924D01*
X0293982Y0032896D01*
X0293901Y0032872D01*
X0293820Y0032851D01*
X0293738Y0032835D01*
X0293656Y0032822D01*
X0293572Y0032813D01*
X0293489Y0032808D01*
X0293405Y0032807D01*
X0293321Y0032810D01*
X0293238Y0032817D01*
X0293155Y0032828D01*
X0293073Y0032843D01*
X0292991Y0032861D01*
X0292910Y0032884D01*
X0292831Y0032910D01*
X0292753Y0032940D01*
X0292676Y0032974D01*
X0292601Y0033011D01*
X0292528Y0033051D01*
X0292457Y0033096D01*
X0292388Y0033143D01*
X0292321Y0033194D01*
X0292257Y0033247D01*
X0292195Y0033304D01*
X0292137Y0033364D01*
X0292081Y0033426D01*
X0292028Y0033491D01*
X0291978Y0033558D01*
X0291931Y0033627D01*
X0291888Y0033699D01*
X0291848Y0033773D01*
X0291812Y0033848D01*
X0291779Y0033925D01*
X0291750Y0034004D01*
X0291725Y0034083D01*
X0291703Y0034164D01*
X0291686Y0034246D01*
X0291672Y0034329D01*
X0291662Y0034412D01*
X0291656Y0034495D01*
X0291654Y0034579D01*
X0305433Y0034579D02*
X0305435Y0034663D01*
X0305441Y0034746D01*
X0305451Y0034829D01*
X0305465Y0034912D01*
X0305482Y0034994D01*
X0305504Y0035075D01*
X0305529Y0035154D01*
X0305558Y0035233D01*
X0305591Y0035310D01*
X0305627Y0035385D01*
X0305667Y0035459D01*
X0305710Y0035531D01*
X0305757Y0035600D01*
X0305807Y0035667D01*
X0305860Y0035732D01*
X0305916Y0035794D01*
X0305974Y0035854D01*
X0306036Y0035911D01*
X0306100Y0035964D01*
X0306167Y0036015D01*
X0306236Y0036062D01*
X0306307Y0036107D01*
X0306380Y0036147D01*
X0306455Y0036184D01*
X0306532Y0036218D01*
X0306610Y0036248D01*
X0306689Y0036274D01*
X0306770Y0036297D01*
X0306852Y0036315D01*
X0306934Y0036330D01*
X0307017Y0036341D01*
X0307100Y0036348D01*
X0307184Y0036351D01*
X0307268Y0036350D01*
X0307351Y0036345D01*
X0307435Y0036336D01*
X0307517Y0036323D01*
X0307599Y0036307D01*
X0307680Y0036286D01*
X0307761Y0036262D01*
X0307839Y0036234D01*
X0307917Y0036202D01*
X0307993Y0036166D01*
X0308067Y0036127D01*
X0308139Y0036085D01*
X0308209Y0036039D01*
X0308277Y0035990D01*
X0308342Y0035938D01*
X0308405Y0035883D01*
X0308465Y0035825D01*
X0308523Y0035764D01*
X0308577Y0035700D01*
X0308629Y0035634D01*
X0308677Y0035566D01*
X0308722Y0035495D01*
X0308763Y0035422D01*
X0308802Y0035348D01*
X0308836Y0035272D01*
X0308867Y0035194D01*
X0308894Y0035115D01*
X0308918Y0035034D01*
X0308937Y0034953D01*
X0308953Y0034871D01*
X0308965Y0034788D01*
X0308973Y0034704D01*
X0308977Y0034621D01*
X0308977Y0034537D01*
X0308973Y0034454D01*
X0308965Y0034370D01*
X0308953Y0034287D01*
X0308937Y0034205D01*
X0308918Y0034124D01*
X0308894Y0034043D01*
X0308867Y0033964D01*
X0308836Y0033886D01*
X0308802Y0033810D01*
X0308763Y0033736D01*
X0308722Y0033663D01*
X0308677Y0033592D01*
X0308629Y0033524D01*
X0308577Y0033458D01*
X0308523Y0033394D01*
X0308465Y0033333D01*
X0308405Y0033275D01*
X0308342Y0033220D01*
X0308277Y0033168D01*
X0308209Y0033119D01*
X0308139Y0033073D01*
X0308067Y0033031D01*
X0307993Y0032992D01*
X0307917Y0032956D01*
X0307839Y0032924D01*
X0307761Y0032896D01*
X0307680Y0032872D01*
X0307599Y0032851D01*
X0307517Y0032835D01*
X0307435Y0032822D01*
X0307351Y0032813D01*
X0307268Y0032808D01*
X0307184Y0032807D01*
X0307100Y0032810D01*
X0307017Y0032817D01*
X0306934Y0032828D01*
X0306852Y0032843D01*
X0306770Y0032861D01*
X0306689Y0032884D01*
X0306610Y0032910D01*
X0306532Y0032940D01*
X0306455Y0032974D01*
X0306380Y0033011D01*
X0306307Y0033051D01*
X0306236Y0033096D01*
X0306167Y0033143D01*
X0306100Y0033194D01*
X0306036Y0033247D01*
X0305974Y0033304D01*
X0305916Y0033364D01*
X0305860Y0033426D01*
X0305807Y0033491D01*
X0305757Y0033558D01*
X0305710Y0033627D01*
X0305667Y0033699D01*
X0305627Y0033773D01*
X0305591Y0033848D01*
X0305558Y0033925D01*
X0305529Y0034004D01*
X0305504Y0034083D01*
X0305482Y0034164D01*
X0305465Y0034246D01*
X0305451Y0034329D01*
X0305441Y0034412D01*
X0305435Y0034495D01*
X0305433Y0034579D01*
X0335177Y0026454D02*
X0335179Y0026538D01*
X0335185Y0026621D01*
X0335195Y0026704D01*
X0335209Y0026787D01*
X0335226Y0026869D01*
X0335248Y0026950D01*
X0335273Y0027029D01*
X0335302Y0027108D01*
X0335335Y0027185D01*
X0335371Y0027260D01*
X0335411Y0027334D01*
X0335454Y0027406D01*
X0335501Y0027475D01*
X0335551Y0027542D01*
X0335604Y0027607D01*
X0335660Y0027669D01*
X0335718Y0027729D01*
X0335780Y0027786D01*
X0335844Y0027839D01*
X0335911Y0027890D01*
X0335980Y0027937D01*
X0336051Y0027982D01*
X0336124Y0028022D01*
X0336199Y0028059D01*
X0336276Y0028093D01*
X0336354Y0028123D01*
X0336433Y0028149D01*
X0336514Y0028172D01*
X0336596Y0028190D01*
X0336678Y0028205D01*
X0336761Y0028216D01*
X0336844Y0028223D01*
X0336928Y0028226D01*
X0337012Y0028225D01*
X0337095Y0028220D01*
X0337179Y0028211D01*
X0337261Y0028198D01*
X0337343Y0028182D01*
X0337424Y0028161D01*
X0337505Y0028137D01*
X0337583Y0028109D01*
X0337661Y0028077D01*
X0337737Y0028041D01*
X0337811Y0028002D01*
X0337883Y0027960D01*
X0337953Y0027914D01*
X0338021Y0027865D01*
X0338086Y0027813D01*
X0338149Y0027758D01*
X0338209Y0027700D01*
X0338267Y0027639D01*
X0338321Y0027575D01*
X0338373Y0027509D01*
X0338421Y0027441D01*
X0338466Y0027370D01*
X0338507Y0027297D01*
X0338546Y0027223D01*
X0338580Y0027147D01*
X0338611Y0027069D01*
X0338638Y0026990D01*
X0338662Y0026909D01*
X0338681Y0026828D01*
X0338697Y0026746D01*
X0338709Y0026663D01*
X0338717Y0026579D01*
X0338721Y0026496D01*
X0338721Y0026412D01*
X0338717Y0026329D01*
X0338709Y0026245D01*
X0338697Y0026162D01*
X0338681Y0026080D01*
X0338662Y0025999D01*
X0338638Y0025918D01*
X0338611Y0025839D01*
X0338580Y0025761D01*
X0338546Y0025685D01*
X0338507Y0025611D01*
X0338466Y0025538D01*
X0338421Y0025467D01*
X0338373Y0025399D01*
X0338321Y0025333D01*
X0338267Y0025269D01*
X0338209Y0025208D01*
X0338149Y0025150D01*
X0338086Y0025095D01*
X0338021Y0025043D01*
X0337953Y0024994D01*
X0337883Y0024948D01*
X0337811Y0024906D01*
X0337737Y0024867D01*
X0337661Y0024831D01*
X0337583Y0024799D01*
X0337505Y0024771D01*
X0337424Y0024747D01*
X0337343Y0024726D01*
X0337261Y0024710D01*
X0337179Y0024697D01*
X0337095Y0024688D01*
X0337012Y0024683D01*
X0336928Y0024682D01*
X0336844Y0024685D01*
X0336761Y0024692D01*
X0336678Y0024703D01*
X0336596Y0024718D01*
X0336514Y0024736D01*
X0336433Y0024759D01*
X0336354Y0024785D01*
X0336276Y0024815D01*
X0336199Y0024849D01*
X0336124Y0024886D01*
X0336051Y0024926D01*
X0335980Y0024971D01*
X0335911Y0025018D01*
X0335844Y0025069D01*
X0335780Y0025122D01*
X0335718Y0025179D01*
X0335660Y0025239D01*
X0335604Y0025301D01*
X0335551Y0025366D01*
X0335501Y0025433D01*
X0335454Y0025502D01*
X0335411Y0025574D01*
X0335371Y0025648D01*
X0335335Y0025723D01*
X0335302Y0025800D01*
X0335273Y0025879D01*
X0335248Y0025958D01*
X0335226Y0026039D01*
X0335209Y0026121D01*
X0335195Y0026204D01*
X0335185Y0026287D01*
X0335179Y0026370D01*
X0335177Y0026454D01*
X0351909Y0026454D02*
X0351911Y0026538D01*
X0351917Y0026621D01*
X0351927Y0026704D01*
X0351941Y0026787D01*
X0351958Y0026869D01*
X0351980Y0026950D01*
X0352005Y0027029D01*
X0352034Y0027108D01*
X0352067Y0027185D01*
X0352103Y0027260D01*
X0352143Y0027334D01*
X0352186Y0027406D01*
X0352233Y0027475D01*
X0352283Y0027542D01*
X0352336Y0027607D01*
X0352392Y0027669D01*
X0352450Y0027729D01*
X0352512Y0027786D01*
X0352576Y0027839D01*
X0352643Y0027890D01*
X0352712Y0027937D01*
X0352783Y0027982D01*
X0352856Y0028022D01*
X0352931Y0028059D01*
X0353008Y0028093D01*
X0353086Y0028123D01*
X0353165Y0028149D01*
X0353246Y0028172D01*
X0353328Y0028190D01*
X0353410Y0028205D01*
X0353493Y0028216D01*
X0353576Y0028223D01*
X0353660Y0028226D01*
X0353744Y0028225D01*
X0353827Y0028220D01*
X0353911Y0028211D01*
X0353993Y0028198D01*
X0354075Y0028182D01*
X0354156Y0028161D01*
X0354237Y0028137D01*
X0354315Y0028109D01*
X0354393Y0028077D01*
X0354469Y0028041D01*
X0354543Y0028002D01*
X0354615Y0027960D01*
X0354685Y0027914D01*
X0354753Y0027865D01*
X0354818Y0027813D01*
X0354881Y0027758D01*
X0354941Y0027700D01*
X0354999Y0027639D01*
X0355053Y0027575D01*
X0355105Y0027509D01*
X0355153Y0027441D01*
X0355198Y0027370D01*
X0355239Y0027297D01*
X0355278Y0027223D01*
X0355312Y0027147D01*
X0355343Y0027069D01*
X0355370Y0026990D01*
X0355394Y0026909D01*
X0355413Y0026828D01*
X0355429Y0026746D01*
X0355441Y0026663D01*
X0355449Y0026579D01*
X0355453Y0026496D01*
X0355453Y0026412D01*
X0355449Y0026329D01*
X0355441Y0026245D01*
X0355429Y0026162D01*
X0355413Y0026080D01*
X0355394Y0025999D01*
X0355370Y0025918D01*
X0355343Y0025839D01*
X0355312Y0025761D01*
X0355278Y0025685D01*
X0355239Y0025611D01*
X0355198Y0025538D01*
X0355153Y0025467D01*
X0355105Y0025399D01*
X0355053Y0025333D01*
X0354999Y0025269D01*
X0354941Y0025208D01*
X0354881Y0025150D01*
X0354818Y0025095D01*
X0354753Y0025043D01*
X0354685Y0024994D01*
X0354615Y0024948D01*
X0354543Y0024906D01*
X0354469Y0024867D01*
X0354393Y0024831D01*
X0354315Y0024799D01*
X0354237Y0024771D01*
X0354156Y0024747D01*
X0354075Y0024726D01*
X0353993Y0024710D01*
X0353911Y0024697D01*
X0353827Y0024688D01*
X0353744Y0024683D01*
X0353660Y0024682D01*
X0353576Y0024685D01*
X0353493Y0024692D01*
X0353410Y0024703D01*
X0353328Y0024718D01*
X0353246Y0024736D01*
X0353165Y0024759D01*
X0353086Y0024785D01*
X0353008Y0024815D01*
X0352931Y0024849D01*
X0352856Y0024886D01*
X0352783Y0024926D01*
X0352712Y0024971D01*
X0352643Y0025018D01*
X0352576Y0025069D01*
X0352512Y0025122D01*
X0352450Y0025179D01*
X0352392Y0025239D01*
X0352336Y0025301D01*
X0352283Y0025366D01*
X0352233Y0025433D01*
X0352186Y0025502D01*
X0352143Y0025574D01*
X0352103Y0025648D01*
X0352067Y0025723D01*
X0352034Y0025800D01*
X0352005Y0025879D01*
X0351980Y0025958D01*
X0351958Y0026039D01*
X0351941Y0026121D01*
X0351927Y0026204D01*
X0351917Y0026287D01*
X0351911Y0026370D01*
X0351909Y0026454D01*
D11*
X0037246Y0154485D02*
X0034243Y0154485D01*
X0033242Y0155486D01*
X0034243Y0156486D01*
X0037246Y0156486D01*
X0037246Y0158488D02*
X0033242Y0158488D01*
X0033242Y0157487D01*
X0034243Y0156486D01*
X0034243Y0160930D02*
X0033242Y0161931D01*
X0033242Y0163933D01*
X0034243Y0164934D01*
X0036245Y0164934D01*
X0037246Y0163933D01*
X0037246Y0161931D01*
X0036245Y0160930D01*
X0034243Y0160930D01*
X0033242Y0167376D02*
X0033242Y0170378D01*
X0034243Y0171379D01*
X0036245Y0171379D01*
X0037246Y0170378D01*
X0037246Y0167376D01*
X0036245Y0173821D02*
X0034243Y0173821D01*
X0033242Y0174822D01*
X0033242Y0176824D01*
X0034243Y0177825D01*
X0036245Y0177825D01*
X0037246Y0176824D01*
X0037246Y0174822D01*
X0036245Y0173821D01*
X0037246Y0180267D02*
X0034243Y0180267D01*
X0033242Y0181268D01*
X0034243Y0182268D01*
X0037246Y0182268D01*
X0037246Y0184270D02*
X0033242Y0184270D01*
X0033242Y0183269D01*
X0034243Y0182268D01*
X0033242Y0186712D02*
X0033242Y0189715D01*
X0034243Y0190716D01*
X0035244Y0189715D01*
X0035244Y0187713D01*
X0036245Y0186712D01*
X0037246Y0187713D01*
X0037246Y0190716D01*
X0037246Y0193158D02*
X0037246Y0196160D01*
X0036245Y0197161D01*
X0033242Y0197161D01*
X0033242Y0199603D02*
X0033242Y0202606D01*
X0034243Y0203607D01*
X0035244Y0202606D01*
X0035244Y0200604D01*
X0036245Y0199603D01*
X0037246Y0200604D01*
X0037246Y0203607D01*
X0039247Y0195159D02*
X0039247Y0194159D01*
X0038246Y0193158D01*
X0033242Y0193158D01*
X0027246Y0192124D02*
X0027246Y0188120D01*
X0027246Y0190122D02*
X0021240Y0190122D01*
X0023242Y0192124D01*
X0023242Y0194566D02*
X0027246Y0196567D01*
X0023242Y0198569D01*
X0023242Y0205975D02*
X0023242Y0206976D01*
X0025244Y0208978D01*
X0027246Y0208978D02*
X0023242Y0208978D01*
X0024243Y0211420D02*
X0023242Y0212421D01*
X0023242Y0214423D01*
X0024243Y0215423D01*
X0026245Y0215423D01*
X0027246Y0214423D01*
X0027246Y0212421D01*
X0025244Y0211420D02*
X0025244Y0215423D01*
X0027246Y0217865D02*
X0027246Y0220868D01*
X0026245Y0221869D01*
X0024243Y0221869D01*
X0023242Y0220868D01*
X0023242Y0217865D01*
X0024243Y0211420D02*
X0025244Y0211420D01*
X0031240Y0213495D02*
X0031240Y0215497D01*
X0032241Y0216498D01*
X0036245Y0216498D01*
X0032241Y0212494D01*
X0036245Y0212494D01*
X0037246Y0213495D01*
X0037246Y0215497D01*
X0036245Y0216498D01*
X0037246Y0218940D02*
X0037246Y0222943D01*
X0033242Y0218940D01*
X0032241Y0218940D01*
X0031240Y0219941D01*
X0031240Y0221942D01*
X0032241Y0222943D01*
X0032241Y0225385D02*
X0036245Y0229389D01*
X0037246Y0228388D01*
X0037246Y0226386D01*
X0036245Y0225385D01*
X0032241Y0225385D01*
X0031240Y0226386D01*
X0031240Y0228388D01*
X0032241Y0229389D01*
X0036245Y0229389D01*
X0037246Y0231831D02*
X0037246Y0235834D01*
X0033242Y0231831D01*
X0032241Y0231831D01*
X0031240Y0232832D01*
X0031240Y0234833D01*
X0032241Y0235834D01*
X0027246Y0235981D02*
X0026245Y0236982D01*
X0022241Y0236982D01*
X0023242Y0237983D02*
X0023242Y0235981D01*
X0023242Y0233686D02*
X0027246Y0233686D01*
X0025244Y0233686D02*
X0023242Y0231684D01*
X0023242Y0230683D01*
X0023242Y0227314D02*
X0023242Y0225312D01*
X0024243Y0224311D01*
X0027246Y0224311D01*
X0027246Y0227314D01*
X0026245Y0228314D01*
X0025244Y0227314D01*
X0025244Y0224311D01*
X0031240Y0213495D02*
X0032241Y0212494D01*
X0024243Y0240425D02*
X0024243Y0244428D01*
X0027246Y0246870D02*
X0027246Y0250874D01*
X0027246Y0248872D02*
X0021240Y0248872D01*
X0023242Y0250874D01*
X0024243Y0253316D02*
X0023242Y0254317D01*
X0023242Y0256318D01*
X0024243Y0257319D01*
X0026245Y0257319D01*
X0027246Y0256318D01*
X0027246Y0254317D01*
X0025244Y0253316D02*
X0025244Y0257319D01*
X0025244Y0253316D02*
X0024243Y0253316D01*
X0031240Y0252021D02*
X0031240Y0250020D01*
X0032241Y0249019D01*
X0031240Y0246577D02*
X0033242Y0244575D01*
X0035244Y0244575D01*
X0037246Y0246577D01*
X0036245Y0249019D02*
X0037246Y0250020D01*
X0037246Y0252021D01*
X0036245Y0253022D01*
X0032241Y0253022D01*
X0031240Y0252021D01*
X0031240Y0255317D02*
X0033242Y0257319D01*
X0035244Y0257319D01*
X0037246Y0255317D01*
D12*
X0042797Y0254826D02*
X0043781Y0253842D01*
X0047718Y0253842D01*
X0048702Y0254826D01*
X0048702Y0256795D01*
X0047718Y0257779D01*
X0043781Y0257779D01*
X0042797Y0256795D01*
X0042797Y0254826D01*
X0043781Y0251333D02*
X0044766Y0251333D01*
X0045750Y0250349D01*
X0045750Y0248381D01*
X0046734Y0247397D01*
X0047718Y0247397D01*
X0048702Y0248381D01*
X0048702Y0250349D01*
X0047718Y0251333D01*
X0043781Y0251333D02*
X0042797Y0250349D01*
X0042797Y0248381D01*
X0043781Y0247397D01*
X0042797Y0244888D02*
X0048702Y0244888D01*
X0045750Y0244888D02*
X0045750Y0240951D01*
X0048702Y0240951D02*
X0042797Y0240951D01*
X0042797Y0238442D02*
X0048702Y0238442D01*
X0046734Y0236474D01*
X0048702Y0234506D01*
X0042797Y0234506D01*
X0048702Y0225551D02*
X0042797Y0221615D01*
X0043781Y0212660D02*
X0047718Y0212660D01*
X0048702Y0211676D01*
X0048702Y0209708D01*
X0047718Y0208724D01*
X0047718Y0206215D02*
X0043781Y0206215D01*
X0042797Y0205231D01*
X0042797Y0203262D01*
X0043781Y0202278D01*
X0045750Y0199769D02*
X0045750Y0195833D01*
X0045750Y0193324D02*
X0045750Y0190371D01*
X0046734Y0189387D01*
X0047718Y0189387D01*
X0048702Y0190371D01*
X0048702Y0193324D01*
X0042797Y0193324D01*
X0042797Y0190371D01*
X0043781Y0189387D01*
X0044766Y0189387D01*
X0045750Y0190371D01*
X0043781Y0186878D02*
X0045750Y0184910D01*
X0048702Y0184910D01*
X0045750Y0184910D02*
X0043781Y0182942D01*
X0042797Y0182942D01*
X0045750Y0180433D02*
X0045750Y0176496D01*
X0044766Y0173987D02*
X0043781Y0173987D01*
X0042797Y0173003D01*
X0042797Y0171035D01*
X0043781Y0170051D01*
X0045750Y0171035D02*
X0045750Y0173003D01*
X0044766Y0173987D01*
X0047718Y0173987D02*
X0048702Y0173003D01*
X0048702Y0171035D01*
X0047718Y0170051D01*
X0046734Y0170051D01*
X0045750Y0171035D01*
X0045750Y0167542D02*
X0045750Y0163605D01*
X0044766Y0163605D02*
X0048702Y0163605D01*
X0044766Y0163605D02*
X0042797Y0165573D01*
X0044766Y0167542D01*
X0048702Y0167542D01*
X0043781Y0186878D02*
X0042797Y0186878D01*
X0047718Y0202278D02*
X0048702Y0203262D01*
X0048702Y0205231D01*
X0047718Y0206215D01*
X0043781Y0208724D02*
X0042797Y0209708D01*
X0042797Y0211676D01*
X0043781Y0212660D01*
D13*
X0059761Y0200057D02*
X0060361Y0200757D01*
X0061061Y0201457D01*
X0061761Y0202157D01*
X0062461Y0202757D01*
X0065861Y0200457D01*
X0066761Y0200957D01*
X0067661Y0201357D01*
X0068461Y0201657D01*
X0069261Y0201957D01*
X0069861Y0205957D01*
X0071061Y0206057D01*
X0073661Y0206057D01*
X0074361Y0201857D01*
X0075361Y0201657D01*
X0076361Y0201257D01*
X0077261Y0200857D01*
X0078061Y0200457D01*
X0081261Y0202857D01*
X0081961Y0202257D01*
X0082661Y0201557D01*
X0083361Y0200857D01*
X0083861Y0200257D01*
X0081561Y0196857D01*
X0081961Y0196157D01*
X0082261Y0195457D01*
X0082561Y0194857D01*
X0075761Y0192457D01*
X0075424Y0193160D01*
X0074963Y0193789D01*
X0074394Y0194321D01*
X0073735Y0194738D01*
X0073010Y0195026D01*
X0072244Y0195174D01*
X0071464Y0195177D01*
X0070698Y0195035D01*
X0069971Y0194753D01*
X0069309Y0194341D01*
X0068735Y0193813D01*
X0068269Y0193187D01*
X0067928Y0192486D01*
X0067722Y0191734D01*
X0067661Y0190957D01*
X0067686Y0190166D01*
X0067859Y0189394D01*
X0068173Y0188669D01*
X0068619Y0188015D01*
X0069178Y0187456D01*
X0069833Y0187012D01*
X0070559Y0186699D01*
X0071331Y0186527D01*
X0072122Y0186504D01*
X0072903Y0186628D01*
X0073647Y0186898D01*
X0074327Y0187301D01*
X0074919Y0187825D01*
X0075403Y0188451D01*
X0075761Y0189157D01*
X0082461Y0186557D01*
X0082061Y0185857D01*
X0081661Y0185157D01*
X0081261Y0184457D01*
X0083661Y0181157D01*
X0082961Y0180457D01*
X0082361Y0179857D01*
X0081661Y0179257D01*
X0080961Y0178657D01*
X0077361Y0181057D01*
X0076561Y0180557D01*
X0075661Y0180257D01*
X0074761Y0179957D01*
X0074061Y0179757D01*
X0073361Y0175757D01*
X0072261Y0175657D01*
X0071361Y0175657D01*
X0070561Y0175757D01*
X0069561Y0175857D01*
X0068861Y0179957D01*
X0067761Y0180357D01*
X0067161Y0180557D01*
X0066461Y0180957D01*
X0065661Y0181457D01*
X0062461Y0178957D01*
X0061761Y0179557D01*
X0061061Y0180257D01*
X0060361Y0181057D01*
X0059661Y0181857D01*
X0062061Y0185257D01*
X0061661Y0186157D01*
X0061261Y0186957D01*
X0061061Y0187657D01*
X0060861Y0188357D01*
X0056761Y0188957D01*
X0056761Y0192757D01*
X0060861Y0193557D01*
X0061161Y0194657D01*
X0061561Y0195457D01*
X0062161Y0196657D01*
X0059761Y0200057D01*
X0059767Y0200047D02*
X0083719Y0200047D01*
X0083585Y0199849D02*
X0059907Y0199849D01*
X0060047Y0199650D02*
X0083450Y0199650D01*
X0083316Y0199452D02*
X0060188Y0199452D01*
X0060328Y0199253D02*
X0083182Y0199253D01*
X0083047Y0199055D02*
X0060468Y0199055D01*
X0060608Y0198856D02*
X0082913Y0198856D01*
X0082779Y0198658D02*
X0060748Y0198658D01*
X0060888Y0198459D02*
X0082645Y0198459D01*
X0082510Y0198261D02*
X0061028Y0198261D01*
X0061168Y0198062D02*
X0082376Y0198062D01*
X0082242Y0197864D02*
X0061309Y0197864D01*
X0061449Y0197665D02*
X0082107Y0197665D01*
X0081973Y0197467D02*
X0061589Y0197467D01*
X0061729Y0197268D02*
X0081839Y0197268D01*
X0081705Y0197070D02*
X0061869Y0197070D01*
X0062009Y0196871D02*
X0081570Y0196871D01*
X0081666Y0196673D02*
X0062149Y0196673D01*
X0062069Y0196474D02*
X0081779Y0196474D01*
X0081893Y0196276D02*
X0061970Y0196276D01*
X0061871Y0196077D02*
X0081995Y0196077D01*
X0082080Y0195879D02*
X0061771Y0195879D01*
X0061672Y0195680D02*
X0082165Y0195680D01*
X0082250Y0195481D02*
X0061573Y0195481D01*
X0061474Y0195283D02*
X0082347Y0195283D01*
X0082447Y0195084D02*
X0072707Y0195084D01*
X0073363Y0194886D02*
X0082546Y0194886D01*
X0082081Y0194687D02*
X0073815Y0194687D01*
X0074129Y0194489D02*
X0081519Y0194489D01*
X0080956Y0194290D02*
X0074427Y0194290D01*
X0074639Y0194092D02*
X0080394Y0194092D01*
X0079831Y0193893D02*
X0074852Y0193893D01*
X0075032Y0193695D02*
X0079269Y0193695D01*
X0078706Y0193496D02*
X0075178Y0193496D01*
X0075324Y0193298D02*
X0078144Y0193298D01*
X0077581Y0193099D02*
X0075453Y0193099D01*
X0075548Y0192901D02*
X0077019Y0192901D01*
X0076457Y0192702D02*
X0075643Y0192702D01*
X0075738Y0192504D02*
X0075894Y0192504D01*
X0075832Y0189129D02*
X0075747Y0189129D01*
X0075646Y0188931D02*
X0076343Y0188931D01*
X0076855Y0188732D02*
X0075545Y0188732D01*
X0075445Y0188534D02*
X0077366Y0188534D01*
X0077878Y0188335D02*
X0075313Y0188335D01*
X0075160Y0188137D02*
X0078389Y0188137D01*
X0078901Y0187938D02*
X0075006Y0187938D01*
X0074822Y0187740D02*
X0079412Y0187740D01*
X0079924Y0187541D02*
X0074598Y0187541D01*
X0074373Y0187343D02*
X0080436Y0187343D01*
X0080947Y0187144D02*
X0074062Y0187144D01*
X0073728Y0186945D02*
X0081459Y0186945D01*
X0081970Y0186747D02*
X0073231Y0186747D01*
X0072403Y0186548D02*
X0082456Y0186548D01*
X0082342Y0186350D02*
X0061564Y0186350D01*
X0061663Y0186151D02*
X0082229Y0186151D01*
X0082116Y0185953D02*
X0061751Y0185953D01*
X0061839Y0185754D02*
X0082002Y0185754D01*
X0081889Y0185556D02*
X0061928Y0185556D01*
X0062016Y0185357D02*
X0081775Y0185357D01*
X0081662Y0185159D02*
X0061992Y0185159D01*
X0061851Y0184960D02*
X0081548Y0184960D01*
X0081435Y0184762D02*
X0061711Y0184762D01*
X0061571Y0184563D02*
X0081322Y0184563D01*
X0081327Y0184365D02*
X0061431Y0184365D01*
X0061291Y0184166D02*
X0081472Y0184166D01*
X0081616Y0183968D02*
X0061151Y0183968D01*
X0061011Y0183769D02*
X0081760Y0183769D01*
X0081905Y0183571D02*
X0060871Y0183571D01*
X0060730Y0183372D02*
X0082049Y0183372D01*
X0082194Y0183174D02*
X0060590Y0183174D01*
X0060450Y0182975D02*
X0082338Y0182975D01*
X0082482Y0182777D02*
X0060310Y0182777D01*
X0060170Y0182578D02*
X0082627Y0182578D01*
X0082771Y0182380D02*
X0060030Y0182380D01*
X0059890Y0182181D02*
X0082915Y0182181D01*
X0083060Y0181983D02*
X0059750Y0181983D01*
X0059724Y0181784D02*
X0083204Y0181784D01*
X0083349Y0181586D02*
X0059898Y0181586D01*
X0060071Y0181387D02*
X0065572Y0181387D01*
X0065772Y0181387D02*
X0083493Y0181387D01*
X0083637Y0181189D02*
X0066089Y0181189D01*
X0066407Y0180990D02*
X0077254Y0180990D01*
X0077460Y0180990D02*
X0083494Y0180990D01*
X0083296Y0180792D02*
X0077758Y0180792D01*
X0078056Y0180593D02*
X0083097Y0180593D01*
X0082898Y0180395D02*
X0078354Y0180395D01*
X0078651Y0180196D02*
X0082700Y0180196D01*
X0082501Y0179998D02*
X0078949Y0179998D01*
X0079247Y0179799D02*
X0082293Y0179799D01*
X0082062Y0179601D02*
X0079545Y0179601D01*
X0079842Y0179402D02*
X0081830Y0179402D01*
X0081599Y0179204D02*
X0080140Y0179204D01*
X0080438Y0179005D02*
X0081367Y0179005D01*
X0081135Y0178807D02*
X0080736Y0178807D01*
X0076936Y0180792D02*
X0066749Y0180792D01*
X0067097Y0180593D02*
X0076619Y0180593D01*
X0076074Y0180395D02*
X0067647Y0180395D01*
X0068202Y0180196D02*
X0075479Y0180196D01*
X0074883Y0179998D02*
X0068748Y0179998D01*
X0068887Y0179799D02*
X0074209Y0179799D01*
X0074033Y0179601D02*
X0068921Y0179601D01*
X0068955Y0179402D02*
X0073998Y0179402D01*
X0073964Y0179204D02*
X0068989Y0179204D01*
X0069023Y0179005D02*
X0073929Y0179005D01*
X0073894Y0178807D02*
X0069057Y0178807D01*
X0069091Y0178608D02*
X0073860Y0178608D01*
X0073825Y0178410D02*
X0069125Y0178410D01*
X0069159Y0178211D02*
X0073790Y0178211D01*
X0073755Y0178012D02*
X0069192Y0178012D01*
X0069226Y0177814D02*
X0073721Y0177814D01*
X0073686Y0177615D02*
X0069260Y0177615D01*
X0069294Y0177417D02*
X0073651Y0177417D01*
X0073616Y0177218D02*
X0069328Y0177218D01*
X0069362Y0177020D02*
X0073582Y0177020D01*
X0073547Y0176821D02*
X0069396Y0176821D01*
X0069430Y0176623D02*
X0073512Y0176623D01*
X0073477Y0176424D02*
X0069464Y0176424D01*
X0069498Y0176226D02*
X0073443Y0176226D01*
X0073408Y0176027D02*
X0069531Y0176027D01*
X0069839Y0175829D02*
X0073373Y0175829D01*
X0065317Y0181189D02*
X0060245Y0181189D01*
X0060419Y0180990D02*
X0065063Y0180990D01*
X0064809Y0180792D02*
X0060592Y0180792D01*
X0060766Y0180593D02*
X0064555Y0180593D01*
X0064301Y0180395D02*
X0060940Y0180395D01*
X0061121Y0180196D02*
X0064047Y0180196D01*
X0063793Y0179998D02*
X0061320Y0179998D01*
X0061518Y0179799D02*
X0063539Y0179799D01*
X0063285Y0179601D02*
X0061717Y0179601D01*
X0061941Y0179402D02*
X0063031Y0179402D01*
X0062777Y0179204D02*
X0062173Y0179204D01*
X0062404Y0179005D02*
X0062522Y0179005D01*
X0061465Y0186548D02*
X0071237Y0186548D01*
X0070448Y0186747D02*
X0061365Y0186747D01*
X0061266Y0186945D02*
X0069988Y0186945D01*
X0069639Y0187144D02*
X0061207Y0187144D01*
X0061150Y0187343D02*
X0069346Y0187343D01*
X0069093Y0187541D02*
X0061094Y0187541D01*
X0061037Y0187740D02*
X0068894Y0187740D01*
X0068696Y0187938D02*
X0060980Y0187938D01*
X0060923Y0188137D02*
X0068536Y0188137D01*
X0068401Y0188335D02*
X0060867Y0188335D01*
X0059652Y0188534D02*
X0068265Y0188534D01*
X0068146Y0188732D02*
X0058295Y0188732D01*
X0056939Y0188931D02*
X0068060Y0188931D01*
X0067974Y0189129D02*
X0056761Y0189129D01*
X0056761Y0189328D02*
X0067888Y0189328D01*
X0067829Y0189526D02*
X0056761Y0189526D01*
X0056761Y0189725D02*
X0067785Y0189725D01*
X0067740Y0189923D02*
X0056761Y0189923D01*
X0056761Y0190122D02*
X0067696Y0190122D01*
X0067681Y0190320D02*
X0056761Y0190320D01*
X0056761Y0190519D02*
X0067675Y0190519D01*
X0067668Y0190717D02*
X0056761Y0190717D01*
X0056761Y0190916D02*
X0067662Y0190916D01*
X0067673Y0191114D02*
X0056761Y0191114D01*
X0056761Y0191313D02*
X0067689Y0191313D01*
X0067705Y0191511D02*
X0056761Y0191511D01*
X0056761Y0191710D02*
X0067721Y0191710D01*
X0067770Y0191908D02*
X0056761Y0191908D01*
X0056761Y0192107D02*
X0067824Y0192107D01*
X0067878Y0192305D02*
X0056761Y0192305D01*
X0056761Y0192504D02*
X0067936Y0192504D01*
X0068033Y0192702D02*
X0056761Y0192702D01*
X0057499Y0192901D02*
X0068130Y0192901D01*
X0068226Y0193099D02*
X0058517Y0193099D01*
X0059534Y0193298D02*
X0068352Y0193298D01*
X0068499Y0193496D02*
X0060551Y0193496D01*
X0060898Y0193695D02*
X0068647Y0193695D01*
X0068823Y0193893D02*
X0060952Y0193893D01*
X0061007Y0194092D02*
X0069039Y0194092D01*
X0069254Y0194290D02*
X0061061Y0194290D01*
X0061115Y0194489D02*
X0069547Y0194489D01*
X0069866Y0194687D02*
X0061176Y0194687D01*
X0061275Y0194886D02*
X0070314Y0194886D01*
X0070967Y0195084D02*
X0061374Y0195084D01*
X0059923Y0200246D02*
X0083853Y0200246D01*
X0083704Y0200444D02*
X0060093Y0200444D01*
X0060263Y0200643D02*
X0065585Y0200643D01*
X0065292Y0200841D02*
X0060445Y0200841D01*
X0060644Y0201040D02*
X0064999Y0201040D01*
X0064705Y0201238D02*
X0060842Y0201238D01*
X0061041Y0201437D02*
X0064412Y0201437D01*
X0064118Y0201635D02*
X0061239Y0201635D01*
X0061438Y0201834D02*
X0063825Y0201834D01*
X0063531Y0202032D02*
X0061636Y0202032D01*
X0061847Y0202231D02*
X0063238Y0202231D01*
X0062944Y0202429D02*
X0062079Y0202429D01*
X0062310Y0202628D02*
X0062651Y0202628D01*
X0066196Y0200643D02*
X0077688Y0200643D01*
X0077291Y0200841D02*
X0066553Y0200841D01*
X0066948Y0201040D02*
X0076849Y0201040D01*
X0076402Y0201238D02*
X0067394Y0201238D01*
X0067874Y0201437D02*
X0075910Y0201437D01*
X0075414Y0201635D02*
X0068404Y0201635D01*
X0068933Y0201834D02*
X0074475Y0201834D01*
X0074331Y0202032D02*
X0069272Y0202032D01*
X0069302Y0202231D02*
X0074298Y0202231D01*
X0074265Y0202429D02*
X0069331Y0202429D01*
X0069361Y0202628D02*
X0074232Y0202628D01*
X0074199Y0202826D02*
X0069391Y0202826D01*
X0069421Y0203025D02*
X0074166Y0203025D01*
X0074133Y0203223D02*
X0069451Y0203223D01*
X0069480Y0203422D02*
X0074100Y0203422D01*
X0074067Y0203620D02*
X0069510Y0203620D01*
X0069540Y0203819D02*
X0074034Y0203819D01*
X0074000Y0204017D02*
X0069570Y0204017D01*
X0069599Y0204216D02*
X0073967Y0204216D01*
X0073934Y0204414D02*
X0069629Y0204414D01*
X0069659Y0204613D02*
X0073901Y0204613D01*
X0073868Y0204812D02*
X0069689Y0204812D01*
X0069719Y0205010D02*
X0073835Y0205010D01*
X0073802Y0205209D02*
X0069748Y0205209D01*
X0069778Y0205407D02*
X0073769Y0205407D01*
X0073736Y0205606D02*
X0069808Y0205606D01*
X0069838Y0205804D02*
X0073703Y0205804D01*
X0073670Y0206003D02*
X0070411Y0206003D01*
X0078309Y0200643D02*
X0083539Y0200643D01*
X0083373Y0200841D02*
X0078573Y0200841D01*
X0078838Y0201040D02*
X0083177Y0201040D01*
X0082979Y0201238D02*
X0079103Y0201238D01*
X0079367Y0201437D02*
X0082780Y0201437D01*
X0082582Y0201635D02*
X0079632Y0201635D01*
X0079897Y0201834D02*
X0082383Y0201834D01*
X0082185Y0202032D02*
X0080161Y0202032D01*
X0080426Y0202231D02*
X0081986Y0202231D01*
X0081759Y0202429D02*
X0080691Y0202429D01*
X0080955Y0202628D02*
X0081527Y0202628D01*
X0081296Y0202826D02*
X0081220Y0202826D01*
M02*
