G75*
%MOIN*%
%OFA0B0*%
%FSLAX25Y25*%
%IPPOS*%
%LPD*%
%AMOC8*
5,1,8,0,0,1.08239X$1,22.5*
%
%ADD10C,0.00000*%
%ADD11C,0.01000*%
%ADD12C,0.01100*%
%ADD13C,0.05250*%
%ADD14R,0.07400X0.07400*%
%ADD15C,0.07400*%
%ADD16C,0.00200*%
%ADD17C,0.01600*%
%ADD18C,0.02381*%
%ADD19C,0.01200*%
%ADD20C,0.02400*%
%ADD21C,0.03200*%
%ADD22C,0.01575*%
%ADD23C,0.02400*%
%ADD24C,0.21654*%
D10*
X0004252Y0015829D02*
X0004252Y0311104D01*
X0397953Y0311104D01*
X0397953Y0015829D01*
X0004252Y0015829D01*
X0049528Y0033329D02*
X0049530Y0033466D01*
X0049536Y0033604D01*
X0049546Y0033741D01*
X0049560Y0033877D01*
X0049578Y0034014D01*
X0049600Y0034149D01*
X0049626Y0034284D01*
X0049655Y0034418D01*
X0049689Y0034552D01*
X0049726Y0034684D01*
X0049768Y0034815D01*
X0049813Y0034945D01*
X0049862Y0035073D01*
X0049914Y0035200D01*
X0049971Y0035325D01*
X0050030Y0035449D01*
X0050094Y0035571D01*
X0050161Y0035691D01*
X0050231Y0035809D01*
X0050305Y0035925D01*
X0050382Y0036039D01*
X0050463Y0036150D01*
X0050546Y0036259D01*
X0050633Y0036366D01*
X0050723Y0036469D01*
X0050816Y0036571D01*
X0050912Y0036669D01*
X0051010Y0036765D01*
X0051112Y0036858D01*
X0051215Y0036948D01*
X0051322Y0037035D01*
X0051431Y0037118D01*
X0051542Y0037199D01*
X0051656Y0037276D01*
X0051772Y0037350D01*
X0051890Y0037420D01*
X0052010Y0037487D01*
X0052132Y0037551D01*
X0052256Y0037610D01*
X0052381Y0037667D01*
X0052508Y0037719D01*
X0052636Y0037768D01*
X0052766Y0037813D01*
X0052897Y0037855D01*
X0053029Y0037892D01*
X0053163Y0037926D01*
X0053297Y0037955D01*
X0053432Y0037981D01*
X0053567Y0038003D01*
X0053704Y0038021D01*
X0053840Y0038035D01*
X0053977Y0038045D01*
X0054115Y0038051D01*
X0054252Y0038053D01*
X0054389Y0038051D01*
X0054527Y0038045D01*
X0054664Y0038035D01*
X0054800Y0038021D01*
X0054937Y0038003D01*
X0055072Y0037981D01*
X0055207Y0037955D01*
X0055341Y0037926D01*
X0055475Y0037892D01*
X0055607Y0037855D01*
X0055738Y0037813D01*
X0055868Y0037768D01*
X0055996Y0037719D01*
X0056123Y0037667D01*
X0056248Y0037610D01*
X0056372Y0037551D01*
X0056494Y0037487D01*
X0056614Y0037420D01*
X0056732Y0037350D01*
X0056848Y0037276D01*
X0056962Y0037199D01*
X0057073Y0037118D01*
X0057182Y0037035D01*
X0057289Y0036948D01*
X0057392Y0036858D01*
X0057494Y0036765D01*
X0057592Y0036669D01*
X0057688Y0036571D01*
X0057781Y0036469D01*
X0057871Y0036366D01*
X0057958Y0036259D01*
X0058041Y0036150D01*
X0058122Y0036039D01*
X0058199Y0035925D01*
X0058273Y0035809D01*
X0058343Y0035691D01*
X0058410Y0035571D01*
X0058474Y0035449D01*
X0058533Y0035325D01*
X0058590Y0035200D01*
X0058642Y0035073D01*
X0058691Y0034945D01*
X0058736Y0034815D01*
X0058778Y0034684D01*
X0058815Y0034552D01*
X0058849Y0034418D01*
X0058878Y0034284D01*
X0058904Y0034149D01*
X0058926Y0034014D01*
X0058944Y0033877D01*
X0058958Y0033741D01*
X0058968Y0033604D01*
X0058974Y0033466D01*
X0058976Y0033329D01*
X0058974Y0033192D01*
X0058968Y0033054D01*
X0058958Y0032917D01*
X0058944Y0032781D01*
X0058926Y0032644D01*
X0058904Y0032509D01*
X0058878Y0032374D01*
X0058849Y0032240D01*
X0058815Y0032106D01*
X0058778Y0031974D01*
X0058736Y0031843D01*
X0058691Y0031713D01*
X0058642Y0031585D01*
X0058590Y0031458D01*
X0058533Y0031333D01*
X0058474Y0031209D01*
X0058410Y0031087D01*
X0058343Y0030967D01*
X0058273Y0030849D01*
X0058199Y0030733D01*
X0058122Y0030619D01*
X0058041Y0030508D01*
X0057958Y0030399D01*
X0057871Y0030292D01*
X0057781Y0030189D01*
X0057688Y0030087D01*
X0057592Y0029989D01*
X0057494Y0029893D01*
X0057392Y0029800D01*
X0057289Y0029710D01*
X0057182Y0029623D01*
X0057073Y0029540D01*
X0056962Y0029459D01*
X0056848Y0029382D01*
X0056732Y0029308D01*
X0056614Y0029238D01*
X0056494Y0029171D01*
X0056372Y0029107D01*
X0056248Y0029048D01*
X0056123Y0028991D01*
X0055996Y0028939D01*
X0055868Y0028890D01*
X0055738Y0028845D01*
X0055607Y0028803D01*
X0055475Y0028766D01*
X0055341Y0028732D01*
X0055207Y0028703D01*
X0055072Y0028677D01*
X0054937Y0028655D01*
X0054800Y0028637D01*
X0054664Y0028623D01*
X0054527Y0028613D01*
X0054389Y0028607D01*
X0054252Y0028605D01*
X0054115Y0028607D01*
X0053977Y0028613D01*
X0053840Y0028623D01*
X0053704Y0028637D01*
X0053567Y0028655D01*
X0053432Y0028677D01*
X0053297Y0028703D01*
X0053163Y0028732D01*
X0053029Y0028766D01*
X0052897Y0028803D01*
X0052766Y0028845D01*
X0052636Y0028890D01*
X0052508Y0028939D01*
X0052381Y0028991D01*
X0052256Y0029048D01*
X0052132Y0029107D01*
X0052010Y0029171D01*
X0051890Y0029238D01*
X0051772Y0029308D01*
X0051656Y0029382D01*
X0051542Y0029459D01*
X0051431Y0029540D01*
X0051322Y0029623D01*
X0051215Y0029710D01*
X0051112Y0029800D01*
X0051010Y0029893D01*
X0050912Y0029989D01*
X0050816Y0030087D01*
X0050723Y0030189D01*
X0050633Y0030292D01*
X0050546Y0030399D01*
X0050463Y0030508D01*
X0050382Y0030619D01*
X0050305Y0030733D01*
X0050231Y0030849D01*
X0050161Y0030967D01*
X0050094Y0031087D01*
X0050030Y0031209D01*
X0049971Y0031333D01*
X0049914Y0031458D01*
X0049862Y0031585D01*
X0049813Y0031713D01*
X0049768Y0031843D01*
X0049726Y0031974D01*
X0049689Y0032106D01*
X0049655Y0032240D01*
X0049626Y0032374D01*
X0049600Y0032509D01*
X0049578Y0032644D01*
X0049560Y0032781D01*
X0049546Y0032917D01*
X0049536Y0033054D01*
X0049530Y0033192D01*
X0049528Y0033329D01*
X0074528Y0033329D02*
X0074530Y0033466D01*
X0074536Y0033604D01*
X0074546Y0033741D01*
X0074560Y0033877D01*
X0074578Y0034014D01*
X0074600Y0034149D01*
X0074626Y0034284D01*
X0074655Y0034418D01*
X0074689Y0034552D01*
X0074726Y0034684D01*
X0074768Y0034815D01*
X0074813Y0034945D01*
X0074862Y0035073D01*
X0074914Y0035200D01*
X0074971Y0035325D01*
X0075030Y0035449D01*
X0075094Y0035571D01*
X0075161Y0035691D01*
X0075231Y0035809D01*
X0075305Y0035925D01*
X0075382Y0036039D01*
X0075463Y0036150D01*
X0075546Y0036259D01*
X0075633Y0036366D01*
X0075723Y0036469D01*
X0075816Y0036571D01*
X0075912Y0036669D01*
X0076010Y0036765D01*
X0076112Y0036858D01*
X0076215Y0036948D01*
X0076322Y0037035D01*
X0076431Y0037118D01*
X0076542Y0037199D01*
X0076656Y0037276D01*
X0076772Y0037350D01*
X0076890Y0037420D01*
X0077010Y0037487D01*
X0077132Y0037551D01*
X0077256Y0037610D01*
X0077381Y0037667D01*
X0077508Y0037719D01*
X0077636Y0037768D01*
X0077766Y0037813D01*
X0077897Y0037855D01*
X0078029Y0037892D01*
X0078163Y0037926D01*
X0078297Y0037955D01*
X0078432Y0037981D01*
X0078567Y0038003D01*
X0078704Y0038021D01*
X0078840Y0038035D01*
X0078977Y0038045D01*
X0079115Y0038051D01*
X0079252Y0038053D01*
X0079389Y0038051D01*
X0079527Y0038045D01*
X0079664Y0038035D01*
X0079800Y0038021D01*
X0079937Y0038003D01*
X0080072Y0037981D01*
X0080207Y0037955D01*
X0080341Y0037926D01*
X0080475Y0037892D01*
X0080607Y0037855D01*
X0080738Y0037813D01*
X0080868Y0037768D01*
X0080996Y0037719D01*
X0081123Y0037667D01*
X0081248Y0037610D01*
X0081372Y0037551D01*
X0081494Y0037487D01*
X0081614Y0037420D01*
X0081732Y0037350D01*
X0081848Y0037276D01*
X0081962Y0037199D01*
X0082073Y0037118D01*
X0082182Y0037035D01*
X0082289Y0036948D01*
X0082392Y0036858D01*
X0082494Y0036765D01*
X0082592Y0036669D01*
X0082688Y0036571D01*
X0082781Y0036469D01*
X0082871Y0036366D01*
X0082958Y0036259D01*
X0083041Y0036150D01*
X0083122Y0036039D01*
X0083199Y0035925D01*
X0083273Y0035809D01*
X0083343Y0035691D01*
X0083410Y0035571D01*
X0083474Y0035449D01*
X0083533Y0035325D01*
X0083590Y0035200D01*
X0083642Y0035073D01*
X0083691Y0034945D01*
X0083736Y0034815D01*
X0083778Y0034684D01*
X0083815Y0034552D01*
X0083849Y0034418D01*
X0083878Y0034284D01*
X0083904Y0034149D01*
X0083926Y0034014D01*
X0083944Y0033877D01*
X0083958Y0033741D01*
X0083968Y0033604D01*
X0083974Y0033466D01*
X0083976Y0033329D01*
X0083974Y0033192D01*
X0083968Y0033054D01*
X0083958Y0032917D01*
X0083944Y0032781D01*
X0083926Y0032644D01*
X0083904Y0032509D01*
X0083878Y0032374D01*
X0083849Y0032240D01*
X0083815Y0032106D01*
X0083778Y0031974D01*
X0083736Y0031843D01*
X0083691Y0031713D01*
X0083642Y0031585D01*
X0083590Y0031458D01*
X0083533Y0031333D01*
X0083474Y0031209D01*
X0083410Y0031087D01*
X0083343Y0030967D01*
X0083273Y0030849D01*
X0083199Y0030733D01*
X0083122Y0030619D01*
X0083041Y0030508D01*
X0082958Y0030399D01*
X0082871Y0030292D01*
X0082781Y0030189D01*
X0082688Y0030087D01*
X0082592Y0029989D01*
X0082494Y0029893D01*
X0082392Y0029800D01*
X0082289Y0029710D01*
X0082182Y0029623D01*
X0082073Y0029540D01*
X0081962Y0029459D01*
X0081848Y0029382D01*
X0081732Y0029308D01*
X0081614Y0029238D01*
X0081494Y0029171D01*
X0081372Y0029107D01*
X0081248Y0029048D01*
X0081123Y0028991D01*
X0080996Y0028939D01*
X0080868Y0028890D01*
X0080738Y0028845D01*
X0080607Y0028803D01*
X0080475Y0028766D01*
X0080341Y0028732D01*
X0080207Y0028703D01*
X0080072Y0028677D01*
X0079937Y0028655D01*
X0079800Y0028637D01*
X0079664Y0028623D01*
X0079527Y0028613D01*
X0079389Y0028607D01*
X0079252Y0028605D01*
X0079115Y0028607D01*
X0078977Y0028613D01*
X0078840Y0028623D01*
X0078704Y0028637D01*
X0078567Y0028655D01*
X0078432Y0028677D01*
X0078297Y0028703D01*
X0078163Y0028732D01*
X0078029Y0028766D01*
X0077897Y0028803D01*
X0077766Y0028845D01*
X0077636Y0028890D01*
X0077508Y0028939D01*
X0077381Y0028991D01*
X0077256Y0029048D01*
X0077132Y0029107D01*
X0077010Y0029171D01*
X0076890Y0029238D01*
X0076772Y0029308D01*
X0076656Y0029382D01*
X0076542Y0029459D01*
X0076431Y0029540D01*
X0076322Y0029623D01*
X0076215Y0029710D01*
X0076112Y0029800D01*
X0076010Y0029893D01*
X0075912Y0029989D01*
X0075816Y0030087D01*
X0075723Y0030189D01*
X0075633Y0030292D01*
X0075546Y0030399D01*
X0075463Y0030508D01*
X0075382Y0030619D01*
X0075305Y0030733D01*
X0075231Y0030849D01*
X0075161Y0030967D01*
X0075094Y0031087D01*
X0075030Y0031209D01*
X0074971Y0031333D01*
X0074914Y0031458D01*
X0074862Y0031585D01*
X0074813Y0031713D01*
X0074768Y0031843D01*
X0074726Y0031974D01*
X0074689Y0032106D01*
X0074655Y0032240D01*
X0074626Y0032374D01*
X0074600Y0032509D01*
X0074578Y0032644D01*
X0074560Y0032781D01*
X0074546Y0032917D01*
X0074536Y0033054D01*
X0074530Y0033192D01*
X0074528Y0033329D01*
X0115352Y0043703D02*
X0115354Y0043863D01*
X0115360Y0044022D01*
X0115370Y0044181D01*
X0115384Y0044340D01*
X0115402Y0044499D01*
X0115423Y0044657D01*
X0115449Y0044814D01*
X0115479Y0044971D01*
X0115512Y0045127D01*
X0115550Y0045282D01*
X0115591Y0045436D01*
X0115636Y0045589D01*
X0115685Y0045741D01*
X0115738Y0045892D01*
X0115794Y0046041D01*
X0115855Y0046189D01*
X0115918Y0046335D01*
X0115986Y0046480D01*
X0116057Y0046623D01*
X0116131Y0046764D01*
X0116209Y0046903D01*
X0116291Y0047040D01*
X0116376Y0047175D01*
X0116464Y0047308D01*
X0116556Y0047439D01*
X0116650Y0047567D01*
X0116748Y0047693D01*
X0116849Y0047817D01*
X0116953Y0047938D01*
X0117060Y0048056D01*
X0117170Y0048172D01*
X0117283Y0048285D01*
X0117399Y0048395D01*
X0117517Y0048502D01*
X0117638Y0048606D01*
X0117762Y0048707D01*
X0117888Y0048805D01*
X0118016Y0048899D01*
X0118147Y0048991D01*
X0118280Y0049079D01*
X0118415Y0049164D01*
X0118552Y0049246D01*
X0118691Y0049324D01*
X0118832Y0049398D01*
X0118975Y0049469D01*
X0119120Y0049537D01*
X0119266Y0049600D01*
X0119414Y0049661D01*
X0119563Y0049717D01*
X0119714Y0049770D01*
X0119866Y0049819D01*
X0120019Y0049864D01*
X0120173Y0049905D01*
X0120328Y0049943D01*
X0120484Y0049976D01*
X0120641Y0050006D01*
X0120798Y0050032D01*
X0120956Y0050053D01*
X0121115Y0050071D01*
X0121274Y0050085D01*
X0121433Y0050095D01*
X0121592Y0050101D01*
X0121752Y0050103D01*
X0121912Y0050101D01*
X0122071Y0050095D01*
X0122230Y0050085D01*
X0122389Y0050071D01*
X0122548Y0050053D01*
X0122706Y0050032D01*
X0122863Y0050006D01*
X0123020Y0049976D01*
X0123176Y0049943D01*
X0123331Y0049905D01*
X0123485Y0049864D01*
X0123638Y0049819D01*
X0123790Y0049770D01*
X0123941Y0049717D01*
X0124090Y0049661D01*
X0124238Y0049600D01*
X0124384Y0049537D01*
X0124529Y0049469D01*
X0124672Y0049398D01*
X0124813Y0049324D01*
X0124952Y0049246D01*
X0125089Y0049164D01*
X0125224Y0049079D01*
X0125357Y0048991D01*
X0125488Y0048899D01*
X0125616Y0048805D01*
X0125742Y0048707D01*
X0125866Y0048606D01*
X0125987Y0048502D01*
X0126105Y0048395D01*
X0126221Y0048285D01*
X0126334Y0048172D01*
X0126444Y0048056D01*
X0126551Y0047938D01*
X0126655Y0047817D01*
X0126756Y0047693D01*
X0126854Y0047567D01*
X0126948Y0047439D01*
X0127040Y0047308D01*
X0127128Y0047175D01*
X0127213Y0047040D01*
X0127295Y0046903D01*
X0127373Y0046764D01*
X0127447Y0046623D01*
X0127518Y0046480D01*
X0127586Y0046335D01*
X0127649Y0046189D01*
X0127710Y0046041D01*
X0127766Y0045892D01*
X0127819Y0045741D01*
X0127868Y0045589D01*
X0127913Y0045436D01*
X0127954Y0045282D01*
X0127992Y0045127D01*
X0128025Y0044971D01*
X0128055Y0044814D01*
X0128081Y0044657D01*
X0128102Y0044499D01*
X0128120Y0044340D01*
X0128134Y0044181D01*
X0128144Y0044022D01*
X0128150Y0043863D01*
X0128152Y0043703D01*
X0128150Y0043543D01*
X0128144Y0043384D01*
X0128134Y0043225D01*
X0128120Y0043066D01*
X0128102Y0042907D01*
X0128081Y0042749D01*
X0128055Y0042592D01*
X0128025Y0042435D01*
X0127992Y0042279D01*
X0127954Y0042124D01*
X0127913Y0041970D01*
X0127868Y0041817D01*
X0127819Y0041665D01*
X0127766Y0041514D01*
X0127710Y0041365D01*
X0127649Y0041217D01*
X0127586Y0041071D01*
X0127518Y0040926D01*
X0127447Y0040783D01*
X0127373Y0040642D01*
X0127295Y0040503D01*
X0127213Y0040366D01*
X0127128Y0040231D01*
X0127040Y0040098D01*
X0126948Y0039967D01*
X0126854Y0039839D01*
X0126756Y0039713D01*
X0126655Y0039589D01*
X0126551Y0039468D01*
X0126444Y0039350D01*
X0126334Y0039234D01*
X0126221Y0039121D01*
X0126105Y0039011D01*
X0125987Y0038904D01*
X0125866Y0038800D01*
X0125742Y0038699D01*
X0125616Y0038601D01*
X0125488Y0038507D01*
X0125357Y0038415D01*
X0125224Y0038327D01*
X0125089Y0038242D01*
X0124952Y0038160D01*
X0124813Y0038082D01*
X0124672Y0038008D01*
X0124529Y0037937D01*
X0124384Y0037869D01*
X0124238Y0037806D01*
X0124090Y0037745D01*
X0123941Y0037689D01*
X0123790Y0037636D01*
X0123638Y0037587D01*
X0123485Y0037542D01*
X0123331Y0037501D01*
X0123176Y0037463D01*
X0123020Y0037430D01*
X0122863Y0037400D01*
X0122706Y0037374D01*
X0122548Y0037353D01*
X0122389Y0037335D01*
X0122230Y0037321D01*
X0122071Y0037311D01*
X0121912Y0037305D01*
X0121752Y0037303D01*
X0121592Y0037305D01*
X0121433Y0037311D01*
X0121274Y0037321D01*
X0121115Y0037335D01*
X0120956Y0037353D01*
X0120798Y0037374D01*
X0120641Y0037400D01*
X0120484Y0037430D01*
X0120328Y0037463D01*
X0120173Y0037501D01*
X0120019Y0037542D01*
X0119866Y0037587D01*
X0119714Y0037636D01*
X0119563Y0037689D01*
X0119414Y0037745D01*
X0119266Y0037806D01*
X0119120Y0037869D01*
X0118975Y0037937D01*
X0118832Y0038008D01*
X0118691Y0038082D01*
X0118552Y0038160D01*
X0118415Y0038242D01*
X0118280Y0038327D01*
X0118147Y0038415D01*
X0118016Y0038507D01*
X0117888Y0038601D01*
X0117762Y0038699D01*
X0117638Y0038800D01*
X0117517Y0038904D01*
X0117399Y0039011D01*
X0117283Y0039121D01*
X0117170Y0039234D01*
X0117060Y0039350D01*
X0116953Y0039468D01*
X0116849Y0039589D01*
X0116748Y0039713D01*
X0116650Y0039839D01*
X0116556Y0039967D01*
X0116464Y0040098D01*
X0116376Y0040231D01*
X0116291Y0040366D01*
X0116209Y0040503D01*
X0116131Y0040642D01*
X0116057Y0040783D01*
X0115986Y0040926D01*
X0115918Y0041071D01*
X0115855Y0041217D01*
X0115794Y0041365D01*
X0115738Y0041514D01*
X0115685Y0041665D01*
X0115636Y0041817D01*
X0115591Y0041970D01*
X0115550Y0042124D01*
X0115512Y0042279D01*
X0115479Y0042435D01*
X0115449Y0042592D01*
X0115423Y0042749D01*
X0115402Y0042907D01*
X0115384Y0043066D01*
X0115370Y0043225D01*
X0115360Y0043384D01*
X0115354Y0043543D01*
X0115352Y0043703D01*
X0074528Y0086478D02*
X0074530Y0086615D01*
X0074536Y0086753D01*
X0074546Y0086890D01*
X0074560Y0087026D01*
X0074578Y0087163D01*
X0074600Y0087298D01*
X0074626Y0087433D01*
X0074655Y0087567D01*
X0074689Y0087701D01*
X0074726Y0087833D01*
X0074768Y0087964D01*
X0074813Y0088094D01*
X0074862Y0088222D01*
X0074914Y0088349D01*
X0074971Y0088474D01*
X0075030Y0088598D01*
X0075094Y0088720D01*
X0075161Y0088840D01*
X0075231Y0088958D01*
X0075305Y0089074D01*
X0075382Y0089188D01*
X0075463Y0089299D01*
X0075546Y0089408D01*
X0075633Y0089515D01*
X0075723Y0089618D01*
X0075816Y0089720D01*
X0075912Y0089818D01*
X0076010Y0089914D01*
X0076112Y0090007D01*
X0076215Y0090097D01*
X0076322Y0090184D01*
X0076431Y0090267D01*
X0076542Y0090348D01*
X0076656Y0090425D01*
X0076772Y0090499D01*
X0076890Y0090569D01*
X0077010Y0090636D01*
X0077132Y0090700D01*
X0077256Y0090759D01*
X0077381Y0090816D01*
X0077508Y0090868D01*
X0077636Y0090917D01*
X0077766Y0090962D01*
X0077897Y0091004D01*
X0078029Y0091041D01*
X0078163Y0091075D01*
X0078297Y0091104D01*
X0078432Y0091130D01*
X0078567Y0091152D01*
X0078704Y0091170D01*
X0078840Y0091184D01*
X0078977Y0091194D01*
X0079115Y0091200D01*
X0079252Y0091202D01*
X0079389Y0091200D01*
X0079527Y0091194D01*
X0079664Y0091184D01*
X0079800Y0091170D01*
X0079937Y0091152D01*
X0080072Y0091130D01*
X0080207Y0091104D01*
X0080341Y0091075D01*
X0080475Y0091041D01*
X0080607Y0091004D01*
X0080738Y0090962D01*
X0080868Y0090917D01*
X0080996Y0090868D01*
X0081123Y0090816D01*
X0081248Y0090759D01*
X0081372Y0090700D01*
X0081494Y0090636D01*
X0081614Y0090569D01*
X0081732Y0090499D01*
X0081848Y0090425D01*
X0081962Y0090348D01*
X0082073Y0090267D01*
X0082182Y0090184D01*
X0082289Y0090097D01*
X0082392Y0090007D01*
X0082494Y0089914D01*
X0082592Y0089818D01*
X0082688Y0089720D01*
X0082781Y0089618D01*
X0082871Y0089515D01*
X0082958Y0089408D01*
X0083041Y0089299D01*
X0083122Y0089188D01*
X0083199Y0089074D01*
X0083273Y0088958D01*
X0083343Y0088840D01*
X0083410Y0088720D01*
X0083474Y0088598D01*
X0083533Y0088474D01*
X0083590Y0088349D01*
X0083642Y0088222D01*
X0083691Y0088094D01*
X0083736Y0087964D01*
X0083778Y0087833D01*
X0083815Y0087701D01*
X0083849Y0087567D01*
X0083878Y0087433D01*
X0083904Y0087298D01*
X0083926Y0087163D01*
X0083944Y0087026D01*
X0083958Y0086890D01*
X0083968Y0086753D01*
X0083974Y0086615D01*
X0083976Y0086478D01*
X0083974Y0086341D01*
X0083968Y0086203D01*
X0083958Y0086066D01*
X0083944Y0085930D01*
X0083926Y0085793D01*
X0083904Y0085658D01*
X0083878Y0085523D01*
X0083849Y0085389D01*
X0083815Y0085255D01*
X0083778Y0085123D01*
X0083736Y0084992D01*
X0083691Y0084862D01*
X0083642Y0084734D01*
X0083590Y0084607D01*
X0083533Y0084482D01*
X0083474Y0084358D01*
X0083410Y0084236D01*
X0083343Y0084116D01*
X0083273Y0083998D01*
X0083199Y0083882D01*
X0083122Y0083768D01*
X0083041Y0083657D01*
X0082958Y0083548D01*
X0082871Y0083441D01*
X0082781Y0083338D01*
X0082688Y0083236D01*
X0082592Y0083138D01*
X0082494Y0083042D01*
X0082392Y0082949D01*
X0082289Y0082859D01*
X0082182Y0082772D01*
X0082073Y0082689D01*
X0081962Y0082608D01*
X0081848Y0082531D01*
X0081732Y0082457D01*
X0081614Y0082387D01*
X0081494Y0082320D01*
X0081372Y0082256D01*
X0081248Y0082197D01*
X0081123Y0082140D01*
X0080996Y0082088D01*
X0080868Y0082039D01*
X0080738Y0081994D01*
X0080607Y0081952D01*
X0080475Y0081915D01*
X0080341Y0081881D01*
X0080207Y0081852D01*
X0080072Y0081826D01*
X0079937Y0081804D01*
X0079800Y0081786D01*
X0079664Y0081772D01*
X0079527Y0081762D01*
X0079389Y0081756D01*
X0079252Y0081754D01*
X0079115Y0081756D01*
X0078977Y0081762D01*
X0078840Y0081772D01*
X0078704Y0081786D01*
X0078567Y0081804D01*
X0078432Y0081826D01*
X0078297Y0081852D01*
X0078163Y0081881D01*
X0078029Y0081915D01*
X0077897Y0081952D01*
X0077766Y0081994D01*
X0077636Y0082039D01*
X0077508Y0082088D01*
X0077381Y0082140D01*
X0077256Y0082197D01*
X0077132Y0082256D01*
X0077010Y0082320D01*
X0076890Y0082387D01*
X0076772Y0082457D01*
X0076656Y0082531D01*
X0076542Y0082608D01*
X0076431Y0082689D01*
X0076322Y0082772D01*
X0076215Y0082859D01*
X0076112Y0082949D01*
X0076010Y0083042D01*
X0075912Y0083138D01*
X0075816Y0083236D01*
X0075723Y0083338D01*
X0075633Y0083441D01*
X0075546Y0083548D01*
X0075463Y0083657D01*
X0075382Y0083768D01*
X0075305Y0083882D01*
X0075231Y0083998D01*
X0075161Y0084116D01*
X0075094Y0084236D01*
X0075030Y0084358D01*
X0074971Y0084482D01*
X0074914Y0084607D01*
X0074862Y0084734D01*
X0074813Y0084862D01*
X0074768Y0084992D01*
X0074726Y0085123D01*
X0074689Y0085255D01*
X0074655Y0085389D01*
X0074626Y0085523D01*
X0074600Y0085658D01*
X0074578Y0085793D01*
X0074560Y0085930D01*
X0074546Y0086066D01*
X0074536Y0086203D01*
X0074530Y0086341D01*
X0074528Y0086478D01*
X0049528Y0086478D02*
X0049530Y0086615D01*
X0049536Y0086753D01*
X0049546Y0086890D01*
X0049560Y0087026D01*
X0049578Y0087163D01*
X0049600Y0087298D01*
X0049626Y0087433D01*
X0049655Y0087567D01*
X0049689Y0087701D01*
X0049726Y0087833D01*
X0049768Y0087964D01*
X0049813Y0088094D01*
X0049862Y0088222D01*
X0049914Y0088349D01*
X0049971Y0088474D01*
X0050030Y0088598D01*
X0050094Y0088720D01*
X0050161Y0088840D01*
X0050231Y0088958D01*
X0050305Y0089074D01*
X0050382Y0089188D01*
X0050463Y0089299D01*
X0050546Y0089408D01*
X0050633Y0089515D01*
X0050723Y0089618D01*
X0050816Y0089720D01*
X0050912Y0089818D01*
X0051010Y0089914D01*
X0051112Y0090007D01*
X0051215Y0090097D01*
X0051322Y0090184D01*
X0051431Y0090267D01*
X0051542Y0090348D01*
X0051656Y0090425D01*
X0051772Y0090499D01*
X0051890Y0090569D01*
X0052010Y0090636D01*
X0052132Y0090700D01*
X0052256Y0090759D01*
X0052381Y0090816D01*
X0052508Y0090868D01*
X0052636Y0090917D01*
X0052766Y0090962D01*
X0052897Y0091004D01*
X0053029Y0091041D01*
X0053163Y0091075D01*
X0053297Y0091104D01*
X0053432Y0091130D01*
X0053567Y0091152D01*
X0053704Y0091170D01*
X0053840Y0091184D01*
X0053977Y0091194D01*
X0054115Y0091200D01*
X0054252Y0091202D01*
X0054389Y0091200D01*
X0054527Y0091194D01*
X0054664Y0091184D01*
X0054800Y0091170D01*
X0054937Y0091152D01*
X0055072Y0091130D01*
X0055207Y0091104D01*
X0055341Y0091075D01*
X0055475Y0091041D01*
X0055607Y0091004D01*
X0055738Y0090962D01*
X0055868Y0090917D01*
X0055996Y0090868D01*
X0056123Y0090816D01*
X0056248Y0090759D01*
X0056372Y0090700D01*
X0056494Y0090636D01*
X0056614Y0090569D01*
X0056732Y0090499D01*
X0056848Y0090425D01*
X0056962Y0090348D01*
X0057073Y0090267D01*
X0057182Y0090184D01*
X0057289Y0090097D01*
X0057392Y0090007D01*
X0057494Y0089914D01*
X0057592Y0089818D01*
X0057688Y0089720D01*
X0057781Y0089618D01*
X0057871Y0089515D01*
X0057958Y0089408D01*
X0058041Y0089299D01*
X0058122Y0089188D01*
X0058199Y0089074D01*
X0058273Y0088958D01*
X0058343Y0088840D01*
X0058410Y0088720D01*
X0058474Y0088598D01*
X0058533Y0088474D01*
X0058590Y0088349D01*
X0058642Y0088222D01*
X0058691Y0088094D01*
X0058736Y0087964D01*
X0058778Y0087833D01*
X0058815Y0087701D01*
X0058849Y0087567D01*
X0058878Y0087433D01*
X0058904Y0087298D01*
X0058926Y0087163D01*
X0058944Y0087026D01*
X0058958Y0086890D01*
X0058968Y0086753D01*
X0058974Y0086615D01*
X0058976Y0086478D01*
X0058974Y0086341D01*
X0058968Y0086203D01*
X0058958Y0086066D01*
X0058944Y0085930D01*
X0058926Y0085793D01*
X0058904Y0085658D01*
X0058878Y0085523D01*
X0058849Y0085389D01*
X0058815Y0085255D01*
X0058778Y0085123D01*
X0058736Y0084992D01*
X0058691Y0084862D01*
X0058642Y0084734D01*
X0058590Y0084607D01*
X0058533Y0084482D01*
X0058474Y0084358D01*
X0058410Y0084236D01*
X0058343Y0084116D01*
X0058273Y0083998D01*
X0058199Y0083882D01*
X0058122Y0083768D01*
X0058041Y0083657D01*
X0057958Y0083548D01*
X0057871Y0083441D01*
X0057781Y0083338D01*
X0057688Y0083236D01*
X0057592Y0083138D01*
X0057494Y0083042D01*
X0057392Y0082949D01*
X0057289Y0082859D01*
X0057182Y0082772D01*
X0057073Y0082689D01*
X0056962Y0082608D01*
X0056848Y0082531D01*
X0056732Y0082457D01*
X0056614Y0082387D01*
X0056494Y0082320D01*
X0056372Y0082256D01*
X0056248Y0082197D01*
X0056123Y0082140D01*
X0055996Y0082088D01*
X0055868Y0082039D01*
X0055738Y0081994D01*
X0055607Y0081952D01*
X0055475Y0081915D01*
X0055341Y0081881D01*
X0055207Y0081852D01*
X0055072Y0081826D01*
X0054937Y0081804D01*
X0054800Y0081786D01*
X0054664Y0081772D01*
X0054527Y0081762D01*
X0054389Y0081756D01*
X0054252Y0081754D01*
X0054115Y0081756D01*
X0053977Y0081762D01*
X0053840Y0081772D01*
X0053704Y0081786D01*
X0053567Y0081804D01*
X0053432Y0081826D01*
X0053297Y0081852D01*
X0053163Y0081881D01*
X0053029Y0081915D01*
X0052897Y0081952D01*
X0052766Y0081994D01*
X0052636Y0082039D01*
X0052508Y0082088D01*
X0052381Y0082140D01*
X0052256Y0082197D01*
X0052132Y0082256D01*
X0052010Y0082320D01*
X0051890Y0082387D01*
X0051772Y0082457D01*
X0051656Y0082531D01*
X0051542Y0082608D01*
X0051431Y0082689D01*
X0051322Y0082772D01*
X0051215Y0082859D01*
X0051112Y0082949D01*
X0051010Y0083042D01*
X0050912Y0083138D01*
X0050816Y0083236D01*
X0050723Y0083338D01*
X0050633Y0083441D01*
X0050546Y0083548D01*
X0050463Y0083657D01*
X0050382Y0083768D01*
X0050305Y0083882D01*
X0050231Y0083998D01*
X0050161Y0084116D01*
X0050094Y0084236D01*
X0050030Y0084358D01*
X0049971Y0084482D01*
X0049914Y0084607D01*
X0049862Y0084734D01*
X0049813Y0084862D01*
X0049768Y0084992D01*
X0049726Y0085123D01*
X0049689Y0085255D01*
X0049655Y0085389D01*
X0049626Y0085523D01*
X0049600Y0085658D01*
X0049578Y0085793D01*
X0049560Y0085930D01*
X0049546Y0086066D01*
X0049536Y0086203D01*
X0049530Y0086341D01*
X0049528Y0086478D01*
X0215352Y0043703D02*
X0215354Y0043863D01*
X0215360Y0044022D01*
X0215370Y0044181D01*
X0215384Y0044340D01*
X0215402Y0044499D01*
X0215423Y0044657D01*
X0215449Y0044814D01*
X0215479Y0044971D01*
X0215512Y0045127D01*
X0215550Y0045282D01*
X0215591Y0045436D01*
X0215636Y0045589D01*
X0215685Y0045741D01*
X0215738Y0045892D01*
X0215794Y0046041D01*
X0215855Y0046189D01*
X0215918Y0046335D01*
X0215986Y0046480D01*
X0216057Y0046623D01*
X0216131Y0046764D01*
X0216209Y0046903D01*
X0216291Y0047040D01*
X0216376Y0047175D01*
X0216464Y0047308D01*
X0216556Y0047439D01*
X0216650Y0047567D01*
X0216748Y0047693D01*
X0216849Y0047817D01*
X0216953Y0047938D01*
X0217060Y0048056D01*
X0217170Y0048172D01*
X0217283Y0048285D01*
X0217399Y0048395D01*
X0217517Y0048502D01*
X0217638Y0048606D01*
X0217762Y0048707D01*
X0217888Y0048805D01*
X0218016Y0048899D01*
X0218147Y0048991D01*
X0218280Y0049079D01*
X0218415Y0049164D01*
X0218552Y0049246D01*
X0218691Y0049324D01*
X0218832Y0049398D01*
X0218975Y0049469D01*
X0219120Y0049537D01*
X0219266Y0049600D01*
X0219414Y0049661D01*
X0219563Y0049717D01*
X0219714Y0049770D01*
X0219866Y0049819D01*
X0220019Y0049864D01*
X0220173Y0049905D01*
X0220328Y0049943D01*
X0220484Y0049976D01*
X0220641Y0050006D01*
X0220798Y0050032D01*
X0220956Y0050053D01*
X0221115Y0050071D01*
X0221274Y0050085D01*
X0221433Y0050095D01*
X0221592Y0050101D01*
X0221752Y0050103D01*
X0221912Y0050101D01*
X0222071Y0050095D01*
X0222230Y0050085D01*
X0222389Y0050071D01*
X0222548Y0050053D01*
X0222706Y0050032D01*
X0222863Y0050006D01*
X0223020Y0049976D01*
X0223176Y0049943D01*
X0223331Y0049905D01*
X0223485Y0049864D01*
X0223638Y0049819D01*
X0223790Y0049770D01*
X0223941Y0049717D01*
X0224090Y0049661D01*
X0224238Y0049600D01*
X0224384Y0049537D01*
X0224529Y0049469D01*
X0224672Y0049398D01*
X0224813Y0049324D01*
X0224952Y0049246D01*
X0225089Y0049164D01*
X0225224Y0049079D01*
X0225357Y0048991D01*
X0225488Y0048899D01*
X0225616Y0048805D01*
X0225742Y0048707D01*
X0225866Y0048606D01*
X0225987Y0048502D01*
X0226105Y0048395D01*
X0226221Y0048285D01*
X0226334Y0048172D01*
X0226444Y0048056D01*
X0226551Y0047938D01*
X0226655Y0047817D01*
X0226756Y0047693D01*
X0226854Y0047567D01*
X0226948Y0047439D01*
X0227040Y0047308D01*
X0227128Y0047175D01*
X0227213Y0047040D01*
X0227295Y0046903D01*
X0227373Y0046764D01*
X0227447Y0046623D01*
X0227518Y0046480D01*
X0227586Y0046335D01*
X0227649Y0046189D01*
X0227710Y0046041D01*
X0227766Y0045892D01*
X0227819Y0045741D01*
X0227868Y0045589D01*
X0227913Y0045436D01*
X0227954Y0045282D01*
X0227992Y0045127D01*
X0228025Y0044971D01*
X0228055Y0044814D01*
X0228081Y0044657D01*
X0228102Y0044499D01*
X0228120Y0044340D01*
X0228134Y0044181D01*
X0228144Y0044022D01*
X0228150Y0043863D01*
X0228152Y0043703D01*
X0228150Y0043543D01*
X0228144Y0043384D01*
X0228134Y0043225D01*
X0228120Y0043066D01*
X0228102Y0042907D01*
X0228081Y0042749D01*
X0228055Y0042592D01*
X0228025Y0042435D01*
X0227992Y0042279D01*
X0227954Y0042124D01*
X0227913Y0041970D01*
X0227868Y0041817D01*
X0227819Y0041665D01*
X0227766Y0041514D01*
X0227710Y0041365D01*
X0227649Y0041217D01*
X0227586Y0041071D01*
X0227518Y0040926D01*
X0227447Y0040783D01*
X0227373Y0040642D01*
X0227295Y0040503D01*
X0227213Y0040366D01*
X0227128Y0040231D01*
X0227040Y0040098D01*
X0226948Y0039967D01*
X0226854Y0039839D01*
X0226756Y0039713D01*
X0226655Y0039589D01*
X0226551Y0039468D01*
X0226444Y0039350D01*
X0226334Y0039234D01*
X0226221Y0039121D01*
X0226105Y0039011D01*
X0225987Y0038904D01*
X0225866Y0038800D01*
X0225742Y0038699D01*
X0225616Y0038601D01*
X0225488Y0038507D01*
X0225357Y0038415D01*
X0225224Y0038327D01*
X0225089Y0038242D01*
X0224952Y0038160D01*
X0224813Y0038082D01*
X0224672Y0038008D01*
X0224529Y0037937D01*
X0224384Y0037869D01*
X0224238Y0037806D01*
X0224090Y0037745D01*
X0223941Y0037689D01*
X0223790Y0037636D01*
X0223638Y0037587D01*
X0223485Y0037542D01*
X0223331Y0037501D01*
X0223176Y0037463D01*
X0223020Y0037430D01*
X0222863Y0037400D01*
X0222706Y0037374D01*
X0222548Y0037353D01*
X0222389Y0037335D01*
X0222230Y0037321D01*
X0222071Y0037311D01*
X0221912Y0037305D01*
X0221752Y0037303D01*
X0221592Y0037305D01*
X0221433Y0037311D01*
X0221274Y0037321D01*
X0221115Y0037335D01*
X0220956Y0037353D01*
X0220798Y0037374D01*
X0220641Y0037400D01*
X0220484Y0037430D01*
X0220328Y0037463D01*
X0220173Y0037501D01*
X0220019Y0037542D01*
X0219866Y0037587D01*
X0219714Y0037636D01*
X0219563Y0037689D01*
X0219414Y0037745D01*
X0219266Y0037806D01*
X0219120Y0037869D01*
X0218975Y0037937D01*
X0218832Y0038008D01*
X0218691Y0038082D01*
X0218552Y0038160D01*
X0218415Y0038242D01*
X0218280Y0038327D01*
X0218147Y0038415D01*
X0218016Y0038507D01*
X0217888Y0038601D01*
X0217762Y0038699D01*
X0217638Y0038800D01*
X0217517Y0038904D01*
X0217399Y0039011D01*
X0217283Y0039121D01*
X0217170Y0039234D01*
X0217060Y0039350D01*
X0216953Y0039468D01*
X0216849Y0039589D01*
X0216748Y0039713D01*
X0216650Y0039839D01*
X0216556Y0039967D01*
X0216464Y0040098D01*
X0216376Y0040231D01*
X0216291Y0040366D01*
X0216209Y0040503D01*
X0216131Y0040642D01*
X0216057Y0040783D01*
X0215986Y0040926D01*
X0215918Y0041071D01*
X0215855Y0041217D01*
X0215794Y0041365D01*
X0215738Y0041514D01*
X0215685Y0041665D01*
X0215636Y0041817D01*
X0215591Y0041970D01*
X0215550Y0042124D01*
X0215512Y0042279D01*
X0215479Y0042435D01*
X0215449Y0042592D01*
X0215423Y0042749D01*
X0215402Y0042907D01*
X0215384Y0043066D01*
X0215370Y0043225D01*
X0215360Y0043384D01*
X0215354Y0043543D01*
X0215352Y0043703D01*
X0253971Y0052014D02*
X0253973Y0052102D01*
X0253979Y0052190D01*
X0253989Y0052278D01*
X0254003Y0052366D01*
X0254020Y0052452D01*
X0254042Y0052538D01*
X0254067Y0052622D01*
X0254097Y0052706D01*
X0254129Y0052788D01*
X0254166Y0052868D01*
X0254206Y0052947D01*
X0254250Y0053024D01*
X0254297Y0053099D01*
X0254347Y0053171D01*
X0254401Y0053242D01*
X0254457Y0053309D01*
X0254517Y0053375D01*
X0254579Y0053437D01*
X0254645Y0053497D01*
X0254712Y0053553D01*
X0254783Y0053607D01*
X0254855Y0053657D01*
X0254930Y0053704D01*
X0255007Y0053748D01*
X0255086Y0053788D01*
X0255166Y0053825D01*
X0255248Y0053857D01*
X0255332Y0053887D01*
X0255416Y0053912D01*
X0255502Y0053934D01*
X0255588Y0053951D01*
X0255676Y0053965D01*
X0255764Y0053975D01*
X0255852Y0053981D01*
X0255940Y0053983D01*
X0256028Y0053981D01*
X0256116Y0053975D01*
X0256204Y0053965D01*
X0256292Y0053951D01*
X0256378Y0053934D01*
X0256464Y0053912D01*
X0256548Y0053887D01*
X0256632Y0053857D01*
X0256714Y0053825D01*
X0256794Y0053788D01*
X0256873Y0053748D01*
X0256950Y0053704D01*
X0257025Y0053657D01*
X0257097Y0053607D01*
X0257168Y0053553D01*
X0257235Y0053497D01*
X0257301Y0053437D01*
X0257363Y0053375D01*
X0257423Y0053309D01*
X0257479Y0053242D01*
X0257533Y0053171D01*
X0257583Y0053099D01*
X0257630Y0053024D01*
X0257674Y0052947D01*
X0257714Y0052868D01*
X0257751Y0052788D01*
X0257783Y0052706D01*
X0257813Y0052622D01*
X0257838Y0052538D01*
X0257860Y0052452D01*
X0257877Y0052366D01*
X0257891Y0052278D01*
X0257901Y0052190D01*
X0257907Y0052102D01*
X0257909Y0052014D01*
X0257907Y0051926D01*
X0257901Y0051838D01*
X0257891Y0051750D01*
X0257877Y0051662D01*
X0257860Y0051576D01*
X0257838Y0051490D01*
X0257813Y0051406D01*
X0257783Y0051322D01*
X0257751Y0051240D01*
X0257714Y0051160D01*
X0257674Y0051081D01*
X0257630Y0051004D01*
X0257583Y0050929D01*
X0257533Y0050857D01*
X0257479Y0050786D01*
X0257423Y0050719D01*
X0257363Y0050653D01*
X0257301Y0050591D01*
X0257235Y0050531D01*
X0257168Y0050475D01*
X0257097Y0050421D01*
X0257025Y0050371D01*
X0256950Y0050324D01*
X0256873Y0050280D01*
X0256794Y0050240D01*
X0256714Y0050203D01*
X0256632Y0050171D01*
X0256548Y0050141D01*
X0256464Y0050116D01*
X0256378Y0050094D01*
X0256292Y0050077D01*
X0256204Y0050063D01*
X0256116Y0050053D01*
X0256028Y0050047D01*
X0255940Y0050045D01*
X0255852Y0050047D01*
X0255764Y0050053D01*
X0255676Y0050063D01*
X0255588Y0050077D01*
X0255502Y0050094D01*
X0255416Y0050116D01*
X0255332Y0050141D01*
X0255248Y0050171D01*
X0255166Y0050203D01*
X0255086Y0050240D01*
X0255007Y0050280D01*
X0254930Y0050324D01*
X0254855Y0050371D01*
X0254783Y0050421D01*
X0254712Y0050475D01*
X0254645Y0050531D01*
X0254579Y0050591D01*
X0254517Y0050653D01*
X0254457Y0050719D01*
X0254401Y0050786D01*
X0254347Y0050857D01*
X0254297Y0050929D01*
X0254250Y0051004D01*
X0254206Y0051081D01*
X0254166Y0051160D01*
X0254129Y0051240D01*
X0254097Y0051322D01*
X0254067Y0051406D01*
X0254042Y0051490D01*
X0254020Y0051576D01*
X0254003Y0051662D01*
X0253989Y0051750D01*
X0253979Y0051838D01*
X0253973Y0051926D01*
X0253971Y0052014D01*
X0253971Y0028394D02*
X0253973Y0028482D01*
X0253979Y0028570D01*
X0253989Y0028658D01*
X0254003Y0028746D01*
X0254020Y0028832D01*
X0254042Y0028918D01*
X0254067Y0029002D01*
X0254097Y0029086D01*
X0254129Y0029168D01*
X0254166Y0029248D01*
X0254206Y0029327D01*
X0254250Y0029404D01*
X0254297Y0029479D01*
X0254347Y0029551D01*
X0254401Y0029622D01*
X0254457Y0029689D01*
X0254517Y0029755D01*
X0254579Y0029817D01*
X0254645Y0029877D01*
X0254712Y0029933D01*
X0254783Y0029987D01*
X0254855Y0030037D01*
X0254930Y0030084D01*
X0255007Y0030128D01*
X0255086Y0030168D01*
X0255166Y0030205D01*
X0255248Y0030237D01*
X0255332Y0030267D01*
X0255416Y0030292D01*
X0255502Y0030314D01*
X0255588Y0030331D01*
X0255676Y0030345D01*
X0255764Y0030355D01*
X0255852Y0030361D01*
X0255940Y0030363D01*
X0256028Y0030361D01*
X0256116Y0030355D01*
X0256204Y0030345D01*
X0256292Y0030331D01*
X0256378Y0030314D01*
X0256464Y0030292D01*
X0256548Y0030267D01*
X0256632Y0030237D01*
X0256714Y0030205D01*
X0256794Y0030168D01*
X0256873Y0030128D01*
X0256950Y0030084D01*
X0257025Y0030037D01*
X0257097Y0029987D01*
X0257168Y0029933D01*
X0257235Y0029877D01*
X0257301Y0029817D01*
X0257363Y0029755D01*
X0257423Y0029689D01*
X0257479Y0029622D01*
X0257533Y0029551D01*
X0257583Y0029479D01*
X0257630Y0029404D01*
X0257674Y0029327D01*
X0257714Y0029248D01*
X0257751Y0029168D01*
X0257783Y0029086D01*
X0257813Y0029002D01*
X0257838Y0028918D01*
X0257860Y0028832D01*
X0257877Y0028746D01*
X0257891Y0028658D01*
X0257901Y0028570D01*
X0257907Y0028482D01*
X0257909Y0028394D01*
X0257907Y0028306D01*
X0257901Y0028218D01*
X0257891Y0028130D01*
X0257877Y0028042D01*
X0257860Y0027956D01*
X0257838Y0027870D01*
X0257813Y0027786D01*
X0257783Y0027702D01*
X0257751Y0027620D01*
X0257714Y0027540D01*
X0257674Y0027461D01*
X0257630Y0027384D01*
X0257583Y0027309D01*
X0257533Y0027237D01*
X0257479Y0027166D01*
X0257423Y0027099D01*
X0257363Y0027033D01*
X0257301Y0026971D01*
X0257235Y0026911D01*
X0257168Y0026855D01*
X0257097Y0026801D01*
X0257025Y0026751D01*
X0256950Y0026704D01*
X0256873Y0026660D01*
X0256794Y0026620D01*
X0256714Y0026583D01*
X0256632Y0026551D01*
X0256548Y0026521D01*
X0256464Y0026496D01*
X0256378Y0026474D01*
X0256292Y0026457D01*
X0256204Y0026443D01*
X0256116Y0026433D01*
X0256028Y0026427D01*
X0255940Y0026425D01*
X0255852Y0026427D01*
X0255764Y0026433D01*
X0255676Y0026443D01*
X0255588Y0026457D01*
X0255502Y0026474D01*
X0255416Y0026496D01*
X0255332Y0026521D01*
X0255248Y0026551D01*
X0255166Y0026583D01*
X0255086Y0026620D01*
X0255007Y0026660D01*
X0254930Y0026704D01*
X0254855Y0026751D01*
X0254783Y0026801D01*
X0254712Y0026855D01*
X0254645Y0026911D01*
X0254579Y0026971D01*
X0254517Y0027033D01*
X0254457Y0027099D01*
X0254401Y0027166D01*
X0254347Y0027237D01*
X0254297Y0027309D01*
X0254250Y0027384D01*
X0254206Y0027461D01*
X0254166Y0027540D01*
X0254129Y0027620D01*
X0254097Y0027702D01*
X0254067Y0027786D01*
X0254042Y0027870D01*
X0254020Y0027956D01*
X0254003Y0028042D01*
X0253989Y0028130D01*
X0253979Y0028218D01*
X0253973Y0028306D01*
X0253971Y0028394D01*
X0291654Y0034579D02*
X0291656Y0034663D01*
X0291662Y0034746D01*
X0291672Y0034829D01*
X0291686Y0034912D01*
X0291703Y0034994D01*
X0291725Y0035075D01*
X0291750Y0035154D01*
X0291779Y0035233D01*
X0291812Y0035310D01*
X0291848Y0035385D01*
X0291888Y0035459D01*
X0291931Y0035531D01*
X0291978Y0035600D01*
X0292028Y0035667D01*
X0292081Y0035732D01*
X0292137Y0035794D01*
X0292195Y0035854D01*
X0292257Y0035911D01*
X0292321Y0035964D01*
X0292388Y0036015D01*
X0292457Y0036062D01*
X0292528Y0036107D01*
X0292601Y0036147D01*
X0292676Y0036184D01*
X0292753Y0036218D01*
X0292831Y0036248D01*
X0292910Y0036274D01*
X0292991Y0036297D01*
X0293073Y0036315D01*
X0293155Y0036330D01*
X0293238Y0036341D01*
X0293321Y0036348D01*
X0293405Y0036351D01*
X0293489Y0036350D01*
X0293572Y0036345D01*
X0293656Y0036336D01*
X0293738Y0036323D01*
X0293820Y0036307D01*
X0293901Y0036286D01*
X0293982Y0036262D01*
X0294060Y0036234D01*
X0294138Y0036202D01*
X0294214Y0036166D01*
X0294288Y0036127D01*
X0294360Y0036085D01*
X0294430Y0036039D01*
X0294498Y0035990D01*
X0294563Y0035938D01*
X0294626Y0035883D01*
X0294686Y0035825D01*
X0294744Y0035764D01*
X0294798Y0035700D01*
X0294850Y0035634D01*
X0294898Y0035566D01*
X0294943Y0035495D01*
X0294984Y0035422D01*
X0295023Y0035348D01*
X0295057Y0035272D01*
X0295088Y0035194D01*
X0295115Y0035115D01*
X0295139Y0035034D01*
X0295158Y0034953D01*
X0295174Y0034871D01*
X0295186Y0034788D01*
X0295194Y0034704D01*
X0295198Y0034621D01*
X0295198Y0034537D01*
X0295194Y0034454D01*
X0295186Y0034370D01*
X0295174Y0034287D01*
X0295158Y0034205D01*
X0295139Y0034124D01*
X0295115Y0034043D01*
X0295088Y0033964D01*
X0295057Y0033886D01*
X0295023Y0033810D01*
X0294984Y0033736D01*
X0294943Y0033663D01*
X0294898Y0033592D01*
X0294850Y0033524D01*
X0294798Y0033458D01*
X0294744Y0033394D01*
X0294686Y0033333D01*
X0294626Y0033275D01*
X0294563Y0033220D01*
X0294498Y0033168D01*
X0294430Y0033119D01*
X0294360Y0033073D01*
X0294288Y0033031D01*
X0294214Y0032992D01*
X0294138Y0032956D01*
X0294060Y0032924D01*
X0293982Y0032896D01*
X0293901Y0032872D01*
X0293820Y0032851D01*
X0293738Y0032835D01*
X0293656Y0032822D01*
X0293572Y0032813D01*
X0293489Y0032808D01*
X0293405Y0032807D01*
X0293321Y0032810D01*
X0293238Y0032817D01*
X0293155Y0032828D01*
X0293073Y0032843D01*
X0292991Y0032861D01*
X0292910Y0032884D01*
X0292831Y0032910D01*
X0292753Y0032940D01*
X0292676Y0032974D01*
X0292601Y0033011D01*
X0292528Y0033051D01*
X0292457Y0033096D01*
X0292388Y0033143D01*
X0292321Y0033194D01*
X0292257Y0033247D01*
X0292195Y0033304D01*
X0292137Y0033364D01*
X0292081Y0033426D01*
X0292028Y0033491D01*
X0291978Y0033558D01*
X0291931Y0033627D01*
X0291888Y0033699D01*
X0291848Y0033773D01*
X0291812Y0033848D01*
X0291779Y0033925D01*
X0291750Y0034004D01*
X0291725Y0034083D01*
X0291703Y0034164D01*
X0291686Y0034246D01*
X0291672Y0034329D01*
X0291662Y0034412D01*
X0291656Y0034495D01*
X0291654Y0034579D01*
X0305433Y0034579D02*
X0305435Y0034663D01*
X0305441Y0034746D01*
X0305451Y0034829D01*
X0305465Y0034912D01*
X0305482Y0034994D01*
X0305504Y0035075D01*
X0305529Y0035154D01*
X0305558Y0035233D01*
X0305591Y0035310D01*
X0305627Y0035385D01*
X0305667Y0035459D01*
X0305710Y0035531D01*
X0305757Y0035600D01*
X0305807Y0035667D01*
X0305860Y0035732D01*
X0305916Y0035794D01*
X0305974Y0035854D01*
X0306036Y0035911D01*
X0306100Y0035964D01*
X0306167Y0036015D01*
X0306236Y0036062D01*
X0306307Y0036107D01*
X0306380Y0036147D01*
X0306455Y0036184D01*
X0306532Y0036218D01*
X0306610Y0036248D01*
X0306689Y0036274D01*
X0306770Y0036297D01*
X0306852Y0036315D01*
X0306934Y0036330D01*
X0307017Y0036341D01*
X0307100Y0036348D01*
X0307184Y0036351D01*
X0307268Y0036350D01*
X0307351Y0036345D01*
X0307435Y0036336D01*
X0307517Y0036323D01*
X0307599Y0036307D01*
X0307680Y0036286D01*
X0307761Y0036262D01*
X0307839Y0036234D01*
X0307917Y0036202D01*
X0307993Y0036166D01*
X0308067Y0036127D01*
X0308139Y0036085D01*
X0308209Y0036039D01*
X0308277Y0035990D01*
X0308342Y0035938D01*
X0308405Y0035883D01*
X0308465Y0035825D01*
X0308523Y0035764D01*
X0308577Y0035700D01*
X0308629Y0035634D01*
X0308677Y0035566D01*
X0308722Y0035495D01*
X0308763Y0035422D01*
X0308802Y0035348D01*
X0308836Y0035272D01*
X0308867Y0035194D01*
X0308894Y0035115D01*
X0308918Y0035034D01*
X0308937Y0034953D01*
X0308953Y0034871D01*
X0308965Y0034788D01*
X0308973Y0034704D01*
X0308977Y0034621D01*
X0308977Y0034537D01*
X0308973Y0034454D01*
X0308965Y0034370D01*
X0308953Y0034287D01*
X0308937Y0034205D01*
X0308918Y0034124D01*
X0308894Y0034043D01*
X0308867Y0033964D01*
X0308836Y0033886D01*
X0308802Y0033810D01*
X0308763Y0033736D01*
X0308722Y0033663D01*
X0308677Y0033592D01*
X0308629Y0033524D01*
X0308577Y0033458D01*
X0308523Y0033394D01*
X0308465Y0033333D01*
X0308405Y0033275D01*
X0308342Y0033220D01*
X0308277Y0033168D01*
X0308209Y0033119D01*
X0308139Y0033073D01*
X0308067Y0033031D01*
X0307993Y0032992D01*
X0307917Y0032956D01*
X0307839Y0032924D01*
X0307761Y0032896D01*
X0307680Y0032872D01*
X0307599Y0032851D01*
X0307517Y0032835D01*
X0307435Y0032822D01*
X0307351Y0032813D01*
X0307268Y0032808D01*
X0307184Y0032807D01*
X0307100Y0032810D01*
X0307017Y0032817D01*
X0306934Y0032828D01*
X0306852Y0032843D01*
X0306770Y0032861D01*
X0306689Y0032884D01*
X0306610Y0032910D01*
X0306532Y0032940D01*
X0306455Y0032974D01*
X0306380Y0033011D01*
X0306307Y0033051D01*
X0306236Y0033096D01*
X0306167Y0033143D01*
X0306100Y0033194D01*
X0306036Y0033247D01*
X0305974Y0033304D01*
X0305916Y0033364D01*
X0305860Y0033426D01*
X0305807Y0033491D01*
X0305757Y0033558D01*
X0305710Y0033627D01*
X0305667Y0033699D01*
X0305627Y0033773D01*
X0305591Y0033848D01*
X0305558Y0033925D01*
X0305529Y0034004D01*
X0305504Y0034083D01*
X0305482Y0034164D01*
X0305465Y0034246D01*
X0305451Y0034329D01*
X0305441Y0034412D01*
X0305435Y0034495D01*
X0305433Y0034579D01*
X0335177Y0026454D02*
X0335179Y0026538D01*
X0335185Y0026621D01*
X0335195Y0026704D01*
X0335209Y0026787D01*
X0335226Y0026869D01*
X0335248Y0026950D01*
X0335273Y0027029D01*
X0335302Y0027108D01*
X0335335Y0027185D01*
X0335371Y0027260D01*
X0335411Y0027334D01*
X0335454Y0027406D01*
X0335501Y0027475D01*
X0335551Y0027542D01*
X0335604Y0027607D01*
X0335660Y0027669D01*
X0335718Y0027729D01*
X0335780Y0027786D01*
X0335844Y0027839D01*
X0335911Y0027890D01*
X0335980Y0027937D01*
X0336051Y0027982D01*
X0336124Y0028022D01*
X0336199Y0028059D01*
X0336276Y0028093D01*
X0336354Y0028123D01*
X0336433Y0028149D01*
X0336514Y0028172D01*
X0336596Y0028190D01*
X0336678Y0028205D01*
X0336761Y0028216D01*
X0336844Y0028223D01*
X0336928Y0028226D01*
X0337012Y0028225D01*
X0337095Y0028220D01*
X0337179Y0028211D01*
X0337261Y0028198D01*
X0337343Y0028182D01*
X0337424Y0028161D01*
X0337505Y0028137D01*
X0337583Y0028109D01*
X0337661Y0028077D01*
X0337737Y0028041D01*
X0337811Y0028002D01*
X0337883Y0027960D01*
X0337953Y0027914D01*
X0338021Y0027865D01*
X0338086Y0027813D01*
X0338149Y0027758D01*
X0338209Y0027700D01*
X0338267Y0027639D01*
X0338321Y0027575D01*
X0338373Y0027509D01*
X0338421Y0027441D01*
X0338466Y0027370D01*
X0338507Y0027297D01*
X0338546Y0027223D01*
X0338580Y0027147D01*
X0338611Y0027069D01*
X0338638Y0026990D01*
X0338662Y0026909D01*
X0338681Y0026828D01*
X0338697Y0026746D01*
X0338709Y0026663D01*
X0338717Y0026579D01*
X0338721Y0026496D01*
X0338721Y0026412D01*
X0338717Y0026329D01*
X0338709Y0026245D01*
X0338697Y0026162D01*
X0338681Y0026080D01*
X0338662Y0025999D01*
X0338638Y0025918D01*
X0338611Y0025839D01*
X0338580Y0025761D01*
X0338546Y0025685D01*
X0338507Y0025611D01*
X0338466Y0025538D01*
X0338421Y0025467D01*
X0338373Y0025399D01*
X0338321Y0025333D01*
X0338267Y0025269D01*
X0338209Y0025208D01*
X0338149Y0025150D01*
X0338086Y0025095D01*
X0338021Y0025043D01*
X0337953Y0024994D01*
X0337883Y0024948D01*
X0337811Y0024906D01*
X0337737Y0024867D01*
X0337661Y0024831D01*
X0337583Y0024799D01*
X0337505Y0024771D01*
X0337424Y0024747D01*
X0337343Y0024726D01*
X0337261Y0024710D01*
X0337179Y0024697D01*
X0337095Y0024688D01*
X0337012Y0024683D01*
X0336928Y0024682D01*
X0336844Y0024685D01*
X0336761Y0024692D01*
X0336678Y0024703D01*
X0336596Y0024718D01*
X0336514Y0024736D01*
X0336433Y0024759D01*
X0336354Y0024785D01*
X0336276Y0024815D01*
X0336199Y0024849D01*
X0336124Y0024886D01*
X0336051Y0024926D01*
X0335980Y0024971D01*
X0335911Y0025018D01*
X0335844Y0025069D01*
X0335780Y0025122D01*
X0335718Y0025179D01*
X0335660Y0025239D01*
X0335604Y0025301D01*
X0335551Y0025366D01*
X0335501Y0025433D01*
X0335454Y0025502D01*
X0335411Y0025574D01*
X0335371Y0025648D01*
X0335335Y0025723D01*
X0335302Y0025800D01*
X0335273Y0025879D01*
X0335248Y0025958D01*
X0335226Y0026039D01*
X0335209Y0026121D01*
X0335195Y0026204D01*
X0335185Y0026287D01*
X0335179Y0026370D01*
X0335177Y0026454D01*
X0351909Y0026454D02*
X0351911Y0026538D01*
X0351917Y0026621D01*
X0351927Y0026704D01*
X0351941Y0026787D01*
X0351958Y0026869D01*
X0351980Y0026950D01*
X0352005Y0027029D01*
X0352034Y0027108D01*
X0352067Y0027185D01*
X0352103Y0027260D01*
X0352143Y0027334D01*
X0352186Y0027406D01*
X0352233Y0027475D01*
X0352283Y0027542D01*
X0352336Y0027607D01*
X0352392Y0027669D01*
X0352450Y0027729D01*
X0352512Y0027786D01*
X0352576Y0027839D01*
X0352643Y0027890D01*
X0352712Y0027937D01*
X0352783Y0027982D01*
X0352856Y0028022D01*
X0352931Y0028059D01*
X0353008Y0028093D01*
X0353086Y0028123D01*
X0353165Y0028149D01*
X0353246Y0028172D01*
X0353328Y0028190D01*
X0353410Y0028205D01*
X0353493Y0028216D01*
X0353576Y0028223D01*
X0353660Y0028226D01*
X0353744Y0028225D01*
X0353827Y0028220D01*
X0353911Y0028211D01*
X0353993Y0028198D01*
X0354075Y0028182D01*
X0354156Y0028161D01*
X0354237Y0028137D01*
X0354315Y0028109D01*
X0354393Y0028077D01*
X0354469Y0028041D01*
X0354543Y0028002D01*
X0354615Y0027960D01*
X0354685Y0027914D01*
X0354753Y0027865D01*
X0354818Y0027813D01*
X0354881Y0027758D01*
X0354941Y0027700D01*
X0354999Y0027639D01*
X0355053Y0027575D01*
X0355105Y0027509D01*
X0355153Y0027441D01*
X0355198Y0027370D01*
X0355239Y0027297D01*
X0355278Y0027223D01*
X0355312Y0027147D01*
X0355343Y0027069D01*
X0355370Y0026990D01*
X0355394Y0026909D01*
X0355413Y0026828D01*
X0355429Y0026746D01*
X0355441Y0026663D01*
X0355449Y0026579D01*
X0355453Y0026496D01*
X0355453Y0026412D01*
X0355449Y0026329D01*
X0355441Y0026245D01*
X0355429Y0026162D01*
X0355413Y0026080D01*
X0355394Y0025999D01*
X0355370Y0025918D01*
X0355343Y0025839D01*
X0355312Y0025761D01*
X0355278Y0025685D01*
X0355239Y0025611D01*
X0355198Y0025538D01*
X0355153Y0025467D01*
X0355105Y0025399D01*
X0355053Y0025333D01*
X0354999Y0025269D01*
X0354941Y0025208D01*
X0354881Y0025150D01*
X0354818Y0025095D01*
X0354753Y0025043D01*
X0354685Y0024994D01*
X0354615Y0024948D01*
X0354543Y0024906D01*
X0354469Y0024867D01*
X0354393Y0024831D01*
X0354315Y0024799D01*
X0354237Y0024771D01*
X0354156Y0024747D01*
X0354075Y0024726D01*
X0353993Y0024710D01*
X0353911Y0024697D01*
X0353827Y0024688D01*
X0353744Y0024683D01*
X0353660Y0024682D01*
X0353576Y0024685D01*
X0353493Y0024692D01*
X0353410Y0024703D01*
X0353328Y0024718D01*
X0353246Y0024736D01*
X0353165Y0024759D01*
X0353086Y0024785D01*
X0353008Y0024815D01*
X0352931Y0024849D01*
X0352856Y0024886D01*
X0352783Y0024926D01*
X0352712Y0024971D01*
X0352643Y0025018D01*
X0352576Y0025069D01*
X0352512Y0025122D01*
X0352450Y0025179D01*
X0352392Y0025239D01*
X0352336Y0025301D01*
X0352283Y0025366D01*
X0352233Y0025433D01*
X0352186Y0025502D01*
X0352143Y0025574D01*
X0352103Y0025648D01*
X0352067Y0025723D01*
X0352034Y0025800D01*
X0352005Y0025879D01*
X0351980Y0025958D01*
X0351958Y0026039D01*
X0351941Y0026121D01*
X0351927Y0026204D01*
X0351917Y0026287D01*
X0351911Y0026370D01*
X0351909Y0026454D01*
D11*
X0355660Y0108329D02*
X0359410Y0108329D01*
X0355660Y0108329D02*
X0354410Y0109579D01*
X0334065Y0109579D01*
X0332441Y0111203D01*
X0317815Y0111203D01*
X0300315Y0128703D01*
X0297589Y0128703D01*
X0294065Y0125179D01*
X0294065Y0119953D01*
X0290315Y0116203D02*
X0290315Y0124953D01*
X0296565Y0131203D01*
X0305315Y0131203D01*
X0315315Y0121203D01*
X0353160Y0121203D01*
X0358160Y0118329D01*
X0274690Y0133078D02*
X0259941Y0118329D01*
X0258814Y0121454D02*
X0270940Y0133580D01*
X0270940Y0149953D01*
X0268440Y0147704D02*
X0268440Y0134579D01*
X0258440Y0124579D01*
X0257190Y0124579D01*
X0274690Y0133078D02*
X0274690Y0149953D01*
X0037246Y0154485D02*
X0034243Y0154485D01*
X0033242Y0155486D01*
X0034243Y0156486D01*
X0037246Y0156486D01*
X0037246Y0158488D02*
X0033242Y0158488D01*
X0033242Y0157487D01*
X0034243Y0156486D01*
X0034243Y0160930D02*
X0033242Y0161931D01*
X0033242Y0163933D01*
X0034243Y0164934D01*
X0036245Y0164934D01*
X0037246Y0163933D01*
X0037246Y0161931D01*
X0036245Y0160930D01*
X0034243Y0160930D01*
X0033242Y0167376D02*
X0033242Y0170378D01*
X0034243Y0171379D01*
X0036245Y0171379D01*
X0037246Y0170378D01*
X0037246Y0167376D01*
X0036245Y0173821D02*
X0034243Y0173821D01*
X0033242Y0174822D01*
X0033242Y0176824D01*
X0034243Y0177825D01*
X0036245Y0177825D01*
X0037246Y0176824D01*
X0037246Y0174822D01*
X0036245Y0173821D01*
X0037246Y0180267D02*
X0034243Y0180267D01*
X0033242Y0181268D01*
X0034243Y0182268D01*
X0037246Y0182268D01*
X0037246Y0184270D02*
X0033242Y0184270D01*
X0033242Y0183269D01*
X0034243Y0182268D01*
X0033242Y0186712D02*
X0033242Y0189715D01*
X0034243Y0190716D01*
X0035244Y0189715D01*
X0035244Y0187713D01*
X0036245Y0186712D01*
X0037246Y0187713D01*
X0037246Y0190716D01*
X0037246Y0193158D02*
X0037246Y0196160D01*
X0036245Y0197161D01*
X0033242Y0197161D01*
X0033242Y0199603D02*
X0033242Y0202606D01*
X0034243Y0203607D01*
X0035244Y0202606D01*
X0035244Y0200604D01*
X0036245Y0199603D01*
X0037246Y0200604D01*
X0037246Y0203607D01*
X0039247Y0195159D02*
X0039247Y0194159D01*
X0038246Y0193158D01*
X0033242Y0193158D01*
X0023242Y0205975D02*
X0023242Y0206976D01*
X0025244Y0208978D01*
X0027246Y0208978D02*
X0023242Y0208978D01*
X0024243Y0211420D02*
X0023242Y0212421D01*
X0023242Y0214423D01*
X0024243Y0215423D01*
X0026245Y0215423D01*
X0027246Y0214423D01*
X0027246Y0212421D01*
X0025244Y0211420D02*
X0025244Y0215423D01*
X0027246Y0217865D02*
X0027246Y0220868D01*
X0026245Y0221869D01*
X0024243Y0221869D01*
X0023242Y0220868D01*
X0023242Y0217865D01*
X0024243Y0211420D02*
X0025244Y0211420D01*
X0031240Y0213495D02*
X0031240Y0215497D01*
X0032241Y0216498D01*
X0036245Y0216498D01*
X0032241Y0212494D01*
X0036245Y0212494D01*
X0037246Y0213495D01*
X0037246Y0215497D01*
X0036245Y0216498D01*
X0037246Y0218940D02*
X0037246Y0222943D01*
X0033242Y0218940D01*
X0032241Y0218940D01*
X0031240Y0219941D01*
X0031240Y0221942D01*
X0032241Y0222943D01*
X0032241Y0225385D02*
X0036245Y0229389D01*
X0037246Y0228388D01*
X0037246Y0226386D01*
X0036245Y0225385D01*
X0032241Y0225385D01*
X0031240Y0226386D01*
X0031240Y0228388D01*
X0032241Y0229389D01*
X0036245Y0229389D01*
X0037246Y0231831D02*
X0037246Y0235834D01*
X0033242Y0231831D01*
X0032241Y0231831D01*
X0031240Y0232832D01*
X0031240Y0234833D01*
X0032241Y0235834D01*
X0027246Y0235981D02*
X0026245Y0236982D01*
X0022241Y0236982D01*
X0023242Y0237983D02*
X0023242Y0235981D01*
X0023242Y0233686D02*
X0027246Y0233686D01*
X0025244Y0233686D02*
X0023242Y0231684D01*
X0023242Y0230683D01*
X0023242Y0227314D02*
X0023242Y0225312D01*
X0024243Y0224311D01*
X0027246Y0224311D01*
X0027246Y0227314D01*
X0026245Y0228314D01*
X0025244Y0227314D01*
X0025244Y0224311D01*
X0031240Y0213495D02*
X0032241Y0212494D01*
X0024243Y0240425D02*
X0024243Y0244428D01*
X0027246Y0246870D02*
X0027246Y0250874D01*
X0027246Y0248872D02*
X0021240Y0248872D01*
X0023242Y0250874D01*
X0024243Y0253316D02*
X0023242Y0254317D01*
X0023242Y0256318D01*
X0024243Y0257319D01*
X0026245Y0257319D01*
X0027246Y0256318D01*
X0027246Y0254317D01*
X0025244Y0253316D02*
X0025244Y0257319D01*
X0025244Y0253316D02*
X0024243Y0253316D01*
X0031240Y0252021D02*
X0031240Y0250020D01*
X0032241Y0249019D01*
X0031240Y0246577D02*
X0033242Y0244575D01*
X0035244Y0244575D01*
X0037246Y0246577D01*
X0036245Y0249019D02*
X0037246Y0250020D01*
X0037246Y0252021D01*
X0036245Y0253022D01*
X0032241Y0253022D01*
X0031240Y0252021D01*
X0031240Y0255317D02*
X0033242Y0257319D01*
X0035244Y0257319D01*
X0037246Y0255317D01*
D12*
X0042797Y0254826D02*
X0043781Y0253842D01*
X0047718Y0253842D01*
X0048702Y0254826D01*
X0048702Y0256795D01*
X0047718Y0257779D01*
X0043781Y0257779D01*
X0042797Y0256795D01*
X0042797Y0254826D01*
X0043781Y0251333D02*
X0044766Y0251333D01*
X0045750Y0250349D01*
X0045750Y0248381D01*
X0046734Y0247397D01*
X0047718Y0247397D01*
X0048702Y0248381D01*
X0048702Y0250349D01*
X0047718Y0251333D01*
X0043781Y0251333D02*
X0042797Y0250349D01*
X0042797Y0248381D01*
X0043781Y0247397D01*
X0042797Y0244888D02*
X0048702Y0244888D01*
X0045750Y0244888D02*
X0045750Y0240951D01*
X0048702Y0240951D02*
X0042797Y0240951D01*
X0042797Y0238442D02*
X0048702Y0238442D01*
X0046734Y0236474D01*
X0048702Y0234506D01*
X0042797Y0234506D01*
X0048702Y0225551D02*
X0042797Y0221615D01*
X0043781Y0212660D02*
X0047718Y0212660D01*
X0048702Y0211676D01*
X0048702Y0209708D01*
X0047718Y0208724D01*
X0047718Y0206215D02*
X0043781Y0206215D01*
X0042797Y0205231D01*
X0042797Y0203262D01*
X0043781Y0202278D01*
X0045750Y0199769D02*
X0045750Y0195833D01*
X0045750Y0193324D02*
X0045750Y0190371D01*
X0046734Y0189387D01*
X0047718Y0189387D01*
X0048702Y0190371D01*
X0048702Y0193324D01*
X0042797Y0193324D01*
X0042797Y0190371D01*
X0043781Y0189387D01*
X0044766Y0189387D01*
X0045750Y0190371D01*
X0043781Y0186878D02*
X0045750Y0184910D01*
X0048702Y0184910D01*
X0045750Y0184910D02*
X0043781Y0182942D01*
X0042797Y0182942D01*
X0045750Y0180433D02*
X0045750Y0176496D01*
X0044766Y0173987D02*
X0043781Y0173987D01*
X0042797Y0173003D01*
X0042797Y0171035D01*
X0043781Y0170051D01*
X0045750Y0171035D02*
X0045750Y0173003D01*
X0044766Y0173987D01*
X0047718Y0173987D02*
X0048702Y0173003D01*
X0048702Y0171035D01*
X0047718Y0170051D01*
X0046734Y0170051D01*
X0045750Y0171035D01*
X0045750Y0167542D02*
X0045750Y0163605D01*
X0044766Y0163605D02*
X0048702Y0163605D01*
X0044766Y0163605D02*
X0042797Y0165573D01*
X0044766Y0167542D01*
X0048702Y0167542D01*
X0043781Y0186878D02*
X0042797Y0186878D01*
X0027196Y0188137D02*
X0027196Y0192074D01*
X0027196Y0190105D02*
X0021291Y0190105D01*
X0023259Y0192074D01*
X0023259Y0194582D02*
X0027196Y0196551D01*
X0023259Y0198519D01*
X0042797Y0209708D02*
X0042797Y0211676D01*
X0043781Y0212660D01*
X0042797Y0209708D02*
X0043781Y0208724D01*
X0047718Y0206215D02*
X0048702Y0205231D01*
X0048702Y0203262D01*
X0047718Y0202278D01*
D13*
X0131752Y0078703D03*
X0141752Y0078703D03*
X0151752Y0078703D03*
X0161752Y0078703D03*
X0156752Y0068703D03*
X0146752Y0068703D03*
X0136752Y0068703D03*
X0126752Y0068703D03*
X0181752Y0068703D03*
X0191752Y0068703D03*
X0201752Y0068703D03*
X0211752Y0068703D03*
X0206752Y0078703D03*
X0196752Y0078703D03*
X0186752Y0078703D03*
X0216752Y0078703D03*
D14*
X0367410Y0168329D03*
D15*
X0366410Y0158329D03*
X0367410Y0148329D03*
X0366410Y0138329D03*
X0367410Y0128329D03*
X0366410Y0118329D03*
X0367410Y0108329D03*
X0366410Y0098329D03*
D16*
X0083661Y0181157D02*
X0082361Y0179857D01*
X0080961Y0178657D01*
X0077361Y0181057D01*
X0076561Y0180557D01*
X0074761Y0179957D01*
X0074061Y0179757D01*
X0073361Y0175757D01*
X0072261Y0175657D01*
X0071361Y0175657D01*
X0070561Y0175757D01*
X0069561Y0175857D01*
X0068861Y0179957D01*
X0067761Y0180357D01*
X0067161Y0180557D01*
X0066461Y0180957D01*
X0065661Y0181457D01*
X0062461Y0178957D01*
X0061761Y0179557D01*
X0061061Y0180257D01*
X0059661Y0181857D01*
X0062061Y0185257D01*
X0061661Y0186157D01*
X0061261Y0186957D01*
X0060861Y0188357D01*
X0056761Y0188957D01*
X0056761Y0192757D01*
X0060861Y0193557D01*
X0061161Y0194657D01*
X0062161Y0196657D01*
X0059761Y0200057D01*
X0060361Y0200757D01*
X0061761Y0202157D01*
X0062461Y0202757D01*
X0065861Y0200457D01*
X0066761Y0200957D01*
X0067661Y0201357D01*
X0069261Y0201957D01*
X0069861Y0205957D01*
X0071061Y0206057D01*
X0073661Y0206057D01*
X0074361Y0201857D01*
X0075361Y0201657D01*
X0076361Y0201257D01*
X0077261Y0200857D01*
X0078061Y0200457D01*
X0081261Y0202857D01*
X0081961Y0202257D01*
X0083361Y0200857D01*
X0083861Y0200257D01*
X0081561Y0196857D01*
X0081961Y0196157D01*
X0082261Y0195457D01*
X0082561Y0194857D01*
X0075761Y0192457D01*
X0075424Y0193160D01*
X0074963Y0193789D01*
X0074394Y0194321D01*
X0073735Y0194738D01*
X0073010Y0195026D01*
X0072244Y0195174D01*
X0071464Y0195177D01*
X0070698Y0195035D01*
X0069971Y0194753D01*
X0069309Y0194341D01*
X0068735Y0193813D01*
X0068269Y0193187D01*
X0067928Y0192486D01*
X0067722Y0191734D01*
X0067661Y0190957D01*
X0067686Y0190166D01*
X0067859Y0189394D01*
X0068173Y0188669D01*
X0068619Y0188015D01*
X0069178Y0187456D01*
X0069833Y0187012D01*
X0070559Y0186699D01*
X0071331Y0186527D01*
X0072122Y0186504D01*
X0072903Y0186628D01*
X0073647Y0186898D01*
X0074327Y0187301D01*
X0074919Y0187825D01*
X0075403Y0188451D01*
X0075761Y0189157D01*
X0082461Y0186557D01*
X0081261Y0184457D01*
X0083661Y0181157D01*
X0083637Y0181189D02*
X0066089Y0181189D01*
X0065772Y0181387D02*
X0083493Y0181387D01*
X0083349Y0181586D02*
X0059898Y0181586D01*
X0059724Y0181784D02*
X0083204Y0181784D01*
X0083060Y0181983D02*
X0059750Y0181983D01*
X0059890Y0182181D02*
X0082915Y0182181D01*
X0082771Y0182380D02*
X0060030Y0182380D01*
X0060170Y0182578D02*
X0082627Y0182578D01*
X0082482Y0182777D02*
X0060310Y0182777D01*
X0060450Y0182975D02*
X0082338Y0182975D01*
X0082194Y0183174D02*
X0060590Y0183174D01*
X0060730Y0183372D02*
X0082049Y0183372D01*
X0081905Y0183571D02*
X0060871Y0183571D01*
X0061011Y0183769D02*
X0081760Y0183769D01*
X0081616Y0183968D02*
X0061151Y0183968D01*
X0061291Y0184166D02*
X0081472Y0184166D01*
X0081327Y0184365D02*
X0061431Y0184365D01*
X0061571Y0184563D02*
X0081322Y0184563D01*
X0081435Y0184762D02*
X0061711Y0184762D01*
X0061851Y0184960D02*
X0081548Y0184960D01*
X0081662Y0185159D02*
X0061992Y0185159D01*
X0062016Y0185357D02*
X0081775Y0185357D01*
X0081889Y0185556D02*
X0061928Y0185556D01*
X0061839Y0185754D02*
X0082002Y0185754D01*
X0082116Y0185953D02*
X0061751Y0185953D01*
X0061663Y0186151D02*
X0082229Y0186151D01*
X0082342Y0186350D02*
X0061564Y0186350D01*
X0061465Y0186548D02*
X0071237Y0186548D01*
X0070448Y0186747D02*
X0061365Y0186747D01*
X0061266Y0186945D02*
X0069988Y0186945D01*
X0069639Y0187144D02*
X0061207Y0187144D01*
X0061150Y0187343D02*
X0069346Y0187343D01*
X0069093Y0187541D02*
X0061094Y0187541D01*
X0061037Y0187740D02*
X0068894Y0187740D01*
X0068696Y0187938D02*
X0060980Y0187938D01*
X0060923Y0188137D02*
X0068536Y0188137D01*
X0068401Y0188335D02*
X0060867Y0188335D01*
X0059652Y0188534D02*
X0068265Y0188534D01*
X0068146Y0188732D02*
X0058295Y0188732D01*
X0056939Y0188931D02*
X0068060Y0188931D01*
X0067974Y0189129D02*
X0056761Y0189129D01*
X0056761Y0189328D02*
X0067888Y0189328D01*
X0067829Y0189526D02*
X0056761Y0189526D01*
X0056761Y0189725D02*
X0067785Y0189725D01*
X0067740Y0189923D02*
X0056761Y0189923D01*
X0056761Y0190122D02*
X0067696Y0190122D01*
X0067681Y0190320D02*
X0056761Y0190320D01*
X0056761Y0190519D02*
X0067675Y0190519D01*
X0067668Y0190717D02*
X0056761Y0190717D01*
X0056761Y0190916D02*
X0067662Y0190916D01*
X0067673Y0191114D02*
X0056761Y0191114D01*
X0056761Y0191313D02*
X0067689Y0191313D01*
X0067705Y0191511D02*
X0056761Y0191511D01*
X0056761Y0191710D02*
X0067721Y0191710D01*
X0067770Y0191908D02*
X0056761Y0191908D01*
X0056761Y0192107D02*
X0067824Y0192107D01*
X0067878Y0192305D02*
X0056761Y0192305D01*
X0056761Y0192504D02*
X0067936Y0192504D01*
X0068033Y0192702D02*
X0056761Y0192702D01*
X0057499Y0192901D02*
X0068130Y0192901D01*
X0068226Y0193099D02*
X0058517Y0193099D01*
X0059534Y0193298D02*
X0068352Y0193298D01*
X0068499Y0193496D02*
X0060551Y0193496D01*
X0060898Y0193695D02*
X0068647Y0193695D01*
X0068823Y0193893D02*
X0060952Y0193893D01*
X0061007Y0194092D02*
X0069039Y0194092D01*
X0069254Y0194290D02*
X0061061Y0194290D01*
X0061115Y0194489D02*
X0069547Y0194489D01*
X0069866Y0194687D02*
X0061176Y0194687D01*
X0061275Y0194886D02*
X0070314Y0194886D01*
X0070967Y0195084D02*
X0061374Y0195084D01*
X0061474Y0195283D02*
X0082347Y0195283D01*
X0082250Y0195481D02*
X0061573Y0195481D01*
X0061672Y0195680D02*
X0082165Y0195680D01*
X0082080Y0195879D02*
X0061771Y0195879D01*
X0061871Y0196077D02*
X0081995Y0196077D01*
X0081893Y0196276D02*
X0061970Y0196276D01*
X0062069Y0196474D02*
X0081779Y0196474D01*
X0081666Y0196673D02*
X0062149Y0196673D01*
X0062009Y0196871D02*
X0081570Y0196871D01*
X0081705Y0197070D02*
X0061869Y0197070D01*
X0061729Y0197268D02*
X0081839Y0197268D01*
X0081973Y0197467D02*
X0061589Y0197467D01*
X0061449Y0197665D02*
X0082107Y0197665D01*
X0082242Y0197864D02*
X0061309Y0197864D01*
X0061168Y0198062D02*
X0082376Y0198062D01*
X0082510Y0198261D02*
X0061028Y0198261D01*
X0060888Y0198459D02*
X0082645Y0198459D01*
X0082779Y0198658D02*
X0060748Y0198658D01*
X0060608Y0198856D02*
X0082913Y0198856D01*
X0083047Y0199055D02*
X0060468Y0199055D01*
X0060328Y0199253D02*
X0083182Y0199253D01*
X0083316Y0199452D02*
X0060188Y0199452D01*
X0060047Y0199650D02*
X0083450Y0199650D01*
X0083585Y0199849D02*
X0059907Y0199849D01*
X0059767Y0200047D02*
X0083719Y0200047D01*
X0083853Y0200246D02*
X0059923Y0200246D01*
X0060093Y0200444D02*
X0083704Y0200444D01*
X0083539Y0200643D02*
X0078309Y0200643D01*
X0078573Y0200841D02*
X0083373Y0200841D01*
X0083177Y0201040D02*
X0078838Y0201040D01*
X0079103Y0201238D02*
X0082979Y0201238D01*
X0082780Y0201437D02*
X0079367Y0201437D01*
X0079632Y0201635D02*
X0082582Y0201635D01*
X0082383Y0201834D02*
X0079897Y0201834D01*
X0080161Y0202032D02*
X0082185Y0202032D01*
X0081986Y0202231D02*
X0080426Y0202231D01*
X0080691Y0202429D02*
X0081759Y0202429D01*
X0081527Y0202628D02*
X0080955Y0202628D01*
X0081220Y0202826D02*
X0081296Y0202826D01*
X0077688Y0200643D02*
X0066196Y0200643D01*
X0066553Y0200841D02*
X0077291Y0200841D01*
X0076849Y0201040D02*
X0066948Y0201040D01*
X0067394Y0201238D02*
X0076402Y0201238D01*
X0075910Y0201437D02*
X0067874Y0201437D01*
X0068404Y0201635D02*
X0075414Y0201635D01*
X0074475Y0201834D02*
X0068933Y0201834D01*
X0069272Y0202032D02*
X0074331Y0202032D01*
X0074298Y0202231D02*
X0069302Y0202231D01*
X0069331Y0202429D02*
X0074265Y0202429D01*
X0074232Y0202628D02*
X0069361Y0202628D01*
X0069391Y0202826D02*
X0074199Y0202826D01*
X0074166Y0203025D02*
X0069421Y0203025D01*
X0069451Y0203223D02*
X0074133Y0203223D01*
X0074100Y0203422D02*
X0069480Y0203422D01*
X0069510Y0203620D02*
X0074067Y0203620D01*
X0074034Y0203819D02*
X0069540Y0203819D01*
X0069570Y0204017D02*
X0074000Y0204017D01*
X0073967Y0204216D02*
X0069599Y0204216D01*
X0069629Y0204414D02*
X0073934Y0204414D01*
X0073901Y0204613D02*
X0069659Y0204613D01*
X0069689Y0204812D02*
X0073868Y0204812D01*
X0073835Y0205010D02*
X0069719Y0205010D01*
X0069748Y0205209D02*
X0073802Y0205209D01*
X0073769Y0205407D02*
X0069778Y0205407D01*
X0069808Y0205606D02*
X0073736Y0205606D01*
X0073703Y0205804D02*
X0069838Y0205804D01*
X0070411Y0206003D02*
X0073670Y0206003D01*
X0065585Y0200643D02*
X0060263Y0200643D01*
X0060445Y0200841D02*
X0065292Y0200841D01*
X0064999Y0201040D02*
X0060644Y0201040D01*
X0060842Y0201238D02*
X0064705Y0201238D01*
X0064412Y0201437D02*
X0061041Y0201437D01*
X0061239Y0201635D02*
X0064118Y0201635D01*
X0063825Y0201834D02*
X0061438Y0201834D01*
X0061636Y0202032D02*
X0063531Y0202032D01*
X0063238Y0202231D02*
X0061847Y0202231D01*
X0062079Y0202429D02*
X0062944Y0202429D01*
X0062651Y0202628D02*
X0062310Y0202628D01*
X0072707Y0195084D02*
X0082447Y0195084D01*
X0082546Y0194886D02*
X0073363Y0194886D01*
X0073815Y0194687D02*
X0082081Y0194687D01*
X0081519Y0194489D02*
X0074129Y0194489D01*
X0074427Y0194290D02*
X0080956Y0194290D01*
X0080394Y0194092D02*
X0074639Y0194092D01*
X0074852Y0193893D02*
X0079831Y0193893D01*
X0079269Y0193695D02*
X0075032Y0193695D01*
X0075178Y0193496D02*
X0078706Y0193496D01*
X0078144Y0193298D02*
X0075324Y0193298D01*
X0075453Y0193099D02*
X0077581Y0193099D01*
X0077019Y0192901D02*
X0075548Y0192901D01*
X0075643Y0192702D02*
X0076457Y0192702D01*
X0075894Y0192504D02*
X0075738Y0192504D01*
X0075747Y0189129D02*
X0075832Y0189129D01*
X0075646Y0188931D02*
X0076343Y0188931D01*
X0076855Y0188732D02*
X0075545Y0188732D01*
X0075445Y0188534D02*
X0077366Y0188534D01*
X0077878Y0188335D02*
X0075313Y0188335D01*
X0075160Y0188137D02*
X0078389Y0188137D01*
X0078901Y0187938D02*
X0075006Y0187938D01*
X0074822Y0187740D02*
X0079412Y0187740D01*
X0079924Y0187541D02*
X0074598Y0187541D01*
X0074373Y0187343D02*
X0080436Y0187343D01*
X0080947Y0187144D02*
X0074062Y0187144D01*
X0073728Y0186945D02*
X0081459Y0186945D01*
X0081970Y0186747D02*
X0073231Y0186747D01*
X0072403Y0186548D02*
X0082456Y0186548D01*
X0083494Y0180990D02*
X0077460Y0180990D01*
X0077254Y0180990D02*
X0066407Y0180990D01*
X0066749Y0180792D02*
X0076936Y0180792D01*
X0076619Y0180593D02*
X0067097Y0180593D01*
X0067647Y0180395D02*
X0076074Y0180395D01*
X0075479Y0180196D02*
X0068202Y0180196D01*
X0068748Y0179998D02*
X0074883Y0179998D01*
X0074209Y0179799D02*
X0068887Y0179799D01*
X0068921Y0179601D02*
X0074033Y0179601D01*
X0073998Y0179402D02*
X0068955Y0179402D01*
X0068989Y0179204D02*
X0073964Y0179204D01*
X0073929Y0179005D02*
X0069023Y0179005D01*
X0069057Y0178807D02*
X0073894Y0178807D01*
X0073860Y0178608D02*
X0069091Y0178608D01*
X0069125Y0178410D02*
X0073825Y0178410D01*
X0073790Y0178211D02*
X0069159Y0178211D01*
X0069192Y0178012D02*
X0073755Y0178012D01*
X0073721Y0177814D02*
X0069226Y0177814D01*
X0069260Y0177615D02*
X0073686Y0177615D01*
X0073651Y0177417D02*
X0069294Y0177417D01*
X0069328Y0177218D02*
X0073616Y0177218D01*
X0073582Y0177020D02*
X0069362Y0177020D01*
X0069396Y0176821D02*
X0073547Y0176821D01*
X0073512Y0176623D02*
X0069430Y0176623D01*
X0069464Y0176424D02*
X0073477Y0176424D01*
X0073443Y0176226D02*
X0069498Y0176226D01*
X0069531Y0176027D02*
X0073408Y0176027D01*
X0073373Y0175829D02*
X0069839Y0175829D01*
X0065572Y0181387D02*
X0060071Y0181387D01*
X0060245Y0181189D02*
X0065317Y0181189D01*
X0065063Y0180990D02*
X0060419Y0180990D01*
X0060592Y0180792D02*
X0064809Y0180792D01*
X0064555Y0180593D02*
X0060766Y0180593D01*
X0060940Y0180395D02*
X0064301Y0180395D01*
X0064047Y0180196D02*
X0061121Y0180196D01*
X0061320Y0179998D02*
X0063793Y0179998D01*
X0063539Y0179799D02*
X0061518Y0179799D01*
X0061717Y0179601D02*
X0063285Y0179601D01*
X0063031Y0179402D02*
X0061941Y0179402D01*
X0062173Y0179204D02*
X0062777Y0179204D01*
X0062522Y0179005D02*
X0062404Y0179005D01*
X0077758Y0180792D02*
X0083296Y0180792D01*
X0083097Y0180593D02*
X0078056Y0180593D01*
X0078354Y0180395D02*
X0082898Y0180395D01*
X0082700Y0180196D02*
X0078651Y0180196D01*
X0078949Y0179998D02*
X0082501Y0179998D01*
X0082293Y0179799D02*
X0079247Y0179799D01*
X0079545Y0179601D02*
X0082062Y0179601D01*
X0081830Y0179402D02*
X0079842Y0179402D01*
X0080140Y0179204D02*
X0081599Y0179204D01*
X0081367Y0179005D02*
X0080438Y0179005D01*
X0080736Y0178807D02*
X0081135Y0178807D01*
D17*
X0082533Y0177263D02*
X0083130Y0177776D01*
X0083223Y0177776D01*
X0083776Y0178329D01*
X0084369Y0178838D01*
X0084376Y0178929D01*
X0085017Y0179570D01*
X0085582Y0179981D01*
X0085611Y0180164D01*
X0085742Y0180295D01*
X0085742Y0180993D01*
X0085851Y0181684D01*
X0085742Y0181833D01*
X0085742Y0182019D01*
X0085248Y0182513D01*
X0083735Y0184592D01*
X0083927Y0184929D01*
X0084089Y0185000D01*
X0084344Y0185659D01*
X0084695Y0186273D01*
X0084649Y0186443D01*
X0084713Y0186607D01*
X0084427Y0187254D01*
X0084242Y0187936D01*
X0084088Y0188023D01*
X0084017Y0188185D01*
X0083358Y0188441D01*
X0082745Y0188791D01*
X0082574Y0188745D01*
X0077298Y0190792D01*
X0082580Y0192657D01*
X0082720Y0192610D01*
X0083375Y0192937D01*
X0084066Y0193181D01*
X0084130Y0193315D01*
X0084262Y0193381D01*
X0084494Y0194076D01*
X0084810Y0194736D01*
X0084761Y0194876D01*
X0084807Y0195016D01*
X0084480Y0195671D01*
X0084236Y0196362D01*
X0084181Y0196389D01*
X0084195Y0196441D01*
X0084010Y0196764D01*
X0085419Y0198847D01*
X0085855Y0199210D01*
X0085885Y0199535D01*
X0086067Y0199805D01*
X0085960Y0200362D01*
X0086011Y0200927D01*
X0085802Y0201177D01*
X0085741Y0201497D01*
X0085442Y0201700D01*
X0085442Y0201719D01*
X0084899Y0202262D01*
X0084407Y0202851D01*
X0084299Y0202861D01*
X0083976Y0203184D01*
X0083969Y0203276D01*
X0083376Y0203785D01*
X0082823Y0204338D01*
X0082751Y0204338D01*
X0082408Y0204795D01*
X0082155Y0204831D01*
X0081960Y0204998D01*
X0081329Y0204949D01*
X0080702Y0205039D01*
X0080497Y0204885D01*
X0080241Y0204866D01*
X0079829Y0204384D01*
X0077852Y0202902D01*
X0077714Y0202957D01*
X0077420Y0203104D01*
X0077380Y0203090D01*
X0077170Y0203174D01*
X0076715Y0203376D01*
X0076614Y0203528D01*
X0076177Y0203616D01*
X0075742Y0206229D01*
X0075742Y0206919D01*
X0075604Y0207057D01*
X0075572Y0207249D01*
X0075010Y0207650D01*
X0193909Y0207650D01*
X0195507Y0206052D02*
X0144651Y0206052D01*
X0145122Y0205580D02*
X0144004Y0206698D01*
X0142543Y0207304D01*
X0122212Y0207304D01*
X0120751Y0206698D01*
X0119633Y0205580D01*
X0119027Y0204119D01*
X0119027Y0202538D01*
X0119633Y0201077D01*
X0120751Y0199959D01*
X0122212Y0199354D01*
X0142543Y0199354D01*
X0144004Y0199959D01*
X0145122Y0201077D01*
X0145727Y0202538D01*
X0145727Y0204119D01*
X0145122Y0205580D01*
X0145589Y0204453D02*
X0197106Y0204453D01*
X0198704Y0202855D02*
X0145727Y0202855D01*
X0145196Y0201256D02*
X0200303Y0201256D01*
X0201901Y0199658D02*
X0143276Y0199658D01*
X0121479Y0199658D02*
X0085968Y0199658D01*
X0085787Y0201256D02*
X0119559Y0201256D01*
X0119027Y0202855D02*
X0084370Y0202855D01*
X0082665Y0204453D02*
X0119166Y0204453D01*
X0120104Y0206052D02*
X0075771Y0206052D01*
X0076038Y0204453D02*
X0079888Y0204453D01*
X0075010Y0207650D02*
X0074523Y0208138D01*
X0074327Y0208138D01*
X0074169Y0208251D01*
X0073488Y0208138D01*
X0071823Y0208138D01*
X0071747Y0208202D01*
X0070974Y0208138D01*
X0070199Y0208138D01*
X0070128Y0208067D01*
X0069929Y0208051D01*
X0069317Y0208143D01*
X0069099Y0207982D01*
X0068829Y0207959D01*
X0068429Y0207486D01*
X0067930Y0207118D01*
X0067890Y0206850D01*
X0067715Y0206643D01*
X0067767Y0206026D01*
X0067390Y0203514D01*
X0066872Y0203284D01*
X0066578Y0203173D01*
X0066503Y0203195D01*
X0066231Y0203043D01*
X0066123Y0203003D01*
X0066111Y0202976D01*
X0065968Y0202897D01*
X0063858Y0204324D01*
X0063480Y0204766D01*
X0063170Y0204789D01*
X0062913Y0204963D01*
X0062341Y0204853D01*
X0061761Y0204898D01*
X0061525Y0204696D01*
X0061220Y0204637D01*
X0060950Y0204238D01*
X0060899Y0204238D01*
X0060345Y0203685D01*
X0059752Y0203176D01*
X0059745Y0203084D01*
X0059433Y0202773D01*
X0059341Y0202766D01*
X0058832Y0202172D01*
X0058279Y0201619D01*
X0058279Y0201559D01*
X0057856Y0201260D01*
X0057807Y0200976D01*
X0057619Y0200757D01*
X0057666Y0200155D01*
X0057563Y0199561D01*
X0057730Y0199325D01*
X0057752Y0199038D01*
X0058210Y0198645D01*
X0059742Y0196474D01*
X0059581Y0196151D01*
X0059380Y0196036D01*
X0059207Y0195403D01*
X0059180Y0195349D01*
X0056559Y0194838D01*
X0055899Y0194838D01*
X0055738Y0194678D01*
X0055516Y0194634D01*
X0055147Y0194086D01*
X0054679Y0193619D01*
X0054679Y0193392D01*
X0054553Y0193204D01*
X0054679Y0192556D01*
X0054679Y0189108D01*
X0054577Y0188405D01*
X0054679Y0188267D01*
X0054679Y0188095D01*
X0055182Y0187592D01*
X0055606Y0187022D01*
X0055777Y0186997D01*
X0055899Y0186876D01*
X0056609Y0186876D01*
X0059161Y0186502D01*
X0059313Y0186199D01*
X0059496Y0185556D01*
X0059660Y0185465D01*
X0058103Y0183259D01*
X0057641Y0182855D01*
X0057623Y0182579D01*
X0057463Y0182353D01*
X0057568Y0181748D01*
X0057527Y0181135D01*
X0057709Y0180927D01*
X0057756Y0180654D01*
X0058258Y0180300D01*
X0058979Y0179475D01*
X0058979Y0179395D01*
X0059540Y0178834D01*
X0059747Y0178597D01*
X0059752Y0178538D01*
X0059943Y0178374D01*
X0060062Y0178238D01*
X0060105Y0178235D01*
X0060345Y0178029D01*
X0060899Y0177476D01*
X0060977Y0177476D01*
X0061351Y0176996D01*
X0061583Y0176968D01*
X0061761Y0176816D01*
X0062413Y0176866D01*
X0063062Y0176786D01*
X0063247Y0176930D01*
X0063480Y0176948D01*
X0063905Y0177445D01*
X0065703Y0178849D01*
X0066307Y0178648D01*
X0066876Y0178322D01*
X0067022Y0178362D01*
X0067462Y0175784D01*
X0067404Y0175206D01*
X0067602Y0174964D01*
X0067654Y0174657D01*
X0068128Y0174321D01*
X0068496Y0173872D01*
X0068806Y0173841D01*
X0069061Y0173660D01*
X0069633Y0173758D01*
X0070328Y0173688D01*
X0070394Y0173680D01*
X0070499Y0173576D01*
X0071231Y0173576D01*
X0071556Y0173535D01*
X0071590Y0173506D01*
X0071704Y0173516D01*
X0071958Y0173485D01*
X0072037Y0173547D01*
X0072355Y0173576D01*
X0073123Y0173576D01*
X0073199Y0173652D01*
X0073274Y0173659D01*
X0073851Y0173558D01*
X0074102Y0173734D01*
X0074407Y0173762D01*
X0074782Y0174212D01*
X0075262Y0174549D01*
X0075315Y0174851D01*
X0075511Y0175087D01*
X0075458Y0175670D01*
X0075886Y0178114D01*
X0076161Y0178192D01*
X0076187Y0178238D01*
X0076663Y0178397D01*
X0076933Y0178335D01*
X0077324Y0178580D01*
X0079567Y0177084D01*
X0079941Y0176648D01*
X0080259Y0176623D01*
X0080523Y0176447D01*
X0081087Y0176560D01*
X0081660Y0176516D01*
X0081902Y0176723D01*
X0082214Y0176785D01*
X0082533Y0177263D01*
X0082550Y0177278D02*
X0256671Y0177278D01*
X0256671Y0175680D02*
X0075460Y0175680D01*
X0075740Y0177278D02*
X0079276Y0177278D01*
X0074673Y0174081D02*
X0256671Y0174081D01*
X0256671Y0172483D02*
X0051233Y0172483D01*
X0051233Y0173507D02*
X0051233Y0170531D01*
X0050848Y0169601D01*
X0050535Y0169288D01*
X0050848Y0168976D01*
X0051233Y0168045D01*
X0051233Y0167038D01*
X0050848Y0166108D01*
X0050313Y0165573D01*
X0050848Y0165039D01*
X0051233Y0164109D01*
X0051233Y0163102D01*
X0050848Y0162171D01*
X0050136Y0161459D01*
X0049206Y0161074D01*
X0044262Y0161074D01*
X0043332Y0161459D01*
X0042620Y0162171D01*
X0042620Y0162171D01*
X0041363Y0163428D01*
X0041363Y0163428D01*
X0041165Y0163627D01*
X0040651Y0164140D01*
X0040266Y0165070D01*
X0040266Y0166077D01*
X0040651Y0167007D01*
X0041157Y0167512D01*
X0041363Y0167719D01*
X0041363Y0167719D01*
X0041948Y0168304D01*
X0041363Y0168889D01*
X0041363Y0168889D01*
X0040651Y0169601D01*
X0040421Y0170157D01*
X0040266Y0170531D01*
X0040266Y0173507D01*
X0040430Y0173903D01*
X0040651Y0174437D01*
X0040651Y0174437D01*
X0040678Y0174463D01*
X0041363Y0175149D01*
X0041363Y0175149D01*
X0042322Y0176107D01*
X0042348Y0176133D01*
X0042348Y0176133D01*
X0042725Y0176289D01*
X0043219Y0176494D01*
X0043219Y0180410D01*
X0042294Y0180410D01*
X0041363Y0180796D01*
X0040651Y0181508D01*
X0040266Y0182438D01*
X0040266Y0183445D01*
X0040651Y0184375D01*
X0041186Y0184910D01*
X0040651Y0185445D01*
X0040266Y0186375D01*
X0040266Y0187382D01*
X0040651Y0188312D01*
X0040964Y0188625D01*
X0040678Y0188911D01*
X0040651Y0188937D01*
X0040651Y0188937D01*
X0040430Y0189471D01*
X0040266Y0189868D01*
X0040266Y0191669D01*
X0039727Y0191129D01*
X0039727Y0187220D01*
X0039349Y0186308D01*
X0039033Y0185992D01*
X0039349Y0185676D01*
X0039727Y0184764D01*
X0039727Y0183777D01*
X0039517Y0183269D01*
X0039727Y0182762D01*
X0039727Y0181775D01*
X0039517Y0181268D01*
X0039727Y0180760D01*
X0039727Y0179773D01*
X0039349Y0178861D01*
X0039033Y0178545D01*
X0039349Y0178229D01*
X0039727Y0177317D01*
X0039727Y0174329D01*
X0039349Y0173417D01*
X0038651Y0172719D01*
X0038651Y0172719D01*
X0038532Y0172600D01*
X0038651Y0172482D01*
X0039349Y0171784D01*
X0039727Y0170872D01*
X0039727Y0166882D01*
X0039349Y0165970D01*
X0039033Y0165654D01*
X0039349Y0165338D01*
X0039727Y0164426D01*
X0039727Y0161438D01*
X0039349Y0160526D01*
X0039033Y0160210D01*
X0039349Y0159894D01*
X0039727Y0158982D01*
X0039727Y0157995D01*
X0039517Y0157487D01*
X0039727Y0156980D01*
X0039727Y0155993D01*
X0039517Y0155486D01*
X0039727Y0154978D01*
X0039727Y0153991D01*
X0039349Y0153079D01*
X0038651Y0152381D01*
X0037739Y0152004D01*
X0033750Y0152004D01*
X0032838Y0152381D01*
X0032140Y0153079D01*
X0031139Y0154080D01*
X0030761Y0154992D01*
X0030761Y0155979D01*
X0030971Y0156486D01*
X0030761Y0156994D01*
X0030761Y0158982D01*
X0031139Y0159894D01*
X0031455Y0160210D01*
X0031139Y0160526D01*
X0030761Y0161438D01*
X0030761Y0164426D01*
X0030985Y0164968D01*
X0031139Y0165338D01*
X0031139Y0165338D01*
X0031152Y0165351D01*
X0031455Y0165654D01*
X0031139Y0165970D01*
X0030761Y0166882D01*
X0030761Y0170872D01*
X0030985Y0171414D01*
X0031139Y0171784D01*
X0031139Y0171784D01*
X0031152Y0171797D01*
X0031837Y0172482D01*
X0031837Y0172482D01*
X0031955Y0172600D01*
X0031837Y0172719D01*
X0031139Y0173417D01*
X0030761Y0174329D01*
X0030761Y0177317D01*
X0030985Y0177859D01*
X0031139Y0178229D01*
X0031139Y0178229D01*
X0031152Y0178242D01*
X0031837Y0178927D01*
X0031837Y0178927D01*
X0031955Y0179046D01*
X0031139Y0179862D01*
X0030761Y0180774D01*
X0030761Y0181761D01*
X0030971Y0182268D01*
X0030761Y0182776D01*
X0030761Y0184764D01*
X0031062Y0185491D01*
X0030761Y0186219D01*
X0030761Y0190208D01*
X0030979Y0190735D01*
X0031139Y0191120D01*
X0031455Y0191436D01*
X0031139Y0191752D01*
X0030761Y0192664D01*
X0030761Y0193651D01*
X0031139Y0194563D01*
X0031735Y0195159D01*
X0031139Y0195756D01*
X0030761Y0196668D01*
X0030761Y0197655D01*
X0031062Y0198382D01*
X0030761Y0199110D01*
X0030761Y0203099D01*
X0030979Y0203626D01*
X0031139Y0204011D01*
X0031837Y0204709D01*
X0031837Y0204709D01*
X0032140Y0205012D01*
X0032140Y0205012D01*
X0032838Y0205710D01*
X0033750Y0206088D01*
X0034737Y0206088D01*
X0035278Y0205863D01*
X0035648Y0205710D01*
X0035648Y0205710D01*
X0035659Y0205699D01*
X0035744Y0205614D01*
X0035840Y0205710D01*
X0036752Y0206088D01*
X0037739Y0206088D01*
X0038651Y0205710D01*
X0039349Y0205012D01*
X0039727Y0204100D01*
X0039727Y0200111D01*
X0039349Y0199199D01*
X0038651Y0198501D01*
X0038651Y0198501D01*
X0038532Y0198382D01*
X0038651Y0198264D01*
X0039274Y0197641D01*
X0039741Y0197641D01*
X0040653Y0197263D01*
X0041351Y0196565D01*
X0041728Y0195653D01*
X0041728Y0195621D01*
X0042294Y0195855D01*
X0043219Y0195855D01*
X0043219Y0199772D01*
X0042348Y0200132D01*
X0041363Y0201116D01*
X0041363Y0201116D01*
X0040651Y0201828D01*
X0040421Y0202384D01*
X0040266Y0202759D01*
X0040266Y0205734D01*
X0040430Y0206130D01*
X0040651Y0206664D01*
X0040651Y0206664D01*
X0040651Y0206664D01*
X0040678Y0206690D01*
X0041363Y0207376D01*
X0041363Y0207376D01*
X0041456Y0207469D01*
X0041363Y0207562D01*
X0041363Y0207562D01*
X0040651Y0208274D01*
X0040421Y0208830D01*
X0040266Y0209204D01*
X0040266Y0212180D01*
X0040430Y0212576D01*
X0040651Y0213110D01*
X0040651Y0213110D01*
X0040678Y0213136D01*
X0041363Y0213822D01*
X0041363Y0213822D01*
X0042322Y0214780D01*
X0042348Y0214806D01*
X0042348Y0214806D01*
X0042725Y0214962D01*
X0043278Y0215191D01*
X0048222Y0215191D01*
X0049152Y0214806D01*
X0050136Y0213822D01*
X0050848Y0213110D01*
X0051233Y0212180D01*
X0051233Y0209204D01*
X0050848Y0208274D01*
X0050136Y0207562D01*
X0050136Y0207562D01*
X0050043Y0207469D01*
X0050136Y0207376D01*
X0050848Y0206664D01*
X0051233Y0205734D01*
X0051233Y0202759D01*
X0050848Y0201828D01*
X0049152Y0200132D01*
X0048281Y0199772D01*
X0048281Y0195855D01*
X0049206Y0195855D01*
X0050136Y0195470D01*
X0050848Y0194758D01*
X0051233Y0193827D01*
X0051233Y0189868D01*
X0050848Y0188937D01*
X0050136Y0188225D01*
X0049309Y0187398D01*
X0050136Y0187056D01*
X0050848Y0186344D01*
X0051233Y0185413D01*
X0051233Y0184406D01*
X0050848Y0183476D01*
X0050136Y0182764D01*
X0049206Y0182379D01*
X0047383Y0182379D01*
X0047896Y0181867D01*
X0048281Y0180936D01*
X0048281Y0176494D01*
X0049152Y0176133D01*
X0050848Y0174437D01*
X0051233Y0173507D01*
X0050995Y0174081D02*
X0068324Y0174081D01*
X0067451Y0175680D02*
X0049605Y0175680D01*
X0048281Y0177278D02*
X0061131Y0177278D01*
X0059497Y0178877D02*
X0048281Y0178877D01*
X0048281Y0180475D02*
X0058009Y0180475D01*
X0057511Y0182074D02*
X0047688Y0182074D01*
X0050929Y0183672D02*
X0058395Y0183672D01*
X0059523Y0185271D02*
X0051233Y0185271D01*
X0050322Y0186869D02*
X0056651Y0186869D01*
X0054586Y0188468D02*
X0050379Y0188468D01*
X0051233Y0190066D02*
X0054679Y0190066D01*
X0054679Y0191665D02*
X0051233Y0191665D01*
X0051233Y0193263D02*
X0054593Y0193263D01*
X0056684Y0194862D02*
X0050744Y0194862D01*
X0048281Y0196461D02*
X0059736Y0196461D01*
X0058623Y0198059D02*
X0048281Y0198059D01*
X0048281Y0199658D02*
X0057580Y0199658D01*
X0057856Y0201256D02*
X0050276Y0201256D01*
X0051233Y0202855D02*
X0059515Y0202855D01*
X0061096Y0204453D02*
X0051233Y0204453D01*
X0051102Y0206052D02*
X0067764Y0206052D01*
X0067531Y0204453D02*
X0063747Y0204453D01*
X0068567Y0207650D02*
X0050224Y0207650D01*
X0051233Y0209249D02*
X0192310Y0209249D01*
X0190712Y0210847D02*
X0051233Y0210847D01*
X0051123Y0212446D02*
X0189113Y0212446D01*
X0187515Y0214044D02*
X0049914Y0214044D01*
X0045596Y0220438D02*
X0180306Y0220438D01*
X0180271Y0220453D02*
X0181436Y0219970D01*
X0181589Y0219970D01*
X0210418Y0191141D01*
X0211367Y0190748D01*
X0228183Y0190748D01*
X0234831Y0184100D01*
X0234831Y0183948D01*
X0235313Y0182782D01*
X0236206Y0181890D01*
X0237371Y0181407D01*
X0238633Y0181407D01*
X0239799Y0181890D01*
X0240691Y0182782D01*
X0241174Y0183948D01*
X0241174Y0185210D01*
X0241003Y0185621D01*
X0241049Y0185640D01*
X0241941Y0186532D01*
X0242412Y0187669D01*
X0243549Y0188140D01*
X0244441Y0189032D01*
X0244924Y0190198D01*
X0244924Y0191460D01*
X0244441Y0192625D01*
X0243549Y0193518D01*
X0242383Y0194000D01*
X0242231Y0194000D01*
X0233214Y0203017D01*
X0232266Y0203410D01*
X0214071Y0203410D01*
X0170901Y0246580D01*
X0169953Y0246973D01*
X0160799Y0246973D01*
X0163321Y0249495D01*
X0163678Y0249852D01*
X0164044Y0250153D01*
X0164916Y0250514D01*
X0165388Y0250561D01*
X0225163Y0250561D01*
X0225271Y0250453D01*
X0226436Y0249970D01*
X0227698Y0249970D01*
X0228236Y0250193D01*
X0228236Y0213750D01*
X0228629Y0212802D01*
X0244831Y0196600D01*
X0244831Y0196448D01*
X0245313Y0195282D01*
X0246206Y0194390D01*
X0247371Y0193907D01*
X0248633Y0193907D01*
X0249799Y0194390D01*
X0250691Y0195282D01*
X0251162Y0196419D01*
X0252299Y0196890D01*
X0253191Y0197782D01*
X0253674Y0198948D01*
X0253674Y0200210D01*
X0253503Y0200621D01*
X0253549Y0200640D01*
X0254441Y0201532D01*
X0254924Y0202698D01*
X0254924Y0203960D01*
X0254441Y0205125D01*
X0253549Y0206018D01*
X0252383Y0206500D01*
X0252231Y0206500D01*
X0238398Y0220333D01*
X0238398Y0268737D01*
X0238506Y0268845D01*
X0238989Y0270011D01*
X0238989Y0271273D01*
X0238506Y0272438D01*
X0237614Y0273331D01*
X0236448Y0273813D01*
X0235186Y0273813D01*
X0234021Y0273331D01*
X0233741Y0273051D01*
X0232114Y0275143D01*
X0232114Y0275648D01*
X0231631Y0276813D01*
X0230739Y0277706D01*
X0229573Y0278188D01*
X0228311Y0278188D01*
X0227146Y0277706D01*
X0226253Y0276813D01*
X0225771Y0275648D01*
X0225771Y0274386D01*
X0226253Y0273220D01*
X0227146Y0272328D01*
X0228057Y0271950D01*
X0229525Y0270063D01*
X0228936Y0270063D01*
X0227771Y0269581D01*
X0226878Y0268688D01*
X0226396Y0267523D01*
X0226396Y0266261D01*
X0226429Y0266180D01*
X0212739Y0279870D01*
X0212739Y0280023D01*
X0212256Y0281188D01*
X0211364Y0282081D01*
X0210198Y0282563D01*
X0208936Y0282563D01*
X0207771Y0282081D01*
X0206878Y0281188D01*
X0206396Y0280023D01*
X0206396Y0278761D01*
X0206878Y0277595D01*
X0207771Y0276703D01*
X0208936Y0276220D01*
X0209089Y0276220D01*
X0223896Y0261413D01*
X0223896Y0261261D01*
X0224378Y0260095D01*
X0225001Y0259473D01*
X0144054Y0259473D01*
X0143105Y0259080D01*
X0136589Y0252563D01*
X0136436Y0252563D01*
X0135271Y0252081D01*
X0134378Y0251188D01*
X0133896Y0250023D01*
X0133896Y0248761D01*
X0133929Y0248680D01*
X0117148Y0265461D01*
X0117148Y0287487D01*
X0117256Y0287595D01*
X0117739Y0288761D01*
X0117739Y0290023D01*
X0117256Y0291188D01*
X0116364Y0292081D01*
X0115198Y0292563D01*
X0113936Y0292563D01*
X0112771Y0292081D01*
X0111878Y0291188D01*
X0111396Y0290023D01*
X0111396Y0288761D01*
X0111878Y0287595D01*
X0111986Y0287487D01*
X0111986Y0263878D01*
X0112379Y0262930D01*
X0113105Y0262204D01*
X0133105Y0242204D01*
X0134054Y0241811D01*
X0162501Y0241811D01*
X0161878Y0241188D01*
X0161396Y0240023D01*
X0161396Y0238761D01*
X0161878Y0237595D01*
X0162771Y0236703D01*
X0163936Y0236220D01*
X0165198Y0236220D01*
X0166364Y0236703D01*
X0166472Y0236811D01*
X0169620Y0236811D01*
X0180504Y0225927D01*
X0180271Y0225831D01*
X0179378Y0224938D01*
X0178896Y0223773D01*
X0178896Y0222511D01*
X0179378Y0221345D01*
X0180271Y0220453D01*
X0179092Y0222037D02*
X0101698Y0222037D01*
X0101364Y0221703D02*
X0102256Y0222595D01*
X0102647Y0223538D01*
X0120421Y0241312D01*
X0121364Y0241703D01*
X0122256Y0242595D01*
X0122739Y0243761D01*
X0122739Y0245023D01*
X0122256Y0246188D01*
X0121364Y0247081D01*
X0120198Y0247563D01*
X0119724Y0247563D01*
X0119756Y0247595D01*
X0120239Y0248761D01*
X0120239Y0250023D01*
X0119756Y0251188D01*
X0118864Y0252081D01*
X0117698Y0252563D01*
X0116436Y0252563D01*
X0115271Y0252081D01*
X0114378Y0251188D01*
X0113988Y0250245D01*
X0103714Y0239971D01*
X0102771Y0239581D01*
X0101878Y0238688D01*
X0101396Y0237523D01*
X0101396Y0236261D01*
X0101878Y0235095D01*
X0102771Y0234203D01*
X0103936Y0233720D01*
X0104963Y0233720D01*
X0098714Y0227471D01*
X0097771Y0227081D01*
X0096878Y0226188D01*
X0096396Y0225023D01*
X0096396Y0223761D01*
X0096878Y0222595D01*
X0097771Y0221703D01*
X0098936Y0221220D01*
X0100198Y0221220D01*
X0101364Y0221703D01*
X0102744Y0223635D02*
X0178896Y0223635D01*
X0179674Y0225234D02*
X0104342Y0225234D01*
X0105941Y0226832D02*
X0179599Y0226832D01*
X0178000Y0228431D02*
X0107539Y0228431D01*
X0109138Y0230029D02*
X0176402Y0230029D01*
X0174803Y0231628D02*
X0110736Y0231628D01*
X0112335Y0233226D02*
X0173205Y0233226D01*
X0171606Y0234825D02*
X0113933Y0234825D01*
X0115532Y0236423D02*
X0163446Y0236423D01*
X0165689Y0236423D02*
X0170007Y0236423D01*
X0176262Y0241219D02*
X0228236Y0241219D01*
X0228236Y0242817D02*
X0174664Y0242817D01*
X0173065Y0244416D02*
X0228236Y0244416D01*
X0228236Y0246014D02*
X0171467Y0246014D01*
X0163037Y0249211D02*
X0228236Y0249211D01*
X0228236Y0247613D02*
X0161439Y0247613D01*
X0161909Y0241219D02*
X0120327Y0241219D01*
X0118729Y0239620D02*
X0161396Y0239620D01*
X0161702Y0238022D02*
X0117130Y0238022D01*
X0119567Y0244392D02*
X0099567Y0224392D01*
X0097437Y0222037D02*
X0047993Y0222037D01*
X0050391Y0223635D02*
X0096448Y0223635D01*
X0096483Y0225234D02*
X0051220Y0225234D01*
X0051283Y0225549D02*
X0051088Y0226536D01*
X0050529Y0227374D01*
X0049692Y0227934D01*
X0048705Y0228132D01*
X0047717Y0227937D01*
X0040974Y0223441D01*
X0040414Y0222605D01*
X0040217Y0221617D01*
X0040412Y0220629D01*
X0040971Y0219792D01*
X0041807Y0219231D01*
X0042795Y0219034D01*
X0043782Y0219229D01*
X0050525Y0223725D01*
X0051085Y0224561D01*
X0051283Y0225549D01*
X0050890Y0226832D02*
X0097522Y0226832D01*
X0099673Y0228431D02*
X0039727Y0228431D01*
X0039727Y0228881D02*
X0039349Y0229793D01*
X0039033Y0230109D01*
X0039349Y0230425D01*
X0039727Y0231337D01*
X0039727Y0236328D01*
X0039349Y0237240D01*
X0038651Y0237937D01*
X0037739Y0238315D01*
X0036752Y0238315D01*
X0035840Y0237937D01*
X0034578Y0236676D01*
X0034345Y0237240D01*
X0033647Y0237937D01*
X0032735Y0238315D01*
X0031748Y0238315D01*
X0030836Y0237937D01*
X0029835Y0236937D01*
X0029623Y0236725D01*
X0029349Y0237386D01*
X0028348Y0238387D01*
X0028348Y0238387D01*
X0027663Y0239072D01*
X0027650Y0239085D01*
X0027280Y0239238D01*
X0026738Y0239463D01*
X0026530Y0239463D01*
X0026724Y0239931D01*
X0026724Y0244401D01*
X0026752Y0244389D01*
X0027739Y0244389D01*
X0028651Y0244767D01*
X0029113Y0245229D01*
X0029137Y0245171D01*
X0031837Y0242472D01*
X0032749Y0242094D01*
X0035737Y0242094D01*
X0036649Y0242472D01*
X0037347Y0243169D01*
X0039349Y0245171D01*
X0039727Y0246083D01*
X0039727Y0247070D01*
X0039349Y0247982D01*
X0039033Y0248298D01*
X0039349Y0248614D01*
X0039727Y0249526D01*
X0039727Y0252515D01*
X0039349Y0253427D01*
X0039106Y0253669D01*
X0039349Y0253912D01*
X0039727Y0254824D01*
X0039727Y0255811D01*
X0039349Y0256723D01*
X0037347Y0258725D01*
X0036649Y0259422D01*
X0035737Y0259800D01*
X0032749Y0259800D01*
X0031837Y0259422D01*
X0029580Y0257166D01*
X0029349Y0257724D01*
X0028348Y0258725D01*
X0027650Y0259422D01*
X0026738Y0259800D01*
X0023750Y0259800D01*
X0022838Y0259422D01*
X0022140Y0258725D01*
X0021837Y0258422D01*
X0021837Y0258422D01*
X0021139Y0257724D01*
X0020979Y0257338D01*
X0020761Y0256812D01*
X0020761Y0253823D01*
X0021139Y0252911D01*
X0021455Y0252595D01*
X0019835Y0250975D01*
X0019137Y0250277D01*
X0018759Y0249365D01*
X0018759Y0248378D01*
X0019137Y0247466D01*
X0019835Y0246769D01*
X0020747Y0246391D01*
X0022697Y0246391D01*
X0022140Y0245834D01*
X0021762Y0244922D01*
X0021762Y0240011D01*
X0021139Y0239388D01*
X0021050Y0239174D01*
X0020836Y0239085D01*
X0020138Y0238387D01*
X0019760Y0237475D01*
X0019760Y0236488D01*
X0020138Y0235576D01*
X0020836Y0234878D01*
X0021019Y0234802D01*
X0020761Y0234179D01*
X0020761Y0233192D01*
X0020971Y0232685D01*
X0020761Y0232177D01*
X0020761Y0230190D01*
X0021139Y0229278D01*
X0021418Y0228998D01*
X0021139Y0228719D01*
X0020761Y0227807D01*
X0020761Y0224818D01*
X0021139Y0223906D01*
X0021955Y0223090D01*
X0021837Y0222971D01*
X0021837Y0222971D01*
X0021152Y0222287D01*
X0021139Y0222273D01*
X0020985Y0221903D01*
X0020761Y0221362D01*
X0020761Y0217372D01*
X0021139Y0216460D01*
X0021455Y0216144D01*
X0021139Y0215828D01*
X0020979Y0215443D01*
X0020761Y0214916D01*
X0020761Y0211927D01*
X0021139Y0211015D01*
X0021455Y0210699D01*
X0021139Y0210383D01*
X0020761Y0209471D01*
X0020761Y0208484D01*
X0020971Y0207977D01*
X0020761Y0207470D01*
X0020761Y0205482D01*
X0021139Y0204570D01*
X0021837Y0203872D01*
X0022749Y0203494D01*
X0023736Y0203494D01*
X0024648Y0203872D01*
X0025346Y0204570D01*
X0025723Y0205482D01*
X0025723Y0205948D01*
X0026272Y0206497D01*
X0027739Y0206497D01*
X0028651Y0206874D01*
X0029349Y0207572D01*
X0029727Y0208484D01*
X0029727Y0209471D01*
X0029349Y0210383D01*
X0029033Y0210699D01*
X0029349Y0211015D01*
X0029602Y0211625D01*
X0030138Y0211089D01*
X0030138Y0211089D01*
X0030836Y0210391D01*
X0031748Y0210013D01*
X0036738Y0210013D01*
X0037280Y0210238D01*
X0037650Y0210391D01*
X0037663Y0210404D01*
X0038348Y0211089D01*
X0038651Y0211392D01*
X0039349Y0212090D01*
X0039727Y0213002D01*
X0039727Y0215990D01*
X0039349Y0216902D01*
X0039033Y0217218D01*
X0039349Y0217534D01*
X0039727Y0218446D01*
X0039727Y0223437D01*
X0039349Y0224349D01*
X0039033Y0224665D01*
X0039349Y0224981D01*
X0039727Y0225893D01*
X0039727Y0228881D01*
X0039113Y0230029D02*
X0101272Y0230029D01*
X0102870Y0231628D02*
X0039727Y0231628D01*
X0039727Y0233226D02*
X0040587Y0233226D01*
X0040651Y0233072D02*
X0041363Y0232360D01*
X0042294Y0231974D01*
X0049206Y0231974D01*
X0050136Y0232360D01*
X0050848Y0233072D01*
X0051233Y0234002D01*
X0051233Y0235009D01*
X0050848Y0235939D01*
X0050313Y0236474D01*
X0050848Y0237008D01*
X0051233Y0237939D01*
X0051233Y0238946D01*
X0050922Y0239697D01*
X0051233Y0240448D01*
X0051233Y0241455D01*
X0050848Y0242385D01*
X0050313Y0242919D01*
X0050848Y0243454D01*
X0051233Y0244384D01*
X0051233Y0245391D01*
X0050848Y0246321D01*
X0050535Y0246634D01*
X0050848Y0246947D01*
X0051233Y0247877D01*
X0051233Y0250853D01*
X0050848Y0251783D01*
X0050043Y0252588D01*
X0050848Y0253392D01*
X0051233Y0254323D01*
X0051233Y0257298D01*
X0050848Y0258228D01*
X0050136Y0258940D01*
X0049152Y0259924D01*
X0048222Y0260310D01*
X0043278Y0260310D01*
X0042725Y0260081D01*
X0042348Y0259925D01*
X0042348Y0259924D01*
X0042322Y0259898D01*
X0041363Y0258940D01*
X0040678Y0258254D01*
X0040651Y0258228D01*
X0040430Y0257694D01*
X0040266Y0257298D01*
X0040266Y0254323D01*
X0040458Y0253861D01*
X0040651Y0253392D01*
X0040834Y0253209D01*
X0041363Y0252680D01*
X0041363Y0252680D01*
X0041456Y0252588D01*
X0041363Y0252495D01*
X0040678Y0251809D01*
X0040651Y0251783D01*
X0040430Y0251249D01*
X0040266Y0250853D01*
X0040266Y0247877D01*
X0040421Y0247503D01*
X0040651Y0246947D01*
X0040964Y0246634D01*
X0040651Y0246321D01*
X0040266Y0245391D01*
X0040266Y0244384D01*
X0040651Y0243454D01*
X0041186Y0242919D01*
X0040651Y0242385D01*
X0040266Y0241455D01*
X0040266Y0240448D01*
X0040577Y0239697D01*
X0040266Y0238946D01*
X0040266Y0237939D01*
X0040651Y0237008D01*
X0041186Y0236474D01*
X0040651Y0235939D01*
X0040266Y0235009D01*
X0040266Y0234002D01*
X0040651Y0233072D01*
X0040266Y0234825D02*
X0039727Y0234825D01*
X0039687Y0236423D02*
X0041135Y0236423D01*
X0040266Y0238022D02*
X0038447Y0238022D01*
X0036044Y0238022D02*
X0033443Y0238022D01*
X0031040Y0238022D02*
X0028713Y0238022D01*
X0027650Y0239085D02*
X0027650Y0239085D01*
X0026595Y0239620D02*
X0040546Y0239620D01*
X0040266Y0241219D02*
X0026724Y0241219D01*
X0026724Y0242817D02*
X0031491Y0242817D01*
X0029892Y0244416D02*
X0027804Y0244416D01*
X0022321Y0246014D02*
X0016752Y0246014D01*
X0016752Y0244416D02*
X0021762Y0244416D01*
X0021762Y0242817D02*
X0016752Y0242817D01*
X0016752Y0241219D02*
X0021762Y0241219D01*
X0021371Y0239620D02*
X0016752Y0239620D01*
X0016752Y0238022D02*
X0019987Y0238022D01*
X0019787Y0236423D02*
X0016752Y0236423D01*
X0016752Y0234825D02*
X0020965Y0234825D01*
X0020761Y0233226D02*
X0016752Y0233226D01*
X0016752Y0231628D02*
X0020761Y0231628D01*
X0020827Y0230029D02*
X0016752Y0230029D01*
X0016752Y0228431D02*
X0021019Y0228431D01*
X0020761Y0226832D02*
X0016752Y0226832D01*
X0016752Y0225234D02*
X0020761Y0225234D01*
X0021410Y0223635D02*
X0016752Y0223635D01*
X0016752Y0222037D02*
X0021041Y0222037D01*
X0021139Y0222273D02*
X0021139Y0222273D01*
X0020761Y0220438D02*
X0016752Y0220438D01*
X0016752Y0218840D02*
X0020761Y0218840D01*
X0020815Y0217241D02*
X0016752Y0217241D01*
X0016752Y0215643D02*
X0021062Y0215643D01*
X0020761Y0214044D02*
X0016752Y0214044D01*
X0016752Y0212446D02*
X0020761Y0212446D01*
X0021307Y0210847D02*
X0016752Y0210847D01*
X0016752Y0209249D02*
X0020761Y0209249D01*
X0020836Y0207650D02*
X0016752Y0207650D01*
X0016752Y0206052D02*
X0020761Y0206052D01*
X0021256Y0204453D02*
X0016752Y0204453D01*
X0016752Y0202855D02*
X0030761Y0202855D01*
X0030761Y0201256D02*
X0016752Y0201256D01*
X0016752Y0199658D02*
X0020998Y0199658D01*
X0021220Y0200101D02*
X0020770Y0199201D01*
X0020698Y0198196D01*
X0021017Y0197241D01*
X0021616Y0196551D01*
X0021017Y0195860D01*
X0020698Y0194905D01*
X0020770Y0193901D01*
X0021015Y0193410D01*
X0019145Y0191539D01*
X0018770Y0190635D01*
X0018759Y0190609D01*
X0018759Y0189602D01*
X0019145Y0188671D01*
X0019506Y0188310D01*
X0019857Y0187959D01*
X0020761Y0187585D01*
X0020787Y0187574D01*
X0024689Y0187574D01*
X0025050Y0186703D01*
X0025762Y0185991D01*
X0026692Y0185606D01*
X0027699Y0185606D01*
X0028629Y0185991D01*
X0029341Y0186703D01*
X0029727Y0187633D01*
X0029727Y0192577D01*
X0029341Y0193507D01*
X0028629Y0194219D01*
X0028440Y0194298D01*
X0028474Y0194309D01*
X0028613Y0194430D01*
X0028778Y0194512D01*
X0028990Y0194756D01*
X0029234Y0194968D01*
X0029317Y0195133D01*
X0029438Y0195273D01*
X0029540Y0195580D01*
X0029685Y0195869D01*
X0029698Y0196053D01*
X0029756Y0196228D01*
X0029733Y0196551D01*
X0029756Y0196874D01*
X0029698Y0197048D01*
X0029685Y0197232D01*
X0029540Y0197522D01*
X0029438Y0197829D01*
X0029317Y0197968D01*
X0029234Y0198133D01*
X0028990Y0198345D01*
X0028778Y0198589D01*
X0028613Y0198672D01*
X0028474Y0198793D01*
X0028167Y0198895D01*
X0023941Y0201008D01*
X0022936Y0201080D01*
X0021981Y0200761D01*
X0021220Y0200101D01*
X0020744Y0198059D02*
X0016752Y0198059D01*
X0016752Y0196461D02*
X0021537Y0196461D01*
X0020702Y0194862D02*
X0016752Y0194862D01*
X0016752Y0193263D02*
X0020869Y0193263D01*
X0019271Y0191665D02*
X0016752Y0191665D01*
X0016752Y0190066D02*
X0018759Y0190066D01*
X0019348Y0188468D02*
X0016752Y0188468D01*
X0016752Y0186869D02*
X0024981Y0186869D01*
X0029410Y0186869D02*
X0030761Y0186869D01*
X0030761Y0188468D02*
X0029727Y0188468D01*
X0029727Y0190066D02*
X0030761Y0190066D01*
X0031226Y0191665D02*
X0029727Y0191665D01*
X0029442Y0193263D02*
X0030761Y0193263D01*
X0031438Y0194862D02*
X0029112Y0194862D01*
X0029739Y0196461D02*
X0030847Y0196461D01*
X0030929Y0198059D02*
X0029271Y0198059D01*
X0030761Y0199658D02*
X0026642Y0199658D01*
X0025229Y0204453D02*
X0031581Y0204453D01*
X0033662Y0206052D02*
X0025826Y0206052D01*
X0029381Y0207650D02*
X0041275Y0207650D01*
X0040398Y0206052D02*
X0037826Y0206052D01*
X0036665Y0206052D02*
X0034824Y0206052D01*
X0039580Y0204453D02*
X0040266Y0204453D01*
X0040266Y0202855D02*
X0039727Y0202855D01*
X0039727Y0201256D02*
X0041224Y0201256D01*
X0039539Y0199658D02*
X0043219Y0199658D01*
X0043219Y0198059D02*
X0038856Y0198059D01*
X0041394Y0196461D02*
X0043219Y0196461D01*
X0040266Y0191665D02*
X0040263Y0191665D01*
X0040266Y0190066D02*
X0039727Y0190066D01*
X0039727Y0188468D02*
X0040807Y0188468D01*
X0040266Y0186869D02*
X0039582Y0186869D01*
X0039517Y0185271D02*
X0040825Y0185271D01*
X0040360Y0183672D02*
X0039684Y0183672D01*
X0039727Y0182074D02*
X0040417Y0182074D01*
X0039727Y0180475D02*
X0042137Y0180475D01*
X0043219Y0178877D02*
X0039355Y0178877D01*
X0039727Y0177278D02*
X0043219Y0177278D01*
X0041895Y0175680D02*
X0039727Y0175680D01*
X0039624Y0174081D02*
X0040504Y0174081D01*
X0040266Y0172483D02*
X0038650Y0172483D01*
X0039721Y0170884D02*
X0040266Y0170884D01*
X0039727Y0169286D02*
X0040967Y0169286D01*
X0041332Y0167687D02*
X0039727Y0167687D01*
X0039398Y0166089D02*
X0040271Y0166089D01*
X0040506Y0164490D02*
X0039700Y0164490D01*
X0039727Y0162892D02*
X0041899Y0162892D01*
X0043733Y0161293D02*
X0039667Y0161293D01*
X0039431Y0159695D02*
X0097370Y0159695D01*
X0097450Y0159776D02*
X0096555Y0158881D01*
X0096071Y0157712D01*
X0096071Y0156446D01*
X0096555Y0155277D01*
X0097450Y0154382D01*
X0098620Y0153898D01*
X0098783Y0153898D01*
X0113021Y0139660D01*
X0112489Y0139660D01*
X0104282Y0139660D01*
X0104174Y0139768D01*
X0103008Y0140250D01*
X0102417Y0140250D01*
X0101949Y0141381D01*
X0101054Y0142276D01*
X0099885Y0142760D01*
X0098620Y0142760D01*
X0097450Y0142276D01*
X0096555Y0141381D01*
X0096071Y0140212D01*
X0096071Y0138946D01*
X0096555Y0137777D01*
X0096671Y0137661D01*
X0096671Y0132815D01*
X0097064Y0131867D01*
X0097790Y0131141D01*
X0102852Y0126079D01*
X0102852Y0020629D01*
X0046252Y0020629D01*
X0046252Y0027859D01*
X0048857Y0025254D01*
X0052358Y0023804D01*
X0056147Y0023804D01*
X0059647Y0025254D01*
X0062327Y0027934D01*
X0063777Y0031434D01*
X0063777Y0035223D01*
X0062327Y0038724D01*
X0059647Y0041403D01*
X0056147Y0042853D01*
X0052358Y0042853D01*
X0048857Y0041403D01*
X0046252Y0038798D01*
X0046252Y0041657D01*
X0045081Y0042829D01*
X0030081Y0057829D01*
X0016752Y0057829D01*
X0016752Y0268829D01*
X0030081Y0268829D01*
X0031252Y0270000D01*
X0046252Y0285000D01*
X0046252Y0306304D01*
X0356002Y0306304D01*
X0356002Y0286250D01*
X0357174Y0285079D01*
X0372174Y0270079D01*
X0388002Y0270079D01*
X0388002Y0057829D01*
X0372174Y0057829D01*
X0371002Y0056657D01*
X0356002Y0041657D01*
X0356002Y0032605D01*
X0354989Y0033025D01*
X0352374Y0033025D01*
X0349959Y0032025D01*
X0348110Y0030176D01*
X0347110Y0027761D01*
X0347110Y0025147D01*
X0348110Y0022731D01*
X0349959Y0020883D01*
X0350572Y0020629D01*
X0340059Y0020629D01*
X0340672Y0020883D01*
X0342520Y0022731D01*
X0343521Y0025147D01*
X0343521Y0027761D01*
X0342520Y0030176D01*
X0340672Y0032025D01*
X0338256Y0033025D01*
X0335642Y0033025D01*
X0333227Y0032025D01*
X0331378Y0030176D01*
X0330377Y0027761D01*
X0330377Y0025147D01*
X0331378Y0022731D01*
X0333227Y0020883D01*
X0333839Y0020629D01*
X0243152Y0020629D01*
X0243152Y0128993D01*
X0243191Y0129032D01*
X0243674Y0130198D01*
X0243674Y0131460D01*
X0243503Y0131871D01*
X0243549Y0131890D01*
X0244441Y0132782D01*
X0244924Y0133948D01*
X0244924Y0135210D01*
X0244441Y0136375D01*
X0243549Y0137268D01*
X0243152Y0137432D01*
X0243152Y0138033D01*
X0242332Y0138853D01*
X0121128Y0138853D01*
X0102433Y0157548D01*
X0102433Y0157712D01*
X0101949Y0158881D01*
X0101054Y0159776D01*
X0099885Y0160260D01*
X0098620Y0160260D01*
X0097450Y0159776D01*
X0096231Y0158096D02*
X0039727Y0158096D01*
X0039727Y0156498D02*
X0096071Y0156498D01*
X0096933Y0154899D02*
X0039727Y0154899D01*
X0039441Y0153301D02*
X0099380Y0153301D01*
X0100979Y0151702D02*
X0016752Y0151702D01*
X0016752Y0150104D02*
X0102577Y0150104D01*
X0104176Y0148505D02*
X0016752Y0148505D01*
X0016752Y0146907D02*
X0105774Y0146907D01*
X0107373Y0145308D02*
X0016752Y0145308D01*
X0016752Y0143710D02*
X0108971Y0143710D01*
X0110570Y0142111D02*
X0101219Y0142111D01*
X0102309Y0140513D02*
X0112168Y0140513D01*
X0116272Y0143710D02*
X0259171Y0143710D01*
X0259171Y0145308D02*
X0114673Y0145308D01*
X0113075Y0146907D02*
X0259171Y0146907D01*
X0259171Y0148505D02*
X0111476Y0148505D01*
X0109878Y0150104D02*
X0259171Y0150104D01*
X0259171Y0151702D02*
X0108279Y0151702D01*
X0106681Y0153301D02*
X0259171Y0153301D01*
X0259171Y0154899D02*
X0105082Y0154899D01*
X0103484Y0156498D02*
X0259171Y0156498D01*
X0259171Y0158096D02*
X0102274Y0158096D01*
X0101135Y0159695D02*
X0259171Y0159695D01*
X0259171Y0161293D02*
X0049735Y0161293D01*
X0051146Y0162892D02*
X0256618Y0162892D01*
X0257184Y0162657D02*
X0258446Y0162657D01*
X0259171Y0162957D01*
X0259171Y0133002D01*
X0259564Y0132054D01*
X0259644Y0131974D01*
X0259644Y0131822D01*
X0260126Y0130656D01*
X0260568Y0130215D01*
X0258021Y0127668D01*
X0257821Y0127750D01*
X0256559Y0127750D01*
X0255394Y0127268D01*
X0254501Y0126375D01*
X0254019Y0125210D01*
X0254019Y0123948D01*
X0254501Y0122782D01*
X0255394Y0121890D01*
X0255643Y0121787D01*
X0255643Y0120823D01*
X0256125Y0119657D01*
X0256785Y0118997D01*
X0256770Y0118960D01*
X0256770Y0117698D01*
X0257252Y0116532D01*
X0258145Y0115640D01*
X0259310Y0115157D01*
X0260572Y0115157D01*
X0261738Y0115640D01*
X0262630Y0116532D01*
X0263113Y0117698D01*
X0263113Y0117992D01*
X0265234Y0120113D01*
X0265234Y0115648D01*
X0261087Y0111500D01*
X0260934Y0111500D01*
X0259769Y0111018D01*
X0258876Y0110125D01*
X0258394Y0108960D01*
X0258394Y0107698D01*
X0258876Y0106532D01*
X0259769Y0105640D01*
X0260934Y0105157D01*
X0262196Y0105157D01*
X0263362Y0105640D01*
X0264254Y0106532D01*
X0264737Y0107698D01*
X0264737Y0107850D01*
X0269277Y0112391D01*
X0270003Y0113117D01*
X0270396Y0114065D01*
X0270396Y0121010D01*
X0281088Y0131702D01*
X0281814Y0132428D01*
X0282207Y0133376D01*
X0282207Y0153281D01*
X0281814Y0154230D01*
X0280907Y0155137D01*
X0281024Y0155137D01*
X0281967Y0155528D01*
X0285433Y0155528D01*
X0285293Y0155388D01*
X0284840Y0154294D01*
X0284840Y0134935D01*
X0276130Y0126225D01*
X0275293Y0125388D01*
X0274840Y0124294D01*
X0274840Y0120770D01*
X0274793Y0120722D01*
X0274250Y0119412D01*
X0274250Y0117994D01*
X0274793Y0116683D01*
X0275796Y0115680D01*
X0277106Y0115137D01*
X0278524Y0115137D01*
X0279835Y0115680D01*
X0280838Y0116683D01*
X0281381Y0117994D01*
X0281381Y0119412D01*
X0280838Y0120722D01*
X0280790Y0120770D01*
X0280790Y0122471D01*
X0290337Y0132018D01*
X0290790Y0133111D01*
X0290790Y0152471D01*
X0295337Y0157018D01*
X0295790Y0158111D01*
X0295790Y0171635D01*
X0295838Y0171683D01*
X0296381Y0172994D01*
X0296381Y0174412D01*
X0295838Y0175722D01*
X0294835Y0176725D01*
X0293524Y0177268D01*
X0292106Y0177268D01*
X0290796Y0176725D01*
X0289793Y0175722D01*
X0289250Y0174412D01*
X0289250Y0172994D01*
X0289793Y0171683D01*
X0289840Y0171635D01*
X0289840Y0161720D01*
X0289210Y0162350D01*
X0287899Y0162893D01*
X0286481Y0162893D01*
X0285171Y0162350D01*
X0284698Y0161878D01*
X0281967Y0161878D01*
X0281024Y0162268D01*
X0279606Y0162268D01*
X0278296Y0161725D01*
X0277293Y0160722D01*
X0276750Y0159412D01*
X0276750Y0157994D01*
X0277095Y0157160D01*
X0274720Y0157160D01*
X0274612Y0157268D01*
X0273446Y0157750D01*
X0272184Y0157750D01*
X0271019Y0157268D01*
X0270126Y0156375D01*
X0269644Y0155210D01*
X0269644Y0153948D01*
X0270032Y0153010D01*
X0269144Y0152642D01*
X0268251Y0151749D01*
X0267893Y0150885D01*
X0267808Y0150885D01*
X0266833Y0150481D01*
X0266833Y0228842D01*
X0266440Y0229791D01*
X0265714Y0230517D01*
X0257148Y0239083D01*
X0257148Y0249987D01*
X0257256Y0250095D01*
X0257739Y0251261D01*
X0257739Y0252523D01*
X0257256Y0253688D01*
X0256364Y0254581D01*
X0255227Y0255051D01*
X0254756Y0256188D01*
X0253864Y0257081D01*
X0252698Y0257563D01*
X0251436Y0257563D01*
X0250271Y0257081D01*
X0249378Y0256188D01*
X0248896Y0255023D01*
X0248896Y0253761D01*
X0249378Y0252595D01*
X0249486Y0252487D01*
X0249486Y0237995D01*
X0244648Y0242833D01*
X0244648Y0279905D01*
X0244255Y0280854D01*
X0243529Y0281580D01*
X0232739Y0292370D01*
X0232739Y0292523D01*
X0232256Y0293688D01*
X0231364Y0294581D01*
X0230198Y0295063D01*
X0228936Y0295063D01*
X0227771Y0294581D01*
X0226878Y0293688D01*
X0226396Y0292523D01*
X0226396Y0291261D01*
X0226878Y0290095D01*
X0227771Y0289203D01*
X0228936Y0288720D01*
X0229089Y0288720D01*
X0239486Y0278323D01*
X0239486Y0241250D01*
X0239879Y0240302D01*
X0256671Y0223510D01*
X0256671Y0171898D01*
X0256353Y0171580D01*
X0255627Y0170854D01*
X0255234Y0169905D01*
X0255234Y0167733D01*
X0255126Y0167625D01*
X0254644Y0166460D01*
X0254644Y0165198D01*
X0255126Y0164032D01*
X0256019Y0163140D01*
X0257184Y0162657D01*
X0259013Y0162892D02*
X0259171Y0162892D01*
X0254937Y0164490D02*
X0051075Y0164490D01*
X0050829Y0166089D02*
X0254644Y0166089D01*
X0255188Y0167687D02*
X0051233Y0167687D01*
X0050538Y0169286D02*
X0255234Y0169286D01*
X0255658Y0170884D02*
X0051233Y0170884D01*
X0063763Y0177278D02*
X0067207Y0177278D01*
X0079169Y0190066D02*
X0228864Y0190066D01*
X0230463Y0188468D02*
X0083310Y0188468D01*
X0084597Y0186869D02*
X0232061Y0186869D01*
X0233660Y0185271D02*
X0084194Y0185271D01*
X0084404Y0183672D02*
X0234945Y0183672D01*
X0236022Y0182074D02*
X0085686Y0182074D01*
X0085742Y0180475D02*
X0256671Y0180475D01*
X0256671Y0178877D02*
X0084372Y0178877D01*
X0079770Y0191665D02*
X0209894Y0191665D01*
X0208295Y0193263D02*
X0084105Y0193263D01*
X0084766Y0194862D02*
X0206697Y0194862D01*
X0205098Y0196461D02*
X0084184Y0196461D01*
X0084886Y0198059D02*
X0203500Y0198059D01*
X0211430Y0206052D02*
X0235379Y0206052D01*
X0233781Y0207650D02*
X0209831Y0207650D01*
X0208233Y0209249D02*
X0232182Y0209249D01*
X0230584Y0210847D02*
X0206634Y0210847D01*
X0205036Y0212446D02*
X0228985Y0212446D01*
X0228236Y0214044D02*
X0203437Y0214044D01*
X0201839Y0215643D02*
X0228236Y0215643D01*
X0228236Y0217241D02*
X0200240Y0217241D01*
X0198642Y0218840D02*
X0228236Y0218840D01*
X0228236Y0220438D02*
X0197043Y0220438D01*
X0195445Y0222037D02*
X0228236Y0222037D01*
X0228236Y0223635D02*
X0193846Y0223635D01*
X0192248Y0225234D02*
X0228236Y0225234D01*
X0228236Y0226832D02*
X0190649Y0226832D01*
X0189050Y0228431D02*
X0228236Y0228431D01*
X0228236Y0230029D02*
X0187452Y0230029D01*
X0185853Y0231628D02*
X0228236Y0231628D01*
X0228236Y0233226D02*
X0184255Y0233226D01*
X0182656Y0234825D02*
X0228236Y0234825D01*
X0228236Y0236423D02*
X0181058Y0236423D01*
X0179459Y0238022D02*
X0228236Y0238022D01*
X0228236Y0239620D02*
X0177861Y0239620D01*
X0182719Y0218840D02*
X0039727Y0218840D01*
X0039727Y0220438D02*
X0040539Y0220438D01*
X0040300Y0222037D02*
X0039727Y0222037D01*
X0039644Y0223635D02*
X0041265Y0223635D01*
X0039454Y0225234D02*
X0043663Y0225234D01*
X0046061Y0226832D02*
X0039727Y0226832D01*
X0039056Y0217241D02*
X0184318Y0217241D01*
X0185916Y0215643D02*
X0039727Y0215643D01*
X0039727Y0214044D02*
X0041586Y0214044D01*
X0040376Y0212446D02*
X0039496Y0212446D01*
X0038651Y0211392D02*
X0038651Y0211392D01*
X0038348Y0211089D02*
X0038348Y0211089D01*
X0038106Y0210847D02*
X0040266Y0210847D01*
X0040266Y0209249D02*
X0029727Y0209249D01*
X0029181Y0210847D02*
X0030380Y0210847D01*
X0037650Y0210391D02*
X0037650Y0210391D01*
X0030971Y0185271D02*
X0016752Y0185271D01*
X0016752Y0183672D02*
X0030761Y0183672D01*
X0030891Y0182074D02*
X0016752Y0182074D01*
X0016752Y0180475D02*
X0030885Y0180475D01*
X0031786Y0178877D02*
X0016752Y0178877D01*
X0016752Y0177278D02*
X0030761Y0177278D01*
X0030761Y0175680D02*
X0016752Y0175680D01*
X0016752Y0174081D02*
X0030863Y0174081D01*
X0031838Y0172483D02*
X0016752Y0172483D01*
X0016752Y0170884D02*
X0030766Y0170884D01*
X0030761Y0169286D02*
X0016752Y0169286D01*
X0016752Y0167687D02*
X0030761Y0167687D01*
X0031090Y0166089D02*
X0016752Y0166089D01*
X0016752Y0164490D02*
X0030788Y0164490D01*
X0030761Y0162892D02*
X0016752Y0162892D01*
X0016752Y0161293D02*
X0030821Y0161293D01*
X0031056Y0159695D02*
X0016752Y0159695D01*
X0016752Y0158096D02*
X0030761Y0158096D01*
X0030967Y0156498D02*
X0016752Y0156498D01*
X0016752Y0154899D02*
X0030800Y0154899D01*
X0031918Y0153301D02*
X0016752Y0153301D01*
X0016752Y0142111D02*
X0097286Y0142111D01*
X0096196Y0140513D02*
X0016752Y0140513D01*
X0016752Y0138914D02*
X0096084Y0138914D01*
X0096671Y0137316D02*
X0016752Y0137316D01*
X0016752Y0135717D02*
X0096671Y0135717D01*
X0096671Y0134119D02*
X0016752Y0134119D01*
X0016752Y0132520D02*
X0096793Y0132520D01*
X0098009Y0130922D02*
X0016752Y0130922D01*
X0016752Y0129323D02*
X0099608Y0129323D01*
X0101206Y0127725D02*
X0016752Y0127725D01*
X0016752Y0126126D02*
X0102805Y0126126D01*
X0102852Y0124528D02*
X0016752Y0124528D01*
X0016752Y0122929D02*
X0102852Y0122929D01*
X0102852Y0121330D02*
X0016752Y0121330D01*
X0016752Y0119732D02*
X0102852Y0119732D01*
X0102852Y0118133D02*
X0016752Y0118133D01*
X0016752Y0116535D02*
X0102852Y0116535D01*
X0102852Y0114936D02*
X0016752Y0114936D01*
X0016752Y0113338D02*
X0102852Y0113338D01*
X0102852Y0111739D02*
X0016752Y0111739D01*
X0016752Y0110141D02*
X0102852Y0110141D01*
X0102852Y0108542D02*
X0016752Y0108542D01*
X0016752Y0106944D02*
X0102852Y0106944D01*
X0102852Y0105345D02*
X0016752Y0105345D01*
X0016752Y0103747D02*
X0102852Y0103747D01*
X0102852Y0102148D02*
X0016752Y0102148D01*
X0016752Y0100550D02*
X0102852Y0100550D01*
X0102852Y0098951D02*
X0016752Y0098951D01*
X0016752Y0097353D02*
X0102852Y0097353D01*
X0102852Y0095754D02*
X0081747Y0095754D01*
X0081147Y0096003D02*
X0077358Y0096003D01*
X0073857Y0094553D01*
X0071178Y0091873D01*
X0069728Y0088373D01*
X0069728Y0084584D01*
X0071178Y0081083D01*
X0073857Y0078404D01*
X0077358Y0076954D01*
X0081147Y0076954D01*
X0084647Y0078404D01*
X0087327Y0081083D01*
X0088777Y0084584D01*
X0088777Y0088373D01*
X0087327Y0091873D01*
X0084647Y0094553D01*
X0081147Y0096003D01*
X0085044Y0094156D02*
X0102852Y0094156D01*
X0102852Y0092557D02*
X0086643Y0092557D01*
X0087706Y0090959D02*
X0102852Y0090959D01*
X0102852Y0089360D02*
X0088368Y0089360D01*
X0088777Y0087762D02*
X0102852Y0087762D01*
X0102852Y0086163D02*
X0088777Y0086163D01*
X0088769Y0084565D02*
X0102852Y0084565D01*
X0102852Y0082966D02*
X0088107Y0082966D01*
X0087445Y0081368D02*
X0102852Y0081368D01*
X0102852Y0079769D02*
X0086013Y0079769D01*
X0084084Y0078171D02*
X0102852Y0078171D01*
X0102852Y0076572D02*
X0016752Y0076572D01*
X0016752Y0074974D02*
X0102852Y0074974D01*
X0102852Y0073375D02*
X0016752Y0073375D01*
X0016752Y0071777D02*
X0102852Y0071777D01*
X0102852Y0070178D02*
X0016752Y0070178D01*
X0016752Y0068580D02*
X0102852Y0068580D01*
X0102852Y0066981D02*
X0016752Y0066981D01*
X0016752Y0065383D02*
X0102852Y0065383D01*
X0102852Y0063784D02*
X0016752Y0063784D01*
X0016752Y0062186D02*
X0102852Y0062186D01*
X0102852Y0060587D02*
X0016752Y0060587D01*
X0016752Y0058989D02*
X0102852Y0058989D01*
X0102852Y0057390D02*
X0030519Y0057390D01*
X0032118Y0055792D02*
X0102852Y0055792D01*
X0102852Y0054193D02*
X0033716Y0054193D01*
X0035315Y0052595D02*
X0102852Y0052595D01*
X0102852Y0050996D02*
X0036913Y0050996D01*
X0038512Y0049397D02*
X0102852Y0049397D01*
X0102852Y0047799D02*
X0040110Y0047799D01*
X0041709Y0046200D02*
X0102852Y0046200D01*
X0102852Y0044602D02*
X0043307Y0044602D01*
X0044906Y0043003D02*
X0102852Y0043003D01*
X0102852Y0041405D02*
X0084643Y0041405D01*
X0084647Y0041403D02*
X0081147Y0042853D01*
X0077358Y0042853D01*
X0073857Y0041403D01*
X0071178Y0038724D01*
X0069728Y0035223D01*
X0069728Y0031434D01*
X0071178Y0027934D01*
X0073857Y0025254D01*
X0077358Y0023804D01*
X0081147Y0023804D01*
X0084647Y0025254D01*
X0087327Y0027934D01*
X0088777Y0031434D01*
X0088777Y0035223D01*
X0087327Y0038724D01*
X0084647Y0041403D01*
X0086244Y0039806D02*
X0102852Y0039806D01*
X0102852Y0038208D02*
X0087540Y0038208D01*
X0088203Y0036609D02*
X0102852Y0036609D01*
X0102852Y0035011D02*
X0088777Y0035011D01*
X0088777Y0033412D02*
X0102852Y0033412D01*
X0102852Y0031814D02*
X0088777Y0031814D01*
X0088272Y0030215D02*
X0102852Y0030215D01*
X0102852Y0028617D02*
X0087610Y0028617D01*
X0086411Y0027018D02*
X0102852Y0027018D01*
X0102852Y0025420D02*
X0084813Y0025420D01*
X0081188Y0023821D02*
X0102852Y0023821D01*
X0102852Y0022223D02*
X0046252Y0022223D01*
X0046252Y0023821D02*
X0052317Y0023821D01*
X0056188Y0023821D02*
X0077317Y0023821D01*
X0073692Y0025420D02*
X0059813Y0025420D01*
X0061411Y0027018D02*
X0072093Y0027018D01*
X0070895Y0028617D02*
X0062610Y0028617D01*
X0063272Y0030215D02*
X0070233Y0030215D01*
X0069728Y0031814D02*
X0063777Y0031814D01*
X0063777Y0033412D02*
X0069728Y0033412D01*
X0069728Y0035011D02*
X0063777Y0035011D01*
X0063203Y0036609D02*
X0070302Y0036609D01*
X0070964Y0038208D02*
X0062540Y0038208D01*
X0061244Y0039806D02*
X0072260Y0039806D01*
X0073861Y0041405D02*
X0059643Y0041405D01*
X0048861Y0041405D02*
X0046252Y0041405D01*
X0046252Y0039806D02*
X0047260Y0039806D01*
X0047093Y0027018D02*
X0046252Y0027018D01*
X0046252Y0025420D02*
X0048692Y0025420D01*
X0052358Y0076954D02*
X0048857Y0078404D01*
X0046178Y0081083D01*
X0044728Y0084584D01*
X0044728Y0088373D01*
X0046178Y0091873D01*
X0048857Y0094553D01*
X0052358Y0096003D01*
X0056147Y0096003D01*
X0059647Y0094553D01*
X0062327Y0091873D01*
X0063777Y0088373D01*
X0063777Y0084584D01*
X0062327Y0081083D01*
X0059647Y0078404D01*
X0056147Y0076954D01*
X0052358Y0076954D01*
X0049420Y0078171D02*
X0016752Y0078171D01*
X0016752Y0079769D02*
X0047492Y0079769D01*
X0046060Y0081368D02*
X0016752Y0081368D01*
X0016752Y0082966D02*
X0045398Y0082966D01*
X0044736Y0084565D02*
X0016752Y0084565D01*
X0016752Y0086163D02*
X0044728Y0086163D01*
X0044728Y0087762D02*
X0016752Y0087762D01*
X0016752Y0089360D02*
X0045137Y0089360D01*
X0045799Y0090959D02*
X0016752Y0090959D01*
X0016752Y0092557D02*
X0046862Y0092557D01*
X0048460Y0094156D02*
X0016752Y0094156D01*
X0016752Y0095754D02*
X0051758Y0095754D01*
X0056747Y0095754D02*
X0076758Y0095754D01*
X0073460Y0094156D02*
X0060044Y0094156D01*
X0061643Y0092557D02*
X0071862Y0092557D01*
X0070799Y0090959D02*
X0062706Y0090959D01*
X0063368Y0089360D02*
X0070137Y0089360D01*
X0069728Y0087762D02*
X0063777Y0087762D01*
X0063777Y0086163D02*
X0069728Y0086163D01*
X0069736Y0084565D02*
X0063769Y0084565D01*
X0063107Y0082966D02*
X0070398Y0082966D01*
X0071060Y0081368D02*
X0062445Y0081368D01*
X0061013Y0079769D02*
X0072492Y0079769D01*
X0074420Y0078171D02*
X0059084Y0078171D01*
X0121067Y0138914D02*
X0259171Y0138914D01*
X0259171Y0137316D02*
X0243433Y0137316D01*
X0244714Y0135717D02*
X0259171Y0135717D01*
X0259171Y0134119D02*
X0244924Y0134119D01*
X0244179Y0132520D02*
X0259371Y0132520D01*
X0260017Y0130922D02*
X0243674Y0130922D01*
X0243312Y0129323D02*
X0259676Y0129323D01*
X0258077Y0127725D02*
X0257884Y0127725D01*
X0256497Y0127725D02*
X0243152Y0127725D01*
X0243152Y0126126D02*
X0254398Y0126126D01*
X0254019Y0124528D02*
X0243152Y0124528D01*
X0243152Y0122929D02*
X0254441Y0122929D01*
X0255643Y0121330D02*
X0243152Y0121330D01*
X0243152Y0119732D02*
X0256094Y0119732D01*
X0256770Y0118133D02*
X0243152Y0118133D01*
X0243152Y0116535D02*
X0257251Y0116535D01*
X0262631Y0116535D02*
X0265234Y0116535D01*
X0265234Y0118133D02*
X0263255Y0118133D01*
X0264853Y0119732D02*
X0265234Y0119732D01*
X0270396Y0119732D02*
X0274382Y0119732D01*
X0274250Y0118133D02*
X0270396Y0118133D01*
X0270396Y0116535D02*
X0274941Y0116535D01*
X0274840Y0121330D02*
X0270717Y0121330D01*
X0272316Y0122929D02*
X0274840Y0122929D01*
X0274937Y0124528D02*
X0273914Y0124528D01*
X0275513Y0126126D02*
X0276032Y0126126D01*
X0277111Y0127725D02*
X0277630Y0127725D01*
X0278710Y0129323D02*
X0279229Y0129323D01*
X0280308Y0130922D02*
X0280827Y0130922D01*
X0281853Y0132520D02*
X0282426Y0132520D01*
X0282207Y0134119D02*
X0284024Y0134119D01*
X0284840Y0135717D02*
X0282207Y0135717D01*
X0282207Y0137316D02*
X0284840Y0137316D01*
X0284840Y0138914D02*
X0282207Y0138914D01*
X0282207Y0140513D02*
X0284840Y0140513D01*
X0284840Y0142111D02*
X0282207Y0142111D01*
X0282207Y0143710D02*
X0284840Y0143710D01*
X0284840Y0145308D02*
X0282207Y0145308D01*
X0282207Y0146907D02*
X0284840Y0146907D01*
X0284840Y0148505D02*
X0282207Y0148505D01*
X0282207Y0150104D02*
X0284840Y0150104D01*
X0284840Y0151702D02*
X0282207Y0151702D01*
X0282199Y0153301D02*
X0284840Y0153301D01*
X0285091Y0154899D02*
X0281145Y0154899D01*
X0280315Y0158703D02*
X0286565Y0158703D01*
X0287190Y0159328D01*
X0286478Y0162892D02*
X0266833Y0162892D01*
X0266833Y0164490D02*
X0289840Y0164490D01*
X0289840Y0162892D02*
X0287903Y0162892D01*
X0289840Y0166089D02*
X0266833Y0166089D01*
X0266833Y0167687D02*
X0289840Y0167687D01*
X0289840Y0169286D02*
X0266833Y0169286D01*
X0266833Y0170884D02*
X0289840Y0170884D01*
X0289461Y0172483D02*
X0266833Y0172483D01*
X0266833Y0174081D02*
X0289250Y0174081D01*
X0289775Y0175680D02*
X0266833Y0175680D01*
X0266833Y0177278D02*
X0374640Y0177278D01*
X0374640Y0175680D02*
X0295855Y0175680D01*
X0296381Y0174081D02*
X0362404Y0174081D01*
X0362726Y0174404D02*
X0361335Y0173012D01*
X0361335Y0163645D01*
X0362513Y0162467D01*
X0361957Y0161910D01*
X0358697Y0161910D01*
X0357381Y0161365D01*
X0356374Y0160357D01*
X0355829Y0159041D01*
X0355829Y0158681D01*
X0352016Y0154868D01*
X0351754Y0155499D01*
X0350862Y0156392D01*
X0349696Y0156874D01*
X0348434Y0156874D01*
X0347492Y0156484D01*
X0344762Y0156484D01*
X0343740Y0156060D01*
X0331663Y0143984D01*
X0314389Y0143984D01*
X0313446Y0144374D01*
X0312184Y0144374D01*
X0311019Y0143892D01*
X0310396Y0143269D01*
X0310396Y0154216D01*
X0310015Y0155137D01*
X0311024Y0155137D01*
X0312335Y0155680D01*
X0313338Y0156683D01*
X0313881Y0157994D01*
X0313881Y0159412D01*
X0313338Y0160722D01*
X0312335Y0161725D01*
X0311024Y0162268D01*
X0309606Y0162268D01*
X0308296Y0161725D01*
X0307293Y0160722D01*
X0306750Y0159412D01*
X0306750Y0158418D01*
X0305987Y0159181D01*
X0305987Y0159334D01*
X0305504Y0160499D01*
X0304612Y0161392D01*
X0303446Y0161874D01*
X0302184Y0161874D01*
X0301019Y0161392D01*
X0300126Y0160499D01*
X0299644Y0159334D01*
X0299644Y0158072D01*
X0300126Y0156906D01*
X0301019Y0156014D01*
X0302184Y0155531D01*
X0302337Y0155531D01*
X0305234Y0152634D01*
X0305234Y0135689D01*
X0305627Y0134741D01*
X0315894Y0124474D01*
X0315894Y0124322D01*
X0316027Y0124000D01*
X0307419Y0132608D01*
X0306721Y0133306D01*
X0305809Y0133684D01*
X0296072Y0133684D01*
X0295160Y0133306D01*
X0288910Y0127056D01*
X0288212Y0126358D01*
X0287834Y0125446D01*
X0287834Y0118207D01*
X0287626Y0117999D01*
X0287144Y0116834D01*
X0287144Y0115572D01*
X0287626Y0114406D01*
X0287734Y0114298D01*
X0287734Y0105648D01*
X0282337Y0100250D01*
X0282184Y0100250D01*
X0281019Y0099768D01*
X0280126Y0098875D01*
X0279644Y0097710D01*
X0279644Y0096448D01*
X0280126Y0095282D01*
X0281019Y0094390D01*
X0282184Y0093907D01*
X0283446Y0093907D01*
X0284612Y0094390D01*
X0285504Y0095282D01*
X0285987Y0096448D01*
X0285987Y0096600D01*
X0287802Y0098415D01*
X0287769Y0098335D01*
X0287769Y0097073D01*
X0288251Y0095907D01*
X0289144Y0095015D01*
X0290117Y0094612D01*
X0292497Y0092232D01*
X0293515Y0091810D01*
X0302919Y0091810D01*
X0304723Y0090005D01*
X0305126Y0089032D01*
X0306019Y0088140D01*
X0307184Y0087657D01*
X0308446Y0087657D01*
X0309612Y0088140D01*
X0310504Y0089032D01*
X0310987Y0090198D01*
X0310987Y0091460D01*
X0310504Y0092625D01*
X0309612Y0093518D01*
X0308639Y0093921D01*
X0306412Y0096147D01*
X0305634Y0096926D01*
X0304616Y0097347D01*
X0295212Y0097347D01*
X0294032Y0098527D01*
X0293629Y0099500D01*
X0292737Y0100393D01*
X0291571Y0100875D01*
X0290309Y0100875D01*
X0290229Y0100842D01*
X0292503Y0103117D01*
X0292896Y0104065D01*
X0292896Y0114298D01*
X0293004Y0114406D01*
X0293487Y0115572D01*
X0293487Y0116781D01*
X0294696Y0116781D01*
X0295862Y0117264D01*
X0296754Y0118156D01*
X0297237Y0119322D01*
X0297237Y0120584D01*
X0296754Y0121749D01*
X0296546Y0121957D01*
X0296546Y0124151D01*
X0298617Y0126222D01*
X0299288Y0126222D01*
X0316410Y0109099D01*
X0317322Y0108722D01*
X0331414Y0108722D01*
X0331962Y0108173D01*
X0332660Y0107475D01*
X0333572Y0107098D01*
X0353382Y0107098D01*
X0353556Y0106923D01*
X0354254Y0106225D01*
X0355166Y0105848D01*
X0356826Y0105848D01*
X0357381Y0105293D01*
X0358697Y0104748D01*
X0362957Y0104748D01*
X0364192Y0103513D01*
X0364356Y0103444D01*
X0364298Y0103426D01*
X0363527Y0103033D01*
X0362827Y0102524D01*
X0362215Y0101912D01*
X0361706Y0101211D01*
X0361313Y0100440D01*
X0361045Y0099617D01*
X0360910Y0098762D01*
X0360910Y0098529D01*
X0366210Y0098529D01*
X0366210Y0098129D01*
X0360910Y0098129D01*
X0360910Y0097896D01*
X0361045Y0097041D01*
X0361313Y0096217D01*
X0361706Y0095446D01*
X0362215Y0094746D01*
X0362827Y0094134D01*
X0363527Y0093625D01*
X0364298Y0093232D01*
X0365122Y0092964D01*
X0365977Y0092829D01*
X0366210Y0092829D01*
X0366210Y0098129D01*
X0366610Y0098129D01*
X0366610Y0098529D01*
X0371910Y0098529D01*
X0371910Y0098762D01*
X0371774Y0099617D01*
X0371507Y0100440D01*
X0371114Y0101211D01*
X0370605Y0101912D01*
X0369993Y0102524D01*
X0369357Y0102986D01*
X0370628Y0103513D01*
X0372226Y0105111D01*
X0373091Y0107199D01*
X0373091Y0109459D01*
X0372226Y0111547D01*
X0370628Y0113145D01*
X0369661Y0113545D01*
X0371226Y0115111D01*
X0372091Y0117199D01*
X0372091Y0119459D01*
X0371226Y0121547D01*
X0369661Y0123112D01*
X0370628Y0123513D01*
X0372226Y0125111D01*
X0373091Y0127199D01*
X0373091Y0129459D01*
X0372226Y0131547D01*
X0370628Y0133145D01*
X0369661Y0133545D01*
X0371226Y0135111D01*
X0372091Y0137199D01*
X0372091Y0139459D01*
X0371226Y0141547D01*
X0369661Y0143112D01*
X0370628Y0143513D01*
X0372226Y0145111D01*
X0373091Y0147199D01*
X0373091Y0149459D01*
X0372226Y0151547D01*
X0370628Y0153145D01*
X0369661Y0153545D01*
X0371226Y0155111D01*
X0372091Y0157199D01*
X0372091Y0159459D01*
X0371226Y0161547D01*
X0370519Y0162254D01*
X0372093Y0162254D01*
X0373485Y0163645D01*
X0373485Y0173012D01*
X0372093Y0174404D01*
X0362726Y0174404D01*
X0361335Y0172483D02*
X0296169Y0172483D01*
X0295790Y0170884D02*
X0361335Y0170884D01*
X0361335Y0169286D02*
X0295790Y0169286D01*
X0295790Y0167687D02*
X0361335Y0167687D01*
X0361335Y0166089D02*
X0295790Y0166089D01*
X0295790Y0164490D02*
X0361335Y0164490D01*
X0360660Y0163329D02*
X0359410Y0163329D01*
X0362088Y0162892D02*
X0295790Y0162892D01*
X0295790Y0161293D02*
X0300920Y0161293D01*
X0299793Y0159695D02*
X0295790Y0159695D01*
X0295784Y0158096D02*
X0299644Y0158096D01*
X0300535Y0156498D02*
X0294817Y0156498D01*
X0293219Y0154899D02*
X0302969Y0154899D01*
X0304567Y0153301D02*
X0291620Y0153301D01*
X0290790Y0151702D02*
X0305234Y0151702D01*
X0305234Y0150104D02*
X0290790Y0150104D01*
X0290790Y0148505D02*
X0305234Y0148505D01*
X0305234Y0146907D02*
X0290790Y0146907D01*
X0290790Y0145308D02*
X0305234Y0145308D01*
X0305234Y0143710D02*
X0290790Y0143710D01*
X0290790Y0142111D02*
X0305234Y0142111D01*
X0305234Y0140513D02*
X0290790Y0140513D01*
X0290790Y0138914D02*
X0305234Y0138914D01*
X0305234Y0137316D02*
X0290790Y0137316D01*
X0290790Y0135717D02*
X0305234Y0135717D01*
X0306249Y0134119D02*
X0290790Y0134119D01*
X0290545Y0132520D02*
X0294374Y0132520D01*
X0292775Y0130922D02*
X0289241Y0130922D01*
X0287643Y0129323D02*
X0291177Y0129323D01*
X0289578Y0127725D02*
X0286044Y0127725D01*
X0284446Y0126126D02*
X0288116Y0126126D01*
X0287834Y0124528D02*
X0282847Y0124528D01*
X0281249Y0122929D02*
X0287834Y0122929D01*
X0287834Y0121330D02*
X0280790Y0121330D01*
X0281248Y0119732D02*
X0287834Y0119732D01*
X0287761Y0118133D02*
X0281381Y0118133D01*
X0280690Y0116535D02*
X0287144Y0116535D01*
X0287407Y0114936D02*
X0270396Y0114936D01*
X0270095Y0113338D02*
X0287734Y0113338D01*
X0287734Y0111739D02*
X0268626Y0111739D01*
X0267028Y0110141D02*
X0287734Y0110141D01*
X0287734Y0108542D02*
X0265429Y0108542D01*
X0264425Y0106944D02*
X0287734Y0106944D01*
X0287432Y0105345D02*
X0262651Y0105345D01*
X0260480Y0105345D02*
X0243152Y0105345D01*
X0243152Y0103747D02*
X0285833Y0103747D01*
X0284235Y0102148D02*
X0243152Y0102148D01*
X0243152Y0100550D02*
X0282636Y0100550D01*
X0280202Y0098951D02*
X0243152Y0098951D01*
X0243152Y0097353D02*
X0279644Y0097353D01*
X0279931Y0095754D02*
X0243152Y0095754D01*
X0243152Y0094156D02*
X0281584Y0094156D01*
X0284047Y0094156D02*
X0290573Y0094156D01*
X0292171Y0092557D02*
X0243152Y0092557D01*
X0243152Y0090959D02*
X0303770Y0090959D01*
X0304991Y0089360D02*
X0243152Y0089360D01*
X0243152Y0087762D02*
X0306932Y0087762D01*
X0308699Y0087762D02*
X0316513Y0087762D01*
X0316376Y0087625D02*
X0315894Y0086460D01*
X0315894Y0085198D01*
X0316376Y0084032D01*
X0317269Y0083140D01*
X0318434Y0082657D01*
X0318717Y0082657D01*
X0329644Y0072724D01*
X0329644Y0072698D01*
X0330126Y0071532D01*
X0331019Y0070640D01*
X0332184Y0070157D01*
X0333446Y0070157D01*
X0334612Y0070640D01*
X0335504Y0071532D01*
X0335987Y0072698D01*
X0335987Y0073960D01*
X0335504Y0075125D01*
X0334612Y0076018D01*
X0333446Y0076500D01*
X0333164Y0076500D01*
X0322237Y0086434D01*
X0322237Y0086460D01*
X0321754Y0087625D01*
X0320862Y0088518D01*
X0319696Y0089000D01*
X0318434Y0089000D01*
X0317269Y0088518D01*
X0316376Y0087625D01*
X0315894Y0086163D02*
X0243152Y0086163D01*
X0243152Y0084565D02*
X0316156Y0084565D01*
X0317688Y0082966D02*
X0243152Y0082966D01*
X0243152Y0081368D02*
X0320135Y0081368D01*
X0321894Y0079769D02*
X0243152Y0079769D01*
X0243152Y0078171D02*
X0323652Y0078171D01*
X0325410Y0076572D02*
X0243152Y0076572D01*
X0243152Y0074974D02*
X0327169Y0074974D01*
X0328927Y0073375D02*
X0243152Y0073375D01*
X0243152Y0071777D02*
X0330025Y0071777D01*
X0332134Y0070178D02*
X0243152Y0070178D01*
X0243152Y0068580D02*
X0297445Y0068580D01*
X0296946Y0068080D02*
X0292419Y0063554D01*
X0285775Y0063554D01*
X0284314Y0062948D01*
X0283196Y0061830D01*
X0282590Y0060369D01*
X0282590Y0058788D01*
X0283196Y0057327D01*
X0284314Y0056209D01*
X0285775Y0055604D01*
X0294856Y0055604D01*
X0296317Y0056209D01*
X0301962Y0061854D01*
X0372267Y0061854D01*
X0373728Y0062459D01*
X0385122Y0073853D01*
X0385727Y0075314D01*
X0385727Y0196432D01*
X0385122Y0197893D01*
X0384004Y0199011D01*
X0380067Y0202948D01*
X0378606Y0203554D01*
X0363275Y0203554D01*
X0361814Y0202948D01*
X0360696Y0201830D01*
X0360090Y0200369D01*
X0360090Y0198788D01*
X0360696Y0197327D01*
X0361814Y0196209D01*
X0363275Y0195604D01*
X0376169Y0195604D01*
X0377777Y0193995D01*
X0377777Y0190356D01*
X0374614Y0193520D01*
X0373447Y0194004D01*
X0351967Y0194004D01*
X0351024Y0194394D01*
X0349606Y0194394D01*
X0348296Y0193851D01*
X0347293Y0192848D01*
X0346750Y0191538D01*
X0346750Y0190120D01*
X0347293Y0188809D01*
X0348296Y0187806D01*
X0349606Y0187263D01*
X0351024Y0187263D01*
X0351967Y0187654D01*
X0371500Y0187654D01*
X0374640Y0184514D01*
X0374640Y0081907D01*
X0369237Y0076504D01*
X0365717Y0076504D01*
X0364774Y0076894D01*
X0363356Y0076894D01*
X0362046Y0076351D01*
X0361043Y0075348D01*
X0360500Y0074038D01*
X0360500Y0072620D01*
X0361043Y0071309D01*
X0362046Y0070306D01*
X0363259Y0069804D01*
X0299525Y0069804D01*
X0298064Y0069198D01*
X0296946Y0068080D01*
X0295846Y0066981D02*
X0243152Y0066981D01*
X0243152Y0065383D02*
X0294248Y0065383D01*
X0292649Y0063784D02*
X0243152Y0063784D01*
X0243152Y0062186D02*
X0283551Y0062186D01*
X0282681Y0060587D02*
X0243152Y0060587D01*
X0243152Y0058989D02*
X0282590Y0058989D01*
X0283170Y0057390D02*
X0260136Y0057390D01*
X0259774Y0057752D02*
X0261678Y0055848D01*
X0262709Y0053360D01*
X0262709Y0050667D01*
X0261678Y0048180D01*
X0259774Y0046276D01*
X0257287Y0045245D01*
X0254594Y0045245D01*
X0252106Y0046276D01*
X0250202Y0048180D01*
X0249172Y0050667D01*
X0249172Y0053360D01*
X0250202Y0055848D01*
X0252106Y0057752D01*
X0254594Y0058782D01*
X0257287Y0058782D01*
X0259774Y0057752D01*
X0261702Y0055792D02*
X0285322Y0055792D01*
X0295309Y0055792D02*
X0370137Y0055792D01*
X0371735Y0057390D02*
X0297498Y0057390D01*
X0299096Y0058989D02*
X0388002Y0058989D01*
X0388002Y0060587D02*
X0300695Y0060587D01*
X0305898Y0041150D02*
X0303482Y0040150D01*
X0301634Y0038301D01*
X0300633Y0035886D01*
X0300633Y0033272D01*
X0301634Y0030856D01*
X0303482Y0029008D01*
X0305898Y0028007D01*
X0308512Y0028007D01*
X0310928Y0029008D01*
X0312776Y0030856D01*
X0313777Y0033272D01*
X0313777Y0035886D01*
X0312776Y0038301D01*
X0310928Y0040150D01*
X0308512Y0041150D01*
X0305898Y0041150D01*
X0303139Y0039806D02*
X0297492Y0039806D01*
X0297148Y0040150D02*
X0294733Y0041150D01*
X0292118Y0041150D01*
X0289703Y0040150D01*
X0287854Y0038301D01*
X0286854Y0035886D01*
X0286854Y0033272D01*
X0287854Y0030856D01*
X0289703Y0029008D01*
X0292118Y0028007D01*
X0294733Y0028007D01*
X0297148Y0029008D01*
X0298997Y0030856D01*
X0299997Y0033272D01*
X0299997Y0035886D01*
X0298997Y0038301D01*
X0297148Y0040150D01*
X0299035Y0038208D02*
X0301595Y0038208D01*
X0300933Y0036609D02*
X0299698Y0036609D01*
X0299997Y0035011D02*
X0300633Y0035011D01*
X0300633Y0033412D02*
X0299997Y0033412D01*
X0299393Y0031814D02*
X0301237Y0031814D01*
X0302275Y0030215D02*
X0298356Y0030215D01*
X0296205Y0028617D02*
X0304426Y0028617D01*
X0309984Y0028617D02*
X0330732Y0028617D01*
X0330377Y0027018D02*
X0262697Y0027018D01*
X0262709Y0027048D02*
X0261678Y0024560D01*
X0259774Y0022656D01*
X0257287Y0021625D01*
X0254594Y0021625D01*
X0252106Y0022656D01*
X0250202Y0024560D01*
X0249172Y0027048D01*
X0249172Y0029740D01*
X0250202Y0032228D01*
X0252106Y0034132D01*
X0254594Y0035162D01*
X0257287Y0035162D01*
X0259774Y0034132D01*
X0261678Y0032228D01*
X0262709Y0029740D01*
X0262709Y0027048D01*
X0262709Y0028617D02*
X0290646Y0028617D01*
X0288495Y0030215D02*
X0262512Y0030215D01*
X0261850Y0031814D02*
X0287458Y0031814D01*
X0286854Y0033412D02*
X0260494Y0033412D01*
X0257652Y0035011D02*
X0286854Y0035011D01*
X0287154Y0036609D02*
X0243152Y0036609D01*
X0243152Y0035011D02*
X0254228Y0035011D01*
X0251387Y0033412D02*
X0243152Y0033412D01*
X0243152Y0031814D02*
X0250031Y0031814D01*
X0249369Y0030215D02*
X0243152Y0030215D01*
X0243152Y0028617D02*
X0249172Y0028617D01*
X0249184Y0027018D02*
X0243152Y0027018D01*
X0243152Y0025420D02*
X0249846Y0025420D01*
X0250941Y0023821D02*
X0243152Y0023821D01*
X0243152Y0022223D02*
X0253152Y0022223D01*
X0258729Y0022223D02*
X0331886Y0022223D01*
X0330926Y0023821D02*
X0260940Y0023821D01*
X0262035Y0025420D02*
X0330377Y0025420D01*
X0331417Y0030215D02*
X0312135Y0030215D01*
X0313173Y0031814D02*
X0333016Y0031814D01*
X0340883Y0031814D02*
X0349748Y0031814D01*
X0348149Y0030215D02*
X0342481Y0030215D01*
X0343166Y0028617D02*
X0347464Y0028617D01*
X0347110Y0027018D02*
X0343521Y0027018D01*
X0343521Y0025420D02*
X0347110Y0025420D01*
X0347659Y0023821D02*
X0342972Y0023821D01*
X0342012Y0022223D02*
X0348619Y0022223D01*
X0356002Y0033412D02*
X0313777Y0033412D01*
X0313777Y0035011D02*
X0356002Y0035011D01*
X0356002Y0036609D02*
X0313477Y0036609D01*
X0312815Y0038208D02*
X0356002Y0038208D01*
X0356002Y0039806D02*
X0311271Y0039806D01*
X0289359Y0039806D02*
X0243152Y0039806D01*
X0243152Y0038208D02*
X0287816Y0038208D01*
X0262183Y0049397D02*
X0363743Y0049397D01*
X0362144Y0047799D02*
X0261298Y0047799D01*
X0259593Y0046200D02*
X0360546Y0046200D01*
X0358947Y0044602D02*
X0243152Y0044602D01*
X0243152Y0046200D02*
X0252287Y0046200D01*
X0250583Y0047799D02*
X0243152Y0047799D01*
X0243152Y0049397D02*
X0249698Y0049397D01*
X0249172Y0050996D02*
X0243152Y0050996D01*
X0243152Y0052595D02*
X0249172Y0052595D01*
X0249517Y0054193D02*
X0243152Y0054193D01*
X0243152Y0055792D02*
X0250179Y0055792D01*
X0251745Y0057390D02*
X0243152Y0057390D01*
X0243152Y0043003D02*
X0357349Y0043003D01*
X0356002Y0041405D02*
X0243152Y0041405D01*
X0262709Y0050996D02*
X0365341Y0050996D01*
X0366940Y0052595D02*
X0262709Y0052595D01*
X0262364Y0054193D02*
X0368538Y0054193D01*
X0373068Y0062186D02*
X0388002Y0062186D01*
X0388002Y0063784D02*
X0375053Y0063784D01*
X0376652Y0065383D02*
X0388002Y0065383D01*
X0388002Y0066981D02*
X0378250Y0066981D01*
X0379849Y0068580D02*
X0388002Y0068580D01*
X0388002Y0070178D02*
X0381447Y0070178D01*
X0383046Y0071777D02*
X0388002Y0071777D01*
X0388002Y0073375D02*
X0384644Y0073375D01*
X0385586Y0074974D02*
X0388002Y0074974D01*
X0388002Y0076572D02*
X0385727Y0076572D01*
X0385727Y0078171D02*
X0388002Y0078171D01*
X0388002Y0079769D02*
X0385727Y0079769D01*
X0385727Y0081368D02*
X0388002Y0081368D01*
X0388002Y0082966D02*
X0385727Y0082966D01*
X0385727Y0084565D02*
X0388002Y0084565D01*
X0388002Y0086163D02*
X0385727Y0086163D01*
X0385727Y0087762D02*
X0388002Y0087762D01*
X0388002Y0089360D02*
X0385727Y0089360D01*
X0385727Y0090959D02*
X0388002Y0090959D01*
X0388002Y0092557D02*
X0385727Y0092557D01*
X0385727Y0094156D02*
X0388002Y0094156D01*
X0388002Y0095754D02*
X0385727Y0095754D01*
X0385727Y0097353D02*
X0388002Y0097353D01*
X0388002Y0098951D02*
X0385727Y0098951D01*
X0385727Y0100550D02*
X0388002Y0100550D01*
X0388002Y0102148D02*
X0385727Y0102148D01*
X0385727Y0103747D02*
X0388002Y0103747D01*
X0388002Y0105345D02*
X0385727Y0105345D01*
X0385727Y0106944D02*
X0388002Y0106944D01*
X0388002Y0108542D02*
X0385727Y0108542D01*
X0385727Y0110141D02*
X0388002Y0110141D01*
X0388002Y0111739D02*
X0385727Y0111739D01*
X0385727Y0113338D02*
X0388002Y0113338D01*
X0388002Y0114936D02*
X0385727Y0114936D01*
X0385727Y0116535D02*
X0388002Y0116535D01*
X0388002Y0118133D02*
X0385727Y0118133D01*
X0385727Y0119732D02*
X0388002Y0119732D01*
X0388002Y0121330D02*
X0385727Y0121330D01*
X0385727Y0122929D02*
X0388002Y0122929D01*
X0388002Y0124528D02*
X0385727Y0124528D01*
X0385727Y0126126D02*
X0388002Y0126126D01*
X0388002Y0127725D02*
X0385727Y0127725D01*
X0385727Y0129323D02*
X0388002Y0129323D01*
X0388002Y0130922D02*
X0385727Y0130922D01*
X0385727Y0132520D02*
X0388002Y0132520D01*
X0388002Y0134119D02*
X0385727Y0134119D01*
X0385727Y0135717D02*
X0388002Y0135717D01*
X0388002Y0137316D02*
X0385727Y0137316D01*
X0385727Y0138914D02*
X0388002Y0138914D01*
X0388002Y0140513D02*
X0385727Y0140513D01*
X0385727Y0142111D02*
X0388002Y0142111D01*
X0388002Y0143710D02*
X0385727Y0143710D01*
X0385727Y0145308D02*
X0388002Y0145308D01*
X0388002Y0146907D02*
X0385727Y0146907D01*
X0385727Y0148505D02*
X0388002Y0148505D01*
X0388002Y0150104D02*
X0385727Y0150104D01*
X0385727Y0151702D02*
X0388002Y0151702D01*
X0388002Y0153301D02*
X0385727Y0153301D01*
X0385727Y0154899D02*
X0388002Y0154899D01*
X0388002Y0156498D02*
X0385727Y0156498D01*
X0385727Y0158096D02*
X0388002Y0158096D01*
X0388002Y0159695D02*
X0385727Y0159695D01*
X0385727Y0161293D02*
X0388002Y0161293D01*
X0388002Y0162892D02*
X0385727Y0162892D01*
X0385727Y0164490D02*
X0388002Y0164490D01*
X0388002Y0166089D02*
X0385727Y0166089D01*
X0385727Y0167687D02*
X0388002Y0167687D01*
X0388002Y0169286D02*
X0385727Y0169286D01*
X0385727Y0170884D02*
X0388002Y0170884D01*
X0388002Y0172483D02*
X0385727Y0172483D01*
X0385727Y0174081D02*
X0388002Y0174081D01*
X0388002Y0175680D02*
X0385727Y0175680D01*
X0385727Y0177278D02*
X0388002Y0177278D01*
X0388002Y0178877D02*
X0385727Y0178877D01*
X0385727Y0180475D02*
X0388002Y0180475D01*
X0388002Y0182074D02*
X0385727Y0182074D01*
X0385727Y0183672D02*
X0388002Y0183672D01*
X0388002Y0185271D02*
X0385727Y0185271D01*
X0385727Y0186869D02*
X0388002Y0186869D01*
X0388002Y0188468D02*
X0385727Y0188468D01*
X0385727Y0190066D02*
X0388002Y0190066D01*
X0388002Y0191665D02*
X0385727Y0191665D01*
X0385727Y0193263D02*
X0388002Y0193263D01*
X0388002Y0194862D02*
X0385727Y0194862D01*
X0385715Y0196461D02*
X0388002Y0196461D01*
X0388002Y0198059D02*
X0384956Y0198059D01*
X0383358Y0199658D02*
X0388002Y0199658D01*
X0388002Y0201256D02*
X0381759Y0201256D01*
X0380161Y0202855D02*
X0388002Y0202855D01*
X0388002Y0204453D02*
X0266833Y0204453D01*
X0266833Y0202855D02*
X0361720Y0202855D01*
X0360458Y0201256D02*
X0328680Y0201256D01*
X0328585Y0201351D02*
X0327274Y0201894D01*
X0325856Y0201894D01*
X0324913Y0201504D01*
X0308378Y0201504D01*
X0308313Y0201527D01*
X0307749Y0201504D01*
X0307184Y0201504D01*
X0307120Y0201477D01*
X0307051Y0201474D01*
X0306539Y0201236D01*
X0306017Y0201020D01*
X0305968Y0200971D01*
X0305906Y0200942D01*
X0305523Y0200527D01*
X0305124Y0200127D01*
X0305097Y0200063D01*
X0296580Y0190800D01*
X0295796Y0190475D01*
X0294793Y0189472D01*
X0294250Y0188162D01*
X0294250Y0186744D01*
X0294793Y0185433D01*
X0295796Y0184430D01*
X0297106Y0183887D01*
X0298524Y0183887D01*
X0299835Y0184430D01*
X0300838Y0185433D01*
X0301302Y0186555D01*
X0309209Y0195154D01*
X0324913Y0195154D01*
X0325856Y0194763D01*
X0327274Y0194763D01*
X0328585Y0195306D01*
X0329588Y0196309D01*
X0330131Y0197620D01*
X0330131Y0199038D01*
X0329588Y0200348D01*
X0328585Y0201351D01*
X0329874Y0199658D02*
X0360090Y0199658D01*
X0360392Y0198059D02*
X0330131Y0198059D01*
X0329651Y0196461D02*
X0361562Y0196461D01*
X0350315Y0190829D02*
X0372815Y0190829D01*
X0377815Y0185829D01*
X0377815Y0080592D01*
X0370552Y0073329D01*
X0364065Y0073329D01*
X0360500Y0073375D02*
X0335987Y0073375D01*
X0335605Y0071777D02*
X0360849Y0071777D01*
X0362355Y0070178D02*
X0333497Y0070178D01*
X0335567Y0074974D02*
X0360888Y0074974D01*
X0362579Y0076572D02*
X0333085Y0076572D01*
X0331326Y0078171D02*
X0370905Y0078171D01*
X0372503Y0079769D02*
X0329568Y0079769D01*
X0327809Y0081368D02*
X0374102Y0081368D01*
X0374640Y0082966D02*
X0326051Y0082966D01*
X0324293Y0084565D02*
X0374640Y0084565D01*
X0374640Y0086163D02*
X0322534Y0086163D01*
X0321618Y0087762D02*
X0374640Y0087762D01*
X0374640Y0089360D02*
X0310640Y0089360D01*
X0310987Y0090959D02*
X0374640Y0090959D01*
X0374640Y0092557D02*
X0310532Y0092557D01*
X0308403Y0094156D02*
X0362805Y0094156D01*
X0361549Y0095754D02*
X0306805Y0095754D01*
X0295206Y0097353D02*
X0360996Y0097353D01*
X0360940Y0098951D02*
X0293856Y0098951D01*
X0292357Y0100550D02*
X0361369Y0100550D01*
X0362451Y0102148D02*
X0291535Y0102148D01*
X0292764Y0103747D02*
X0363957Y0103747D01*
X0357329Y0105345D02*
X0292896Y0105345D01*
X0292896Y0106944D02*
X0353536Y0106944D01*
X0356687Y0110810D02*
X0355815Y0111682D01*
X0354903Y0112060D01*
X0343494Y0112060D01*
X0343881Y0112994D01*
X0343881Y0114412D01*
X0343338Y0115722D01*
X0342335Y0116725D01*
X0341024Y0117268D01*
X0339606Y0117268D01*
X0338296Y0116725D01*
X0337293Y0115722D01*
X0336750Y0114412D01*
X0336750Y0112994D01*
X0337137Y0112060D01*
X0335093Y0112060D01*
X0333847Y0113306D01*
X0332935Y0113684D01*
X0318843Y0113684D01*
X0303805Y0128722D01*
X0304288Y0128722D01*
X0313910Y0119099D01*
X0314822Y0118722D01*
X0352497Y0118722D01*
X0354628Y0117497D01*
X0355124Y0116300D01*
X0356131Y0115293D01*
X0357447Y0114748D01*
X0361957Y0114748D01*
X0363192Y0113513D01*
X0364159Y0113112D01*
X0362957Y0111910D01*
X0358697Y0111910D01*
X0357381Y0111365D01*
X0356826Y0110810D01*
X0356687Y0110810D01*
X0355677Y0111739D02*
X0358286Y0111739D01*
X0356992Y0114936D02*
X0343663Y0114936D01*
X0343881Y0113338D02*
X0363613Y0113338D01*
X0370162Y0113338D02*
X0374640Y0113338D01*
X0374640Y0114936D02*
X0371052Y0114936D01*
X0371816Y0116535D02*
X0374640Y0116535D01*
X0374640Y0118133D02*
X0372091Y0118133D01*
X0371978Y0119732D02*
X0374640Y0119732D01*
X0374640Y0121330D02*
X0371316Y0121330D01*
X0369844Y0122929D02*
X0374640Y0122929D01*
X0374640Y0124528D02*
X0371643Y0124528D01*
X0372647Y0126126D02*
X0374640Y0126126D01*
X0374640Y0127725D02*
X0373091Y0127725D01*
X0373091Y0129323D02*
X0374640Y0129323D01*
X0374640Y0130922D02*
X0372485Y0130922D01*
X0371253Y0132520D02*
X0374640Y0132520D01*
X0374640Y0134119D02*
X0370234Y0134119D01*
X0371477Y0135717D02*
X0374640Y0135717D01*
X0374640Y0137316D02*
X0372091Y0137316D01*
X0372091Y0138914D02*
X0374640Y0138914D01*
X0374640Y0140513D02*
X0371654Y0140513D01*
X0370662Y0142111D02*
X0374640Y0142111D01*
X0374640Y0143710D02*
X0370825Y0143710D01*
X0372308Y0145308D02*
X0374640Y0145308D01*
X0374640Y0146907D02*
X0372970Y0146907D01*
X0373091Y0148505D02*
X0374640Y0148505D01*
X0374640Y0150104D02*
X0372824Y0150104D01*
X0372071Y0151702D02*
X0374640Y0151702D01*
X0374640Y0153301D02*
X0370252Y0153301D01*
X0371015Y0154899D02*
X0374640Y0154899D01*
X0374640Y0156498D02*
X0371801Y0156498D01*
X0372091Y0158096D02*
X0374640Y0158096D01*
X0374640Y0159695D02*
X0371993Y0159695D01*
X0371331Y0161293D02*
X0374640Y0161293D01*
X0374640Y0162892D02*
X0372731Y0162892D01*
X0373485Y0164490D02*
X0374640Y0164490D01*
X0374640Y0166089D02*
X0373485Y0166089D01*
X0373485Y0167687D02*
X0374640Y0167687D01*
X0374640Y0169286D02*
X0373485Y0169286D01*
X0373485Y0170884D02*
X0374640Y0170884D01*
X0374640Y0172483D02*
X0373485Y0172483D01*
X0372416Y0174081D02*
X0374640Y0174081D01*
X0374640Y0178877D02*
X0266833Y0178877D01*
X0266833Y0180475D02*
X0374640Y0180475D01*
X0374640Y0182074D02*
X0266833Y0182074D01*
X0266833Y0183672D02*
X0374640Y0183672D01*
X0373883Y0185271D02*
X0300676Y0185271D01*
X0301592Y0186869D02*
X0372285Y0186869D01*
X0376469Y0191665D02*
X0377777Y0191665D01*
X0377777Y0193263D02*
X0374870Y0193263D01*
X0376911Y0194862D02*
X0327513Y0194862D01*
X0325618Y0194862D02*
X0308941Y0194862D01*
X0307471Y0193263D02*
X0347708Y0193263D01*
X0346803Y0191665D02*
X0306001Y0191665D01*
X0304531Y0190066D02*
X0346772Y0190066D01*
X0347634Y0188468D02*
X0303062Y0188468D01*
X0297815Y0187453D02*
X0307815Y0198329D01*
X0326565Y0198329D01*
X0306581Y0201256D02*
X0266833Y0201256D01*
X0266833Y0199658D02*
X0304724Y0199658D01*
X0303254Y0198059D02*
X0266833Y0198059D01*
X0266833Y0196461D02*
X0301785Y0196461D01*
X0300315Y0194862D02*
X0266833Y0194862D01*
X0266833Y0193263D02*
X0298845Y0193263D01*
X0297375Y0191665D02*
X0266833Y0191665D01*
X0266833Y0190066D02*
X0295387Y0190066D01*
X0294377Y0188468D02*
X0266833Y0188468D01*
X0266833Y0186869D02*
X0294250Y0186869D01*
X0294955Y0185271D02*
X0266833Y0185271D01*
X0256671Y0185271D02*
X0241149Y0185271D01*
X0241060Y0183672D02*
X0256671Y0183672D01*
X0256671Y0182074D02*
X0239983Y0182074D01*
X0242081Y0186869D02*
X0256671Y0186869D01*
X0256671Y0188468D02*
X0243877Y0188468D01*
X0244870Y0190066D02*
X0256671Y0190066D01*
X0256671Y0191665D02*
X0244839Y0191665D01*
X0243803Y0193263D02*
X0256671Y0193263D01*
X0256671Y0194862D02*
X0250271Y0194862D01*
X0251262Y0196461D02*
X0256671Y0196461D01*
X0256671Y0198059D02*
X0253306Y0198059D01*
X0253674Y0199658D02*
X0256671Y0199658D01*
X0256671Y0201256D02*
X0254165Y0201256D01*
X0254924Y0202855D02*
X0256671Y0202855D01*
X0256671Y0204453D02*
X0254720Y0204453D01*
X0253467Y0206052D02*
X0256671Y0206052D01*
X0256671Y0207650D02*
X0251081Y0207650D01*
X0249483Y0209249D02*
X0256671Y0209249D01*
X0256671Y0210847D02*
X0247884Y0210847D01*
X0246286Y0212446D02*
X0256671Y0212446D01*
X0256671Y0214044D02*
X0244687Y0214044D01*
X0243089Y0215643D02*
X0256671Y0215643D01*
X0256671Y0217241D02*
X0241490Y0217241D01*
X0239892Y0218840D02*
X0256671Y0218840D01*
X0256671Y0220438D02*
X0238398Y0220438D01*
X0238398Y0222037D02*
X0256671Y0222037D01*
X0256546Y0223635D02*
X0238398Y0223635D01*
X0238398Y0225234D02*
X0254947Y0225234D01*
X0253349Y0226832D02*
X0238398Y0226832D01*
X0238398Y0228431D02*
X0251750Y0228431D01*
X0250152Y0230029D02*
X0238398Y0230029D01*
X0238398Y0231628D02*
X0248553Y0231628D01*
X0246955Y0233226D02*
X0238398Y0233226D01*
X0238398Y0234825D02*
X0245356Y0234825D01*
X0243757Y0236423D02*
X0238398Y0236423D01*
X0238398Y0238022D02*
X0242159Y0238022D01*
X0240560Y0239620D02*
X0238398Y0239620D01*
X0238398Y0241219D02*
X0239499Y0241219D01*
X0239486Y0242817D02*
X0238398Y0242817D01*
X0238398Y0244416D02*
X0239486Y0244416D01*
X0239486Y0246014D02*
X0238398Y0246014D01*
X0238398Y0247613D02*
X0239486Y0247613D01*
X0239486Y0249211D02*
X0238398Y0249211D01*
X0238398Y0250810D02*
X0239486Y0250810D01*
X0239486Y0252408D02*
X0238398Y0252408D01*
X0238398Y0254007D02*
X0239486Y0254007D01*
X0239486Y0255605D02*
X0238398Y0255605D01*
X0238398Y0257204D02*
X0239486Y0257204D01*
X0239486Y0258802D02*
X0238398Y0258802D01*
X0238398Y0260401D02*
X0239486Y0260401D01*
X0239486Y0261999D02*
X0238398Y0261999D01*
X0238398Y0263598D02*
X0239486Y0263598D01*
X0239486Y0265197D02*
X0238398Y0265197D01*
X0238398Y0266795D02*
X0239486Y0266795D01*
X0239486Y0268394D02*
X0238398Y0268394D01*
X0238981Y0269992D02*
X0239486Y0269992D01*
X0239486Y0271591D02*
X0238857Y0271591D01*
X0239486Y0273189D02*
X0237755Y0273189D01*
X0239486Y0274788D02*
X0232390Y0274788D01*
X0231808Y0276386D02*
X0239486Y0276386D01*
X0239486Y0277985D02*
X0230065Y0277985D01*
X0227819Y0277985D02*
X0214625Y0277985D01*
X0216223Y0276386D02*
X0226076Y0276386D01*
X0225771Y0274788D02*
X0217822Y0274788D01*
X0219420Y0273189D02*
X0226285Y0273189D01*
X0228337Y0271591D02*
X0221019Y0271591D01*
X0222617Y0269992D02*
X0228764Y0269992D01*
X0226756Y0268394D02*
X0224216Y0268394D01*
X0225814Y0266795D02*
X0226396Y0266795D01*
X0221711Y0263598D02*
X0119011Y0263598D01*
X0119640Y0265197D02*
X0117413Y0265197D01*
X0118128Y0266345D02*
X0119021Y0265453D01*
X0120186Y0264970D01*
X0121448Y0264970D01*
X0122614Y0265453D01*
X0122722Y0265561D01*
X0171413Y0265561D01*
X0171521Y0265453D01*
X0172686Y0264970D01*
X0173948Y0264970D01*
X0175114Y0265453D01*
X0176006Y0266345D01*
X0176489Y0267511D01*
X0176489Y0268773D01*
X0176006Y0269938D01*
X0175114Y0270831D01*
X0173948Y0271313D01*
X0172739Y0271313D01*
X0172739Y0272487D01*
X0173864Y0272953D01*
X0174756Y0273845D01*
X0175239Y0275011D01*
X0175239Y0276273D01*
X0174756Y0277438D01*
X0173864Y0278331D01*
X0172698Y0278813D01*
X0171436Y0278813D01*
X0170271Y0278331D01*
X0170163Y0278223D01*
X0123972Y0278223D01*
X0123864Y0278331D01*
X0122698Y0278813D01*
X0121436Y0278813D01*
X0120271Y0278331D01*
X0119378Y0277438D01*
X0118896Y0276273D01*
X0118896Y0275011D01*
X0119378Y0273845D01*
X0119457Y0273767D01*
X0119378Y0273688D01*
X0118896Y0272523D01*
X0118896Y0271261D01*
X0119066Y0270849D01*
X0119021Y0270831D01*
X0118128Y0269938D01*
X0117646Y0268773D01*
X0117646Y0267511D01*
X0118128Y0266345D01*
X0117942Y0266795D02*
X0117148Y0266795D01*
X0117148Y0268394D02*
X0117646Y0268394D01*
X0117148Y0269992D02*
X0118182Y0269992D01*
X0118896Y0271591D02*
X0117148Y0271591D01*
X0117148Y0273189D02*
X0119172Y0273189D01*
X0118988Y0274788D02*
X0117148Y0274788D01*
X0117148Y0276386D02*
X0118943Y0276386D01*
X0119925Y0277985D02*
X0117148Y0277985D01*
X0117148Y0279583D02*
X0206396Y0279583D01*
X0206717Y0277985D02*
X0174210Y0277985D01*
X0175192Y0276386D02*
X0208536Y0276386D01*
X0210521Y0274788D02*
X0175146Y0274788D01*
X0174100Y0273189D02*
X0212120Y0273189D01*
X0213718Y0271591D02*
X0172739Y0271591D01*
X0175952Y0269992D02*
X0215317Y0269992D01*
X0216915Y0268394D02*
X0176489Y0268394D01*
X0176192Y0266795D02*
X0218514Y0266795D01*
X0220112Y0265197D02*
X0174495Y0265197D01*
X0172140Y0265197D02*
X0121995Y0265197D01*
X0120610Y0261999D02*
X0223309Y0261999D01*
X0224252Y0260401D02*
X0122208Y0260401D01*
X0123807Y0258802D02*
X0142828Y0258802D01*
X0141229Y0257204D02*
X0125405Y0257204D01*
X0127004Y0255605D02*
X0139631Y0255605D01*
X0138032Y0254007D02*
X0128602Y0254007D01*
X0130201Y0252408D02*
X0136062Y0252408D01*
X0134222Y0250810D02*
X0131799Y0250810D01*
X0133398Y0249211D02*
X0133896Y0249211D01*
X0129294Y0246014D02*
X0122328Y0246014D01*
X0122739Y0244416D02*
X0130893Y0244416D01*
X0132491Y0242817D02*
X0122348Y0242817D01*
X0119763Y0247613D02*
X0127696Y0247613D01*
X0126097Y0249211D02*
X0120239Y0249211D01*
X0119913Y0250810D02*
X0124499Y0250810D01*
X0122900Y0252408D02*
X0118072Y0252408D01*
X0116062Y0252408D02*
X0050222Y0252408D01*
X0051103Y0254007D02*
X0121302Y0254007D01*
X0119703Y0255605D02*
X0051233Y0255605D01*
X0051233Y0257204D02*
X0118105Y0257204D01*
X0116506Y0258802D02*
X0050274Y0258802D01*
X0041363Y0258940D02*
X0041363Y0258940D01*
X0041226Y0258802D02*
X0037269Y0258802D01*
X0038868Y0257204D02*
X0040266Y0257204D01*
X0040651Y0258228D02*
X0040651Y0258228D01*
X0040266Y0255605D02*
X0039727Y0255605D01*
X0039388Y0254007D02*
X0040397Y0254007D01*
X0040651Y0253392D02*
X0040651Y0253392D01*
X0040651Y0253392D01*
X0041363Y0252495D02*
X0041363Y0252495D01*
X0041277Y0252408D02*
X0039727Y0252408D01*
X0040651Y0251783D02*
X0040651Y0251783D01*
X0040266Y0250810D02*
X0039727Y0250810D01*
X0039596Y0249211D02*
X0040266Y0249211D01*
X0040376Y0247613D02*
X0039502Y0247613D01*
X0039698Y0246014D02*
X0040524Y0246014D01*
X0040266Y0244416D02*
X0038594Y0244416D01*
X0036995Y0242817D02*
X0041084Y0242817D01*
X0050416Y0242817D02*
X0106560Y0242817D01*
X0104961Y0241219D02*
X0051233Y0241219D01*
X0050954Y0239620D02*
X0102867Y0239620D01*
X0101602Y0238022D02*
X0051233Y0238022D01*
X0050364Y0236423D02*
X0101396Y0236423D01*
X0102149Y0234825D02*
X0051233Y0234825D01*
X0050912Y0233226D02*
X0104469Y0233226D01*
X0104567Y0236892D02*
X0117067Y0249392D01*
X0114222Y0250810D02*
X0051233Y0250810D01*
X0051233Y0249211D02*
X0112954Y0249211D01*
X0111355Y0247613D02*
X0051124Y0247613D01*
X0050975Y0246014D02*
X0109757Y0246014D01*
X0108158Y0244416D02*
X0051233Y0244416D01*
X0029835Y0236937D02*
X0029835Y0236937D01*
X0019076Y0247613D02*
X0016752Y0247613D01*
X0016752Y0249211D02*
X0018759Y0249211D01*
X0019670Y0250810D02*
X0016752Y0250810D01*
X0016752Y0252408D02*
X0021268Y0252408D01*
X0020761Y0254007D02*
X0016752Y0254007D01*
X0016752Y0255605D02*
X0020761Y0255605D01*
X0020924Y0257204D02*
X0016752Y0257204D01*
X0016752Y0258802D02*
X0022218Y0258802D01*
X0022140Y0258725D02*
X0022140Y0258725D01*
X0016752Y0260401D02*
X0114908Y0260401D01*
X0113309Y0261999D02*
X0016752Y0261999D01*
X0016752Y0263598D02*
X0112102Y0263598D01*
X0111986Y0265197D02*
X0016752Y0265197D01*
X0016752Y0266795D02*
X0111986Y0266795D01*
X0111986Y0268394D02*
X0016752Y0268394D01*
X0031244Y0269992D02*
X0111986Y0269992D01*
X0111986Y0271591D02*
X0032843Y0271591D01*
X0034441Y0273189D02*
X0111986Y0273189D01*
X0111986Y0274788D02*
X0036040Y0274788D01*
X0037638Y0276386D02*
X0111986Y0276386D01*
X0111986Y0277985D02*
X0039237Y0277985D01*
X0040835Y0279583D02*
X0111986Y0279583D01*
X0111986Y0281182D02*
X0042434Y0281182D01*
X0044032Y0282780D02*
X0111986Y0282780D01*
X0111986Y0284379D02*
X0045631Y0284379D01*
X0046252Y0285977D02*
X0111986Y0285977D01*
X0111898Y0287576D02*
X0046252Y0287576D01*
X0046252Y0289174D02*
X0111396Y0289174D01*
X0111706Y0290773D02*
X0046252Y0290773D01*
X0046252Y0292371D02*
X0113472Y0292371D01*
X0115662Y0292371D02*
X0226396Y0292371D01*
X0226598Y0290773D02*
X0117428Y0290773D01*
X0117739Y0289174D02*
X0227840Y0289174D01*
X0230233Y0287576D02*
X0117237Y0287576D01*
X0117148Y0285977D02*
X0231832Y0285977D01*
X0233430Y0284379D02*
X0117148Y0284379D01*
X0117148Y0282780D02*
X0235029Y0282780D01*
X0236627Y0281182D02*
X0212259Y0281182D01*
X0213026Y0279583D02*
X0238226Y0279583D01*
X0242329Y0282780D02*
X0295970Y0282780D01*
X0295628Y0282438D02*
X0295146Y0281273D01*
X0295146Y0280011D01*
X0295536Y0279068D01*
X0295536Y0269961D01*
X0295960Y0268938D01*
X0325221Y0239677D01*
X0325221Y0233524D01*
X0325645Y0232501D01*
X0333486Y0224660D01*
X0333876Y0223717D01*
X0334769Y0222825D01*
X0335934Y0222342D01*
X0337196Y0222342D01*
X0338362Y0222825D01*
X0339254Y0223717D01*
X0339737Y0224883D01*
X0339737Y0226145D01*
X0339254Y0227310D01*
X0338362Y0228203D01*
X0337419Y0228593D01*
X0330783Y0235229D01*
X0330783Y0241382D01*
X0330360Y0242404D01*
X0329578Y0243186D01*
X0301098Y0271666D01*
X0301098Y0279068D01*
X0301489Y0280011D01*
X0301489Y0281273D01*
X0301006Y0282438D01*
X0300114Y0283331D01*
X0298948Y0283813D01*
X0297686Y0283813D01*
X0296521Y0283331D01*
X0295628Y0282438D01*
X0295146Y0281182D02*
X0243928Y0281182D01*
X0244648Y0279583D02*
X0295323Y0279583D01*
X0295536Y0277985D02*
X0244648Y0277985D01*
X0244648Y0276386D02*
X0295536Y0276386D01*
X0295536Y0274788D02*
X0244648Y0274788D01*
X0244648Y0273189D02*
X0295536Y0273189D01*
X0295536Y0271591D02*
X0244648Y0271591D01*
X0244648Y0269992D02*
X0295536Y0269992D01*
X0296504Y0268394D02*
X0244648Y0268394D01*
X0244648Y0266795D02*
X0298103Y0266795D01*
X0299701Y0265197D02*
X0244648Y0265197D01*
X0244648Y0263598D02*
X0301300Y0263598D01*
X0302898Y0261999D02*
X0244648Y0261999D01*
X0244648Y0260401D02*
X0304497Y0260401D01*
X0306095Y0258802D02*
X0244648Y0258802D01*
X0244648Y0257204D02*
X0250569Y0257204D01*
X0249137Y0255605D02*
X0244648Y0255605D01*
X0244648Y0254007D02*
X0248896Y0254007D01*
X0249486Y0252408D02*
X0244648Y0252408D01*
X0244648Y0250810D02*
X0249486Y0250810D01*
X0249486Y0249211D02*
X0244648Y0249211D01*
X0244648Y0247613D02*
X0249486Y0247613D01*
X0249486Y0246014D02*
X0244648Y0246014D01*
X0244648Y0244416D02*
X0249486Y0244416D01*
X0249486Y0242817D02*
X0244664Y0242817D01*
X0246262Y0241219D02*
X0249486Y0241219D01*
X0249486Y0239620D02*
X0247861Y0239620D01*
X0249459Y0238022D02*
X0249486Y0238022D01*
X0257148Y0239620D02*
X0271321Y0239620D01*
X0271392Y0239794D02*
X0271002Y0238851D01*
X0271002Y0237433D01*
X0271545Y0236122D01*
X0272548Y0235119D01*
X0273858Y0234576D01*
X0275276Y0234576D01*
X0276587Y0235119D01*
X0277590Y0236122D01*
X0278133Y0237433D01*
X0278133Y0238851D01*
X0277742Y0239794D01*
X0277742Y0247740D01*
X0278133Y0248683D01*
X0278133Y0250101D01*
X0277590Y0251411D01*
X0276587Y0252414D01*
X0275276Y0252957D01*
X0273858Y0252957D01*
X0272548Y0252414D01*
X0271545Y0251411D01*
X0271002Y0250101D01*
X0271002Y0248683D01*
X0271392Y0247740D01*
X0271392Y0239794D01*
X0271392Y0241219D02*
X0257148Y0241219D01*
X0257148Y0242817D02*
X0271392Y0242817D01*
X0271392Y0244416D02*
X0257148Y0244416D01*
X0257148Y0246014D02*
X0271392Y0246014D01*
X0271392Y0247613D02*
X0257148Y0247613D01*
X0257148Y0249211D02*
X0271002Y0249211D01*
X0271296Y0250810D02*
X0257552Y0250810D01*
X0257739Y0252408D02*
X0272542Y0252408D01*
X0274567Y0249392D02*
X0274567Y0238142D01*
X0273258Y0234825D02*
X0261406Y0234825D01*
X0259808Y0236423D02*
X0271420Y0236423D01*
X0271002Y0238022D02*
X0258209Y0238022D01*
X0263005Y0233226D02*
X0325344Y0233226D01*
X0325221Y0234825D02*
X0275876Y0234825D01*
X0277715Y0236423D02*
X0325221Y0236423D01*
X0325221Y0238022D02*
X0278133Y0238022D01*
X0277814Y0239620D02*
X0325221Y0239620D01*
X0323679Y0241219D02*
X0277742Y0241219D01*
X0277742Y0242817D02*
X0322081Y0242817D01*
X0320482Y0244416D02*
X0277742Y0244416D01*
X0277742Y0246014D02*
X0318884Y0246014D01*
X0317285Y0247613D02*
X0277742Y0247613D01*
X0278133Y0249211D02*
X0315687Y0249211D01*
X0314088Y0250810D02*
X0277839Y0250810D01*
X0276593Y0252408D02*
X0312490Y0252408D01*
X0310891Y0254007D02*
X0256937Y0254007D01*
X0254997Y0255605D02*
X0309293Y0255605D01*
X0307694Y0257204D02*
X0253566Y0257204D01*
X0233879Y0273189D02*
X0233634Y0273189D01*
X0240731Y0284379D02*
X0357874Y0284379D01*
X0356275Y0285977D02*
X0239132Y0285977D01*
X0237534Y0287576D02*
X0356002Y0287576D01*
X0356002Y0289174D02*
X0235935Y0289174D01*
X0234337Y0290773D02*
X0356002Y0290773D01*
X0356002Y0292371D02*
X0232739Y0292371D01*
X0231975Y0293970D02*
X0356002Y0293970D01*
X0356002Y0295568D02*
X0046252Y0295568D01*
X0046252Y0293970D02*
X0227160Y0293970D01*
X0206876Y0281182D02*
X0117148Y0281182D01*
X0046252Y0297167D02*
X0356002Y0297167D01*
X0356002Y0298765D02*
X0046252Y0298765D01*
X0046252Y0300364D02*
X0356002Y0300364D01*
X0356002Y0301962D02*
X0046252Y0301962D01*
X0046252Y0303561D02*
X0356002Y0303561D01*
X0356002Y0305159D02*
X0046252Y0305159D01*
X0031217Y0258802D02*
X0028270Y0258802D01*
X0029564Y0257204D02*
X0029618Y0257204D01*
X0117870Y0142111D02*
X0259171Y0142111D01*
X0259171Y0140513D02*
X0119469Y0140513D01*
X0154252Y0076203D02*
X0159252Y0073703D01*
X0199252Y0073703D01*
X0204252Y0076203D01*
X0243152Y0106944D02*
X0258706Y0106944D01*
X0258394Y0108542D02*
X0243152Y0108542D01*
X0243152Y0110141D02*
X0258892Y0110141D01*
X0261326Y0111739D02*
X0243152Y0111739D01*
X0243152Y0113338D02*
X0262924Y0113338D01*
X0264523Y0114936D02*
X0243152Y0114936D01*
X0285700Y0095754D02*
X0288404Y0095754D01*
X0287769Y0097353D02*
X0286740Y0097353D01*
X0292896Y0108542D02*
X0331593Y0108542D01*
X0333770Y0113338D02*
X0336750Y0113338D01*
X0336967Y0114936D02*
X0317590Y0114936D01*
X0315992Y0116535D02*
X0338105Y0116535D01*
X0342525Y0116535D02*
X0355027Y0116535D01*
X0353521Y0118133D02*
X0314393Y0118133D01*
X0313277Y0119732D02*
X0312795Y0119732D01*
X0311679Y0121330D02*
X0311196Y0121330D01*
X0310080Y0122929D02*
X0309598Y0122929D01*
X0308482Y0124528D02*
X0307999Y0124528D01*
X0306883Y0126126D02*
X0306401Y0126126D01*
X0305285Y0127725D02*
X0304802Y0127725D01*
X0300982Y0124528D02*
X0296922Y0124528D01*
X0296546Y0122929D02*
X0302580Y0122929D01*
X0304179Y0121330D02*
X0296928Y0121330D01*
X0297237Y0119732D02*
X0305777Y0119732D01*
X0307376Y0118133D02*
X0296731Y0118133D01*
X0293487Y0116535D02*
X0308974Y0116535D01*
X0310573Y0114936D02*
X0293224Y0114936D01*
X0292896Y0113338D02*
X0312171Y0113338D01*
X0313770Y0111739D02*
X0292896Y0111739D01*
X0292896Y0110141D02*
X0315368Y0110141D01*
X0315499Y0124528D02*
X0315840Y0124528D01*
X0314242Y0126126D02*
X0313901Y0126126D01*
X0312643Y0127725D02*
X0312302Y0127725D01*
X0311045Y0129323D02*
X0310704Y0129323D01*
X0309446Y0130922D02*
X0309105Y0130922D01*
X0307848Y0132520D02*
X0307507Y0132520D01*
X0314065Y0137453D02*
X0325315Y0126203D01*
X0328487Y0126126D02*
X0362173Y0126126D01*
X0362594Y0125111D02*
X0361729Y0127199D01*
X0361729Y0129459D01*
X0362594Y0131547D01*
X0364159Y0133112D01*
X0363192Y0133513D01*
X0361594Y0135111D01*
X0360729Y0137199D01*
X0360729Y0139459D01*
X0361594Y0141547D01*
X0363192Y0143145D01*
X0364159Y0143545D01*
X0362594Y0145111D01*
X0361729Y0147199D01*
X0361729Y0149459D01*
X0362594Y0151547D01*
X0364159Y0153112D01*
X0363192Y0153513D01*
X0361957Y0154748D01*
X0359762Y0154748D01*
X0353441Y0148427D01*
X0353441Y0140277D01*
X0353831Y0139334D01*
X0353831Y0138072D01*
X0353349Y0136906D01*
X0352456Y0136014D01*
X0351291Y0135531D01*
X0350029Y0135531D01*
X0348863Y0136014D01*
X0347971Y0136906D01*
X0347488Y0138072D01*
X0347488Y0139334D01*
X0347879Y0140277D01*
X0347879Y0150132D01*
X0348101Y0150669D01*
X0347492Y0150922D01*
X0346467Y0150922D01*
X0335173Y0139627D01*
X0334391Y0138845D01*
X0333368Y0138422D01*
X0317097Y0138422D01*
X0317145Y0138306D01*
X0326169Y0129282D01*
X0327112Y0128892D01*
X0328004Y0127999D01*
X0328487Y0126834D01*
X0328487Y0125572D01*
X0328004Y0124406D01*
X0327282Y0123684D01*
X0352831Y0123684D01*
X0352989Y0123727D01*
X0353320Y0123684D01*
X0353653Y0123684D01*
X0353805Y0123621D01*
X0353968Y0123600D01*
X0354257Y0123434D01*
X0354565Y0123306D01*
X0354681Y0123190D01*
X0357134Y0121780D01*
X0357447Y0121910D01*
X0361957Y0121910D01*
X0363192Y0123145D01*
X0364159Y0123545D01*
X0362594Y0125111D01*
X0363177Y0124528D02*
X0328054Y0124528D01*
X0328118Y0127725D02*
X0361729Y0127725D01*
X0361729Y0129323D02*
X0326128Y0129323D01*
X0324530Y0130922D02*
X0362335Y0130922D01*
X0363567Y0132520D02*
X0322931Y0132520D01*
X0321332Y0134119D02*
X0362586Y0134119D01*
X0361342Y0135717D02*
X0351740Y0135717D01*
X0349580Y0135717D02*
X0319734Y0135717D01*
X0318135Y0137316D02*
X0347801Y0137316D01*
X0347488Y0138914D02*
X0334460Y0138914D01*
X0336058Y0140513D02*
X0347879Y0140513D01*
X0347879Y0142111D02*
X0337657Y0142111D01*
X0339255Y0143710D02*
X0347879Y0143710D01*
X0347879Y0145308D02*
X0340854Y0145308D01*
X0342452Y0146907D02*
X0347879Y0146907D01*
X0347879Y0148505D02*
X0344051Y0148505D01*
X0345649Y0150104D02*
X0347879Y0150104D01*
X0350660Y0149579D02*
X0359410Y0158329D01*
X0356099Y0159695D02*
X0313763Y0159695D01*
X0313881Y0158096D02*
X0355244Y0158096D01*
X0353646Y0156498D02*
X0350606Y0156498D01*
X0352003Y0154899D02*
X0352047Y0154899D01*
X0349065Y0153703D02*
X0345315Y0153703D01*
X0332815Y0141203D01*
X0312815Y0141203D01*
X0310837Y0143710D02*
X0310396Y0143710D01*
X0310396Y0145308D02*
X0332988Y0145308D01*
X0334586Y0146907D02*
X0310396Y0146907D01*
X0310396Y0148505D02*
X0336185Y0148505D01*
X0337783Y0150104D02*
X0310396Y0150104D01*
X0310396Y0151702D02*
X0339382Y0151702D01*
X0340980Y0153301D02*
X0310396Y0153301D01*
X0310113Y0154899D02*
X0342579Y0154899D01*
X0347525Y0156498D02*
X0313152Y0156498D01*
X0312767Y0161293D02*
X0357310Y0161293D01*
X0358315Y0153301D02*
X0363703Y0153301D01*
X0362749Y0151702D02*
X0356716Y0151702D01*
X0355118Y0150104D02*
X0361996Y0150104D01*
X0361729Y0148505D02*
X0353519Y0148505D01*
X0353441Y0146907D02*
X0361850Y0146907D01*
X0362512Y0145308D02*
X0353441Y0145308D01*
X0353441Y0143710D02*
X0363995Y0143710D01*
X0362158Y0142111D02*
X0353441Y0142111D01*
X0353441Y0140513D02*
X0361165Y0140513D01*
X0360729Y0138914D02*
X0353831Y0138914D01*
X0353518Y0137316D02*
X0360729Y0137316D01*
X0350660Y0138703D02*
X0350660Y0149579D01*
X0355135Y0122929D02*
X0362976Y0122929D01*
X0372033Y0111739D02*
X0374640Y0111739D01*
X0374640Y0110141D02*
X0372808Y0110141D01*
X0373091Y0108542D02*
X0374640Y0108542D01*
X0374640Y0106944D02*
X0372985Y0106944D01*
X0372323Y0105345D02*
X0374640Y0105345D01*
X0374640Y0103747D02*
X0370862Y0103747D01*
X0370368Y0102148D02*
X0374640Y0102148D01*
X0374640Y0100550D02*
X0371451Y0100550D01*
X0371880Y0098951D02*
X0374640Y0098951D01*
X0374640Y0097353D02*
X0371824Y0097353D01*
X0371774Y0097041D02*
X0371910Y0097896D01*
X0371910Y0098129D01*
X0366610Y0098129D01*
X0366610Y0092829D01*
X0366843Y0092829D01*
X0367698Y0092964D01*
X0368521Y0093232D01*
X0369292Y0093625D01*
X0369993Y0094134D01*
X0370605Y0094746D01*
X0371114Y0095446D01*
X0371507Y0096217D01*
X0371774Y0097041D01*
X0371271Y0095754D02*
X0374640Y0095754D01*
X0374640Y0094156D02*
X0370015Y0094156D01*
X0366610Y0094156D02*
X0366210Y0094156D01*
X0366210Y0095754D02*
X0366610Y0095754D01*
X0366610Y0097353D02*
X0366210Y0097353D01*
X0365552Y0076572D02*
X0369306Y0076572D01*
X0299383Y0126126D02*
X0298521Y0126126D01*
X0269912Y0153301D02*
X0266833Y0153301D01*
X0266833Y0154899D02*
X0269644Y0154899D01*
X0270249Y0156498D02*
X0266833Y0156498D01*
X0266833Y0158096D02*
X0276750Y0158096D01*
X0276867Y0159695D02*
X0266833Y0159695D01*
X0266833Y0161293D02*
X0277864Y0161293D01*
X0268232Y0151702D02*
X0266833Y0151702D01*
X0304710Y0161293D02*
X0307864Y0161293D01*
X0306867Y0159695D02*
X0305837Y0159695D01*
X0266833Y0206052D02*
X0388002Y0206052D01*
X0388002Y0207650D02*
X0266833Y0207650D01*
X0266833Y0209249D02*
X0388002Y0209249D01*
X0388002Y0210847D02*
X0266833Y0210847D01*
X0266833Y0212446D02*
X0388002Y0212446D01*
X0388002Y0214044D02*
X0266833Y0214044D01*
X0266833Y0215643D02*
X0388002Y0215643D01*
X0388002Y0217241D02*
X0266833Y0217241D01*
X0266833Y0218840D02*
X0388002Y0218840D01*
X0388002Y0220438D02*
X0266833Y0220438D01*
X0266833Y0222037D02*
X0388002Y0222037D01*
X0388002Y0223635D02*
X0339172Y0223635D01*
X0339737Y0225234D02*
X0388002Y0225234D01*
X0388002Y0226832D02*
X0339452Y0226832D01*
X0337811Y0228431D02*
X0388002Y0228431D01*
X0388002Y0230029D02*
X0335983Y0230029D01*
X0334384Y0231628D02*
X0388002Y0231628D01*
X0388002Y0233226D02*
X0332786Y0233226D01*
X0331187Y0234825D02*
X0388002Y0234825D01*
X0388002Y0236423D02*
X0330783Y0236423D01*
X0330783Y0238022D02*
X0388002Y0238022D01*
X0388002Y0239620D02*
X0330783Y0239620D01*
X0330783Y0241219D02*
X0388002Y0241219D01*
X0388002Y0242817D02*
X0329947Y0242817D01*
X0328348Y0244416D02*
X0388002Y0244416D01*
X0388002Y0246014D02*
X0326750Y0246014D01*
X0325151Y0247613D02*
X0388002Y0247613D01*
X0388002Y0249211D02*
X0323553Y0249211D01*
X0321954Y0250810D02*
X0388002Y0250810D01*
X0388002Y0252408D02*
X0320356Y0252408D01*
X0318757Y0254007D02*
X0388002Y0254007D01*
X0388002Y0255605D02*
X0317159Y0255605D01*
X0315560Y0257204D02*
X0388002Y0257204D01*
X0388002Y0258802D02*
X0313962Y0258802D01*
X0312363Y0260401D02*
X0388002Y0260401D01*
X0388002Y0261999D02*
X0310765Y0261999D01*
X0309166Y0263598D02*
X0388002Y0263598D01*
X0388002Y0265197D02*
X0307568Y0265197D01*
X0305969Y0266795D02*
X0388002Y0266795D01*
X0388002Y0268394D02*
X0304371Y0268394D01*
X0302772Y0269992D02*
X0388002Y0269992D01*
X0370662Y0271591D02*
X0301174Y0271591D01*
X0301098Y0273189D02*
X0369064Y0273189D01*
X0367465Y0274788D02*
X0301098Y0274788D01*
X0301098Y0276386D02*
X0365867Y0276386D01*
X0364268Y0277985D02*
X0301098Y0277985D01*
X0301312Y0279583D02*
X0362669Y0279583D01*
X0361071Y0281182D02*
X0301489Y0281182D01*
X0300664Y0282780D02*
X0359472Y0282780D01*
X0328002Y0240829D02*
X0328002Y0234077D01*
X0336565Y0225514D01*
X0333958Y0223635D02*
X0266833Y0223635D01*
X0266833Y0225234D02*
X0332912Y0225234D01*
X0331314Y0226832D02*
X0266833Y0226832D01*
X0266833Y0228431D02*
X0329715Y0228431D01*
X0328117Y0230029D02*
X0266202Y0230029D01*
X0264603Y0231628D02*
X0326518Y0231628D01*
X0328002Y0240829D02*
X0298317Y0270514D01*
X0298317Y0280642D01*
X0236978Y0204453D02*
X0213028Y0204453D01*
X0233377Y0202855D02*
X0238576Y0202855D01*
X0240175Y0201256D02*
X0234975Y0201256D01*
X0236574Y0199658D02*
X0241773Y0199658D01*
X0243372Y0198059D02*
X0238172Y0198059D01*
X0239771Y0196461D02*
X0244831Y0196461D01*
X0245734Y0194862D02*
X0241369Y0194862D01*
D18*
X0248002Y0197079D03*
X0250502Y0199579D03*
X0251752Y0203329D03*
X0254567Y0214392D03*
X0239567Y0231892D03*
X0224567Y0221892D03*
X0194567Y0224392D03*
X0182067Y0223142D03*
X0164567Y0239392D03*
X0158317Y0238142D03*
X0157067Y0246892D03*
X0137067Y0249392D03*
X0119567Y0244392D03*
X0117067Y0249392D03*
X0104567Y0236892D03*
X0099567Y0224392D03*
X0114567Y0216892D03*
X0127067Y0231267D03*
X0123002Y0203329D03*
X0141752Y0203329D03*
X0139252Y0156892D03*
X0174252Y0156892D03*
X0196752Y0156892D03*
X0231752Y0156892D03*
X0241752Y0134579D03*
X0240502Y0130829D03*
X0239252Y0127079D03*
X0257190Y0124579D03*
X0258814Y0121454D03*
X0259941Y0118329D03*
X0261565Y0108329D03*
X0272815Y0116203D03*
X0277815Y0118703D03*
X0279690Y0110578D03*
X0290315Y0116203D03*
X0294065Y0119953D03*
X0292815Y0132453D03*
X0292815Y0141203D03*
X0301565Y0141203D03*
X0312815Y0141203D03*
X0314065Y0137453D03*
X0325315Y0126203D03*
X0319065Y0124953D03*
X0335315Y0113703D03*
X0340315Y0113703D03*
X0350315Y0117453D03*
X0350315Y0126203D03*
X0350660Y0138703D03*
X0349065Y0153703D03*
X0320315Y0149953D03*
X0317815Y0158703D03*
X0315315Y0163703D03*
X0310315Y0158703D03*
X0302815Y0158703D03*
X0292815Y0149953D03*
X0287190Y0159328D03*
X0280315Y0158703D03*
X0272815Y0154579D03*
X0270940Y0149953D03*
X0274690Y0149953D03*
X0284065Y0141203D03*
X0265315Y0134953D03*
X0262815Y0132453D03*
X0270315Y0163703D03*
X0257815Y0165829D03*
X0238002Y0184579D03*
X0239252Y0188329D03*
X0241752Y0190829D03*
X0287815Y0178703D03*
X0292815Y0173703D03*
X0305315Y0173703D03*
X0297815Y0187453D03*
X0326565Y0198329D03*
X0332815Y0183703D03*
X0350315Y0190829D03*
X0364065Y0199579D03*
X0364065Y0212079D03*
X0346565Y0212079D03*
X0336565Y0225514D03*
X0334065Y0245514D03*
X0355187Y0266016D03*
X0310817Y0288142D03*
X0298317Y0286892D03*
X0298317Y0280642D03*
X0279567Y0261892D03*
X0274567Y0249392D03*
X0274567Y0238142D03*
X0279567Y0231267D03*
X0302815Y0235514D03*
X0254567Y0251892D03*
X0252067Y0254392D03*
X0229567Y0266892D03*
X0227067Y0261892D03*
X0227067Y0256892D03*
X0227067Y0253142D03*
X0235817Y0270642D03*
X0237067Y0274392D03*
X0228942Y0275017D03*
X0229567Y0291892D03*
X0239567Y0299392D03*
X0254567Y0289392D03*
X0265817Y0278142D03*
X0209567Y0279392D03*
X0173317Y0268142D03*
X0169567Y0271892D03*
X0172067Y0275642D03*
X0167692Y0264392D03*
X0152067Y0279392D03*
X0139567Y0291892D03*
X0127067Y0286892D03*
X0114567Y0289392D03*
X0120817Y0298142D03*
X0122067Y0275642D03*
X0122067Y0271892D03*
X0120817Y0268142D03*
X0077067Y0224392D03*
X0102377Y0137079D03*
X0056752Y0125829D03*
X0039252Y0125829D03*
X0098002Y0067079D03*
X0174252Y0051203D03*
X0181752Y0061203D03*
X0261565Y0078329D03*
X0281565Y0079579D03*
X0289690Y0072079D03*
X0286565Y0059579D03*
X0309065Y0060829D03*
X0312815Y0057079D03*
X0312815Y0052079D03*
X0326565Y0070829D03*
X0332815Y0073329D03*
X0337815Y0065829D03*
X0342815Y0065829D03*
X0355315Y0058329D03*
X0364065Y0073329D03*
X0362815Y0080829D03*
X0344065Y0097079D03*
X0344065Y0100829D03*
X0332815Y0083329D03*
X0319065Y0085829D03*
X0307815Y0090829D03*
X0290940Y0097704D03*
X0282815Y0097079D03*
X0337815Y0035829D03*
X0349065Y0035829D03*
X0272815Y0033329D03*
D19*
X0319065Y0085829D02*
X0332815Y0073329D01*
X0361910Y0098329D02*
X0371910Y0098329D01*
X0371910Y0103329D02*
X0361910Y0103329D01*
X0361910Y0113329D02*
X0373160Y0113329D01*
X0373160Y0123329D02*
X0361910Y0123329D01*
X0361910Y0133329D02*
X0373160Y0133329D01*
X0371910Y0143329D02*
X0361910Y0143329D01*
X0361910Y0153329D02*
X0371910Y0153329D01*
X0373160Y0163329D02*
X0360660Y0163329D01*
X0319065Y0124953D02*
X0307815Y0136203D01*
X0307815Y0153703D01*
X0302815Y0158703D01*
X0292815Y0158703D02*
X0287815Y0153703D01*
X0287815Y0133703D01*
X0277815Y0123703D01*
X0277815Y0118703D01*
X0267815Y0122079D02*
X0267815Y0114579D01*
X0261565Y0108329D01*
X0267815Y0122079D02*
X0279626Y0133890D01*
X0279626Y0152768D01*
X0277815Y0154579D01*
X0272815Y0154579D01*
X0257815Y0165829D02*
X0257815Y0169392D01*
X0259252Y0170829D01*
X0259252Y0224579D01*
X0242067Y0241764D01*
X0242067Y0279392D01*
X0229567Y0291892D01*
X0228942Y0275017D02*
X0233317Y0269392D01*
X0233317Y0216764D01*
X0250502Y0199579D01*
X0248002Y0197079D02*
X0230817Y0214264D01*
X0230817Y0265642D01*
X0229567Y0266892D01*
X0227067Y0261892D02*
X0209567Y0279392D01*
X0235817Y0270642D02*
X0235817Y0219264D01*
X0251752Y0203329D01*
X0241752Y0190829D02*
X0231752Y0200829D01*
X0213002Y0200829D01*
X0169439Y0244392D01*
X0134567Y0244392D01*
X0114567Y0264392D01*
X0114567Y0289392D01*
X0122067Y0275642D02*
X0172067Y0275642D01*
X0169567Y0271892D02*
X0122067Y0271892D01*
X0120817Y0268142D02*
X0173317Y0268142D01*
X0165388Y0253142D02*
X0227067Y0253142D01*
X0227067Y0256892D02*
X0144567Y0256892D01*
X0137067Y0249392D01*
X0157067Y0246892D02*
X0161853Y0251677D01*
X0161852Y0251678D02*
X0161953Y0251775D01*
X0162056Y0251870D01*
X0162162Y0251962D01*
X0162271Y0252051D01*
X0162381Y0252137D01*
X0162495Y0252220D01*
X0162610Y0252299D01*
X0162728Y0252376D01*
X0162848Y0252449D01*
X0162969Y0252518D01*
X0163093Y0252584D01*
X0163219Y0252647D01*
X0163346Y0252706D01*
X0163475Y0252761D01*
X0163605Y0252813D01*
X0163737Y0252861D01*
X0163870Y0252906D01*
X0164004Y0252947D01*
X0164139Y0252984D01*
X0164275Y0253017D01*
X0164413Y0253046D01*
X0164550Y0253071D01*
X0164689Y0253093D01*
X0164828Y0253111D01*
X0164968Y0253124D01*
X0165108Y0253134D01*
X0165248Y0253140D01*
X0165388Y0253142D01*
X0164567Y0239392D02*
X0170689Y0239392D01*
X0213002Y0197079D01*
X0230502Y0197079D01*
X0239252Y0188329D01*
X0238002Y0184579D02*
X0229252Y0193329D01*
X0211880Y0193329D01*
X0182067Y0223142D01*
X0252067Y0236764D02*
X0252067Y0254392D01*
X0254567Y0251892D02*
X0254567Y0238014D01*
X0264252Y0228329D01*
X0264252Y0136016D01*
X0265315Y0134953D01*
X0262815Y0132453D02*
X0261752Y0133516D01*
X0261752Y0227079D01*
X0252067Y0236764D01*
X0292815Y0173703D02*
X0292815Y0158703D01*
X0241752Y0134579D02*
X0121752Y0134579D01*
X0099252Y0157079D01*
X0099252Y0139579D02*
X0099252Y0133329D01*
X0105502Y0127079D01*
X0239252Y0127079D01*
X0240502Y0130829D02*
X0119252Y0130829D01*
X0113002Y0137079D01*
X0102377Y0137079D01*
X0282815Y0097079D02*
X0290315Y0104579D01*
X0290315Y0116203D01*
D20*
X0268440Y0147704D03*
X0215502Y0223329D03*
X0145502Y0212079D03*
X0099252Y0157079D03*
X0099252Y0139579D03*
X0106752Y0282079D03*
X0221752Y0282079D03*
D21*
X0141752Y0203329D02*
X0123002Y0203329D01*
X0294065Y0059579D02*
X0300315Y0065829D01*
X0337815Y0065829D01*
X0342815Y0065829D01*
X0337815Y0065829D02*
X0371476Y0065829D01*
X0381752Y0076105D01*
X0381752Y0195642D01*
X0377815Y0199579D01*
X0364065Y0199579D01*
X0366410Y0158329D02*
X0359410Y0158329D01*
X0358160Y0118329D02*
X0366410Y0118329D01*
X0367410Y0108329D02*
X0359410Y0108329D01*
X0294065Y0059579D02*
X0286565Y0059579D01*
D22*
X0307815Y0090829D02*
X0304065Y0094579D01*
X0294065Y0094579D01*
X0290940Y0097704D01*
D23*
X0211752Y0068703D02*
X0194252Y0051203D01*
X0174252Y0051203D01*
X0181752Y0061203D02*
X0151752Y0061203D01*
X0146752Y0066203D01*
X0146752Y0068703D01*
X0136752Y0068703D02*
X0149252Y0056203D01*
X0186752Y0056203D01*
X0191752Y0061203D01*
X0191752Y0068703D01*
X0196752Y0078703D02*
X0186752Y0088703D01*
X0149252Y0088703D01*
X0141752Y0081203D01*
X0141752Y0078703D01*
X0151752Y0078703D02*
X0154252Y0076203D01*
X0204252Y0076203D02*
X0206752Y0078703D01*
D24*
X0378268Y0035514D03*
X0378268Y0291419D03*
X0023937Y0291419D03*
X0023937Y0035514D03*
M02*
